<svg xmlns="http://www.w3.org/2000/svg" xmlns:xlink="http://www.w3.org/1999/xlink" xmlns:lucid="lucid" width="1302" height="560"><g transform="translate(-60 -79.99999999999994)" lucid:page-tab-id="0_0"><path d="M0 0h1760v1360H0z" fill="#fff"/><path d="M521 590l27.25.55 20.33 1.26 15.9 1.67 13.28 1.95 11.94 2.28 12.32 2.9 41.34 11.12 7.57 1.44 7.47 1.1 7.97.84 9 .56 10.78.22 13.6-.3 7.45-.38 3.3-.27 3.4-.42 3.56-.6 3.73-.77 3.9-1 4.14-1.24 4.38-1.52 4.65-1.84 4.98-2.2 5.33-2.63 5.75-3.14 6.23-3.75 6.76-4.47 7.38-5.34 8.08-6.4 8.87-7.62 9.77-9.15 10.76-10.94 11.8-13.08 12.9-15.53 13.92-18.27 14.74-21.12 15.2-23.84 15.1-26.03 14.33-27.26 12.92-27.3 11.04-26.1 9-24 7.02-21.42 5.3-18.7 3.82-16.15 2.68-13.84 1.8-11.86 1.08-10.17.03-.37" stroke="#000" fill="none"/><path d="M521.03 589.5l-.02 1h-.5v-1z"/><path d="M985.53 222.12l4 14.46-9.27-.42z" stroke="#000"/><path d="M521 490l7.1.16 6.6.4 5.85.62 5.22.77 4.73.9 4.3 1 3.97 1.1 3.68 1.2 3.44 1.3 3.24 1.36 3.1 1.46 2.96 1.55 2.86 1.67 2.8 1.77 2.76 1.92 2.76 2.1 2.8 2.3 2.87 2.6 3.05 3 3.38 3.6 4.1 4.75 7.3 9.3 12.43 16.07 4.23 4.9 3.52 3.76 3.2 3.13 3.04 2.74 2.95 2.44 2.94 2.24 2.95 2.05 3 1.92 3.12 1.8 3.23 1.68 3.38 1.6 3.57 1.5 3.8 1.4 4.1 1.33 4.4 1.23 4.83 1.12 5.33 1.02 5.93.87 6.67.7 7.6.48 8.75.18 8.75-.16 3.2-.18 3.34-.33 3.46-.5 3.6-.67 3.8-.87 4-1.1 4.2-1.34 4.47-1.63 4.76-1.98 5.1-2.36 5.47-2.83 5.9-3.36 6.4-4.02 6.96-4.78 7.6-5.7 8.32-6.82 9.14-8.14 10.04-9.72 11.03-11.6 12.03-13.82 13.03-16.27 13.9-18.92 14.46-21.5 14.55-23.74 14.04-25.2 12.88-25.55 11.2-24.76 9.25-22.97 7.3-20.6 5.57-18 4.1-15.5 2.9-13.26 1.98-11.28 1.28-9.64.27-3.03" stroke="#000" fill="none"/><path d="M521.03 489.5l-.02 1h-.5v-1z"/><path d="M971.9 222.12l3.9 14.5-9.27-.5z" stroke="#000"/><path d="M521 390l3.27.08 3.6.22 3.42.36 3.28.5 3.17.6 3.08.72 3 .83 2.93.97 2.88 1.07 2.84 1.2 2.82 1.32 2.8 1.47 2.82 1.62 2.82 1.8 2.86 1.98 2.9 2.2 2.98 2.47 3.06 2.75 3.18 3.12 3.34 3.56 3.54 4.1 3.83 4.85 4.24 5.83 4.87 7.36 6.08 10.07 10.2 18.7 21.4 40.4 5.7 9.45 4.52 6.8 3.86 5.34 3.46 4.36 3.18 3.68 2.96 3.16 2.8 2.74 2.67 2.4 2.58 2.15 2.5 1.9 2.46 1.72 2.42 1.53 2.38 1.37 2.37 1.24 2.36 1.1 2.38 1 2.4.9 2.42.8 2.47.68 2.5.6 2.6.48 2.66.4 2.76.28 2.87.18 3 .07 3.17-.07 3.34-.2 1.8-.18 3.17-.4 3.33-.57 3.53-.75 3.74-.96 3.98-1.2 4.27-1.5 4.6-1.82 4.94-2.2 5.38-2.7 5.86-3.2 6.42-3.9 7.05-4.7 7.8-5.68 8.6-6.84 9.57-8.27 10.6-9.96 11.7-11.98 12.83-14.27 13.85-16.78 14.63-19.3 14.97-21.57 14.68-23.16L906 378.5l12.17-23.28 10.27-21.82 8.3-19.74 6.47-17.42 4.92-15.1 3.63-13 2.62-11.15 1.83-9.56 1.2-8.24.26-2.36" stroke="#000" fill="none"/><path d="M521.03 389.5l-.02 1h-.5v-1z"/><path d="M958.57 222.1l3.75 14.54-9.26-.57z" stroke="#000"/><path d="M360 164c0-2.2 1.8-4 4-4h152c2.2 0 4 1.8 4 4v52c0 2.2-1.8 4-4 4H364c-2.2 0-4-1.8-4-4z" stroke="#000" fill="#fff"/><use xlink:href="#a" transform="matrix(1,0,0,1,365,165) translate(16.923828125 31.955078125)"/><path d="M360 264c0-2.2 1.8-4 4-4h152c2.2 0 4 1.8 4 4v52c0 2.2-1.8 4-4 4H364c-2.2 0-4-1.8-4-4z" stroke="#000" fill="#fff"/><use xlink:href="#b" transform="matrix(1,0,0,1,365,265) translate(21.8212890625 31.955078125)"/><path d="M360 364c0-2.2 1.8-4 4-4h152c2.2 0 4 1.8 4 4v52c0 2.2-1.8 4-4 4H364c-2.2 0-4-1.8-4-4z" stroke="#000" fill="#fff"/><use xlink:href="#c" transform="matrix(1,0,0,1,365,365) translate(24.86328125 31.955078125)"/><path d="M360 464c0-2.2 1.8-4 4-4h152c2.2 0 4 1.8 4 4v52c0 2.2-1.8 4-4 4H364c-2.2 0-4-1.8-4-4z" stroke="#000" fill="#fff"/><use xlink:href="#d" transform="matrix(1,0,0,1,365,465) translate(14.4091796875 31.955078125)"/><path d="M360 564c0-2.2 1.8-4 4-4h152c2.2 0 4 1.8 4 4v52c0 2.2-1.8 4-4 4H364c-2.2 0-4-1.8-4-4z" stroke="#000" fill="#fff"/><use xlink:href="#e" transform="matrix(1,0,0,1,365,565) translate(24.19921875 31.955078125)"/><path d="M922 164c0-2.2 1.8-4 4-4h152c2.2 0 4 1.8 4 4v52c0 2.2-1.8 4-4 4H926c-2.2 0-4-1.8-4-4z" stroke="#000" fill="#fff"/><use xlink:href="#f" transform="matrix(1,0,0,1,927,165) translate(24.90234375 31.955078125)"/><path d="M80 164c0-2.2 1.8-4 4-4h152c2.2 0 4 1.8 4 4v52c0 2.2-1.8 4-4 4H84c-2.2 0-4-1.8-4-4z" stroke="#000" fill="#fff"/><use xlink:href="#g" transform="matrix(1,0,0,1,85,165) translate(21.201171875 31.955078125)"/><path d="M241 190h102.12" stroke="#000" fill="none"/><path d="M241 190.5h-.5v-1h.5z"/><path d="M357.88 190l-14.26 4.64v-9.28z" stroke="#000"/><path d="M440 221v22.12" stroke="#000" fill="none"/><path d="M440.5 221h-1v-.5h1z"/><path d="M440 257.88l-4.64-14.26h9.28z" stroke="#000"/><path d="M521 290l1.1.03 1.53.1 1.5.16 1.46.2 1.43.28 1.4.33 1.4.4 1.4.45 1.4.52 1.37.58 1.4.66 1.4.75 1.44.82 1.45.92 1.48 1.03 1.54 1.17 1.6 1.3 1.64 1.5 1.73 1.7 1.82 1.94 1.94 2.26 2.1 2.65 2.3 3.16 2.55 3.87 2.94 4.85 3.54 6.44 4.75 9.62 24.5 54.26 3.53 6.44 2.93 4.85 2.54 3.86 2.3 3.15 2.1 2.65 1.94 2.26 1.83 1.95 1.74 1.7 1.65 1.5 1.58 1.3 1.54 1.17 1.5 1.04 1.44.93 1.43.82 1.4.74.08.03" stroke="#000" fill="none"/><path d="M521.02 289.5l-.02 1h-.5v-1z"/><path d="M638.92 429.63l-14.94 1.3 2.1-9.03z" stroke="#000"/><path d="M359 301.37l-.68.02-1.12.08-1.1.16-1.06.2-1.03.28-1 .32-1 .4-1 .43-1 .52-.98.57-1 .67-.98.76-1 .85-1.02.97-1.03 1.1-1.06 1.25-1.06 1.42-1.07 1.62-1.07 1.86-1.08 2.13-1.07 2.44-1.04 2.8-.98 3.15-.9 3.54-.74 3.94-.57 4.3-.35 4.53-.1 4.7.18 4.63.42 4.48.63 4.2.8 3.83.92 3.44 1 3.04 1.05 2.68 1.07 2.34 1.1 2.04 1.07 1.8 1.07 1.55 1.06 1.38 1.04 1.2.6.63" stroke="#000" fill="none"/><path d="M359.5 301.85l-.5.02-.03-1 .53-.02z"/><path d="M358.02 389.35l-14.93-1.48 3.7-8.5z" stroke="#000"/><path d="M359 290l-1.48.04-1.92.12-1.87.2-1.82.27-1.77.34-1.76.4-1.72.5-1.7.54-1.68.64-1.67.7-1.66.78-1.66.87-1.65.94-1.65 1.05-1.66 1.15-1.67 1.26-1.68 1.4-1.7 1.52-1.7 1.68-1.72 1.83-1.75 2.02-1.76 2.23-1.78 2.45-1.8 2.7-1.8 3-1.82 3.3-1.8 3.65-1.8 4.04-1.77 4.46-1.7 4.92-1.64 5.4-1.5 5.87-1.36 6.38-1.16 6.84-.9 7.24-.63 7.57-.33 7.8v7.83l.33 7.78.63 7.58.92 7.25 1.15 6.84 1.36 6.37 1.5 5.88 1.63 5.4 1.7 4.9 1.78 4.47 1.8 4.02 1.8 3.66 1.82 3.3 1.8 3 1.8 2.7 1.8 2.45 1.75 2.22 1.75 2.02 1.73 1.84 1.7 1.68 1.7 1.52 1.67 1.4 1.67 1.26 1.66 1.15 1.65 1.06 1.66.95 1.64.88 1.66.78 1.67.7.2.08" stroke="#000" fill="none"/><path d="M359.5 290.5h-.5l-.03-1h.53z"/><path d="M357.9 489.7l-14.86 1.97 1.68-9.1z" stroke="#000"/><path d="M359 273.87l-2.63.05-3.03.2-2.96.3-2.88.43-2.82.54-2.77.63-2.7.77-2.7.87-2.66 1-2.64 1.1-2.62 1.23-2.62 1.37-2.6 1.5-2.63 1.67-2.62 1.82-2.62 2-2.66 2.2-2.67 2.4-2.7 2.65-2.73 2.92-2.75 3.2-2.8 3.5-2.8 3.88-2.84 4.28-2.86 4.73-2.87 5.23-2.87 5.78-2.84 6.4-2.8 7.04-2.7 7.77-2.57 8.53-2.38 9.3-2.14 10.08-1.82 10.82-1.44 11.46-1 11.97-.52 12.3v12.4l.52 12.3 1 11.95 1.45 11.46 1.8 10.8 2.15 10.1 2.4 9.3 2.56 8.5 2.7 7.77 2.8 7.05 2.84 6.38 2.87 5.78 2.88 5.22 2.85 4.72 2.84 4.28 2.82 3.88 2.77 3.5 2.76 3.2 2.73 2.9 2.7 2.65 2.67 2.4 2.65 2.2 2.64 2 2.62 1.82 2.6 1.66 2.63 1.5 2.6 1.37 2.64 1.24 2.65 1.1 2.66 1 2.7.86 2.72.76 1.34.32" stroke="#000" fill="none"/><path d="M359.5 274.36h-.5l-.03-1h.53z"/><path d="M357.9 589.82l-14.7 2.97 1.05-9.22z" stroke="#000"/><path d="M521 190l10.57-.22 8.85-.55 7.46-.78 6.64-.98 6.34-1.2 6.78-1.6 32.5-8.93 6.34-1.2 6.64-1 7.46-.77 3.55-.22" stroke="#000" fill="none"/><path d="M521.02 190.5h-.52v-1h.5z"/><path d="M638.88 172.05l-14.1 5.12-.3-9.27z" stroke="#000"/><path d="M521 290l2.28-.06 2.62-.16 2.5-.26 2.37-.36 2.3-.43 2.2-.52 2.15-.6 2.1-.67 2.07-.77 2.04-.86 2.03-.96 2.03-1.06 2.06-1.2 2.1-1.3 2.13-1.5 2.2-1.7 2.35-1.93 2.5-2.26 2.78-2.72 3.2-3.4 4.04-4.7 22.9-28.85 3.2-3.4 2.77-2.72 2.5-2.25 2.35-1.94 2.2-1.68 2.15-1.5 2.1-1.3 2.05-1.2 2.03-1.06 2.03-.96 2.05-.86 2.07-.77 2.1-.68.75-.22" stroke="#000" fill="none"/><path d="M521.02 290.5h-.52v-1h.5z"/><path d="M638.9 211.22l-13.52 6.5-1.24-9.2z" stroke="#000"/><path d="M721 221v22.12" stroke="#000" fill="none"/><path d="M721.5 221h-1v-.5h1z"/><path d="M721 257.88l-4.64-14.26h9.28z" stroke="#000"/><path d="M521 190l.58.02 1.06.07 1.04.1 1.02.15 1.02.2 1 .23 1.02.28 1 .33 1.03.37 1.03.43 1.04.5 1.06.55 1.1.63 1.1.7 1.14.8 1.2.9 1.22 1.02 1.3 1.16 1.34 1.33 1.43 1.5 1.53 1.78 1.63 2.06 1.75 2.42 1.92 2.9 2.12 3.5 2.37 4.34 2.72 5.5 3.2 7.2 3.95 10.04 5.53 16 27.57 89.25 3.96 10.04 3.2 7.2 2.73 5.5 2.38 4.32 2.13 3.5 1.92 2.9 1.76 2.44 1.64 2.06 1.53 1.76 1.43 1.53 1.35 1.32 1.3 1.17 1.22 1.02 1.2.9.43.3" stroke="#000" fill="none"/><path d="M521.02 189.5l-.02 1h-.5v-1z"/><path d="M638.96 396.82l-15-.08 2.92-8.8z" stroke="#000"/><path d="M641 164c0-2.2 1.8-4 4-4h152c2.2 0 4 1.8 4 4v52c0 2.2-1.8 4-4 4H645c-2.2 0-4-1.8-4-4z" stroke="#000" fill="#fff"/><use xlink:href="#h" transform="matrix(1,0,0,1,646,165) translate(14.7802734375 31.955078125)"/><path d="M641 264c0-2.2 1.8-4 4-4h152c2.2 0 4 1.8 4 4v52c0 2.2-1.8 4-4 4H645c-2.2 0-4-1.8-4-4z" stroke="#000" fill="#fff"/><use xlink:href="#i" transform="matrix(1,0,0,1,646,265) translate(23.125 31.955078125)"/><path d="M641 364c0-2.2 1.8-4 4-4h152c2.2 0 4 1.8 4 4v132c0 2.2-1.8 4-4 4H645c-2.2 0-4-1.8-4-4z" stroke="#000" fill="#fff"/><use xlink:href="#j" transform="matrix(1,0,0,1,646,365) translate(11.8115234375 25.109375)"/><use xlink:href="#k" transform="matrix(1,0,0,1,646,365) translate(13.8818359375 56.33984375)"/><use xlink:href="#l" transform="matrix(1,0,0,1,646,365) translate(21.1328125 87.5703125)"/><use xlink:href="#m" transform="matrix(1,0,0,1,646,365) translate(15.6787109375 118.80078125)"/><path d="M80 104c0-2.2 1.8-4 4-4h152c2.2 0 4 1.8 4 4v32c0 2.2-1.8 4-4 4H84c-2.2 0-4-1.8-4-4z" stroke="#000" stroke-opacity="0" fill="#fff" fill-opacity="0"/><use xlink:href="#n" transform="matrix(1,0,0,1,85,104.99999999999997) translate(0 16.865234375)"/><path d="M360 104c0-2.2 1.8-4 4-4h232c2.2 0 4 1.8 4 4v32c0 2.2-1.8 4-4 4H364c-2.2 0-4-1.8-4-4z" stroke="#000" stroke-opacity="0" fill="#fff" fill-opacity="0"/><use xlink:href="#o" transform="matrix(1,0,0,1,365,104.99999999999994) translate(0 16.865234375)"/><use xlink:href="#p" transform="matrix(1,0,0,1,365,104.99999999999994) translate(56.279296875 16.865234375)"/><path d="M920 104c0-2.2 1.8-4 4-4h150c2.2 0 4 1.8 4 4v32c0 2.2-1.8 4-4 4H924c-2.2 0-4-1.8-4-4z" stroke="#000" stroke-opacity="0" fill="#fff" fill-opacity="0"/><use xlink:href="#q" transform="matrix(1,0,0,1,925,105) translate(0 16.865234375)"/><use xlink:href="#r" transform="matrix(1,0,0,1,925,105) translate(77.734375 16.865234375)"/><use xlink:href="#s" transform="matrix(1,0,0,1,925,105) translate(93.14453125 16.865234375)"/><use xlink:href="#t" transform="matrix(1,0,0,1,925,105) translate(0 37.685546875)"/><path d="M640 104c0-2.2 1.8-4 4-4h232c2.2 0 4 1.8 4 4v32c0 2.2-1.8 4-4 4H644c-2.2 0-4-1.8-4-4z" stroke="#000" stroke-opacity="0" fill="#fff" fill-opacity="0"/><use xlink:href="#u" transform="matrix(1,0,0,1,645,104.99999999999997) translate(0 16.865234375)"/><use xlink:href="#v" transform="matrix(1,0,0,1,645,104.99999999999997) translate(58.3203125 16.865234375)"/><path d="M1182 164c0-2.2 1.8-4 4-4h152c2.2 0 4 1.8 4 4v52c0 2.2-1.8 4-4 4h-152c-2.2 0-4-1.8-4-4z" stroke="#000" fill="#fff"/><use xlink:href="#w" transform="matrix(1,0,0,1,1187,165) translate(52.216796875 31.955078125)"/><path d="M1182 104c0-2.2 1.8-4 4-4h150c2.2 0 4 1.8 4 4v32c0 2.2-1.8 4-4 4h-150c-2.2 0-4-1.8-4-4z" stroke="#000" stroke-opacity="0" fill="#fff" fill-opacity="0"/><use xlink:href="#x" transform="matrix(1,0,0,1,1187,104.99999999999997) translate(0 16.865234375)"/><use xlink:href="#r" transform="matrix(1,0,0,1,1187,104.99999999999997) translate(48.33984375 16.865234375)"/><use xlink:href="#y" transform="matrix(1,0,0,1,1187,104.99999999999997) translate(63.75 16.865234375)"/><use xlink:href="#t" transform="matrix(1,0,0,1,1187,104.99999999999997) translate(0 37.685546875)"/><path d="M1180 264c0-2.2 1.8-4 4-4h152c2.2 0 4 1.8 4 4v52c0 2.2-1.8 4-4 4h-152c-2.2 0-4-1.8-4-4z" stroke="#000" fill="#fff"/><g><use xlink:href="#z" transform="matrix(1,0,0,1,1185,265) translate(10.595703125 31.955078125)"/></g><path d="M1182 364c0-2.2 1.8-4 4-4h152c2.2 0 4 1.8 4 4v52c0 2.2-1.8 4-4 4h-152c-2.2 0-4-1.8-4-4z" stroke="#000" fill="#fff"/><g><use xlink:href="#A" transform="matrix(1,0,0,1,1187,365) translate(16.4111328125 31.955078125)"/></g><path d="M1181 464c0-2.2 1.8-4 4-4h152c2.2 0 4 1.8 4 4v52c0 2.2-1.8 4-4 4h-152c-2.2 0-4-1.8-4-4z" stroke="#000" fill="#fff"/><g><use xlink:href="#B" transform="matrix(1,0,0,1,1186,465) translate(53.6083984375 31.955078125)"/></g><path d="M1181 564c0-2.2 1.8-4 4-4h152c2.2 0 4 1.8 4 4v52c0 2.2-1.8 4-4 4h-152c-2.2 0-4-1.8-4-4z" stroke="#000" fill="#fff"/><g><use xlink:href="#C" transform="matrix(1,0,0,1,1186,565) translate(43.33984375 31.955078125)"/></g><path d="M1099.5 164c0-2.2 1.8-4 4-4h53c2.2 0 4 1.8 4 4v452c0 2.2-1.8 4-4 4h-53c-2.2 0-4-1.8-4-4z" fill="none"/><path d="M1099.5 620c15.88 0 28.75-12.87 28.75-28.75v-172.5c0-15.88 12.87-28.75 28.75-28.75-15.88 0-28.75-12.87-28.75-28.75v-172.5c0-15.88-12.87-28.75-28.75-28.75" stroke="#000" fill="none"/><defs><path d="M51-478c0-256 221-509 478-501 201 6 353 126 426 274H803c-71-96-163-144-274-144-189 0-348 180-348 372 0 191 160 369 348 369 100 0 189-44 266-132h155C852-65 712 22 529 22 275 22 51-223 51-478" id="D"/><path d="M550-827c-191 0-346 159-346 349V0H72v-957h132v174c85-116 198-174 339-174h204v174c-69-29-134-44-197-44" id="E"/><path d="M52-478c0-256 228-501 485-501 264 0 489 248 480 516H180c0 180 174 355 357 355 148 0 301-110 347-219l130 23C955-140 749 17 537 22 280 28 52-222 52-478zm815-115c-38-129-172-257-330-256-158 0-295 130-340 256h670" id="F"/><path d="M497-108c108 0 303-51 303-143v-220c-2 23-338 19-365 38-104 20-200 82-200 182 0 95 87 143 262 143zm28-871c161 0 405 100 405 248v579c0 27 16 41 48 44-1 21-3 64-5 129-72-4-122-33-151-87-82 59-188 88-318 88C233 22 97-70 97-253c0-145 124-253 248-288 70-20 368-9 427-58 17-9 27-25 29-46-1 7-1-13-1-60 0-84-168-147-260-147-166 0-269 58-309 174l-126-27c31-178 203-274 420-274" id="G"/><path d="M406 0C279 4 176-105 176-232v-595H26v-130c75 0 120-17 137-51 9-17 13-69 13-155h130v206h241v130H306v595c0 70 49 105 146 105 18 0 78-3 95-3V0H406" id="H"/><path d="M985-938c0 247-271 428-529 421H204V0H72v-1355h384c256-7 529 172 529 417zm-130 0c0-191-192-287-399-287H204v578h252c200 4 399-104 399-291" id="I"/><path d="M86-1355h132V0H86v-1355" id="J"/><path d="M545-849c-196 0-341 171-341 371V0H74v-957h130v174c77-131 190-196 341-196 285 0 449 200 449 493V0H862v-478c2-219-106-371-317-371" id="K"/><path d="M898-260C898-89 674 20 489 20 280 20 75-78 57-254l126-27c2 114 176 171 313 171 113 0 265-50 265-150 0-60-40-102-120-127-21-6-104-22-252-42-166-23-242-71-302-158-134-339 365-481 654-327 94 50 148 120 161 213l-126 27c-25-116-134-174-329-174-116 0-251 47-251 149 0 73 54 127 164 147 83 15 168 18 253 29 83 11 158 46 225 101 40 33 60 87 60 162" id="L"/><path d="M132 24c-76-289-76-715 0-1004 58-221 148-346 273-375v109c-131 55-197 311-197 768s66 713 197 768v109C280 370 190 245 132 24" id="M"/><path d="M329-978c76 289 76 715 0 1004-58 221-148 346-273 375V292c131-55 197-311 197-768s-66-713-197-768v-109c125 29 215 154 273 375" id="N"/><g id="a"><use transform="matrix(0.009765625,0,0,0.009765625,0,0)" xlink:href="#D"/><use transform="matrix(0.009765625,0,0,0.009765625,10.5859375,0)" xlink:href="#E"/><use transform="matrix(0.009765625,0,0,0.009765625,18.173828125,0)" xlink:href="#F"/><use transform="matrix(0.009765625,0,0,0.009765625,29.16015625,0)" xlink:href="#G"/><use transform="matrix(0.009765625,0,0,0.009765625,39.1015625,0)" xlink:href="#H"/><use transform="matrix(0.009765625,0,0,0.009765625,45.078125,0)" xlink:href="#F"/><use transform="matrix(0.009765625,0,0,0.009765625,56.064453125,0)" xlink:href="#I"/><use transform="matrix(0.009765625,0,0,0.009765625,66.416015625,0)" xlink:href="#J"/><use transform="matrix(0.009765625,0,0,0.009765625,69.8828125,0)" xlink:href="#G"/><use transform="matrix(0.009765625,0,0,0.009765625,80.29296875,0)" xlink:href="#K"/><use transform="matrix(0.009765625,0,0,0.009765625,91.201171875,0)" xlink:href="#H"/><use transform="matrix(0.009765625,0,0,0.009765625,97.177734375,0)" xlink:href="#L"/><use transform="matrix(0.009765625,0,0,0.009765625,106.97265625,0)" xlink:href="#M"/><use transform="matrix(0.009765625,0,0,0.009765625,111.708984375,0)" xlink:href="#N"/></g><g id="b"><use transform="matrix(0.009765625,0,0,0.009765625,0,0)" xlink:href="#D"/><use transform="matrix(0.009765625,0,0,0.009765625,10.5859375,0)" xlink:href="#E"/><use transform="matrix(0.009765625,0,0,0.009765625,18.173828125,0)" xlink:href="#F"/><use transform="matrix(0.009765625,0,0,0.009765625,29.16015625,0)" xlink:href="#G"/><use transform="matrix(0.009765625,0,0,0.009765625,39.1015625,0)" xlink:href="#H"/><use transform="matrix(0.009765625,0,0,0.009765625,45.078125,0)" xlink:href="#F"/><use transform="matrix(0.009765625,0,0,0.009765625,56.064453125,0)" xlink:href="#I"/><use transform="matrix(0.009765625,0,0,0.009765625,66.416015625,0)" xlink:href="#J"/><use transform="matrix(0.009765625,0,0,0.009765625,69.8828125,0)" xlink:href="#G"/><use transform="matrix(0.009765625,0,0,0.009765625,80.29296875,0)" xlink:href="#K"/><use transform="matrix(0.009765625,0,0,0.009765625,91.201171875,0)" xlink:href="#H"/><use transform="matrix(0.009765625,0,0,0.009765625,97.177734375,0)" xlink:href="#M"/><use transform="matrix(0.009765625,0,0,0.009765625,101.9140625,0)" xlink:href="#N"/></g><path d="M204-1355v1225h596V0H74v-1355h130" id="O"/><path d="M431-1222c-103-2-191 65-188 167v98h188v130H243V0H111v-827H33v-130h78c-7-146 8-241 94-317 61-53 135-81 226-81v133" id="P"/><g id="c"><use transform="matrix(0.009765625,0,0,0.009765625,0,0)" xlink:href="#D"/><use transform="matrix(0.009765625,0,0,0.009765625,10.5859375,0)" xlink:href="#E"/><use transform="matrix(0.009765625,0,0,0.009765625,18.173828125,0)" xlink:href="#F"/><use transform="matrix(0.009765625,0,0,0.009765625,29.16015625,0)" xlink:href="#G"/><use transform="matrix(0.009765625,0,0,0.009765625,39.1015625,0)" xlink:href="#H"/><use transform="matrix(0.009765625,0,0,0.009765625,45.078125,0)" xlink:href="#F"/><use transform="matrix(0.009765625,0,0,0.009765625,56.064453125,0)" xlink:href="#O"/><use transform="matrix(0.009765625,0,0,0.009765625,64.9609375,0)" xlink:href="#F"/><use transform="matrix(0.009765625,0,0,0.009765625,75.947265625,0)" xlink:href="#G"/><use transform="matrix(0.009765625,0,0,0.009765625,86.357421875,0)" xlink:href="#P"/><use transform="matrix(0.009765625,0,0,0.009765625,91.09375,0)" xlink:href="#M"/><use transform="matrix(0.009765625,0,0,0.009765625,95.830078125,0)" xlink:href="#N"/></g><path d="M865-1355v130H204v424h531v134H204V0H74v-1355h791" id="Q"/><path d="M881-477c0-189-160-372-351-372-189 0-348 181-348 372s160 369 348 369 351-180 351-369zm-829-1c0-256 220-501 478-501 257 0 481 246 481 502S785 22 530 22C276 22 52-223 52-478" id="R"/><path d="M395 0L60-957h137l259 739 167-476-93-263h137l262 744 258-744h138L991 0H866L692-498 516 0H395" id="S"/><g id="d"><use transform="matrix(0.009765625,0,0,0.009765625,0,0)" xlink:href="#D"/><use transform="matrix(0.009765625,0,0,0.009765625,10.5859375,0)" xlink:href="#E"/><use transform="matrix(0.009765625,0,0,0.009765625,18.173828125,0)" xlink:href="#F"/><use transform="matrix(0.009765625,0,0,0.009765625,29.16015625,0)" xlink:href="#G"/><use transform="matrix(0.009765625,0,0,0.009765625,39.1015625,0)" xlink:href="#H"/><use transform="matrix(0.009765625,0,0,0.009765625,45.078125,0)" xlink:href="#F"/><use transform="matrix(0.009765625,0,0,0.009765625,56.064453125,0)" xlink:href="#Q"/><use transform="matrix(0.009765625,0,0,0.009765625,65.078125,0)" xlink:href="#J"/><use transform="matrix(0.009765625,0,0,0.009765625,68.544921875,0)" xlink:href="#R"/><use transform="matrix(0.009765625,0,0,0.009765625,78.59375,0)" xlink:href="#S"/><use transform="matrix(0.009765625,0,0,0.009765625,92.646484375,0)" xlink:href="#F"/><use transform="matrix(0.009765625,0,0,0.009765625,103.6328125,0)" xlink:href="#E"/><use transform="matrix(0.009765625,0,0,0.009765625,112.001953125,0)" xlink:href="#M"/><use transform="matrix(0.009765625,0,0,0.009765625,116.73828125,0)" xlink:href="#N"/></g><path d="M170-1355L508-232l343-1123h134L580 0H439L33-1355h137" id="T"/><path d="M240-1205c-40 0-79-36-79-76s39-76 79-76c41 0 78 35 78 76s-37 76-78 76zM47-957h257V0H174v-827H47v-130" id="U"/><g id="e"><use transform="matrix(0.009765625,0,0,0.009765625,0,0)" xlink:href="#D"/><use transform="matrix(0.009765625,0,0,0.009765625,10.5859375,0)" xlink:href="#E"/><use transform="matrix(0.009765625,0,0,0.009765625,18.173828125,0)" xlink:href="#F"/><use transform="matrix(0.009765625,0,0,0.009765625,29.16015625,0)" xlink:href="#G"/><use transform="matrix(0.009765625,0,0,0.009765625,39.1015625,0)" xlink:href="#H"/><use transform="matrix(0.009765625,0,0,0.009765625,45.078125,0)" xlink:href="#F"/><use transform="matrix(0.009765625,0,0,0.009765625,56.064453125,0)" xlink:href="#T"/><use transform="matrix(0.009765625,0,0,0.009765625,66.62109375,0)" xlink:href="#U"/><use transform="matrix(0.009765625,0,0,0.009765625,70.52734375,0)" xlink:href="#K"/><use transform="matrix(0.009765625,0,0,0.009765625,81.435546875,0)" xlink:href="#F"/><use transform="matrix(0.009765625,0,0,0.009765625,92.421875,0)" xlink:href="#M"/><use transform="matrix(0.009765625,0,0,0.009765625,97.158203125,0)" xlink:href="#N"/></g><path d="M-2-478c0-256 249-501 505-501 147 0 261 65 343 196v-572h132V0H846v-174C761-43 645 22 498 22 243 22-2-223-2-478zm843 0c0-191-151-371-338-371S128-665 128-478s183 370 370 370c188 0 343-180 343-370" id="V"/><path d="M540 22C268 22 57-229 57-506v-345c-8-277 211-528 483-528 249 0 439 198 473 423H885c-28-159-165-293-345-293-205 0-353 174-353 382v377c-5 208 148 382 353 382 180 0 318-134 345-293h128C979-176 789 22 540 22" id="W"/><g id="f"><use transform="matrix(0.009765625,0,0,0.009765625,0,0)" xlink:href="#V"/><use transform="matrix(0.009765625,0,0,0.009765625,10.869140625,0)" xlink:href="#E"/><use transform="matrix(0.009765625,0,0,0.009765625,18.45703125,0)" xlink:href="#G"/><use transform="matrix(0.009765625,0,0,0.009765625,28.8671875,0)" xlink:href="#S"/><use transform="matrix(0.009765625,0,0,0.009765625,42.919921875,0)" xlink:href="#W"/><use transform="matrix(0.009765625,0,0,0.009765625,53.701171875,0)" xlink:href="#U"/><use transform="matrix(0.009765625,0,0,0.009765625,57.607421875,0)" xlink:href="#E"/><use transform="matrix(0.009765625,0,0,0.009765625,65.9765625,0)" xlink:href="#D"/><use transform="matrix(0.009765625,0,0,0.009765625,76.5625,0)" xlink:href="#J"/><use transform="matrix(0.009765625,0,0,0.009765625,80.029296875,0)" xlink:href="#F"/><use transform="matrix(0.009765625,0,0,0.009765625,91.015625,0)" xlink:href="#M"/><use transform="matrix(0.009765625,0,0,0.009765625,95.751953125,0)" xlink:href="#N"/></g><path d="M455-849c-173 0-251 180-251 371V0H74v-957h130v106c60-85 144-128 251-128 146 0 245 69 296 208 37-139 135-208 295-208 233 0 349 167 349 501V0h-130v-478c0-247-73-371-219-371-169 0-241 180-241 371V0H675l-1-478c0-247-73-371-219-371" id="X"/><path d="M204-656l437-331 87 99-330 254L782 0H626L289-554l-85 65V0H72v-1355h132v699" id="Y"/><path d="M892-988c1-180-155-261-350-261-239 0-359 83-359 250 0 109 72 186 218 225 134 36 273 57 404 101 148 49 217 165 217 318 0 218-259 377-488 377C285 22 54-135 53-369h130c6 176 157 261 349 261 178 0 360-88 360-250 0-109-72-188-217-228-134-37-272-59-404-103C123-738 53-851 53-998c0-227 241-381 478-381 258 0 497 146 491 391H892" id="Z"/><g id="g"><use transform="matrix(0.009765625,0,0,0.009765625,0,0)" xlink:href="#X"/><use transform="matrix(0.009765625,0,0,0.009765625,15.107421875,0)" xlink:href="#G"/><use transform="matrix(0.009765625,0,0,0.009765625,25.517578125,0)" xlink:href="#Y"/><use transform="matrix(0.009765625,0,0,0.009765625,32.978515625,0)" xlink:href="#F"/><use transform="matrix(0.009765625,0,0,0.009765625,43.96484375,0)" xlink:href="#Z"/><use transform="matrix(0.009765625,0,0,0.009765625,54.951171875,0)" xlink:href="#D"/><use transform="matrix(0.009765625,0,0,0.009765625,65.537109375,0)" xlink:href="#F"/><use transform="matrix(0.009765625,0,0,0.009765625,76.5234375,0)" xlink:href="#K"/><use transform="matrix(0.009765625,0,0,0.009765625,87.431640625,0)" xlink:href="#F"/><use transform="matrix(0.009765625,0,0,0.009765625,98.41796875,0)" xlink:href="#M"/><use transform="matrix(0.009765625,0,0,0.009765625,103.154296875,0)" xlink:href="#N"/></g><path d="M483-108c191 0 291-169 291-370v-479h130V0H774v-137C701-31 604 22 483 22 219 22 67-183 67-456v-501h130v501c-4 182 112 348 286 348" id="aa"/><g id="h"><use transform="matrix(0.009765625,0,0,0.009765625,0,0)" xlink:href="#D"/><use transform="matrix(0.009765625,0,0,0.009765625,10.5859375,0)" xlink:href="#J"/><use transform="matrix(0.009765625,0,0,0.009765625,14.052734375,0)" xlink:href="#aa"/><use transform="matrix(0.009765625,0,0,0.009765625,24.208984375,0)" xlink:href="#L"/><use transform="matrix(0.009765625,0,0,0.009765625,34.00390625,0)" xlink:href="#H"/><use transform="matrix(0.009765625,0,0,0.009765625,39.98046875,0)" xlink:href="#F"/><use transform="matrix(0.009765625,0,0,0.009765625,50.966796875,0)" xlink:href="#E"/><use transform="matrix(0.009765625,0,0,0.009765625,59.3359375,0)" xlink:href="#I"/><use transform="matrix(0.009765625,0,0,0.009765625,69.6875,0)" xlink:href="#R"/><use transform="matrix(0.009765625,0,0,0.009765625,80.673828125,0)" xlink:href="#U"/><use transform="matrix(0.009765625,0,0,0.009765625,84.580078125,0)" xlink:href="#K"/><use transform="matrix(0.009765625,0,0,0.009765625,95.48828125,0)" xlink:href="#H"/><use transform="matrix(0.009765625,0,0,0.009765625,101.46484375,0)" xlink:href="#L"/><use transform="matrix(0.009765625,0,0,0.009765625,111.259765625,0)" xlink:href="#M"/><use transform="matrix(0.009765625,0,0,0.009765625,115.99609375,0)" xlink:href="#N"/></g><path d="M224-957l269 369 270-369h164L577-475 927 0H760L493-366 227 0H61l352-475L61-957h163" id="ab"/><g id="i"><use transform="matrix(0.009765625,0,0,0.009765625,0,0)" xlink:href="#E"/><use transform="matrix(0.009765625,0,0,0.009765625,7.587890625,0)" xlink:href="#F"/><use transform="matrix(0.009765625,0,0,0.009765625,18.57421875,0)" xlink:href="#J"/><use transform="matrix(0.009765625,0,0,0.009765625,22.041015625,0)" xlink:href="#G"/><use transform="matrix(0.009765625,0,0,0.009765625,32.451171875,0)" xlink:href="#ab"/><use transform="matrix(0.009765625,0,0,0.009765625,42.646484375,0)" xlink:href="#I"/><use transform="matrix(0.009765625,0,0,0.009765625,52.998046875,0)" xlink:href="#R"/><use transform="matrix(0.009765625,0,0,0.009765625,63.984375,0)" xlink:href="#U"/><use transform="matrix(0.009765625,0,0,0.009765625,67.890625,0)" xlink:href="#K"/><use transform="matrix(0.009765625,0,0,0.009765625,78.798828125,0)" xlink:href="#H"/><use transform="matrix(0.009765625,0,0,0.009765625,84.775390625,0)" xlink:href="#L"/><use transform="matrix(0.009765625,0,0,0.009765625,94.5703125,0)" xlink:href="#M"/><use transform="matrix(0.009765625,0,0,0.009765625,99.306640625,0)" xlink:href="#N"/></g><path d="M880-366c0-134-176-225-319-225H204v461h357c139 5 319-103 319-236zm-69-609c0-143-156-250-304-250H204v500h299c154 4 308-103 308-250zm195 609C1006-152 783 0 561 0H74v-1355h426c233-5 441 155 441 380 0 122-53 220-159 294 149 71 224 176 224 315" id="ac"/><path d="M543 22C276 22 65-235 65-506v-849h130v867c-5 202 149 380 348 380s349-180 349-384v-863h130v849c8 271-212 528-479 528" id="ad"/><path d="M209-478c0 191 154 370 342 370 187 0 348-181 348-370S737-849 551-849c-188 0-342 180-342 371zm820 0c0 258-224 500-478 500-147 0-262-65-347-196v573H74V-957h130v174c85-131 200-196 347-196 256 0 478 244 478 501" id="ae"/><g id="j"><use transform="matrix(0.009765625,0,0,0.009765625,0,0)" xlink:href="#L"/><use transform="matrix(0.009765625,0,0,0.009765625,9.794921875,0)" xlink:href="#R"/><use transform="matrix(0.009765625,0,0,0.009765625,20.78125,0)" xlink:href="#E"/><use transform="matrix(0.009765625,0,0,0.009765625,29.150390625,0)" xlink:href="#H"/><use transform="matrix(0.009765625,0,0,0.009765625,35.126953125,0)" xlink:href="#ac"/><use transform="matrix(0.009765625,0,0,0.009765625,46.064453125,0)" xlink:href="#R"/><use transform="matrix(0.009765625,0,0,0.009765625,57.05078125,0)" xlink:href="#H"/><use transform="matrix(0.009765625,0,0,0.009765625,63.02734375,0)" xlink:href="#H"/><use transform="matrix(0.009765625,0,0,0.009765625,69.00390625,0)" xlink:href="#R"/><use transform="matrix(0.009765625,0,0,0.009765625,79.990234375,0)" xlink:href="#X"/><use transform="matrix(0.009765625,0,0,0.009765625,95.09765625,0)" xlink:href="#ad"/><use transform="matrix(0.009765625,0,0,0.009765625,106.328125,0)" xlink:href="#ae"/><use transform="matrix(0.009765625,0,0,0.009765625,117.197265625,0)" xlink:href="#M"/><use transform="matrix(0.009765625,0,0,0.009765625,121.93359375,0)" xlink:href="#N"/></g><path d="M558-1225V0H428v-1225H21v-130h954v130H558" id="af"/><path d="M848-827c4-216-138-398-348-398H204v1095h296c203 6 348-189 348-398v-299zm130 299C987-254 769 0 500 0H74v-1355h426c267-9 478 255 478 528v299" id="ag"/><g id="k"><use transform="matrix(0.009765625,0,0,0.009765625,0,0)" xlink:href="#L"/><use transform="matrix(0.009765625,0,0,0.009765625,9.794921875,0)" xlink:href="#R"/><use transform="matrix(0.009765625,0,0,0.009765625,20.78125,0)" xlink:href="#E"/><use transform="matrix(0.009765625,0,0,0.009765625,29.150390625,0)" xlink:href="#H"/><use transform="matrix(0.009765625,0,0,0.009765625,35.126953125,0)" xlink:href="#af"/><use transform="matrix(0.009765625,0,0,0.009765625,45.478515625,0)" xlink:href="#R"/><use transform="matrix(0.009765625,0,0,0.009765625,56.46484375,0)" xlink:href="#ae"/><use transform="matrix(0.009765625,0,0,0.009765625,67.333984375,0)" xlink:href="#ag"/><use transform="matrix(0.009765625,0,0,0.009765625,78.046875,0)" xlink:href="#R"/><use transform="matrix(0.009765625,0,0,0.009765625,88.095703125,0)" xlink:href="#S"/><use transform="matrix(0.009765625,0,0,0.009765625,102.1484375,0)" xlink:href="#K"/><use transform="matrix(0.009765625,0,0,0.009765625,113.056640625,0)" xlink:href="#M"/><use transform="matrix(0.009765625,0,0,0.009765625,117.79296875,0)" xlink:href="#N"/></g><path d="M540-1249c-205 0-353 174-353 382v377c-5 208 148 382 353 382s353-174 353-382v-377c5-208-148-382-353-382zm0-130c272 0 483 251 483 528v345c8 277-211 528-483 528S57-229 57-506v-345c-8-277 211-528 483-528" id="ah"/><path d="M49-130h171v-1096H49v-129h479v129H352v1096h176V0H49v-130" id="ai"/><g id="l"><use transform="matrix(0.009765625,0,0,0.009765625,0,0)" xlink:href="#L"/><use transform="matrix(0.009765625,0,0,0.009765625,9.794921875,0)" xlink:href="#R"/><use transform="matrix(0.009765625,0,0,0.009765625,20.78125,0)" xlink:href="#E"/><use transform="matrix(0.009765625,0,0,0.009765625,29.150390625,0)" xlink:href="#H"/><use transform="matrix(0.009765625,0,0,0.009765625,35.126953125,0)" xlink:href="#ah"/><use transform="matrix(0.009765625,0,0,0.009765625,46.181640625,0)" xlink:href="#aa"/><use transform="matrix(0.009765625,0,0,0.009765625,56.337890625,0)" xlink:href="#H"/><use transform="matrix(0.009765625,0,0,0.009765625,62.314453125,0)" xlink:href="#F"/><use transform="matrix(0.009765625,0,0,0.009765625,73.30078125,0)" xlink:href="#E"/><use transform="matrix(0.009765625,0,0,0.009765625,81.669921875,0)" xlink:href="#ai"/><use transform="matrix(0.009765625,0,0,0.009765625,87.646484375,0)" xlink:href="#K"/><use transform="matrix(0.009765625,0,0,0.009765625,98.5546875,0)" xlink:href="#M"/><use transform="matrix(0.009765625,0,0,0.009765625,103.291015625,0)" xlink:href="#N"/></g><g id="m"><use transform="matrix(0.009765625,0,0,0.009765625,0,0)" xlink:href="#L"/><use transform="matrix(0.009765625,0,0,0.009765625,9.794921875,0)" xlink:href="#R"/><use transform="matrix(0.009765625,0,0,0.009765625,20.78125,0)" xlink:href="#E"/><use transform="matrix(0.009765625,0,0,0.009765625,29.150390625,0)" xlink:href="#H"/><use transform="matrix(0.009765625,0,0,0.009765625,35.126953125,0)" xlink:href="#ai"/><use transform="matrix(0.009765625,0,0,0.009765625,41.103515625,0)" xlink:href="#K"/><use transform="matrix(0.009765625,0,0,0.009765625,52.01171875,0)" xlink:href="#K"/><use transform="matrix(0.009765625,0,0,0.009765625,62.919921875,0)" xlink:href="#F"/><use transform="matrix(0.009765625,0,0,0.009765625,73.90625,0)" xlink:href="#E"/><use transform="matrix(0.009765625,0,0,0.009765625,82.275390625,0)" xlink:href="#ah"/><use transform="matrix(0.009765625,0,0,0.009765625,93.330078125,0)" xlink:href="#aa"/><use transform="matrix(0.009765625,0,0,0.009765625,103.486328125,0)" xlink:href="#H"/><use transform="matrix(0.009765625,0,0,0.009765625,109.462890625,0)" xlink:href="#M"/><use transform="matrix(0.009765625,0,0,0.009765625,114.19921875,0)" xlink:href="#N"/></g><path d="M651-670c-28-91-69-228-123-411-28 91-70 228-125 411h248zM849 0L698-503H353C289-288 238-121 201 0H29l407-1357h185L1027 0H849" id="aj"/><path d="M223-484c0 174 142 340 313 340 169 0 319-168 319-340 0-174-147-342-319-342-173 0-313 166-313 342zm798 0c0 261-225 505-485 505-129 0-235-50-318-149v516H53V-970h165v128c83-99 189-149 318-149 260 0 485 246 485 507" id="ak"/><path d="M125-1357h167V0H125v-1357" id="al"/><path d="M233-1172c-50 0-96-44-96-94 0-49 46-93 96-93s96 43 96 93c0 52-44 94-96 94zM26-970h289V0H150v-805H26v-165" id="am"/><path d="M30-484c0-265 224-507 485-507 196 0 345 102 446 305H770c-63-93-148-140-255-140-177 0-319 167-319 342 0 176 146 340 319 340 93 0 176-43 249-128h193C846-77 699 21 515 21 254 21 30-224 30-484" id="an"/><path d="M484-144c91 0 275-43 275-120v-184c-54 18-283 13-339 27-84 21-172 73-172 157 0 80 79 120 236 120zm27-847c168 0 413 106 413 260v563c0 15 16 23 48 26-4 64-6 118-6 163-81-4-138-29-172-76-80 51-181 76-304 76C213 21 75-75 75-266c0-155 132-276 270-302-15-8 340-16 395-49 13-7 20-20 21-39-1 24-2 8-2-49 0-71-154-124-234-124-152 0-248 58-288 173L79-690c32-191 203-301 432-301" id="ao"/><path d="M395 0C260 4 152-110 152-245v-560H6v-165c76 0 121-15 136-44 7-13 10-65 10-156h165v200h235v165H317v560c-9 115 138 72 235 80V0H395" id="ap"/><path d="M838-484c0-173-151-342-322-342-177 0-319 167-319 342 0 176 146 340 319 340 171 0 322-167 322-340zm-807 0c0-265 224-507 485-507 260 0 487 246 487 507 0 260-229 505-487 505C255 21 31-224 31-484" id="aq"/><path d="M530-826c-179 0-312 160-312 342V0H53v-970h165v127c78-99 182-148 312-148 289 0 456 203 456 499V0H819v-484c2-203-95-342-289-342" id="ar"/><g id="n"><use transform="matrix(0.009765625,0,0,0.009765625,0,0)" xlink:href="#aj"/><use transform="matrix(0.009765625,0,0,0.009765625,11.5234375,0)" xlink:href="#ak"/><use transform="matrix(0.009765625,0,0,0.009765625,22.685546875,0)" xlink:href="#ak"/><use transform="matrix(0.009765625,0,0,0.009765625,33.84765625,0)" xlink:href="#al"/><use transform="matrix(0.009765625,0,0,0.009765625,38.06640625,0)" xlink:href="#am"/><use transform="matrix(0.009765625,0,0,0.009765625,42.265625,0)" xlink:href="#an"/><use transform="matrix(0.009765625,0,0,0.009765625,52.5,0)" xlink:href="#ao"/><use transform="matrix(0.009765625,0,0,0.009765625,62.734375,0)" xlink:href="#ap"/><use transform="matrix(0.009765625,0,0,0.009765625,69.00390625,0)" xlink:href="#am"/><use transform="matrix(0.009765625,0,0,0.009765625,73.203125,0)" xlink:href="#aq"/><use transform="matrix(0.009765625,0,0,0.009765625,84.482421875,0)" xlink:href="#ar"/></g><path d="M525 21C250 26 36-232 36-512v-335c-8-279 214-533 489-533 269 0 443 204 484 450H844c-26-159-149-285-319-285-187 0-324 162-324 352v367c-5 191 137 352 324 352 171 0 294-127 319-285h165C968-183 794 16 525 21" id="as"/><path d="M1018-991c257 0 359 224 359 507V0h-166v-484c0-228-64-342-193-342-155-1-215 166-215 342V0H637l-1-484c0-228-64-342-193-342-159-1-225 164-225 342V0H53v-970h165v68c59-59 134-89 225-89 133 0 229 56 286 168 46-112 142-168 289-168" id="at"/><g id="o"><use transform="matrix(0.009765625,0,0,0.009765625,0,0)" xlink:href="#as"/><use transform="matrix(0.009765625,0,0,0.009765625,11.07421875,0)" xlink:href="#aq"/><use transform="matrix(0.009765625,0,0,0.009765625,22.353515625,0)" xlink:href="#at"/><use transform="matrix(0.009765625,0,0,0.009765625,37.75390625,0)" xlink:href="#ak"/></g><path d="M812-932c0-173-180-260-368-260H218v524h226c185 4 368-93 368-264zm166 0c0 250-274 437-534 429H218V0H51v-1357h393c258-7 534 177 534 425" id="au"/><path d="M192-484c0 176 132 340 304 340 176 0 296-170 296-340 0-175-125-342-296-342-172 0-304 166-304 342zM962-87c7 262-205 470-468 470C247 383 70 200 36-22l162-27c41 178 140 267 297 267 189 0 305-150 302-345C718-28 618 21 496 21 226 21 26-209 26-484c0-263 209-507 470-507 123 0 224 50 301 151v-130h165v883" id="av"/><g id="p"><use transform="matrix(0.009765625,0,0,0.009765625,0,0)" xlink:href="#au"/><use transform="matrix(0.009765625,0,0,0.009765625,10.64453125,0)" xlink:href="#al"/><use transform="matrix(0.009765625,0,0,0.009765625,14.86328125,0)" xlink:href="#ao"/><use transform="matrix(0.009765625,0,0,0.009765625,25.56640625,0)" xlink:href="#ar"/><use transform="matrix(0.009765625,0,0,0.009765625,36.767578125,0)" xlink:href="#ar"/><use transform="matrix(0.009765625,0,0,0.009765625,47.96875,0)" xlink:href="#am"/><use transform="matrix(0.009765625,0,0,0.009765625,52.16796875,0)" xlink:href="#ar"/><use transform="matrix(0.009765625,0,0,0.009765625,63.369140625,0)" xlink:href="#av"/></g><path d="M806-824c4-200-126-368-320-368H218v1027h268c188 5 320-174 320-368v-291zm165 291C979-257 759 0 486 0H53v-1357h433c271-10 485 257 485 533v291" id="aw"/><path d="M535-805c-177 0-317 145-317 321V0H51v-970h167v134c85-89 189-134 310-134h218v218c-83-35-153-53-211-53" id="ax"/><path d="M371 0L31-970h174l239 678 141-402c-21-61-54-153-98-276h176l241 683 237-683h175C1197-634 1100-340 976 0H829L673-444c-35 99-88 247-157 444H371" id="ay"/><g id="q"><use transform="matrix(0.009765625,0,0,0.009765625,0,0)" xlink:href="#aw"/><use transform="matrix(0.009765625,0,0,0.009765625,11.005859375,0)" xlink:href="#ax"/><use transform="matrix(0.009765625,0,0,0.009765625,18.88671875,0)" xlink:href="#ao"/><use transform="matrix(0.009765625,0,0,0.009765625,29.58984375,0)" xlink:href="#ay"/><use transform="matrix(0.009765625,0,0,0.009765625,43.935546875,0)" xlink:href="#am"/><use transform="matrix(0.009765625,0,0,0.009765625,48.134765625,0)" xlink:href="#ar"/><use transform="matrix(0.009765625,0,0,0.009765625,59.3359375,0)" xlink:href="#av"/></g><path d="M20-612h275v-291h166v291h271v165H461v285H295v-285H20v-165" id="az"/><use transform="matrix(0.009765625,0,0,0.009765625,0,0)" xlink:href="#az" id="r"/><path d="M32-990c0-232 243-390 485-390 230 0 384 80 460 242 25 53 37 112 37 177H848c0-169-110-254-331-254-175 0-321 66-320 224 0 68 25 124 82 157 72 43 313 83 425 114 184 50 303 136 310 344 8 234-251 397-495 397C251 21 32-142 31-398h166c5 169 112 254 321 254 161 0 330-78 330-223 0-98-70-169-211-207-131-36-266-59-393-103C99-727 32-841 32-990" id="aA"/><path d="M227 223c70 1 118-13 144-44 18-20 89-200 113-260L-1-970h190l373 688 274-688h179L558 176c-61 148-166 217-331 211V223" id="aB"/><path d="M816-616c-46-109-154-210-294-210-133 0-258 109-301 210h595zM31-484c0-260 230-507 491-507 282 0 495 254 487 541H196c10 148 163 311 326 306 147-5 277-104 326-215l166 28C947-150 753 16 522 21 260 27 31-223 31-484" id="aC"/><g id="s"><use transform="matrix(0.009765625,0,0,0.009765625,0,0)" xlink:href="#aA"/><use transform="matrix(0.009765625,0,0,0.009765625,11.279296875,0)" xlink:href="#ap"/><use transform="matrix(0.009765625,0,0,0.009765625,17.548828125,0)" xlink:href="#aB"/><use transform="matrix(0.009765625,0,0,0.009765625,28.623046875,0)" xlink:href="#al"/><use transform="matrix(0.009765625,0,0,0.009765625,32.841796875,0)" xlink:href="#aC"/></g><g id="u"><use transform="matrix(0.009765625,0,0,0.009765625,0,0)" xlink:href="#au"/><use transform="matrix(0.009765625,0,0,0.009765625,10.64453125,0)" xlink:href="#aq"/><use transform="matrix(0.009765625,0,0,0.009765625,21.923828125,0)" xlink:href="#am"/><use transform="matrix(0.009765625,0,0,0.009765625,26.123046875,0)" xlink:href="#ar"/><use transform="matrix(0.009765625,0,0,0.009765625,37.32421875,0)" xlink:href="#ap"/></g><g id="v"><use transform="matrix(0.009765625,0,0,0.009765625,0,0)" xlink:href="#au"/><use transform="matrix(0.009765625,0,0,0.009765625,10.64453125,0)" xlink:href="#al"/><use transform="matrix(0.009765625,0,0,0.009765625,14.86328125,0)" xlink:href="#ao"/><use transform="matrix(0.009765625,0,0,0.009765625,25.56640625,0)" xlink:href="#an"/><use transform="matrix(0.009765625,0,0,0.009765625,35.80078125,0)" xlink:href="#am"/><use transform="matrix(0.009765625,0,0,0.009765625,40,0)" xlink:href="#ar"/><use transform="matrix(0.009765625,0,0,0.009765625,51.201171875,0)" xlink:href="#av"/></g><g id="w"><use transform="matrix(0.009765625,0,0,0.009765625,0,0)" xlink:href="#X"/><use transform="matrix(0.009765625,0,0,0.009765625,15.107421875,0)" xlink:href="#G"/><use transform="matrix(0.009765625,0,0,0.009765625,25.517578125,0)" xlink:href="#ae"/><use transform="matrix(0.009765625,0,0,0.009765625,36.38671875,0)" xlink:href="#M"/><use transform="matrix(0.009765625,0,0,0.009765625,41.123046875,0)" xlink:href="#N"/></g><path d="M218-1036V0H51v-1357h194l393 787 393-787h200V0h-169v-1036L724-363H556" id="aD"/><path d="M528-826c-169 0-310 170-310 342V0H53v-1357h165v515c80-99 183-149 310-149 256 0 429 236 429 499V0H792v-484c3-179-95-342-264-342" id="aE"/><g id="x"><use transform="matrix(0.009765625,0,0,0.009765625,0,0)" xlink:href="#aD"/><use transform="matrix(0.009765625,0,0,0.009765625,13.916015625,0)" xlink:href="#ao"/><use transform="matrix(0.009765625,0,0,0.009765625,24.150390625,0)" xlink:href="#ap"/><use transform="matrix(0.009765625,0,0,0.009765625,30.419921875,0)" xlink:href="#aE"/></g><path d="M812-932c0-167-190-264-368-264H218v528h244c168 4 350-105 350-264zm166 0c-6 217-176 357-367 405L904 0H711L431-503H218V0H51v-1357h393c258-7 540 177 534 425" id="aF"/><path d="M860-484c0-175-137-342-310-342-172 0-345 169-345 342s167 340 340 340c172 0 315-166 315-340zm-820 0c0-260 250-507 510-507 131 0 236 50 315 149v-515h167V0H865v-128C782-29 675 21 545 21 285 21 40-224 40-484" id="aG"/><g id="y"><use transform="matrix(0.009765625,0,0,0.009765625,0,0)" xlink:href="#aF"/><use transform="matrix(0.009765625,0,0,0.009765625,11.005859375,0)" xlink:href="#ao"/><use transform="matrix(0.009765625,0,0,0.009765625,21.708984375,0)" xlink:href="#ar"/><use transform="matrix(0.009765625,0,0,0.009765625,32.91015625,0)" xlink:href="#aG"/><use transform="matrix(0.009765625,0,0,0.009765625,44.66796875,0)" xlink:href="#aq"/><use transform="matrix(0.009765625,0,0,0.009765625,55.947265625,0)" xlink:href="#at"/></g><path d="M855-938c0-185-202-291-399-291H204v582h271c185 5 380-116 380-291zm130 0c0 214-192 369-387 402L895 0H743L456-517H204V0H72v-1355h384c256-7 529 172 529 417" id="aH"/><path d="M177-478c0 192 146 370 333 370s324-179 324-370c0-193-136-371-324-371-187 0-333 180-333 371zm332 742c191 3 334-157 330-347v-91C756-43 647 22 510 22 246 22 47-209 47-478c0-259 208-501 463-501 140 0 250 67 329 201v-179h130v888c6 260-201 463-461 463C272 394 95 221 61 14L188-7c30 151 149 268 321 271" id="aI"/><g id="z"><use transform="matrix(0.009765625,0,0,0.009765625,0,0)" xlink:href="#E"/><use transform="matrix(0.009765625,0,0,0.009765625,7.587890625,0)" xlink:href="#G"/><use transform="matrix(0.009765625,0,0,0.009765625,17.998046875,0)" xlink:href="#K"/><use transform="matrix(0.009765625,0,0,0.009765625,28.90625,0)" xlink:href="#V"/><use transform="matrix(0.009765625,0,0,0.009765625,39.775390625,0)" xlink:href="#R"/><use transform="matrix(0.009765625,0,0,0.009765625,50.76171875,0)" xlink:href="#X"/><use transform="matrix(0.009765625,0,0,0.009765625,65.869140625,0)" xlink:href="#aH"/><use transform="matrix(0.009765625,0,0,0.009765625,76.58203125,0)" xlink:href="#G"/><use transform="matrix(0.009765625,0,0,0.009765625,86.9921875,0)" xlink:href="#K"/><use transform="matrix(0.009765625,0,0,0.009765625,97.900390625,0)" xlink:href="#aI"/><use transform="matrix(0.009765625,0,0,0.009765625,108.642578125,0)" xlink:href="#F"/><use transform="matrix(0.009765625,0,0,0.009765625,119.62890625,0)" xlink:href="#M"/><use transform="matrix(0.009765625,0,0,0.009765625,124.365234375,0)" xlink:href="#N"/></g><g id="A"><use transform="matrix(0.009765625,0,0,0.009765625,0,0)" xlink:href="#E"/><use transform="matrix(0.009765625,0,0,0.009765625,7.587890625,0)" xlink:href="#G"/><use transform="matrix(0.009765625,0,0,0.009765625,17.998046875,0)" xlink:href="#K"/><use transform="matrix(0.009765625,0,0,0.009765625,28.90625,0)" xlink:href="#V"/><use transform="matrix(0.009765625,0,0,0.009765625,39.775390625,0)" xlink:href="#R"/><use transform="matrix(0.009765625,0,0,0.009765625,50.76171875,0)" xlink:href="#X"/><use transform="matrix(0.009765625,0,0,0.009765625,65.869140625,0)" xlink:href="#I"/><use transform="matrix(0.009765625,0,0,0.009765625,76.220703125,0)" xlink:href="#R"/><use transform="matrix(0.009765625,0,0,0.009765625,87.20703125,0)" xlink:href="#U"/><use transform="matrix(0.009765625,0,0,0.009765625,91.11328125,0)" xlink:href="#K"/><use transform="matrix(0.009765625,0,0,0.009765625,102.021484375,0)" xlink:href="#H"/><use transform="matrix(0.009765625,0,0,0.009765625,107.998046875,0)" xlink:href="#M"/><use transform="matrix(0.009765625,0,0,0.009765625,112.734375,0)" xlink:href="#N"/></g><g id="B"><use transform="matrix(0.009765625,0,0,0.009765625,0,0)" xlink:href="#ae"/><use transform="matrix(0.009765625,0,0,0.009765625,10.869140625,0)" xlink:href="#U"/><use transform="matrix(0.009765625,0,0,0.009765625,14.775390625,0)" xlink:href="#D"/><use transform="matrix(0.009765625,0,0,0.009765625,25.361328125,0)" xlink:href="#Y"/><use transform="matrix(0.009765625,0,0,0.009765625,33.603515625,0)" xlink:href="#M"/><use transform="matrix(0.009765625,0,0,0.009765625,38.33984375,0)" xlink:href="#N"/></g><path d="M543-849c-184 0-339 185-339 371V0H74v-1355h130v572c84-131 197-196 339-196 250 0 421 235 421 493V0H834v-478c4-195-107-371-291-371" id="aJ"/><g id="C"><use transform="matrix(0.009765625,0,0,0.009765625,0,0)" xlink:href="#L"/><use transform="matrix(0.009765625,0,0,0.009765625,9.794921875,0)" xlink:href="#aJ"/><use transform="matrix(0.009765625,0,0,0.009765625,20.05859375,0)" xlink:href="#aa"/><use transform="matrix(0.009765625,0,0,0.009765625,30.21484375,0)" xlink:href="#P"/><use transform="matrix(0.009765625,0,0,0.009765625,34.951171875,0)" xlink:href="#P"/><use transform="matrix(0.009765625,0,0,0.009765625,39.6875,0)" xlink:href="#J"/><use transform="matrix(0.009765625,0,0,0.009765625,43.154296875,0)" xlink:href="#F"/><use transform="matrix(0.009765625,0,0,0.009765625,54.140625,0)" xlink:href="#M"/><use transform="matrix(0.009765625,0,0,0.009765625,58.876953125,0)" xlink:href="#N"/></g></defs></g></svg>