<svg id="Layer_1" data-name="Layer 1" xmlns="http://www.w3.org/2000/svg" viewBox="0 0 756 360"><defs><style>.cls-1{fill:none;stroke:#231f20;stroke-miterlimit:10;stroke-width:0.5px;}.cls-2{fill:#231f20;}</style></defs><title>Multi_CPU_2 copy</title><line class="cls-1" x1="667.61" y1="162" x2="667.61" y2="150.64"/><polygon class="cls-2" points="669.79 152.13 667.62 144 665.44 152.13 669.79 152.13"/><line class="cls-1" x1="90" y1="144" x2="90" y2="155.36"/><polygon class="cls-2" points="87.82 153.87 90 162 92.18 153.87 87.82 153.87"/><line class="cls-1" x1="126" y1="144" x2="126" y2="155.36"/><polygon class="cls-2" points="123.82 153.87 126 162 128.18 153.87 123.82 153.87"/><line class="cls-1" x1="162" y1="144" x2="162" y2="155.36"/><polygon class="cls-2" points="159.82 153.87 162 162 164.18 153.87 159.82 153.87"/><line class="cls-1" x1="198" y1="144" x2="198" y2="155.36"/><polygon class="cls-2" points="195.82 153.87 198 162 200.18 153.87 195.82 153.87"/><rect class="cls-1" x="288" y="162" width="36" height="36" rx="9"/><path class="cls-2" d="M311.67,187.16,306,181.45l-5.67,5.71-1.49-1.48,5.7-5.7-5.69-5.74,1.48-1.4,5.67,5.68,5.67-5.68,1.49,1.41-5.7,5.74,5.69,5.71Z"/><line class="cls-1" x1="216" y1="180" x2="272.36" y2="180"/><polygon class="cls-2" points="270.87 182.18 279 180 270.87 177.82 270.87 182.18"/><line class="cls-1" x1="324" y1="180" x2="338.17" y2="180"/><polygon class="cls-2" points="336.68 182.18 344.81 180 336.68 177.82 336.68 182.18"/><line class="cls-1" x1="387" y1="180" x2="401.17" y2="180"/><polygon class="cls-2" points="399.68 182.18 407.81 180 399.68 177.82 399.68 182.18"/><line class="cls-1" x1="450" y1="180" x2="464.17" y2="180"/><polygon class="cls-2" points="462.68 182.18 470.81 180 462.68 177.82 462.68 182.18"/><line class="cls-1" x1="513" y1="180" x2="527.17" y2="180"/><polygon class="cls-2" points="525.68 182.18 533.81 180 525.68 177.82 525.68 182.18"/><line class="cls-1" x1="576" y1="180" x2="632.36" y2="180"/><polygon class="cls-2" points="630.87 182.18 639 180 630.87 177.82 630.87 182.18"/><rect class="cls-1" x="414" y="162" width="36" height="36" rx="9"/><path class="cls-2" d="M439.14,179v2H433v6.13h-2V181h-6.13v-2H431v-6.13h2V179Z"/><rect class="cls-1" x="540" y="162" width="36" height="36" rx="9"/><path class="cls-2" d="M565.14,179v2H559v6.13h-2V181h-6.13v-2H557v-6.13h2V179Z"/><circle class="cls-1" cx="495" cy="180" r="18"/><line class="cls-1" x1="667.61" y1="225" x2="667.61" y2="213.64"/><polygon class="cls-2" points="669.79 215.13 667.62 207 665.44 215.13 669.79 215.13"/><line class="cls-1" x1="90" y1="207" x2="90" y2="218.36"/><polygon class="cls-2" points="87.82 216.87 90 225 92.18 216.87 87.82 216.87"/><line class="cls-1" x1="126" y1="207" x2="126" y2="218.36"/><polygon class="cls-2" points="123.82 216.87 126 225 128.18 216.87 123.82 216.87"/><line class="cls-1" x1="162" y1="207" x2="162" y2="218.36"/><polygon class="cls-2" points="159.82 216.87 162 225 164.18 216.87 159.82 216.87"/><line class="cls-1" x1="198" y1="207" x2="198" y2="218.36"/><polygon class="cls-2" points="195.82 216.87 198 225 200.18 216.87 195.82 216.87"/><path class="cls-2" d="M311.67,250.16,306,244.45l-5.67,5.71-1.49-1.48,5.7-5.7-5.69-5.74,1.48-1.4,5.67,5.68,5.67-5.68,1.49,1.41-5.7,5.74,5.69,5.71Z"/><path class="cls-2" d="M439.14,242v2H433v6.13h-2V244h-6.13v-2H431v-6.13h2V242Z"/><path class="cls-2" d="M565.14,242v2H559v6.13h-2V244h-6.13v-2H557v-6.13h2V242Z"/><circle class="cls-1" cx="495" cy="243" r="18"/><circle class="cls-1" cx="666" cy="243" r="18"/><line class="cls-1" x1="667.61" y1="288" x2="667.61" y2="276.64"/><polygon class="cls-2" points="669.79 278.13 667.62 270 665.44 278.13 669.79 278.13"/><line class="cls-1" x1="90" y1="270" x2="90" y2="281.36"/><polygon class="cls-2" points="87.82 279.87 90 288 92.18 279.87 87.82 279.87"/><line class="cls-1" x1="126" y1="270" x2="126" y2="281.36"/><polygon class="cls-2" points="123.82 279.87 126 288 128.18 279.87 123.82 279.87"/><line class="cls-1" x1="162" y1="270" x2="162" y2="281.36"/><polygon class="cls-2" points="159.82 279.87 162 288 164.18 279.87 159.82 279.87"/><line class="cls-1" x1="198" y1="270" x2="198" y2="281.36"/><polygon class="cls-2" points="195.82 279.87 198 288 200.18 279.87 195.82 279.87"/><path class="cls-2" d="M311.67,313.16,306,307.45l-5.67,5.71-1.49-1.48,5.7-5.7-5.69-5.74,1.48-1.4,5.67,5.68,5.67-5.68,1.49,1.41-5.7,5.74,5.69,5.71Z"/><path class="cls-2" d="M439.14,305v2H433v6.13h-2V307h-6.13v-2H431v-6.13h2V305Z"/><path class="cls-2" d="M565.14,305v2H559v6.13h-2V307h-6.13v-2H557v-6.13h2V305Z"/><line class="cls-1" x1="667.61" y1="99" x2="667.61" y2="87.64"/><polygon class="cls-2" points="669.79 89.13 667.62 81 665.44 89.13 669.79 89.13"/><line class="cls-1" x1="90" y1="81" x2="90" y2="92.36"/><polygon class="cls-2" points="87.82 90.87 90 99 92.18 90.87 87.82 90.87"/><line class="cls-1" x1="126" y1="81" x2="126" y2="92.36"/><polygon class="cls-2" points="123.82 90.87 126 99 128.18 90.87 123.82 90.87"/><line class="cls-1" x1="162" y1="81" x2="162" y2="92.36"/><polygon class="cls-2" points="159.82 90.87 162 99 164.18 90.87 159.82 90.87"/><line class="cls-1" x1="198" y1="81" x2="198" y2="92.36"/><polygon class="cls-2" points="195.82 90.87 198 99 200.18 90.87 195.82 90.87"/><path class="cls-2" d="M311.67,124.16,306,118.45l-5.67,5.71-1.49-1.48,5.7-5.7-5.69-5.74,1.48-1.4,5.67,5.68,5.67-5.68,1.49,1.41-5.7,5.74,5.69,5.71Z"/><path class="cls-2" d="M439.14,116v2H433v6.13h-2V118h-6.13v-2H431v-6.13h2V116Z"/><path class="cls-2" d="M565.14,116v2H559v6.13h-2V118h-6.13v-2H557v-6.13h2V116Z"/><circle class="cls-1" cx="495" cy="117" r="18"/><line class="cls-1" x1="667.61" y1="36" x2="667.61" y2="24.64"/><polygon class="cls-2" points="669.79 26.13 667.62 18 665.44 26.13 669.79 26.13"/><line class="cls-1" x1="90" y1="18" x2="90" y2="29.36"/><polygon class="cls-2" points="87.82 27.87 90 36 92.18 27.87 87.82 27.87"/><line class="cls-1" x1="126" y1="18" x2="126" y2="29.36"/><polygon class="cls-2" points="123.82 27.87 126 36 128.18 27.87 123.82 27.87"/><line class="cls-1" x1="162" y1="18" x2="162" y2="29.36"/><polygon class="cls-2" points="159.82 27.87 162 36 164.18 27.87 159.82 27.87"/><line class="cls-1" x1="198" y1="18" x2="198" y2="29.36"/><polygon class="cls-2" points="195.82 27.87 198 36 200.18 27.87 195.82 27.87"/><path class="cls-2" d="M311.67,61.16,306,55.45l-5.67,5.71-1.49-1.48,5.7-5.7-5.69-5.74,1.48-1.4L306,52.52l5.67-5.68,1.49,1.41L307.46,54l5.69,5.71Z"/><path class="cls-2" d="M439.14,53v2H433v6.13h-2V55h-6.13V53H431V46.85h2V53Z"/><path class="cls-2" d="M565.14,53v2H559v6.13h-2V55h-6.13V53H557V46.85h2V53Z"/><circle class="cls-1" cx="90" cy="54" r="18"/><path class="cls-2" d="M85.81,60.57V58.85a8,8,0,0,0,3.49,1A3.14,3.14,0,0,0,91.53,59a2.74,2.74,0,0,0,.89-2.11,2.67,2.67,0,0,0-1-2.12,5.21,5.21,0,0,0-3.3-.81h-.91V52.63H88.5A3.37,3.37,0,0,0,91,51.86a2.36,2.36,0,0,0,.76-1.71,1.91,1.91,0,0,0-.62-1.43,2.74,2.74,0,0,0-1.92-.59,7.19,7.19,0,0,0-3.12.82V47.4a8.71,8.71,0,0,1,3.06-.63,4.72,4.72,0,0,1,3.43,1,3.14,3.14,0,0,1,1,2.24A3.27,3.27,0,0,1,93,51.74a4.2,4.2,0,0,1-1.84,1.46,4.89,4.89,0,0,1,1.79.86,3.33,3.33,0,0,1,.92,1.2,3.71,3.71,0,0,1,.31,1.56A4,4,0,0,1,92.77,60a5.35,5.35,0,0,1-3.67,1.25,10.62,10.62,0,0,1-1.42-.1A7.26,7.26,0,0,1,85.81,60.57Z"/><circle class="cls-1" cx="198" cy="117" r="18"/><path class="cls-2" d="M193.81,123.57v-1.72a8,8,0,0,0,3.49,1,3.14,3.14,0,0,0,2.23-.83,2.74,2.74,0,0,0,.89-2.11,2.67,2.67,0,0,0-1-2.12,5.21,5.21,0,0,0-3.3-.81h-.91v-1.37h1.26a3.37,3.37,0,0,0,2.48-.77,2.36,2.36,0,0,0,.76-1.71,1.91,1.91,0,0,0-.62-1.43,2.74,2.74,0,0,0-1.92-.59,7.19,7.19,0,0,0-3.12.82V110.4a8.71,8.71,0,0,1,3.06-.63,4.72,4.72,0,0,1,3.43,1,3.14,3.14,0,0,1,1,2.24,3.27,3.27,0,0,1-.51,1.75,4.2,4.2,0,0,1-1.84,1.46,4.89,4.89,0,0,1,1.79.86,3.33,3.33,0,0,1,.92,1.2,3.71,3.71,0,0,1,.31,1.56,4,4,0,0,1-1.42,3.16,5.35,5.35,0,0,1-3.67,1.25,10.62,10.62,0,0,1-1.42-.1A7.26,7.26,0,0,1,193.81,123.57Z"/><circle class="cls-1" cx="90" cy="243" r="18"/><path class="cls-2" d="M85.81,249.57v-1.72a8,8,0,0,0,3.49,1,3.14,3.14,0,0,0,2.23-.83,2.74,2.74,0,0,0,.89-2.11,2.67,2.67,0,0,0-1-2.12,5.21,5.21,0,0,0-3.3-.81h-.91v-1.37H88.5a3.37,3.37,0,0,0,2.48-.77,2.36,2.36,0,0,0,.76-1.71,1.91,1.91,0,0,0-.62-1.43,2.74,2.74,0,0,0-1.92-.59,7.19,7.19,0,0,0-3.12.82V236.4a8.71,8.71,0,0,1,3.06-.63,4.72,4.72,0,0,1,3.43,1,3.14,3.14,0,0,1,1,2.24,3.27,3.27,0,0,1-.51,1.75,4.2,4.2,0,0,1-1.84,1.46,4.89,4.89,0,0,1,1.79.86,3.33,3.33,0,0,1,.92,1.2,3.71,3.71,0,0,1,.31,1.56A4,4,0,0,1,92.77,249a5.35,5.35,0,0,1-3.67,1.25,10.62,10.62,0,0,1-1.42-.1A7.26,7.26,0,0,1,85.81,249.57Z"/><circle class="cls-1" cx="369" cy="54" r="18"/><path class="cls-2" d="M364.81,60.57V58.85a8,8,0,0,0,3.49,1,3.12,3.12,0,0,0,2.23-.83,2.74,2.74,0,0,0,.89-2.11,2.67,2.67,0,0,0-1-2.12,5.21,5.21,0,0,0-3.3-.81h-.91V52.63h1.26a3.37,3.37,0,0,0,2.48-.77,2.36,2.36,0,0,0,.76-1.71,1.91,1.91,0,0,0-.62-1.43,2.74,2.74,0,0,0-1.92-.59,7.19,7.19,0,0,0-3.12.82V47.4a8.71,8.71,0,0,1,3.06-.63,4.72,4.72,0,0,1,3.43,1,3.14,3.14,0,0,1,.95,2.24,3.27,3.27,0,0,1-.51,1.75,4.2,4.2,0,0,1-1.84,1.46,4.89,4.89,0,0,1,1.79.86,3.33,3.33,0,0,1,.92,1.2,3.71,3.71,0,0,1,.31,1.56A4,4,0,0,1,371.77,60a5.35,5.35,0,0,1-3.67,1.25,10.62,10.62,0,0,1-1.42-.1A7.26,7.26,0,0,1,364.81,60.57Z"/><circle class="cls-1" cx="495" cy="54" r="18"/><path class="cls-2" d="M491.12,53.53V47h7.63v1.58h-6v3.34H493a7.3,7.3,0,0,1,4.54,1.23,4,4,0,0,1,1.59,3.31,4.35,4.35,0,0,1-2.45,4,5.38,5.38,0,0,1-2.49.6,12.15,12.15,0,0,1-3.38-.64V58.6a8.69,8.69,0,0,0,1.67.67,6.49,6.49,0,0,0,1.71.25,3.38,3.38,0,0,0,1.53-.37,2.74,2.74,0,0,0,1.16-1.1,3,3,0,0,0,.41-1.48,2.67,2.67,0,0,0-1.13-2.16,6.72,6.72,0,0,0-4-.88Z"/><circle class="cls-1" cx="126" cy="54" r="18"/><path class="cls-2" d="M125.21,59.46V48.94a12.35,12.35,0,0,1-1.43,1,10.19,10.19,0,0,1-1.91.84V49.3a11.48,11.48,0,0,0,3.34-2.12h1.64V59.46h3.28v1.36h-8.26V59.46Z"/><circle class="cls-1" cx="162" cy="117" r="18"/><path class="cls-2" d="M161.21,122.46V111.94a12.35,12.35,0,0,1-1.43,1,10.19,10.19,0,0,1-1.91.84V112.3a11.48,11.48,0,0,0,3.34-2.12h1.64v12.28h3.28v1.36h-8.26v-1.36Z"/><circle class="cls-1" cx="126" cy="180" r="18"/><path class="cls-2" d="M125.21,185.46V174.94a12.35,12.35,0,0,1-1.43,1,10.19,10.19,0,0,1-1.91.84V175.3a11.48,11.48,0,0,0,3.34-2.12h1.64v12.28h3.28v1.36h-8.26v-1.36Z"/><circle class="cls-1" cx="198" cy="180" r="18"/><path class="cls-2" d="M197.21,185.46V174.94a12.35,12.35,0,0,1-1.43,1,10.19,10.19,0,0,1-1.91.84V175.3a11.48,11.48,0,0,0,3.34-2.12h1.64v12.28h3.28v1.36h-8.26v-1.36Z"/><circle class="cls-1" cx="198" cy="243" r="18"/><path class="cls-2" d="M197.21,248.46V237.94a12.35,12.35,0,0,1-1.43,1,10.19,10.19,0,0,1-1.91.84V238.3a11.48,11.48,0,0,0,3.34-2.12h1.64v12.28h3.28v1.36h-8.26v-1.36Z"/><circle class="cls-1" cx="162" cy="243" r="18"/><path class="cls-2" d="M161.21,248.46V237.94a12.35,12.35,0,0,1-1.43,1,10.19,10.19,0,0,1-1.91.84V238.3a11.48,11.48,0,0,0,3.34-2.12h1.64v12.28h3.28v1.36h-8.26v-1.36Z"/><circle class="cls-1" cx="162" cy="54" r="18"/><path class="cls-2" d="M166.13,61h-8.26v-1.5a3.62,3.62,0,0,1,.24-1.24,5.18,5.18,0,0,1,.91-1.49,21.09,21.09,0,0,1,1.41-1.59l.93-1,1.23-1.35a9.31,9.31,0,0,0,1.25-1.62,2.31,2.31,0,0,0,.3-1.1,1.54,1.54,0,0,0-.7-1.36,2.75,2.75,0,0,0-1.58-.48,6.71,6.71,0,0,0-1.12.11,9.43,9.43,0,0,0-1.08.27c-.31.11-.82.31-1.51.63V47.9a8.88,8.88,0,0,1,2.22-.73A10.9,10.9,0,0,1,162.2,47a5.13,5.13,0,0,1,2,.35,2.57,2.57,0,0,1,1.33,1.07,3,3,0,0,1,.44,1.56,3.74,3.74,0,0,1-.57,1.89,13,13,0,0,1-2.1,2.48l-1,1-.85.82a10.15,10.15,0,0,0-1.29,1.57,3.57,3.57,0,0,0-.54,1.8h6.56Z"/><circle class="cls-1" cx="126" cy="117" r="18"/><path class="cls-2" d="M130.13,124h-8.26v-1.5a3.62,3.62,0,0,1,.24-1.24,5.18,5.18,0,0,1,.91-1.49,21.09,21.09,0,0,1,1.41-1.59l.93-1,1.23-1.35a9.31,9.31,0,0,0,1.25-1.62,2.31,2.31,0,0,0,.3-1.1,1.54,1.54,0,0,0-.7-1.36,2.75,2.75,0,0,0-1.58-.48,6.71,6.71,0,0,0-1.12.11,9.43,9.43,0,0,0-1.08.27c-.31.11-.82.31-1.51.63V110.9a8.88,8.88,0,0,1,2.22-.73,10.9,10.9,0,0,1,1.83-.19,5.13,5.13,0,0,1,2,.35,2.57,2.57,0,0,1,1.33,1.07,3,3,0,0,1,.44,1.56,3.74,3.74,0,0,1-.57,1.89,13,13,0,0,1-2.1,2.48l-1,1-.85.82a10.15,10.15,0,0,0-1.29,1.57,3.57,3.57,0,0,0-.54,1.8h6.56Z"/><circle class="cls-1" cx="369" cy="180" r="18"/><path class="cls-2" d="M373.13,187h-8.26v-1.5a3.62,3.62,0,0,1,.24-1.24,5.18,5.18,0,0,1,.91-1.49,21.09,21.09,0,0,1,1.41-1.59l.93-.95,1.23-1.35a9.31,9.31,0,0,0,1.25-1.62,2.31,2.31,0,0,0,.3-1.1,1.54,1.54,0,0,0-.7-1.36,2.75,2.75,0,0,0-1.58-.48,6.71,6.71,0,0,0-1.12.11,9.43,9.43,0,0,0-1.08.27c-.31.11-.82.31-1.51.63V173.9a8.88,8.88,0,0,1,2.22-.73,10.9,10.9,0,0,1,1.83-.19,5.13,5.13,0,0,1,1.95.35,2.57,2.57,0,0,1,1.33,1.07,3,3,0,0,1,.44,1.56,3.74,3.74,0,0,1-.57,1.89,13,13,0,0,1-2.1,2.48l-1,1-.85.82a10.15,10.15,0,0,0-1.29,1.57,3.57,3.57,0,0,0-.54,1.8h6.56Z"/><circle class="cls-1" cx="90" cy="180" r="18"/><path class="cls-2" d="M94.13,187H85.87v-1.5a3.62,3.62,0,0,1,.24-1.24,5.18,5.18,0,0,1,.91-1.49,21.09,21.09,0,0,1,1.41-1.59l.93-.95,1.23-1.35a9.31,9.31,0,0,0,1.25-1.62,2.31,2.31,0,0,0,.3-1.1,1.54,1.54,0,0,0-.7-1.36,2.75,2.75,0,0,0-1.58-.48,6.71,6.71,0,0,0-1.12.11,9.43,9.43,0,0,0-1.08.27c-.31.11-.82.31-1.51.63V173.9a8.88,8.88,0,0,1,2.22-.73A10.9,10.9,0,0,1,90.2,173a5.13,5.13,0,0,1,2,.35,2.57,2.57,0,0,1,1.33,1.07,3,3,0,0,1,.44,1.56,3.74,3.74,0,0,1-.57,1.89,13,13,0,0,1-2.1,2.48l-1,1-.85.82a10.15,10.15,0,0,0-1.29,1.57,3.57,3.57,0,0,0-.54,1.8h6.56Z"/><circle class="cls-1" cx="90" cy="306" r="18"/><path class="cls-2" d="M94.13,313H85.87v-1.5a3.62,3.62,0,0,1,.24-1.24,5.18,5.18,0,0,1,.91-1.49,21.09,21.09,0,0,1,1.41-1.59l.93-.95,1.23-1.35a9.31,9.31,0,0,0,1.25-1.62,2.31,2.31,0,0,0,.3-1.1,1.54,1.54,0,0,0-.7-1.36,2.75,2.75,0,0,0-1.58-.48,6.71,6.71,0,0,0-1.12.11,9.43,9.43,0,0,0-1.08.27c-.31.11-.82.31-1.51.63V299.9a8.88,8.88,0,0,1,2.22-.73A10.9,10.9,0,0,1,90.2,299a5.13,5.13,0,0,1,2,.35,2.57,2.57,0,0,1,1.33,1.07,3,3,0,0,1,.44,1.56,3.74,3.74,0,0,1-.57,1.89,13,13,0,0,1-2.1,2.48l-1,1-.85.82a10.15,10.15,0,0,0-1.29,1.57,3.57,3.57,0,0,0-.54,1.8h6.56Z"/><circle class="cls-1" cx="126" cy="306" r="18"/><path class="cls-2" d="M130.13,313h-8.26v-1.5a3.62,3.62,0,0,1,.24-1.24,5.18,5.18,0,0,1,.91-1.49,21.09,21.09,0,0,1,1.41-1.59l.93-.95,1.23-1.35a9.31,9.31,0,0,0,1.25-1.62,2.31,2.31,0,0,0,.3-1.1,1.54,1.54,0,0,0-.7-1.36,2.75,2.75,0,0,0-1.58-.48,6.71,6.71,0,0,0-1.12.11,9.43,9.43,0,0,0-1.08.27c-.31.11-.82.31-1.51.63V299.9a8.88,8.88,0,0,1,2.22-.73,10.9,10.9,0,0,1,1.83-.19,5.13,5.13,0,0,1,2,.35,2.57,2.57,0,0,1,1.33,1.07,3,3,0,0,1,.44,1.56,3.74,3.74,0,0,1-.57,1.89,13,13,0,0,1-2.1,2.48l-1,1-.85.82a10.15,10.15,0,0,0-1.29,1.57,3.57,3.57,0,0,0-.54,1.8h6.56Z"/><circle class="cls-1" cx="198" cy="54" r="18"/><path class="cls-2" d="M202.13,61h-8.26v-1.5a3.62,3.62,0,0,1,.24-1.24,5.18,5.18,0,0,1,.91-1.49,21.09,21.09,0,0,1,1.41-1.59l.93-1,1.23-1.35a9.31,9.31,0,0,0,1.25-1.62,2.31,2.31,0,0,0,.3-1.1,1.54,1.54,0,0,0-.7-1.36,2.75,2.75,0,0,0-1.58-.48,6.71,6.71,0,0,0-1.12.11,9.43,9.43,0,0,0-1.08.27c-.31.11-.82.31-1.51.63V47.9a8.88,8.88,0,0,1,2.22-.73A10.9,10.9,0,0,1,198.2,47a5.13,5.13,0,0,1,2,.35,2.57,2.57,0,0,1,1.33,1.07,3,3,0,0,1,.44,1.56,3.74,3.74,0,0,1-.57,1.89,13,13,0,0,1-2.1,2.48l-1,1-.85.82a10.15,10.15,0,0,0-1.29,1.57,3.57,3.57,0,0,0-.54,1.8h6.56Z"/><circle class="cls-1" cx="666" cy="54" r="18"/><path class="cls-2" d="M663,60.82V59.6a7.58,7.58,0,0,1,.33-2.41A9.35,9.35,0,0,1,664.5,55c.55-.8,1-1.41,1.31-1.85l1.42-1.88.51-.66a8.44,8.44,0,0,0,1-1.81h-7.08V47.18h8.66v1.09a2.84,2.84,0,0,1-.26,1.2,20.69,20.69,0,0,1-1.57,2.37c-.21.29-.42.57-.62.86L667,54c-.59.83-1,1.49-1.3,2A6.68,6.68,0,0,0,665,57.5a8.49,8.49,0,0,0-.21,2.1v1.22Z"/><circle class="cls-1" cx="666" cy="180" r="18"/><path class="cls-2" d="M663,186.82V185.6a7.58,7.58,0,0,1,.33-2.41A9.35,9.35,0,0,1,664.5,181c.55-.8,1-1.41,1.31-1.85l1.42-1.88.51-.66a8.44,8.44,0,0,0,1-1.81h-7.08v-1.64h8.66v1.09a2.84,2.84,0,0,1-.26,1.2,20.69,20.69,0,0,1-1.57,2.37c-.21.29-.42.57-.62.86L667,180c-.59.83-1,1.49-1.3,2a6.68,6.68,0,0,0-.64,1.54,8.49,8.49,0,0,0-.21,2.1v1.22Z"/><circle class="cls-1" cx="90" cy="117" r="18"/><path class="cls-2" d="M90.82,123.82V120H85v-1.37l5.8-8.46h1.64v8.46H95V120H92.46v3.81Zm0-5.18v-6l-4.06,6Z"/><circle class="cls-1" cx="162" cy="180" r="18"/><path class="cls-2" d="M162.82,186.82V183H157v-1.37l5.8-8.46h1.64v8.46H167V183h-2.52v3.81Zm0-5.18v-6l-4.06,6Z"/><circle class="cls-1" cx="126" cy="243" r="18"/><path class="cls-2" d="M126.82,249.82V246H121v-1.37l5.8-8.46h1.64v8.46H131V246h-2.52v3.81Zm0-5.18v-6l-4.06,6Z"/><circle class="cls-1" cx="162" cy="306" r="18"/><path class="cls-2" d="M162.82,312.82V309H157v-1.37l5.8-8.46h1.64v8.46H167V309h-2.52v3.81Zm0-5.18v-6l-4.06,6Z"/><circle class="cls-1" cx="198" cy="306" r="18"/><path class="cls-2" d="M198.82,312.82V309H193v-1.37l5.8-8.46h1.64v8.46H203V309h-2.52v3.81Zm0-5.18v-6l-4.06,6Z"/><circle class="cls-1" cx="369" cy="306" r="18"/><path class="cls-2" d="M369.82,312.82V309H364v-1.37l5.8-8.46h1.64v8.46H374V309h-2.52v3.81Zm0-5.18v-6l-4.06,6Z"/><circle class="cls-1" cx="369" cy="117" r="18"/><path class="cls-2" d="M367.57,116.46l-.3-.22a5.15,5.15,0,0,1-1.22-1.3,3.21,3.21,0,0,1-.6-1.88,3,3,0,0,1,1.08-2.33,3.91,3.91,0,0,1,2.72-1,4.29,4.29,0,0,1,1.82.37,2.79,2.79,0,0,1,1.25,1.07,3,3,0,0,1,.44,1.56,3.09,3.09,0,0,1-.21,1.12A4,4,0,0,1,372,115a10.52,10.52,0,0,1-1.59,1.5l.74.59a7.59,7.59,0,0,1,1.74,1.82,3.31,3.31,0,0,1,.45,1.71,3.48,3.48,0,0,1-1.07,2.56,4.31,4.31,0,0,1-3.22,1.09,4.51,4.51,0,0,1-3.22-1,3.28,3.28,0,0,1-1.07-2.51Q364.71,118.45,367.57,116.46Zm1.24.87c-1.55,1.19-2.33,2.3-2.33,3.34a2,2,0,0,0,.77,1.56,2.73,2.73,0,0,0,1.8.63,2.62,2.62,0,0,0,1.71-.61,1.85,1.85,0,0,0,.76-1.51,2.62,2.62,0,0,0-.92-1.8c-.61-.61-1-1-1.27-1.2Zm.44-1.71a5.31,5.31,0,0,0,1.56-1.57,2.63,2.63,0,0,0,.31-1.18,1.6,1.6,0,0,0-.58-1.2,2.12,2.12,0,0,0-1.5-.54,1.91,1.91,0,0,0-1.5.59,1.85,1.85,0,0,0-.51,1.22,1.82,1.82,0,0,0,.43,1.16,6.69,6.69,0,0,0,1.37,1.23Z"/><circle class="cls-1" cx="495" cy="306" r="18"/><path class="cls-2" d="M493.57,305.46l-.3-.22a5.15,5.15,0,0,1-1.22-1.3,3.21,3.21,0,0,1-.6-1.88,3,3,0,0,1,1.08-2.33,3.91,3.91,0,0,1,2.72-1,4.29,4.29,0,0,1,1.82.37,2.79,2.79,0,0,1,1.25,1.07,3,3,0,0,1,.44,1.56,3.09,3.09,0,0,1-.21,1.12A4,4,0,0,1,498,304a10.52,10.52,0,0,1-1.59,1.5l.74.59a7.59,7.59,0,0,1,1.74,1.82,3.31,3.31,0,0,1,.45,1.71,3.48,3.48,0,0,1-1.07,2.56,4.31,4.31,0,0,1-3.22,1.09,4.51,4.51,0,0,1-3.22-1,3.28,3.28,0,0,1-1.07-2.51Q490.71,307.45,493.57,305.46Zm1.24.87c-1.55,1.19-2.33,2.3-2.33,3.34a2,2,0,0,0,.77,1.56,2.73,2.73,0,0,0,1.8.63,2.62,2.62,0,0,0,1.71-.61,1.85,1.85,0,0,0,.76-1.51,2.62,2.62,0,0,0-.92-1.8c-.61-.61-1-1-1.27-1.2Zm.44-1.71a5.31,5.31,0,0,0,1.56-1.57,2.63,2.63,0,0,0,.31-1.18,1.6,1.6,0,0,0-.58-1.2,2.12,2.12,0,0,0-1.5-.54,1.91,1.91,0,0,0-1.5.59,1.85,1.85,0,0,0-.51,1.22,1.82,1.82,0,0,0,.43,1.16,6.69,6.69,0,0,0,1.37,1.23Z"/><path class="cls-2" d="M498,116.57a5.48,5.48,0,0,1-1.57,1.54,3.83,3.83,0,0,1-2.06.59,4.24,4.24,0,0,1-2-.51,3.58,3.58,0,0,1-1.46-1.45,4.53,4.53,0,0,1-.5-2.16,5,5,0,0,1,1.25-3.37,4.11,4.11,0,0,1,3.27-1.44,3.87,3.87,0,0,1,3.57,2,9.84,9.84,0,0,1,1.19,5.08,8.68,8.68,0,0,1-1.51,5.4,4.84,4.84,0,0,1-4.07,2,9,9,0,0,1-2.68-.41v-1.65a6.48,6.48,0,0,0,2.75.69,3.12,3.12,0,0,0,2.83-1.68,8.18,8.18,0,0,0,1-4.25Zm-3.21-5.44a2.64,2.64,0,0,0-1.33.39,2.82,2.82,0,0,0-1.05,1.2,4.18,4.18,0,0,0-.38,1.78,3.13,3.13,0,0,0,.64,2,2.27,2.27,0,0,0,1.85.8,2.56,2.56,0,0,0,2-.93,3.34,3.34,0,0,0,.8-2.24,3.11,3.11,0,0,0-.78-2.19A2.38,2.38,0,0,0,494.76,111.13Z"/><path class="cls-2" d="M492,180.42a5.48,5.48,0,0,1,1.57-1.54,3.83,3.83,0,0,1,2.06-.59,4.14,4.14,0,0,1,2,.52,3.52,3.52,0,0,1,1.46,1.45,4.46,4.46,0,0,1,.5,2.15,5,5,0,0,1-1.25,3.38,4.11,4.11,0,0,1-3.27,1.44,3.87,3.87,0,0,1-3.57-2,9.84,9.84,0,0,1-1.19-5.08,8.68,8.68,0,0,1,1.51-5.4,4.84,4.84,0,0,1,4.07-2,9,9,0,0,1,2.68.41v1.65a6.36,6.36,0,0,0-2.75-.7,3.12,3.12,0,0,0-2.83,1.68,8.19,8.19,0,0,0-1,4.26Zm3.21,5.45a2.64,2.64,0,0,0,1.33-.39,2.73,2.73,0,0,0,1.05-1.21,4.16,4.16,0,0,0,.38-1.77,3.18,3.18,0,0,0-.64-2.05,2.27,2.27,0,0,0-1.85-.8,2.56,2.56,0,0,0-2,.93,3.35,3.35,0,0,0-.8,2.25,3.11,3.11,0,0,0,.78,2.19A2.38,2.38,0,0,0,495.24,185.87Z"/><path class="cls-2" d="M488.94,248.45V237.93a12.57,12.57,0,0,1-1.44,1,11.93,11.93,0,0,1-1.9.84v-1.48a11.72,11.72,0,0,0,3.34-2.11h1.63v12.27h3.28v1.37H485.6v-1.37Z"/><path class="cls-2" d="M496,249.57v-1.72a8,8,0,0,0,3.49,1,3.17,3.17,0,0,0,2.24-.83,2.77,2.77,0,0,0,.88-2.11,2.64,2.64,0,0,0-1-2.12,5.21,5.21,0,0,0-3.3-.81h-.91v-1.37h1.26a3.37,3.37,0,0,0,2.48-.77,2.36,2.36,0,0,0,.76-1.71,1.91,1.91,0,0,0-.62-1.43,2.74,2.74,0,0,0-1.92-.59,7.26,7.26,0,0,0-3.12.82V236.4a8.75,8.75,0,0,1,3.06-.63,4.72,4.72,0,0,1,3.43,1,3.14,3.14,0,0,1,1,2.24,3.34,3.34,0,0,1-.5,1.75,4.3,4.3,0,0,1-1.85,1.46,4.89,4.89,0,0,1,1.79.86,3.33,3.33,0,0,1,.92,1.2,3.71,3.71,0,0,1,.31,1.56A4,4,0,0,1,503,249a5.33,5.33,0,0,1-3.66,1.25,10.4,10.4,0,0,1-1.42-.1A7.2,7.2,0,0,1,496,249.57Z"/><circle class="cls-1" cx="369" cy="243" r="18"/><path class="cls-2" d="M363,248.66V238.14a13.91,13.91,0,0,1-1.43,1,11.7,11.7,0,0,1-1.91.84V238.5a11.27,11.27,0,0,0,3.34-2.12h1.64v12.28h3.28V250h-8.26v-1.36Z"/><path class="cls-2" d="M378.36,250H370.1v-1.5a3.62,3.62,0,0,1,.24-1.24,5.18,5.18,0,0,1,.91-1.49,21.09,21.09,0,0,1,1.41-1.59l.93-.95,1.23-1.35a9.31,9.31,0,0,0,1.25-1.62,2.31,2.31,0,0,0,.3-1.1,1.54,1.54,0,0,0-.7-1.36,2.75,2.75,0,0,0-1.58-.48,6.71,6.71,0,0,0-1.12.11,9.43,9.43,0,0,0-1.08.27c-.32.11-.82.31-1.51.63V236.9a9,9,0,0,1,2.21-.73,11.1,11.1,0,0,1,1.84-.19,5.13,5.13,0,0,1,1.95.35,2.57,2.57,0,0,1,1.33,1.07,3,3,0,0,1,.44,1.56,3.74,3.74,0,0,1-.57,1.89,13,13,0,0,1-2.1,2.48l-1,1-.85.82a10.15,10.15,0,0,0-1.29,1.57,3.57,3.57,0,0,0-.54,1.8h6.56Z"/><circle class="cls-1" cx="666" cy="306" r="18"/><path class="cls-2" d="M660,311.66V301.14a13.91,13.91,0,0,1-1.43,1,11.7,11.7,0,0,1-1.91.84V301.5a11.27,11.27,0,0,0,3.34-2.12h1.64v12.28h3.28V313h-8.26v-1.36Z"/><path class="cls-2" d="M675.36,313H667.1v-1.5a3.62,3.62,0,0,1,.24-1.24,5.18,5.18,0,0,1,.91-1.49,21.09,21.09,0,0,1,1.41-1.59l.93-.95,1.23-1.35a9.31,9.31,0,0,0,1.25-1.62,2.31,2.31,0,0,0,.3-1.1,1.54,1.54,0,0,0-.7-1.36,2.75,2.75,0,0,0-1.58-.48,6.71,6.71,0,0,0-1.12.11,9.43,9.43,0,0,0-1.08.27c-.32.11-.82.31-1.51.63V299.9a9,9,0,0,1,2.21-.73,11.1,11.1,0,0,1,1.84-.19,5.13,5.13,0,0,1,2,.35,2.57,2.57,0,0,1,1.33,1.07,3,3,0,0,1,.44,1.56,3.74,3.74,0,0,1-.57,1.89,13,13,0,0,1-2.1,2.48l-1,1-.85.82a10.15,10.15,0,0,0-1.29,1.57,3.57,3.57,0,0,0-.54,1.8h6.56Z"/><circle class="cls-1" cx="666" cy="117" r="18"/><path class="cls-2" d="M660,122.66V112.14a13.91,13.91,0,0,1-1.43,1,11.7,11.7,0,0,1-1.91.84V112.5a11.27,11.27,0,0,0,3.34-2.12h1.64v12.28h3.28V124h-8.26v-1.36Z"/><path class="cls-2" d="M675.36,124H667.1v-1.5a3.62,3.62,0,0,1,.24-1.24,5.18,5.18,0,0,1,.91-1.49,21.09,21.09,0,0,1,1.41-1.59l.93-1,1.23-1.35a9.31,9.31,0,0,0,1.25-1.62,2.31,2.31,0,0,0,.3-1.1,1.54,1.54,0,0,0-.7-1.36,2.75,2.75,0,0,0-1.58-.48,6.71,6.71,0,0,0-1.12.11,9.43,9.43,0,0,0-1.08.27c-.32.11-.82.31-1.51.63V110.9a9,9,0,0,1,2.21-.73,11.1,11.1,0,0,1,1.84-.19,5.13,5.13,0,0,1,2,.35,2.57,2.57,0,0,1,1.33,1.07,3,3,0,0,1,.44,1.56,3.74,3.74,0,0,1-.57,1.89,13,13,0,0,1-2.1,2.48l-1,1-.85.82a10.15,10.15,0,0,0-1.29,1.57,3.57,3.57,0,0,0-.54,1.8h6.56Z"/><path class="cls-2" d="M659.58,248.46V237.94a12.43,12.43,0,0,1-1.44,1,10.36,10.36,0,0,1-1.9.84V238.3a11.75,11.75,0,0,0,3.34-2.12h1.63v12.28h3.28v1.36h-8.25v-1.36Z"/><path class="cls-2" d="M671.61,249.82V246h-5.8v-1.37l5.8-8.46h1.63v8.46h2.52V246h-2.52v3.81Zm0-5.18v-6l-4.06,6Z"/></svg>