<svg id="Layer_1" data-name="Layer 1" xmlns="http://www.w3.org/2000/svg" viewBox="0 0 756 108"><defs><style>.cls-1{fill:#231f20;}.cls-2{fill:none;stroke:#231f20;stroke-miterlimit:10;stroke-width:0.5px;}</style></defs><title>Single_CPU</title><path class="cls-1" d="M37.62,55.62a1.55,1.55,0,0,1-1.14-.47A1.56,1.56,0,0,1,36,54a1.55,1.55,0,0,1,.48-1.15,1.63,1.63,0,0,1,2.29,0A1.55,1.55,0,0,1,39.25,54a1.62,1.62,0,0,1-1.63,1.62Z"/><path class="cls-1" d="M49.88,55.62a1.62,1.62,0,0,1-1.15-2.77,1.63,1.63,0,0,1,2.29,0A1.55,1.55,0,0,1,51.5,54,1.56,1.56,0,0,1,51,55.15,1.55,1.55,0,0,1,49.88,55.62Z"/><path class="cls-1" d="M62.13,55.62A1.62,1.62,0,0,1,61,52.85a1.63,1.63,0,0,1,2.29,0A1.55,1.55,0,0,1,63.75,54a1.56,1.56,0,0,1-.48,1.15A1.55,1.55,0,0,1,62.13,55.62Z"/><path class="cls-1" d="M684.87,55.62a1.55,1.55,0,0,1-1.14-.47,1.56,1.56,0,0,1-.48-1.15,1.55,1.55,0,0,1,.48-1.15,1.56,1.56,0,0,1,1.14-.47,1.59,1.59,0,0,1,1.15.47A1.55,1.55,0,0,1,686.5,54a1.62,1.62,0,0,1-1.63,1.62Z"/><path class="cls-1" d="M697.13,55.62A1.62,1.62,0,0,1,696,52.85a1.63,1.63,0,0,1,2.29,0,1.55,1.55,0,0,1,.48,1.15,1.56,1.56,0,0,1-.48,1.15A1.55,1.55,0,0,1,697.13,55.62Z"/><path class="cls-1" d="M709.38,55.62a1.62,1.62,0,0,1-1.15-2.77,1.63,1.63,0,0,1,2.29,0A1.55,1.55,0,0,1,711,54a1.56,1.56,0,0,1-.48,1.15A1.55,1.55,0,0,1,709.38,55.62Z"/><rect class="cls-2" x="72" y="36" width="36" height="36" rx="9"/><rect class="cls-2" x="135" y="36" width="36" height="36" rx="9"/><rect class="cls-2" x="198" y="36" width="36" height="36" rx="9"/><rect class="cls-2" x="261" y="36" width="36" height="36" rx="9"/><rect class="cls-2" x="324" y="36" width="36" height="36" rx="9"/><rect class="cls-2" x="387" y="36" width="36" height="36" rx="9"/><rect class="cls-2" x="450" y="36" width="36" height="36" rx="9"/><rect class="cls-2" x="513" y="36" width="36" height="36" rx="9"/><rect class="cls-2" x="576" y="36" width="36" height="36" rx="9"/><rect class="cls-2" x="639" y="36" width="36" height="36" rx="9"/><path class="cls-1" d="M85.87,60.57V58.85a8,8,0,0,0,3.49,1A3.15,3.15,0,0,0,91.6,59a2.73,2.73,0,0,0,.88-2.11,2.64,2.64,0,0,0-1-2.12,5.21,5.21,0,0,0-3.3-.81h-.9V52.63h1.25A3.35,3.35,0,0,0,91,51.86a2.37,2.37,0,0,0,.77-1.71,1.88,1.88,0,0,0-.63-1.43,2.7,2.7,0,0,0-1.91-.59,7.19,7.19,0,0,0-3.12.82V47.4a8.7,8.7,0,0,1,3-.63,4.74,4.74,0,0,1,3.44,1A3.13,3.13,0,0,1,93.58,50a3.34,3.34,0,0,1-.5,1.75,4.24,4.24,0,0,1-1.85,1.46,5,5,0,0,1,1.8.86,3.45,3.45,0,0,1,.92,1.2,3.88,3.88,0,0,1,.31,1.56A4,4,0,0,1,92.84,60a5.37,5.37,0,0,1-3.67,1.25,10.51,10.51,0,0,1-1.42-.1A7.32,7.32,0,0,1,85.87,60.57Z"/><path class="cls-1" d="M149.25,53.53V47h7.64v1.58h-6v3.34h.28a7.27,7.27,0,0,1,4.53,1.23,4,4,0,0,1,1.59,3.31,4.35,4.35,0,0,1-2.45,4,5.38,5.38,0,0,1-2.49.6,12.15,12.15,0,0,1-3.37-.64V58.6a8.43,8.43,0,0,0,1.67.67,6.36,6.36,0,0,0,1.7.25,3.32,3.32,0,0,0,1.53-.37,2.68,2.68,0,0,0,1.16-1.1,3,3,0,0,0,.42-1.48,2.67,2.67,0,0,0-1.13-2.16,6.76,6.76,0,0,0-4-.88Z"/><path class="cls-1" d="M223.14,53v2H217v6.13h-2V55h-6.13V53H215V46.85h2V53Z"/><path class="cls-1" d="M277.64,53.46l-.3-.22a5,5,0,0,1-1.23-1.3,3.2,3.2,0,0,1-.59-1.88,3,3,0,0,1,1.07-2.33,3.91,3.91,0,0,1,2.72-1,4.26,4.26,0,0,1,1.82.37,2.74,2.74,0,0,1,1.25,1.07,3,3,0,0,1,.44,1.56,3.31,3.31,0,0,1-.2,1.12A4.31,4.31,0,0,1,282,52a10,10,0,0,1-1.59,1.5l.74.59a7.68,7.68,0,0,1,1.75,1.82,3.3,3.3,0,0,1,.44,1.71,3.48,3.48,0,0,1-1.07,2.56,4.29,4.29,0,0,1-3.21,1.09,4.54,4.54,0,0,1-3.23-1,3.32,3.32,0,0,1-1.07-2.51C274.77,56.2,275.72,54.79,277.64,53.46Zm1.23.87c-1.55,1.19-2.33,2.3-2.33,3.34a2,2,0,0,0,.77,1.56,2.74,2.74,0,0,0,1.8.63,2.66,2.66,0,0,0,1.72-.61,1.87,1.87,0,0,0,.75-1.51,2.65,2.65,0,0,0-.91-1.8c-.61-.61-1-1-1.28-1.2Zm.44-1.71a5.31,5.31,0,0,0,1.56-1.57,2.63,2.63,0,0,0,.31-1.18,1.6,1.6,0,0,0-.58-1.2,2.08,2.08,0,0,0-1.49-.54,1.92,1.92,0,0,0-1.51.59,1.85,1.85,0,0,0-.51,1.22,1.82,1.82,0,0,0,.43,1.16,6.53,6.53,0,0,0,1.38,1.23Z"/><path class="cls-1" d="M346.16,61h-8.25v-1.5a3.62,3.62,0,0,1,.24-1.24,5.12,5.12,0,0,1,.9-1.49q.68-.82,1.41-1.59l.93-1,1.23-1.35a9.31,9.31,0,0,0,1.25-1.62,2.33,2.33,0,0,0,.31-1.1,1.55,1.55,0,0,0-.71-1.36,2.73,2.73,0,0,0-1.58-.48,6.92,6.92,0,0,0-1.12.11,9.43,9.43,0,0,0-1.08.27c-.31.11-.81.31-1.51.63V47.9a9.16,9.16,0,0,1,2.22-.73,10.9,10.9,0,0,1,1.83-.19,5.21,5.21,0,0,1,2,.35,2.61,2.61,0,0,1,1.33,1.07A3,3,0,0,1,346,50a3.83,3.83,0,0,1-.56,1.89,13.14,13.14,0,0,1-2.11,2.48l-1,1-.84.82a10.15,10.15,0,0,0-1.29,1.57,3.57,3.57,0,0,0-.55,1.8h6.56Z"/><path class="cls-1" d="M410.67,61.16,405,55.45l-5.67,5.71-1.49-1.48,5.7-5.7-5.69-5.74,1.48-1.4L405,52.52l5.68-5.68,1.49,1.41L406.46,54l5.69,5.71Z"/><path class="cls-1" d="M462.19,59.45V48.93a12.5,12.5,0,0,1-1.43,1,12.1,12.1,0,0,1-1.91.84V49.29a11.59,11.59,0,0,0,3.34-2.11h1.64V59.45h3.27v1.37h-8.25V59.45Z"/><path class="cls-1" d="M470.57,54.42a5.32,5.32,0,0,1,1.56-1.54,3.86,3.86,0,0,1,2.07-.59,4.07,4.07,0,0,1,2,.52,3.52,3.52,0,0,1,1.46,1.45,4.46,4.46,0,0,1,.5,2.15,5,5,0,0,1-1.24,3.38,4.13,4.13,0,0,1-3.28,1.44,3.89,3.89,0,0,1-3.57-2,9.85,9.85,0,0,1-1.18-5.08,8.74,8.74,0,0,1,1.5-5.4,4.84,4.84,0,0,1,4.07-2,9,9,0,0,1,2.68.41v1.65a6.33,6.33,0,0,0-2.75-.7,3.13,3.13,0,0,0-2.83,1.68,8.19,8.19,0,0,0-1,4.26Zm3.2,5.45a2.65,2.65,0,0,0,2.38-1.6,4,4,0,0,0,.38-1.77,3.18,3.18,0,0,0-.64-2,2.25,2.25,0,0,0-1.84-.8,2.56,2.56,0,0,0-2,.93,3.34,3.34,0,0,0-.79,2.25A3.15,3.15,0,0,0,472,59,2.39,2.39,0,0,0,473.77,59.87Z"/><path class="cls-1" d="M525.19,59.45V48.93a12.5,12.5,0,0,1-1.43,1,12.1,12.1,0,0,1-1.91.84V49.29a11.59,11.59,0,0,0,3.34-2.11h1.64V59.45h3.27v1.37h-8.25V59.45Z"/><path class="cls-1" d="M536.4,46.77a3.94,3.94,0,0,1,3.55,2A9.91,9.91,0,0,1,541.17,54,9.91,9.91,0,0,1,540,59.27a4.19,4.19,0,0,1-7.1,0A9.81,9.81,0,0,1,531.62,54a9.81,9.81,0,0,1,1.23-5.27A3.94,3.94,0,0,1,536.4,46.77Zm-2.67,10.14,4.71-7.39a2.61,2.61,0,0,0-1-1.1,2.19,2.19,0,0,0-1.08-.29,2.42,2.42,0,0,0-2.23,1.63,9.78,9.78,0,0,0-.76,4.14q0,.57,0,1.23A12.33,12.33,0,0,0,533.73,56.91Zm5.3-5.76-4.67,7.43a3,3,0,0,0,.86,1,2,2,0,0,0,1.1.32A2.47,2.47,0,0,0,538.69,58a11.7,11.7,0,0,0,.7-4.15A10.11,10.11,0,0,0,539,51.15Z"/><path class="cls-1" d="M588.89,55V53h10.23v2Z"/><path class="cls-1" d="M654.17,54.42a5.32,5.32,0,0,1,1.56-1.54,3.83,3.83,0,0,1,2.06-.59,4.11,4.11,0,0,1,2,.52,3.52,3.52,0,0,1,1.46,1.45,4.46,4.46,0,0,1,.5,2.15,5,5,0,0,1-1.25,3.38,4.1,4.1,0,0,1-3.27,1.44,3.89,3.89,0,0,1-3.57-2,9.85,9.85,0,0,1-1.18-5.08,8.74,8.74,0,0,1,1.5-5.4,4.84,4.84,0,0,1,4.07-2,9,9,0,0,1,2.68.41v1.65a6.33,6.33,0,0,0-2.75-.7,3.13,3.13,0,0,0-2.83,1.68,8.19,8.19,0,0,0-1,4.26Zm3.2,5.45a2.65,2.65,0,0,0,2.38-1.6,4,4,0,0,0,.38-1.77,3.18,3.18,0,0,0-.64-2,2.25,2.25,0,0,0-1.84-.8,2.56,2.56,0,0,0-2,.93,3.34,3.34,0,0,0-.79,2.25,3.15,3.15,0,0,0,.77,2.19A2.39,2.39,0,0,0,657.37,59.87Z"/><line class="cls-2" x1="108" y1="54" x2="122.17" y2="54"/><polygon class="cls-1" points="120.68 56.18 128.81 54 120.68 51.82 120.68 56.18"/><line class="cls-2" x1="90" y1="18" x2="90" y2="29.36"/><polygon class="cls-1" points="87.82 27.87 90 36 92.18 27.87 87.82 27.87"/><line class="cls-2" x1="153" y1="18" x2="153" y2="29.36"/><polygon class="cls-1" points="150.82 27.87 153 36 155.18 27.87 150.82 27.87"/><line class="cls-2" x1="342" y1="18" x2="342" y2="29.36"/><polygon class="cls-1" points="339.82 27.87 342 36 344.18 27.87 339.82 27.87"/><line class="cls-2" x1="531" y1="18" x2="531" y2="29.36"/><polygon class="cls-1" points="528.82 27.87 531 36 533.18 27.87 528.82 27.87"/><line class="cls-2" x1="468" y1="36" x2="468" y2="24.64"/><polygon class="cls-1" points="470.18 26.13 468 18 465.82 26.13 470.18 26.13"/><line class="cls-2" x1="171" y1="54" x2="185.17" y2="54"/><polygon class="cls-1" points="183.68 56.18 191.81 54 183.68 51.82 183.68 56.18"/><line class="cls-2" x1="234" y1="54" x2="248.17" y2="54"/><polygon class="cls-1" points="246.68 56.18 254.81 54 246.68 51.82 246.68 56.18"/><line class="cls-2" x1="297" y1="54" x2="311.17" y2="54"/><polygon class="cls-1" points="309.68 56.18 317.81 54 309.68 51.82 309.68 56.18"/><line class="cls-2" x1="360" y1="54" x2="374.17" y2="54"/><polygon class="cls-1" points="372.68 56.18 380.81 54 372.68 51.82 372.68 56.18"/><line class="cls-2" x1="423" y1="54" x2="437.17" y2="54"/><polygon class="cls-1" points="435.68 56.18 443.81 54 435.68 51.82 435.68 56.18"/><line class="cls-2" x1="486" y1="54" x2="500.17" y2="54"/><polygon class="cls-1" points="498.68 56.18 506.81 54 498.68 51.82 498.68 56.18"/><line class="cls-2" x1="549" y1="54" x2="563.17" y2="54"/><polygon class="cls-1" points="561.68 56.18 569.81 54 561.68 51.82 561.68 56.18"/><line class="cls-2" x1="612" y1="54" x2="626.17" y2="54"/><polygon class="cls-1" points="624.68 56.18 632.81 54 624.68 51.82 624.68 56.18"/></svg>