<svg xmlns="http://www.w3.org/2000/svg" viewBox="0 0 400 400"><defs><style>.cls-1{fill:#f4f3f1;}.cls-2{fill:#4a4a4a;}.cls-3{isolation:isolate;}</style></defs><title>cull_placement_1</title><g id="Background"><rect id="Rectangle-5-Copy-16" class="cls-1" width="400" height="400"/></g><g id="Old_Dots" data-name="Old Dots"><circle class="cls-2" cx="74.41" cy="200" r="12.5"/><circle class="cls-2" cx="124.41" cy="125" r="12.5"/><circle class="cls-2" cx="175" cy="325" r="12.5"/></g><g id="Question"><g class="cls-3"><path class="cls-2" d="M150.5,95.32a5.85,5.85,0,0,1,6.13-5.14,6,6,0,0,1,4.3,1.49,5.18,5.18,0,0,1,1.57,3.94,7.82,7.82,0,0,1-2.95,5.77,7.53,7.53,0,0,0-1.94,2.17,6.1,6.1,0,0,0-.4,2.46H155v-.73a5.9,5.9,0,0,1,.5-2.65,12,12,0,0,1,2.31-2.71q2.34-2.19,2.34-4.27a3.13,3.13,0,0,0-1-2.46,3.68,3.68,0,0,0-2.59-.9c-2,0-3.3,1.12-3.86,3.36Zm7.11,14.15v3h-2.73v-3Z"/></g><g class="cls-3"><path class="cls-2" d="M188,157.82a5.85,5.85,0,0,1,6.13-5.14,6,6,0,0,1,4.3,1.49,5.18,5.18,0,0,1,1.57,3.94,7.82,7.82,0,0,1-2.95,5.77,7.53,7.53,0,0,0-1.94,2.17,6.1,6.1,0,0,0-.4,2.46h-2.19v-.73a5.9,5.9,0,0,1,.5-2.65,12,12,0,0,1,2.31-2.71q2.34-2.19,2.34-4.27a3.13,3.13,0,0,0-1-2.46,3.68,3.68,0,0,0-2.59-.9c-2,0-3.3,1.12-3.86,3.36ZM195.11,172v3h-2.73v-3Z"/></g><g class="cls-3"><path class="cls-2" d="M275.5,157.82a5.85,5.85,0,0,1,6.13-5.14,6,6,0,0,1,4.3,1.49,5.18,5.18,0,0,1,1.57,3.94,7.78,7.78,0,0,1-3,5.77,7.59,7.59,0,0,0-1.93,2.17,5.93,5.93,0,0,0-.4,2.46H280v-.73a5.9,5.9,0,0,1,.5-2.65,12,12,0,0,1,2.31-2.71q2.34-2.19,2.34-4.27a3.13,3.13,0,0,0-1-2.46,3.7,3.7,0,0,0-2.59-.9q-3,0-3.87,3.36ZM282.61,172v3h-2.73v-3Z"/></g></g></svg>