<svg xmlns="http://www.w3.org/2000/svg" viewBox="0 0 400 400"><defs><style>.cls-1{fill:#f4f3f1;}.cls-2{fill:#4a4a4a;}</style></defs><title>noise_cull_3</title><g id="Background"><rect id="Rectangle-5-Copy-16" class="cls-1" width="400" height="400"/><rect id="Rectangle-5-Copy-16-2" data-name="Rectangle-5-Copy-16" class="cls-1" width="400" height="400"/></g><g id="Dots"><circle class="cls-2" cx="325" cy="187.5" r="12.5"/><circle class="cls-2" cx="225" cy="237.5" r="12.5"/><circle class="cls-2" cx="362.5" cy="175" r="12.5"/><circle class="cls-2" cx="362.5" cy="225" r="12.5"/><circle class="cls-2" cx="337.5" cy="300" r="12.5"/><circle class="cls-2" cx="375" cy="325" r="12.5"/><circle class="cls-2" cx="375" cy="277.5" r="12.5"/><circle class="cls-2" cx="325" cy="250" r="12.5"/><circle class="cls-2" cx="300" cy="300" r="12.5"/><circle class="cls-2" cx="150" cy="362.5" r="12.5"/><circle class="cls-2" cx="175" cy="400" r="12.5"/><circle class="cls-2" cx="50" cy="350" r="12.5"/><circle class="cls-2" cx="87.5" cy="362.5" r="12.5"/><circle class="cls-2" cx="212.5" cy="300" r="12.5"/><circle class="cls-2" cx="250" cy="312.5" r="12.5"/><circle class="cls-2" cx="250" cy="275" r="12.5"/><circle class="cls-2" cx="237.5" cy="112.5" r="12.5"/><circle class="cls-2" cx="200" cy="75" r="12.5"/><circle class="cls-2" cx="187.5" cy="37.5" r="12.5"/><circle class="cls-2" cx="200" cy="125" r="12.5"/><circle class="cls-2" cx="200" cy="175" r="12.5"/><circle class="cls-2" cx="175" cy="225" r="12.5"/><circle class="cls-2" cx="187.5" cy="275" r="12.5"/><circle class="cls-2" cx="162.5" cy="87.5" r="12.5"/><circle class="cls-2" cx="150" cy="37.5" r="12.5"/><circle class="cls-2" cx="100" cy="75" r="12.5"/><circle class="cls-2" cx="137.5" cy="112.5" r="12.5"/><circle class="cls-2" cx="125" cy="12.5" r="12.5"/><circle class="cls-2" cx="150" cy="175" r="12.5"/><circle class="cls-2" cx="112.5" cy="162.5" r="12.5"/><circle class="cls-2" cx="237.5" cy="175" r="12.5"/><circle class="cls-2" cx="275" cy="225" r="12.5"/><circle class="cls-2" cx="275" cy="162.5" r="12.5"/><circle class="cls-2" cx="112.5" cy="312.5" r="12.5"/><circle class="cls-2" cx="37.5" cy="250" r="12.5"/><circle class="cls-2" cx="62.5" cy="37.5" r="12.5"/><circle class="cls-2" cy="305" r="12.5"/><circle class="cls-2" cx="62.5" cy="300" r="12.5"/></g></svg>