<svg xmlns="http://www.w3.org/2000/svg" viewBox="0 0 400 400"><defs><style>.cls-1{fill:#f4f3f1;}.cls-2{fill:#4a4a4a;}.cls-3{fill:none;stroke:#29b473;stroke-linecap:round;stroke-miterlimit:10;stroke-width:5px;}.cls-4{fill:#29b473;}</style></defs><title>relax_2</title><g id="Background"><rect id="Rectangle-5-Copy-16" class="cls-1" width="400" height="400"/></g><g id="Dots"><circle class="cls-2" cx="262.5" cy="100" r="12.5"/><circle class="cls-2" cx="337.5" cy="37.5" r="12.5"/><circle class="cls-2" cx="125" cy="125" r="12.5"/><circle class="cls-2" cx="75" cy="50" r="12.5"/><circle class="cls-2" cx="62.5" cy="37.5" r="12.5"/><circle class="cls-2" cx="162.5" cy="37.5" r="12.5"/><circle class="cls-2" cx="37.5" cy="125" r="12.5"/><circle class="cls-2" cx="350" cy="275" r="12.5"/><circle class="cls-2" cx="212.5" cy="312.5" r="12.5"/><circle class="cls-2" cx="225" cy="200" r="12.5"/><circle class="cls-2" cx="362.5" cy="162.5" r="12.5"/><circle class="cls-2" cx="137.5" cy="225" r="12.5"/><circle class="cls-2" cx="25" cy="350" r="12.5"/><circle class="cls-2" cx="50" cy="187.5" r="12.5"/><circle class="cls-2" cx="312.5" cy="350" r="12.5"/><circle class="cls-2" cx="250" cy="287.5" r="12.5"/><circle class="cls-2" cx="237.5" cy="312.5" r="12.5"/><circle class="cls-2" cx="137.5" cy="362.5" r="12.5"/><circle class="cls-2" cx="62.5" cy="275" r="12.5"/></g><g id="Lines"><line class="cls-3" x1="75" y1="50" x2="89.85" y2="64.85"/><polygon class="cls-4" points="80.74 69.84 100 75 94.84 55.74 80.74 69.84"/><line class="cls-3" x1="62.5" y1="37.5" x2="47.65" y2="22.65"/><polygon class="cls-4" points="56.76 17.66 37.5 12.5 42.66 31.76 56.76 17.66"/><line class="cls-3" x1="212.5" y1="312.5" x2="189.35" y2="312.5"/><polygon class="cls-4" points="192.27 302.53 175 312.5 192.27 322.47 192.27 302.53"/><line class="cls-3" x1="250" y1="287.5" x2="259.5" y2="268.8"/><polygon class="cls-4" points="267.07 275.91 266 256 249.29 266.88 267.07 275.91"/><line class="cls-3" x1="237.5" y1="312.5" x2="258.65" y2="312.5"/><polygon class="cls-4" points="255.73 322.47 273 312.5 255.73 302.53 255.73 322.47"/><line class="cls-3" x1="237.5" y1="312.5" x2="228" y2="331.2"/><polygon class="cls-4" points="220.43 324.09 221.5 344 238.21 333.12 220.43 324.09"/></g></svg>