<?xml version="1.0" encoding="utf-8"?>
<!-- Generator: Adobe Illustrator 19.0.0, SVG Export Plug-In . SVG Version: 6.00 Build 0)  -->
<svg version="1.1" id="Layer_1" xmlns="http://www.w3.org/2000/svg" xmlns:xlink="http://www.w3.org/1999/xlink" x="0px" y="0px"
	 viewBox="720 864 612 792" style="enable-background:new 720 864 612 792;" xml:space="preserve">
<style type="text/css">
	.st0{fill:none;stroke:#000000;stroke-width:0.25;stroke-linecap:round;stroke-miterlimit:10;}
	.st1{fill:none;stroke:#000000;stroke-width:0.5;stroke-miterlimit:10;}
	.st2{font-family:'Helvetica';}
	.st3{font-size:12px;}
	.st4{fill:none;stroke:#BFBFBF;stroke-width:0.25;stroke-miterlimit:10;}
	.st5{fill:none;stroke:#000000;stroke-miterlimit:10;}
</style>
<polygon id="XMLID_27_" class="st0" points="39.8,774 41.4,771.3 42.9,774 "/>
<polygon id="XMLID_35_" class="st0" points="36,774 37.6,771.3 39.1,774 "/>
<polygon id="XMLID_36_" class="st0" points="37.9,770.7 39.5,768 41,770.7 "/>
<polyline id="XMLID_119_" class="st0" points="28.5,774 24,774 24,768 28.5,768 "/>
<polyline id="XMLID_34_" class="st0" points="30,774 30,768 34.5,768 "/>
<line id="XMLID_122_" class="st0" x1="34.5" y1="771" x2="30" y2="771"/>
<text transform="matrix(-1 0 0 -1 318.5361 506.668)" class="st2 st3">TOO EASY</text>
<text transform="matrix(1 0 0 1 256.4382 72.0001)" class="st2 st3">TOO HARD</text>
<g>
	<rect x="108" y="108" class="st1" width="360" height="360"/>
	<line class="st1" x1="180" y1="108" x2="180" y2="468"/>
	<line class="st1" x1="252" y1="108" x2="252" y2="468"/>
	<line class="st1" x1="324" y1="108" x2="324" y2="468"/>
	<line class="st1" x1="396" y1="108" x2="396" y2="468"/>
	<line class="st1" x1="108" y1="396" x2="468" y2="396"/>
	<line class="st1" x1="108" y1="324" x2="468" y2="324"/>
	<line class="st1" x1="108" y1="252" x2="468" y2="252"/>
	<line class="st1" x1="108" y1="180" x2="468" y2="180"/>
</g>
<text transform="matrix(4.489659e-11 1 -1 4.489659e-11 504 252.0002)" class="st2 st3">PRACTICAL</text>
<text transform="matrix(-1.346898e-10 -1 1 -1.346898e-10 72.0002 318.6709)" class="st2 st3">ESOTERIC</text>
<text transform="matrix(-1 0 0 -1 304.3389 1370.668)" class="st2 st3">LAME</text>
<text transform="matrix(1 0 0 1 275.6687 936.0001)" class="st2 st3">FUN</text>
<text transform="matrix(1 0 0 1 756.0001 936.0001)" class="st2 st3">Best Topic</text>
<g>
	<rect x="108" y="972" class="st1" width="360" height="360"/>
	<line class="st1" x1="180" y1="972" x2="180" y2="1332"/>
	<line class="st1" x1="252" y1="972" x2="252" y2="1332"/>
	<line class="st1" x1="324" y1="972" x2="324" y2="1332"/>
	<line class="st1" x1="396" y1="972" x2="396" y2="1332"/>
	<line class="st1" x1="108" y1="1260" x2="468" y2="1260"/>
	<line class="st1" x1="108" y1="1188" x2="468" y2="1188"/>
	<line class="st1" x1="108" y1="1116" x2="468" y2="1116"/>
	<line class="st1" x1="108" y1="1044" x2="468" y2="1044"/>
</g>
<text transform="matrix(4.489659e-11 1 -1 4.489659e-11 504 1131.9934)" class="st2 st3">CLEAR</text>
<text transform="matrix(-1.346898e-10 -1 1 -1.346898e-10 72.0002 1188)" class="st2 st3">CONFUSING</text>
<text transform="matrix(1 0 0 1 828.0001 122.3994)"><tspan x="0" y="0" style="font-family:'Helvetica-Bold'; font-size:9px;">WEEK 2</tspan><tspan x="0" y="14.4" class="st2 st3">Random</tspan><tspan x="0" y="28.8" class="st2 st3">Values</tspan></text>
<rect x="820.8" y="108" class="st4" width="64.8" height="64.8"/>
<text transform="matrix(1 0 0 1 892.7999 122.3996)"><tspan x="0" y="0" style="font-family:'Helvetica-Bold'; font-size:9px;">WEEK 3</tspan><tspan x="0" y="14.4" class="st2 st3">Params</tspan></text>
<rect x="885.6" y="108" class="st4" width="64.8" height="64.8"/>
<text transform="matrix(1 0 0 1 957.6002 122.3994)"><tspan x="0" y="0" style="font-family:'Helvetica-Bold'; font-size:9px;">WEEK 4</tspan><tspan x="0" y="14.4" class="st2 st3">Noise</tspan></text>
<rect x="950.4" y="108" class="st4" width="64.8" height="64.8"/>
<text transform="matrix(1 0 0 1 1022.4 122.3996)"><tspan x="0" y="0" style="font-family:'Helvetica-Bold'; font-size:9px;">WEEK 5</tspan><tspan x="0" y="14.4" class="st2 st3">Strategies</tspan></text>
<rect x="1015.2" y="108" class="st4" width="64.8" height="64.8"/>
<text transform="matrix(1 0 0 1 763.2 122.3998)"><tspan x="0" y="0" style="font-family:'Helvetica-Bold'; font-size:9px;">WEEK 1</tspan><tspan x="0" y="14.4" class="st2 st3">Tile</tspan><tspan x="0" y="28.8" class="st2 st3">Graphics</tspan></text>
<rect x="756" y="108" class="st4" width="64.8" height="64.8"/>
<text transform="matrix(1 0 0 1 1152.0001 122.3996)"><tspan x="0" y="0" style="font-family:'Helvetica-Bold'; font-size:9px;">WEEK 7</tspan><tspan x="0" y="14.4" class="st2 st3">Pixels</tspan></text>
<rect x="1144.8" y="108" class="st4" width="64.8" height="64.8"/>
<text transform="matrix(1 0 0 1 1216.7998 122.3996)"><tspan x="0" y="0" style="font-family:'Helvetica-Bold'; font-size:9px;">WEEK 8</tspan><tspan x="0" y="14.4" class="st2 st3">Turtles</tspan></text>
<rect x="1209.6" y="108" class="st4" width="64.8" height="64.8"/>
<text transform="matrix(1 0 0 1 763.1998 50.3997)"><tspan x="0" y="0" style="font-family:'Helvetica-Bold'; font-size:9px;">WEEK 9</tspan><tspan x="0" y="14.4" class="st2 st3">Video</tspan><tspan x="0" y="31.2" style="font-family:'Helvetica-Oblique'; font-size:7px;">Vuo</tspan></text>
<rect x="756" y="36" class="st4" width="64.8" height="64.8"/>
<text transform="matrix(1 0 0 1 828.0001 50.3995)"><tspan x="0" y="0" style="font-family:'Helvetica-Bold'; font-size:9px;">WEEK 10</tspan><tspan x="0" y="14.4" class="st2 st3">Vector</tspan><tspan x="0" y="31.2" style="font-family:'Helvetica-Oblique'; font-size:7px;">Paper</tspan></text>
<rect x="820.8" y="36" class="st4" width="64.8" height="64.8"/>
<text transform="matrix(1 0 0 1 1087.2 122.3998)"><tspan x="0" y="0" style="font-family:'Helvetica-Bold'; font-size:9px;">WEEK 6</tspan><tspan x="0" y="14.4" class="st2 st3">Animation</tspan></text>
<rect x="1080" y="108" class="st4" width="64.8" height="64.8"/>
<text transform="matrix(1 0 0 1 957.6002 50.3995)"><tspan x="0" y="0" style="font-family:'Helvetica-Bold'; font-size:9px;">WEEK 12</tspan><tspan x="0" y="14.4" class="st2 st3">Sound</tspan></text>
<rect x="950.4" y="36" class="st4" width="64.8" height="64.8"/>
<text transform="matrix(1 0 0 1 1022.3998 50.3995)"><tspan x="0" y="0" style="font-family:'Helvetica-Bold'; font-size:9px;">WEEK 13</tspan><tspan x="0" y="14.4" class="st2 st3">3D</tspan><tspan x="0" y="31.2" style="font-family:'Helvetica-Oblique'; font-size:7px;">OpenSCAD</tspan></text>
<rect x="1015.2" y="36" class="st4" width="64.8" height="64.8"/>
<text transform="matrix(1 0 0 1 1087.1997 50.3997)"><tspan x="0" y="0" style="font-family:'Helvetica-Bold'; font-size:9px;">WEEK 14</tspan><tspan x="0" y="14.4" class="st2 st3">Games</tspan><tspan x="0" y="31.2" style="font-family:'Helvetica-Oblique'; font-size:7px;">p5pla</tspan><tspan x="17.1" y="31.2" style="font-family:'Helvetica-Oblique'; font-size:7px;">y</tspan></text>
<rect x="1080" y="36" class="st4" width="64.8" height="64.8"/>
<text transform="matrix(1 0 0 1 1152 50.3995)"><tspan x="0" y="0" style="font-family:'Helvetica-Bold'; font-size:9px;">WEEK 5</tspan><tspan x="0" y="14.4" class="st2 st3">Post</tspan><tspan x="0" y="28.8" class="st2 st3">Mortem</tspan></text>
<rect x="1144.8" y="36" class="st4" width="64.8" height="64.8"/>
<text transform="matrix(1 0 0 1 892.7999 50.3997)"><tspan x="0" y="0" style="font-family:'Helvetica-Bold'; font-size:9px;">WEEK 11</tspan><tspan x="0" y="14.4" class="st2 st3">Text</tspan></text>
<rect x="885.6" y="36" class="st4" width="64.8" height="64.8"/>
<rect x="756" y="972" class="st1" width="72" height="72"/>
<line class="st5" x1="864" y1="1008" x2="1260" y2="1008"/>
<line class="st5" x1="864" y1="1044" x2="1260" y2="1044"/>
<text transform="matrix(1 0 0 1 756.0001 1116)" class="st2 st3">Worst Topic</text>
<rect x="756" y="1152" class="st1" width="72" height="72"/>
<line class="st5" x1="864" y1="1188" x2="1260" y2="1188"/>
<line class="st5" x1="864" y1="1224" x2="1260" y2="1224"/>
<text transform="matrix(1 0 0 1 756.0001 1296)" class="st2 st3">Best Sketches (Class)</text>
<rect x="756" y="1332" class="st1" width="72" height="72"/>
<line class="st5" x1="864" y1="1368" x2="1260" y2="1368"/>
<line class="st5" x1="864" y1="1404" x2="1260" y2="1404"/>
<text transform="matrix(1 0 0 1 756.0001 1476)" class="st2 st3">Best Sketches (Personal)</text>
<rect x="756" y="1512" class="st1" width="72" height="72"/>
<line class="st5" x1="864" y1="1548" x2="1260" y2="1548"/>
<line class="st5" x1="864" y1="1584" x2="1260" y2="1584"/>
</svg>
