<?xml version="1.0" encoding="utf-8"?>
<!-- Generator: Adobe Illustrator 19.0.0, SVG Export Plug-In . SVG Version: 6.00 Build 0)  -->
<svg version="1.1" id="Layer_1" xmlns="http://www.w3.org/2000/svg" xmlns:xlink="http://www.w3.org/1999/xlink" x="0px" y="0px"
	 viewBox="0 0 612 792" style="enable-background:new 0 0 612 792;" xml:space="preserve">
<style type="text/css">
	.st0{fill:none;stroke:#000000;stroke-width:0.25;stroke-linecap:round;stroke-miterlimit:10;}
	.st1{fill:none;}
	.st2{font-family:'Helvetica';}
	.st3{font-size:14px;}
</style>
<polygon id="XMLID_27_" class="st0" points="51.8,756 53.4,753.3 54.9,756 "/>
<polygon id="XMLID_35_" class="st0" points="48,756 49.6,753.3 51.1,756 "/>
<polygon id="XMLID_36_" class="st0" points="49.9,752.7 51.5,750 53,752.7 "/>
<polyline id="XMLID_119_" class="st0" points="40.5,756 36,756 36,750 40.5,750 "/>
<polyline id="XMLID_34_" class="st0" points="42,756 42,750 46.5,750 "/>
<line id="XMLID_122_" class="st0" x1="46.5" y1="753" x2="42" y2="753"/>
<rect x="36" y="36" class="st1" width="540" height="648"/>
<text transform="matrix(1 0 0 1 36 46.0659)"><tspan x="0" y="0" class="st2 st3">Dear CompForm Student,</tspan><tspan x="0" y="33.6" class="st2 st3">This semester, in connection with your participation in Computational Form, you have </tspan><tspan x="0" y="50.4" class="st2 st3">made many posts to our shared class blog.</tspan><tspan x="0" y="84" class="st2 st3">I would very much like to keep an archive this blog online. I would also like your per</tspan><tspan x="515.2" y="84" class="st2 st3">-</tspan><tspan x="0" y="100.8" class="st2 st3">mission to use the sketches, images, and videos you have created and posted to the </tspan><tspan x="0" y="117.6" class="st2 st3">blog (your Work) in the future. Specifically, I would like your permission to use your </tspan><tspan x="0" y="134.4" class="st2 st3">work as examples or illustrations in future classes, online and printed publications, and </tspan><tspan x="0" y="151.2" class="st2 st3">other communications related to creative coding. I would also like your permission to </tspan><tspan x="0" y="168" class="st2 st3">your Work to promote such projects.</tspan><tspan x="0" y="201.6" class="st2 st3">As part of this effort, I may display your Work in written materials, videos, on the inter</tspan><tspan x="525.2" y="201.6" class="st2 st3">-</tspan><tspan x="0" y="218.4" class="st2 st3">net and in other media. In order to do so, I may need to edit, revise, adapt or otherwise </tspan><tspan x="0" y="235.2" class="st2 st3">modify the Work. Please note that once your Work is on the internet, I cannot control </tspan><tspan x="0" y="252" class="st2 st3">other uses or distribution of your Work. As the creator, you agree that the Work is </tspan><tspan x="0" y="268.8" class="st2 st3">wholly original to you and no third party can make any claim to the Work. You will </tspan><tspan x="0" y="285.6" class="st2 st3">retain ownership of and all copyright rights in your Work. Accordingly, you are free to </tspan><tspan x="0" y="302.4" class="st2 st3">use it for any other purposes, both commercial and non-commercial. I will use my best </tspan><tspan x="0" y="319.2" class="st2 st3">efforts to provide acknowledgement to you accompanying any use of your Work. By </tspan><tspan x="0" y="336" class="st2 st3">signing below, you certify that you understand and accept the terms of this agreement, </tspan><tspan x="0" y="352.8" class="st2 st3">and consent to the use of your work.</tspan><tspan x="0" y="386.4" class="st2 st3">Thank you, Justin Bakse</tspan><tspan x="0" y="453.6" class="st2 st3">Full Name</tspan><tspan x="0" y="520.8" class="st2 st3">Preferred Name for Crediting Work</tspan><tspan x="0" y="588" class="st2 st3">Signature</tspan></text>
</svg>
