<svg xmlns="http://www.w3.org/2000/svg" viewBox="0 0 612 792"><defs><style>.cls-1{fill:#231f20;}.cls-2,.cls-3{fill:none;stroke:#020202;stroke-linecap:round;stroke-linejoin:round;}.cls-2{stroke-width:0.25px;}</style></defs><title>lcg_random</title><g id="Layer_1" data-name="Layer 1"><path class="cls-1" d="M56.27,764.76a2.91,2.91,0,0,1-1.05-1.07,2.94,2.94,0,0,1-.38-1.46v-2.81a2.92,2.92,0,0,1,1.43-2.53,2.7,2.7,0,0,1,1.44-.4,3.35,3.35,0,0,1,1.19.22,3,3,0,0,1,1,.65.17.17,0,0,1,.06.14.25.25,0,0,1-.06.16l-.33.36a.27.27,0,0,1-.16.06.23.23,0,0,1-.18-.09,2.08,2.08,0,0,0-1.48-.57,1.78,1.78,0,0,0-.95.27,2.06,2.06,0,0,0-.93,1.73v2.81a2.06,2.06,0,0,0,.93,1.73,1.78,1.78,0,0,0,.95.27,2.08,2.08,0,0,0,1.48-.57.23.23,0,0,1,.18-.09.27.27,0,0,1,.16.06l.33.36a.21.21,0,0,1,.06.16.2.2,0,0,1-.06.14,2.83,2.83,0,0,1-1,.64,3.15,3.15,0,0,1-1.19.23A2.79,2.79,0,0,1,56.27,764.76Z"/><path class="cls-1" d="M62.74,764.76a2.89,2.89,0,0,1-1.07-1.07,2.77,2.77,0,0,1-.4-1.46v-2.8a2.77,2.77,0,0,1,.4-1.46,2.92,2.92,0,0,1,4-1.07A3,3,0,0,1,66.76,758a2.85,2.85,0,0,1,.39,1.46v2.8a2.85,2.85,0,0,1-.39,1.46,3,3,0,0,1-1.08,1.07,2.9,2.9,0,0,1-2.94,0Zm2.45-.8a2,2,0,0,0,.71-.74,1.94,1.94,0,0,0,.27-1v-2.8a1.94,1.94,0,0,0-.27-1,2,2,0,0,0-.71-.74,1.91,1.91,0,0,0-2,0,2.1,2.1,0,0,0-.71.74,1.93,1.93,0,0,0-.26,1v2.8a1.93,1.93,0,0,0,.26,1,2.1,2.1,0,0,0,.71.74,1.91,1.91,0,0,0,2,0Z"/><path class="cls-1" d="M72.83,765.11a.2.2,0,0,1-.09-.11l-2.3-6.67-.79,6.47a.22.22,0,0,1-.24.2h-.57a.18.18,0,0,1-.15-.07.19.19,0,0,1,0-.15l1-8a.11.11,0,0,1,0-.09.12.12,0,0,1,.09,0h.84a.23.23,0,0,1,.14,0,.18.18,0,0,1,.09.12l2.36,6.85,2.39-6.9a.14.14,0,0,1,.14-.11h.83a.25.25,0,0,1,.16.05.22.22,0,0,1,.08.15l1,7.92v0a.17.17,0,0,1-.05.13.18.18,0,0,1-.14.06h-.57a.31.31,0,0,1-.17,0,.21.21,0,0,1-.07-.15l-.8-6.45L73.8,765a.2.2,0,0,1-.09.11.24.24,0,0,1-.14,0H73A.27.27,0,0,1,72.83,765.11Z"/><path class="cls-1" d="M79.81,765a.17.17,0,0,1,0-.12v-7.74a.42.42,0,0,1,.13-.3.4.4,0,0,1,.31-.13h2a2.61,2.61,0,0,1,1.32.35,2.56,2.56,0,0,1,0,4.46,2.61,2.61,0,0,1-1.32.35H80.75v3a.17.17,0,0,1-.17.17h-.65A.17.17,0,0,1,79.81,765Zm2.34-4.05a1.66,1.66,0,0,0,0-3.32h-1.4v3.32Z"/><path class="cls-1" d="M86.5,765a.13.13,0,0,1,0-.12v-7.74a.41.41,0,0,1,.12-.3.42.42,0,0,1,.31-.13h4a.17.17,0,0,1,.17.17v.59a.21.21,0,0,1,0,.12.16.16,0,0,1-.12,0h-3.4v2.81H90a.17.17,0,0,1,.12.05.13.13,0,0,1,0,.12v.56a.17.17,0,0,1-.17.17H87.43v3.54a.13.13,0,0,1-.05.12.17.17,0,0,1-.12,0h-.64A.17.17,0,0,1,86.5,765Z"/><path class="cls-1" d="M93.55,764.76a2.92,2.92,0,0,1-1.08-1.07,2.85,2.85,0,0,1-.39-1.46v-2.8a2.85,2.85,0,0,1,.39-1.46A3,3,0,0,1,95,756.5a3,3,0,0,1,1.47.4A2.89,2.89,0,0,1,97.56,758a2.86,2.86,0,0,1,.4,1.46v2.8a2.86,2.86,0,0,1-.4,1.46,2.89,2.89,0,0,1-1.07,1.07,3,3,0,0,1-1.47.4A2.9,2.9,0,0,1,93.55,764.76ZM96,764a2.13,2.13,0,0,0,.72-.74,2,2,0,0,0,.26-1v-2.8a2,2,0,0,0-.26-1,2.13,2.13,0,0,0-.72-.74,1.9,1.9,0,0,0-1.95,0,2.13,2.13,0,0,0-.72.74,2,2,0,0,0-.26,1v2.8a2,2,0,0,0,.26,1A2.13,2.13,0,0,0,94,764,1.9,1.9,0,0,0,96,764Z"/><path class="cls-1" d="M100,765a.16.16,0,0,1,0-.12v-7.74a.41.41,0,0,1,.12-.3.42.42,0,0,1,.31-.13h2.09a2.51,2.51,0,0,1,1.23.32,2.43,2.43,0,0,1,1.2,2.1,2.31,2.31,0,0,1-.55,1.54,2.37,2.37,0,0,1-1.39.83l2,3.21a.28.28,0,0,1,0,.12.22.22,0,0,1-.07.16.23.23,0,0,1-.16.06h-.61a.2.2,0,0,1-.18-.11l-2.1-3.39h-.94v3.33a.17.17,0,0,1-.17.17h-.65A.21.21,0,0,1,100,765Zm2.4-4.38a1.48,1.48,0,0,0,1.08-.42,1.42,1.42,0,0,0,.42-1,1.45,1.45,0,0,0-1.5-1.52h-1.46v3Z"/><path class="cls-1" d="M110.56,765.11a.2.2,0,0,1-.09-.11l-2.3-6.67-.79,6.47a.28.28,0,0,1-.08.15.3.3,0,0,1-.16,0h-.57a.18.18,0,0,1-.15-.07.19.19,0,0,1,0-.15l1-8a.15.15,0,0,1,.06-.09.11.11,0,0,1,.09,0h.84a.25.25,0,0,1,.14,0,.18.18,0,0,1,.09.12l2.36,6.85,2.39-6.9a.14.14,0,0,1,.14-.11h.83a.22.22,0,0,1,.24.2l1,7.92v0a.21.21,0,0,1,0,.13.18.18,0,0,1-.14.06h-.58a.3.3,0,0,1-.16,0,.28.28,0,0,1-.08-.15l-.79-6.45-2.3,6.65a.2.2,0,0,1-.09.11.27.27,0,0,1-.14,0h-.6A.24.24,0,0,1,110.56,765.11Z"/><polygon class="cls-1" points="38.6 760.5 36 765 41.2 765 38.6 760.5"/><polygon class="cls-1" points="43.79 760.5 41.2 765 46.39 765 43.79 760.5"/><polygon class="cls-1" points="41.2 756 38.6 760.5 43.79 760.5 41.2 756"/></g><g id="Layer_2" data-name="Layer 2"><path class="cls-1" d="M38.41,53.75a.82.82,0,0,1-.25-.61V37.66a.34.34,0,0,1,.34-.34h1.29a.34.34,0,0,1,.34.34V52.15H46.2a.3.3,0,0,1,.24.1.33.33,0,0,1,.1.24v1.17a.33.33,0,0,1-.1.24.3.3,0,0,1-.24.1H39A.82.82,0,0,1,38.41,53.75Z"/><path class="cls-1" d="M50.7,53.75a.82.82,0,0,1-.25-.61v-11H48a.31.31,0,0,1-.33-.33V40.75a.31.31,0,0,1,.33-.33h3.51a.85.85,0,0,1,.86.86V52.22h2.47a.33.33,0,0,1,.24.1.3.3,0,0,1,.1.24v1.1a.34.34,0,0,1-.34.34H51.31A.82.82,0,0,1,50.7,53.75Zm-.13-15.3a.33.33,0,0,1-.1-.24V36.12a.3.3,0,0,1,.1-.24.33.33,0,0,1,.24-.1H52a.34.34,0,0,1,.34.34v2.09a.37.37,0,0,1-.1.24.32.32,0,0,1-.24.09H50.81A.32.32,0,0,1,50.57,38.45Z"/><path class="cls-1" d="M58.22,53.88a.32.32,0,0,1-.09-.24V40.75a.31.31,0,0,1,.33-.33h1.2a.32.32,0,0,1,.34.33v1.32a4.21,4.21,0,0,1,1.62-1.49,5,5,0,0,1,2.24-.5,4.5,4.5,0,0,1,3.3,1.25,4.42,4.42,0,0,1,1.26,3.29v9a.32.32,0,0,1-.09.24.37.37,0,0,1-.24.1h-1.2a.33.33,0,0,1-.24-.1.3.3,0,0,1-.1-.24V45a3.17,3.17,0,0,0-.8-2.34,2.93,2.93,0,0,0-2.17-.81A3.37,3.37,0,0,0,61,42.89a4.1,4.1,0,0,0-1,2.9v7.85a.3.3,0,0,1-.1.24.33.33,0,0,1-.24.1h-1.2A.37.37,0,0,1,58.22,53.88Z"/><path class="cls-1" d="M74.5,53.3a5.1,5.1,0,0,1-1.9-1.9,5.26,5.26,0,0,1-.7-2.63V45.34a5.23,5.23,0,0,1,.7-2.63,5.05,5.05,0,0,1,1.9-1.91,5.23,5.23,0,0,1,5.23,0,5,5,0,0,1,1.89,1.91,5.13,5.13,0,0,1,.7,2.63V47a.85.85,0,0,1-.86.86H73.78v1.06a3.24,3.24,0,0,0,.44,1.68,3.34,3.34,0,0,0,1.21,1.21,3.24,3.24,0,0,0,1.68.44h3.48a.33.33,0,0,1,.24.1.3.3,0,0,1,.1.24v1.1a.34.34,0,0,1-.34.34H77.11A5.06,5.06,0,0,1,74.5,53.3Zm6-7.2v-.88a3.37,3.37,0,0,0-1.66-2.9,3.43,3.43,0,0,0-3.36,0,3.29,3.29,0,0,0-1.21,1.22,3.24,3.24,0,0,0-.44,1.68v.88Z"/><path class="cls-1" d="M85.85,53.27a3.77,3.77,0,0,1-.11-5.37,5.2,5.2,0,0,1,3-1.29l3.12-.43a1.58,1.58,0,0,0,1-.47,1.68,1.68,0,0,0,.31-1.07v-.19a2.25,2.25,0,0,0-.9-1.86A3.54,3.54,0,0,0,90,41.88a3.8,3.8,0,0,0-1.83.42A3.29,3.29,0,0,0,87,43.46a.57.57,0,0,1-.48.32.55.55,0,0,1-.31-.12l-.65-.44a.53.53,0,0,1-.21-.4.49.49,0,0,1,.07-.24,4.92,4.92,0,0,1,1.91-1.82,5.72,5.72,0,0,1,2.79-.66,5.88,5.88,0,0,1,2.57.54,4.06,4.06,0,0,1,1.74,1.53A4.18,4.18,0,0,1,95,44.45v9.21a.32.32,0,0,1-.33.34h-1a.34.34,0,0,1-.34-.34V52A5.19,5.19,0,0,1,91.4,53.7a5.31,5.31,0,0,1-2.53.61A4.4,4.4,0,0,1,85.85,53.27ZM91.2,52a4.59,4.59,0,0,0,1.5-1.57,3.79,3.79,0,0,0,.54-1.86v-1l-3.7.51-.67.09c-1.6.24-2.4,1-2.4,2.26A2,2,0,0,0,87.19,52a2.84,2.84,0,0,0,1.87.6A3.88,3.88,0,0,0,91.2,52Z"/><path class="cls-1" d="M98.09,53.9a.3.3,0,0,1-.1-.24v-1.1a.3.3,0,0,1,.1-.24.33.33,0,0,1,.24-.1h2V42.12h-2a.34.34,0,0,1-.34-.34v-1a.32.32,0,0,1,.34-.33h3a.85.85,0,0,1,.86.86v1.2l1.39-1.08a6.79,6.79,0,0,1,1.41-.9,2.94,2.94,0,0,1,1.14-.23h.72a.3.3,0,0,1,.25.1.32.32,0,0,1,.08.24v1.17a.32.32,0,0,1-.33.34h-.53a2.56,2.56,0,0,0-1.13.25,9.67,9.67,0,0,0-1.58,1.09l-1.42,1.13v7.63H105a.37.37,0,0,1,.24.1.32.32,0,0,1,.09.24v1.1A.32.32,0,0,1,105,54H98.33A.3.3,0,0,1,98.09,53.9Z"/><path class="cls-1" d="M118.92,53.52a5.89,5.89,0,0,1-2.86-5.06V42.84a5.83,5.83,0,0,1,.77-2.93,5.77,5.77,0,0,1,2.09-2.13,5.48,5.48,0,0,1,2.88-.8,6.26,6.26,0,0,1,2.38.45,5.7,5.7,0,0,1,1.94,1.28.36.36,0,0,1,.12.29.47.47,0,0,1-.12.31c-.34.39-.55.63-.65.72a.56.56,0,0,1-.33.12.47.47,0,0,1-.36-.17,4.15,4.15,0,0,0-3-1.15,3.5,3.5,0,0,0-1.89.55,4,4,0,0,0-1.37,1.48,4,4,0,0,0-.5,2v5.62a4.07,4.07,0,0,0,1.87,3.45,3.42,3.42,0,0,0,1.89.55,4.11,4.11,0,0,0,3-1.15.51.51,0,0,1,.36-.17.56.56,0,0,1,.33.12c.1.1.31.34.65.72a.44.44,0,0,1,.12.32.38.38,0,0,1-.12.28,5.88,5.88,0,0,1-1.94,1.29,6.45,6.45,0,0,1-2.38.44A5.48,5.48,0,0,1,118.92,53.52Z"/><path class="cls-1" d="M131.52,53.62a5.2,5.2,0,0,1-2.59-4.54V45.34a5.22,5.22,0,0,1,.69-2.63,5.21,5.21,0,0,1,9,0,5.22,5.22,0,0,1,.69,2.63v3.74a5.2,5.2,0,0,1-2.59,4.54,5.3,5.3,0,0,1-5.23,0Zm4.3-1.53A3.27,3.27,0,0,0,137,50.88a3.34,3.34,0,0,0,.44-1.68v-4a3.34,3.34,0,0,0-.44-1.68,3.29,3.29,0,0,0-1.21-1.22,3.4,3.4,0,0,0-1.68-.44,3.34,3.34,0,0,0-1.68.44,3.25,3.25,0,0,0-1.22,1.22,3.34,3.34,0,0,0-.44,1.68v4a3.34,3.34,0,0,0,.44,1.68,3.37,3.37,0,0,0,2.9,1.66A3.31,3.31,0,0,0,135.82,52.09Z"/><path class="cls-1" d="M143.16,53.88a.33.33,0,0,1-.1-.24V40.75a.37.37,0,0,1,.1-.24.32.32,0,0,1,.24-.09h1.2a.32.32,0,0,1,.24.09.37.37,0,0,1,.1.24v1.32a4.07,4.07,0,0,1,1.62-1.49,5,5,0,0,1,2.24-.5,4.5,4.5,0,0,1,3.3,1.25,4.42,4.42,0,0,1,1.26,3.29v9a.3.3,0,0,1-.1.24.33.33,0,0,1-.24.1h-1.2a.37.37,0,0,1-.24-.1.32.32,0,0,1-.09-.24V45a3.14,3.14,0,0,0-.81-2.34,2.91,2.91,0,0,0-2.17-.81,3.36,3.36,0,0,0-2.59,1.06,4.06,4.06,0,0,0-1,2.9v7.85a.34.34,0,0,1-.34.34h-1.2A.33.33,0,0,1,143.16,53.88Z"/><path class="cls-1" d="M158.15,58.1a2.7,2.7,0,0,1-1.43-2.49,3.66,3.66,0,0,1,1.42-2.88,3,3,0,0,1-.88-.83,1.85,1.85,0,0,1-.28-1,2.64,2.64,0,0,1,.42-1.42,3.59,3.59,0,0,1,1.14-1.12,4.43,4.43,0,0,1-1.27-1.55,4.64,4.64,0,0,1-.46-2,4.5,4.5,0,0,1,.67-2.43,4.44,4.44,0,0,1,1.78-1.63,5.51,5.51,0,0,1,2.5-.58,5.83,5.83,0,0,1,1.87.32h4.75a.32.32,0,0,1,.34.33v1.11a.32.32,0,0,1-.34.33H166a4.35,4.35,0,0,1,.74,2.55,4.43,4.43,0,0,1-2.44,4,5.38,5.38,0,0,1-2.5.58,6.55,6.55,0,0,1-1.9-.31,2,2,0,0,0-.81.62,1.31,1.31,0,0,0-.29.82.86.86,0,0,0,.48.81,3,3,0,0,0,1.13.31c.49.07,1.27.15,2.33.24l.93.08a10.85,10.85,0,0,1,2,.31,2.92,2.92,0,0,1,1.42.84,2.55,2.55,0,0,1,.59,1.82,3.36,3.36,0,0,1-1.61,3,7.57,7.57,0,0,1-4.16,1A7.21,7.21,0,0,1,158.15,58.1Zm6.66-1.34a1.74,1.74,0,0,0,1.05-1.66,1.14,1.14,0,0,0-.3-.86,1.72,1.72,0,0,0-.81-.4,14.69,14.69,0,0,0-1.53-.2l-1-.08c-.53,0-1.12-.1-1.76-.18-.38-.05-.71-.1-1-.15a2.71,2.71,0,0,0-.76.89,2.33,2.33,0,0,0-.27,1.08,1.66,1.66,0,0,0,1,1.6,6.12,6.12,0,0,0,2.6.49A6.19,6.19,0,0,0,164.81,56.76ZM164,46.88a3.13,3.13,0,0,0,0-4.29,3.52,3.52,0,0,0-4.54,0,3.13,3.13,0,0,0,0,4.29,3.52,3.52,0,0,0,4.54,0Z"/><path class="cls-1" d="M170.73,53.9a.32.32,0,0,1-.09-.24v-1.1a.32.32,0,0,1,.09-.24.37.37,0,0,1,.25-.1h2V42.12h-2a.33.33,0,0,1-.25-.1.32.32,0,0,1-.09-.24v-1a.36.36,0,0,1,.09-.24.37.37,0,0,1,.25-.09h3a.84.84,0,0,1,.61.25.86.86,0,0,1,.25.61v1.2l1.39-1.08a6.78,6.78,0,0,1,1.4-.9,3,3,0,0,1,1.14-.23h.73a.3.3,0,0,1,.25.1.36.36,0,0,1,.08.24v1.17a.3.3,0,0,1-.1.24.29.29,0,0,1-.23.1H179a2.56,2.56,0,0,0-1.13.25,10.09,10.09,0,0,0-1.59,1.09l-1.41,1.13v7.63h2.78a.33.33,0,0,1,.24.1.3.3,0,0,1,.1.24v1.1a.34.34,0,0,1-.34.34H171A.33.33,0,0,1,170.73,53.9Z"/><path class="cls-1" d="M183.85,53.06a4.4,4.4,0,0,1-1.26-3.28v-9a.32.32,0,0,1,.34-.33h1.2a.31.31,0,0,1,.33.33v8.67a3.11,3.11,0,0,0,.82,2.32,2.89,2.89,0,0,0,2.16.82A3.36,3.36,0,0,0,190,51.5a4.06,4.06,0,0,0,1-2.9V40.75a.37.37,0,0,1,.1-.24.32.32,0,0,1,.24-.09h1.2a.32.32,0,0,1,.24.09.37.37,0,0,1,.1.24V53.66a.33.33,0,0,1-.1.24.3.3,0,0,1-.24.1h-1.2a.3.3,0,0,1-.24-.1.33.33,0,0,1-.1-.24V52.32a4,4,0,0,1-1.62,1.49,5,5,0,0,1-2.24.5A4.46,4.46,0,0,1,183.85,53.06Z"/><path class="cls-1" d="M199.2,53.3a5.17,5.17,0,0,1-1.9-1.9,5.25,5.25,0,0,1-.69-2.63V45.34a5.22,5.22,0,0,1,.69-2.63,5.21,5.21,0,0,1,9,0,5.22,5.22,0,0,1,.69,2.63V47a.85.85,0,0,1-.86.86h-7.68v1.06a3.3,3.3,0,0,0,1.65,2.89,3.3,3.3,0,0,0,1.68.44h3.48a.33.33,0,0,1,.24.1.3.3,0,0,1,.1.24v1.1a.34.34,0,0,1-.34.34h-3.48A5.06,5.06,0,0,1,199.2,53.3Zm6-7.2v-.88a3.34,3.34,0,0,0-.44-1.68,3.25,3.25,0,0,0-1.22-1.22,3.34,3.34,0,0,0-1.68-.44,3.4,3.4,0,0,0-1.68.44,3.29,3.29,0,0,0-1.21,1.22,3.34,3.34,0,0,0-.44,1.68v.88Z"/><path class="cls-1" d="M210.67,53.88a.33.33,0,0,1-.1-.24V40.75a.37.37,0,0,1,.1-.24.32.32,0,0,1,.24-.09h1.2a.32.32,0,0,1,.24.09.37.37,0,0,1,.1.24v1.32a4.07,4.07,0,0,1,1.62-1.49,5,5,0,0,1,2.24-.5,4.5,4.5,0,0,1,3.3,1.25,4.42,4.42,0,0,1,1.26,3.29v9a.3.3,0,0,1-.1.24.33.33,0,0,1-.24.1h-1.2a.37.37,0,0,1-.24-.1.32.32,0,0,1-.09-.24V45a3.14,3.14,0,0,0-.81-2.34,2.91,2.91,0,0,0-2.17-.81,3.36,3.36,0,0,0-2.59,1.06,4.06,4.06,0,0,0-1,2.9v7.85a.34.34,0,0,1-.34.34h-1.2A.33.33,0,0,1,210.67,53.88Z"/><path class="cls-1" d="M226.41,53a3.73,3.73,0,0,1-1-2.63V42.17h-1.58a.34.34,0,0,1-.34-.34V40.75a.32.32,0,0,1,.34-.33h1.58V37.9a.34.34,0,0,1,.34-.34H227a.32.32,0,0,1,.33.34v2.52h4.23a.31.31,0,0,1,.33.33v1.11a.31.31,0,0,1-.33.33H227.3v7.92a2,2,0,0,0,.57,1.5,2.05,2.05,0,0,0,1.47.59l2.19,0a.37.37,0,0,1,.24.1.32.32,0,0,1,.09.24v1.1a.32.32,0,0,1-.33.34h-2.4A3.58,3.58,0,0,1,226.41,53Z"/><path class="cls-1" d="M237.35,53.75a.83.83,0,0,1-.26-.61v-11H234.6a.32.32,0,0,1-.34-.33V40.75a.32.32,0,0,1,.34-.33h3.5a.81.81,0,0,1,.61.25.83.83,0,0,1,.26.61V52.22h2.47a.37.37,0,0,1,.24.1.32.32,0,0,1,.09.24v1.1a.32.32,0,0,1-.33.34H238A.81.81,0,0,1,237.35,53.75Zm-.14-15.3a.36.36,0,0,1-.09-.24V36.12a.32.32,0,0,1,.09-.24.37.37,0,0,1,.24-.1h1.16a.37.37,0,0,1,.24.1.32.32,0,0,1,.09.24v2.09a.31.31,0,0,1-.33.33h-1.16A.36.36,0,0,1,237.21,38.45Z"/><path class="cls-1" d="M245.11,53.27A3.77,3.77,0,0,1,245,47.9a5.2,5.2,0,0,1,3-1.29l3.12-.43a1.58,1.58,0,0,0,1-.47,1.63,1.63,0,0,0,.31-1.07v-.19a2.25,2.25,0,0,0-.9-1.86,3.53,3.53,0,0,0-2.24-.71,3.82,3.82,0,0,0-1.84.42,3.29,3.29,0,0,0-1.24,1.16.55.55,0,0,1-.48.32.55.55,0,0,1-.31-.12l-.65-.44a.53.53,0,0,1-.21-.4.49.49,0,0,1,.07-.24,4.92,4.92,0,0,1,1.91-1.82,5.75,5.75,0,0,1,2.79-.66,5.88,5.88,0,0,1,2.57.54,4.06,4.06,0,0,1,1.74,1.53,4.18,4.18,0,0,1,.61,2.28v9.21a.32.32,0,0,1-.33.34h-1a.3.3,0,0,1-.24-.1.33.33,0,0,1-.1-.24V52a5.24,5.24,0,0,1-1.9,1.69,5.35,5.35,0,0,1-2.54.61A4.4,4.4,0,0,1,245.11,53.27ZM250.46,52a4.59,4.59,0,0,0,1.5-1.57,3.79,3.79,0,0,0,.54-1.86v-1l-3.69.51-.68.09c-1.6.24-2.4,1-2.4,2.26a2,2,0,0,0,.72,1.58,2.85,2.85,0,0,0,1.88.6A3.87,3.87,0,0,0,250.46,52Z"/><path class="cls-1" d="M259.35,53.75a.86.86,0,0,1-.25-.61V37.56h-2.23a.3.3,0,0,1-.24-.1.33.33,0,0,1-.1-.24v-1.1a.34.34,0,0,1,.34-.34h3.24a.83.83,0,0,1,.61.26.81.81,0,0,1,.25.61V52.22h2.55a.37.37,0,0,1,.24.1.32.32,0,0,1,.09.24v1.1a.32.32,0,0,1-.33.34H260A.84.84,0,0,1,259.35,53.75Z"/><path class="cls-1" d="M275.66,53.5a5.91,5.91,0,0,1-2.13-2.14,5.66,5.66,0,0,1-.8-2.93V42.84a5.66,5.66,0,0,1,.8-2.93,5.88,5.88,0,0,1,2.13-2.13,5.66,5.66,0,0,1,2.93-.8,6.74,6.74,0,0,1,2.47.46,5.73,5.73,0,0,1,2,1.3.34.34,0,0,1,.12.28.49.49,0,0,1-.12.32c-.11.12-.33.36-.67.69a.56.56,0,0,1-.33.12.47.47,0,0,1-.36-.17,4.35,4.35,0,0,0-3.08-1.15,3.73,3.73,0,0,0-1.95.55,4.06,4.06,0,0,0-1.43,1.48,4,4,0,0,0-.53,2v5.59a3.92,3.92,0,0,0,.53,2,4.06,4.06,0,0,0,1.43,1.48,3.64,3.64,0,0,0,1.95.55,3.76,3.76,0,0,0,1.95-.53A4,4,0,0,0,282,50.48a3.71,3.71,0,0,0,.53-1.95v-1.9h-3.38a.32.32,0,0,1-.34-.33V45.19a.32.32,0,0,1,.34-.33h4.44a.85.85,0,0,1,.86.86v2.71a5.74,5.74,0,0,1-.78,2.93,5.88,5.88,0,0,1-2.12,2.14,5.83,5.83,0,0,1-5.86,0Z"/><path class="cls-1" d="M290.25,53.3a5.07,5.07,0,0,1-1.89-1.9,5.15,5.15,0,0,1-.7-2.63V45.34a5.13,5.13,0,0,1,.7-2.63,5,5,0,0,1,1.89-1.91,5.23,5.23,0,0,1,5.23,0,5.05,5.05,0,0,1,1.9,1.91,5.23,5.23,0,0,1,.7,2.63V47a.83.83,0,0,1-.26.61.81.81,0,0,1-.61.25h-7.68v1.06a3.31,3.31,0,0,0,3.34,3.33h3.48a.37.37,0,0,1,.24.1.32.32,0,0,1,.09.24v1.1a.32.32,0,0,1-.33.34h-3.48A5.07,5.07,0,0,1,290.25,53.3Zm5.95-7.2v-.88a3.24,3.24,0,0,0-.44-1.68,3.29,3.29,0,0,0-1.21-1.22,3.43,3.43,0,0,0-3.36,0,3.37,3.37,0,0,0-1.66,2.9v.88Z"/><path class="cls-1" d="M301.72,53.88a.32.32,0,0,1-.09-.24V40.75a.31.31,0,0,1,.33-.33h1.21a.32.32,0,0,1,.23.09.33.33,0,0,1,.1.24v1.32a4.21,4.21,0,0,1,1.62-1.49,5,5,0,0,1,2.25-.5,4.51,4.51,0,0,1,3.3,1.25,4.46,4.46,0,0,1,1.25,3.29v9a.32.32,0,0,1-.09.24.37.37,0,0,1-.24.1h-1.2a.33.33,0,0,1-.24-.1.3.3,0,0,1-.1-.24V45a3.17,3.17,0,0,0-.8-2.34,2.93,2.93,0,0,0-2.17-.81,3.37,3.37,0,0,0-2.6,1.06,4.1,4.1,0,0,0-1,2.9v7.85a.3.3,0,0,1-.1.24.33.33,0,0,1-.23.1H302A.37.37,0,0,1,301.72,53.88Z"/><path class="cls-1" d="M318,53.3a5.1,5.1,0,0,1-1.9-1.9,5.26,5.26,0,0,1-.7-2.63V45.34a5.23,5.23,0,0,1,.7-2.63A5.05,5.05,0,0,1,318,40.8a5.23,5.23,0,0,1,5.23,0,5,5,0,0,1,1.89,1.91,5.13,5.13,0,0,1,.7,2.63V47a.85.85,0,0,1-.86.86h-7.68v1.06a3.24,3.24,0,0,0,.44,1.68,3.34,3.34,0,0,0,1.21,1.21,3.24,3.24,0,0,0,1.68.44h3.48a.33.33,0,0,1,.24.1.3.3,0,0,1,.1.24v1.1a.34.34,0,0,1-.34.34h-3.48A5.06,5.06,0,0,1,318,53.3ZM324,46.1v-.88a3.37,3.37,0,0,0-1.66-2.9,3.43,3.43,0,0,0-3.36,0,3.29,3.29,0,0,0-1.21,1.22,3.24,3.24,0,0,0-.44,1.68v.88Z"/><path class="cls-1" d="M328.39,53.9a.3.3,0,0,1-.1-.24v-1.1a.3.3,0,0,1,.1-.24.33.33,0,0,1,.24-.1h2V42.12h-2a.34.34,0,0,1-.34-.34v-1a.32.32,0,0,1,.34-.33h3a.85.85,0,0,1,.86.86v1.2l1.39-1.08a6.79,6.79,0,0,1,1.41-.9,2.94,2.94,0,0,1,1.14-.23h.72a.3.3,0,0,1,.25.1.32.32,0,0,1,.08.24v1.17a.32.32,0,0,1-.33.34h-.53a2.56,2.56,0,0,0-1.13.25,9.67,9.67,0,0,0-1.58,1.09l-1.42,1.13v7.63h2.79a.37.37,0,0,1,.24.1.32.32,0,0,1,.09.24v1.1a.32.32,0,0,1-.33.34h-6.65A.3.3,0,0,1,328.39,53.9Z"/><path class="cls-1" d="M340.46,53.27a3.77,3.77,0,0,1-.11-5.37,5.2,5.2,0,0,1,3-1.29l3.12-.43a1.58,1.58,0,0,0,1-.47,1.63,1.63,0,0,0,.31-1.07v-.19a2.25,2.25,0,0,0-.9-1.86,3.53,3.53,0,0,0-2.24-.71,3.82,3.82,0,0,0-1.84.42,3.29,3.29,0,0,0-1.24,1.16.55.55,0,0,1-.48.32.55.55,0,0,1-.31-.12l-.65-.44a.53.53,0,0,1-.21-.4.49.49,0,0,1,.07-.24,4.92,4.92,0,0,1,1.91-1.82,5.75,5.75,0,0,1,2.79-.66,5.88,5.88,0,0,1,2.57.54A4.06,4.06,0,0,1,349,42.17a4.18,4.18,0,0,1,.61,2.28v9.21a.32.32,0,0,1-.33.34h-1a.3.3,0,0,1-.24-.1.33.33,0,0,1-.1-.24V52A5.24,5.24,0,0,1,346,53.7a5.35,5.35,0,0,1-2.54.61A4.4,4.4,0,0,1,340.46,53.27ZM345.81,52a4.59,4.59,0,0,0,1.5-1.57,3.79,3.79,0,0,0,.54-1.86v-1l-3.69.51-.68.09c-1.6.24-2.4,1-2.4,2.26A2,2,0,0,0,341.8,52a2.85,2.85,0,0,0,1.88.6A3.87,3.87,0,0,0,345.81,52Z"/><path class="cls-1" d="M355.27,53a3.69,3.69,0,0,1-1-2.63V42.17H352.7a.3.3,0,0,1-.24-.1.33.33,0,0,1-.1-.24V40.75a.37.37,0,0,1,.1-.24.32.32,0,0,1,.24-.09h1.58V37.9a.33.33,0,0,1,.1-.24.3.3,0,0,1,.24-.1h1.2a.3.3,0,0,1,.24.1.33.33,0,0,1,.1.24v2.52h4.22a.32.32,0,0,1,.24.09.37.37,0,0,1,.1.24v1.11a.37.37,0,0,1-.1.24.32.32,0,0,1-.24.09h-4.22v7.92a2,2,0,0,0,.56,1.5,2.09,2.09,0,0,0,1.48.59l2.18,0a.34.34,0,0,1,.34.34v1.1a.33.33,0,0,1-.1.24.3.3,0,0,1-.24.1H358A3.56,3.56,0,0,1,355.27,53Z"/><path class="cls-1" d="M365.83,53.62a5.2,5.2,0,0,1-2.59-4.54V45.34a5.22,5.22,0,0,1,.69-2.63,5.21,5.21,0,0,1,9,0,5.22,5.22,0,0,1,.69,2.63v3.74a5.2,5.2,0,0,1-2.59,4.54,5.3,5.3,0,0,1-5.23,0Zm4.29-1.53a3.22,3.22,0,0,0,1.22-1.21,3.34,3.34,0,0,0,.44-1.68v-4a3.34,3.34,0,0,0-.44-1.68,3.25,3.25,0,0,0-1.22-1.22,3.34,3.34,0,0,0-1.68-.44,3.4,3.4,0,0,0-1.68.44,3.29,3.29,0,0,0-1.21,1.22,3.34,3.34,0,0,0-.44,1.68v4a3.34,3.34,0,0,0,.44,1.68,3.27,3.27,0,0,0,1.21,1.21,3.31,3.31,0,0,0,1.68.45A3.25,3.25,0,0,0,370.12,52.09Z"/><path class="cls-1" d="M376.15,53.9a.3.3,0,0,1-.1-.24v-1.1a.3.3,0,0,1,.1-.24.33.33,0,0,1,.24-.1h2V42.12h-2a.34.34,0,0,1-.34-.34v-1a.32.32,0,0,1,.34-.33h3a.85.85,0,0,1,.86.86v1.2l1.39-1.08a6.79,6.79,0,0,1,1.41-.9,2.94,2.94,0,0,1,1.14-.23h.72a.3.3,0,0,1,.25.1.32.32,0,0,1,.08.24v1.17a.32.32,0,0,1-.33.34h-.53a2.56,2.56,0,0,0-1.13.25,9.67,9.67,0,0,0-1.58,1.09l-1.42,1.13v7.63H383a.37.37,0,0,1,.24.1.32.32,0,0,1,.09.24v1.1A.32.32,0,0,1,383,54h-6.65A.3.3,0,0,1,376.15,53.9Z"/><rect class="cls-2" x="36" y="72" width="18" height="18"/><polyline class="cls-2" points="45 99 45 117 51 111"/><line class="cls-2" x1="39" y1="111" x2="45" y2="117"/><g id="char-x_1" data-name="char-x 1"><path class="cls-3" d="M65.1,132l12,12"/><path class="cls-3" d="M77.1,132l-12,12"/></g><polyline class="cls-2" points="112.25 138 124.25 138 118.25 132"/><line class="cls-2" x1="118.25" y1="144" x2="124.25" y2="138"/><polyline class="cls-2" points="208.95 138 220.95 138 214.95 132"/><line class="cls-2" x1="214.95" y1="144" x2="220.95" y2="138"/><polyline class="cls-2" points="318.9 138 330.9 138 324.9 132"/><line class="cls-2" x1="324.9" y1="144" x2="330.9" y2="138"/><line class="cls-3" x1="170.44" y1="132" x2="170.44" y2="144"/><line class="cls-3" x1="164.44" y1="138" x2="176.44" y2="138"/><line class="cls-3" x1="261.14" y1="144" x2="273.14" y2="132"/><circle class="cls-3" cx="264.14" cy="135" r="3"/><circle class="cls-3" cx="270.14" cy="141" r="3"/><polyline class="cls-2" points="427.39 138 439.39 138 433.39 132"/><line class="cls-2" x1="433.39" y1="144" x2="439.39" y2="138"/><line class="cls-3" x1="370.61" y1="144" x2="382.61" y2="132"/><rect class="cls-2" x="36" y="126" width="18" height="18"/><rect class="cls-2" x="135.34" y="126" width="18" height="18"/><rect class="cls-2" x="232.05" y="126" width="18" height="18"/><rect class="cls-2" x="342" y="126" width="18" height="18"/><rect class="cls-2" x="450" y="126" width="18" height="18"/><polyline class="cls-2" points="351 153 351 162 45 162 45 171 51 165"/><line class="cls-2" x1="39" y1="165" x2="45" y2="171"/><path class="cls-1" d="M91.25,143.62A6.33,6.33,0,0,1,89,141.46a.32.32,0,0,1,0-.2.31.31,0,0,1,.17-.28l.82-.6a.47.47,0,0,1,.26-.08.41.41,0,0,1,.38.2,5.18,5.18,0,0,0,1.7,1.56,4.2,4.2,0,0,0,2.07.57,3.81,3.81,0,0,0,1.91-.5,3.76,3.76,0,0,0,1.38-1.39,3.85,3.85,0,0,0,.5-2,3.61,3.61,0,0,0-.5-1.89,3.72,3.72,0,0,0-1.34-1.36,3.58,3.58,0,0,0-1.85-.49,4.52,4.52,0,0,0-2.93,1.15.57.57,0,0,1-.53.12l-.67-.19a.27.27,0,0,1-.18-.15.45.45,0,0,1,0-.26l1.23-7.7a.8.8,0,0,1,.27-.51.83.83,0,0,1,.54-.19h6.34a.3.3,0,0,1,.24.1.33.33,0,0,1,.1.24v1.1a.34.34,0,0,1-.34.34H92.9l-.75,4.77a5.49,5.49,0,0,1,2.35-.55,5.28,5.28,0,0,1,2.72.73,5.58,5.58,0,0,1,2,2,5.5,5.5,0,0,1,0,5.56,5.7,5.7,0,0,1-2.06,2.05,5.41,5.41,0,0,1-2.81.76A6.28,6.28,0,0,1,91.25,143.62Z"/><path class="cls-1" d="M188.83,143.9a.32.32,0,0,1-.09-.24v-1.08a.31.31,0,0,1,.33-.33H192V129.82h-2.13a.33.33,0,0,1-.24-.1.3.3,0,0,1-.1-.24v-.77l3.29-1.7h.69a.32.32,0,0,1,.34.33v14.91h2.88a.32.32,0,0,1,.24.09.37.37,0,0,1,.1.24v1.08a.33.33,0,0,1-.1.24.3.3,0,0,1-.24.1h-7.61A.33.33,0,0,1,188.83,143.9Z"/><path class="cls-1" d="M285.54,143.9a.3.3,0,0,1-.1-.24v-1.08a.32.32,0,0,1,.34-.33h2.88V129.82h-2.14a.34.34,0,0,1-.34-.34v-.77l3.29-1.7h.7a.31.31,0,0,1,.33.33v14.91h2.88a.32.32,0,0,1,.34.33v1.08a.34.34,0,0,1-.34.34h-7.6A.3.3,0,0,1,285.54,143.9Z"/><path class="cls-1" d="M298.36,143.6a5.16,5.16,0,0,1-1.94-1.94,5.39,5.39,0,0,1-.71-2.72,39.79,39.79,0,0,1,.18-4.22,9.38,9.38,0,0,1,.81-3,7.66,7.66,0,0,1,2.9-3.26,7.88,7.88,0,0,1,4.27-1.18.36.36,0,0,1,.27.1.32.32,0,0,1,.09.24v1.08a.33.33,0,0,1-.09.22.28.28,0,0,1-.22.11,6.33,6.33,0,0,0-3.16.79,5.84,5.84,0,0,0-2.19,2.22,7.24,7.24,0,0,0-.91,3.3,3.86,3.86,0,0,1,1.59-1.33,4.82,4.82,0,0,1,2.08-.51,4.92,4.92,0,0,1,2.63.73,5.18,5.18,0,0,1,1.86,2,5.63,5.63,0,0,1,.67,2.7,5.2,5.2,0,0,1-.73,2.67,5.55,5.55,0,0,1-2,2,5.21,5.21,0,0,1-2.7.73A5.35,5.35,0,0,1,298.36,143.6Zm4.47-1.56a3.6,3.6,0,0,0,1.28-1.32,3.47,3.47,0,0,0,.48-1.78,3.57,3.57,0,0,0-.48-1.8,3.74,3.74,0,0,0-1.28-1.34,3.37,3.37,0,0,0-1.74-.49,3.29,3.29,0,0,0-1.75.48,3.42,3.42,0,0,0-1.25,1.31,3.89,3.89,0,0,0,0,3.67,3.33,3.33,0,0,0,1.25,1.3,3.37,3.37,0,0,0,1.75.47A3.28,3.28,0,0,0,302.83,142Z"/><path class="cls-1" d="M394.51,143.9a.32.32,0,0,1-.09-.24v-1.08a.31.31,0,0,1,.33-.33h2.88V129.82H395.5a.33.33,0,0,1-.24-.1.3.3,0,0,1-.1-.24v-.77l3.29-1.7h.69a.32.32,0,0,1,.34.33v14.91h2.88a.32.32,0,0,1,.24.09.37.37,0,0,1,.1.24v1.08a.33.33,0,0,1-.1.24.3.3,0,0,1-.24.1h-7.61A.33.33,0,0,1,394.51,143.9Z"/><path class="cls-1" d="M407.34,143.6a5.16,5.16,0,0,1-1.94-1.94,5.29,5.29,0,0,1-.71-2.72,39.79,39.79,0,0,1,.18-4.22,9.64,9.64,0,0,1,.8-3,7.61,7.61,0,0,1,2.91-3.26,7.86,7.86,0,0,1,4.27-1.18.33.33,0,0,1,.26.1.3.3,0,0,1,.1.24v1.08a.3.3,0,0,1-.1.22.25.25,0,0,1-.21.11,6.31,6.31,0,0,0-3.16.79,5.93,5.93,0,0,0-2.2,2.22,7.5,7.5,0,0,0-.91,3.3,3.89,3.89,0,0,1,1.6-1.33,4.78,4.78,0,0,1,2.07-.51,4.89,4.89,0,0,1,2.63.73,5.18,5.18,0,0,1,1.86,2,5.52,5.52,0,0,1,.67,2.7,5.11,5.11,0,0,1-.73,2.67,5.47,5.47,0,0,1-2,2,5.16,5.16,0,0,1-2.7.73A5.29,5.29,0,0,1,407.34,143.6ZM411.8,142a3.55,3.55,0,0,0,1.29-1.32,3.47,3.47,0,0,0,.48-1.78,3.57,3.57,0,0,0-.48-1.8,3.69,3.69,0,0,0-1.29-1.34,3.38,3.38,0,0,0-3.49,0,3.5,3.5,0,0,0-1.25,1.31,4,4,0,0,0,0,3.67,3.37,3.37,0,0,0,3,1.77A3.23,3.23,0,0,0,411.8,142Z"/><g id="char-x_1-2" data-name="char-x 1"><path class="cls-3" d="M65.1,186l12,12"/><path class="cls-3" d="M77.1,186l-12,12"/></g><polyline class="cls-2" points="112.25 192 124.25 192 118.25 186"/><line class="cls-2" x1="118.25" y1="198" x2="124.25" y2="192"/><polyline class="cls-2" points="208.95 192 220.95 192 214.95 186"/><line class="cls-2" x1="214.95" y1="198" x2="220.95" y2="192"/><polyline class="cls-2" points="318.9 192 330.9 192 324.9 186"/><line class="cls-2" x1="324.9" y1="198" x2="330.9" y2="192"/><line class="cls-3" x1="170.44" y1="186" x2="170.44" y2="198"/><line class="cls-3" x1="164.44" y1="192" x2="176.44" y2="192"/><line class="cls-3" x1="261.14" y1="198" x2="273.14" y2="186"/><circle class="cls-3" cx="264.14" cy="189" r="3"/><circle class="cls-3" cx="270.14" cy="195" r="3"/><polyline class="cls-2" points="427.39 192 439.39 192 433.39 186"/><line class="cls-2" x1="433.39" y1="198" x2="439.39" y2="192"/><line class="cls-3" x1="370.61" y1="198" x2="382.61" y2="186"/><rect class="cls-2" x="36" y="180" width="18" height="18"/><rect class="cls-2" x="135.34" y="180" width="18" height="18"/><rect class="cls-2" x="232.05" y="180" width="18" height="18"/><rect class="cls-2" x="342" y="180" width="18" height="18"/><rect class="cls-2" x="450" y="180" width="18" height="18"/><polyline class="cls-2" points="351 207 351 216 45 216 45 225 51 219"/><line class="cls-2" x1="39" y1="219" x2="45" y2="225"/><path class="cls-1" d="M91.25,197.62A6.33,6.33,0,0,1,89,195.46a.32.32,0,0,1,0-.2.31.31,0,0,1,.17-.28l.82-.6a.47.47,0,0,1,.26-.08.41.41,0,0,1,.38.2,5.18,5.18,0,0,0,1.7,1.56,4.2,4.2,0,0,0,2.07.57,3.81,3.81,0,0,0,1.91-.5,3.76,3.76,0,0,0,1.38-1.39,3.85,3.85,0,0,0,.5-2,3.61,3.61,0,0,0-.5-1.89,3.72,3.72,0,0,0-1.34-1.36,3.58,3.58,0,0,0-1.85-.49,4.52,4.52,0,0,0-2.93,1.15.57.57,0,0,1-.53.12l-.67-.19a.27.27,0,0,1-.18-.15.45.45,0,0,1,0-.26l1.23-7.7a.8.8,0,0,1,.27-.51.83.83,0,0,1,.54-.19h6.34a.3.3,0,0,1,.24.1.33.33,0,0,1,.1.24v1.1a.34.34,0,0,1-.34.34H92.9l-.75,4.77a5.49,5.49,0,0,1,2.35-.55,5.28,5.28,0,0,1,2.72.73,5.58,5.58,0,0,1,2,2,5.5,5.5,0,0,1,0,5.56,5.7,5.7,0,0,1-2.06,2.05,5.41,5.41,0,0,1-2.81.76A6.28,6.28,0,0,1,91.25,197.62Z"/><path class="cls-1" d="M188.83,197.9a.32.32,0,0,1-.09-.24v-1.08a.31.31,0,0,1,.33-.33H192V183.82h-2.13a.33.33,0,0,1-.24-.1.3.3,0,0,1-.1-.24v-.77l3.29-1.7h.69a.32.32,0,0,1,.34.33v14.91h2.88a.32.32,0,0,1,.24.09.37.37,0,0,1,.1.24v1.08a.33.33,0,0,1-.1.24.3.3,0,0,1-.24.1h-7.61A.33.33,0,0,1,188.83,197.9Z"/><path class="cls-1" d="M285.54,197.9a.3.3,0,0,1-.1-.24v-1.08a.32.32,0,0,1,.34-.33h2.88V183.82h-2.14a.34.34,0,0,1-.34-.34v-.77l3.29-1.7h.7a.31.31,0,0,1,.33.33v14.91h2.88a.32.32,0,0,1,.34.33v1.08a.34.34,0,0,1-.34.34h-7.6A.3.3,0,0,1,285.54,197.9Z"/><path class="cls-1" d="M298.36,197.6a5.16,5.16,0,0,1-1.94-1.94,5.39,5.39,0,0,1-.71-2.72,39.79,39.79,0,0,1,.18-4.22,9.38,9.38,0,0,1,.81-3,7.66,7.66,0,0,1,2.9-3.26,7.88,7.88,0,0,1,4.27-1.18.36.36,0,0,1,.27.1.32.32,0,0,1,.09.24v1.08a.33.33,0,0,1-.09.22.28.28,0,0,1-.22.11,6.33,6.33,0,0,0-3.16.79,5.84,5.84,0,0,0-2.19,2.22,7.24,7.24,0,0,0-.91,3.3,3.86,3.86,0,0,1,1.59-1.33,4.82,4.82,0,0,1,2.08-.51,4.92,4.92,0,0,1,2.63.73,5.18,5.18,0,0,1,1.86,2,5.63,5.63,0,0,1,.67,2.7,5.2,5.2,0,0,1-.73,2.67,5.55,5.55,0,0,1-2,2,5.21,5.21,0,0,1-2.7.73A5.35,5.35,0,0,1,298.36,197.6Zm4.47-1.56a3.6,3.6,0,0,0,1.28-1.32,3.47,3.47,0,0,0,.48-1.78,3.57,3.57,0,0,0-.48-1.8,3.74,3.74,0,0,0-1.28-1.34,3.37,3.37,0,0,0-1.74-.49,3.29,3.29,0,0,0-1.75.48,3.42,3.42,0,0,0-1.25,1.31,3.89,3.89,0,0,0,0,3.67,3.33,3.33,0,0,0,1.25,1.3,3.37,3.37,0,0,0,1.75.47A3.28,3.28,0,0,0,302.83,196Z"/><path class="cls-1" d="M394.51,197.9a.32.32,0,0,1-.09-.24v-1.08a.31.31,0,0,1,.33-.33h2.88V183.82H395.5a.33.33,0,0,1-.24-.1.3.3,0,0,1-.1-.24v-.77l3.29-1.7h.69a.32.32,0,0,1,.34.33v14.91h2.88a.32.32,0,0,1,.24.09.37.37,0,0,1,.1.24v1.08a.33.33,0,0,1-.1.24.3.3,0,0,1-.24.1h-7.61A.33.33,0,0,1,394.51,197.9Z"/><path class="cls-1" d="M407.34,197.6a5.16,5.16,0,0,1-1.94-1.94,5.29,5.29,0,0,1-.71-2.72,39.79,39.79,0,0,1,.18-4.22,9.64,9.64,0,0,1,.8-3,7.61,7.61,0,0,1,2.91-3.26,7.86,7.86,0,0,1,4.27-1.18.33.33,0,0,1,.26.1.3.3,0,0,1,.1.24v1.08a.3.3,0,0,1-.1.22.25.25,0,0,1-.21.11,6.31,6.31,0,0,0-3.16.79,5.93,5.93,0,0,0-2.2,2.22,7.5,7.5,0,0,0-.91,3.3,3.89,3.89,0,0,1,1.6-1.33,4.78,4.78,0,0,1,2.07-.51,4.89,4.89,0,0,1,2.63.73,5.18,5.18,0,0,1,1.86,2,5.52,5.52,0,0,1,.67,2.7,5.11,5.11,0,0,1-.73,2.67,5.47,5.47,0,0,1-2,2,5.16,5.16,0,0,1-2.7.73A5.29,5.29,0,0,1,407.34,197.6ZM411.8,196a3.55,3.55,0,0,0,1.29-1.32,3.47,3.47,0,0,0,.48-1.78,3.57,3.57,0,0,0-.48-1.8,3.69,3.69,0,0,0-1.29-1.34,3.38,3.38,0,0,0-3.49,0,3.5,3.5,0,0,0-1.25,1.31,4,4,0,0,0,0,3.67,3.37,3.37,0,0,0,3,1.77A3.23,3.23,0,0,0,411.8,196Z"/><g id="char-x_1-3" data-name="char-x 1"><path class="cls-3" d="M65.1,240l12,12"/><path class="cls-3" d="M77.1,240l-12,12"/></g><polyline class="cls-2" points="112.25 246 124.25 246 118.25 240"/><line class="cls-2" x1="118.25" y1="252" x2="124.25" y2="246"/><polyline class="cls-2" points="208.95 246 220.95 246 214.95 240"/><line class="cls-2" x1="214.95" y1="252" x2="220.95" y2="246"/><polyline class="cls-2" points="318.9 246 330.9 246 324.9 240"/><line class="cls-2" x1="324.9" y1="252" x2="330.9" y2="246"/><line class="cls-3" x1="170.44" y1="240" x2="170.44" y2="252"/><line class="cls-3" x1="164.44" y1="246" x2="176.44" y2="246"/><line class="cls-3" x1="261.14" y1="252" x2="273.14" y2="240"/><circle class="cls-3" cx="264.14" cy="243" r="3"/><circle class="cls-3" cx="270.14" cy="249" r="3"/><polyline class="cls-2" points="427.39 246 439.39 246 433.39 240"/><line class="cls-2" x1="433.39" y1="252" x2="439.39" y2="246"/><line class="cls-3" x1="370.61" y1="252" x2="382.61" y2="240"/><rect class="cls-2" x="36" y="234" width="18" height="18"/><rect class="cls-2" x="135.34" y="234" width="18" height="18"/><rect class="cls-2" x="232.05" y="234" width="18" height="18"/><rect class="cls-2" x="342" y="234" width="18" height="18"/><rect class="cls-2" x="450" y="234" width="18" height="18"/><polyline class="cls-2" points="351 261 351 270 45 270 45 279 51 273"/><line class="cls-2" x1="39" y1="273" x2="45" y2="279"/><path class="cls-1" d="M91.25,251.62A6.33,6.33,0,0,1,89,249.46a.32.32,0,0,1,0-.2.31.31,0,0,1,.17-.28l.82-.6a.47.47,0,0,1,.26-.08.41.41,0,0,1,.38.2,5.18,5.18,0,0,0,1.7,1.56,4.2,4.2,0,0,0,2.07.57,3.81,3.81,0,0,0,1.91-.5,3.76,3.76,0,0,0,1.38-1.39,3.85,3.85,0,0,0,.5-2,3.61,3.61,0,0,0-.5-1.89,3.72,3.72,0,0,0-1.34-1.36,3.58,3.58,0,0,0-1.85-.49,4.52,4.52,0,0,0-2.93,1.15.57.57,0,0,1-.53.12l-.67-.19a.27.27,0,0,1-.18-.15.45.45,0,0,1,0-.26l1.23-7.7a.8.8,0,0,1,.27-.51.83.83,0,0,1,.54-.19h6.34a.3.3,0,0,1,.24.1.33.33,0,0,1,.1.24v1.1a.34.34,0,0,1-.34.34H92.9l-.75,4.77a5.49,5.49,0,0,1,2.35-.55,5.28,5.28,0,0,1,2.72.73,5.58,5.58,0,0,1,2,2,5.5,5.5,0,0,1,0,5.56,5.7,5.7,0,0,1-2.06,2.05,5.41,5.41,0,0,1-2.81.76A6.28,6.28,0,0,1,91.25,251.62Z"/><path class="cls-1" d="M188.83,251.9a.32.32,0,0,1-.09-.24v-1.08a.31.31,0,0,1,.33-.33H192V237.82h-2.13a.33.33,0,0,1-.24-.1.3.3,0,0,1-.1-.24v-.77l3.29-1.7h.69a.32.32,0,0,1,.34.33v14.91h2.88a.32.32,0,0,1,.24.09.37.37,0,0,1,.1.24v1.08a.33.33,0,0,1-.1.24.3.3,0,0,1-.24.1h-7.61A.33.33,0,0,1,188.83,251.9Z"/><path class="cls-1" d="M285.54,251.9a.3.3,0,0,1-.1-.24v-1.08a.32.32,0,0,1,.34-.33h2.88V237.82h-2.14a.34.34,0,0,1-.34-.34v-.77l3.29-1.7h.7a.31.31,0,0,1,.33.33v14.91h2.88a.32.32,0,0,1,.34.33v1.08a.34.34,0,0,1-.34.34h-7.6A.3.3,0,0,1,285.54,251.9Z"/><path class="cls-1" d="M298.36,251.6a5.16,5.16,0,0,1-1.94-1.94,5.39,5.39,0,0,1-.71-2.72,39.79,39.79,0,0,1,.18-4.22,9.38,9.38,0,0,1,.81-3,7.66,7.66,0,0,1,2.9-3.26,7.88,7.88,0,0,1,4.27-1.18.36.36,0,0,1,.27.1.32.32,0,0,1,.09.24v1.08a.33.33,0,0,1-.09.22.28.28,0,0,1-.22.11,6.33,6.33,0,0,0-3.16.79,5.84,5.84,0,0,0-2.19,2.22,7.24,7.24,0,0,0-.91,3.3,3.86,3.86,0,0,1,1.59-1.33,4.82,4.82,0,0,1,2.08-.51,4.92,4.92,0,0,1,2.63.73,5.18,5.18,0,0,1,1.86,2,5.63,5.63,0,0,1,.67,2.7,5.2,5.2,0,0,1-.73,2.67,5.55,5.55,0,0,1-2,2,5.21,5.21,0,0,1-2.7.73A5.35,5.35,0,0,1,298.36,251.6Zm4.47-1.56a3.6,3.6,0,0,0,1.28-1.32,3.47,3.47,0,0,0,.48-1.78,3.57,3.57,0,0,0-.48-1.8,3.74,3.74,0,0,0-1.28-1.34,3.37,3.37,0,0,0-1.74-.49,3.29,3.29,0,0,0-1.75.48,3.42,3.42,0,0,0-1.25,1.31,3.89,3.89,0,0,0,0,3.67,3.33,3.33,0,0,0,1.25,1.3,3.37,3.37,0,0,0,1.75.47A3.28,3.28,0,0,0,302.83,250Z"/><path class="cls-1" d="M394.51,251.9a.32.32,0,0,1-.09-.24v-1.08a.31.31,0,0,1,.33-.33h2.88V237.82H395.5a.33.33,0,0,1-.24-.1.3.3,0,0,1-.1-.24v-.77l3.29-1.7h.69a.32.32,0,0,1,.34.33v14.91h2.88a.32.32,0,0,1,.24.09.37.37,0,0,1,.1.24v1.08a.33.33,0,0,1-.1.24.3.3,0,0,1-.24.1h-7.61A.33.33,0,0,1,394.51,251.9Z"/><path class="cls-1" d="M407.34,251.6a5.16,5.16,0,0,1-1.94-1.94,5.29,5.29,0,0,1-.71-2.72,39.79,39.79,0,0,1,.18-4.22,9.64,9.64,0,0,1,.8-3,7.61,7.61,0,0,1,2.91-3.26,7.86,7.86,0,0,1,4.27-1.18.33.33,0,0,1,.26.1.3.3,0,0,1,.1.24v1.08a.3.3,0,0,1-.1.22.25.25,0,0,1-.21.11,6.31,6.31,0,0,0-3.16.79,5.93,5.93,0,0,0-2.2,2.22,7.5,7.5,0,0,0-.91,3.3,3.89,3.89,0,0,1,1.6-1.33,4.78,4.78,0,0,1,2.07-.51,4.89,4.89,0,0,1,2.63.73,5.18,5.18,0,0,1,1.86,2,5.52,5.52,0,0,1,.67,2.7,5.11,5.11,0,0,1-.73,2.67,5.47,5.47,0,0,1-2,2,5.16,5.16,0,0,1-2.7.73A5.29,5.29,0,0,1,407.34,251.6ZM411.8,250a3.55,3.55,0,0,0,1.29-1.32,3.47,3.47,0,0,0,.48-1.78,3.57,3.57,0,0,0-.48-1.8,3.69,3.69,0,0,0-1.29-1.34,3.38,3.38,0,0,0-3.49,0,3.5,3.5,0,0,0-1.25,1.31,4,4,0,0,0,0,3.67,3.37,3.37,0,0,0,3,1.77A3.23,3.23,0,0,0,411.8,250Z"/><g id="char-x_1-4" data-name="char-x 1"><path class="cls-3" d="M65.1,294l12,12"/><path class="cls-3" d="M77.1,294l-12,12"/></g><polyline class="cls-2" points="112.25 300 124.25 300 118.25 294"/><line class="cls-2" x1="118.25" y1="306" x2="124.25" y2="300"/><polyline class="cls-2" points="208.95 300 220.95 300 214.95 294"/><line class="cls-2" x1="214.95" y1="306" x2="220.95" y2="300"/><polyline class="cls-2" points="318.9 300 330.9 300 324.9 294"/><line class="cls-2" x1="324.9" y1="306" x2="330.9" y2="300"/><line class="cls-3" x1="170.44" y1="294" x2="170.44" y2="306"/><line class="cls-3" x1="164.44" y1="300" x2="176.44" y2="300"/><line class="cls-3" x1="261.14" y1="306" x2="273.14" y2="294"/><circle class="cls-3" cx="264.14" cy="297" r="3"/><circle class="cls-3" cx="270.14" cy="303" r="3"/><polyline class="cls-2" points="427.39 300 439.39 300 433.39 294"/><line class="cls-2" x1="433.39" y1="306" x2="439.39" y2="300"/><line class="cls-3" x1="370.61" y1="306" x2="382.61" y2="294"/><rect class="cls-2" x="36" y="288" width="18" height="18"/><rect class="cls-2" x="135.34" y="288" width="18" height="18"/><rect class="cls-2" x="232.05" y="288" width="18" height="18"/><rect class="cls-2" x="342" y="288" width="18" height="18"/><rect class="cls-2" x="450" y="288" width="18" height="18"/><polyline class="cls-2" points="351 315 351 324 45 324 45 333 51 327"/><line class="cls-2" x1="39" y1="327" x2="45" y2="333"/><path class="cls-1" d="M91.25,305.62A6.33,6.33,0,0,1,89,303.46a.32.32,0,0,1,0-.2.31.31,0,0,1,.17-.28l.82-.6a.47.47,0,0,1,.26-.08.41.41,0,0,1,.38.2,5.18,5.18,0,0,0,1.7,1.56,4.2,4.2,0,0,0,2.07.57,3.81,3.81,0,0,0,1.91-.5,3.76,3.76,0,0,0,1.38-1.39,3.85,3.85,0,0,0,.5-1.95,3.61,3.61,0,0,0-.5-1.89,3.72,3.72,0,0,0-1.34-1.36,3.58,3.58,0,0,0-1.85-.49,4.52,4.52,0,0,0-2.93,1.15.57.57,0,0,1-.53.12l-.67-.19a.27.27,0,0,1-.18-.15.45.45,0,0,1,0-.26l1.23-7.7a.8.8,0,0,1,.27-.51.83.83,0,0,1,.54-.19h6.34a.3.3,0,0,1,.24.1.33.33,0,0,1,.1.24v1.1a.34.34,0,0,1-.34.34H92.9l-.75,4.77a5.49,5.49,0,0,1,2.35-.55,5.28,5.28,0,0,1,2.72.73,5.58,5.58,0,0,1,2,2,5.5,5.5,0,0,1,0,5.56,5.7,5.7,0,0,1-2.06,2,5.41,5.41,0,0,1-2.81.76A6.28,6.28,0,0,1,91.25,305.62Z"/><path class="cls-1" d="M188.83,305.9a.32.32,0,0,1-.09-.24v-1.08a.31.31,0,0,1,.33-.33H192V291.82h-2.13a.33.33,0,0,1-.24-.1.3.3,0,0,1-.1-.24v-.77l3.29-1.7h.69a.32.32,0,0,1,.34.33v14.91h2.88a.32.32,0,0,1,.24.09.37.37,0,0,1,.1.24v1.08a.33.33,0,0,1-.1.24.3.3,0,0,1-.24.1h-7.61A.33.33,0,0,1,188.83,305.9Z"/><path class="cls-1" d="M285.54,305.9a.3.3,0,0,1-.1-.24v-1.08a.32.32,0,0,1,.34-.33h2.88V291.82h-2.14a.34.34,0,0,1-.34-.34v-.77l3.29-1.7h.7a.31.31,0,0,1,.33.33v14.91h2.88a.32.32,0,0,1,.34.33v1.08a.34.34,0,0,1-.34.34h-7.6A.3.3,0,0,1,285.54,305.9Z"/><path class="cls-1" d="M298.36,305.6a5.16,5.16,0,0,1-1.94-1.94,5.39,5.39,0,0,1-.71-2.72,39.79,39.79,0,0,1,.18-4.22,9.38,9.38,0,0,1,.81-3,7.66,7.66,0,0,1,2.9-3.26,7.88,7.88,0,0,1,4.27-1.18.36.36,0,0,1,.27.1.32.32,0,0,1,.09.24v1.08a.33.33,0,0,1-.09.22.28.28,0,0,1-.22.11,6.33,6.33,0,0,0-3.16.79,5.84,5.84,0,0,0-2.19,2.22,7.24,7.24,0,0,0-.91,3.3,3.86,3.86,0,0,1,1.59-1.33,4.82,4.82,0,0,1,2.08-.51,4.92,4.92,0,0,1,2.63.73,5.18,5.18,0,0,1,1.86,2,5.63,5.63,0,0,1,.67,2.7,5.2,5.2,0,0,1-.73,2.67,5.55,5.55,0,0,1-2,2,5.21,5.21,0,0,1-2.7.73A5.35,5.35,0,0,1,298.36,305.6Zm4.47-1.56a3.6,3.6,0,0,0,1.28-1.32,3.47,3.47,0,0,0,.48-1.78,3.57,3.57,0,0,0-.48-1.8,3.74,3.74,0,0,0-1.28-1.34,3.37,3.37,0,0,0-1.74-.49,3.29,3.29,0,0,0-1.75.48,3.42,3.42,0,0,0-1.25,1.31,3.89,3.89,0,0,0,0,3.67,3.33,3.33,0,0,0,1.25,1.3,3.37,3.37,0,0,0,1.75.47A3.28,3.28,0,0,0,302.83,304Z"/><path class="cls-1" d="M394.51,305.9a.32.32,0,0,1-.09-.24v-1.08a.31.31,0,0,1,.33-.33h2.88V291.82H395.5a.33.33,0,0,1-.24-.1.3.3,0,0,1-.1-.24v-.77l3.29-1.7h.69a.32.32,0,0,1,.34.33v14.91h2.88a.32.32,0,0,1,.24.09.37.37,0,0,1,.1.24v1.08a.33.33,0,0,1-.1.24.3.3,0,0,1-.24.1h-7.61A.33.33,0,0,1,394.51,305.9Z"/><path class="cls-1" d="M407.34,305.6a5.16,5.16,0,0,1-1.94-1.94,5.29,5.29,0,0,1-.71-2.72,39.79,39.79,0,0,1,.18-4.22,9.64,9.64,0,0,1,.8-3,7.61,7.61,0,0,1,2.91-3.26,7.86,7.86,0,0,1,4.27-1.18.33.33,0,0,1,.26.1.3.3,0,0,1,.1.24v1.08a.3.3,0,0,1-.1.22.25.25,0,0,1-.21.11,6.31,6.31,0,0,0-3.16.79,5.93,5.93,0,0,0-2.2,2.22,7.5,7.5,0,0,0-.91,3.3,3.89,3.89,0,0,1,1.6-1.33,4.78,4.78,0,0,1,2.07-.51,4.89,4.89,0,0,1,2.63.73,5.18,5.18,0,0,1,1.86,2,5.52,5.52,0,0,1,.67,2.7,5.11,5.11,0,0,1-.73,2.67,5.47,5.47,0,0,1-2,2,5.16,5.16,0,0,1-2.7.73A5.29,5.29,0,0,1,407.34,305.6ZM411.8,304a3.55,3.55,0,0,0,1.29-1.32,3.47,3.47,0,0,0,.48-1.78,3.57,3.57,0,0,0-.48-1.8,3.69,3.69,0,0,0-1.29-1.34,3.38,3.38,0,0,0-3.49,0,3.5,3.5,0,0,0-1.25,1.31,4,4,0,0,0,0,3.67,3.37,3.37,0,0,0,3,1.77A3.23,3.23,0,0,0,411.8,304Z"/><g id="char-x_1-5" data-name="char-x 1"><path class="cls-3" d="M65.1,348l12,12"/><path class="cls-3" d="M77.1,348l-12,12"/></g><polyline class="cls-2" points="112.25 354 124.25 354 118.25 348"/><line class="cls-2" x1="118.25" y1="360" x2="124.25" y2="354"/><polyline class="cls-2" points="208.95 354 220.95 354 214.95 348"/><line class="cls-2" x1="214.95" y1="360" x2="220.95" y2="354"/><polyline class="cls-2" points="318.9 354 330.9 354 324.9 348"/><line class="cls-2" x1="324.9" y1="360" x2="330.9" y2="354"/><line class="cls-3" x1="170.44" y1="348" x2="170.44" y2="360"/><line class="cls-3" x1="164.44" y1="354" x2="176.44" y2="354"/><line class="cls-3" x1="261.14" y1="360" x2="273.14" y2="348"/><circle class="cls-3" cx="264.14" cy="351" r="3"/><circle class="cls-3" cx="270.14" cy="357" r="3"/><polyline class="cls-2" points="427.39 354 439.39 354 433.39 348"/><line class="cls-2" x1="433.39" y1="360" x2="439.39" y2="354"/><line class="cls-3" x1="370.61" y1="360" x2="382.61" y2="348"/><rect class="cls-2" x="36" y="342" width="18" height="18"/><rect class="cls-2" x="135.34" y="342" width="18" height="18"/><rect class="cls-2" x="232.05" y="342" width="18" height="18"/><rect class="cls-2" x="342" y="342" width="18" height="18"/><rect class="cls-2" x="450" y="342" width="18" height="18"/><polyline class="cls-2" points="351 369 351 378 45 378 45 387 51 381"/><line class="cls-2" x1="39" y1="381" x2="45" y2="387"/><path class="cls-1" d="M91.25,359.62A6.33,6.33,0,0,1,89,357.46a.32.32,0,0,1,0-.2.31.31,0,0,1,.17-.28l.82-.6a.47.47,0,0,1,.26-.08.41.41,0,0,1,.38.2,5.18,5.18,0,0,0,1.7,1.56,4.2,4.2,0,0,0,2.07.57,3.81,3.81,0,0,0,1.91-.5,3.76,3.76,0,0,0,1.38-1.39,3.85,3.85,0,0,0,.5-1.95,3.61,3.61,0,0,0-.5-1.89,3.72,3.72,0,0,0-1.34-1.36,3.58,3.58,0,0,0-1.85-.49,4.52,4.52,0,0,0-2.93,1.15.57.57,0,0,1-.53.12l-.67-.19a.27.27,0,0,1-.18-.15.45.45,0,0,1,0-.26l1.23-7.7a.8.8,0,0,1,.27-.51.83.83,0,0,1,.54-.19h6.34a.3.3,0,0,1,.24.1.33.33,0,0,1,.1.24v1.1a.34.34,0,0,1-.34.34H92.9l-.75,4.77a5.49,5.49,0,0,1,2.35-.55,5.28,5.28,0,0,1,2.72.73,5.58,5.58,0,0,1,2,2,5.5,5.5,0,0,1,0,5.56,5.7,5.7,0,0,1-2.06,2,5.41,5.41,0,0,1-2.81.76A6.28,6.28,0,0,1,91.25,359.62Z"/><path class="cls-1" d="M188.83,359.9a.32.32,0,0,1-.09-.24v-1.08a.31.31,0,0,1,.33-.33H192V345.82h-2.13a.33.33,0,0,1-.24-.1.3.3,0,0,1-.1-.24v-.77l3.29-1.7h.69a.32.32,0,0,1,.34.33v14.91h2.88a.32.32,0,0,1,.24.09.37.37,0,0,1,.1.24v1.08a.33.33,0,0,1-.1.24.3.3,0,0,1-.24.1h-7.61A.33.33,0,0,1,188.83,359.9Z"/><path class="cls-1" d="M285.54,359.9a.3.3,0,0,1-.1-.24v-1.08a.32.32,0,0,1,.34-.33h2.88V345.82h-2.14a.34.34,0,0,1-.34-.34v-.77l3.29-1.7h.7a.31.31,0,0,1,.33.33v14.91h2.88a.32.32,0,0,1,.34.33v1.08a.34.34,0,0,1-.34.34h-7.6A.3.3,0,0,1,285.54,359.9Z"/><path class="cls-1" d="M298.36,359.6a5.16,5.16,0,0,1-1.94-1.94,5.39,5.39,0,0,1-.71-2.72,39.79,39.79,0,0,1,.18-4.22,9.38,9.38,0,0,1,.81-3,7.66,7.66,0,0,1,2.9-3.26,7.88,7.88,0,0,1,4.27-1.18.36.36,0,0,1,.27.1.32.32,0,0,1,.09.24v1.08a.33.33,0,0,1-.09.22.28.28,0,0,1-.22.11,6.33,6.33,0,0,0-3.16.79,5.84,5.84,0,0,0-2.19,2.22,7.24,7.24,0,0,0-.91,3.3,3.86,3.86,0,0,1,1.59-1.33,4.82,4.82,0,0,1,2.08-.51,4.92,4.92,0,0,1,2.63.73,5.18,5.18,0,0,1,1.86,2,5.63,5.63,0,0,1,.67,2.7,5.2,5.2,0,0,1-.73,2.67,5.55,5.55,0,0,1-2,2,5.21,5.21,0,0,1-2.7.73A5.35,5.35,0,0,1,298.36,359.6Zm4.47-1.56a3.6,3.6,0,0,0,1.28-1.32,3.47,3.47,0,0,0,.48-1.78,3.57,3.57,0,0,0-.48-1.8,3.74,3.74,0,0,0-1.28-1.34,3.37,3.37,0,0,0-1.74-.49,3.29,3.29,0,0,0-1.75.48,3.42,3.42,0,0,0-1.25,1.31,3.89,3.89,0,0,0,0,3.67,3.33,3.33,0,0,0,1.25,1.3,3.37,3.37,0,0,0,1.75.47A3.28,3.28,0,0,0,302.83,358Z"/><path class="cls-1" d="M394.51,359.9a.32.32,0,0,1-.09-.24v-1.08a.31.31,0,0,1,.33-.33h2.88V345.82H395.5a.33.33,0,0,1-.24-.1.3.3,0,0,1-.1-.24v-.77l3.29-1.7h.69a.32.32,0,0,1,.34.33v14.91h2.88a.32.32,0,0,1,.24.09.37.37,0,0,1,.1.24v1.08a.33.33,0,0,1-.1.24.3.3,0,0,1-.24.1h-7.61A.33.33,0,0,1,394.51,359.9Z"/><path class="cls-1" d="M407.34,359.6a5.16,5.16,0,0,1-1.94-1.94,5.29,5.29,0,0,1-.71-2.72,39.79,39.79,0,0,1,.18-4.22,9.64,9.64,0,0,1,.8-3,7.61,7.61,0,0,1,2.91-3.26,7.86,7.86,0,0,1,4.27-1.18.33.33,0,0,1,.26.1.3.3,0,0,1,.1.24v1.08a.3.3,0,0,1-.1.22.25.25,0,0,1-.21.11,6.31,6.31,0,0,0-3.16.79,5.93,5.93,0,0,0-2.2,2.22,7.5,7.5,0,0,0-.91,3.3,3.89,3.89,0,0,1,1.6-1.33,4.78,4.78,0,0,1,2.07-.51,4.89,4.89,0,0,1,2.63.73,5.18,5.18,0,0,1,1.86,2,5.52,5.52,0,0,1,.67,2.7,5.11,5.11,0,0,1-.73,2.67,5.47,5.47,0,0,1-2,2,5.16,5.16,0,0,1-2.7.73A5.29,5.29,0,0,1,407.34,359.6ZM411.8,358a3.55,3.55,0,0,0,1.29-1.32,3.47,3.47,0,0,0,.48-1.78,3.57,3.57,0,0,0-.48-1.8,3.69,3.69,0,0,0-1.29-1.34,3.38,3.38,0,0,0-3.49,0,3.5,3.5,0,0,0-1.25,1.31,4,4,0,0,0,0,3.67,3.37,3.37,0,0,0,3,1.77A3.23,3.23,0,0,0,411.8,358Z"/><g id="char-x_1-6" data-name="char-x 1"><path class="cls-3" d="M65.1,402l12,12"/><path class="cls-3" d="M77.1,402l-12,12"/></g><polyline class="cls-2" points="112.25 408 124.25 408 118.25 402"/><line class="cls-2" x1="118.25" y1="414" x2="124.25" y2="408"/><polyline class="cls-2" points="208.95 408 220.95 408 214.95 402"/><line class="cls-2" x1="214.95" y1="414" x2="220.95" y2="408"/><polyline class="cls-2" points="318.9 408 330.9 408 324.9 402"/><line class="cls-2" x1="324.9" y1="414" x2="330.9" y2="408"/><line class="cls-3" x1="170.44" y1="402" x2="170.44" y2="414"/><line class="cls-3" x1="164.44" y1="408" x2="176.44" y2="408"/><line class="cls-3" x1="261.14" y1="414" x2="273.14" y2="402"/><circle class="cls-3" cx="264.14" cy="405" r="3"/><circle class="cls-3" cx="270.14" cy="411" r="3"/><polyline class="cls-2" points="427.39 408 439.39 408 433.39 402"/><line class="cls-2" x1="433.39" y1="414" x2="439.39" y2="408"/><line class="cls-3" x1="370.61" y1="414" x2="382.61" y2="402"/><rect class="cls-2" x="36" y="396" width="18" height="18"/><rect class="cls-2" x="135.34" y="396" width="18" height="18"/><rect class="cls-2" x="232.05" y="396" width="18" height="18"/><rect class="cls-2" x="342" y="396" width="18" height="18"/><rect class="cls-2" x="450" y="396" width="18" height="18"/><polyline class="cls-2" points="351 423 351 432 45 432 45 441 51 435"/><line class="cls-2" x1="39" y1="435" x2="45" y2="441"/><path class="cls-1" d="M91.25,413.62A6.33,6.33,0,0,1,89,411.46a.32.32,0,0,1,0-.2.31.31,0,0,1,.17-.28l.82-.6a.47.47,0,0,1,.26-.08.41.41,0,0,1,.38.2,5.18,5.18,0,0,0,1.7,1.56,4.2,4.2,0,0,0,2.07.57,3.81,3.81,0,0,0,1.91-.5,3.76,3.76,0,0,0,1.38-1.39,3.85,3.85,0,0,0,.5-1.95,3.61,3.61,0,0,0-.5-1.89,3.72,3.72,0,0,0-1.34-1.36,3.58,3.58,0,0,0-1.85-.49,4.52,4.52,0,0,0-2.93,1.15.57.57,0,0,1-.53.12l-.67-.19a.27.27,0,0,1-.18-.15.45.45,0,0,1,0-.26l1.23-7.7a.8.8,0,0,1,.27-.51.83.83,0,0,1,.54-.19h6.34a.3.3,0,0,1,.24.1.33.33,0,0,1,.1.24v1.1a.34.34,0,0,1-.34.34H92.9l-.75,4.77a5.49,5.49,0,0,1,2.35-.55,5.28,5.28,0,0,1,2.72.73,5.58,5.58,0,0,1,2,2,5.5,5.5,0,0,1,0,5.56,5.7,5.7,0,0,1-2.06,2,5.41,5.41,0,0,1-2.81.76A6.28,6.28,0,0,1,91.25,413.62Z"/><path class="cls-1" d="M188.83,413.9a.32.32,0,0,1-.09-.24v-1.08a.31.31,0,0,1,.33-.33H192V399.82h-2.13a.33.33,0,0,1-.24-.1.3.3,0,0,1-.1-.24v-.77l3.29-1.7h.69a.32.32,0,0,1,.34.33v14.91h2.88a.32.32,0,0,1,.24.09.37.37,0,0,1,.1.24v1.08a.33.33,0,0,1-.1.24.3.3,0,0,1-.24.1h-7.61A.33.33,0,0,1,188.83,413.9Z"/><path class="cls-1" d="M285.54,413.9a.3.3,0,0,1-.1-.24v-1.08a.32.32,0,0,1,.34-.33h2.88V399.82h-2.14a.34.34,0,0,1-.34-.34v-.77l3.29-1.7h.7a.31.31,0,0,1,.33.33v14.91h2.88a.32.32,0,0,1,.34.33v1.08a.34.34,0,0,1-.34.34h-7.6A.3.3,0,0,1,285.54,413.9Z"/><path class="cls-1" d="M298.36,413.6a5.16,5.16,0,0,1-1.94-1.94,5.39,5.39,0,0,1-.71-2.72,39.79,39.79,0,0,1,.18-4.22,9.38,9.38,0,0,1,.81-3,7.66,7.66,0,0,1,2.9-3.26,7.88,7.88,0,0,1,4.27-1.18.36.36,0,0,1,.27.1.32.32,0,0,1,.09.24v1.08a.33.33,0,0,1-.09.22.28.28,0,0,1-.22.11,6.33,6.33,0,0,0-3.16.79,5.84,5.84,0,0,0-2.19,2.22,7.24,7.24,0,0,0-.91,3.3,3.86,3.86,0,0,1,1.59-1.33,4.82,4.82,0,0,1,2.08-.51,4.92,4.92,0,0,1,2.63.73,5.18,5.18,0,0,1,1.86,2,5.63,5.63,0,0,1,.67,2.7,5.2,5.2,0,0,1-.73,2.67,5.55,5.55,0,0,1-2,2,5.21,5.21,0,0,1-2.7.73A5.35,5.35,0,0,1,298.36,413.6Zm4.47-1.56a3.6,3.6,0,0,0,1.28-1.32,3.47,3.47,0,0,0,.48-1.78,3.57,3.57,0,0,0-.48-1.8,3.74,3.74,0,0,0-1.28-1.34,3.37,3.37,0,0,0-1.74-.49,3.29,3.29,0,0,0-1.75.48,3.42,3.42,0,0,0-1.25,1.31,3.89,3.89,0,0,0,0,3.67,3.33,3.33,0,0,0,1.25,1.3,3.37,3.37,0,0,0,1.75.47A3.28,3.28,0,0,0,302.83,412Z"/><path class="cls-1" d="M394.51,413.9a.32.32,0,0,1-.09-.24v-1.08a.31.31,0,0,1,.33-.33h2.88V399.82H395.5a.33.33,0,0,1-.24-.1.3.3,0,0,1-.1-.24v-.77l3.29-1.7h.69a.32.32,0,0,1,.34.33v14.91h2.88a.32.32,0,0,1,.24.09.37.37,0,0,1,.1.24v1.08a.33.33,0,0,1-.1.24.3.3,0,0,1-.24.1h-7.61A.33.33,0,0,1,394.51,413.9Z"/><path class="cls-1" d="M407.34,413.6a5.16,5.16,0,0,1-1.94-1.94,5.29,5.29,0,0,1-.71-2.72,39.79,39.79,0,0,1,.18-4.22,9.64,9.64,0,0,1,.8-3,7.61,7.61,0,0,1,2.91-3.26,7.86,7.86,0,0,1,4.27-1.18.33.33,0,0,1,.26.1.3.3,0,0,1,.1.24v1.08a.3.3,0,0,1-.1.22.25.25,0,0,1-.21.11,6.31,6.31,0,0,0-3.16.79,5.93,5.93,0,0,0-2.2,2.22,7.5,7.5,0,0,0-.91,3.3,3.89,3.89,0,0,1,1.6-1.33,4.78,4.78,0,0,1,2.07-.51,4.89,4.89,0,0,1,2.63.73,5.18,5.18,0,0,1,1.86,2,5.52,5.52,0,0,1,.67,2.7,5.11,5.11,0,0,1-.73,2.67,5.47,5.47,0,0,1-2,2,5.16,5.16,0,0,1-2.7.73A5.29,5.29,0,0,1,407.34,413.6ZM411.8,412a3.55,3.55,0,0,0,1.29-1.32,3.47,3.47,0,0,0,.48-1.78,3.57,3.57,0,0,0-.48-1.8,3.69,3.69,0,0,0-1.29-1.34,3.38,3.38,0,0,0-3.49,0,3.5,3.5,0,0,0-1.25,1.31,4,4,0,0,0,0,3.67,3.37,3.37,0,0,0,3,1.77A3.23,3.23,0,0,0,411.8,412Z"/><g id="char-x_1-7" data-name="char-x 1"><path class="cls-3" d="M65.1,456l12,12"/><path class="cls-3" d="M77.1,456l-12,12"/></g><polyline class="cls-2" points="112.25 462 124.25 462 118.25 456"/><line class="cls-2" x1="118.25" y1="468" x2="124.25" y2="462"/><polyline class="cls-2" points="208.95 462 220.95 462 214.95 456"/><line class="cls-2" x1="214.95" y1="468" x2="220.95" y2="462"/><polyline class="cls-2" points="318.9 462 330.9 462 324.9 456"/><line class="cls-2" x1="324.9" y1="468" x2="330.9" y2="462"/><line class="cls-3" x1="170.44" y1="456" x2="170.44" y2="468"/><line class="cls-3" x1="164.44" y1="462" x2="176.44" y2="462"/><line class="cls-3" x1="261.14" y1="468" x2="273.14" y2="456"/><circle class="cls-3" cx="264.14" cy="459" r="3"/><circle class="cls-3" cx="270.14" cy="465" r="3"/><polyline class="cls-2" points="427.39 462 439.39 462 433.39 456"/><line class="cls-2" x1="433.39" y1="468" x2="439.39" y2="462"/><line class="cls-3" x1="370.61" y1="468" x2="382.61" y2="456"/><rect class="cls-2" x="36" y="450" width="18" height="18"/><rect class="cls-2" x="135.34" y="450" width="18" height="18"/><rect class="cls-2" x="232.05" y="450" width="18" height="18"/><rect class="cls-2" x="342" y="450" width="18" height="18"/><rect class="cls-2" x="450" y="450" width="18" height="18"/><polyline class="cls-2" points="351 477 351 486 45 486 45 495 51 489"/><line class="cls-2" x1="39" y1="489" x2="45" y2="495"/><path class="cls-1" d="M91.25,467.62A6.33,6.33,0,0,1,89,465.46a.32.32,0,0,1,0-.2.31.31,0,0,1,.17-.28l.82-.6a.47.47,0,0,1,.26-.08.41.41,0,0,1,.38.2,5.18,5.18,0,0,0,1.7,1.56,4.2,4.2,0,0,0,2.07.57,3.81,3.81,0,0,0,1.91-.5,3.76,3.76,0,0,0,1.38-1.39,3.85,3.85,0,0,0,.5-1.95,3.61,3.61,0,0,0-.5-1.89,3.72,3.72,0,0,0-1.34-1.36,3.58,3.58,0,0,0-1.85-.49,4.52,4.52,0,0,0-2.93,1.15.57.57,0,0,1-.53.12l-.67-.19a.27.27,0,0,1-.18-.15.45.45,0,0,1,0-.26l1.23-7.7a.8.8,0,0,1,.27-.51.83.83,0,0,1,.54-.19h6.34a.3.3,0,0,1,.24.1.33.33,0,0,1,.1.24v1.1a.34.34,0,0,1-.34.34H92.9l-.75,4.77a5.49,5.49,0,0,1,2.35-.55,5.28,5.28,0,0,1,2.72.73,5.58,5.58,0,0,1,2,2,5.5,5.5,0,0,1,0,5.56,5.7,5.7,0,0,1-2.06,2,5.41,5.41,0,0,1-2.81.76A6.28,6.28,0,0,1,91.25,467.62Z"/><path class="cls-1" d="M188.83,467.9a.32.32,0,0,1-.09-.24v-1.08a.31.31,0,0,1,.33-.33H192V453.82h-2.13a.33.33,0,0,1-.24-.1.3.3,0,0,1-.1-.24v-.77l3.29-1.7h.69a.32.32,0,0,1,.34.33v14.91h2.88a.32.32,0,0,1,.24.09.37.37,0,0,1,.1.24v1.08a.33.33,0,0,1-.1.24.3.3,0,0,1-.24.1h-7.61A.33.33,0,0,1,188.83,467.9Z"/><path class="cls-1" d="M285.54,467.9a.3.3,0,0,1-.1-.24v-1.08a.32.32,0,0,1,.34-.33h2.88V453.82h-2.14a.34.34,0,0,1-.34-.34v-.77l3.29-1.7h.7a.31.31,0,0,1,.33.33v14.91h2.88a.32.32,0,0,1,.34.33v1.08a.34.34,0,0,1-.34.34h-7.6A.3.3,0,0,1,285.54,467.9Z"/><path class="cls-1" d="M298.36,467.6a5.16,5.16,0,0,1-1.94-1.94,5.39,5.39,0,0,1-.71-2.72,39.79,39.79,0,0,1,.18-4.22,9.38,9.38,0,0,1,.81-3,7.66,7.66,0,0,1,2.9-3.26,7.88,7.88,0,0,1,4.27-1.18.36.36,0,0,1,.27.1.32.32,0,0,1,.09.24v1.08a.33.33,0,0,1-.09.22.28.28,0,0,1-.22.11,6.33,6.33,0,0,0-3.16.79,5.84,5.84,0,0,0-2.19,2.22,7.24,7.24,0,0,0-.91,3.3,3.86,3.86,0,0,1,1.59-1.33,4.82,4.82,0,0,1,2.08-.51,4.92,4.92,0,0,1,2.63.73,5.18,5.18,0,0,1,1.86,2,5.63,5.63,0,0,1,.67,2.7,5.2,5.2,0,0,1-.73,2.67,5.55,5.55,0,0,1-2,2,5.21,5.21,0,0,1-2.7.73A5.35,5.35,0,0,1,298.36,467.6Zm4.47-1.56a3.6,3.6,0,0,0,1.28-1.32,3.47,3.47,0,0,0,.48-1.78,3.57,3.57,0,0,0-.48-1.8,3.74,3.74,0,0,0-1.28-1.34,3.37,3.37,0,0,0-1.74-.49,3.29,3.29,0,0,0-1.75.48,3.42,3.42,0,0,0-1.25,1.31,3.89,3.89,0,0,0,0,3.67,3.33,3.33,0,0,0,1.25,1.3,3.37,3.37,0,0,0,1.75.47A3.28,3.28,0,0,0,302.83,466Z"/><path class="cls-1" d="M394.51,467.9a.32.32,0,0,1-.09-.24v-1.08a.31.31,0,0,1,.33-.33h2.88V453.82H395.5a.33.33,0,0,1-.24-.1.3.3,0,0,1-.1-.24v-.77l3.29-1.7h.69a.32.32,0,0,1,.34.33v14.91h2.88a.32.32,0,0,1,.24.09.37.37,0,0,1,.1.24v1.08a.33.33,0,0,1-.1.24.3.3,0,0,1-.24.1h-7.61A.33.33,0,0,1,394.51,467.9Z"/><path class="cls-1" d="M407.34,467.6a5.16,5.16,0,0,1-1.94-1.94,5.29,5.29,0,0,1-.71-2.72,39.79,39.79,0,0,1,.18-4.22,9.64,9.64,0,0,1,.8-3,7.61,7.61,0,0,1,2.91-3.26,7.86,7.86,0,0,1,4.27-1.18.33.33,0,0,1,.26.1.3.3,0,0,1,.1.24v1.08a.3.3,0,0,1-.1.22.25.25,0,0,1-.21.11,6.31,6.31,0,0,0-3.16.79,5.93,5.93,0,0,0-2.2,2.22,7.5,7.5,0,0,0-.91,3.3,3.89,3.89,0,0,1,1.6-1.33,4.78,4.78,0,0,1,2.07-.51,4.89,4.89,0,0,1,2.63.73,5.18,5.18,0,0,1,1.86,2,5.52,5.52,0,0,1,.67,2.7,5.11,5.11,0,0,1-.73,2.67,5.47,5.47,0,0,1-2,2,5.16,5.16,0,0,1-2.7.73A5.29,5.29,0,0,1,407.34,467.6ZM411.8,466a3.55,3.55,0,0,0,1.29-1.32,3.47,3.47,0,0,0,.48-1.78,3.57,3.57,0,0,0-.48-1.8,3.69,3.69,0,0,0-1.29-1.34,3.38,3.38,0,0,0-3.49,0,3.5,3.5,0,0,0-1.25,1.31,4,4,0,0,0,0,3.67,3.37,3.37,0,0,0,3,1.77A3.23,3.23,0,0,0,411.8,466Z"/><g id="char-x_1-8" data-name="char-x 1"><path class="cls-3" d="M65.1,510l12,12"/><path class="cls-3" d="M77.1,510l-12,12"/></g><polyline class="cls-2" points="112.25 516 124.25 516 118.25 510"/><line class="cls-2" x1="118.25" y1="522" x2="124.25" y2="516"/><polyline class="cls-2" points="208.95 516 220.95 516 214.95 510"/><line class="cls-2" x1="214.95" y1="522" x2="220.95" y2="516"/><polyline class="cls-2" points="318.9 516 330.9 516 324.9 510"/><line class="cls-2" x1="324.9" y1="522" x2="330.9" y2="516"/><line class="cls-3" x1="170.44" y1="510" x2="170.44" y2="522"/><line class="cls-3" x1="164.44" y1="516" x2="176.44" y2="516"/><line class="cls-3" x1="261.14" y1="522" x2="273.14" y2="510"/><circle class="cls-3" cx="264.14" cy="513" r="3"/><circle class="cls-3" cx="270.14" cy="519" r="3"/><polyline class="cls-2" points="427.39 516 439.39 516 433.39 510"/><line class="cls-2" x1="433.39" y1="522" x2="439.39" y2="516"/><line class="cls-3" x1="370.61" y1="522" x2="382.61" y2="510"/><rect class="cls-2" x="36" y="504" width="18" height="18"/><rect class="cls-2" x="135.34" y="504" width="18" height="18"/><rect class="cls-2" x="232.05" y="504" width="18" height="18"/><rect class="cls-2" x="342" y="504" width="18" height="18"/><rect class="cls-2" x="450" y="504" width="18" height="18"/><polyline class="cls-2" points="351 531 351 540 45 540 45 549 51 543"/><line class="cls-2" x1="39" y1="543" x2="45" y2="549"/><path class="cls-1" d="M91.25,521.62A6.33,6.33,0,0,1,89,519.46a.32.32,0,0,1,0-.2.31.31,0,0,1,.17-.28l.82-.6a.47.47,0,0,1,.26-.08.41.41,0,0,1,.38.2,5.18,5.18,0,0,0,1.7,1.56,4.2,4.2,0,0,0,2.07.57,3.81,3.81,0,0,0,1.91-.5,3.76,3.76,0,0,0,1.38-1.39,3.85,3.85,0,0,0,.5-2,3.61,3.61,0,0,0-.5-1.89,3.72,3.72,0,0,0-1.34-1.36,3.58,3.58,0,0,0-1.85-.49,4.52,4.52,0,0,0-2.93,1.15.57.57,0,0,1-.53.12l-.67-.19a.27.27,0,0,1-.18-.15.45.45,0,0,1,0-.26l1.23-7.7a.8.8,0,0,1,.27-.51.83.83,0,0,1,.54-.19h6.34a.3.3,0,0,1,.24.1.33.33,0,0,1,.1.24v1.1a.34.34,0,0,1-.34.34H92.9l-.75,4.77a5.49,5.49,0,0,1,2.35-.55,5.28,5.28,0,0,1,2.72.73,5.58,5.58,0,0,1,2,2,5.5,5.5,0,0,1,0,5.56,5.7,5.7,0,0,1-2.06,2,5.41,5.41,0,0,1-2.81.76A6.28,6.28,0,0,1,91.25,521.62Z"/><path class="cls-1" d="M188.83,521.9a.32.32,0,0,1-.09-.24v-1.08a.31.31,0,0,1,.33-.33H192V507.82h-2.13a.33.33,0,0,1-.24-.1.3.3,0,0,1-.1-.24v-.77l3.29-1.7h.69a.32.32,0,0,1,.34.33v14.91h2.88a.32.32,0,0,1,.24.09.37.37,0,0,1,.1.24v1.08a.33.33,0,0,1-.1.24.3.3,0,0,1-.24.1h-7.61A.33.33,0,0,1,188.83,521.9Z"/><path class="cls-1" d="M285.54,521.9a.3.3,0,0,1-.1-.24v-1.08a.32.32,0,0,1,.34-.33h2.88V507.82h-2.14a.34.34,0,0,1-.34-.34v-.77l3.29-1.7h.7a.31.31,0,0,1,.33.33v14.91h2.88a.32.32,0,0,1,.34.33v1.08a.34.34,0,0,1-.34.34h-7.6A.3.3,0,0,1,285.54,521.9Z"/><path class="cls-1" d="M298.36,521.6a5.16,5.16,0,0,1-1.94-1.94,5.39,5.39,0,0,1-.71-2.72,39.79,39.79,0,0,1,.18-4.22,9.38,9.38,0,0,1,.81-3,7.66,7.66,0,0,1,2.9-3.26,7.88,7.88,0,0,1,4.27-1.18.36.36,0,0,1,.27.1.32.32,0,0,1,.09.24v1.08a.33.33,0,0,1-.09.22.28.28,0,0,1-.22.11,6.33,6.33,0,0,0-3.16.79,5.84,5.84,0,0,0-2.19,2.22,7.24,7.24,0,0,0-.91,3.3,3.86,3.86,0,0,1,1.59-1.33,4.82,4.82,0,0,1,2.08-.51,4.92,4.92,0,0,1,2.63.73,5.18,5.18,0,0,1,1.86,2,5.63,5.63,0,0,1,.67,2.7,5.2,5.2,0,0,1-.73,2.67,5.55,5.55,0,0,1-2,2,5.21,5.21,0,0,1-2.7.73A5.35,5.35,0,0,1,298.36,521.6Zm4.47-1.56a3.6,3.6,0,0,0,1.28-1.32,3.47,3.47,0,0,0,.48-1.78,3.57,3.57,0,0,0-.48-1.8,3.74,3.74,0,0,0-1.28-1.34,3.37,3.37,0,0,0-1.74-.49,3.29,3.29,0,0,0-1.75.48,3.42,3.42,0,0,0-1.25,1.31,3.89,3.89,0,0,0,0,3.67,3.33,3.33,0,0,0,1.25,1.3,3.37,3.37,0,0,0,1.75.47A3.28,3.28,0,0,0,302.83,520Z"/><path class="cls-1" d="M394.51,521.9a.32.32,0,0,1-.09-.24v-1.08a.31.31,0,0,1,.33-.33h2.88V507.82H395.5a.33.33,0,0,1-.24-.1.3.3,0,0,1-.1-.24v-.77l3.29-1.7h.69a.32.32,0,0,1,.34.33v14.91h2.88a.32.32,0,0,1,.24.09.37.37,0,0,1,.1.24v1.08a.33.33,0,0,1-.1.24.3.3,0,0,1-.24.1h-7.61A.33.33,0,0,1,394.51,521.9Z"/><path class="cls-1" d="M407.34,521.6a5.16,5.16,0,0,1-1.94-1.94,5.29,5.29,0,0,1-.71-2.72,39.79,39.79,0,0,1,.18-4.22,9.64,9.64,0,0,1,.8-3,7.61,7.61,0,0,1,2.91-3.26,7.86,7.86,0,0,1,4.27-1.18.33.33,0,0,1,.26.1.3.3,0,0,1,.1.24v1.08a.3.3,0,0,1-.1.22.25.25,0,0,1-.21.11,6.31,6.31,0,0,0-3.16.79,5.93,5.93,0,0,0-2.2,2.22,7.5,7.5,0,0,0-.91,3.3,3.89,3.89,0,0,1,1.6-1.33,4.78,4.78,0,0,1,2.07-.51,4.89,4.89,0,0,1,2.63.73,5.18,5.18,0,0,1,1.86,2,5.52,5.52,0,0,1,.67,2.7,5.11,5.11,0,0,1-.73,2.67,5.47,5.47,0,0,1-2,2,5.16,5.16,0,0,1-2.7.73A5.29,5.29,0,0,1,407.34,521.6ZM411.8,520a3.55,3.55,0,0,0,1.29-1.32,3.47,3.47,0,0,0,.48-1.78,3.57,3.57,0,0,0-.48-1.8,3.69,3.69,0,0,0-1.29-1.34,3.38,3.38,0,0,0-3.49,0,3.5,3.5,0,0,0-1.25,1.31,4,4,0,0,0,0,3.67,3.37,3.37,0,0,0,3,1.77A3.23,3.23,0,0,0,411.8,520Z"/><g id="char-x_1-9" data-name="char-x 1"><path class="cls-3" d="M65.1,564l12,12"/><path class="cls-3" d="M77.1,564l-12,12"/></g><polyline class="cls-2" points="112.25 570 124.25 570 118.25 564"/><line class="cls-2" x1="118.25" y1="576" x2="124.25" y2="570"/><polyline class="cls-2" points="208.95 570 220.95 570 214.95 564"/><line class="cls-2" x1="214.95" y1="576" x2="220.95" y2="570"/><polyline class="cls-2" points="318.9 570 330.9 570 324.9 564"/><line class="cls-2" x1="324.9" y1="576" x2="330.9" y2="570"/><line class="cls-3" x1="170.44" y1="564" x2="170.44" y2="576"/><line class="cls-3" x1="164.44" y1="570" x2="176.44" y2="570"/><line class="cls-3" x1="261.14" y1="576" x2="273.14" y2="564"/><circle class="cls-3" cx="264.14" cy="567" r="3"/><circle class="cls-3" cx="270.14" cy="573" r="3"/><polyline class="cls-2" points="427.39 570 439.39 570 433.39 564"/><line class="cls-2" x1="433.39" y1="576" x2="439.39" y2="570"/><line class="cls-3" x1="370.61" y1="576" x2="382.61" y2="564"/><rect class="cls-2" x="36" y="558" width="18" height="18"/><rect class="cls-2" x="135.34" y="558" width="18" height="18"/><rect class="cls-2" x="232.05" y="558" width="18" height="18"/><rect class="cls-2" x="342" y="558" width="18" height="18"/><rect class="cls-2" x="450" y="558" width="18" height="18"/><polyline class="cls-2" points="351 585 351 594 45 594 45 603 51 597"/><line class="cls-2" x1="39" y1="597" x2="45" y2="603"/><path class="cls-1" d="M91.25,575.62A6.33,6.33,0,0,1,89,573.46a.32.32,0,0,1,0-.2.31.31,0,0,1,.17-.28l.82-.6a.47.47,0,0,1,.26-.08.41.41,0,0,1,.38.2,5.18,5.18,0,0,0,1.7,1.56,4.2,4.2,0,0,0,2.07.57,3.81,3.81,0,0,0,1.91-.5,3.76,3.76,0,0,0,1.38-1.39,3.85,3.85,0,0,0,.5-2,3.61,3.61,0,0,0-.5-1.89,3.72,3.72,0,0,0-1.34-1.36,3.58,3.58,0,0,0-1.85-.49,4.52,4.52,0,0,0-2.93,1.15.57.57,0,0,1-.53.12l-.67-.19a.27.27,0,0,1-.18-.15.45.45,0,0,1,0-.26l1.23-7.7a.8.8,0,0,1,.27-.51.83.83,0,0,1,.54-.19h6.34a.3.3,0,0,1,.24.1.33.33,0,0,1,.1.24v1.1a.34.34,0,0,1-.34.34H92.9l-.75,4.77a5.49,5.49,0,0,1,2.35-.55,5.28,5.28,0,0,1,2.72.73,5.58,5.58,0,0,1,2,2,5.5,5.5,0,0,1,0,5.56,5.7,5.7,0,0,1-2.06,2,5.41,5.41,0,0,1-2.81.76A6.28,6.28,0,0,1,91.25,575.62Z"/><path class="cls-1" d="M188.83,575.9a.32.32,0,0,1-.09-.24v-1.08a.31.31,0,0,1,.33-.33H192V561.82h-2.13a.33.33,0,0,1-.24-.1.3.3,0,0,1-.1-.24v-.77l3.29-1.7h.69a.32.32,0,0,1,.34.33v14.91h2.88a.32.32,0,0,1,.24.09.37.37,0,0,1,.1.24v1.08a.33.33,0,0,1-.1.24.3.3,0,0,1-.24.1h-7.61A.33.33,0,0,1,188.83,575.9Z"/><path class="cls-1" d="M285.54,575.9a.3.3,0,0,1-.1-.24v-1.08a.32.32,0,0,1,.34-.33h2.88V561.82h-2.14a.34.34,0,0,1-.34-.34v-.77l3.29-1.7h.7a.31.31,0,0,1,.33.33v14.91h2.88a.32.32,0,0,1,.34.33v1.08a.34.34,0,0,1-.34.34h-7.6A.3.3,0,0,1,285.54,575.9Z"/><path class="cls-1" d="M298.36,575.6a5.16,5.16,0,0,1-1.94-1.94,5.39,5.39,0,0,1-.71-2.72,39.79,39.79,0,0,1,.18-4.22,9.38,9.38,0,0,1,.81-3,7.66,7.66,0,0,1,2.9-3.26,7.88,7.88,0,0,1,4.27-1.18.36.36,0,0,1,.27.1.32.32,0,0,1,.09.24v1.08a.33.33,0,0,1-.09.22.28.28,0,0,1-.22.11,6.33,6.33,0,0,0-3.16.79,5.84,5.84,0,0,0-2.19,2.22,7.24,7.24,0,0,0-.91,3.3,3.86,3.86,0,0,1,1.59-1.33,4.82,4.82,0,0,1,2.08-.51,4.92,4.92,0,0,1,2.63.73,5.18,5.18,0,0,1,1.86,2,5.63,5.63,0,0,1,.67,2.7,5.2,5.2,0,0,1-.73,2.67,5.55,5.55,0,0,1-2,2,5.21,5.21,0,0,1-2.7.73A5.35,5.35,0,0,1,298.36,575.6Zm4.47-1.56a3.6,3.6,0,0,0,1.28-1.32,3.47,3.47,0,0,0,.48-1.78,3.57,3.57,0,0,0-.48-1.8,3.74,3.74,0,0,0-1.28-1.34,3.37,3.37,0,0,0-1.74-.49,3.29,3.29,0,0,0-1.75.48,3.42,3.42,0,0,0-1.25,1.31,3.89,3.89,0,0,0,0,3.67,3.33,3.33,0,0,0,1.25,1.3,3.37,3.37,0,0,0,1.75.47A3.28,3.28,0,0,0,302.83,574Z"/><path class="cls-1" d="M394.51,575.9a.32.32,0,0,1-.09-.24v-1.08a.31.31,0,0,1,.33-.33h2.88V561.82H395.5a.33.33,0,0,1-.24-.1.3.3,0,0,1-.1-.24v-.77l3.29-1.7h.69a.32.32,0,0,1,.34.33v14.91h2.88a.32.32,0,0,1,.24.09.37.37,0,0,1,.1.24v1.08a.33.33,0,0,1-.1.24.3.3,0,0,1-.24.1h-7.61A.33.33,0,0,1,394.51,575.9Z"/><path class="cls-1" d="M407.34,575.6a5.16,5.16,0,0,1-1.94-1.94,5.29,5.29,0,0,1-.71-2.72,39.79,39.79,0,0,1,.18-4.22,9.64,9.64,0,0,1,.8-3,7.61,7.61,0,0,1,2.91-3.26,7.86,7.86,0,0,1,4.27-1.18.33.33,0,0,1,.26.1.3.3,0,0,1,.1.24v1.08a.3.3,0,0,1-.1.22.25.25,0,0,1-.21.11,6.31,6.31,0,0,0-3.16.79,5.93,5.93,0,0,0-2.2,2.22,7.5,7.5,0,0,0-.91,3.3,3.89,3.89,0,0,1,1.6-1.33,4.78,4.78,0,0,1,2.07-.51,4.89,4.89,0,0,1,2.63.73,5.18,5.18,0,0,1,1.86,2,5.52,5.52,0,0,1,.67,2.7,5.11,5.11,0,0,1-.73,2.67,5.47,5.47,0,0,1-2,2,5.16,5.16,0,0,1-2.7.73A5.29,5.29,0,0,1,407.34,575.6ZM411.8,574a3.55,3.55,0,0,0,1.29-1.32,3.47,3.47,0,0,0,.48-1.78,3.57,3.57,0,0,0-.48-1.8,3.69,3.69,0,0,0-1.29-1.34,3.38,3.38,0,0,0-3.49,0,3.5,3.5,0,0,0-1.25,1.31,4,4,0,0,0,0,3.67,3.37,3.37,0,0,0,3,1.77A3.23,3.23,0,0,0,411.8,574Z"/><g id="char-x_1-10" data-name="char-x 1"><path class="cls-3" d="M65.1,618l12,12"/><path class="cls-3" d="M77.1,618l-12,12"/></g><polyline class="cls-2" points="112.25 624 124.25 624 118.25 618"/><line class="cls-2" x1="118.25" y1="630" x2="124.25" y2="624"/><polyline class="cls-2" points="208.95 624 220.95 624 214.95 618"/><line class="cls-2" x1="214.95" y1="630" x2="220.95" y2="624"/><polyline class="cls-2" points="318.9 624 330.9 624 324.9 618"/><line class="cls-2" x1="324.9" y1="630" x2="330.9" y2="624"/><line class="cls-3" x1="170.44" y1="618" x2="170.44" y2="630"/><line class="cls-3" x1="164.44" y1="624" x2="176.44" y2="624"/><line class="cls-3" x1="261.14" y1="630" x2="273.14" y2="618"/><circle class="cls-3" cx="264.14" cy="621" r="3"/><circle class="cls-3" cx="270.14" cy="627" r="3"/><polyline class="cls-2" points="427.39 624 439.39 624 433.39 618"/><line class="cls-2" x1="433.39" y1="630" x2="439.39" y2="624"/><line class="cls-3" x1="370.61" y1="630" x2="382.61" y2="618"/><rect class="cls-2" x="36" y="612" width="18" height="18"/><rect class="cls-2" x="135.34" y="612" width="18" height="18"/><rect class="cls-2" x="232.05" y="612" width="18" height="18"/><rect class="cls-2" x="342" y="612" width="18" height="18"/><rect class="cls-2" x="450" y="612" width="18" height="18"/><polyline class="cls-2" points="351 639 351 648 45 648 45 657 51 651"/><line class="cls-2" x1="39" y1="651" x2="45" y2="657"/><path class="cls-1" d="M91.25,629.62A6.33,6.33,0,0,1,89,627.46a.32.32,0,0,1,0-.2.31.31,0,0,1,.17-.28l.82-.6a.47.47,0,0,1,.26-.08.41.41,0,0,1,.38.2,5.18,5.18,0,0,0,1.7,1.56,4.2,4.2,0,0,0,2.07.57,3.81,3.81,0,0,0,1.91-.5,3.76,3.76,0,0,0,1.38-1.39,3.85,3.85,0,0,0,.5-2,3.61,3.61,0,0,0-.5-1.89,3.72,3.72,0,0,0-1.34-1.36,3.58,3.58,0,0,0-1.85-.49,4.52,4.52,0,0,0-2.93,1.15.57.57,0,0,1-.53.12l-.67-.19a.27.27,0,0,1-.18-.15.45.45,0,0,1,0-.26l1.23-7.7a.8.8,0,0,1,.27-.51.83.83,0,0,1,.54-.19h6.34a.3.3,0,0,1,.24.1.33.33,0,0,1,.1.24v1.1a.34.34,0,0,1-.34.34H92.9l-.75,4.77a5.49,5.49,0,0,1,2.35-.55,5.28,5.28,0,0,1,2.72.73,5.58,5.58,0,0,1,2,2,5.5,5.5,0,0,1,0,5.56,5.7,5.7,0,0,1-2.06,2,5.41,5.41,0,0,1-2.81.76A6.28,6.28,0,0,1,91.25,629.62Z"/><path class="cls-1" d="M188.83,629.9a.32.32,0,0,1-.09-.24v-1.08a.31.31,0,0,1,.33-.33H192V615.82h-2.13a.33.33,0,0,1-.24-.1.3.3,0,0,1-.1-.24v-.77l3.29-1.7h.69a.32.32,0,0,1,.34.33v14.91h2.88a.32.32,0,0,1,.24.09.37.37,0,0,1,.1.24v1.08a.33.33,0,0,1-.1.24.3.3,0,0,1-.24.1h-7.61A.33.33,0,0,1,188.83,629.9Z"/><path class="cls-1" d="M285.54,629.9a.3.3,0,0,1-.1-.24v-1.08a.32.32,0,0,1,.34-.33h2.88V615.82h-2.14a.34.34,0,0,1-.34-.34v-.77l3.29-1.7h.7a.31.31,0,0,1,.33.33v14.91h2.88a.32.32,0,0,1,.34.33v1.08a.34.34,0,0,1-.34.34h-7.6A.3.3,0,0,1,285.54,629.9Z"/><path class="cls-1" d="M298.36,629.6a5.16,5.16,0,0,1-1.94-1.94,5.39,5.39,0,0,1-.71-2.72,39.79,39.79,0,0,1,.18-4.22,9.38,9.38,0,0,1,.81-3,7.66,7.66,0,0,1,2.9-3.26,7.88,7.88,0,0,1,4.27-1.18.36.36,0,0,1,.27.1.32.32,0,0,1,.09.24v1.08a.33.33,0,0,1-.09.22.28.28,0,0,1-.22.11,6.33,6.33,0,0,0-3.16.79,5.84,5.84,0,0,0-2.19,2.22,7.24,7.24,0,0,0-.91,3.3,3.86,3.86,0,0,1,1.59-1.33,4.82,4.82,0,0,1,2.08-.51,4.92,4.92,0,0,1,2.63.73,5.18,5.18,0,0,1,1.86,2,5.63,5.63,0,0,1,.67,2.7,5.2,5.2,0,0,1-.73,2.67,5.55,5.55,0,0,1-2,2,5.21,5.21,0,0,1-2.7.73A5.35,5.35,0,0,1,298.36,629.6Zm4.47-1.56a3.6,3.6,0,0,0,1.28-1.32,3.47,3.47,0,0,0,.48-1.78,3.57,3.57,0,0,0-.48-1.8,3.74,3.74,0,0,0-1.28-1.34,3.37,3.37,0,0,0-1.74-.49,3.29,3.29,0,0,0-1.75.48,3.42,3.42,0,0,0-1.25,1.31,3.89,3.89,0,0,0,0,3.67,3.33,3.33,0,0,0,1.25,1.3,3.37,3.37,0,0,0,1.75.47A3.28,3.28,0,0,0,302.83,628Z"/><path class="cls-1" d="M394.51,629.9a.32.32,0,0,1-.09-.24v-1.08a.31.31,0,0,1,.33-.33h2.88V615.82H395.5a.33.33,0,0,1-.24-.1.3.3,0,0,1-.1-.24v-.77l3.29-1.7h.69a.32.32,0,0,1,.34.33v14.91h2.88a.32.32,0,0,1,.24.09.37.37,0,0,1,.1.24v1.08a.33.33,0,0,1-.1.24.3.3,0,0,1-.24.1h-7.61A.33.33,0,0,1,394.51,629.9Z"/><path class="cls-1" d="M407.34,629.6a5.16,5.16,0,0,1-1.94-1.94,5.29,5.29,0,0,1-.71-2.72,39.79,39.79,0,0,1,.18-4.22,9.64,9.64,0,0,1,.8-3,7.61,7.61,0,0,1,2.91-3.26,7.86,7.86,0,0,1,4.27-1.18.33.33,0,0,1,.26.1.3.3,0,0,1,.1.24v1.08a.3.3,0,0,1-.1.22.25.25,0,0,1-.21.11,6.31,6.31,0,0,0-3.16.79,5.93,5.93,0,0,0-2.2,2.22,7.5,7.5,0,0,0-.91,3.3,3.89,3.89,0,0,1,1.6-1.33,4.78,4.78,0,0,1,2.07-.51,4.89,4.89,0,0,1,2.63.73,5.18,5.18,0,0,1,1.86,2,5.52,5.52,0,0,1,.67,2.7,5.11,5.11,0,0,1-.73,2.67,5.47,5.47,0,0,1-2,2,5.16,5.16,0,0,1-2.7.73A5.29,5.29,0,0,1,407.34,629.6ZM411.8,628a3.55,3.55,0,0,0,1.29-1.32,3.47,3.47,0,0,0,.48-1.78,3.57,3.57,0,0,0-.48-1.8,3.69,3.69,0,0,0-1.29-1.34,3.38,3.38,0,0,0-3.49,0,3.5,3.5,0,0,0-1.25,1.31,4,4,0,0,0,0,3.67,3.37,3.37,0,0,0,3,1.77A3.23,3.23,0,0,0,411.8,628Z"/><g id="char-x_1-11" data-name="char-x 1"><path class="cls-3" d="M65.1,672l12,12"/><path class="cls-3" d="M77.1,672l-12,12"/></g><polyline class="cls-2" points="112.25 678 124.25 678 118.25 672"/><line class="cls-2" x1="118.25" y1="684" x2="124.25" y2="678"/><polyline class="cls-2" points="208.95 678 220.95 678 214.95 672"/><line class="cls-2" x1="214.95" y1="684" x2="220.95" y2="678"/><polyline class="cls-2" points="318.9 678 330.9 678 324.9 672"/><line class="cls-2" x1="324.9" y1="684" x2="330.9" y2="678"/><line class="cls-3" x1="170.44" y1="672" x2="170.44" y2="684"/><line class="cls-3" x1="164.44" y1="678" x2="176.44" y2="678"/><line class="cls-3" x1="261.14" y1="684" x2="273.14" y2="672"/><circle class="cls-3" cx="264.14" cy="675" r="3"/><circle class="cls-3" cx="270.14" cy="681" r="3"/><polyline class="cls-2" points="427.39 678 439.39 678 433.39 672"/><line class="cls-2" x1="433.39" y1="684" x2="439.39" y2="678"/><line class="cls-3" x1="370.61" y1="684" x2="382.61" y2="672"/><rect class="cls-2" x="36" y="666" width="18" height="18"/><rect class="cls-2" x="135.34" y="666" width="18" height="18"/><rect class="cls-2" x="232.05" y="666" width="18" height="18"/><rect class="cls-2" x="342" y="666" width="18" height="18"/><rect class="cls-2" x="450" y="666" width="18" height="18"/><path class="cls-1" d="M91.25,683.62A6.33,6.33,0,0,1,89,681.46a.32.32,0,0,1,0-.2.31.31,0,0,1,.17-.28l.82-.6a.47.47,0,0,1,.26-.08.41.41,0,0,1,.38.2,5.18,5.18,0,0,0,1.7,1.56,4.2,4.2,0,0,0,2.07.57,3.81,3.81,0,0,0,1.91-.5,3.76,3.76,0,0,0,1.38-1.39,3.85,3.85,0,0,0,.5-2,3.61,3.61,0,0,0-.5-1.89,3.72,3.72,0,0,0-1.34-1.36,3.58,3.58,0,0,0-1.85-.49,4.52,4.52,0,0,0-2.93,1.15.57.57,0,0,1-.53.12l-.67-.19a.27.27,0,0,1-.18-.15.45.45,0,0,1,0-.26l1.23-7.7a.8.8,0,0,1,.27-.51.83.83,0,0,1,.54-.19h6.34a.3.3,0,0,1,.24.1.33.33,0,0,1,.1.24v1.1a.34.34,0,0,1-.34.34H92.9l-.75,4.77a5.49,5.49,0,0,1,2.35-.55,5.28,5.28,0,0,1,2.72.73,5.58,5.58,0,0,1,2,2,5.5,5.5,0,0,1,0,5.56,5.7,5.7,0,0,1-2.06,2,5.41,5.41,0,0,1-2.81.76A6.28,6.28,0,0,1,91.25,683.62Z"/><path class="cls-1" d="M188.83,683.9a.32.32,0,0,1-.09-.24v-1.08a.31.31,0,0,1,.33-.33H192V669.82h-2.13a.33.33,0,0,1-.24-.1.3.3,0,0,1-.1-.24v-.77l3.29-1.7h.69a.32.32,0,0,1,.34.33v14.91h2.88a.32.32,0,0,1,.24.09.37.37,0,0,1,.1.24v1.08a.33.33,0,0,1-.1.24.3.3,0,0,1-.24.1h-7.61A.33.33,0,0,1,188.83,683.9Z"/><path class="cls-1" d="M285.54,683.9a.3.3,0,0,1-.1-.24v-1.08a.32.32,0,0,1,.34-.33h2.88V669.82h-2.14a.34.34,0,0,1-.34-.34v-.77l3.29-1.7h.7a.31.31,0,0,1,.33.33v14.91h2.88a.32.32,0,0,1,.34.33v1.08a.34.34,0,0,1-.34.34h-7.6A.3.3,0,0,1,285.54,683.9Z"/><path class="cls-1" d="M298.36,683.6a5.16,5.16,0,0,1-1.94-1.94,5.39,5.39,0,0,1-.71-2.72,39.79,39.79,0,0,1,.18-4.22,9.38,9.38,0,0,1,.81-3,7.66,7.66,0,0,1,2.9-3.26,7.88,7.88,0,0,1,4.27-1.18.36.36,0,0,1,.27.1.32.32,0,0,1,.09.24v1.08a.33.33,0,0,1-.09.22.28.28,0,0,1-.22.11,6.33,6.33,0,0,0-3.16.79,5.84,5.84,0,0,0-2.19,2.22,7.24,7.24,0,0,0-.91,3.3,3.86,3.86,0,0,1,1.59-1.33,4.82,4.82,0,0,1,2.08-.51,4.92,4.92,0,0,1,2.63.73,5.18,5.18,0,0,1,1.86,2,5.63,5.63,0,0,1,.67,2.7,5.2,5.2,0,0,1-.73,2.67,5.55,5.55,0,0,1-2,2,5.21,5.21,0,0,1-2.7.73A5.35,5.35,0,0,1,298.36,683.6Zm4.47-1.56a3.6,3.6,0,0,0,1.28-1.32,3.47,3.47,0,0,0,.48-1.78,3.57,3.57,0,0,0-.48-1.8,3.74,3.74,0,0,0-1.28-1.34,3.37,3.37,0,0,0-1.74-.49,3.29,3.29,0,0,0-1.75.48,3.42,3.42,0,0,0-1.25,1.31,3.89,3.89,0,0,0,0,3.67,3.33,3.33,0,0,0,1.25,1.3,3.37,3.37,0,0,0,1.75.47A3.28,3.28,0,0,0,302.83,682Z"/><path class="cls-1" d="M394.51,683.9a.32.32,0,0,1-.09-.24v-1.08a.31.31,0,0,1,.33-.33h2.88V669.82H395.5a.33.33,0,0,1-.24-.1.3.3,0,0,1-.1-.24v-.77l3.29-1.7h.69a.32.32,0,0,1,.34.33v14.91h2.88a.32.32,0,0,1,.24.09.37.37,0,0,1,.1.24v1.08a.33.33,0,0,1-.1.24.3.3,0,0,1-.24.1h-7.61A.33.33,0,0,1,394.51,683.9Z"/><path class="cls-1" d="M407.34,683.6a5.16,5.16,0,0,1-1.94-1.94,5.29,5.29,0,0,1-.71-2.72,39.79,39.79,0,0,1,.18-4.22,9.64,9.64,0,0,1,.8-3,7.61,7.61,0,0,1,2.91-3.26,7.86,7.86,0,0,1,4.27-1.18.33.33,0,0,1,.26.1.3.3,0,0,1,.1.24v1.08a.3.3,0,0,1-.1.22.25.25,0,0,1-.21.11,6.31,6.31,0,0,0-3.16.79,5.93,5.93,0,0,0-2.2,2.22,7.5,7.5,0,0,0-.91,3.3,3.89,3.89,0,0,1,1.6-1.33,4.78,4.78,0,0,1,2.07-.51,4.89,4.89,0,0,1,2.63.73,5.18,5.18,0,0,1,1.86,2,5.52,5.52,0,0,1,.67,2.7,5.11,5.11,0,0,1-.73,2.67,5.47,5.47,0,0,1-2,2,5.16,5.16,0,0,1-2.7.73A5.29,5.29,0,0,1,407.34,683.6ZM411.8,682a3.55,3.55,0,0,0,1.29-1.32,3.47,3.47,0,0,0,.48-1.78,3.57,3.57,0,0,0-.48-1.8,3.69,3.69,0,0,0-1.29-1.34,3.38,3.38,0,0,0-3.49,0,3.5,3.5,0,0,0-1.25,1.31,4,4,0,0,0,0,3.67,3.37,3.37,0,0,0,3,1.77A3.23,3.23,0,0,0,411.8,682Z"/><path class="cls-1" d="M64.76,84.06a3.37,3.37,0,0,1-1-.47.1.1,0,0,1-.06-.08.17.17,0,0,1,0-.12l.28-.54a.18.18,0,0,1,.17-.11.12.12,0,0,1,.09,0,3.52,3.52,0,0,0,1.75.55,1.94,1.94,0,0,0,1.26-.39,1.27,1.27,0,0,0,.5-1.05,1.16,1.16,0,0,0-.22-.71,1.56,1.56,0,0,0-.54-.44c-.22-.11-.52-.25-.9-.4a10.9,10.9,0,0,1-1.21-.53,2.35,2.35,0,0,1-.79-.72,2,2,0,0,1-.34-1.21,2.28,2.28,0,0,1,.35-1.27,2.18,2.18,0,0,1,1-.77,3.19,3.19,0,0,1,1.29-.25,3.88,3.88,0,0,1,2.09.6.17.17,0,0,1,.07.09.16.16,0,0,1,0,.12l-.27.5a.18.18,0,0,1-.1.09.16.16,0,0,1-.15,0,3.09,3.09,0,0,0-1.61-.48,1.82,1.82,0,0,0-1.17.36,1.21,1.21,0,0,0-.43,1,1.18,1.18,0,0,0,.21.72,1.69,1.69,0,0,0,.54.45,9,9,0,0,0,.9.39c.07,0,.34.14.81.32a2.43,2.43,0,0,1,1.12.8,2.09,2.09,0,0,1,.41,1.29,2.41,2.41,0,0,1-.35,1.3,2.32,2.32,0,0,1-1,.85,3.41,3.41,0,0,1-1.43.29A4.39,4.39,0,0,1,64.76,84.06Z"/><path class="cls-1" d="M71.5,83.73a2.5,2.5,0,0,1-1-1,2.6,2.6,0,0,1-.35-1.31V79.74a2.6,2.6,0,0,1,.35-1.31,2.65,2.65,0,0,1,1-1,2.67,2.67,0,0,1,2.61,0,2.65,2.65,0,0,1,1,1,2.6,2.6,0,0,1,.35,1.31v.82a.42.42,0,0,1-.13.31A.41.41,0,0,1,75,81H71.14v.53a1.65,1.65,0,0,0,.22.84,1.57,1.57,0,0,0,.6.6,1.66,1.66,0,0,0,.84.23h1.74a.13.13,0,0,1,.12,0,.13.13,0,0,1,0,.11v.56a.13.13,0,0,1,0,.12.17.17,0,0,1-.12,0H72.8A2.56,2.56,0,0,1,71.5,83.73Zm3-3.6v-.45a1.65,1.65,0,0,0-.22-.84A1.71,1.71,0,0,0,72.8,78a1.65,1.65,0,0,0-1.66,1.67v.45Z"/><path class="cls-1" d="M78.18,83.73a2.5,2.5,0,0,1-1-1,2.6,2.6,0,0,1-.35-1.31V79.74a2.6,2.6,0,0,1,.35-1.31,2.65,2.65,0,0,1,1-1,2.69,2.69,0,0,1,2.62,0,2.62,2.62,0,0,1,.94,1,2.5,2.5,0,0,1,.35,1.31v.82a.41.41,0,0,1-.43.43H77.82v.53a1.65,1.65,0,0,0,.22.84,1.53,1.53,0,0,0,.61.6,1.6,1.6,0,0,0,.84.23h1.74a.13.13,0,0,1,.12,0,.16.16,0,0,1,.05.11v.56a.17.17,0,0,1-.17.17H79.49A2.6,2.6,0,0,1,78.18,83.73Zm3-3.6v-.45a1.66,1.66,0,0,0-.23-.84,1.57,1.57,0,0,0-.6-.6,1.66,1.66,0,0,0-.84-.23,1.71,1.71,0,0,0-1.45.83,1.65,1.65,0,0,0-.22.84v.45Z"/><path class="cls-1" d="M84.82,83.89A2.44,2.44,0,0,1,83.9,83a2.47,2.47,0,0,1-.33-1.26V79.63a2.46,2.46,0,0,1,.33-1.25,2.49,2.49,0,0,1,2.19-1.25,2.59,2.59,0,0,1,1,.18,2.4,2.4,0,0,1,.81.5V75.13A.21.21,0,0,1,87.9,75,.16.16,0,0,1,88,75h.6a.16.16,0,0,1,.12,0,.21.21,0,0,1,.05.12v8.78a.17.17,0,0,1-.17.17h-.55a.17.17,0,0,1-.17-.17v-.53a2.28,2.28,0,0,1-.81.63,2.33,2.33,0,0,1-1,.22A2.38,2.38,0,0,1,84.82,83.89Zm2.2-.77a1.62,1.62,0,0,0,.61-.61,1.6,1.6,0,0,0,.22-.84v-2a1.65,1.65,0,0,0-.22-.84,1.6,1.6,0,0,0-.61-.6,1.67,1.67,0,0,0-1.69,0,1.57,1.57,0,0,0-.6.6,1.66,1.66,0,0,0-.23.84v2a1.71,1.71,0,0,0,.83,1.45,1.73,1.73,0,0,0,1.69,0Z"/></g></svg>