<?xml version="1.0" encoding="utf-8"?>
<!-- Generator: Adobe Illustrator 22.0.1, SVG Export Plug-In . SVG Version: 6.00 Build 0)  -->
<svg version="1.1" xmlns="http://www.w3.org/2000/svg" xmlns:xlink="http://www.w3.org/1999/xlink" x="0px" y="0px"
	 viewBox="0 0 612 792" style="enable-background:new 0 0 612 792;" xml:space="preserve">
<style type="text/css">
	.st0{fill:#FFFFFF;}
	.st1{font-family:'MiriamLibre-Regular';}
	.st2{font-size:12px;}
	.st3{fill:none;stroke:#000000;stroke-width:0.25;stroke-miterlimit:10;}
	.st4{font-size:8px;}
</style>
<g id="Layer_1">
	<rect x="27" y="747" class="st0" width="27" height="27"/>
</g>
<g id="Layer_2">
	<g>
		<text transform="matrix(1 0 0 1 54 765)" class="st1 st2">COMP FORM</text>
		<polygon points="38.6,760.5 36,765 41.2,765 		"/>
		<polygon points="41.2,756 38.6,760.5 43.8,760.5 		"/>
		<g>
			<g>
				<polygon points="42.5,762.8 41.2,765 43.8,765 				"/>
				<polygon points="45.1,762.8 43.8,765 46.4,765 				"/>
			</g>
			<polygon points="43.8,760.5 42.5,762.8 45.1,762.8 			"/>
		</g>
	</g>
	<text transform="matrix(1 0 0 1 36 45)"><tspan x="0" y="0" class="st1 st2">One fish</tspan><tspan x="0" y="21" class="st1 st2">Two fish</tspan><tspan x="0" y="42" class="st1 st2">Red fish</tspan><tspan x="0" y="63" class="st1 st2">Blue fish.</tspan><tspan x="0" y="105" class="st1 st2">Black fish</tspan><tspan x="0" y="126" class="st1 st2">Blue fish</tspan><tspan x="0" y="147" class="st1 st2">Old fish</tspan><tspan x="0" y="168" class="st1 st2">New fish.</tspan><tspan x="0" y="210" class="st1 st2">This one has a little star.</tspan><tspan x="0" y="231" class="st1 st2">This one has a little car.</tspan><tspan x="0" y="273" class="st1 st2">Say! What a lot</tspan><tspan x="0" y="294" class="st1 st2">Of fish there are.</tspan><tspan x="0" y="336" class="st1 st2">Dr. Seuss</tspan></text>
	<rect x="252" y="36" class="st3" width="288" height="18"/>
	<rect x="252" y="63" class="st3" width="288" height="18"/>
	<rect x="252" y="90" class="st3" width="288" height="18"/>
	<rect x="252" y="117" class="st3" width="288" height="18"/>
	<rect x="252" y="144" class="st3" width="288" height="18"/>
	<rect x="252" y="171" class="st3" width="288" height="18"/>
	<rect x="252" y="198" class="st3" width="288" height="18"/>
	<rect x="252" y="225" class="st3" width="288" height="18"/>
	<rect x="252" y="252" class="st3" width="288" height="18"/>
	<rect x="252" y="279" class="st3" width="288" height="18"/>
	<rect x="252" y="306" class="st3" width="288" height="18"/>
	<rect x="252" y="333" class="st3" width="288" height="18"/>
	<rect x="252" y="360" class="st3" width="288" height="18"/>
	<rect x="252" y="387" class="st3" width="288" height="18"/>
	<rect x="252" y="414" class="st3" width="288" height="18"/>
	<rect x="252" y="441" class="st3" width="288" height="18"/>
	<rect x="252" y="468" class="st3" width="288" height="18"/>
	<rect x="252" y="495" class="st3" width="288" height="18"/>
	<rect x="252" y="522" class="st3" width="288" height="18"/>
	<rect x="252" y="549" class="st3" width="288" height="18"/>
	<rect x="252" y="576" class="st3" width="288" height="18"/>
	<text transform="matrix(1 0 0 1 229.2803 45)" class="st1 st4">one</text>
	<text transform="matrix(1 0 0 1 228.3921 71.9999)" class="st1 st4">fish</text>
	<text transform="matrix(1 0 0 1 228.0161 98.9998)" class="st1 st4">two</text>
	<text transform="matrix(1 0 0 1 230.1201 126.0001)" class="st1 st4">red</text>
	<text transform="matrix(1 0 0 1 226.2725 153)" class="st1 st4">blue</text>
	<text transform="matrix(1 0 0 1 222.7686 179.9999)" class="st1 st4">black</text>
	<text transform="matrix(1 0 0 1 230.9683 206.9997)" class="st1 st4">old</text>
	<text transform="matrix(1 0 0 1 226.8643 234.0001)" class="st1 st4">new</text>
	<text transform="matrix(1 0 0 1 227.8003 261)" class="st1 st4">this</text>
	<text transform="matrix(1 0 0 1 229.2803 287.9999)" class="st1 st4">one</text>
	<text transform="matrix(1 0 0 1 230.0083 314.9998)" class="st1 st4">has</text>
	<text transform="matrix(1 0 0 1 238.52 342.0001)" class="st1 st4">a</text>
	<text transform="matrix(1 0 0 1 222.7124 368.9999)" class="st1 st4">little</text>
	<text transform="matrix(1 0 0 1 227.5122 395.9995)" class="st1 st4">star</text>
	<text transform="matrix(1 0 0 1 230.8799 422.9993)" class="st1 st4">car</text>
	<text transform="matrix(1 0 0 1 230.4961 449.9996)" class="st1 st4">say</text>
	<text transform="matrix(1 0 0 1 223.2959 477)" class="st1 st4">what</text>
	<text transform="matrix(1 0 0 1 232.144 503.9998)" class="st1 st4">lot</text>
	<text transform="matrix(1 0 0 1 235.2241 530.9998)" class="st1 st4">of</text>
	<text transform="matrix(1 0 0 1 222.0884 558)" class="st1 st4">there</text>
	<text transform="matrix(1 0 0 1 230.3604 585)" class="st1 st4">are</text>
</g>
</svg>
