<?xml version="1.0" encoding="utf-8"?>
<!-- Generator: Adobe Illustrator 22.0.1, SVG Export Plug-In . SVG Version: 6.00 Build 0)  -->
<svg version="1.1" id="Layer_1" xmlns="http://www.w3.org/2000/svg" xmlns:xlink="http://www.w3.org/1999/xlink" x="0px" y="0px"
	 viewBox="0 0 500 500" style="enable-background:new 0 0 500 500;" xml:space="preserve">
<style type="text/css">
	.st0{fill:none;stroke:#231F20;stroke-miterlimit:10;}
</style>
<g>
	<path class="st0" d="M24,137.7l50-79.2l50,55.1l50-63.5l50,82.6L274,77l50,32.5l50-28.8L424,50l50,18.2"/>
</g>
<g>
	<g>
		<g>
			<path class="st0" d="M24,299.7l40.4-64c5.3-8.4,15.1-9.2,21.7-1.9l25.8,28.4c6.7,7.3,17.1,7,23.2-0.8l27.7-35.2
				c6.1-7.8,15.3-7.2,20.5,1.3l31.4,51.8c5.1,8.5,14.7,9.4,21.3,2l26-28.9c6.6-7.4,18.8-9,27.1-3.6l19.8,12.9
				c8.3,5.4,22.1,5.8,30.7,0.8l18.8-10.8c8.6-4.9,22.5-13.2,30.9-18.4l19.3-11.9c8.4-5.2,23-6.7,32.3-3.3l33.1,12"/>
		</g>
	</g>
</g>
<g>
	<g>
		<line class="st0" x1="26.4" y1="417.1" x2="32.8" y2="446"/>
		<line class="st0" x1="20.8" y1="426" x2="24" y2="440.4"/>
		<line class="st0" x1="35.3" y1="422.6" x2="38.5" y2="437.1"/>
		<line class="st0" x1="39.7" y1="425.4" x2="41.3" y2="432.7"/>
		<line class="st0" x1="30.8" y1="419.8" x2="35.7" y2="441.6"/>
		<line class="st0" x1="23.6" y1="421.5" x2="28.4" y2="443.2"/>
		<line class="st0" x1="18" y1="430.4" x2="19.6" y2="437.6"/>
	</g>
	<g>
		<line class="st0" x1="37.8" y1="399.1" x2="44.2" y2="428"/>
		<line class="st0" x1="32.2" y1="408" x2="35.4" y2="422.5"/>
		<line class="st0" x1="46.6" y1="404.7" x2="49.8" y2="419.1"/>
		<line class="st0" x1="51" y1="407.4" x2="52.6" y2="414.7"/>
		<line class="st0" x1="42.2" y1="401.9" x2="47" y2="423.6"/>
		<line class="st0" x1="35" y1="403.5" x2="39.8" y2="425.2"/>
		<line class="st0" x1="29.3" y1="412.4" x2="31" y2="419.7"/>
	</g>
	<g>
		<line class="st0" x1="49.1" y1="381.1" x2="55.5" y2="410.1"/>
		<line class="st0" x1="43.5" y1="390" x2="46.7" y2="404.5"/>
		<line class="st0" x1="57.9" y1="386.7" x2="61.2" y2="401.2"/>
		<line class="st0" x1="62.4" y1="389.5" x2="64" y2="396.7"/>
		<line class="st0" x1="53.5" y1="383.9" x2="58.3" y2="405.6"/>
		<line class="st0" x1="46.3" y1="385.6" x2="51.1" y2="407.3"/>
		<line class="st0" x1="40.7" y1="394.5" x2="42.3" y2="401.7"/>
	</g>
	<g>
		<path class="st0" d="M67.3,360.9c-2.3,2.8-3.6,5.9-4.1,8.8c-0.5,2.9-0.2,5.6,0.4,7.9l3.2,14.5"/>
		<line class="st0" x1="54.8" y1="372" x2="58.1" y2="386.5"/>
		<path class="st0" d="M71.2,370.6c-1,2.3-1.1,4.6-0.7,6.6c0.1,0.5,0.2,1,0.4,1.5c0.2,0.5,0.3,0.9,0.5,1.4c0.2,0.5,0.4,0.9,0.7,1.3
			c0.2,0.6,0.3,1.2,0.4,1.8"/>
		<path class="st0" d="M73.2,375.4c-0.3,2,0.1,3.9,1,5.5"/>
		<path class="st0" d="M69.3,365.7c-2.5,3.9-2.8,7.9-2,11.3c0.2,0.9,0.5,1.5,0.7,2.5l0.6,2.7l1.2,5.4"/>
		<path class="st0" d="M59.6,366c-0.4,1.2-0.5,2.5-0.7,3.6c-0.1,1.2-0.1,2.3,0,3.4l1.2,5.4l2.4,10.9"/>
		<line class="st0" x1="52" y1="376.5" x2="53.6" y2="383.7"/>
	</g>
	<g>
		<path class="st0" d="M97,371.2l-3.7-0.2l-1.9-0.1c-0.6,0-1.2,0-2-0.2c-2.8-0.5-5.6-0.3-7.9,0.4c-2.4,0.7-4.3,2.1-5.4,3.8
			c-1.1,1.7-1.4,3.6-1,5.3"/>
		<path class="st0" d="M86.4,361.9c-0.9,0-1.7,0.1-2.6,0.2c-0.9,0.1-1.7,0.3-2.5,0.5c-0.8,0.2-1.6,0.5-2.3,0.8
			c-0.7,0.3-1.4,0.7-2.1,1.1c-2.6,1.6-4.5,3.7-5.5,6"/>
		<path class="st0" d="M89.3,378.2l-3.7-0.2l-1.9-0.1c-0.6,0-1.3-0.1-1.8,0c-2.1,0.2-4,1.2-5.2,2.5"/>
		<path class="st0" d="M85.4,381.7l-3.7-0.2l-1.9-0.1c-0.6,0-1.3-0.2-1.7,0.1"/>
		<path class="st0" d="M93.2,374.7l-5.6-0.3c-0.9-0.1-1.9-0.1-2.8-0.1c-0.9,0-1.8,0.1-2.6,0.3c-0.8,0.1-1.6,0.5-2.3,0.8
			c-0.7,0.4-1.4,0.8-1.9,1.2c-0.6,0.5-1,1-1.4,1.6c-0.2,0.3-0.3,0.6-0.5,0.9c-0.1,0.3-0.2,0.7-0.3,1"/>
		<path class="st0" d="M93.3,367.1c-4.7-1.2-9.6-1.1-13.4,0.5c-1.9,0.9-3.5,1.9-4.6,3.3c-0.6,0.6-1,1.4-1.3,2.1
			c-0.3,0.8-0.6,1.5-0.7,2.2"/>
		<path class="st0" d="M77.3,359.3c-3.4,1.5-6.1,3.8-7.8,6.3"/>
	</g>
	<g>
		<line class="st0" x1="111.3" y1="386.9" x2="81.7" y2="385.4"/>
		<line class="st0" x1="104.2" y1="379.1" x2="89.4" y2="378.4"/>
		<line class="st0" x1="103.6" y1="393.9" x2="88.8" y2="393.2"/>
		<line class="st0" x1="99.7" y1="397.5" x2="92.3" y2="397.1"/>
		<line class="st0" x1="107.4" y1="390.4" x2="85.2" y2="389.3"/>
		<line class="st0" x1="107.8" y1="383" x2="85.6" y2="381.9"/>
		<line class="st0" x1="100.7" y1="375.2" x2="93.3" y2="374.9"/>
	</g>
	<g>
		<path class="st0" d="M122.2,397.7c-0.9,1.5-2.5,2.8-4.5,3.5c-1,0.3-2.1,0.6-3.2,0.7c-1.1,0.1-2.4,0-3.6,0L96,401.1"/>
		<line class="st0" x1="118.5" y1="394.9" x2="103.7" y2="394.1"/>
		<path class="st0" d="M119.3,407.8c-2.2,1.2-4.8,1.9-7.8,2c-1.4,0-3-0.1-4.4-0.4l-1.1-0.2l-0.6-0.1c-0.2,0-0.3,0-0.5,0l-1.9-0.1"/>
		<path class="st0" d="M117.9,412.8c-2.8,1-6,1.5-9.4,1.2"/>
		<path class="st0" d="M120.7,402.8c-2.3,2.1-6,3.2-10,2.9c-0.5,0-1-0.1-1.5-0.1l-1.4-0.1l-2.8-0.1l-5.6-0.3"/>
		<path class="st0" d="M120.7,397c-0.6,0.4-1.2,0.7-1.9,1c-0.3,0.1-0.7,0.2-1.1,0.3c-0.4,0.1-0.7,0.2-1.2,0.2l-5.6-0.3l-11.1-0.6"/>
		<line class="st0" x1="115" y1="391" x2="107.6" y2="390.6"/>
	</g>
	<g>
		<path class="st0" d="M129.1,393.1l0.4,3.7c0.1,1.4,0.5,2.1,0.7,3.2c0.4,2.1,0.3,4.4-0.4,6.8c-0.8,2.3-2.2,4.7-4.4,6.7
			c-1.1,1-2.4,1.9-3.8,2.7c-1.4,0.7-3,1.4-4.7,1.8"/>
		<path class="st0" d="M125,397.4c0.3,1.8,0.1,3.7-0.8,5.6c-0.5,0.9-1.1,1.8-1.9,2.6c-0.8,0.8-1.7,1.5-2.8,2.1"/>
		<path class="st0" d="M137.3,399.5l0.4,3.7c0.2,1.2,0.1,2.6,0,4c-0.4,2.8-1.3,5.9-3.2,8.8"/>
		<path class="st0" d="M141.4,402.8l0.4,3.7c0.3,1.1-0.1,2.8-0.3,4.4"/>
		<path class="st0" d="M133.2,396.3l0.6,5.5c0.1,0.9,0.2,1.8,0.1,2.7c0,0.9-0.1,1.9-0.4,2.9c-0.9,3.9-3.4,8.1-7.7,11.2"/>
		<path class="st0" d="M126.4,396.4c1.2,2.5,1.4,5.7,0.1,8.9c-1.3,3.2-4.2,6.1-8.4,7.7"/>
		<path class="st0" d="M123.6,397.9c-0.1,0.9-0.4,1.8-0.9,2.6c-0.5,0.8-1.1,1.6-1.8,2.3"/>
	</g>
	<g>
		<line class="st0" x1="142.2" y1="376.4" x2="145.6" y2="405.8"/>
		<line class="st0" x1="135.7" y1="384.6" x2="137.4" y2="399.4"/>
		<line class="st0" x1="150.4" y1="382.8" x2="152.1" y2="397.6"/>
		<line class="st0" x1="154.5" y1="386.1" x2="155.4" y2="393.4"/>
		<line class="st0" x1="146.3" y1="379.6" x2="148.8" y2="401.7"/>
		<line class="st0" x1="139" y1="380.5" x2="141.5" y2="402.6"/>
		<line class="st0" x1="132.4" y1="388.8" x2="133.3" y2="396.1"/>
	</g>
	<g>
		<path class="st0" d="M155.8,359.2l-0.2,1.2l-0.1,0.6c0,0.2-0.1,0.4,0,0.5l0.2,1.8l0.4,3.7l0.8,7.4l1.7,14.7"/>
		<line class="st0" x1="148.8" y1="367.9" x2="150.5" y2="382.7"/>
		<path class="st0" d="M163.6,366.2c0.5,4.8,1.1,9.8,1.6,14.7"/>
		<path class="st0" d="M167.5,369.7c0.1,0.5,0.3,1,0.4,1.5l0.2,1.8l0.4,3.7"/>
		<path class="st0" d="M159.7,362.7c0,0.5-0.1,1.1-0.1,1.6c0,0.5,0.1,0.9,0.1,1.4l0.3,2.8l0.6,5.5l1.3,11"/>
		<line class="st0" x1="152.1" y1="363.8" x2="154.6" y2="385.9"/>
		<line class="st0" x1="145.6" y1="372.1" x2="146.4" y2="379.4"/>
	</g>
	<g>
		<path class="st0" d="M190,359.8c-3.1-1.2-6.5-1.7-9.5-1.4c-3.1,0.3-5.8,1.5-7.6,3.2c-1.8,1.7-2.6,3.9-2.7,5.9
			c-0.1,2,0.4,3.9,1.2,5.6"/>
		<path class="st0" d="M173.1,351.2c-3.5,1.7-6.2,4.3-7.6,7c-1.4,2.7-1.9,5.4-1.8,7.9"/>
		<path class="st0" d="M181.9,366.4c-2.4-0.3-4.8,0.1-6.5,1.1c-1.7,1.1-2.6,2.8-2.6,4.5"/>
		<path class="st0" d="M177.8,369.7c-2.1,0.1-4,1-5,2.4"/>
		<path class="st0" d="M186,363.1c-4.2-1.1-8.5-0.7-11.1,1.4c-1.3,1-2.2,2.3-2.5,3.7c-0.1,0.3-0.1,0.7-0.2,1c0,0.4,0,0.7,0,1
			c0,0.2,0,0.3,0.1,0.5c0,0.2,0,0.3,0.1,0.5c0.1,0.3,0.1,0.6,0.3,0.9"/>
		<path class="st0" d="M183,353.9c-1.3-0.1-2.9,0.1-4.1,0.3c-1.3,0.3-2.6,0.6-3.7,1.1c-2.3,0.9-4.1,2.5-5.4,4.1
			c-2.6,3.4-2.8,7.1-2.2,10.2"/>
		<path class="st0" d="M163.2,353.5c-2.1,3-3,6.2-3.3,9"/>
	</g>
	<g>
		<path class="st0" d="M202,379.1l-14.4-3.6l-7.2-1.8l-3.6-0.9c-0.6-0.2-1.1-0.1-1.6-0.1c-0.5,0.1-0.9,0.1-1.4,0.3"/>
		<path class="st0" d="M196.5,370.1l-7.2-1.8l-3.6-0.9l-1.9-0.5c-0.6-0.1-1.2-0.3-1.8-0.3"/>
		<line class="st0" x1="193.1" y1="384.5" x2="178.7" y2="380.9"/>
		<line class="st0" x1="188.6" y1="387.2" x2="181.4" y2="385.4"/>
		<line class="st0" x1="197.5" y1="381.8" x2="176" y2="376.4"/>
		<path class="st0" d="M199.3,374.6l-10.8-2.7l-5.4-1.3c-0.9-0.2-1.8-0.5-2.7-0.6c-0.9-0.1-1.7-0.2-2.5-0.1"/>
		<path class="st0" d="M193.8,365.6l-3.6-0.9c-0.6-0.1-1.3-0.4-2-0.7c-0.7-0.2-1.3-0.5-2.1-0.7"/>
	</g>
	<g>
		<line class="st0" x1="213" y1="397.3" x2="184.2" y2="390.1"/>
		<line class="st0" x1="207.5" y1="388.3" x2="193.2" y2="384.7"/>
		<line class="st0" x1="204.1" y1="402.7" x2="189.7" y2="399.1"/>
		<line class="st0" x1="199.6" y1="405.4" x2="192.4" y2="403.6"/>
		<line class="st0" x1="208.5" y1="400" x2="187" y2="394.6"/>
		<line class="st0" x1="210.3" y1="392.8" x2="188.7" y2="387.4"/>
		<line class="st0" x1="204.8" y1="383.8" x2="197.6" y2="382"/>
	</g>
	<g>
		<path class="st0" d="M223.8,415c-0.2,0-0.5,0.1-0.7,0.1l-0.2,0l-0.2-0.1l-0.4-0.1l-1.8-0.4l-3.6-0.9l-7.2-1.8l-14.4-3.6"/>
		<line class="st0" x1="218.6" y1="406.4" x2="204.2" y2="402.8"/>
		<path class="st0" d="M215.1,420.8c-4.9-1.2-9.6-2.4-14.4-3.6"/>
		<path class="st0" d="M210.8,423.7c-1.4-0.6-2.5-0.8-3.8-1.1l-3.6-0.9"/>
		<path class="st0" d="M219.4,417.9c-0.4,0-0.8,0-1.3-0.1l-1.3-0.3l-2.7-0.7l-5.4-1.3l-10.8-2.7"/>
		<line class="st0" x1="221.3" y1="410.9" x2="199.7" y2="405.5"/>
		<line class="st0" x1="215.8" y1="401.9" x2="208.6" y2="400.1"/>
	</g>
	<g>
		<path class="st0" d="M227.2,416.1c0.6,1.7,0.8,3.7,0.2,5.6c-0.5,2-1.8,3.9-3.9,5.2c-2.1,1.4-4.8,2.1-7.8,2.1c-3,0-6.2-0.8-9.2-2.1
			"/>
		<path class="st0" d="M225.6,416.7c-0.5,1.7-1.8,3.1-3.7,3.9c-1.9,0.8-4.3,0.9-6.7,0.4"/>
		<path class="st0" d="M233.5,424.4c-0.4,2.4-1.4,5-3.4,7.4c-2,2.3-4.9,4.3-8.6,5.4"/>
		<path class="st0" d="M236.6,428.6c-0.8,2.8-2.5,5.7-5.2,8.2"/>
		<path class="st0" d="M230.4,420.3c0,0.8,0,1.6-0.1,2.4c-0.1,0.8-0.3,1.7-0.7,2.5c-0.2,0.4-0.3,0.8-0.6,1.2
			c-0.2,0.4-0.5,0.8-0.7,1.2c-0.5,0.8-1.2,1.5-2,2.2c-1.6,1.3-3.6,2.5-6,3c-1.2,0.3-2.4,0.5-3.7,0.6c-1.2,0-2.6,0-3.9-0.1"/>
		<path class="st0" d="M226.2,416.6c0,0.3,0.1,0.7,0,1c0,0.4,0,0.6-0.1,1c-0.1,0.7-0.3,1.3-0.7,2c-0.7,1.2-1.8,2.4-3.3,3.1
			c-3,1.6-7.2,1.6-11.3,0.2"/>
		<path class="st0" d="M225,416.3c-1.3,1.2-3.3,1.8-5.4,1.7"/>
	</g>
	<g>
		<path class="st0" d="M240.2,401.9l0.7,14.8l0.4,7.4l0.1,1.9l0,0.9c0,0.3-0.1,0.7-0.1,1.1c-0.1,0.7-0.3,1.5-0.5,2.3
			c-0.2,0.8-0.5,1.5-0.8,2.3"/>
		<path class="st0" d="M233.1,409.7l0.4,7.4l0.1,1.9l0,0.9c0,0.3,0.1,0.6,0.1,0.8c0,0.6,0.1,1.2,0.1,1.8c0,0.6-0.1,1.2-0.1,1.8"/>
		<line class="st0" x1="247.9" y1="408.8" x2="248.7" y2="423.7"/>
		<line class="st0" x1="251.8" y1="412.3" x2="252.2" y2="419.7"/>
		<line class="st0" x1="244" y1="405.4" x2="245.2" y2="427.6"/>
		<path class="st0" d="M236.6,405.8l0.6,11.1l0.3,5.6c0.1,0.9,0,1.9-0.1,2.9c-0.1,1-0.3,2-0.6,3.1"/>
		<path class="st0" d="M229.6,413.6l0.1,1.9l0,0.9c0,0.3,0.1,0.5,0.2,0.7c0.1,0.5,0.3,1,0.4,1.5c0.1,0.5,0.1,1,0.2,1.5"/>
	</g>
	<g>
		<path class="st0" d="M254.5,386c0,0.2-0.1,0.4-0.1,0.6l0,0.5l0,0.9l0.1,1.9l0.2,3.7l0.4,7.4l0.7,14.8"/>
		<line class="st0" x1="247.3" y1="393.9" x2="248.1" y2="408.7"/>
		<line class="st0" x1="262.1" y1="393" x2="262.9" y2="407.8"/>
		<path class="st0" d="M266,396.6c0.1,0.2,0.1,0.5,0.1,0.9l0,0.9l0.1,1.9l0.2,3.7"/>
		<path class="st0" d="M258.3,389.5c-0.1,0.5,0,1,0,1.4l0.1,1.4l0.1,2.8l0.3,5.6l0.6,11.1"/>
		<line class="st0" x1="250.8" y1="390" x2="251.9" y2="412.2"/>
		<line class="st0" x1="243.8" y1="397.8" x2="244.2" y2="405.2"/>
	</g>
	<g>
		<path class="st0" d="M283.3,376.5c-5.7,2.5-9.8,6.7-12.2,11c-1.2,2.2-1.9,4.4-2.1,6.6c-0.2,2.2,0,4.2,0.8,6"/>
		<path class="st0" d="M268.1,377.5c-1.9,2.4-3.4,5-4.4,7.6c-1,2.7-1.5,5.3-1.4,7.8"/>
		<path class="st0" d="M281.6,386.8c-4,2.8-6.6,6.8-7.3,10.7"/>
		<path class="st0" d="M280.7,391.9c-1.6,1.5-2.8,3.2-3.7,5"/>
		<path class="st0" d="M282.4,381.6c-7.3,4.1-11.1,11.1-10.7,16.9"/>
		<path class="st0" d="M275.6,376.1c-3.6,2.9-6.3,6.3-8,9.9c-1.6,3.6-2.2,7.3-1.6,10.5"/>
		<path class="st0" d="M261,380.7c-1.3,2.9-2.2,5.8-2.5,8.6"/>
	</g>
	<g>
		<path class="st0" d="M305.8,388.1l-14.5,3l-3.6,0.8c-1.1,0.4-2.1,0.7-3.1,1.3c-1.9,1-3.5,2.4-4.6,4"/>
		<path class="st0" d="M297,382.3l-3.6,0.8c-1.5,0.1-3,0.2-4.4,0.6c-2.7,0.6-5.2,1.8-7.2,3.1"/>
		<line class="st0" x1="300.1" y1="396.8" x2="285.6" y2="399.8"/>
		<line class="st0" x1="297.3" y1="401.2" x2="290" y2="402.7"/>
		<path class="st0" d="M302.9,392.4l-10.9,2.3l-5.4,1.1c-0.9,0.2-1.9,0.3-2.5,0.7c-0.6,0.4-1.2,0.8-1.8,1.3"/>
		<path class="st0" d="M301.4,385.2l-10.9,2.3c-4,0.6-7.2,2.3-9.7,4.5"/>
		<path class="st0" d="M291.2,378.9c-3.2,0.4-6,1.4-8.5,2.7"/>
	</g>
	<g>
		<path class="st0" d="M320.7,396c-3,3-6.8,5.5-11.6,6.7l-14.5,3"/>
		<path class="st0" d="M314.7,393.8c-0.1,0.1-0.2,0.1-0.4,0.2l-0.5,0.1l-0.9,0.2l-1.8,0.4l-3.6,0.8l-7.3,1.5"/>
		<path class="st0" d="M318.9,406.3c-4.1,2.8-9.1,5-15.4,5.2"/>
		<path class="st0" d="M318,411.4c-2.3,1.4-4.9,2.5-7.7,3.4"/>
		<path class="st0" d="M319.8,401.1c-2.6,2.2-5.8,4-9.5,5.1c-0.5,0.1-1,0.3-1.4,0.4c-0.5,0.1-1,0.2-1.5,0.3l-1.5,0.2l-1.4,0.3
			l-5.4,1.1"/>
		<path class="st0" d="M317.4,395.1c-0.6,0.5-1.3,0.9-1.9,1.3c-0.6,0.4-1.4,0.8-2.1,1.1c-0.4,0.2-0.7,0.3-1.1,0.5
			c-0.4,0.2-0.8,0.3-1.2,0.4l-2.7,0.6l-10.9,2.3"/>
		<line class="st0" x1="310.4" y1="391.1" x2="303.1" y2="392.6"/>
	</g>
	<g>
		<path class="st0" d="M334.4,394.3c0.2,3.9-1.7,8.4-4.8,12.2c-3,3.9-7.1,7.4-12.2,10.1"/>
		<path class="st0" d="M328.2,396.2c-2,3.8-5.1,7.3-9.1,10.1"/>
		<path class="st0" d="M339.6,403.4c-1.3,4.7-4.5,9.5-8.6,13.5"/>
		<path class="st0" d="M342.2,407.9c-1,2.6-2.5,5.2-4.3,7.5"/>
		<path class="st0" d="M337,398.8c-0.4,3.2-2,6.7-4.2,9.8c-2.2,3.2-5.2,6.1-8.6,8.6"/>
		<path class="st0" d="M331.6,395.4c-0.8,3-2.5,6-4.8,8.7c-2.3,2.7-5.2,5.2-8.6,7.3"/>
		<path class="st0" d="M324.6,396.4c-1.3,1.7-2.8,3.3-4.6,4.8"/>
	</g>
	<g>
		<line class="st0" x1="352.8" y1="383.7" x2="345" y2="412.3"/>
		<line class="st0" x1="343.7" y1="389" x2="339.7" y2="403.3"/>
		<line class="st0" x1="358" y1="392.8" x2="354.1" y2="407"/>
		<line class="st0" x1="360.6" y1="397.3" x2="358.6" y2="404.4"/>
		<line class="st0" x1="355.4" y1="388.2" x2="349.5" y2="409.7"/>
		<line class="st0" x1="348.2" y1="386.3" x2="342.3" y2="407.8"/>
		<line class="st0" x1="339.1" y1="391.6" x2="337.1" y2="398.7"/>
	</g>
	<g>
		<path class="st0" d="M370.9,372.9c-2.4,9.5-4.9,19.1-7.5,28.8"/>
		<line class="st0" x1="361.9" y1="378.3" x2="358.2" y2="392.6"/>
		<line class="st0" x1="376.3" y1="381.9" x2="372.5" y2="396.3"/>
		<line class="st0" x1="378.9" y1="386.4" x2="377.1" y2="393.6"/>
		<path class="st0" d="M373.6,377.4c-1.8,7.2-3.7,14.4-5.6,21.6"/>
		<path class="st0" d="M366.4,375.6c-1.8,7.2-3.7,14.4-5.6,21.6"/>
		<line class="st0" x1="357.4" y1="380.9" x2="355.6" y2="388.1"/>
	</g>
	<g>
		<path class="st0" d="M389,362.1c-2.3,9.6-4.7,19.1-7.2,28.7"/>
		<line class="st0" x1="380" y1="367.5" x2="376.4" y2="381.8"/>
		<path class="st0" d="M394.5,371c-1.2,4.8-2.3,9.6-3.6,14.4"/>
		<line class="st0" x1="397.2" y1="375.4" x2="395.5" y2="382.6"/>
		<path class="st0" d="M391.7,366.5c-1.7,7.2-3.5,14.3-5.4,21.5"/>
		<path class="st0" d="M384.5,364.8c-1.8,7.1-3.6,14.3-5.4,21.5"/>
		<line class="st0" x1="375.6" y1="370.2" x2="373.8" y2="377.3"/>
	</g>
	<g>
		<path class="st0" d="M408.9,350.5c-0.7,1.2-1.4,2.5-2,3.8c-0.3,0.6-0.6,1.3-0.9,2l-0.4,1c-0.1,0.3-0.2,0.6-0.2,0.9l-1.8,7.2
			l-3.5,14.4"/>
		<line class="st0" x1="398.2" y1="356.4" x2="394.7" y2="370.8"/>
		<path class="st0" d="M412.8,360.2c-0.5,1.1-0.9,2.3-1.2,3.4c-0.2,0.6-0.3,1.1-0.4,1.7l-0.1,0.8l-0.2,0.9l-1.8,7.2"/>
		<path class="st0" d="M414.8,365c-0.4,1.1-0.6,2.2-0.8,3.2c-0.1,0.5-0.1,1.1-0.1,1.6l0,0.8c0,0.3-0.1,0.6-0.2,0.9"/>
		<path class="st0" d="M410.8,355.4c-0.5,0.9-0.9,1.8-1.3,2.7c-0.4,0.9-0.7,1.8-1,2.7c-0.5,1.8-0.9,3.6-1.4,5.4l-2.6,10.8"/>
		<line class="st0" x1="402.6" y1="353.7" x2="397.4" y2="375.3"/>
		<line class="st0" x1="393.7" y1="359.2" x2="391.9" y2="366.4"/>
	</g>
	<g>
		<path class="st0" d="M434.8,347c-4.8,3-8.6,6.7-11.6,10.5c-3,3.9-5.3,8.1-6.3,12.3"/>
		<path class="st0" d="M421.8,347.2c-3.8,4-6.9,8.4-8.9,12.9"/>
		<path class="st0" d="M433.7,357.4c-3.8,3.1-6.9,6.7-9.2,10.5"/>
		<path class="st0" d="M433.1,362.6c-0.8,0.8-1.7,1.6-2.4,2.4c-0.8,0.9-1.5,1.7-2.1,2.6"/>
		<path class="st0" d="M434.2,352.2c-3.2,2.3-5.9,4.9-8.2,7.7c-2.3,2.8-4.2,5.7-5.5,8.7"/>
		<path class="st0" d="M428.2,346.8c-3.2,2.7-5.9,5.6-8.1,8.7c-2.2,3.1-4.1,6.3-5.2,9.6"/>
		<path class="st0" d="M415.5,348.4c-1.7,2.2-3.2,4.5-4.4,6.9"/>
	</g>
	<g>
		<path class="st0" d="M457.5,353.9l-13.5,6.2c-2.2,1.1-4.7,2-6.4,3.3c-1.9,1.3-3.4,2.8-4.9,4.4"/>
		<path class="st0" d="M447.6,350.3l-3.4,1.6l-0.8,0.4l-1,0.4c-0.7,0.2-1.3,0.5-1.9,0.8c-2.5,1.2-4.6,2.5-6.6,4.1"/>
		<line class="st0" x1="453.9" y1="363.7" x2="440.4" y2="369.9"/>
		<line class="st0" x1="452.1" y1="368.6" x2="445.4" y2="371.7"/>
		<path class="st0" d="M455.7,358.8l-10.1,4.7l-5,2.3L438,367c-0.7,0.5-1.2,1-1.8,1.5"/>
		<path class="st0" d="M452.5,352.1l-10.1,4.7c-0.8,0.4-1.7,0.8-2.6,1.2c-0.8,0.4-1.6,0.9-2.4,1.4c-1.5,1-2.9,2.1-4.2,3.3"/>
		<path class="st0" d="M441.8,348.4c-2.8,1.1-5.2,2.4-7.4,3.9"/>
	</g>
	<g>
		<line class="st0" x1="477.4" y1="361.2" x2="450.5" y2="373.6"/>
		<line class="st0" x1="467.5" y1="357.6" x2="454.1" y2="363.8"/>
		<line class="st0" x1="473.9" y1="371" x2="460.4" y2="377.2"/>
		<line class="st0" x1="472.1" y1="375.9" x2="465.4" y2="379"/>
		<line class="st0" x1="475.7" y1="366.1" x2="455.5" y2="375.4"/>
		<line class="st0" x1="472.5" y1="359.4" x2="452.3" y2="368.7"/>
		<line class="st0" x1="462.6" y1="355.8" x2="455.9" y2="358.9"/>
	</g>
</g>
</svg>
