<svg xmlns="http://www.w3.org/2000/svg" viewBox="0 0 612 792"><defs><style>.cls-1{fill:#231f20;}.cls-2{fill:none;stroke:#231f20;stroke-miterlimit:10;stroke-width:0.25px;}</style></defs><title>dice_chart</title><g id="Layer_1" data-name="Layer 1"><path class="cls-1" d="M56.27,764.76a2.91,2.91,0,0,1-1.05-1.07,2.94,2.94,0,0,1-.38-1.46v-2.81a2.92,2.92,0,0,1,1.43-2.53,2.7,2.7,0,0,1,1.44-.4,3.35,3.35,0,0,1,1.19.22,3,3,0,0,1,1,.65.17.17,0,0,1,.06.14.25.25,0,0,1-.06.16l-.33.36a.27.27,0,0,1-.16.06.23.23,0,0,1-.18-.09,2.08,2.08,0,0,0-1.48-.57,1.78,1.78,0,0,0-.95.27,2.06,2.06,0,0,0-.93,1.73v2.81a2.06,2.06,0,0,0,.93,1.73,1.78,1.78,0,0,0,.95.27,2.08,2.08,0,0,0,1.48-.57.23.23,0,0,1,.18-.09.27.27,0,0,1,.16.06l.33.36a.21.21,0,0,1,.06.16.2.2,0,0,1-.06.14,2.83,2.83,0,0,1-1,.64,3.15,3.15,0,0,1-1.19.23A2.79,2.79,0,0,1,56.27,764.76Z"/><path class="cls-1" d="M62.74,764.76a2.89,2.89,0,0,1-1.07-1.07,2.77,2.77,0,0,1-.4-1.46v-2.8a2.77,2.77,0,0,1,.4-1.46,2.92,2.92,0,0,1,4-1.07A3,3,0,0,1,66.76,758a2.85,2.85,0,0,1,.39,1.46v2.8a2.85,2.85,0,0,1-.39,1.46,3,3,0,0,1-1.08,1.07,2.9,2.9,0,0,1-2.94,0Zm2.45-.8a2,2,0,0,0,.71-.74,1.94,1.94,0,0,0,.27-1v-2.8a1.94,1.94,0,0,0-.27-1,2,2,0,0,0-.71-.74,1.91,1.91,0,0,0-2,0,2.1,2.1,0,0,0-.71.74,1.93,1.93,0,0,0-.26,1v2.8a1.93,1.93,0,0,0,.26,1,2.1,2.1,0,0,0,.71.74,1.91,1.91,0,0,0,2,0Z"/><path class="cls-1" d="M72.83,765.11a.2.2,0,0,1-.09-.11l-2.3-6.67-.79,6.47a.22.22,0,0,1-.24.2h-.57a.18.18,0,0,1-.15-.07.19.19,0,0,1,0-.15l1-8a.11.11,0,0,1,0-.09.12.12,0,0,1,.09,0h.84a.23.23,0,0,1,.14,0,.18.18,0,0,1,.09.12l2.36,6.85,2.39-6.9a.14.14,0,0,1,.14-.11h.83a.25.25,0,0,1,.16.05.22.22,0,0,1,.08.15l1,7.92v0a.17.17,0,0,1-.05.13.18.18,0,0,1-.14.06h-.57a.31.31,0,0,1-.17,0,.21.21,0,0,1-.07-.15l-.8-6.45L73.8,765a.2.2,0,0,1-.09.11.24.24,0,0,1-.14,0H73A.27.27,0,0,1,72.83,765.11Z"/><path class="cls-1" d="M79.81,765a.17.17,0,0,1,0-.12v-7.74a.42.42,0,0,1,.13-.3.4.4,0,0,1,.31-.13h2a2.61,2.61,0,0,1,1.32.35,2.56,2.56,0,0,1,0,4.46,2.61,2.61,0,0,1-1.32.35H80.75v3a.17.17,0,0,1-.17.17h-.65A.17.17,0,0,1,79.81,765Zm2.34-4.05a1.66,1.66,0,0,0,0-3.32h-1.4v3.32Z"/><path class="cls-1" d="M86.5,765a.13.13,0,0,1,0-.12v-7.74a.41.41,0,0,1,.12-.3.42.42,0,0,1,.31-.13h4a.17.17,0,0,1,.17.17v.59a.21.21,0,0,1,0,.12.16.16,0,0,1-.12,0h-3.4v2.81H90a.17.17,0,0,1,.12.05.13.13,0,0,1,0,.12v.56a.17.17,0,0,1-.17.17H87.43v3.54a.13.13,0,0,1-.05.12.17.17,0,0,1-.12,0h-.64A.17.17,0,0,1,86.5,765Z"/><path class="cls-1" d="M93.55,764.76a2.92,2.92,0,0,1-1.08-1.07,2.85,2.85,0,0,1-.39-1.46v-2.8a2.85,2.85,0,0,1,.39-1.46A3,3,0,0,1,95,756.5a3,3,0,0,1,1.47.4A2.89,2.89,0,0,1,97.56,758a2.86,2.86,0,0,1,.4,1.46v2.8a2.86,2.86,0,0,1-.4,1.46,2.89,2.89,0,0,1-1.07,1.07,3,3,0,0,1-1.47.4A2.9,2.9,0,0,1,93.55,764.76ZM96,764a2.13,2.13,0,0,0,.72-.74,2,2,0,0,0,.26-1v-2.8a2,2,0,0,0-.26-1,2.13,2.13,0,0,0-.72-.74,1.9,1.9,0,0,0-1.95,0,2.13,2.13,0,0,0-.72.74,2,2,0,0,0-.26,1v2.8a2,2,0,0,0,.26,1A2.13,2.13,0,0,0,94,764,1.9,1.9,0,0,0,96,764Z"/><path class="cls-1" d="M100,765a.16.16,0,0,1,0-.12v-7.74a.41.41,0,0,1,.12-.3.42.42,0,0,1,.31-.13h2.09a2.51,2.51,0,0,1,1.23.32,2.43,2.43,0,0,1,1.2,2.1,2.31,2.31,0,0,1-.55,1.54,2.37,2.37,0,0,1-1.39.83l2,3.21a.28.28,0,0,1,0,.12.22.22,0,0,1-.07.16.23.23,0,0,1-.16.06h-.61a.2.2,0,0,1-.18-.11l-2.1-3.39h-.94v3.33a.17.17,0,0,1-.17.17h-.65A.21.21,0,0,1,100,765Zm2.4-4.38a1.48,1.48,0,0,0,1.08-.42,1.42,1.42,0,0,0,.42-1,1.45,1.45,0,0,0-1.5-1.52h-1.46v3Z"/><path class="cls-1" d="M110.56,765.11a.2.2,0,0,1-.09-.11l-2.3-6.67-.79,6.47a.28.28,0,0,1-.08.15.3.3,0,0,1-.16,0h-.57a.18.18,0,0,1-.15-.07.19.19,0,0,1,0-.15l1-8a.15.15,0,0,1,.06-.09.11.11,0,0,1,.09,0h.84a.25.25,0,0,1,.14,0,.18.18,0,0,1,.09.12l2.36,6.85,2.39-6.9a.14.14,0,0,1,.14-.11h.83a.22.22,0,0,1,.24.2l1,7.92v0a.21.21,0,0,1,0,.13.18.18,0,0,1-.14.06h-.58a.3.3,0,0,1-.16,0,.28.28,0,0,1-.08-.15l-.79-6.45-2.3,6.65a.2.2,0,0,1-.09.11.27.27,0,0,1-.14,0h-.6A.24.24,0,0,1,110.56,765.11Z"/><polygon class="cls-1" points="38.6 760.5 36 765 41.2 765 38.6 760.5"/><polygon class="cls-1" points="43.79 760.5 41.2 765 46.39 765 43.79 760.5"/><polygon class="cls-1" points="41.2 756 38.6 760.5 43.79 760.5 41.2 756"/></g><g id="Layer_2" data-name="Layer 2"><path class="cls-1" d="M40.62,53.52a6,6,0,0,1-2.15-2.14,5.62,5.62,0,0,1-.79-2.92v-5.6a5.62,5.62,0,0,1,.79-2.92,6,6,0,0,1,2.15-2.14,5.87,5.87,0,0,1,5.88,0,6,6,0,0,1,2.15,2.14,5.62,5.62,0,0,1,.79,2.92v5.6a5.62,5.62,0,0,1-.79,2.92,6,6,0,0,1-2.15,2.14,5.87,5.87,0,0,1-5.88,0Zm4.9-1.61a4.08,4.08,0,0,0,1.42-1.47,3.87,3.87,0,0,0,.53-2v-5.6a3.87,3.87,0,0,0-.53-2,4.08,4.08,0,0,0-1.42-1.47,3.77,3.77,0,0,0-3.92,0,4.08,4.08,0,0,0-1.42,1.47,3.87,3.87,0,0,0-.53,2v5.6a3.87,3.87,0,0,0,.53,2,4.08,4.08,0,0,0,1.42,1.47,3.77,3.77,0,0,0,3.92,0Z"/><path class="cls-1" d="M53.38,53.88a.3.3,0,0,1-.1-.24V40.75a.32.32,0,0,1,.34-.33h1.2a.31.31,0,0,1,.33.33v1.32a4.21,4.21,0,0,1,1.62-1.49,5,5,0,0,1,2.25-.5,4.5,4.5,0,0,1,3.3,1.25,4.42,4.42,0,0,1,1.26,3.29v9a.34.34,0,0,1-.34.34H62a.34.34,0,0,1-.34-.34V45a3.13,3.13,0,0,0-.8-2.34,2.93,2.93,0,0,0-2.17-.81,3.35,3.35,0,0,0-2.59,1.06,4.06,4.06,0,0,0-1,2.9v7.85a.32.32,0,0,1-.09.24.37.37,0,0,1-.24.1h-1.2A.33.33,0,0,1,53.38,53.88Z"/><path class="cls-1" d="M69.65,53.3a5.1,5.1,0,0,1-1.9-1.9,5.25,5.25,0,0,1-.69-2.63V45.34a5.22,5.22,0,0,1,.69-2.63,5.05,5.05,0,0,1,1.9-1.91,5.23,5.23,0,0,1,5.23,0,5,5,0,0,1,1.89,1.91,5.13,5.13,0,0,1,.7,2.63V47a.85.85,0,0,1-.86.86H68.93v1.06a3.24,3.24,0,0,0,.44,1.68,3.34,3.34,0,0,0,1.21,1.21,3.27,3.27,0,0,0,1.68.44h3.48a.33.33,0,0,1,.24.1.3.3,0,0,1,.1.24v1.1a.34.34,0,0,1-.34.34H72.26A5.06,5.06,0,0,1,69.65,53.3Zm5.95-7.2v-.88a3.34,3.34,0,0,0-.44-1.68,3.25,3.25,0,0,0-1.22-1.22,3.43,3.43,0,0,0-3.36,0,3.29,3.29,0,0,0-1.21,1.22,3.24,3.24,0,0,0-.44,1.68v.88Z"/><path class="cls-1" d="M86.64,53.9a.3.3,0,0,1-.1-.24V52.58a.32.32,0,0,1,.34-.33h2.88V39.82H87.62a.37.37,0,0,1-.24-.1.32.32,0,0,1-.09-.24v-.77L90.57,37h.7a.32.32,0,0,1,.24.09.37.37,0,0,1,.1.24V52.25h2.88a.31.31,0,0,1,.33.33v1.08a.32.32,0,0,1-.33.34H86.88A.3.3,0,0,1,86.64,53.9Z"/><path class="cls-1" d="M97.59,53.76a.79.79,0,0,1-.25-.58V51.12a6,6,0,0,1,.47-2.6,4.5,4.5,0,0,1,1.43-1.66c.64-.47,1.77-1.19,3.38-2.15a5.89,5.89,0,0,0,1.74-1.43,2.79,2.79,0,0,0,.59-1.76,2.48,2.48,0,0,0-.82-2,3.13,3.13,0,0,0-2.16-.72,6.54,6.54,0,0,0-3.28,1,.36.36,0,0,1-.22.07c-.1,0-.18-.06-.26-.19l-.51-.84a.4.4,0,0,1-.07-.22.36.36,0,0,1,.22-.36,8.34,8.34,0,0,1,2.06-.93,7.37,7.37,0,0,1,2.21-.34,5,5,0,0,1,3.47,1.17,4,4,0,0,1,1.28,3.13,4.73,4.73,0,0,1-.43,2.09,5.22,5.22,0,0,1-1.2,1.58,16.51,16.51,0,0,1-2,1.51c-.25.18-.48.33-.68.45l-.49.3a20.41,20.41,0,0,0-1.74,1.16,2.71,2.71,0,0,0-.82,1,3.54,3.54,0,0,0-.28,1.51v1.25H106a.22.22,0,0,1,.19.08.29.29,0,0,1,.07.2v1.25a.31.31,0,0,1-.07.21A.26.26,0,0,1,106,54H98.21A.88.88,0,0,1,97.59,53.76Z"/><path class="cls-1" d="M109.61,47.42a.3.3,0,0,1-.1-.24V46a.32.32,0,0,1,.34-.33h6a.31.31,0,0,1,.33.33v1.15a.32.32,0,0,1-.33.34h-6A.3.3,0,0,1,109.61,47.42Z"/><path class="cls-1" d="M121.81,54a6.92,6.92,0,0,1-2-.94.23.23,0,0,1-.13-.17.33.33,0,0,1,0-.24l.55-1.08a.37.37,0,0,1,.34-.21.36.36,0,0,1,.19,0,6.84,6.84,0,0,0,3.5,1.11,3.91,3.91,0,0,0,2.52-.78,2.53,2.53,0,0,0,1-2.1,2.23,2.23,0,0,0-.44-1.42,3.15,3.15,0,0,0-1.08-.89c-.43-.22-1-.48-1.8-.79A20.62,20.62,0,0,1,122,45.44,4.53,4.53,0,0,1,120.41,44a4.08,4.08,0,0,1-.68-2.43,4.43,4.43,0,0,1,.71-2.53,4.23,4.23,0,0,1,1.89-1.55,6.57,6.57,0,0,1,2.59-.5,8,8,0,0,1,2.24.32,7.28,7.28,0,0,1,1.93.88.26.26,0,0,1,.14.18.32.32,0,0,1,0,.25l-.53,1a.41.41,0,0,1-.21.2.34.34,0,0,1-.29,0,6.24,6.24,0,0,0-3.22-1,3.59,3.59,0,0,0-2.34.72,2.41,2.41,0,0,0-.87,2,2.24,2.24,0,0,0,.43,1.42,3.11,3.11,0,0,0,1.07.9,16.76,16.76,0,0,0,1.81.8l1.62.62a4.92,4.92,0,0,1,2.23,1.61,4.14,4.14,0,0,1,.83,2.59A4.7,4.7,0,0,1,129,52a4.5,4.5,0,0,1-2,1.69,6.48,6.48,0,0,1-2.85.59A8.89,8.89,0,0,1,121.81,54Z"/><path class="cls-1" d="M135.2,53.75a.82.82,0,0,1-.25-.61v-11h-2.5a.31.31,0,0,1-.33-.33V40.75a.31.31,0,0,1,.33-.33H136a.85.85,0,0,1,.86.86V52.22h2.47a.33.33,0,0,1,.24.1.3.3,0,0,1,.1.24v1.1a.34.34,0,0,1-.34.34h-3.48A.82.82,0,0,1,135.2,53.75Zm-.13-15.3a.37.37,0,0,1-.1-.24V36.12a.34.34,0,0,1,.34-.34h1.15a.33.33,0,0,1,.24.1.3.3,0,0,1,.1.24v2.09a.32.32,0,0,1-.34.33h-1.15A.32.32,0,0,1,135.07,38.45Z"/><path class="cls-1" d="M144.29,53.64a5.07,5.07,0,0,1-1.83-1.82,4.9,4.9,0,0,1-.67-2.52V45.12a5,5,0,0,1,5-5,5.22,5.22,0,0,1,3.53,1.37V36.12a.32.32,0,0,1,.09-.24.37.37,0,0,1,.24-.1h1.2a.33.33,0,0,1,.24.1.3.3,0,0,1,.1.24V53.66a.34.34,0,0,1-.34.34h-1.1a.3.3,0,0,1-.24-.1.33.33,0,0,1-.1-.24v-1a4.56,4.56,0,0,1-1.62,1.26,4.77,4.77,0,0,1-2,.44A4.85,4.85,0,0,1,144.29,53.64Zm4.4-1.55a3.15,3.15,0,0,0,1.22-1.21,3.25,3.25,0,0,0,.45-1.68v-4a3.25,3.25,0,0,0-.45-1.68,3.18,3.18,0,0,0-1.22-1.22,3.41,3.41,0,0,0-1.69-.44,3.34,3.34,0,0,0-1.68.44,3.37,3.37,0,0,0-1.66,2.9v4a3.25,3.25,0,0,0,.45,1.68,3.2,3.2,0,0,0,1.21,1.21,3.25,3.25,0,0,0,1.68.45A3.32,3.32,0,0,0,148.69,52.09Z"/><path class="cls-1" d="M158.66,53.3a5.07,5.07,0,0,1-1.89-1.9,5.15,5.15,0,0,1-.7-2.63V45.34a5.13,5.13,0,0,1,.7-2.63,5,5,0,0,1,1.89-1.91,5.23,5.23,0,0,1,5.23,0,5.05,5.05,0,0,1,1.9,1.91,5.23,5.23,0,0,1,.7,2.63V47a.83.83,0,0,1-.26.61.81.81,0,0,1-.61.25h-7.68v1.06a3.31,3.31,0,0,0,3.34,3.33h3.48a.37.37,0,0,1,.24.1.32.32,0,0,1,.09.24v1.1a.32.32,0,0,1-.33.34h-3.48A5.07,5.07,0,0,1,158.66,53.3Zm6-7.2v-.88a3.24,3.24,0,0,0-.44-1.68A3.29,3.29,0,0,0,163,42.32a3.43,3.43,0,0,0-3.36,0,3.37,3.37,0,0,0-1.66,2.9v.88Z"/><path class="cls-1" d="M171.93,53.64a5.12,5.12,0,0,1-1.82-1.82,4.9,4.9,0,0,1-.67-2.52V45.12a5,5,0,0,1,5-5,5.26,5.26,0,0,1,1.91.36,5.21,5.21,0,0,1,1.62,1V36.12a.32.32,0,0,1,.09-.24.37.37,0,0,1,.24-.1h1.2a.33.33,0,0,1,.24.1.3.3,0,0,1,.1.24V53.66a.34.34,0,0,1-.34.34h-1.1a.34.34,0,0,1-.34-.34v-1a4.74,4.74,0,0,1-1.62,1.26,4.81,4.81,0,0,1-2,.44A4.9,4.9,0,0,1,171.93,53.64Zm4.41-1.55a3.15,3.15,0,0,0,1.22-1.21A3.25,3.25,0,0,0,178,49.2v-4a3.25,3.25,0,0,0-.45-1.68,3.18,3.18,0,0,0-1.22-1.22,3.44,3.44,0,0,0-1.69-.44,3.34,3.34,0,0,0-1.68.44,3.25,3.25,0,0,0-1.22,1.22,3.34,3.34,0,0,0-.44,1.68v4a3.34,3.34,0,0,0,.44,1.68,3.37,3.37,0,0,0,2.9,1.66A3.34,3.34,0,0,0,176.34,52.09Z"/><path class="cls-1" d="M190.93,53.75a.82.82,0,0,1-.25-.61v-15a.85.85,0,0,1,.86-.86h4.27a6.05,6.05,0,0,1,3.15.85,6.31,6.31,0,0,1,2.28,2.31,6.2,6.2,0,0,1,.84,3.18v4a6.2,6.2,0,0,1-.84,3.18A6.31,6.31,0,0,1,199,53.15a6.05,6.05,0,0,1-3.15.85h-4.27A.82.82,0,0,1,190.93,53.75Zm4.88-1.6a4.31,4.31,0,0,0,4.3-4.32V43.46a4.17,4.17,0,0,0-.58-2.16A4.32,4.32,0,0,0,198,39.74a4.2,4.2,0,0,0-2.16-.57h-3.16v13Z"/><path class="cls-1" d="M207.8,53.75a.82.82,0,0,1-.25-.61v-11h-2.5a.31.31,0,0,1-.33-.33V40.75a.31.31,0,0,1,.33-.33h3.51a.85.85,0,0,1,.86.86V52.22h2.47a.33.33,0,0,1,.24.1.3.3,0,0,1,.1.24v1.1a.34.34,0,0,1-.34.34h-3.48A.82.82,0,0,1,207.8,53.75Zm-.13-15.3a.33.33,0,0,1-.1-.24V36.12a.3.3,0,0,1,.1-.24.33.33,0,0,1,.24-.1h1.15a.34.34,0,0,1,.34.34v2.09a.37.37,0,0,1-.1.24.32.32,0,0,1-.24.09h-1.15A.32.32,0,0,1,207.67,38.45Z"/><path class="cls-1" d="M217,53.3a5.17,5.17,0,0,1-1.9-1.9,5.25,5.25,0,0,1-.69-2.63V45.34a5.22,5.22,0,0,1,.69-2.63,5.22,5.22,0,0,1,7.13-1.91,5.05,5.05,0,0,1,1.9,1.91,5.23,5.23,0,0,1,.7,2.63V47a.83.83,0,0,1-.26.61.81.81,0,0,1-.61.25h-7.68v1.06a3.25,3.25,0,0,0,.45,1.68,3.2,3.2,0,0,0,1.21,1.21,3.24,3.24,0,0,0,1.68.44h3.48a.37.37,0,0,1,.24.1.32.32,0,0,1,.09.24v1.1a.32.32,0,0,1-.33.34H219.6A5.07,5.07,0,0,1,217,53.3Zm6-7.2v-.88a3.24,3.24,0,0,0-.44-1.68,3.29,3.29,0,0,0-1.21-1.22,3.43,3.43,0,0,0-3.36,0,3.15,3.15,0,0,0-1.21,1.22,3.25,3.25,0,0,0-.45,1.68v.88Z"/><rect class="cls-2" x="36" y="72" width="18" height="18"/><rect class="cls-2" x="72" y="72" width="18" height="18"/><rect class="cls-2" x="108" y="72" width="18" height="18"/><rect class="cls-2" x="144" y="72" width="18" height="18"/><rect class="cls-2" x="180" y="72" width="18" height="18"/><rect class="cls-2" x="216" y="72" width="18" height="18"/><rect class="cls-2" x="252" y="72" width="18" height="18"/><rect class="cls-2" x="288" y="72" width="18" height="18"/><rect class="cls-2" x="324" y="72" width="18" height="18"/><rect class="cls-2" x="360" y="72" width="18" height="18"/><rect class="cls-2" x="396" y="72" width="18" height="18"/><rect class="cls-2" x="432" y="72" width="18" height="18"/><rect class="cls-2" x="36" y="99" width="18" height="18"/><rect class="cls-2" x="72" y="99" width="18" height="18"/><rect class="cls-2" x="108" y="99" width="18" height="18"/><rect class="cls-2" x="144" y="99" width="18" height="18"/><rect class="cls-2" x="180" y="99" width="18" height="18"/><rect class="cls-2" x="216" y="99" width="18" height="18"/><rect class="cls-2" x="252" y="99" width="18" height="18"/><rect class="cls-2" x="288" y="99" width="18" height="18"/><rect class="cls-2" x="324" y="99" width="18" height="18"/><rect class="cls-2" x="360" y="99" width="18" height="18"/><rect class="cls-2" x="396" y="99" width="18" height="18"/><rect class="cls-2" x="432" y="99" width="18" height="18"/><rect class="cls-2" x="36" y="126" width="18" height="18"/><rect class="cls-2" x="72" y="126" width="18" height="18"/><rect class="cls-2" x="108" y="126" width="18" height="18"/><rect class="cls-2" x="144" y="126" width="18" height="18"/><rect class="cls-2" x="180" y="126" width="18" height="18"/><rect class="cls-2" x="216" y="126" width="18" height="18"/><rect class="cls-2" x="252" y="126" width="18" height="18"/><rect class="cls-2" x="288" y="126" width="18" height="18"/><rect class="cls-2" x="324" y="126" width="18" height="18"/><rect class="cls-2" x="360" y="126" width="18" height="18"/><rect class="cls-2" x="396" y="126" width="18" height="18"/><rect class="cls-2" x="432" y="126" width="18" height="18"/><rect class="cls-2" x="36" y="153" width="18" height="18"/><rect class="cls-2" x="72" y="153" width="18" height="18"/><rect class="cls-2" x="108" y="153" width="18" height="18"/><rect class="cls-2" x="144" y="153" width="18" height="18"/><rect class="cls-2" x="180" y="153" width="18" height="18"/><rect class="cls-2" x="216" y="153" width="18" height="18"/><rect class="cls-2" x="252" y="153" width="18" height="18"/><rect class="cls-2" x="288" y="153" width="18" height="18"/><rect class="cls-2" x="324" y="153" width="18" height="18"/><rect class="cls-2" x="360" y="153" width="18" height="18"/><rect class="cls-2" x="396" y="153" width="18" height="18"/><rect class="cls-2" x="432" y="153" width="18" height="18"/><rect class="cls-2" x="36" y="180" width="18" height="18"/><rect class="cls-2" x="72" y="180" width="18" height="18"/><rect class="cls-2" x="108" y="180" width="18" height="18"/><rect class="cls-2" x="144" y="180" width="18" height="18"/><rect class="cls-2" x="180" y="180" width="18" height="18"/><rect class="cls-2" x="216" y="180" width="18" height="18"/><rect class="cls-2" x="252" y="180" width="18" height="18"/><rect class="cls-2" x="288" y="180" width="18" height="18"/><rect class="cls-2" x="324" y="180" width="18" height="18"/><rect class="cls-2" x="360" y="180" width="18" height="18"/><rect class="cls-2" x="396" y="180" width="18" height="18"/><rect class="cls-2" x="432" y="180" width="18" height="18"/><rect class="cls-2" x="36" y="207" width="18" height="18"/><rect class="cls-2" x="72" y="207" width="18" height="18"/><rect class="cls-2" x="108" y="207" width="18" height="18"/><rect class="cls-2" x="144" y="207" width="18" height="18"/><rect class="cls-2" x="180" y="207" width="18" height="18"/><rect class="cls-2" x="216" y="207" width="18" height="18"/><rect class="cls-2" x="252" y="207" width="18" height="18"/><rect class="cls-2" x="288" y="207" width="18" height="18"/><rect class="cls-2" x="324" y="207" width="18" height="18"/><rect class="cls-2" x="360" y="207" width="18" height="18"/><rect class="cls-2" x="396" y="207" width="18" height="18"/><rect class="cls-2" x="432" y="207" width="18" height="18"/><rect class="cls-2" x="36" y="234" width="18" height="18"/><rect class="cls-2" x="72" y="234" width="18" height="18"/><rect class="cls-2" x="108" y="234" width="18" height="18"/><rect class="cls-2" x="144" y="234" width="18" height="18"/><rect class="cls-2" x="180" y="234" width="18" height="18"/><rect class="cls-2" x="216" y="234" width="18" height="18"/><rect class="cls-2" x="252" y="234" width="18" height="18"/><rect class="cls-2" x="288" y="234" width="18" height="18"/><rect class="cls-2" x="324" y="234" width="18" height="18"/><rect class="cls-2" x="360" y="234" width="18" height="18"/><rect class="cls-2" x="396" y="234" width="18" height="18"/><rect class="cls-2" x="432" y="234" width="18" height="18"/><rect class="cls-2" x="36" y="261" width="18" height="18"/><rect class="cls-2" x="72" y="261" width="18" height="18"/><rect class="cls-2" x="108" y="261" width="18" height="18"/><rect class="cls-2" x="144" y="261" width="18" height="18"/><rect class="cls-2" x="180" y="261" width="18" height="18"/><rect class="cls-2" x="216" y="261" width="18" height="18"/><rect class="cls-2" x="252" y="261" width="18" height="18"/><rect class="cls-2" x="288" y="261" width="18" height="18"/><rect class="cls-2" x="324" y="261" width="18" height="18"/><rect class="cls-2" x="360" y="261" width="18" height="18"/><rect class="cls-2" x="396" y="261" width="18" height="18"/><rect class="cls-2" x="432" y="261" width="18" height="18"/><rect class="cls-2" x="36" y="288" width="18" height="18"/><rect class="cls-2" x="72" y="288" width="18" height="18"/><rect class="cls-2" x="108" y="288" width="18" height="18"/><rect class="cls-2" x="144" y="288" width="18" height="18"/><rect class="cls-2" x="180" y="288" width="18" height="18"/><rect class="cls-2" x="216" y="288" width="18" height="18"/><rect class="cls-2" x="252" y="288" width="18" height="18"/><rect class="cls-2" x="288" y="288" width="18" height="18"/><rect class="cls-2" x="324" y="288" width="18" height="18"/><rect class="cls-2" x="360" y="288" width="18" height="18"/><rect class="cls-2" x="396" y="288" width="18" height="18"/><rect class="cls-2" x="432" y="288" width="18" height="18"/><rect class="cls-2" x="36" y="315" width="18" height="18"/><rect class="cls-2" x="72" y="315" width="18" height="18"/><rect class="cls-2" x="108" y="315" width="18" height="18"/><rect class="cls-2" x="144" y="315" width="18" height="18"/><rect class="cls-2" x="180" y="315" width="18" height="18"/><rect class="cls-2" x="216" y="315" width="18" height="18"/><rect class="cls-2" x="252" y="315" width="18" height="18"/><rect class="cls-2" x="288" y="315" width="18" height="18"/><rect class="cls-2" x="324" y="315" width="18" height="18"/><rect class="cls-2" x="360" y="315" width="18" height="18"/><rect class="cls-2" x="396" y="315" width="18" height="18"/><rect class="cls-2" x="432" y="315" width="18" height="18"/><path class="cls-1" d="M153.78,351a.17.17,0,0,1-.05-.12v-1.91h-3.38a.33.33,0,0,1-.25-.1.37.37,0,0,1-.1-.24v-.51l3.25-5.27a.36.36,0,0,1,.11-.1.28.28,0,0,1,.15,0h.89a.21.21,0,0,1,.17.07.25.25,0,0,1,.08.18v5.14h.84a.15.15,0,0,1,.12.05.16.16,0,0,1,0,.12v.54a.19.19,0,0,1,0,.12.17.17,0,0,1-.12,0h-.84v1.91a.17.17,0,0,1-.17.17h-.58A.17.17,0,0,1,153.78,351Zm-.05-2.9v-4.41L151,348.05Z"/><path class="cls-1" d="M223.82,350.8a2.54,2.54,0,0,1-1-1,2.75,2.75,0,0,1-.35-1.36,19.83,19.83,0,0,1,.09-2.11,4.68,4.68,0,0,1,.4-1.48,3.79,3.79,0,0,1,1.46-1.63,4,4,0,0,1,2.13-.59.17.17,0,0,1,.13,0,.17.17,0,0,1,.05.12v.54a.16.16,0,0,1-.05.11.14.14,0,0,1-.11.06,3.13,3.13,0,0,0-1.57.39,3,3,0,0,0-1.1,1.11,3.69,3.69,0,0,0-.46,1.65,1.9,1.9,0,0,1,.8-.66,2.28,2.28,0,0,1,1-.26,2.46,2.46,0,0,1,1.31.36,2.6,2.6,0,0,1,.93,1,2.71,2.71,0,0,1,.34,1.35,2.56,2.56,0,0,1-.37,1.34,2.71,2.71,0,0,1-1,1,2.7,2.7,0,0,1-2.71,0Zm2.23-.78a1.76,1.76,0,0,0,.64-.66,1.72,1.72,0,0,0,.24-.89,1.78,1.78,0,0,0-.24-.9,1.87,1.87,0,0,0-.64-.67,1.7,1.7,0,0,0-2.37.65,1.9,1.9,0,0,0-.23.92,1.93,1.93,0,0,0,.23.92,1.66,1.66,0,0,0,.62.64,1.69,1.69,0,0,0,.88.24A1.6,1.6,0,0,0,226.05,350Z"/><path class="cls-1" d="M295.84,350.81a2.6,2.6,0,0,1-1-.93,2.35,2.35,0,0,1-.37-1.3,2.52,2.52,0,0,1,.31-1.22,2.85,2.85,0,0,1,.89-1,1.7,1.7,0,0,1-.59-.71,2.18,2.18,0,0,1-.21-1,2,2,0,0,1,.33-1.12,2.35,2.35,0,0,1,.9-.81,2.57,2.57,0,0,1,1.23-.3,2.71,2.71,0,0,1,1.25.29,2.28,2.28,0,0,1,.9.78,1.92,1.92,0,0,1,.33,1.09,2.67,2.67,0,0,1-.24,1.11,2.35,2.35,0,0,1-.64.87,2.33,2.33,0,0,1,.95.83,2.14,2.14,0,0,1,.33,1.16,2.24,2.24,0,0,1-.38,1.28,2.65,2.65,0,0,1-1,.92,3.23,3.23,0,0,1-1.46.34A3.11,3.11,0,0,1,295.84,350.81Zm2.42-.75a1.8,1.8,0,0,0,.69-.62,1.54,1.54,0,0,0,.25-.86,1.15,1.15,0,0,0-.3-.84,1.9,1.9,0,0,0-.75-.46c-.3-.1-.72-.22-1.28-.35l-.46-.11a1.8,1.8,0,0,0-.74.71,2,2,0,0,0-.27,1,1.67,1.67,0,0,0,.24.89,1.77,1.77,0,0,0,.68.62,2.16,2.16,0,0,0,1.94,0Zm.33-4.38a2.18,2.18,0,0,0,.22-1,1.2,1.2,0,0,0-.23-.73,1.32,1.32,0,0,0-.57-.47,1.64,1.64,0,0,0-.72-.16,1.52,1.52,0,0,0-1.05.39,1.27,1.27,0,0,0-.43,1,1.06,1.06,0,0,0,.31.81,2,2,0,0,0,.77.47c.31.1.71.21,1.21.32A1.77,1.77,0,0,0,298.59,345.68Z"/><path class="cls-1" d="M187.28,350.81a3.19,3.19,0,0,1-1.14-1.08.13.13,0,0,1,0-.1.15.15,0,0,1,.09-.14l.4-.3a.23.23,0,0,1,.14,0,.21.21,0,0,1,.19.1,2.41,2.41,0,0,0,.84.78,2.13,2.13,0,0,0,1,.29,1.89,1.89,0,0,0,1-.26,1.83,1.83,0,0,0,.69-.69,2,2,0,0,0,.25-1,1.92,1.92,0,0,0-.25-.95,1.85,1.85,0,0,0-.68-.68,1.81,1.81,0,0,0-.92-.25,2.28,2.28,0,0,0-1.46.58.32.32,0,0,1-.27.06l-.33-.1a.11.11,0,0,1-.09-.07.19.19,0,0,1,0-.13l.61-3.85a.37.37,0,0,1,.14-.25.36.36,0,0,1,.27-.1h3.17a.21.21,0,0,1,.12,0,.16.16,0,0,1,0,.12v.55a.16.16,0,0,1,0,.12.21.21,0,0,1-.12.05H188.1l-.37,2.39a2.68,2.68,0,0,1,1.18-.28,2.54,2.54,0,0,1,1.35.37,2.71,2.71,0,0,1,1,1,2.64,2.64,0,0,1,.37,1.38,2.75,2.75,0,0,1-.38,1.4,3,3,0,0,1-1,1,2.78,2.78,0,0,1-1.41.37A3.17,3.17,0,0,1,187.28,350.81Z"/><path class="cls-1" d="M259.78,350.84l0-.12,2.72-7.15H259a.13.13,0,0,1-.12-.05.17.17,0,0,1-.05-.12v-.57a.17.17,0,0,1,.17-.17h4a.42.42,0,0,1,.31.13.41.41,0,0,1,.12.3v.63l-2.69,7.11a.24.24,0,0,1-.07.12.21.21,0,0,1-.13.05h-.61A.14.14,0,0,1,259.78,350.84Z"/><path class="cls-1" d="M331.79,351a.16.16,0,0,1,0-.12v-.54a.15.15,0,0,1,0-.11.15.15,0,0,1,.11-.06,3.14,3.14,0,0,0,1.58-.39,3,3,0,0,0,1.1-1.11A3.82,3.82,0,0,0,335,347a2,2,0,0,1-.8.66,2.28,2.28,0,0,1-1,.26,2.52,2.52,0,0,1-1.32-.36,2.65,2.65,0,0,1-.92-1,2.71,2.71,0,0,1-.34-1.35,2.56,2.56,0,0,1,.37-1.34,2.71,2.71,0,0,1,1-1,2.7,2.7,0,0,1,2.71,0,2.51,2.51,0,0,1,1,1,2.66,2.66,0,0,1,.36,1.36,19.83,19.83,0,0,1-.09,2.11,5,5,0,0,1-.4,1.48,3.79,3.79,0,0,1-1.46,1.63,4,4,0,0,1-2.13.59A.22.22,0,0,1,331.79,351Zm2.41-4.19a1.69,1.69,0,0,0,.62-.65,1.9,1.9,0,0,0,.23-.92,1.93,1.93,0,0,0-.23-.92,1.66,1.66,0,0,0-.62-.64,1.69,1.69,0,0,0-.88-.24,1.6,1.6,0,0,0-.87.25,1.76,1.76,0,0,0-.64.66,1.72,1.72,0,0,0-.24.89,1.78,1.78,0,0,0,.24.9,1.87,1.87,0,0,0,.64.67,1.72,1.72,0,0,0,1.75,0Z"/><path class="cls-1" d="M364,351a.16.16,0,0,1,0-.12v-.54a.16.16,0,0,1,0-.12.21.21,0,0,1,.12-.05h1.44v-6.21H364.5a.17.17,0,0,1-.12-.05.13.13,0,0,1-.05-.12v-.38l1.64-.86h.35a.17.17,0,0,1,.17.17v7.45h1.44a.17.17,0,0,1,.17.17v.54a.17.17,0,0,1-.17.17h-3.81A.21.21,0,0,1,364,351Z"/><path class="cls-1" d="M370,350.05a7.86,7.86,0,0,1,0-6.44,2.54,2.54,0,0,1,4.2,0,6.1,6.1,0,0,1,.69,3.21q0,4.33-2.79,4.34A2.33,2.33,0,0,1,370,350.05Zm3.51-.72a6.67,6.67,0,0,0,.37-2.51,6.52,6.52,0,0,0-.37-2.49,1.38,1.38,0,0,0-1.42-.88,1.41,1.41,0,0,0-1.37.82,6.17,6.17,0,0,0-.41,2.6,6.4,6.4,0,0,0,.38,2.46,1.57,1.57,0,0,0,2.82,0Z"/><path class="cls-1" d="M401,351a.13.13,0,0,1-.05-.12v-.54a.13.13,0,0,1,.05-.12.17.17,0,0,1,.12-.05h1.44v-6.21h-1.07a.17.17,0,0,1-.17-.17v-.38l1.65-.86h.34a.17.17,0,0,1,.17.17v7.45H405a.17.17,0,0,1,.17.17v.54a.17.17,0,0,1-.17.17h-3.8A.17.17,0,0,1,401,351Z"/><path class="cls-1" d="M406.32,351a.17.17,0,0,1-.05-.12v-.54a.17.17,0,0,1,.17-.17h1.44v-6.21h-1.07a.17.17,0,0,1-.17-.17v-.38l1.65-.86h.34a.17.17,0,0,1,.12.05.13.13,0,0,1,.05.12v7.45h1.44a.17.17,0,0,1,.17.17v.54a.17.17,0,0,1-.17.17h-3.8A.17.17,0,0,1,406.32,351Z"/><path class="cls-1" d="M436.65,351a.17.17,0,0,1,0-.12v-.54a.17.17,0,0,1,.17-.17h1.44v-6.21h-1.07a.17.17,0,0,1-.17-.17v-.38l1.65-.86H439a.17.17,0,0,1,.12.05.13.13,0,0,1,.05.12v7.45h1.44a.17.17,0,0,1,.17.17v.54a.17.17,0,0,1-.17.17h-3.8A.17.17,0,0,1,436.65,351Z"/><path class="cls-1" d="M442.13,350.88a.37.37,0,0,1-.13-.29v-1a3.06,3.06,0,0,1,.23-1.3,2.35,2.35,0,0,1,.72-.83c.32-.24.88-.59,1.69-1.07a3.27,3.27,0,0,0,.87-.72,1.35,1.35,0,0,0,.29-.88,1.23,1.23,0,0,0-.4-1,1.6,1.6,0,0,0-1.08-.36,3.26,3.26,0,0,0-1.65.5.21.21,0,0,1-.11,0,.19.19,0,0,1-.13-.1l-.25-.42a.3.3,0,0,1,0-.11.18.18,0,0,1,.11-.18,4.8,4.8,0,0,1,1-.47,3.87,3.87,0,0,1,1.11-.16,2.46,2.46,0,0,1,1.73.58,2,2,0,0,1,.64,1.56,2.46,2.46,0,0,1-.21,1,2.85,2.85,0,0,1-.6.79,9.4,9.4,0,0,1-1,.76l-.34.22-.25.15c-.4.25-.69.44-.87.58a1.51,1.51,0,0,0-.41.5,1.77,1.77,0,0,0-.13.75v.63h3.37a.1.1,0,0,1,.09,0,.13.13,0,0,1,0,.1v.63a.13.13,0,0,1,0,.1.1.1,0,0,1-.09,0h-3.88A.41.41,0,0,1,442.13,350.88Z"/><path class="cls-1" d="M42.65,351a.17.17,0,0,1,0-.12v-.54a.17.17,0,0,1,.17-.17h1.44v-6.21H43.14a.17.17,0,0,1-.17-.17v-.38l1.65-.86H45a.17.17,0,0,1,.12.05.13.13,0,0,1,.05.12v7.45h1.44a.17.17,0,0,1,.17.17v.54a.17.17,0,0,1-.17.17h-3.8A.17.17,0,0,1,42.65,351Z"/><path class="cls-1" d="M78.43,350.88a.37.37,0,0,1-.13-.29v-1a2.9,2.9,0,0,1,.24-1.3,2.23,2.23,0,0,1,.71-.83c.32-.24.88-.59,1.69-1.07a3.11,3.11,0,0,0,.87-.72,1.35,1.35,0,0,0,.29-.88,1.23,1.23,0,0,0-.4-1,1.58,1.58,0,0,0-1.08-.36,3.26,3.26,0,0,0-1.65.5.18.18,0,0,1-.1,0,.19.19,0,0,1-.14-.1l-.25-.42a.26.26,0,0,1,0-.11.17.17,0,0,1,.1-.18,4.8,4.8,0,0,1,1-.47,3.87,3.87,0,0,1,1.11-.16,2.45,2.45,0,0,1,1.73.58,2,2,0,0,1,.64,1.56,2.46,2.46,0,0,1-.21,1,2.67,2.67,0,0,1-.6.79,9.4,9.4,0,0,1-1,.76l-.34.22-.25.15c-.4.25-.69.44-.87.58a1.36,1.36,0,0,0-.4.5,1.62,1.62,0,0,0-.14.75v.63h3.37a.13.13,0,0,1,.1,0,.17.17,0,0,1,0,.1v.63a.17.17,0,0,1,0,.1.13.13,0,0,1-.1,0H78.73A.41.41,0,0,1,78.43,350.88Z"/><path class="cls-1" d="M115,350.76a3,3,0,0,1-1.12-1.06.16.16,0,0,1,0-.09.21.21,0,0,1,.1-.18l.41-.29a.28.28,0,0,1,.12,0,.23.23,0,0,1,.19.11,2.67,2.67,0,0,0,.85.76,2,2,0,0,0,1,.29,1.75,1.75,0,0,0,.92-.26,1.82,1.82,0,0,0,.67-.68,1.91,1.91,0,0,0,.24-.94,1.83,1.83,0,0,0-.24-.92,2,2,0,0,0-.66-.67,1.72,1.72,0,0,0-.89-.24h-.19l-.25.34a.14.14,0,0,1-.13.07.13.13,0,0,1-.1,0l-.45-.32a.14.14,0,0,1-.06-.12.16.16,0,0,1,0-.11l2-2.81h-2.7a.17.17,0,0,1-.17-.17v-.57a.13.13,0,0,1,0-.12.17.17,0,0,1,.12,0h3.39a.57.57,0,0,1,.42.16.51.51,0,0,1,.16.37.62.62,0,0,1-.12.35L117,345.72a2.64,2.64,0,0,1,1.19.47,2.8,2.8,0,0,1,.83.95,2.7,2.7,0,0,1-.08,2.62,2.75,2.75,0,0,1-1,1,2.7,2.7,0,0,1-1.38.37A3.12,3.12,0,0,1,115,350.76Z"/><path class="cls-1" d="M39.52,414a7,7,0,0,1-2.06-.94.29.29,0,0,1-.13-.17.39.39,0,0,1,0-.24l.56-1.08a.37.37,0,0,1,.33-.21.34.34,0,0,1,.19,0,6.87,6.87,0,0,0,3.51,1.11,4,4,0,0,0,2.52-.78,2.55,2.55,0,0,0,1-2.1,2.22,2.22,0,0,0-.43-1.42,3.35,3.35,0,0,0-1.08-.89c-.43-.22-1-.48-1.8-.79a19.22,19.22,0,0,1-2.42-1.07A4.64,4.64,0,0,1,38.11,404a4.08,4.08,0,0,1-.67-2.43,4.43,4.43,0,0,1,.71-2.53A4.26,4.26,0,0,1,40,397.51a6.64,6.64,0,0,1,2.59-.5,8.1,8.1,0,0,1,2.25.32,7.28,7.28,0,0,1,1.93.88.25.25,0,0,1,.13.18.31.31,0,0,1,0,.25l-.53,1a.39.39,0,0,1-.22.2.35.35,0,0,1-.29-.05,6.21,6.21,0,0,0-3.21-1,3.56,3.56,0,0,0-2.34.72,2.39,2.39,0,0,0-.88,2,2.31,2.31,0,0,0,.43,1.42,3.2,3.2,0,0,0,1.07.9,18.78,18.78,0,0,0,1.81.8l1.62.62a5,5,0,0,1,2.24,1.61,4.13,4.13,0,0,1,.82,2.59,4.69,4.69,0,0,1-.7,2.59,4.61,4.61,0,0,1-2,1.69,6.5,6.5,0,0,1-2.86.59A8.82,8.82,0,0,1,39.52,414Z"/><path class="cls-1" d="M52.09,413.06a4.4,4.4,0,0,1-1.26-3.28v-9a.32.32,0,0,1,.34-.33h1.2a.31.31,0,0,1,.33.33v8.67a3.15,3.15,0,0,0,.82,2.32,2.89,2.89,0,0,0,2.16.82,3.35,3.35,0,0,0,2.59-1.06,4.06,4.06,0,0,0,1-2.9v-7.85a.31.31,0,0,1,.33-.33h1.2a.32.32,0,0,1,.34.33v12.91a.34.34,0,0,1-.34.34h-1.2a.32.32,0,0,1-.33-.34v-1.34a4.13,4.13,0,0,1-1.62,1.49,5,5,0,0,1-2.25.5A4.46,4.46,0,0,1,52.09,413.06Z"/><path class="cls-1" d="M65.54,413.9a.32.32,0,0,1-.09-.24V400.75a.31.31,0,0,1,.33-.33H67a.32.32,0,0,1,.34.33v1.3a3.72,3.72,0,0,1,1.52-1.45,4.52,4.52,0,0,1,2.1-.5,4.81,4.81,0,0,1,2.63.71,3.93,3.93,0,0,1,1.6,1.93,3.92,3.92,0,0,1,1.56-1.94,4.34,4.34,0,0,1,2.4-.67,4.46,4.46,0,0,1,3.3,1.25,4.4,4.4,0,0,1,1.26,3.28v9a.34.34,0,0,1-.34.34h-1.2a.32.32,0,0,1-.33-.34V405a3.17,3.17,0,0,0-.81-2.34,3,3,0,0,0-2.17-.8,3,3,0,0,0-2.41,1.06,4.23,4.23,0,0,0-.93,2.9v7.82a.32.32,0,0,1-.33.34H74a.34.34,0,0,1-.34-.34V405a3.21,3.21,0,0,0-.8-2.34,2.92,2.92,0,0,0-2.17-.8,3.07,3.07,0,0,0-2.42,1.05,4.3,4.3,0,0,0-.92,2.91v7.84A.34.34,0,0,1,67,414h-1.2A.33.33,0,0,1,65.54,413.9Z"/><path class="cls-1" d="M96.12,413.62a5.2,5.2,0,0,1-2.59-4.54v-3.74a5.22,5.22,0,0,1,.69-2.63,5.21,5.21,0,0,1,9,0,5.22,5.22,0,0,1,.69,2.63v3.74a5.2,5.2,0,0,1-2.59,4.54,5.3,5.3,0,0,1-5.23,0Zm4.3-1.53a3.27,3.27,0,0,0,1.21-1.21,3.34,3.34,0,0,0,.44-1.68v-4a3.34,3.34,0,0,0-.44-1.68,3.29,3.29,0,0,0-1.21-1.22,3.45,3.45,0,0,0-3.37,0,3.29,3.29,0,0,0-1.21,1.22,3.34,3.34,0,0,0-.44,1.68v4a3.34,3.34,0,0,0,.44,1.68,3.27,3.27,0,0,0,1.21,1.21,3.38,3.38,0,0,0,3.37,0Z"/><path class="cls-1" d="M108.36,413.9a.3.3,0,0,1-.1-.24V402.19h-1.82a.32.32,0,0,1-.34-.33v-1.11a.32.32,0,0,1,.34-.33h1.82v-1a3.66,3.66,0,0,1,1-2.63,3.53,3.53,0,0,1,2.71-1.05h1.92a.37.37,0,0,1,.24.1.32.32,0,0,1,.09.24v1a.32.32,0,0,1-.33.34h-1.95a1.71,1.71,0,0,0-1.3.51,1.9,1.9,0,0,0-.5,1.36v1.06h3.27a.31.31,0,0,1,.33.33v1.11a.31.31,0,0,1-.33.33h-3.27v11.47a.32.32,0,0,1-.33.34h-1.2A.3.3,0,0,1,108.36,413.9Z"/><path class="cls-1" d="M125.28,413a3.69,3.69,0,0,1-1-2.63v-8.16h-1.58a.3.3,0,0,1-.24-.1.33.33,0,0,1-.1-.24v-1.08a.37.37,0,0,1,.1-.24.32.32,0,0,1,.24-.09h1.58V397.9a.33.33,0,0,1,.1-.24.3.3,0,0,1,.24-.1h1.2a.3.3,0,0,1,.24.1.33.33,0,0,1,.1.24v2.52h4.22a.32.32,0,0,1,.24.09.37.37,0,0,1,.1.24v1.11a.37.37,0,0,1-.1.24.32.32,0,0,1-.24.09h-4.22v7.92a2,2,0,0,0,.56,1.5,2.09,2.09,0,0,0,1.48.59l2.18,0a.34.34,0,0,1,.34.34v1.1a.33.33,0,0,1-.1.24.3.3,0,0,1-.24.1H128A3.56,3.56,0,0,1,125.28,413Z"/><path class="cls-1" d="M137.53,413.92a.44.44,0,0,1-.18-.23l-4.27-12.75a.3.3,0,0,1,0-.16.38.38,0,0,1,.11-.26.39.39,0,0,1,.28-.1h1.05a.48.48,0,0,1,.28.08.41.41,0,0,1,.18.23l3.55,10.94,3.22-10.94a.41.41,0,0,1,.45-.31h1.18c.26,0,.41.1.46.31L147,411.67l3.55-10.94a.52.52,0,0,1,.18-.23.48.48,0,0,1,.28-.08h1.08a.37.37,0,0,1,.32.15.37.37,0,0,1,0,.37l-4.27,12.75a.44.44,0,0,1-.18.23.57.57,0,0,1-.28.08h-1.37a.56.56,0,0,1-.27-.08.44.44,0,0,1-.18-.23l-3.17-10.42-3.12,10.42a.44.44,0,0,1-.18.23.57.57,0,0,1-.28.08h-1.36A.57.57,0,0,1,137.53,413.92Z"/><path class="cls-1" d="M157.15,413.62a5.2,5.2,0,0,1-2.59-4.54v-3.74a5.22,5.22,0,0,1,.69-2.63,5.21,5.21,0,0,1,9,0,5.22,5.22,0,0,1,.69,2.63v3.74a5.2,5.2,0,0,1-2.59,4.54,5.3,5.3,0,0,1-5.23,0Zm4.3-1.53a3.27,3.27,0,0,0,1.21-1.21,3.34,3.34,0,0,0,.44-1.68v-4a3.34,3.34,0,0,0-.44-1.68,3.29,3.29,0,0,0-1.21-1.22,3.4,3.4,0,0,0-1.68-.44,3.34,3.34,0,0,0-1.68.44,3.25,3.25,0,0,0-1.22,1.22,3.34,3.34,0,0,0-.44,1.68v4a3.34,3.34,0,0,0,.44,1.68,3.37,3.37,0,0,0,2.9,1.66A3.31,3.31,0,0,0,161.45,412.09Z"/><path class="cls-1" d="M177.35,413.6a5.12,5.12,0,0,1-1.95-1.94,5.39,5.39,0,0,1-.71-2.72,39.79,39.79,0,0,1,.18-4.22,9.38,9.38,0,0,1,.81-3,7.66,7.66,0,0,1,2.9-3.26,7.91,7.91,0,0,1,4.27-1.18.35.35,0,0,1,.27.1.32.32,0,0,1,.09.24v1.08a.33.33,0,0,1-.09.22.28.28,0,0,1-.22.11,6.29,6.29,0,0,0-3.15.79,5.86,5.86,0,0,0-2.2,2.22,7.37,7.37,0,0,0-.91,3.3,3.86,3.86,0,0,1,1.59-1.33,4.82,4.82,0,0,1,4.71.22,5.18,5.18,0,0,1,1.86,2,5.52,5.52,0,0,1,.67,2.7,5.11,5.11,0,0,1-.73,2.67,5.55,5.55,0,0,1-2,2,5.16,5.16,0,0,1-2.7.73A5.29,5.29,0,0,1,177.35,413.6Zm4.46-1.56a3.53,3.53,0,0,0,1.28-1.32,3.47,3.47,0,0,0,.48-1.78,3.57,3.57,0,0,0-.48-1.8,3.66,3.66,0,0,0-1.28-1.34,3.37,3.37,0,0,0-1.74-.49,3.31,3.31,0,0,0-1.75.48,3.42,3.42,0,0,0-1.25,1.31,3.89,3.89,0,0,0,0,3.67,3.33,3.33,0,0,0,1.25,1.3,3.4,3.4,0,0,0,1.75.47A3.28,3.28,0,0,0,181.81,412Z"/><path class="cls-1" d="M189.17,407.42a.3.3,0,0,1-.1-.24V406a.32.32,0,0,1,.34-.33h6a.31.31,0,0,1,.33.33v1.15a.32.32,0,0,1-.33.34h-6A.3.3,0,0,1,189.17,407.42Z"/><path class="cls-1" d="M201.37,414a6.92,6.92,0,0,1-2.05-.94.23.23,0,0,1-.13-.17.29.29,0,0,1,0-.24l.55-1.08a.37.37,0,0,1,.33-.21.37.37,0,0,1,.2,0,6.84,6.84,0,0,0,3.5,1.11,3.93,3.93,0,0,0,2.52-.78,2.53,2.53,0,0,0,1-2.1,2.23,2.23,0,0,0-.44-1.42,3.25,3.25,0,0,0-1.08-.89c-.43-.22-1-.48-1.8-.79a19.9,19.9,0,0,1-2.42-1.07A4.64,4.64,0,0,1,200,404a4.15,4.15,0,0,1-.67-2.43,4.43,4.43,0,0,1,.71-2.53,4.23,4.23,0,0,1,1.89-1.55,6.57,6.57,0,0,1,2.59-.5,8,8,0,0,1,2.24.32,7.28,7.28,0,0,1,1.93.88.26.26,0,0,1,.14.18.32.32,0,0,1,0,.25l-.53,1a.39.39,0,0,1-.22.2.32.32,0,0,1-.28-.05,6.24,6.24,0,0,0-3.22-1,3.58,3.58,0,0,0-2.34.72,2.41,2.41,0,0,0-.87,2,2.24,2.24,0,0,0,.43,1.42,3,3,0,0,0,1.07.9,16.76,16.76,0,0,0,1.81.8l1.62.62a4.92,4.92,0,0,1,2.23,1.61,4.14,4.14,0,0,1,.83,2.59,4.7,4.7,0,0,1-.71,2.59,4.56,4.56,0,0,1-2,1.69,6.48,6.48,0,0,1-2.85.59A8.89,8.89,0,0,1,201.37,414Z"/><path class="cls-1" d="M214.76,413.75a.82.82,0,0,1-.25-.61V402.19H212a.31.31,0,0,1-.33-.33v-1.11a.31.31,0,0,1,.33-.33h3.51a.85.85,0,0,1,.86.86v10.94h2.47a.33.33,0,0,1,.24.1.3.3,0,0,1,.1.24v1.1a.34.34,0,0,1-.34.34h-3.48A.82.82,0,0,1,214.76,413.75Zm-.13-15.3a.33.33,0,0,1-.1-.24v-2.09a.3.3,0,0,1,.1-.24.33.33,0,0,1,.24-.1H216a.34.34,0,0,1,.34.34v2.09a.37.37,0,0,1-.1.24.32.32,0,0,1-.24.09h-1.15A.32.32,0,0,1,214.63,398.45Z"/><path class="cls-1" d="M223.85,413.64a5.07,5.07,0,0,1-1.83-1.82,4.9,4.9,0,0,1-.67-2.52v-4.18a5,5,0,0,1,5-5,5.26,5.26,0,0,1,1.91.36,5.21,5.21,0,0,1,1.62,1v-5.35a.32.32,0,0,1,.09-.24.37.37,0,0,1,.24-.1h1.2a.33.33,0,0,1,.24.1.3.3,0,0,1,.1.24v17.54a.34.34,0,0,1-.34.34h-1.1a.34.34,0,0,1-.34-.34v-1.05a4.74,4.74,0,0,1-1.62,1.26,4.8,4.8,0,0,1-2,.44A4.85,4.85,0,0,1,223.85,413.64Zm4.4-1.55a3.15,3.15,0,0,0,1.22-1.21,3.25,3.25,0,0,0,.45-1.68v-4a3.25,3.25,0,0,0-.45-1.68,3.18,3.18,0,0,0-1.22-1.22,3.41,3.41,0,0,0-1.69-.44,3.34,3.34,0,0,0-1.68.44,3.15,3.15,0,0,0-1.21,1.22,3.25,3.25,0,0,0-.45,1.68v4a3.25,3.25,0,0,0,.45,1.68,3.13,3.13,0,0,0,1.21,1.21,3.25,3.25,0,0,0,1.68.45A3.32,3.32,0,0,0,228.25,412.09Z"/><path class="cls-1" d="M238.22,413.3a5.17,5.17,0,0,1-1.9-1.9,5.25,5.25,0,0,1-.69-2.63v-3.43a5.22,5.22,0,0,1,.69-2.63,5.21,5.21,0,0,1,9,0,5.22,5.22,0,0,1,.69,2.63V407a.85.85,0,0,1-.86.86H237.5v1.06a3.34,3.34,0,0,0,.44,1.68,3.29,3.29,0,0,0,1.22,1.21,3.24,3.24,0,0,0,1.68.44h3.48a.37.37,0,0,1,.24.1.32.32,0,0,1,.09.24v1.1a.32.32,0,0,1-.33.34h-3.48A5.07,5.07,0,0,1,238.22,413.3Zm5.95-7.2v-.88a3.34,3.34,0,0,0-.44-1.68,3.29,3.29,0,0,0-1.21-1.22,3.4,3.4,0,0,0-1.68-.44,3.34,3.34,0,0,0-1.68.44,3.25,3.25,0,0,0-1.22,1.22,3.34,3.34,0,0,0-.44,1.68v.88Z"/><path class="cls-1" d="M251.49,413.64a5,5,0,0,1-1.82-1.82,4.9,4.9,0,0,1-.67-2.52v-4.18a5,5,0,0,1,2.5-4.34,5,5,0,0,1,2.54-.68,5.17,5.17,0,0,1,1.9.36,5,5,0,0,1,1.62,1v-5.35a.34.34,0,0,1,.34-.34h1.2a.34.34,0,0,1,.34.34v17.54a.33.33,0,0,1-.1.24.3.3,0,0,1-.24.1H258a.34.34,0,0,1-.34-.34v-1.05a4.74,4.74,0,0,1-1.62,1.26,4.81,4.81,0,0,1-2,.44A4.9,4.9,0,0,1,251.49,413.64Zm4.41-1.55a3.28,3.28,0,0,0,1.66-2.89v-4a3.31,3.31,0,0,0-1.66-2.9,3.45,3.45,0,0,0-1.7-.44,3.4,3.4,0,0,0-1.68.44,3.29,3.29,0,0,0-1.21,1.22,3.34,3.34,0,0,0-.44,1.68v4a3.34,3.34,0,0,0,.44,1.68,3.27,3.27,0,0,0,1.21,1.21,3.31,3.31,0,0,0,1.68.45A3.35,3.35,0,0,0,255.9,412.09Z"/><path class="cls-1" d="M270.49,413.75a.82.82,0,0,1-.25-.61v-15a.85.85,0,0,1,.86-.86h4.27a6.05,6.05,0,0,1,3.15.85,6.31,6.31,0,0,1,2.28,2.31,6.2,6.2,0,0,1,.84,3.18v4a6.2,6.2,0,0,1-.84,3.18,6.31,6.31,0,0,1-2.28,2.31,6.05,6.05,0,0,1-3.15.85H271.1A.82.82,0,0,1,270.49,413.75Zm4.88-1.6a4.31,4.31,0,0,0,4.3-4.32v-4.37a4.17,4.17,0,0,0-.58-2.16,4.32,4.32,0,0,0-1.56-1.56,4.2,4.2,0,0,0-2.16-.57H272.2v13Z"/><path class="cls-1" d="M287.36,413.75a.82.82,0,0,1-.25-.61V402.19h-2.5a.31.31,0,0,1-.33-.33v-1.11a.31.31,0,0,1,.33-.33h3.51a.85.85,0,0,1,.86.86v10.94h2.47a.33.33,0,0,1,.24.1.3.3,0,0,1,.1.24v1.1a.34.34,0,0,1-.34.34H288A.82.82,0,0,1,287.36,413.75Zm-.13-15.3a.33.33,0,0,1-.1-.24v-2.09a.3.3,0,0,1,.1-.24.33.33,0,0,1,.24-.1h1.15a.34.34,0,0,1,.34.34v2.09a.37.37,0,0,1-.1.24.32.32,0,0,1-.24.09h-1.15A.32.32,0,0,1,287.23,398.45Z"/><path class="cls-1" d="M296.54,413.62a5.2,5.2,0,0,1-2.59-4.54v-3.74a5.22,5.22,0,0,1,.69-2.63,5.19,5.19,0,0,1,4.52-2.61,5,5,0,0,1,1.95.39,5.09,5.09,0,0,1,1.62,1.05.46.46,0,0,1,.15.34.61.61,0,0,1-.15.36,7.12,7.12,0,0,1-.55.55.53.53,0,0,1-.36.15.53.53,0,0,1-.38-.17,3.25,3.25,0,0,0-2.28-.89,3.34,3.34,0,0,0-1.68.44,3.25,3.25,0,0,0-1.22,1.22,3.34,3.34,0,0,0-.44,1.68v4a3.34,3.34,0,0,0,.44,1.68,3.37,3.37,0,0,0,2.9,1.66,3.25,3.25,0,0,0,2.28-.89.53.53,0,0,1,.38-.17.56.56,0,0,1,.36.14,4.17,4.17,0,0,1,.55.56.46.46,0,0,1,.15.36.44.44,0,0,1-.15.33,5.21,5.21,0,0,1-6.19.75Z"/><path class="cls-1" d="M308.11,413.3a5.1,5.1,0,0,1-1.9-1.9,5.26,5.26,0,0,1-.7-2.63v-3.43a5.23,5.23,0,0,1,.7-2.63,5.05,5.05,0,0,1,1.9-1.91,5.21,5.21,0,0,1,7.13,1.91,5.22,5.22,0,0,1,.69,2.63V407a.85.85,0,0,1-.86.86h-7.68v1.06a3.3,3.3,0,0,0,1.65,2.89,3.27,3.27,0,0,0,1.68.44h3.48a.33.33,0,0,1,.24.1.3.3,0,0,1,.1.24v1.1a.34.34,0,0,1-.34.34h-3.48A5.06,5.06,0,0,1,308.11,413.3Zm5.95-7.2v-.88a3.34,3.34,0,0,0-.44-1.68,3.25,3.25,0,0,0-1.22-1.22,3.43,3.43,0,0,0-3.36,0,3.29,3.29,0,0,0-1.21,1.22,3.34,3.34,0,0,0-.44,1.68v.88Z"/><rect class="cls-2" x="36" y="432" width="18" height="18"/><rect class="cls-2" x="72" y="432" width="18" height="18"/><rect class="cls-2" x="108" y="432" width="18" height="18"/><rect class="cls-2" x="144" y="432" width="18" height="18"/><rect class="cls-2" x="180" y="432" width="18" height="18"/><rect class="cls-2" x="216" y="432" width="18" height="18"/><rect class="cls-2" x="252" y="432" width="18" height="18"/><rect class="cls-2" x="288" y="432" width="18" height="18"/><rect class="cls-2" x="324" y="432" width="18" height="18"/><rect class="cls-2" x="360" y="432" width="18" height="18"/><rect class="cls-2" x="396" y="432" width="18" height="18"/><rect class="cls-2" x="432" y="432" width="18" height="18"/><rect class="cls-2" x="36" y="459" width="18" height="18"/><rect class="cls-2" x="72" y="459" width="18" height="18"/><rect class="cls-2" x="108" y="459" width="18" height="18"/><rect class="cls-2" x="144" y="459" width="18" height="18"/><rect class="cls-2" x="180" y="459" width="18" height="18"/><rect class="cls-2" x="216" y="459" width="18" height="18"/><rect class="cls-2" x="252" y="459" width="18" height="18"/><rect class="cls-2" x="288" y="459" width="18" height="18"/><rect class="cls-2" x="324" y="459" width="18" height="18"/><rect class="cls-2" x="360" y="459" width="18" height="18"/><rect class="cls-2" x="396" y="459" width="18" height="18"/><rect class="cls-2" x="432" y="459" width="18" height="18"/><rect class="cls-2" x="36" y="486" width="18" height="18"/><rect class="cls-2" x="72" y="486" width="18" height="18"/><rect class="cls-2" x="108" y="486" width="18" height="18"/><rect class="cls-2" x="144" y="486" width="18" height="18"/><rect class="cls-2" x="180" y="486" width="18" height="18"/><rect class="cls-2" x="216" y="486" width="18" height="18"/><rect class="cls-2" x="252" y="486" width="18" height="18"/><rect class="cls-2" x="288" y="486" width="18" height="18"/><rect class="cls-2" x="324" y="486" width="18" height="18"/><rect class="cls-2" x="360" y="486" width="18" height="18"/><rect class="cls-2" x="396" y="486" width="18" height="18"/><rect class="cls-2" x="432" y="486" width="18" height="18"/><rect class="cls-2" x="36" y="513" width="18" height="18"/><rect class="cls-2" x="72" y="513" width="18" height="18"/><rect class="cls-2" x="108" y="513" width="18" height="18"/><rect class="cls-2" x="144" y="513" width="18" height="18"/><rect class="cls-2" x="180" y="513" width="18" height="18"/><rect class="cls-2" x="216" y="513" width="18" height="18"/><rect class="cls-2" x="252" y="513" width="18" height="18"/><rect class="cls-2" x="288" y="513" width="18" height="18"/><rect class="cls-2" x="324" y="513" width="18" height="18"/><rect class="cls-2" x="360" y="513" width="18" height="18"/><rect class="cls-2" x="396" y="513" width="18" height="18"/><rect class="cls-2" x="432" y="513" width="18" height="18"/><rect class="cls-2" x="36" y="540" width="18" height="18"/><rect class="cls-2" x="72" y="540" width="18" height="18"/><rect class="cls-2" x="108" y="540" width="18" height="18"/><rect class="cls-2" x="144" y="540" width="18" height="18"/><rect class="cls-2" x="180" y="540" width="18" height="18"/><rect class="cls-2" x="216" y="540" width="18" height="18"/><rect class="cls-2" x="252" y="540" width="18" height="18"/><rect class="cls-2" x="288" y="540" width="18" height="18"/><rect class="cls-2" x="324" y="540" width="18" height="18"/><rect class="cls-2" x="360" y="540" width="18" height="18"/><rect class="cls-2" x="396" y="540" width="18" height="18"/><rect class="cls-2" x="432" y="540" width="18" height="18"/><rect class="cls-2" x="36" y="567" width="18" height="18"/><rect class="cls-2" x="72" y="567" width="18" height="18"/><rect class="cls-2" x="108" y="567" width="18" height="18"/><rect class="cls-2" x="144" y="567" width="18" height="18"/><rect class="cls-2" x="180" y="567" width="18" height="18"/><rect class="cls-2" x="216" y="567" width="18" height="18"/><rect class="cls-2" x="252" y="567" width="18" height="18"/><rect class="cls-2" x="288" y="567" width="18" height="18"/><rect class="cls-2" x="324" y="567" width="18" height="18"/><rect class="cls-2" x="360" y="567" width="18" height="18"/><rect class="cls-2" x="396" y="567" width="18" height="18"/><rect class="cls-2" x="432" y="567" width="18" height="18"/><rect class="cls-2" x="36" y="594" width="18" height="18"/><rect class="cls-2" x="72" y="594" width="18" height="18"/><rect class="cls-2" x="108" y="594" width="18" height="18"/><rect class="cls-2" x="144" y="594" width="18" height="18"/><rect class="cls-2" x="180" y="594" width="18" height="18"/><rect class="cls-2" x="216" y="594" width="18" height="18"/><rect class="cls-2" x="252" y="594" width="18" height="18"/><rect class="cls-2" x="288" y="594" width="18" height="18"/><rect class="cls-2" x="324" y="594" width="18" height="18"/><rect class="cls-2" x="360" y="594" width="18" height="18"/><rect class="cls-2" x="396" y="594" width="18" height="18"/><rect class="cls-2" x="432" y="594" width="18" height="18"/><rect class="cls-2" x="36" y="621" width="18" height="18"/><rect class="cls-2" x="72" y="621" width="18" height="18"/><rect class="cls-2" x="108" y="621" width="18" height="18"/><rect class="cls-2" x="144" y="621" width="18" height="18"/><rect class="cls-2" x="180" y="621" width="18" height="18"/><rect class="cls-2" x="216" y="621" width="18" height="18"/><rect class="cls-2" x="252" y="621" width="18" height="18"/><rect class="cls-2" x="288" y="621" width="18" height="18"/><rect class="cls-2" x="324" y="621" width="18" height="18"/><rect class="cls-2" x="360" y="621" width="18" height="18"/><rect class="cls-2" x="396" y="621" width="18" height="18"/><rect class="cls-2" x="432" y="621" width="18" height="18"/><rect class="cls-2" x="36" y="648" width="18" height="18"/><rect class="cls-2" x="72" y="648" width="18" height="18"/><rect class="cls-2" x="108" y="648" width="18" height="18"/><rect class="cls-2" x="144" y="648" width="18" height="18"/><rect class="cls-2" x="180" y="648" width="18" height="18"/><rect class="cls-2" x="216" y="648" width="18" height="18"/><rect class="cls-2" x="252" y="648" width="18" height="18"/><rect class="cls-2" x="288" y="648" width="18" height="18"/><rect class="cls-2" x="324" y="648" width="18" height="18"/><rect class="cls-2" x="360" y="648" width="18" height="18"/><rect class="cls-2" x="396" y="648" width="18" height="18"/><rect class="cls-2" x="432" y="648" width="18" height="18"/><rect class="cls-2" x="36" y="675" width="18" height="18"/><rect class="cls-2" x="72" y="675" width="18" height="18"/><rect class="cls-2" x="108" y="675" width="18" height="18"/><rect class="cls-2" x="144" y="675" width="18" height="18"/><rect class="cls-2" x="180" y="675" width="18" height="18"/><rect class="cls-2" x="216" y="675" width="18" height="18"/><rect class="cls-2" x="252" y="675" width="18" height="18"/><rect class="cls-2" x="288" y="675" width="18" height="18"/><rect class="cls-2" x="324" y="675" width="18" height="18"/><rect class="cls-2" x="360" y="675" width="18" height="18"/><rect class="cls-2" x="396" y="675" width="18" height="18"/><rect class="cls-2" x="432" y="675" width="18" height="18"/><path class="cls-1" d="M153.78,711a.17.17,0,0,1-.05-.12v-1.91h-3.38a.33.33,0,0,1-.25-.1.37.37,0,0,1-.1-.24v-.51l3.25-5.27a.36.36,0,0,1,.11-.1.28.28,0,0,1,.15,0h.89a.21.21,0,0,1,.17.07.25.25,0,0,1,.08.18v5.14h.84a.15.15,0,0,1,.12.05.16.16,0,0,1,0,.12v.54a.19.19,0,0,1,0,.12.17.17,0,0,1-.12,0h-.84v1.91a.17.17,0,0,1-.17.17h-.58A.17.17,0,0,1,153.78,711Zm-.05-2.9v-4.41L151,708.05Z"/><path class="cls-1" d="M223.82,710.8a2.54,2.54,0,0,1-1-1,2.75,2.75,0,0,1-.35-1.36,19.83,19.83,0,0,1,.09-2.11,4.68,4.68,0,0,1,.4-1.48,3.79,3.79,0,0,1,1.46-1.63,4,4,0,0,1,2.13-.59.17.17,0,0,1,.13.05.17.17,0,0,1,.05.12v.54a.16.16,0,0,1-.05.11.14.14,0,0,1-.11.06,3.13,3.13,0,0,0-1.57.39,3,3,0,0,0-1.1,1.11,3.69,3.69,0,0,0-.46,1.65,1.9,1.9,0,0,1,.8-.66,2.28,2.28,0,0,1,1-.26,2.46,2.46,0,0,1,1.31.36,2.6,2.6,0,0,1,.93,1,2.71,2.71,0,0,1,.34,1.35,2.56,2.56,0,0,1-.37,1.34,2.71,2.71,0,0,1-1,1,2.7,2.7,0,0,1-2.71,0Zm2.23-.78a1.76,1.76,0,0,0,.64-.66,1.72,1.72,0,0,0,.24-.89,1.78,1.78,0,0,0-.24-.9,1.87,1.87,0,0,0-.64-.67,1.7,1.7,0,0,0-2.37.65,1.9,1.9,0,0,0-.23.92,1.93,1.93,0,0,0,.23.92,1.66,1.66,0,0,0,.62.64,1.69,1.69,0,0,0,.88.24A1.6,1.6,0,0,0,226.05,710Z"/><path class="cls-1" d="M295.84,710.81a2.6,2.6,0,0,1-1-.93,2.35,2.35,0,0,1-.37-1.3,2.52,2.52,0,0,1,.31-1.22,2.85,2.85,0,0,1,.89-1,1.7,1.7,0,0,1-.59-.71,2.18,2.18,0,0,1-.21-1,2,2,0,0,1,.33-1.12,2.35,2.35,0,0,1,.9-.81,2.57,2.57,0,0,1,1.23-.3,2.71,2.71,0,0,1,1.25.29,2.28,2.28,0,0,1,.9.78,1.92,1.92,0,0,1,.33,1.09,2.67,2.67,0,0,1-.24,1.11.87.87,0,0,0,.31,1.7,2.14,2.14,0,0,1,.33,1.16,2.24,2.24,0,0,1-.38,1.28,2.65,2.65,0,0,1-1,.92,3.23,3.23,0,0,1-1.46.34A3.11,3.11,0,0,1,295.84,710.81Zm2.42-.75a1.8,1.8,0,0,0,.69-.62,1.54,1.54,0,0,0,.25-.86,1.15,1.15,0,0,0-.3-.84,1.9,1.9,0,0,0-.75-.46c-.3-.1-.72-.22-1.28-.35l-.46-.11a1.8,1.8,0,0,0-.74.71,2,2,0,0,0-.27,1,1.67,1.67,0,0,0,.24.89,1.77,1.77,0,0,0,.68.62,2.16,2.16,0,0,0,1.94,0Zm.33-4.38a2.18,2.18,0,0,0,.22-1,1.2,1.2,0,0,0-.23-.73,1.32,1.32,0,0,0-.57-.47,1.64,1.64,0,0,0-.72-.16,1.52,1.52,0,0,0-1.05.39,1.27,1.27,0,0,0-.43,1,1.06,1.06,0,0,0,.31.81,2,2,0,0,0,.77.47c.31.1.71.21,1.21.32A1.77,1.77,0,0,0,298.59,705.68Z"/><path class="cls-1" d="M187.28,710.81a3.19,3.19,0,0,1-1.14-1.08.13.13,0,0,1,0-.1.15.15,0,0,1,.09-.14l.4-.3a.23.23,0,0,1,.14,0,.21.21,0,0,1,.19.1,2.41,2.41,0,0,0,.84.78,2.13,2.13,0,0,0,1,.29,1.89,1.89,0,0,0,1-.26,1.83,1.83,0,0,0,.69-.69,2,2,0,0,0,.25-1,1.92,1.92,0,0,0-.25-.95,1.85,1.85,0,0,0-.68-.68,1.81,1.81,0,0,0-.92-.25,2.28,2.28,0,0,0-1.46.58.32.32,0,0,1-.27.06l-.33-.1a.11.11,0,0,1-.09-.07.19.19,0,0,1,0-.13l.61-3.85a.37.37,0,0,1,.14-.25.36.36,0,0,1,.27-.1h3.17a.21.21,0,0,1,.12.05.16.16,0,0,1,0,.12v.55a.16.16,0,0,1,0,.12.21.21,0,0,1-.12,0H188.1l-.37,2.39a2.68,2.68,0,0,1,1.18-.28,2.54,2.54,0,0,1,1.35.37,2.71,2.71,0,0,1,1,1,2.64,2.64,0,0,1,.37,1.38,2.75,2.75,0,0,1-.38,1.4,3,3,0,0,1-1,1,2.78,2.78,0,0,1-1.41.37A3.17,3.17,0,0,1,187.28,710.81Z"/><path class="cls-1" d="M259.78,710.84l0-.12,2.72-7.15H259a.13.13,0,0,1-.12-.05.17.17,0,0,1-.05-.12v-.57a.17.17,0,0,1,.17-.17h4a.42.42,0,0,1,.31.13.41.41,0,0,1,.12.3v.63l-2.69,7.11a.24.24,0,0,1-.07.12.21.21,0,0,1-.13,0h-.61A.14.14,0,0,1,259.78,710.84Z"/><path class="cls-1" d="M331.79,711a.16.16,0,0,1,0-.12v-.54a.15.15,0,0,1,0-.11.15.15,0,0,1,.11-.06,3.14,3.14,0,0,0,1.58-.39,3,3,0,0,0,1.1-1.11A3.82,3.82,0,0,0,335,707a2,2,0,0,1-.8.66,2.28,2.28,0,0,1-1,.26,2.52,2.52,0,0,1-1.32-.36,2.65,2.65,0,0,1-.92-1,2.71,2.71,0,0,1-.34-1.35,2.56,2.56,0,0,1,.37-1.34,2.71,2.71,0,0,1,1-1,2.7,2.7,0,0,1,2.71,0,2.51,2.51,0,0,1,1,1,2.66,2.66,0,0,1,.36,1.36,19.83,19.83,0,0,1-.09,2.11,5,5,0,0,1-.4,1.48,3.79,3.79,0,0,1-1.46,1.63,4,4,0,0,1-2.13.59A.22.22,0,0,1,331.79,711Zm2.41-4.19a1.69,1.69,0,0,0,.62-.65,1.9,1.9,0,0,0,.23-.92,1.93,1.93,0,0,0-.23-.92,1.66,1.66,0,0,0-.62-.64,1.69,1.69,0,0,0-.88-.24,1.6,1.6,0,0,0-.87.25,1.76,1.76,0,0,0-.64.66,1.72,1.72,0,0,0-.24.89,1.78,1.78,0,0,0,.24.9,1.87,1.87,0,0,0,.64.67,1.72,1.72,0,0,0,1.75,0Z"/><path class="cls-1" d="M364,711a.16.16,0,0,1,0-.12v-.54a.16.16,0,0,1,0-.12.21.21,0,0,1,.12,0h1.44v-6.21H364.5a.17.17,0,0,1-.12,0,.13.13,0,0,1-.05-.12v-.38l1.64-.86h.35a.17.17,0,0,1,.17.17v7.45h1.44a.17.17,0,0,1,.17.17v.54a.17.17,0,0,1-.17.17h-3.81A.21.21,0,0,1,364,711Z"/><path class="cls-1" d="M370,710.05a7.86,7.86,0,0,1,0-6.44,2.54,2.54,0,0,1,4.2,0,6.1,6.1,0,0,1,.69,3.21q0,4.33-2.79,4.34A2.33,2.33,0,0,1,370,710.05Zm3.51-.72a6.67,6.67,0,0,0,.37-2.51,6.52,6.52,0,0,0-.37-2.49,1.38,1.38,0,0,0-1.42-.88,1.41,1.41,0,0,0-1.37.82,6.17,6.17,0,0,0-.41,2.6,6.4,6.4,0,0,0,.38,2.46,1.57,1.57,0,0,0,2.82,0Z"/><path class="cls-1" d="M401,711a.13.13,0,0,1-.05-.12v-.54a.13.13,0,0,1,.05-.12.17.17,0,0,1,.12,0h1.44v-6.21h-1.07a.17.17,0,0,1-.17-.17v-.38l1.65-.86h.34a.17.17,0,0,1,.17.17v7.45H405a.17.17,0,0,1,.17.17v.54a.17.17,0,0,1-.17.17h-3.8A.17.17,0,0,1,401,711Z"/><path class="cls-1" d="M406.32,711a.17.17,0,0,1-.05-.12v-.54a.17.17,0,0,1,.17-.17h1.44v-6.21h-1.07a.17.17,0,0,1-.17-.17v-.38l1.65-.86h.34a.17.17,0,0,1,.12,0,.13.13,0,0,1,.05.12v7.45h1.44a.17.17,0,0,1,.17.17v.54a.17.17,0,0,1-.17.17h-3.8A.17.17,0,0,1,406.32,711Z"/><path class="cls-1" d="M436.65,711a.17.17,0,0,1,0-.12v-.54a.17.17,0,0,1,.17-.17h1.44v-6.21h-1.07a.17.17,0,0,1-.17-.17v-.38l1.65-.86H439a.17.17,0,0,1,.12,0,.13.13,0,0,1,.05.12v7.45h1.44a.17.17,0,0,1,.17.17v.54a.17.17,0,0,1-.17.17h-3.8A.17.17,0,0,1,436.65,711Z"/><path class="cls-1" d="M442.13,710.88a.37.37,0,0,1-.13-.29v-1a3.06,3.06,0,0,1,.23-1.3,2.35,2.35,0,0,1,.72-.83c.32-.24.88-.59,1.69-1.07a3.27,3.27,0,0,0,.87-.72,1.35,1.35,0,0,0,.29-.88,1.23,1.23,0,0,0-.4-1,1.6,1.6,0,0,0-1.08-.36,3.26,3.26,0,0,0-1.65.5.21.21,0,0,1-.11,0,.19.19,0,0,1-.13-.1l-.25-.42a.3.3,0,0,1,0-.11.18.18,0,0,1,.11-.18,4.8,4.8,0,0,1,1-.47,3.87,3.87,0,0,1,1.11-.16,2.46,2.46,0,0,1,1.73.58,2,2,0,0,1,.64,1.56,2.46,2.46,0,0,1-.21,1.05,2.85,2.85,0,0,1-.6.79,9.4,9.4,0,0,1-1,.76l-.34.22-.25.15c-.4.25-.69.44-.87.58a1.51,1.51,0,0,0-.41.5,1.77,1.77,0,0,0-.13.75v.63h3.37a.1.1,0,0,1,.09,0,.13.13,0,0,1,0,.1v.63a.13.13,0,0,1,0,.1.1.1,0,0,1-.09,0h-3.88A.41.41,0,0,1,442.13,710.88Z"/><path class="cls-1" d="M42.54,710.94a.2.2,0,0,1-.06-.14.27.27,0,0,1,0-.14l2.11-3.24-1.87-2.88a.22.22,0,0,1,0-.13.2.2,0,0,1,.06-.14.21.21,0,0,1,.16-.06h.57a.2.2,0,0,1,.18.09l1.48,2.28,1.47-2.28a.2.2,0,0,1,.18-.09h.58a.23.23,0,0,1,.16.06.2.2,0,0,1,.06.14.33.33,0,0,1,0,.13l-1.87,2.88,2.11,3.24a.43.43,0,0,1,0,.14.2.2,0,0,1-.06.14.23.23,0,0,1-.16.06h-.58a.19.19,0,0,1-.18-.1l-1.71-2.64-1.72,2.64a.19.19,0,0,1-.18.1H42.7A.21.21,0,0,1,42.54,710.94Z"/><path class="cls-1" d="M78.43,710.88a.37.37,0,0,1-.13-.29v-1a2.9,2.9,0,0,1,.24-1.3,2.23,2.23,0,0,1,.71-.83c.32-.24.88-.59,1.69-1.07a3.11,3.11,0,0,0,.87-.72,1.35,1.35,0,0,0,.29-.88,1.23,1.23,0,0,0-.4-1,1.58,1.58,0,0,0-1.08-.36,3.26,3.26,0,0,0-1.65.5.18.18,0,0,1-.1,0,.19.19,0,0,1-.14-.1l-.25-.42a.26.26,0,0,1,0-.11.17.17,0,0,1,.1-.18,4.8,4.8,0,0,1,1-.47,3.87,3.87,0,0,1,1.11-.16,2.45,2.45,0,0,1,1.73.58,2,2,0,0,1,.64,1.56,2.46,2.46,0,0,1-.21,1.05,2.67,2.67,0,0,1-.6.79,9.4,9.4,0,0,1-1,.76l-.34.22-.25.15c-.4.25-.69.44-.87.58a1.36,1.36,0,0,0-.4.5,1.62,1.62,0,0,0-.14.75v.63h3.37a.13.13,0,0,1,.1,0,.17.17,0,0,1,0,.1v.63a.17.17,0,0,1,0,.1.13.13,0,0,1-.1,0H78.73A.41.41,0,0,1,78.43,710.88Z"/><path class="cls-1" d="M115,710.76a3,3,0,0,1-1.12-1.06.16.16,0,0,1,0-.09.21.21,0,0,1,.1-.18l.41-.29a.28.28,0,0,1,.12,0,.23.23,0,0,1,.19.11,2.67,2.67,0,0,0,.85.76,2,2,0,0,0,1,.29,1.75,1.75,0,0,0,.92-.26,1.82,1.82,0,0,0,.67-.68,1.91,1.91,0,0,0,.24-.94,1.83,1.83,0,0,0-.24-.92,2,2,0,0,0-.66-.67,1.72,1.72,0,0,0-.89-.24h-.19l-.25.34a.14.14,0,0,1-.13.07.13.13,0,0,1-.1,0l-.45-.32a.14.14,0,0,1-.06-.12.16.16,0,0,1,0-.11l2-2.81h-2.7a.17.17,0,0,1-.17-.17v-.57a.13.13,0,0,1,0-.12.17.17,0,0,1,.12-.05h3.39a.57.57,0,0,1,.42.16.51.51,0,0,1,.16.37.62.62,0,0,1-.12.35L117,705.72a2.64,2.64,0,0,1,1.19.47,2.8,2.8,0,0,1,.83.95,2.7,2.7,0,0,1-.08,2.62,2.75,2.75,0,0,1-1,1,2.7,2.7,0,0,1-1.38.37A3.12,3.12,0,0,1,115,710.76Z"/></g></svg>