<?xml version="1.0" encoding="utf-8"?>
<!-- Generator: Adobe Illustrator 22.0.1, SVG Export Plug-In . SVG Version: 6.00 Build 0)  -->
<svg version="1.0" id="Layer_1" xmlns="http://www.w3.org/2000/svg" xmlns:xlink="http://www.w3.org/1999/xlink" x="0px" y="0px"
	 viewBox="0 0 500 325.3" enable-background="new 0 0 500 325.3" xml:space="preserve">
<circle fill="#558DCA" cx="175" cy="163.2" r="87.5"/>
<circle fill="#558DCA" cx="325" cy="163.2" r="87.5"/>
<g>
	<path fill="#FFFFFF" d="M153,159.9c-0.1-0.1-0.1-0.2,0-0.3l1.2-3.5l-4.2-11.5c0,0,0-0.1,0-0.1c0-0.1,0-0.2,0.1-0.2
		c0.1-0.1,0.1-0.1,0.2-0.1h1c0.1,0,0.2,0,0.2,0.1s0.1,0.1,0.2,0.2l3.3,9.4l3.3-9.4c0-0.1,0.1-0.2,0.2-0.2s0.2-0.1,0.2-0.1h0.9
		c0.1,0,0.2,0,0.3,0.1c0.1,0.1,0.1,0.2,0,0.3l-5.4,15.2c0,0.1-0.1,0.2-0.2,0.2c-0.1,0-0.2,0.1-0.2,0.1h-0.8
		C153.2,160,153.1,160,153,159.9z"/>
	<path fill="#FFFFFF" d="M164.1,155.6c-0.7-0.4-1.3-1-1.7-1.7c-0.4-0.7-0.6-1.5-0.6-2.3v-3.3c0-0.8,0.2-1.6,0.6-2.3
		c0.4-0.7,1-1.3,1.7-1.7s1.5-0.6,2.3-0.6s1.6,0.2,2.3,0.6s1.3,1,1.7,1.7s0.6,1.5,0.6,2.3v3.3c0,0.8-0.2,1.6-0.6,2.3s-1,1.3-1.7,1.7
		c-0.7,0.4-1.5,0.6-2.3,0.6S164.8,156,164.1,155.6z M167.9,154.3c0.4-0.3,0.8-0.6,1.1-1.1c0.3-0.4,0.4-0.9,0.4-1.5v-3.5
		c0-0.5-0.1-1-0.4-1.5c-0.3-0.4-0.6-0.8-1.1-1.1c-0.4-0.3-0.9-0.4-1.5-0.4s-1,0.1-1.5,0.4s-0.8,0.6-1.1,1.1s-0.4,0.9-0.4,1.5v3.5
		c0,0.5,0.1,1,0.4,1.5c0.3,0.4,0.6,0.8,1.1,1.1c0.4,0.3,0.9,0.4,1.5,0.4S167.4,154.5,167.9,154.3z"/>
	<path fill="#FFFFFF" d="M175.3,155.1c-0.7-0.7-1.1-1.7-1.1-2.9v-7.9c0-0.1,0-0.2,0.1-0.2c0.1-0.1,0.1-0.1,0.2-0.1h1
		c0.1,0,0.2,0,0.2,0.1c0.1,0.1,0.1,0.1,0.1,0.2v7.6c0,0.9,0.2,1.6,0.7,2c0.5,0.5,1.1,0.7,1.9,0.7c0.9,0,1.7-0.3,2.3-0.9
		c0.6-0.6,0.9-1.5,0.9-2.5v-6.9c0-0.1,0-0.2,0.1-0.2c0.1-0.1,0.1-0.1,0.2-0.1h1c0.1,0,0.2,0,0.2,0.1c0.1,0.1,0.1,0.1,0.1,0.2v11.3
		c0,0.1,0,0.2-0.1,0.2c-0.1,0.1-0.1,0.1-0.2,0.1h-1c-0.1,0-0.2,0-0.2-0.1c-0.1-0.1-0.1-0.1-0.1-0.2v-1.2c-0.4,0.6-0.8,1-1.4,1.3
		s-1.2,0.4-2,0.4C177,156.2,176,155.9,175.3,155.1z"/>
	<path fill="#FFFFFF" d="M186.2,155.9c-0.1-0.1-0.1-0.1-0.1-0.2v-1c0-0.1,0-0.2,0.1-0.2c0.1-0.1,0.1-0.1,0.2-0.1h1.7v-8.8h-1.7
		c-0.1,0-0.2,0-0.2-0.1c-0.1-0.1-0.1-0.1-0.1-0.2v-0.9c0-0.1,0-0.2,0.1-0.2c0.1-0.1,0.1-0.1,0.2-0.1h2.6c0.2,0,0.4,0.1,0.5,0.2
		c0.1,0.1,0.2,0.3,0.2,0.5v1l1.2-0.9c0.5-0.4,0.9-0.7,1.2-0.8c0.3-0.1,0.6-0.2,1-0.2h0.6c0.1,0,0.2,0,0.2,0.1c0,0.1,0.1,0.1,0.1,0.2
		v1c0,0.1,0,0.2-0.1,0.2c-0.1,0.1-0.1,0.1-0.2,0.1h-0.5c-0.3,0-0.7,0.1-1,0.2c-0.3,0.1-0.8,0.5-1.4,1l-1.2,1v6.7h2.4
		c0.1,0,0.2,0,0.2,0.1c0.1,0.1,0.1,0.1,0.1,0.2v1c0,0.1,0,0.2-0.1,0.2s-0.1,0.1-0.2,0.1h-5.8C186.4,155.9,186.3,155.9,186.2,155.9z"
		/>
	<path fill="#FFFFFF" d="M140.9,185.1c-0.1-0.1-0.1-0.1-0.1-0.2v-15.4c0-0.1,0-0.2,0.1-0.2c0.1-0.1,0.1-0.1,0.2-0.1h1
		c0.1,0,0.2,0,0.2,0.1c0.1,0.1,0.1,0.1,0.1,0.2v0.9c0.4-0.5,0.9-0.8,1.4-1.1c0.6-0.3,1.1-0.4,1.8-0.4c0.8,0,1.5,0.2,2.2,0.6
		c0.7,0.4,1.2,0.9,1.6,1.6c0.4,0.7,0.6,1.4,0.6,2.2v3.7c0,0.8-0.2,1.5-0.6,2.2c-0.4,0.7-0.9,1.2-1.6,1.6c-0.7,0.4-1.4,0.6-2.2,0.6
		c-0.6,0-1.1-0.1-1.7-0.3s-1-0.5-1.4-0.9v4.7c0,0.1,0,0.2-0.1,0.2c-0.1,0.1-0.1,0.1-0.2,0.1h-1C141,185.2,141,185.2,140.9,185.1z
		 M146.9,179.5c0.4-0.3,0.8-0.6,1.1-1.1c0.3-0.4,0.4-0.9,0.4-1.5v-3.5c0-0.5-0.1-1-0.4-1.5c-0.3-0.4-0.6-0.8-1.1-1.1
		c-0.4-0.3-0.9-0.4-1.5-0.4s-1,0.1-1.5,0.4c-0.5,0.3-0.8,0.6-1.1,1.1c-0.3,0.4-0.4,0.9-0.4,1.5v3.5c0,0.5,0.1,1,0.4,1.5
		c0.3,0.4,0.6,0.8,1.1,1.1c0.5,0.3,0.9,0.4,1.5,0.4S146.4,179.7,146.9,179.5z"/>
	<path fill="#FFFFFF" d="M152.2,181.1c-0.1-0.1-0.1-0.1-0.1-0.2v-1c0-0.1,0-0.2,0.1-0.2s0.1-0.1,0.2-0.1h1.7v-8.8h-1.7
		c-0.1,0-0.2,0-0.2-0.1c-0.1-0.1-0.1-0.1-0.1-0.2v-0.9c0-0.1,0-0.2,0.1-0.2c0.1-0.1,0.1-0.1,0.2-0.1h2.6c0.2,0,0.4,0.1,0.5,0.2
		c0.1,0.1,0.2,0.3,0.2,0.5v1l1.2-0.9c0.5-0.4,0.9-0.7,1.2-0.8c0.3-0.1,0.6-0.2,1-0.2h0.6c0.1,0,0.2,0,0.2,0.1c0,0.1,0.1,0.1,0.1,0.2
		v1c0,0.1,0,0.2-0.1,0.2c-0.1,0.1-0.1,0.1-0.2,0.1h-0.5c-0.4,0-0.7,0.1-1,0.2c-0.3,0.1-0.8,0.5-1.4,1l-1.2,1v6.7h2.4
		c0.1,0,0.2,0,0.2,0.1c0.1,0.1,0.1,0.1,0.1,0.2v1c0,0.1,0,0.2-0.1,0.2c-0.1,0.1-0.1,0.1-0.2,0.1h-5.8
		C152.3,181.1,152.2,181.1,152.2,181.1z"/>
	<path fill="#FFFFFF" d="M164.1,180.8c-0.7-0.4-1.3-1-1.7-1.7c-0.4-0.7-0.6-1.5-0.6-2.3v-3.3c0-0.8,0.2-1.6,0.6-2.3
		c0.4-0.7,1-1.3,1.7-1.7s1.5-0.6,2.3-0.6s1.6,0.2,2.3,0.6s1.3,1,1.7,1.7c0.4,0.7,0.6,1.5,0.6,2.3v3.3c0,0.8-0.2,1.6-0.6,2.3
		c-0.4,0.7-1,1.3-1.7,1.7s-1.5,0.6-2.3,0.6S164.8,181.2,164.1,180.8z M167.8,179.5c0.4-0.3,0.8-0.6,1.1-1.1c0.3-0.4,0.4-0.9,0.4-1.5
		v-3.5c0-0.5-0.1-1-0.4-1.5c-0.3-0.4-0.6-0.8-1.1-1.1c-0.4-0.3-0.9-0.4-1.5-0.4s-1,0.1-1.5,0.4c-0.4,0.3-0.8,0.6-1.1,1.1
		c-0.3,0.4-0.4,0.9-0.4,1.5v3.5c0,0.5,0.1,1,0.4,1.5c0.3,0.4,0.6,0.8,1.1,1.1c0.4,0.3,0.9,0.4,1.5,0.4S167.4,179.7,167.8,179.5z"/>
	<path fill="#FFFFFF" d="M173.1,185.1c-0.1-0.1-0.1-0.1-0.1-0.2V184c0-0.1,0-0.2,0.1-0.2c0.1-0.1,0.1-0.1,0.2-0.1h1.2
		c0.5,0,0.9-0.2,1.1-0.5c0.3-0.3,0.4-0.7,0.4-1.2v-11.2h-2.8c-0.1,0-0.2,0-0.2-0.1c-0.1-0.1-0.1-0.1-0.1-0.2v-1c0-0.1,0-0.2,0.1-0.2
		c0.1-0.1,0.1-0.1,0.2-0.1h3.7c0.2,0,0.4,0.1,0.5,0.2c0.1,0.1,0.2,0.3,0.2,0.5v12c0,0.9-0.3,1.6-0.8,2.2c-0.6,0.6-1.3,0.9-2.2,0.9
		h-1.4C173.2,185.2,173.1,185.2,173.1,185.1z M176.2,167.1c-0.1-0.1-0.1-0.1-0.1-0.2v-1.8c0-0.1,0-0.2,0.1-0.2
		c0.1-0.1,0.1-0.1,0.2-0.1h1c0.1,0,0.2,0,0.2,0.1c0.1,0.1,0.1,0.1,0.1,0.2v1.8c0,0.1,0,0.2-0.1,0.2c-0.1,0.1-0.1,0.1-0.2,0.1h-1
		C176.3,167.2,176.3,167.2,176.2,167.1z"/>
	<path fill="#FFFFFF" d="M183.4,180.5c-0.7-0.4-1.3-1-1.7-1.7s-0.6-1.5-0.6-2.3v-3c0-0.8,0.2-1.6,0.6-2.3c0.4-0.7,1-1.3,1.7-1.7
		s1.5-0.6,2.3-0.6s1.6,0.2,2.3,0.6s1.3,1,1.7,1.7c0.4,0.7,0.6,1.5,0.6,2.3v1.4c0,0.2-0.1,0.4-0.2,0.5c-0.1,0.1-0.3,0.2-0.5,0.2h-6.7
		v0.9c0,0.5,0.1,1,0.4,1.5c0.3,0.4,0.6,0.8,1.1,1.1c0.4,0.3,0.9,0.4,1.5,0.4h3c0.1,0,0.2,0,0.2,0.1s0.1,0.1,0.1,0.2v1
		c0,0.1,0,0.2-0.1,0.2s-0.1,0.1-0.2,0.1h-3C184.8,181.1,184.1,180.9,183.4,180.5z M188.6,174.2v-0.8c0-0.5-0.1-1-0.4-1.5
		c-0.3-0.4-0.6-0.8-1.1-1.1c-0.4-0.3-0.9-0.4-1.5-0.4s-1,0.1-1.5,0.4c-0.4,0.3-0.8,0.6-1.1,1.1c-0.3,0.4-0.4,0.9-0.4,1.5v0.8H188.6z
		"/>
	<path fill="#FFFFFF" d="M195.1,180.8c-0.7-0.4-1.3-1-1.7-1.7c-0.4-0.7-0.6-1.5-0.6-2.3v-3.3c0-0.8,0.2-1.6,0.6-2.3
		c0.4-0.7,1-1.3,1.7-1.7s1.5-0.6,2.3-0.6c0.6,0,1.2,0.1,1.7,0.3c0.5,0.2,1,0.5,1.4,0.9c0.1,0.1,0.1,0.2,0.1,0.3c0,0.1,0,0.2-0.1,0.3
		c-0.1,0.2-0.3,0.3-0.5,0.5c-0.1,0.1-0.2,0.1-0.3,0.1c-0.1,0-0.2,0-0.3-0.1c-0.6-0.5-1.2-0.8-2-0.8c-0.5,0-1,0.1-1.5,0.4
		c-0.4,0.3-0.8,0.6-1.1,1.1c-0.3,0.4-0.4,0.9-0.4,1.5v3.5c0,0.5,0.1,1,0.4,1.5c0.3,0.4,0.6,0.8,1.1,1.1c0.4,0.3,0.9,0.4,1.5,0.4
		c0.8,0,1.4-0.3,2-0.8c0.1-0.1,0.2-0.1,0.3-0.1c0.1,0,0.2,0,0.3,0.1c0.2,0.1,0.3,0.3,0.5,0.5c0.1,0.1,0.1,0.2,0.1,0.3
		c0,0.1,0,0.2-0.1,0.3c-0.4,0.4-0.9,0.7-1.4,0.9c-0.5,0.2-1.1,0.3-1.7,0.3C196.5,181.4,195.8,181.2,195.1,180.8z"/>
	<path fill="#FFFFFF" d="M205.1,180.2c-0.6-0.6-0.9-1.4-0.9-2.3v-7.1h-1.4c-0.1,0-0.2,0-0.2-0.1c-0.1-0.1-0.1-0.1-0.1-0.2v-0.9
		c0-0.1,0-0.2,0.1-0.2c0.1-0.1,0.1-0.1,0.2-0.1h1.4v-2.2c0-0.1,0-0.2,0.1-0.2c0.1-0.1,0.1-0.1,0.2-0.1h1c0.1,0,0.2,0,0.2,0.1
		c0.1,0.1,0.1,0.1,0.1,0.2v2.2h3.7c0.1,0,0.2,0,0.2,0.1c0.1,0.1,0.1,0.1,0.1,0.2v1c0,0.1,0,0.2-0.1,0.2c-0.1,0.1-0.1,0.1-0.2,0.1
		h-3.7v6.9c0,0.5,0.2,1,0.5,1.3c0.3,0.3,0.8,0.5,1.3,0.5l1.9,0c0.1,0,0.2,0,0.2,0.1c0.1,0.1,0.1,0.1,0.1,0.2v1c0,0.1,0,0.2-0.1,0.2
		c-0.1,0.1-0.1,0.1-0.2,0.1h-2.1C206.5,181.1,205.7,180.8,205.1,180.2z"/>
</g>
<g>
	<path fill="#FFFFFF" d="M303,159.9c-0.1-0.1-0.1-0.2,0-0.3l1.2-3.5l-4.2-11.5c0,0,0-0.1,0-0.1c0-0.1,0-0.2,0.1-0.2
		c0.1-0.1,0.1-0.1,0.2-0.1h1c0.1,0,0.2,0,0.2,0.1c0.1,0,0.1,0.1,0.2,0.2l3.3,9.4l3.3-9.4c0-0.1,0.1-0.2,0.2-0.2
		c0.1,0,0.2-0.1,0.2-0.1h0.9c0.1,0,0.2,0,0.3,0.1c0.1,0.1,0.1,0.2,0,0.3l-5.4,15.2c0,0.1-0.1,0.2-0.2,0.2c-0.1,0-0.2,0.1-0.2,0.1
		h-0.8C303.2,160,303.1,160,303,159.9z"/>
	<path fill="#FFFFFF" d="M314.1,155.6c-0.7-0.4-1.3-1-1.7-1.7s-0.6-1.5-0.6-2.3v-3.3c0-0.8,0.2-1.6,0.6-2.3s1-1.3,1.7-1.7
		c0.7-0.4,1.5-0.6,2.3-0.6s1.6,0.2,2.3,0.6c0.7,0.4,1.3,1,1.7,1.7s0.6,1.5,0.6,2.3v3.3c0,0.8-0.2,1.6-0.6,2.3s-1,1.3-1.7,1.7
		c-0.7,0.4-1.5,0.6-2.3,0.6S314.8,156,314.1,155.6z M317.9,154.3c0.4-0.3,0.8-0.6,1.1-1.1c0.3-0.4,0.4-0.9,0.4-1.5v-3.5
		c0-0.5-0.1-1-0.4-1.5c-0.3-0.4-0.6-0.8-1.1-1.1c-0.4-0.3-0.9-0.4-1.5-0.4c-0.5,0-1,0.1-1.5,0.4s-0.8,0.6-1.1,1.1s-0.4,0.9-0.4,1.5
		v3.5c0,0.5,0.1,1,0.4,1.5c0.3,0.4,0.6,0.8,1.1,1.1c0.4,0.3,0.9,0.4,1.5,0.4C316.9,154.7,317.4,154.5,317.9,154.3z"/>
	<path fill="#FFFFFF" d="M325.3,155.1c-0.7-0.7-1.1-1.7-1.1-2.9v-7.9c0-0.1,0-0.2,0.1-0.2c0.1-0.1,0.1-0.1,0.2-0.1h1.1
		c0.1,0,0.2,0,0.2,0.1c0.1,0.1,0.1,0.1,0.1,0.2v7.6c0,0.9,0.2,1.6,0.7,2c0.5,0.5,1.1,0.7,1.9,0.7c0.9,0,1.7-0.3,2.3-0.9
		c0.6-0.6,0.9-1.5,0.9-2.5v-6.9c0-0.1,0-0.2,0.1-0.2c0.1-0.1,0.1-0.1,0.2-0.1h1.1c0.1,0,0.2,0,0.2,0.1c0.1,0.1,0.1,0.1,0.1,0.2v11.3
		c0,0.1,0,0.2-0.1,0.2c-0.1,0.1-0.1,0.1-0.2,0.1h-1.1c-0.1,0-0.2,0-0.2-0.1c-0.1-0.1-0.1-0.1-0.1-0.2v-1.2c-0.4,0.6-0.8,1-1.4,1.3
		c-0.6,0.3-1.2,0.4-2,0.4C327,156.2,326,155.9,325.3,155.1z"/>
	<path fill="#FFFFFF" d="M336.2,155.9c-0.1-0.1-0.1-0.1-0.1-0.2v-1c0-0.1,0-0.2,0.1-0.2c0.1-0.1,0.1-0.1,0.2-0.1h1.7v-8.8h-1.7
		c-0.1,0-0.2,0-0.2-0.1c-0.1-0.1-0.1-0.1-0.1-0.2v-0.9c0-0.1,0-0.2,0.1-0.2c0.1-0.1,0.1-0.1,0.2-0.1h2.6c0.2,0,0.4,0.1,0.5,0.2
		c0.1,0.1,0.2,0.3,0.2,0.5v1l1.2-0.9c0.5-0.4,0.9-0.7,1.2-0.8c0.3-0.1,0.6-0.2,1-0.2h0.6c0.1,0,0.2,0,0.2,0.1c0,0.1,0.1,0.1,0.1,0.2
		v1c0,0.1,0,0.2-0.1,0.2c-0.1,0.1-0.1,0.1-0.2,0.1h-0.5c-0.3,0-0.7,0.1-1,0.2c-0.3,0.1-0.8,0.5-1.4,1l-1.2,1v6.7h2.4
		c0.1,0,0.2,0,0.2,0.1c0.1,0.1,0.1,0.1,0.1,0.2v1c0,0.1,0,0.2-0.1,0.2c-0.1,0.1-0.1,0.1-0.2,0.1h-5.8
		C336.4,155.9,336.3,155.9,336.2,155.9z"/>
	<path fill="#FFFFFF" d="M305.8,180.3c-0.7-0.7-1.1-1.7-1.1-2.9v-7.9c0-0.1,0-0.2,0.1-0.2c0.1-0.1,0.1-0.1,0.2-0.1h1.1
		c0.1,0,0.2,0,0.2,0.1c0.1,0.1,0.1,0.1,0.1,0.2v7.6c0,0.9,0.2,1.6,0.7,2c0.5,0.5,1.1,0.7,1.9,0.7c0.9,0,1.7-0.3,2.3-0.9
		s0.9-1.5,0.9-2.5v-6.9c0-0.1,0-0.2,0.1-0.2c0.1-0.1,0.1-0.1,0.2-0.1h1.1c0.1,0,0.2,0,0.2,0.1c0.1,0.1,0.1,0.1,0.1,0.2v11.3
		c0,0.1,0,0.2-0.1,0.2c-0.1,0.1-0.1,0.1-0.2,0.1h-1.1c-0.1,0-0.2,0-0.2-0.1c-0.1-0.1-0.1-0.1-0.1-0.2v-1.2c-0.4,0.6-0.8,1-1.4,1.3
		c-0.6,0.3-1.2,0.4-2,0.4C307.5,181.4,306.5,181.1,305.8,180.3z"/>
	<path fill="#FFFFFF" d="M318.4,181.1c-0.6-0.2-1.1-0.4-1.6-0.7c-0.1,0-0.1-0.1-0.1-0.1c0-0.1,0-0.1,0-0.2l0.4-0.9
		c0.1-0.1,0.2-0.2,0.3-0.2c0,0,0.1,0,0.2,0c0.9,0.6,1.9,0.8,2.8,0.8c0.7,0,1.3-0.2,1.8-0.5c0.4-0.3,0.6-0.8,0.6-1.4
		c0-0.4-0.1-0.7-0.3-0.9c-0.2-0.2-0.4-0.4-0.7-0.6c-0.3-0.1-0.8-0.3-1.4-0.6c-0.9-0.3-1.5-0.6-2-0.9c-0.5-0.3-0.9-0.6-1.2-1.1
		c-0.3-0.4-0.4-1-0.4-1.7c0-1.1,0.4-1.9,1.1-2.5c0.7-0.6,1.6-0.8,2.8-0.8c0.6,0,1.2,0.1,1.8,0.3c0.6,0.2,1.1,0.4,1.6,0.7
		c0.1,0,0.1,0.1,0.1,0.1c0,0.1,0,0.1,0,0.2l-0.4,0.9c0,0.1-0.1,0.1-0.2,0.2c-0.1,0-0.2,0-0.2,0c-0.9-0.5-1.8-0.8-2.6-0.8
		c-0.7,0-1.2,0.1-1.6,0.4c-0.4,0.3-0.6,0.7-0.6,1.3c0,0.4,0.1,0.8,0.3,1c0.2,0.3,0.5,0.5,0.8,0.6c0.3,0.1,0.8,0.3,1.4,0.6
		c0.8,0.3,1.5,0.6,2,0.8c0.5,0.3,0.9,0.6,1.2,1c0.3,0.4,0.5,1,0.5,1.6c0,1.1-0.4,1.9-1.1,2.6c-0.8,0.6-1.7,0.9-3,0.9
		C319.7,181.4,319.1,181.3,318.4,181.1z"/>
	<path fill="#FFFFFF" d="M329.2,180.5c-0.7-0.4-1.3-1-1.7-1.7s-0.6-1.5-0.6-2.3v-3c0-0.8,0.2-1.6,0.6-2.3c0.4-0.7,1-1.3,1.7-1.7
		c0.7-0.4,1.5-0.6,2.3-0.6s1.6,0.2,2.3,0.6c0.7,0.4,1.3,1,1.7,1.7c0.4,0.7,0.6,1.5,0.6,2.3v1.4c0,0.2-0.1,0.4-0.2,0.5
		c-0.1,0.1-0.3,0.2-0.5,0.2h-6.7v0.9c0,0.5,0.1,1,0.4,1.5s0.6,0.8,1.1,1.1s0.9,0.4,1.5,0.4h3c0.1,0,0.2,0,0.2,0.1
		c0.1,0.1,0.1,0.1,0.1,0.2v1c0,0.1,0,0.2-0.1,0.2c-0.1,0.1-0.1,0.1-0.2,0.1h-3C330.7,181.1,329.9,180.9,329.2,180.5z M334.4,174.2
		v-0.8c0-0.5-0.1-1-0.4-1.5c-0.3-0.4-0.6-0.8-1.1-1.1c-0.4-0.3-0.9-0.4-1.5-0.4c-0.5,0-1,0.1-1.5,0.4c-0.4,0.3-0.8,0.6-1.1,1.1
		c-0.3,0.4-0.4,0.9-0.4,1.5v0.8H334.4z"/>
	<path fill="#FFFFFF" d="M338.3,181.1c-0.1-0.1-0.1-0.1-0.1-0.2v-1c0-0.1,0-0.2,0.1-0.2c0.1-0.1,0.1-0.1,0.2-0.1h1.7v-8.8h-1.7
		c-0.1,0-0.2,0-0.2-0.1c-0.1-0.1-0.1-0.1-0.1-0.2v-0.9c0-0.1,0-0.2,0.1-0.2c0.1-0.1,0.1-0.1,0.2-0.1h2.6c0.2,0,0.4,0.1,0.5,0.2
		c0.1,0.1,0.2,0.3,0.2,0.5v1l1.2-0.9c0.5-0.4,0.9-0.7,1.2-0.8c0.3-0.1,0.6-0.2,1-0.2h0.6c0.1,0,0.2,0,0.2,0.1c0,0.1,0.1,0.1,0.1,0.2
		v1c0,0.1,0,0.2-0.1,0.2c-0.1,0.1-0.1,0.1-0.2,0.1h-0.5c-0.3,0-0.7,0.1-1,0.2c-0.3,0.1-0.8,0.5-1.4,1l-1.2,1v6.7h2.4
		c0.1,0,0.2,0,0.2,0.1c0.1,0.1,0.1,0.1,0.1,0.2v1c0,0.1,0,0.2-0.1,0.2c-0.1,0.1-0.1,0.1-0.2,0.1h-5.8
		C338.4,181.1,338.3,181.1,338.3,181.1z"/>
</g>
<g>
	<path d="M134,25.6c0,0-0.1-0.1-0.1-0.1l-2.1-6.4c0,0,0,0,0-0.1c0,0,0-0.1,0.1-0.1c0,0,0.1-0.1,0.1-0.1h0.5c0,0,0.1,0,0.1,0
		c0,0,0.1,0.1,0.1,0.1l1.8,5.5l1.6-5.5c0-0.1,0.1-0.2,0.2-0.2h0.6c0.1,0,0.2,0.1,0.2,0.2l1.6,5.5l1.8-5.5c0,0,0-0.1,0.1-0.1
		c0,0,0.1,0,0.1,0h0.5c0.1,0,0.1,0,0.2,0.1c0,0.1,0,0.1,0,0.2l-2.1,6.4c0,0,0,0.1-0.1,0.1c0,0-0.1,0-0.1,0h-0.7c0,0-0.1,0-0.1,0
		c0,0-0.1-0.1-0.1-0.1l-1.6-5.2l-1.6,5.2c0,0,0,0.1-0.1,0.1c0,0-0.1,0-0.1,0h-0.7C134.1,25.7,134.1,25.7,134,25.6z"/>
	<path d="M143,25.6c0,0,0-0.1,0-0.1v-8.8c0,0,0-0.1,0-0.1c0,0,0.1,0,0.1,0h0.6c0,0,0.1,0,0.1,0c0,0,0,0.1,0,0.1v3
		c0.2-0.3,0.5-0.6,0.8-0.7c0.3-0.2,0.7-0.3,1.1-0.3c0.7,0,1.2,0.2,1.6,0.6c0.4,0.4,0.6,1,0.6,1.6v4.5c0,0,0,0.1,0,0.1
		c0,0-0.1,0-0.1,0h-0.6c0,0-0.1,0-0.1,0c0,0,0-0.1,0-0.1v-4.3c0-0.5-0.1-0.9-0.4-1.2c-0.3-0.3-0.6-0.4-1.1-0.4c-0.5,0-1,0.2-1.3,0.5
		s-0.5,0.8-0.5,1.5v3.9c0,0,0,0.1,0,0.1c0,0-0.1,0-0.1,0h-0.6C143.1,25.7,143,25.7,143,25.6z"/>
	<path d="M150.2,25.3c-0.4-0.3-0.6-0.8-0.6-1.4c0-0.5,0.2-1,0.5-1.3c0.4-0.3,0.9-0.6,1.5-0.6l1.6-0.2c0.2,0,0.4-0.1,0.5-0.2
		s0.2-0.3,0.2-0.5v-0.1c0-0.4-0.1-0.7-0.5-0.9c-0.3-0.2-0.7-0.4-1.1-0.4c-0.4,0-0.7,0.1-0.9,0.2c-0.3,0.1-0.5,0.3-0.6,0.6
		c-0.1,0.1-0.1,0.2-0.2,0.2c0,0-0.1,0-0.2-0.1l-0.3-0.2c-0.1-0.1-0.1-0.1-0.1-0.2c0,0,0-0.1,0-0.1c0.2-0.4,0.5-0.7,1-0.9
		c0.4-0.2,0.9-0.3,1.4-0.3c0.5,0,0.9,0.1,1.3,0.3c0.4,0.2,0.7,0.4,0.9,0.8s0.3,0.7,0.3,1.1v4.6c0,0,0,0.1,0,0.1c0,0-0.1,0-0.1,0
		h-0.5c0,0-0.1,0-0.1,0c0,0,0-0.1,0-0.1v-0.8c-0.2,0.4-0.6,0.6-1,0.8s-0.8,0.3-1.3,0.3C151.1,25.8,150.6,25.6,150.2,25.3z
		 M152.9,24.7c0.3-0.2,0.6-0.5,0.8-0.8c0.2-0.3,0.3-0.6,0.3-0.9v-0.5c-0.2,0-0.8,0.1-1.8,0.3l-0.3,0c-0.8,0.1-1.2,0.5-1.2,1.1
		c0,0.3,0.1,0.6,0.4,0.8c0.2,0.2,0.6,0.3,0.9,0.3C152.2,25,152.5,24.9,152.9,24.7z"/>
	<path d="M157.6,25.1c-0.3-0.3-0.5-0.8-0.5-1.3v-4.1h-0.8c0,0-0.1,0-0.1,0c0,0,0-0.1,0-0.1V19c0,0,0-0.1,0-0.1c0,0,0.1,0,0.1,0h0.8
		v-1.3c0,0,0-0.1,0-0.1c0,0,0.1,0,0.1,0h0.6c0,0,0.1,0,0.1,0c0,0,0,0.1,0,0.1v1.3h2.1c0,0,0.1,0,0.1,0c0,0,0,0.1,0,0.1v0.6
		c0,0,0,0.1,0,0.1c0,0-0.1,0-0.1,0H158v4c0,0.3,0.1,0.6,0.3,0.8c0.2,0.2,0.4,0.3,0.7,0.3l1.1,0c0,0,0.1,0,0.1,0c0,0,0,0.1,0,0.1v0.6
		c0,0,0,0.1,0,0.1c0,0-0.1,0-0.1,0H159C158.4,25.7,157.9,25.5,157.6,25.1z"/>
	<path d="M166.2,27.9c0,0,0-0.1,0-0.2l0.7-2l-2.4-6.6c0,0,0,0,0-0.1c0,0,0-0.1,0.1-0.1c0,0,0.1-0.1,0.1-0.1h0.6c0,0,0.1,0,0.1,0
		c0,0,0.1,0.1,0.1,0.1l1.9,5.4l1.9-5.4c0,0,0-0.1,0.1-0.1c0,0,0.1,0,0.1,0h0.5c0.1,0,0.1,0,0.2,0.1c0,0.1,0,0.1,0,0.2l-3.1,8.7
		c0,0,0,0.1-0.1,0.1s-0.1,0-0.1,0h-0.5C166.3,28,166.3,28,166.2,27.9z"/>
	<path d="M172.6,25.5c-0.4-0.2-0.7-0.5-0.9-1c-0.2-0.4-0.3-0.8-0.3-1.3v-1.9c0-0.5,0.1-0.9,0.3-1.3c0.2-0.4,0.5-0.7,0.9-1
		c0.4-0.2,0.8-0.3,1.3-0.3c0.5,0,0.9,0.1,1.3,0.3c0.4,0.2,0.7,0.6,0.9,1c0.2,0.4,0.3,0.8,0.3,1.3v1.9c0,0.5-0.1,0.9-0.3,1.3
		c-0.2,0.4-0.5,0.7-0.9,1s-0.8,0.3-1.3,0.3C173.4,25.8,173,25.7,172.6,25.5z M174.7,24.7c0.3-0.1,0.5-0.3,0.6-0.6
		c0.1-0.3,0.2-0.5,0.2-0.8v-2c0-0.3-0.1-0.6-0.2-0.8c-0.1-0.3-0.4-0.5-0.6-0.6c-0.3-0.1-0.5-0.2-0.8-0.2c-0.3,0-0.6,0.1-0.8,0.2
		s-0.5,0.4-0.6,0.6s-0.2,0.5-0.2,0.8v2c0,0.3,0.1,0.6,0.2,0.8c0.1,0.3,0.4,0.5,0.6,0.6c0.3,0.1,0.5,0.2,0.8,0.2
		C174.2,24.9,174.5,24.9,174.7,24.7z"/>
	<path d="M179,25.2c-0.4-0.4-0.6-1-0.6-1.6V19c0,0,0-0.1,0-0.1c0,0,0.1,0,0.1,0h0.6c0,0,0.1,0,0.1,0c0,0,0,0.1,0,0.1v4.3
		c0,0.5,0.1,0.9,0.4,1.2s0.6,0.4,1.1,0.4c0.5,0,1-0.2,1.3-0.5c0.3-0.4,0.5-0.8,0.5-1.5V19c0,0,0-0.1,0-0.1c0,0,0.1,0,0.1,0h0.6
		c0,0,0.1,0,0.1,0c0,0,0,0.1,0,0.1v6.5c0,0,0,0.1,0,0.1c0,0-0.1,0-0.1,0h-0.6c0,0-0.1,0-0.1,0c0,0,0-0.1,0-0.1v-0.7
		c-0.2,0.3-0.5,0.6-0.8,0.7s-0.7,0.3-1.1,0.3C179.9,25.8,179.4,25.6,179,25.2z"/>
	<path d="M188.9,25.6c0,0,0-0.1,0-0.1V19c0,0,0-0.1,0-0.1c0,0,0.1,0,0.1,0h0.6c0,0,0.1,0,0.1,0c0,0,0,0.1,0,0.1v0.6
		c0.2-0.3,0.4-0.6,0.8-0.7c0.3-0.2,0.7-0.2,1.1-0.2c0.5,0,0.9,0.1,1.3,0.4c0.4,0.2,0.6,0.6,0.8,1c0.2-0.4,0.4-0.7,0.8-1
		c0.4-0.2,0.8-0.3,1.2-0.3c0.7,0,1.2,0.2,1.6,0.6c0.4,0.4,0.6,1,0.6,1.6v4.5c0,0,0,0.1,0,0.1c0,0-0.1,0-0.1,0h-0.6c0,0-0.1,0-0.1,0
		c0,0,0-0.1,0-0.1v-4.3c0-0.5-0.1-0.9-0.4-1.2c-0.3-0.3-0.6-0.4-1.1-0.4c-0.5,0-0.9,0.2-1.2,0.5c-0.3,0.4-0.5,0.8-0.5,1.5v3.9
		c0,0,0,0.1,0,0.1c0,0-0.1,0-0.1,0h-0.6c0,0-0.1,0-0.1,0c0,0,0-0.1,0-0.1v-4.3c0-0.5-0.1-0.9-0.4-1.2s-0.6-0.4-1.1-0.4
		c-0.5,0-0.9,0.2-1.2,0.5c-0.3,0.4-0.5,0.8-0.5,1.5v3.9c0,0,0,0.1,0,0.1c0,0-0.1,0-0.1,0h-0.6C189,25.7,189,25.7,188.9,25.6z"/>
	<path d="M200.1,25.3c-0.4-0.3-0.6-0.8-0.6-1.4c0-0.5,0.2-1,0.5-1.3c0.4-0.3,0.9-0.6,1.5-0.6l1.6-0.2c0.2,0,0.4-0.1,0.5-0.2
		s0.2-0.3,0.2-0.5v-0.1c0-0.4-0.1-0.7-0.5-0.9c-0.3-0.2-0.7-0.4-1.1-0.4c-0.4,0-0.7,0.1-0.9,0.2c-0.3,0.1-0.5,0.3-0.6,0.6
		c-0.1,0.1-0.1,0.2-0.2,0.2c0,0-0.1,0-0.2-0.1l-0.3-0.2c-0.1-0.1-0.1-0.1-0.1-0.2c0,0,0-0.1,0-0.1c0.2-0.4,0.5-0.7,1-0.9
		c0.4-0.2,0.9-0.3,1.4-0.3c0.5,0,0.9,0.1,1.3,0.3c0.4,0.2,0.7,0.4,0.9,0.8s0.3,0.7,0.3,1.1v4.6c0,0,0,0.1,0,0.1c0,0-0.1,0-0.1,0H204
		c0,0-0.1,0-0.1,0c0,0,0-0.1,0-0.1v-0.8c-0.2,0.4-0.6,0.6-1,0.8s-0.8,0.3-1.3,0.3C201,25.8,200.5,25.6,200.1,25.3z M202.8,24.7
		c0.3-0.2,0.6-0.5,0.8-0.8c0.2-0.3,0.3-0.6,0.3-0.9v-0.5c-0.2,0-0.8,0.1-1.8,0.3l-0.3,0c-0.8,0.1-1.2,0.5-1.2,1.1
		c0,0.3,0.1,0.6,0.4,0.8c0.2,0.2,0.6,0.3,0.9,0.3C202.1,25,202.5,24.9,202.8,24.7z"/>
	<path d="M206.8,25.6c0,0-0.1-0.1-0.1-0.1v-8.8c0,0,0-0.1,0-0.1c0,0,0.1,0,0.1,0h0.6c0,0,0.1,0,0.1,0c0,0,0,0.1,0,0.1v4.8h0.5
		l2.4-2.5c0.1-0.1,0.1-0.1,0.2-0.1h0.8c0,0,0.1,0,0.1,0c0,0,0,0.1,0,0.1c0,0,0,0.1,0,0.1l-2.7,2.8l2.8,3.5c0,0,0,0.1,0,0.1
		c0,0,0,0.1,0,0.1c0,0-0.1,0-0.1,0h-0.8c-0.1,0-0.1,0-0.2-0.1l-2.5-3.2h-0.5v3.1c0,0,0,0.1-0.1,0.1c0,0-0.1,0-0.1,0h-0.6
		C206.8,25.7,206.8,25.7,206.8,25.6z"/>
	<path d="M213.9,25.3c-0.4-0.2-0.7-0.5-0.9-1c-0.2-0.4-0.3-0.8-0.3-1.3v-1.7c0-0.5,0.1-0.9,0.3-1.3c0.2-0.4,0.5-0.7,0.9-1
		c0.4-0.2,0.8-0.3,1.3-0.3c0.5,0,0.9,0.1,1.3,0.3c0.4,0.2,0.7,0.6,0.9,1c0.2,0.4,0.3,0.8,0.3,1.3v0.8c0,0.1,0,0.2-0.1,0.3
		s-0.2,0.1-0.3,0.1h-3.8v0.5c0,0.3,0.1,0.6,0.2,0.8c0.1,0.3,0.4,0.5,0.6,0.6s0.5,0.2,0.8,0.2h1.7c0,0,0.1,0,0.1,0c0,0,0,0.1,0,0.1
		v0.6c0,0,0,0.1,0,0.1c0,0-0.1,0-0.1,0h-1.7C214.7,25.7,214.3,25.6,213.9,25.3z M216.9,21.7v-0.4c0-0.3-0.1-0.6-0.2-0.8
		c-0.1-0.3-0.4-0.5-0.6-0.6c-0.3-0.1-0.5-0.2-0.8-0.2c-0.3,0-0.6,0.1-0.8,0.2s-0.5,0.4-0.6,0.6s-0.2,0.5-0.2,0.8v0.4H216.9z"/>
</g>
<g>
	<path d="M205.2,313.1c0,0-0.1-0.1-0.1-0.1l-2.1-6.4c0,0,0,0,0-0.1c0,0,0-0.1,0.1-0.1s0.1-0.1,0.1-0.1h0.5c0,0,0.1,0,0.1,0
		c0,0,0.1,0.1,0.1,0.1l1.8,5.5l1.6-5.5c0-0.1,0.1-0.2,0.2-0.2h0.6c0.1,0,0.2,0.1,0.2,0.2l1.6,5.5l1.8-5.5c0,0,0-0.1,0.1-0.1
		s0.1,0,0.1,0h0.5c0.1,0,0.1,0,0.2,0.1c0,0.1,0,0.1,0,0.2l-2.1,6.4c0,0,0,0.1-0.1,0.1c0,0-0.1,0-0.1,0h-0.7c0,0-0.1,0-0.1,0
		s-0.1-0.1-0.1-0.1l-1.6-5.2l-1.6,5.2c0,0,0,0.1-0.1,0.1s-0.1,0-0.1,0h-0.7C205.3,313.2,205.3,313.2,205.2,313.1z"/>
	<path d="M214.2,313.1c0,0,0-0.1,0-0.1v-8.8c0,0,0-0.1,0-0.1c0,0,0.1,0,0.1,0h0.6c0,0,0.1,0,0.1,0c0,0,0,0.1,0,0.1v3
		c0.2-0.3,0.5-0.6,0.8-0.7c0.3-0.2,0.7-0.3,1.1-0.3c0.7,0,1.2,0.2,1.6,0.6s0.6,1,0.6,1.6v4.5c0,0,0,0.1,0,0.1c0,0-0.1,0-0.1,0h-0.6
		c0,0-0.1,0-0.1,0c0,0,0-0.1,0-0.1v-4.3c0-0.5-0.1-0.9-0.4-1.2c-0.3-0.3-0.6-0.4-1.1-0.4c-0.5,0-1,0.2-1.3,0.5
		c-0.3,0.4-0.5,0.8-0.5,1.5v3.9c0,0,0,0.1,0,0.1c0,0-0.1,0-0.1,0h-0.6C214.3,313.2,214.3,313.2,214.2,313.1z"/>
	<path d="M221.4,312.8c-0.4-0.3-0.6-0.8-0.6-1.4c0-0.5,0.2-1,0.5-1.3s0.9-0.6,1.5-0.6l1.6-0.2c0.2,0,0.4-0.1,0.5-0.2
		c0.1-0.1,0.2-0.3,0.2-0.5v-0.1c0-0.4-0.1-0.7-0.5-0.9c-0.3-0.2-0.7-0.4-1.1-0.4c-0.4,0-0.7,0.1-0.9,0.2c-0.3,0.1-0.5,0.3-0.6,0.6
		c-0.1,0.1-0.1,0.2-0.2,0.2c0,0-0.1,0-0.2-0.1l-0.3-0.2c-0.1-0.1-0.1-0.1-0.1-0.2c0,0,0-0.1,0-0.1c0.2-0.4,0.5-0.7,1-0.9
		c0.4-0.2,0.9-0.3,1.4-0.3c0.5,0,0.9,0.1,1.3,0.3c0.4,0.2,0.7,0.4,0.9,0.8s0.3,0.7,0.3,1.1v4.6c0,0,0,0.1,0,0.1s-0.1,0-0.1,0h-0.5
		c0,0-0.1,0-0.1,0c0,0,0-0.1,0-0.1v-0.8c-0.2,0.4-0.6,0.6-1,0.8c-0.4,0.2-0.8,0.3-1.3,0.3C222.3,313.3,221.8,313.1,221.4,312.8z
		 M224.1,312.2c0.3-0.2,0.6-0.5,0.8-0.8c0.2-0.3,0.3-0.6,0.3-0.9V310c-0.2,0-0.8,0.1-1.8,0.3l-0.3,0c-0.8,0.1-1.2,0.5-1.2,1.1
		c0,0.3,0.1,0.6,0.4,0.8c0.2,0.2,0.6,0.3,0.9,0.3C223.4,312.5,223.8,312.4,224.1,312.2z"/>
	<path d="M228.8,312.6c-0.3-0.3-0.5-0.8-0.5-1.3v-4.1h-0.8c0,0-0.1,0-0.1,0c0,0,0-0.1,0-0.1v-0.5c0,0,0-0.1,0-0.1c0,0,0.1,0,0.1,0
		h0.8v-1.3c0,0,0-0.1,0-0.1c0,0,0.1,0,0.1,0h0.6c0,0,0.1,0,0.1,0c0,0,0,0.1,0,0.1v1.3h2.1c0,0,0.1,0,0.1,0c0,0,0,0.1,0,0.1v0.6
		c0,0,0,0.1,0,0.1c0,0-0.1,0-0.1,0h-2.1v4c0,0.3,0.1,0.6,0.3,0.8c0.2,0.2,0.4,0.3,0.7,0.3l1.1,0c0,0,0.1,0,0.1,0c0,0,0,0.1,0,0.1
		v0.6c0,0,0,0.1,0,0.1c0,0-0.1,0-0.1,0h-1.2C229.6,313.2,229.1,313,228.8,312.6z"/>
	<path d="M237.5,315.4c0,0,0-0.1,0-0.2l0.7-2l-2.4-6.6c0,0,0,0,0-0.1c0,0,0-0.1,0.1-0.1c0,0,0.1-0.1,0.1-0.1h0.6c0,0,0.1,0,0.1,0
		s0.1,0.1,0.1,0.1l1.9,5.4l1.9-5.4c0,0,0-0.1,0.1-0.1s0.1,0,0.1,0h0.5c0.1,0,0.1,0,0.2,0.1s0,0.1,0,0.2l-3.1,8.7c0,0,0,0.1-0.1,0.1
		c0,0-0.1,0-0.1,0h-0.5C237.6,315.5,237.5,315.5,237.5,315.4z"/>
	<path d="M243.8,313c-0.4-0.2-0.7-0.5-0.9-1c-0.2-0.4-0.3-0.8-0.3-1.3v-1.9c0-0.5,0.1-0.9,0.3-1.3c0.2-0.4,0.5-0.7,0.9-1
		c0.4-0.2,0.8-0.3,1.3-0.3s0.9,0.1,1.3,0.3c0.4,0.2,0.7,0.5,0.9,1c0.2,0.4,0.3,0.8,0.3,1.3v1.9c0,0.5-0.1,0.9-0.3,1.3
		c-0.2,0.4-0.5,0.7-0.9,1c-0.4,0.2-0.8,0.3-1.3,0.3S244.2,313.2,243.8,313z M245.9,312.2c0.3-0.1,0.5-0.3,0.6-0.6
		c0.1-0.3,0.2-0.5,0.2-0.8v-2c0-0.3-0.1-0.6-0.2-0.8c-0.1-0.3-0.4-0.5-0.6-0.6s-0.5-0.2-0.8-0.2s-0.6,0.1-0.8,0.2s-0.5,0.3-0.6,0.6
		c-0.1,0.3-0.2,0.5-0.2,0.8v2c0,0.3,0.1,0.6,0.2,0.8c0.1,0.3,0.3,0.5,0.6,0.6c0.3,0.1,0.5,0.2,0.8,0.2S245.7,312.4,245.9,312.2z"/>
	<path d="M250.2,312.7c-0.4-0.4-0.6-1-0.6-1.6v-4.5c0,0,0-0.1,0-0.1c0,0,0.1,0,0.1,0h0.6c0,0,0.1,0,0.1,0c0,0,0,0.1,0,0.1v4.3
		c0,0.5,0.1,0.9,0.4,1.2c0.3,0.3,0.6,0.4,1.1,0.4c0.5,0,1-0.2,1.3-0.5c0.3-0.4,0.5-0.8,0.5-1.5v-3.9c0,0,0-0.1,0-0.1
		c0,0,0.1,0,0.1,0h0.6c0,0,0.1,0,0.1,0c0,0,0,0.1,0,0.1v6.5c0,0,0,0.1,0,0.1c0,0-0.1,0-0.1,0h-0.6c0,0-0.1,0-0.1,0s0-0.1,0-0.1v-0.7
		c-0.2,0.3-0.5,0.6-0.8,0.7s-0.7,0.3-1.1,0.3C251.2,313.3,250.6,313.1,250.2,312.7z"/>
	<path d="M261.1,313c-0.4-0.2-0.7-0.5-0.9-0.9c-0.2-0.4-0.3-0.8-0.3-1.3v-2.1c0-0.5,0.1-0.9,0.3-1.3c0.2-0.4,0.5-0.7,0.9-0.9
		c0.4-0.2,0.8-0.3,1.3-0.3c0.3,0,0.6,0.1,1,0.2c0.3,0.1,0.6,0.3,0.8,0.5v-2.7c0,0,0-0.1,0-0.1c0,0,0.1,0,0.1,0h0.6c0,0,0.1,0,0.1,0
		c0,0,0,0.1,0,0.1v8.8c0,0,0,0.1,0,0.1c0,0-0.1,0-0.1,0h-0.6c0,0-0.1,0-0.1,0s0-0.1,0-0.1v-0.5c-0.2,0.3-0.5,0.5-0.8,0.6
		c-0.3,0.1-0.7,0.2-1,0.2C261.9,313.3,261.4,313.2,261.1,313z M263.3,312.2c0.3-0.1,0.5-0.3,0.6-0.6c0.1-0.3,0.2-0.5,0.2-0.8v-2
		c0-0.3-0.1-0.6-0.2-0.8c-0.1-0.3-0.4-0.5-0.6-0.6s-0.5-0.2-0.8-0.2c-0.3,0-0.6,0.1-0.8,0.2s-0.5,0.3-0.6,0.6
		c-0.1,0.3-0.2,0.5-0.2,0.8v2c0,0.3,0.1,0.6,0.2,0.8c0.1,0.3,0.3,0.5,0.6,0.6c0.3,0.1,0.5,0.2,0.8,0.2
		C262.7,312.4,263,312.4,263.3,312.2z"/>
	<path d="M268.2,312.8c-0.4-0.2-0.7-0.5-0.9-1s-0.3-0.8-0.3-1.3v-1.7c0-0.5,0.1-0.9,0.3-1.3c0.2-0.4,0.5-0.7,0.9-1
		c0.4-0.2,0.8-0.3,1.3-0.3c0.5,0,0.9,0.1,1.3,0.3c0.4,0.2,0.7,0.5,0.9,1c0.2,0.4,0.3,0.8,0.3,1.3v0.8c0,0.1,0,0.2-0.1,0.3
		s-0.2,0.1-0.3,0.1h-3.8v0.5c0,0.3,0.1,0.6,0.2,0.8s0.3,0.5,0.6,0.6c0.3,0.1,0.5,0.2,0.8,0.2h1.7c0,0,0.1,0,0.1,0c0,0,0,0.1,0,0.1
		v0.6c0,0,0,0.1,0,0.1c0,0-0.1,0-0.1,0h-1.7C269.1,313.2,268.6,313.1,268.2,312.8z M271.2,309.2v-0.4c0-0.3-0.1-0.6-0.2-0.8
		c-0.1-0.3-0.4-0.5-0.6-0.6s-0.5-0.2-0.8-0.2c-0.3,0-0.6,0.1-0.8,0.2s-0.5,0.3-0.6,0.6c-0.1,0.3-0.2,0.5-0.2,0.8v0.4H271.2z"/>
	<path d="M274.5,313.1c-0.4-0.1-0.7-0.2-0.9-0.4c0,0-0.1,0-0.1-0.1c0,0,0-0.1,0-0.1l0.3-0.5c0-0.1,0.1-0.1,0.2-0.1c0,0,0,0,0.1,0
		c0.5,0.3,1.1,0.5,1.6,0.5c0.4,0,0.8-0.1,1-0.3c0.2-0.2,0.4-0.5,0.4-0.8c0-0.2-0.1-0.4-0.2-0.5s-0.2-0.2-0.4-0.3
		c-0.2-0.1-0.5-0.2-0.8-0.3c-0.5-0.2-0.9-0.4-1.2-0.5s-0.5-0.4-0.7-0.6s-0.2-0.6-0.2-0.9c0-0.6,0.2-1.1,0.6-1.4
		c0.4-0.3,0.9-0.5,1.6-0.5c0.3,0,0.7,0,1,0.1c0.3,0.1,0.6,0.2,0.9,0.4c0,0,0.1,0,0.1,0.1s0,0.1,0,0.1l-0.2,0.5c0,0,0,0.1-0.1,0.1
		c0,0-0.1,0-0.1,0c-0.5-0.3-1-0.5-1.5-0.5c-0.4,0-0.7,0.1-0.9,0.3c-0.2,0.2-0.3,0.4-0.3,0.7c0,0.2,0.1,0.4,0.2,0.6
		c0.1,0.2,0.3,0.3,0.4,0.3s0.4,0.2,0.8,0.3c0.5,0.2,0.8,0.3,1.1,0.5c0.3,0.1,0.5,0.3,0.7,0.6c0.2,0.2,0.3,0.6,0.3,0.9
		c0,0.6-0.2,1.1-0.6,1.5c-0.4,0.4-1,0.5-1.7,0.5C275.2,313.3,274.8,313.2,274.5,313.1z"/>
	<path d="M280.6,313c-0.1-0.1-0.1-0.2-0.1-0.3v-5.5h-1.2c0,0-0.1,0-0.1,0c0,0,0-0.1,0-0.1v-0.6c0,0,0-0.1,0-0.1c0,0,0.1,0,0.1,0h1.8
		c0.1,0,0.2,0,0.3,0.1s0.1,0.2,0.1,0.3v5.5h1.2c0,0,0.1,0,0.1,0c0,0,0,0.1,0,0.1v0.6c0,0,0,0.1,0,0.1c0,0-0.1,0-0.1,0h-1.7
		C280.8,313.2,280.7,313.1,280.6,313z M280.5,305.4c0,0,0-0.1,0-0.1v-1c0,0,0-0.1,0-0.1c0,0,0.1,0,0.1,0h0.6c0,0,0.1,0,0.1,0
		c0,0,0,0.1,0,0.1v1c0,0,0,0.1,0,0.1c0,0-0.1,0-0.1,0h-0.6C280.6,305.4,280.5,305.4,280.5,305.4z"/>
	<path d="M284.6,315.2c-0.5-0.3-0.7-0.7-0.7-1.2c0-0.3,0.1-0.5,0.2-0.8c0.1-0.3,0.3-0.5,0.5-0.6c-0.2-0.1-0.3-0.3-0.4-0.4
		s-0.1-0.3-0.1-0.5c0-0.2,0.1-0.5,0.2-0.7c0.1-0.2,0.3-0.4,0.6-0.6c-0.3-0.2-0.5-0.5-0.6-0.8c-0.2-0.3-0.2-0.6-0.2-1
		c0-0.5,0.1-0.9,0.3-1.2c0.2-0.4,0.5-0.6,0.9-0.8c0.4-0.2,0.8-0.3,1.2-0.3c0.3,0,0.6,0.1,0.9,0.2h2.4c0,0,0.1,0,0.1,0
		c0,0,0,0.1,0,0.1v0.6c0,0,0,0.1,0,0.1c0,0-0.1,0-0.1,0h-1.2c0.2,0.4,0.4,0.8,0.4,1.3c0,0.5-0.1,0.9-0.3,1.2s-0.5,0.6-0.9,0.8
		c-0.4,0.2-0.8,0.3-1.2,0.3c-0.3,0-0.6-0.1-0.9-0.2c-0.2,0.1-0.3,0.2-0.4,0.3s-0.1,0.3-0.1,0.4c0,0.2,0.1,0.3,0.2,0.4
		c0.1,0.1,0.3,0.1,0.6,0.2c0.2,0,0.6,0.1,1.2,0.1l0.5,0c0.4,0,0.7,0.1,1,0.2c0.3,0.1,0.5,0.2,0.7,0.4s0.3,0.5,0.3,0.9
		c0,0.7-0.3,1.2-0.8,1.5c-0.5,0.3-1.2,0.5-2.1,0.5C285.7,315.6,285.1,315.5,284.6,315.2z M288,314.5c0.4-0.2,0.5-0.5,0.5-0.8
		c0-0.2-0.1-0.3-0.2-0.4s-0.2-0.2-0.4-0.2s-0.4-0.1-0.8-0.1c-0.1,0-0.2,0-0.5,0c-0.3,0-0.6,0-0.9-0.1c-0.2,0-0.4,0-0.5-0.1
		c-0.2,0.1-0.3,0.3-0.4,0.4c-0.1,0.2-0.1,0.4-0.1,0.5c0,0.4,0.2,0.6,0.5,0.8c0.3,0.2,0.8,0.2,1.3,0.2
		C287.2,314.8,287.6,314.7,288,314.5z M287.6,309.6c0.3-0.3,0.4-0.6,0.4-1.1c0-0.4-0.1-0.8-0.4-1.1s-0.7-0.4-1.1-0.4
		c-0.5,0-0.8,0.1-1.1,0.4c-0.3,0.3-0.4,0.6-0.4,1.1c0,0.4,0.1,0.8,0.4,1.1c0.3,0.3,0.7,0.4,1.1,0.4
		C286.9,310,287.3,309.9,287.6,309.6z"/>
	<path d="M291.3,313.1c0,0,0-0.1,0-0.1v-6.4c0,0,0-0.1,0-0.1c0,0,0.1,0,0.1,0h0.6c0,0,0.1,0,0.1,0c0,0,0,0.1,0,0.1v0.7
		c0.2-0.3,0.5-0.6,0.8-0.7s0.7-0.3,1.1-0.3c0.7,0,1.2,0.2,1.7,0.6s0.6,1,0.6,1.6v4.5c0,0,0,0.1,0,0.1c0,0-0.1,0-0.1,0h-0.6
		c0,0-0.1,0-0.1,0c0,0,0-0.1,0-0.1v-4.3c0-0.5-0.1-0.9-0.4-1.2c-0.3-0.3-0.6-0.4-1.1-0.4c-0.5,0-1,0.2-1.3,0.5
		c-0.3,0.4-0.5,0.8-0.5,1.5v3.9c0,0,0,0.1,0,0.1c0,0-0.1,0-0.1,0h-0.6C291.4,313.2,291.3,313.1,291.3,313.1z"/>
</g>
<g>
	<path fill="none" stroke="#000000" stroke-width="0.5" stroke-linecap="round" stroke-miterlimit="10" d="M250,288.2
		c-12.5-37.5-150,12.5-162.5-25"/>
	<path fill="none" stroke="#000000" stroke-width="0.5" stroke-linecap="round" stroke-miterlimit="10" d="M250,288.2
		c12.5-37.5,150,12.5,162.5-25"/>
</g>
<g>
	<path fill="none" stroke="#000000" stroke-width="0.5" stroke-linecap="round" stroke-miterlimit="10" d="M175,38.2
		c6.7,37.5,80.8-12.5,87.5,25"/>
	<path fill="none" stroke="#000000" stroke-width="0.5" stroke-linecap="round" stroke-miterlimit="10" d="M175,38.2
		c-6.7,37.5-80.8-12.5-87.5,25"/>
</g>
<path fill="#F8E610" d="M250,208.3c7.9-13.2,13.5-28.6,13.5-45.1s-3.5-30.3-13.5-45.1c-7.9,13.2-13.5,28.6-13.5,45.1
	S242.1,195.1,250,208.3z"/>
</svg>
