<?xml version="1.0" encoding="utf-8"?>
<!-- Generator: Adobe Illustrator 19.0.0, SVG Export Plug-In . SVG Version: 6.00 Build 0)  -->
<svg version="1.1" id="Layer_1" xmlns="http://www.w3.org/2000/svg" xmlns:xlink="http://www.w3.org/1999/xlink" x="0px" y="0px"
	 viewBox="0 0 612 792" style="enable-background:new 0 0 612 792;" xml:space="preserve">
<style type="text/css">
	.st0{fill:none;stroke:#000000;stroke-linecap:round;stroke-linejoin:round;stroke-miterlimit:10;}
	.st1{fill:none;stroke:#000000;stroke-width:0.25;stroke-linecap:round;stroke-linejoin:round;stroke-miterlimit:10;}
	.st2{fill:none;stroke:#000000;stroke-width:0.25;stroke-linecap:round;stroke-miterlimit:10;}
</style>
<g>
	<g>
		<g id="char-O">
			<path vector-effect="non-scaling-stroke" class="st0" d="M29.8,39v-6c0-1.6-1.3-3-3-3c-1.6,0-3,1.3-3,3v6c0,1.6,1.3,3,3,3
				S29.8,40.7,29.8,39z"/>
		</g>
	</g>
	<g>
		<g id="char-n">
			<g>
				<path vector-effect="non-scaling-stroke" class="st0" d="M38.8,42v-3c0-1.6-1.3-3-3-3c-1.6,0-3,1.3-3,3v3v-6"/>
			</g>
		</g>
	</g>
	<g>
		<g id="char-e">
			<path vector-effect="non-scaling-stroke" class="st0" d="M46.9,41.1c-0.6,0.6-1.3,0.9-2.1,0.9c-1.6,0-3-1.3-3-3c0-1.6,1.3-3,3-3
				s3,1.3,3,3h-6"/>
		</g>
	</g>
	<g>
		<g id="char-1">
			<polyline vector-effect="non-scaling-stroke" class="st0" points="62.6,30.1 59.7,32.1 62.6,30.1 62.6,42 59.7,42 65.6,42 			"/>
		</g>
	</g>
	<g>
		<g id="char-2">
			<path vector-effect="non-scaling-stroke" class="st0" d="M74.6,42h-6l5.5-7.3c0.3-0.5,0.5-1,0.5-1.7c0-1.6-1.3-3-3-3
				c-1.6,0-3,1.3-3,3"/>
		</g>
	</g>
	<g>
		<g id="char-dash">
			<line vector-effect="non-scaling-stroke" class="st0" x1="78.6" y1="36" x2="82.5" y2="36"/>
		</g>
	</g>
	<g>
		<g id="char-S">
			<path vector-effect="non-scaling-stroke" class="st0" d="M86.5,39c0,1.6,1.3,3,3,3s3-1.3,3-3s-1.3-3-3-3c-1.6,0-3-1.3-3-3
				c0-1.6,1.3-3,3-3c1.6,0,3,1.3,3,3"/>
		</g>
	</g>
	<g>
		<g id="char-i">
			<g>
				<line vector-effect="non-scaling-stroke" class="st0" x1="97.4" y1="35" x2="97.4" y2="33.1"/>
				<path vector-effect="non-scaling-stroke" class="st0" d="M95.5,36h2v4c0,1.1,0.9,2,2,2s2-0.9,2-2"/>
			</g>
		</g>
	</g>
	<g>
		<g id="char-d">
			<path vector-effect="non-scaling-stroke" class="st0" d="M104.4,39c0-1.6,1.3-3,3-3c1.6,0,3,1.3,3,3c0,1.6-1.3,3-3,3
				C105.7,42,104.4,40.7,104.4,39z"/>
			<line vector-effect="non-scaling-stroke" class="st0" x1="110.4" y1="42" x2="110.4" y2="30.1"/>
		</g>
	</g>
	<g>
		<g id="char-e_1_">
			<path vector-effect="non-scaling-stroke" class="st0" d="M118.4,41.1c-0.6,0.6-1.3,0.9-2.1,0.9c-1.6,0-3-1.3-3-3c0-1.6,1.3-3,3-3
				c1.6,0,3,1.3,3,3h-6"/>
		</g>
	</g>
	<g>
		<g id="char-d_1_">
			<path vector-effect="non-scaling-stroke" class="st0" d="M122.3,39c0-1.6,1.3-3,3-3s3,1.3,3,3c0,1.6-1.3,3-3,3
				S122.3,40.7,122.3,39z"/>
			<line vector-effect="non-scaling-stroke" class="st0" x1="128.3" y1="42" x2="128.3" y2="30.1"/>
		</g>
	</g>
	<g>
		<g id="char-D">
			<path vector-effect="non-scaling-stroke" class="st0" d="M146.2,33.1c0-1.6-1.3-3-3-3h-3V42h3c1.6,0,3-1.3,3-3V33.1z"/>
		</g>
	</g>
	<g>
		<g id="char-i_1_">
			<g>
				<line vector-effect="non-scaling-stroke" class="st0" x1="151.1" y1="35" x2="151.1" y2="33.1"/>
				<path vector-effect="non-scaling-stroke" class="st0" d="M149.1,36h2v4c0,1.1,0.9,2,2,2s2-0.9,2-2"/>
			</g>
		</g>
	</g>
	<g>
		<g id="char-e_2_">
			<path vector-effect="non-scaling-stroke" class="st0" d="M163.2,41.1c-0.6,0.6-1.3,0.9-2.1,0.9c-1.6,0-3-1.3-3-3c0-1.6,1.3-3,3-3
				s3,1.3,3,3h-6"/>
		</g>
	</g>
</g>
<g>
	<g>
		<g id="char-S_1_">
			<path vector-effect="non-scaling-stroke" class="st0" d="M23.2,411.1c0,1.7,1.4,3.1,3.1,3.1s3.1-1.4,3.1-3.1S28,408,26.3,408
				s-3.1-1.4-3.1-3.1s1.4-3.1,3.1-3.1s3.1,1.4,3.1,3.1"/>
		</g>
	</g>
	<g>
		<g id="char-u">
			<g>
				<path vector-effect="non-scaling-stroke" class="st0" d="M38.8,408v3.1c0,1.7-1.4,3.1-3.1,3.1c-1.7,0-3.1-1.4-3.1-3.1V408"/>
				<line vector-effect="non-scaling-stroke" class="st0" x1="38.8" y1="411.1" x2="38.8" y2="414.2"/>
			</g>
		</g>
	</g>
	<g>
		<g id="char-m">
			<g>
				<g>
					<path vector-effect="non-scaling-stroke" class="st0" d="M48.1,414.2v-4.7c0-0.9-0.7-1.6-1.6-1.6c-0.9,0-1.6,0.7-1.6,1.6
						c0-0.9-0.7-1.6-1.6-1.6c-0.9,0-1.6,0.7-1.6,1.6v4.7"/>
					<line vector-effect="non-scaling-stroke" class="st0" x1="45" y1="409.5" x2="45" y2="411.1"/>
				</g>
				<line vector-effect="non-scaling-stroke" class="st0" x1="41.9" y1="410.1" x2="41.9" y2="408"/>
			</g>
		</g>
	</g>
	<g>
		<g id="char-o">
			<g>
				<path vector-effect="non-scaling-stroke" class="st0" d="M60.6,411.1c0-1.7,1.4-3.1,3.1-3.1s3.1,1.4,3.1,3.1s-1.4,3.1-3.1,3.1
					S60.6,412.8,60.6,411.1z"/>
			</g>
		</g>
	</g>
	<g>
		<g id="char-f">
			<g>
				<line vector-effect="non-scaling-stroke" class="st0" x1="73.1" y1="408" x2="73.1" y2="408"/>
				<line vector-effect="non-scaling-stroke" class="st0" x1="69.9" y1="408" x2="76.2" y2="408"/>
				<path vector-effect="non-scaling-stroke" class="st0" d="M69.9,414.2h1c0.6,0,1-0.5,1-1v-9.3c0-1.1,0.9-2.1,2.1-2.1
					s2.1,0.9,2.1,2.1"/>
			</g>
		</g>
	</g>
	<g>
		<g id="char-2_1_">
			<path vector-effect="non-scaling-stroke" class="st0" d="M94.9,414.2h-6.2l5.7-7.6c0.3-0.5,0.5-1.1,0.5-1.7
				c0-1.7-1.4-3.1-3.1-3.1s-3.1,1.4-3.1,3.1"/>
		</g>
	</g>
	<g>
		<g id="char-6">
			<path vector-effect="non-scaling-stroke" class="st0" d="M107.3,411.1c0-1.7,1.4-3.1,3.1-3.1s3.1,1.4,3.1,3.1s-1.4,3.1-3.1,3.1
				C108.7,414.2,107.3,412.8,107.3,411.1z"/>
			<path vector-effect="non-scaling-stroke" class="st0" d="M107.3,411.1v-6.2c0-1.7,1.4-3.1,3.1-3.1s3.1,1.4,3.1,3.1"/>
		</g>
	</g>
	<g>
		<g id="char-dash_1_">
			<line vector-effect="non-scaling-stroke" class="st0" x1="117.7" y1="408" x2="121.9" y2="408"/>
		</g>
	</g>
	<g>
		<g id="char-S_2_">
			<path vector-effect="non-scaling-stroke" class="st0" d="M126,411.1c0,1.7,1.4,3.1,3.1,3.1c1.7,0,3.1-1.4,3.1-3.1
				s-1.4-3.1-3.1-3.1c-1.7,0-3.1-1.4-3.1-3.1s1.4-3.1,3.1-3.1s3.1,1.4,3.1,3.1"/>
		</g>
	</g>
	<g>
		<g id="char-i_2_">
			<g>
				<line vector-effect="non-scaling-stroke" class="st0" x1="137.4" y1="406.9" x2="137.4" y2="404.9"/>
				<path vector-effect="non-scaling-stroke" class="st0" d="M135.4,408h2.1v4.2c0,1.1,0.9,2.1,2.1,2.1s2.1-0.9,2.1-2.1"/>
			</g>
		</g>
	</g>
	<g>
		<g id="char-d_2_">
			<path vector-effect="non-scaling-stroke" class="st0" d="M144.7,411.1c0-1.7,1.4-3.1,3.1-3.1s3.1,1.4,3.1,3.1s-1.4,3.1-3.1,3.1
				S144.7,412.8,144.7,411.1z"/>
			<line vector-effect="non-scaling-stroke" class="st0" x1="150.9" y1="414.2" x2="150.9" y2="401.8"/>
		</g>
	</g>
	<g>
		<g id="char-e_3_">
			<path vector-effect="non-scaling-stroke" class="st0" d="M159.4,413.3c-0.6,0.6-1.4,0.9-2.2,0.9c-1.7,0-3.1-1.4-3.1-3.1
				s1.4-3.1,3.1-3.1c1.7,0,3.1,1.4,3.1,3.1h-6.2"/>
		</g>
	</g>
	<g>
		<g id="char-d_3_">
			<path vector-effect="non-scaling-stroke" class="st0" d="M163.4,411.1c0-1.7,1.4-3.1,3.1-3.1s3.1,1.4,3.1,3.1s-1.4,3.1-3.1,3.1
				S163.4,412.8,163.4,411.1L163.4,411.1z"/>
			<line vector-effect="non-scaling-stroke" class="st0" x1="169.6" y1="414.2" x2="169.6" y2="401.8"/>
		</g>
	</g>
	<g>
		<g id="char-D_1_">
			<path vector-effect="non-scaling-stroke" class="st0" d="M188.3,404.9c0-1.7-1.4-3.1-3.1-3.1h-3.1v12.5h3.1
				c1.7,0,3.1-1.4,3.1-3.1V404.9z"/>
		</g>
	</g>
	<g>
		<g id="char-i_3_">
			<g>
				<line vector-effect="non-scaling-stroke" class="st0" x1="193.5" y1="406.9" x2="193.5" y2="404.9"/>
				<path vector-effect="non-scaling-stroke" class="st0" d="M191.4,408h2.1v4.2c0,1.1,0.9,2.1,2.1,2.1s2.1-0.9,2.1-2.1"/>
			</g>
		</g>
	</g>
	<g>
		<g id="char-c">
			<path vector-effect="non-scaling-stroke" class="st0" d="M206.1,408.9c-1.2-1.2-3.2-1.2-4.4,0s-1.2,3.2,0,4.4
				c1.2,1.2,3.2,1.2,4.4,0"/>
		</g>
	</g>
	<g>
		<g id="char-e_4_">
			<path vector-effect="non-scaling-stroke" class="st0" d="M215.5,413.3c-0.6,0.6-1.4,0.9-2.2,0.9c-1.7,0-3.1-1.4-3.1-3.1
				s1.4-3.1,3.1-3.1c1.7,0,3.1,1.4,3.1,3.1h-6.2"/>
		</g>
	</g>
</g>
<g>
	<g id="char-1_1_">
		<polyline vector-effect="non-scaling-stroke" class="st0" points="36,360 33,362 36,360 36,372 33,372 39,372 		"/>
	</g>
</g>
<g>
	<g id="char-2_2_">
		<path vector-effect="non-scaling-stroke" class="st0" d="M75,372h-6l5.5-7.3c0.3-0.5,0.5-1.1,0.5-1.7c0-1.7-1.3-3-3-3s-3,1.3-3,3"
			/>
	</g>
</g>
<g>
	<g id="char-3">
		<path vector-effect="non-scaling-stroke" class="st0" d="M105,369c0,1.7,1.3,3,3,3s3-1.3,3-3s-1.3-3-3-3c1.7,0,3-1.3,3-3
			s-1.3-3-3-3s-3,1.3-3,3"/>
	</g>
</g>
<g>
	<g id="char-4">
		<polyline vector-effect="non-scaling-stroke" class="st0" points="146,372 146,360 141,366 147,366 		"/>
	</g>
</g>
<g>
	<g id="char-5">
		<path vector-effect="non-scaling-stroke" class="st0" d="M177,369c0,1.7,1.3,3,3,3s3-1.3,3-3s-1.3-3-3-3h-3v-6h6"/>
	</g>
</g>
<g>
	<g id="char-6_1_">
		<path vector-effect="non-scaling-stroke" class="st0" d="M213,369c0-1.7,1.3-3,3-3s3,1.3,3,3s-1.3,3-3,3S213,370.7,213,369z"/>
		<path vector-effect="non-scaling-stroke" class="st0" d="M213,369v-6c0-1.7,1.3-3,3-3s3,1.3,3,3"/>
	</g>
</g>
<g>
	<g id="char-7">
		<line vector-effect="non-scaling-stroke" class="st0" x1="249" y1="360" x2="255" y2="360"/>
		<line vector-effect="non-scaling-stroke" class="st0" x1="255" y1="360" x2="249" y2="372"/>
		<line vector-effect="non-scaling-stroke" class="st0" x1="250" y1="366" x2="254" y2="366"/>
	</g>
</g>
<g>
	<g id="char-8">
		<path vector-effect="non-scaling-stroke" class="st0" d="M285,363c0-1.7,1.3-3,3-3s3,1.3,3,3s-1.3,3-3,3S285,364.7,285,363z"/>
		<path vector-effect="non-scaling-stroke" class="st0" d="M285,369c0-1.7,1.3-3,3-3s3,1.3,3,3s-1.3,3-3,3S285,370.7,285,369z"/>
	</g>
</g>
<g>
	<g id="char-9">
		<path vector-effect="non-scaling-stroke" class="st0" d="M321,363c0-1.7,1.3-3,3-3s3,1.3,3,3s-1.3,3-3,3S321,364.7,321,363z"/>
		<line vector-effect="non-scaling-stroke" class="st0" x1="327" y1="363" x2="327" y2="372"/>
	</g>
</g>
<g>
	<g>
		<g id="char-1_2_">
			<polyline vector-effect="non-scaling-stroke" class="st0" points="355.5,360 352.5,362 355.5,360 355.5,372 352.5,372 358.5,372 
							"/>
		</g>
	</g>
	<g>
		<g id="char-0">
			<path vector-effect="non-scaling-stroke" class="st0" d="M367.5,369v-6c0-1.7-1.3-3-3-3s-3,1.3-3,3v6c0,1.7,1.3,3,3,3
				S367.5,370.7,367.5,369z"/>
			<line vector-effect="non-scaling-stroke" class="st0" x1="362.5" y1="361" x2="366.5" y2="371"/>
		</g>
	</g>
</g>
<g>
	<g>
		<g id="char-1_3_">
			<polyline vector-effect="non-scaling-stroke" class="st0" points="391.5,360 388.5,362 391.5,360 391.5,372 388.5,372 394.5,372 
							"/>
		</g>
	</g>
	<g>
		<g id="char-1_4_">
			<polyline vector-effect="non-scaling-stroke" class="st0" points="400.5,360 397.5,362 400.5,360 400.5,372 397.5,372 403.5,372 
							"/>
		</g>
	</g>
</g>
<g>
	<g>
		<g id="char-1_5_">
			<polyline vector-effect="non-scaling-stroke" class="st0" points="427.5,360 424.5,362 427.5,360 427.5,372 424.5,372 430.5,372 
							"/>
		</g>
	</g>
	<g>
		<g id="char-2_3_">
			<path vector-effect="non-scaling-stroke" class="st0" d="M439.5,372h-6l5.5-7.3c0.3-0.5,0.5-1.1,0.5-1.7c0-1.7-1.3-3-3-3
				s-3,1.3-3,3"/>
		</g>
	</g>
</g>
<g>
	<rect x="24" y="54" class="st1" width="24" height="24"/>
	<rect x="24" y="84" class="st1" width="24" height="24"/>
	<rect x="24" y="114" class="st1" width="24" height="24"/>
	<rect x="24" y="144" class="st1" width="24" height="24"/>
	<rect x="24" y="174" class="st1" width="24" height="24"/>
	<rect x="24" y="204" class="st1" width="24" height="24"/>
	<rect x="24" y="234" class="st1" width="24" height="24"/>
	<rect x="24" y="264" class="st1" width="24" height="24"/>
	<rect x="24" y="294" class="st1" width="24" height="24"/>
	<rect x="24" y="324" class="st1" width="24" height="24"/>
</g>
<g>
	<rect x="60" y="54" class="st1" width="24" height="24"/>
	<rect x="60" y="84" class="st1" width="24" height="24"/>
	<rect x="60" y="114" class="st1" width="24" height="24"/>
	<rect x="60" y="144" class="st1" width="24" height="24"/>
	<rect x="60" y="174" class="st1" width="24" height="24"/>
	<rect x="60" y="204" class="st1" width="24" height="24"/>
	<rect x="60" y="234" class="st1" width="24" height="24"/>
	<rect x="60" y="264" class="st1" width="24" height="24"/>
	<rect x="60" y="294" class="st1" width="24" height="24"/>
	<rect x="60" y="324" class="st1" width="24" height="24"/>
</g>
<g>
	<rect x="96" y="54" class="st1" width="24" height="24"/>
	<rect x="96" y="84" class="st1" width="24" height="24"/>
	<rect x="96" y="114" class="st1" width="24" height="24"/>
	<rect x="96" y="144" class="st1" width="24" height="24"/>
	<rect x="96" y="174" class="st1" width="24" height="24"/>
	<rect x="96" y="204" class="st1" width="24" height="24"/>
	<rect x="96" y="234" class="st1" width="24" height="24"/>
	<rect x="96" y="264" class="st1" width="24" height="24"/>
	<rect x="96" y="294" class="st1" width="24" height="24"/>
	<rect x="96" y="324" class="st1" width="24" height="24"/>
</g>
<g>
	<rect x="132" y="54" class="st1" width="24" height="24"/>
	<rect x="132" y="84" class="st1" width="24" height="24"/>
	<rect x="132" y="114" class="st1" width="24" height="24"/>
	<rect x="132" y="144" class="st1" width="24" height="24"/>
	<rect x="132" y="174" class="st1" width="24" height="24"/>
	<rect x="132" y="204" class="st1" width="24" height="24"/>
	<rect x="132" y="234" class="st1" width="24" height="24"/>
	<rect x="132" y="264" class="st1" width="24" height="24"/>
	<rect x="132" y="294" class="st1" width="24" height="24"/>
	<rect x="132" y="324" class="st1" width="24" height="24"/>
</g>
<g>
	<rect x="168" y="54" class="st1" width="24" height="24"/>
	<rect x="168" y="84" class="st1" width="24" height="24"/>
	<rect x="168" y="114" class="st1" width="24" height="24"/>
	<rect x="168" y="144" class="st1" width="24" height="24"/>
	<rect x="168" y="174" class="st1" width="24" height="24"/>
	<rect x="168" y="204" class="st1" width="24" height="24"/>
	<rect x="168" y="234" class="st1" width="24" height="24"/>
	<rect x="168" y="264" class="st1" width="24" height="24"/>
	<rect x="168" y="294" class="st1" width="24" height="24"/>
	<rect x="168" y="324" class="st1" width="24" height="24"/>
</g>
<g>
	<rect x="204" y="54" class="st1" width="24" height="24"/>
	<rect x="204" y="84" class="st1" width="24" height="24"/>
	<rect x="204" y="114" class="st1" width="24" height="24"/>
	<rect x="204" y="144" class="st1" width="24" height="24"/>
	<rect x="204" y="174" class="st1" width="24" height="24"/>
	<rect x="204" y="204" class="st1" width="24" height="24"/>
	<rect x="204" y="234" class="st1" width="24" height="24"/>
	<rect x="204" y="264" class="st1" width="24" height="24"/>
	<rect x="204" y="294" class="st1" width="24" height="24"/>
	<rect x="204" y="324" class="st1" width="24" height="24"/>
</g>
<g>
	<rect x="240" y="54" class="st1" width="24" height="24"/>
	<rect x="240" y="84" class="st1" width="24" height="24"/>
	<rect x="240" y="114" class="st1" width="24" height="24"/>
	<rect x="240" y="144" class="st1" width="24" height="24"/>
	<rect x="240" y="174" class="st1" width="24" height="24"/>
	<rect x="240" y="204" class="st1" width="24" height="24"/>
	<rect x="240" y="234" class="st1" width="24" height="24"/>
	<rect x="240" y="264" class="st1" width="24" height="24"/>
	<rect x="240" y="294" class="st1" width="24" height="24"/>
	<rect x="240" y="324" class="st1" width="24" height="24"/>
</g>
<g>
	<rect x="276" y="54" class="st1" width="24" height="24"/>
	<rect x="276" y="84" class="st1" width="24" height="24"/>
	<rect x="276" y="114" class="st1" width="24" height="24"/>
	<rect x="276" y="144" class="st1" width="24" height="24"/>
	<rect x="276" y="174" class="st1" width="24" height="24"/>
	<rect x="276" y="204" class="st1" width="24" height="24"/>
	<rect x="276" y="234" class="st1" width="24" height="24"/>
	<rect x="276" y="264" class="st1" width="24" height="24"/>
	<rect x="276" y="294" class="st1" width="24" height="24"/>
	<rect x="276" y="324" class="st1" width="24" height="24"/>
</g>
<g>
	<rect x="312" y="54" class="st1" width="24" height="24"/>
	<rect x="312" y="84" class="st1" width="24" height="24"/>
	<rect x="312" y="114" class="st1" width="24" height="24"/>
	<rect x="312" y="144" class="st1" width="24" height="24"/>
	<rect x="312" y="174" class="st1" width="24" height="24"/>
	<rect x="312" y="204" class="st1" width="24" height="24"/>
	<rect x="312" y="234" class="st1" width="24" height="24"/>
	<rect x="312" y="264" class="st1" width="24" height="24"/>
	<rect x="312" y="294" class="st1" width="24" height="24"/>
	<rect x="312" y="324" class="st1" width="24" height="24"/>
</g>
<g>
	<rect x="348" y="54" class="st1" width="24" height="24"/>
	<rect x="348" y="84" class="st1" width="24" height="24"/>
	<rect x="348" y="114" class="st1" width="24" height="24"/>
	<rect x="348" y="144" class="st1" width="24" height="24"/>
	<rect x="348" y="174" class="st1" width="24" height="24"/>
	<rect x="348" y="204" class="st1" width="24" height="24"/>
	<rect x="348" y="234" class="st1" width="24" height="24"/>
	<rect x="348" y="264" class="st1" width="24" height="24"/>
	<rect x="348" y="294" class="st1" width="24" height="24"/>
	<rect x="348" y="324" class="st1" width="24" height="24"/>
</g>
<g>
	<rect x="384" y="54" class="st1" width="24" height="24"/>
	<rect x="384" y="84" class="st1" width="24" height="24"/>
	<rect x="384" y="114" class="st1" width="24" height="24"/>
	<rect x="384" y="144" class="st1" width="24" height="24"/>
	<rect x="384" y="174" class="st1" width="24" height="24"/>
	<rect x="384" y="204" class="st1" width="24" height="24"/>
	<rect x="384" y="234" class="st1" width="24" height="24"/>
	<rect x="384" y="264" class="st1" width="24" height="24"/>
	<rect x="384" y="294" class="st1" width="24" height="24"/>
	<rect x="384" y="324" class="st1" width="24" height="24"/>
</g>
<g>
	<rect x="420" y="54" class="st1" width="24" height="24"/>
	<rect x="420" y="84" class="st1" width="24" height="24"/>
	<rect x="420" y="114" class="st1" width="24" height="24"/>
	<rect x="420" y="144" class="st1" width="24" height="24"/>
	<rect x="420" y="174" class="st1" width="24" height="24"/>
	<rect x="420" y="204" class="st1" width="24" height="24"/>
	<rect x="420" y="234" class="st1" width="24" height="24"/>
	<rect x="420" y="264" class="st1" width="24" height="24"/>
	<rect x="420" y="294" class="st1" width="24" height="24"/>
	<rect x="420" y="324" class="st1" width="24" height="24"/>
</g>
<g>
	<rect x="24" y="426.2" class="st1" width="24" height="24"/>
	<rect x="24" y="456.2" class="st1" width="24" height="24"/>
	<rect x="24" y="486.2" class="st1" width="24" height="24"/>
	<rect x="24" y="516.2" class="st1" width="24" height="24"/>
	<rect x="24" y="546.2" class="st1" width="24" height="24"/>
	<rect x="24" y="576.2" class="st1" width="24" height="24"/>
	<rect x="24" y="606.2" class="st1" width="24" height="24"/>
	<rect x="24" y="636.2" class="st1" width="24" height="24"/>
	<rect x="24" y="666.2" class="st1" width="24" height="24"/>
	<rect x="24" y="696.2" class="st1" width="24" height="24"/>
</g>
<g>
	<rect x="60" y="426.2" class="st1" width="24" height="24"/>
	<rect x="60" y="456.2" class="st1" width="24" height="24"/>
	<rect x="60" y="486.2" class="st1" width="24" height="24"/>
	<rect x="60" y="516.2" class="st1" width="24" height="24"/>
	<rect x="60" y="546.2" class="st1" width="24" height="24"/>
	<rect x="60" y="576.2" class="st1" width="24" height="24"/>
	<rect x="60" y="606.2" class="st1" width="24" height="24"/>
	<rect x="60" y="636.2" class="st1" width="24" height="24"/>
	<rect x="60" y="666.2" class="st1" width="24" height="24"/>
	<rect x="60" y="696.2" class="st1" width="24" height="24"/>
</g>
<g>
	<rect x="96" y="426.2" class="st1" width="24" height="24"/>
	<rect x="96" y="456.2" class="st1" width="24" height="24"/>
	<rect x="96" y="486.2" class="st1" width="24" height="24"/>
	<rect x="96" y="516.2" class="st1" width="24" height="24"/>
	<rect x="96" y="546.2" class="st1" width="24" height="24"/>
	<rect x="96" y="576.2" class="st1" width="24" height="24"/>
	<rect x="96" y="606.2" class="st1" width="24" height="24"/>
	<rect x="96" y="636.2" class="st1" width="24" height="24"/>
	<rect x="96" y="666.2" class="st1" width="24" height="24"/>
	<rect x="96" y="696.2" class="st1" width="24" height="24"/>
</g>
<g>
	<rect x="132" y="426.2" class="st1" width="24" height="24"/>
	<rect x="132" y="456.2" class="st1" width="24" height="24"/>
	<rect x="132" y="486.2" class="st1" width="24" height="24"/>
	<rect x="132" y="516.2" class="st1" width="24" height="24"/>
	<rect x="132" y="546.2" class="st1" width="24" height="24"/>
	<rect x="132" y="576.2" class="st1" width="24" height="24"/>
	<rect x="132" y="606.2" class="st1" width="24" height="24"/>
	<rect x="132" y="636.2" class="st1" width="24" height="24"/>
	<rect x="132" y="666.2" class="st1" width="24" height="24"/>
	<rect x="132" y="696.2" class="st1" width="24" height="24"/>
</g>
<g>
	<rect x="168" y="426.2" class="st1" width="24" height="24"/>
	<rect x="168" y="456.2" class="st1" width="24" height="24"/>
	<rect x="168" y="486.2" class="st1" width="24" height="24"/>
	<rect x="168" y="516.2" class="st1" width="24" height="24"/>
	<rect x="168" y="546.2" class="st1" width="24" height="24"/>
	<rect x="168" y="576.2" class="st1" width="24" height="24"/>
	<rect x="168" y="606.2" class="st1" width="24" height="24"/>
	<rect x="168" y="636.2" class="st1" width="24" height="24"/>
	<rect x="168" y="666.2" class="st1" width="24" height="24"/>
	<rect x="168" y="696.2" class="st1" width="24" height="24"/>
</g>
<g>
	<rect x="204" y="426.2" class="st1" width="24" height="24"/>
	<rect x="204" y="456.2" class="st1" width="24" height="24"/>
	<rect x="204" y="486.2" class="st1" width="24" height="24"/>
	<rect x="204" y="516.2" class="st1" width="24" height="24"/>
	<rect x="204" y="546.2" class="st1" width="24" height="24"/>
	<rect x="204" y="576.2" class="st1" width="24" height="24"/>
	<rect x="204" y="606.2" class="st1" width="24" height="24"/>
	<rect x="204" y="636.2" class="st1" width="24" height="24"/>
	<rect x="204" y="666.2" class="st1" width="24" height="24"/>
	<rect x="204" y="696.2" class="st1" width="24" height="24"/>
</g>
<g>
	<rect x="240" y="426.2" class="st1" width="24" height="24"/>
	<rect x="240" y="456.2" class="st1" width="24" height="24"/>
	<rect x="240" y="486.2" class="st1" width="24" height="24"/>
	<rect x="240" y="516.2" class="st1" width="24" height="24"/>
	<rect x="240" y="546.2" class="st1" width="24" height="24"/>
	<rect x="240" y="576.2" class="st1" width="24" height="24"/>
	<rect x="240" y="606.2" class="st1" width="24" height="24"/>
	<rect x="240" y="636.2" class="st1" width="24" height="24"/>
	<rect x="240" y="666.2" class="st1" width="24" height="24"/>
	<rect x="240" y="696.2" class="st1" width="24" height="24"/>
</g>
<g>
	<rect x="276" y="426.2" class="st1" width="24" height="24"/>
	<rect x="276" y="456.2" class="st1" width="24" height="24"/>
	<rect x="276" y="486.2" class="st1" width="24" height="24"/>
	<rect x="276" y="516.2" class="st1" width="24" height="24"/>
	<rect x="276" y="546.2" class="st1" width="24" height="24"/>
	<rect x="276" y="576.2" class="st1" width="24" height="24"/>
	<rect x="276" y="606.2" class="st1" width="24" height="24"/>
	<rect x="276" y="636.2" class="st1" width="24" height="24"/>
	<rect x="276" y="666.2" class="st1" width="24" height="24"/>
	<rect x="276" y="696.2" class="st1" width="24" height="24"/>
</g>
<g>
	<rect x="312" y="426.2" class="st1" width="24" height="24"/>
	<rect x="312" y="456.2" class="st1" width="24" height="24"/>
	<rect x="312" y="486.2" class="st1" width="24" height="24"/>
	<rect x="312" y="516.2" class="st1" width="24" height="24"/>
	<rect x="312" y="546.2" class="st1" width="24" height="24"/>
	<rect x="312" y="576.2" class="st1" width="24" height="24"/>
	<rect x="312" y="606.2" class="st1" width="24" height="24"/>
	<rect x="312" y="636.2" class="st1" width="24" height="24"/>
	<rect x="312" y="666.2" class="st1" width="24" height="24"/>
	<rect x="312" y="696.2" class="st1" width="24" height="24"/>
</g>
<g>
	<rect x="348" y="426.2" class="st1" width="24" height="24"/>
	<rect x="348" y="456.2" class="st1" width="24" height="24"/>
	<rect x="348" y="486.2" class="st1" width="24" height="24"/>
	<rect x="348" y="516.2" class="st1" width="24" height="24"/>
	<rect x="348" y="546.2" class="st1" width="24" height="24"/>
	<rect x="348" y="576.2" class="st1" width="24" height="24"/>
	<rect x="348" y="606.2" class="st1" width="24" height="24"/>
	<rect x="348" y="636.2" class="st1" width="24" height="24"/>
	<rect x="348" y="666.2" class="st1" width="24" height="24"/>
	<rect x="348" y="696.2" class="st1" width="24" height="24"/>
</g>
<g>
	<rect x="384" y="426.2" class="st1" width="24" height="24"/>
	<rect x="384" y="456.2" class="st1" width="24" height="24"/>
	<rect x="384" y="486.2" class="st1" width="24" height="24"/>
	<rect x="384" y="516.2" class="st1" width="24" height="24"/>
	<rect x="384" y="546.2" class="st1" width="24" height="24"/>
	<rect x="384" y="576.2" class="st1" width="24" height="24"/>
	<rect x="384" y="606.2" class="st1" width="24" height="24"/>
	<rect x="384" y="636.2" class="st1" width="24" height="24"/>
	<rect x="384" y="666.2" class="st1" width="24" height="24"/>
	<rect x="384" y="696.2" class="st1" width="24" height="24"/>
</g>
<g>
	<rect x="420" y="426.2" class="st1" width="24" height="24"/>
	<rect x="420" y="456.2" class="st1" width="24" height="24"/>
	<rect x="420" y="486.2" class="st1" width="24" height="24"/>
	<rect x="420" y="516.2" class="st1" width="24" height="24"/>
	<rect x="420" y="546.2" class="st1" width="24" height="24"/>
	<rect x="420" y="576.2" class="st1" width="24" height="24"/>
	<rect x="420" y="606.2" class="st1" width="24" height="24"/>
	<rect x="420" y="636.2" class="st1" width="24" height="24"/>
	<rect x="420" y="666.2" class="st1" width="24" height="24"/>
	<rect x="420" y="696.2" class="st1" width="24" height="24"/>
</g>
<g>
	<g id="char-2_5_">
		<path vector-effect="non-scaling-stroke" class="st0" d="M75,744h-6l5.5-7.3c0.3-0.5,0.5-1.1,0.5-1.7c0-1.7-1.3-3-3-3s-3,1.3-3,3"
			/>
	</g>
</g>
<g>
	<g id="char-3_1_">
		<path vector-effect="non-scaling-stroke" class="st0" d="M105,741c0,1.7,1.3,3,3,3s3-1.3,3-3s-1.3-3-3-3c1.7,0,3-1.3,3-3
			s-1.3-3-3-3s-3,1.3-3,3"/>
	</g>
</g>
<g>
	<g id="char-4_1_">
		<polyline vector-effect="non-scaling-stroke" class="st0" points="146,744 146,732 141,738 147,738 		"/>
	</g>
</g>
<g>
	<g id="char-5_1_">
		<path vector-effect="non-scaling-stroke" class="st0" d="M177,741c0,1.7,1.3,3,3,3s3-1.3,3-3s-1.3-3-3-3h-3v-6h6"/>
	</g>
</g>
<g>
	<g id="char-6_2_">
		<path vector-effect="non-scaling-stroke" class="st0" d="M213,741c0-1.7,1.3-3,3-3s3,1.3,3,3s-1.3,3-3,3S213,742.7,213,741z"/>
		<path vector-effect="non-scaling-stroke" class="st0" d="M213,741v-6c0-1.7,1.3-3,3-3s3,1.3,3,3"/>
	</g>
</g>
<g>
	<g id="char-7_1_">
		<line vector-effect="non-scaling-stroke" class="st0" x1="249" y1="732" x2="255" y2="732"/>
		<line vector-effect="non-scaling-stroke" class="st0" x1="255" y1="732" x2="249" y2="744"/>
		<line vector-effect="non-scaling-stroke" class="st0" x1="250" y1="738" x2="254" y2="738"/>
	</g>
</g>
<g>
	<g id="char-8_1_">
		<path vector-effect="non-scaling-stroke" class="st0" d="M285,735c0-1.7,1.3-3,3-3s3,1.3,3,3s-1.3,3-3,3S285,736.7,285,735z"/>
		<path vector-effect="non-scaling-stroke" class="st0" d="M285,741c0-1.7,1.3-3,3-3s3,1.3,3,3s-1.3,3-3,3S285,742.7,285,741z"/>
	</g>
</g>
<g>
	<g id="char-9_1_">
		<path vector-effect="non-scaling-stroke" class="st0" d="M321,735c0-1.7,1.3-3,3-3s3,1.3,3,3s-1.3,3-3,3S321,736.7,321,735z"/>
		<line vector-effect="non-scaling-stroke" class="st0" x1="327" y1="735" x2="327" y2="744"/>
	</g>
</g>
<g>
	<g>
		<g id="char-1_9_">
			<polyline vector-effect="non-scaling-stroke" class="st0" points="355.5,732 352.5,734 355.5,732 355.5,744 352.5,744 358.5,744 
							"/>
		</g>
	</g>
	<g>
		<g id="char-0_1_">
			<path vector-effect="non-scaling-stroke" class="st0" d="M367.5,741v-6c0-1.7-1.3-3-3-3s-3,1.3-3,3v6c0,1.7,1.3,3,3,3
				S367.5,742.7,367.5,741z"/>
			<line vector-effect="non-scaling-stroke" class="st0" x1="362.5" y1="733" x2="366.5" y2="743"/>
		</g>
	</g>
</g>
<g>
	<g>
		<g id="char-1_8_">
			<polyline vector-effect="non-scaling-stroke" class="st0" points="391.5,732 388.5,734 391.5,732 391.5,744 388.5,744 394.5,744 
							"/>
		</g>
	</g>
	<g>
		<g id="char-1_7_">
			<polyline vector-effect="non-scaling-stroke" class="st0" points="400.5,732 397.5,734 400.5,732 400.5,744 397.5,744 403.5,744 
							"/>
		</g>
	</g>
</g>
<g>
	<g>
		<g id="char-1_6_">
			<polyline vector-effect="non-scaling-stroke" class="st0" points="427.5,732 424.5,734 427.5,732 427.5,744 424.5,744 430.5,744 
							"/>
		</g>
	</g>
	<g>
		<g id="char-2_4_">
			<path vector-effect="non-scaling-stroke" class="st0" d="M439.5,744h-6l5.5-7.3c0.3-0.5,0.5-1.1,0.5-1.7c0-1.7-1.3-3-3-3
				s-3,1.3-3,3"/>
		</g>
	</g>
</g>
<g>
	<line class="st0" x1="30.6" y1="744" x2="41.4" y2="733.1"/>
	<line class="st0" x1="30.6" y1="733.1" x2="41.4" y2="744"/>
</g>
<polygon id="XMLID_27_" class="st2" points="39.8,774 41.4,771.3 42.9,774 "/>
<polygon id="XMLID_35_" class="st2" points="36,774 37.6,771.3 39.1,774 "/>
<polygon id="XMLID_36_" class="st2" points="37.9,770.7 39.5,768 41,770.7 "/>
<polyline id="XMLID_119_" class="st2" points="28.5,774 24,774 24,768 28.5,768 "/>
<polyline id="XMLID_34_" class="st2" points="30,774 30,768 34.5,768 "/>
<line id="XMLID_122_" class="st2" x1="34.5" y1="771" x2="30" y2="771"/>
</svg>
