<?xml version="1.0" encoding="utf-8"?>
<!-- Generator: Adobe Illustrator 19.0.0, SVG Export Plug-In . SVG Version: 6.00 Build 0)  -->
<svg version="1.1" id="Layer_1" xmlns="http://www.w3.org/2000/svg" xmlns:xlink="http://www.w3.org/1999/xlink" x="0px" y="0px"
	 viewBox="0 0 612 792" style="enable-background:new 0 0 612 792;" xml:space="preserve">
<style type="text/css">
	.st0{fill:none;stroke:#000000;stroke-width:0.25;stroke-linecap:round;stroke-miterlimit:10;}
	.st1{fill:none;stroke:#000000;stroke-width:2;stroke-linecap:round;stroke-linejoin:round;stroke-miterlimit:10;}
</style>
<polygon id="XMLID_27_" class="st0" points="39.8,774 41.4,771.3 42.9,774 "/>
<polygon id="XMLID_35_" class="st0" points="36,774 37.6,771.3 39.1,774 "/>
<polygon id="XMLID_36_" class="st0" points="37.9,770.7 39.5,768 41,770.7 "/>
<polyline id="XMLID_119_" class="st0" points="28.5,774 24,774 24,768 28.5,768 "/>
<polyline id="XMLID_34_" class="st0" points="30,774 30,768 34.5,768 "/>
<line id="XMLID_122_" class="st0" x1="34.5" y1="771" x2="30" y2="771"/>
<g>
	<g>
		<g id="char-P_1">
			<path class="st1" d="M-786,729.4v-7.6c0-4.2-3.4-7.6-7.6-7.6c-4.2,0-7.6,3.4-7.6,7.6v7.6h30.4"/>
		</g>
		<g id="char-l_1">
			<path class="st1" d="M-801.2,704.1v-2.5c0-1.4,1.1-2.5,2.5-2.5h25.3c1.4,0,2.5-1.1,2.5-2.5v-2.5"/>
		</g>
		<g id="char-a_1">
			<g id="group-char-a_1">
				<path class="st1" d="M-778.4,668.6h7.6"/>
				<path class="st1" d="M-778.4,683.8c-4.2,0-7.6-3.4-7.6-7.6s3.4-7.6,7.6-7.6s7.6,3.4,7.6,7.6S-774.2,683.8-778.4,683.8z"/>
			</g>
		</g>
		<g id="char-n_1">
			<g>
				<path class="st1" d="M-770.8,645.8h-7.6c-4.2,0-7.6,3.4-7.6,7.6c0,4.2,3.4,7.6,7.6,7.6h7.6H-786"/>
			</g>
		</g>
		<g id="char-e_1">
			<path class="st1" d="M-773,625.3c1.5,1.5,2.2,3.4,2.2,5.4c0,4.2-3.4,7.6-7.6,7.6s-7.6-3.4-7.6-7.6c0-4.2,3.4-7.6,7.6-7.6v15.2"/>
		</g>
		<g id="char-t_1">
			<g>
				<path class="st1" d="M-801.2,610.4h25.3c2.8,0,5.1-2.3,5.1-5.1c0-2.8-2.3-5.1-5.1-5.1"/>
				<path class="st1" d="M-786,615.4v-15.2"/>
			</g>
		</g>
	</g>
	<g>
		<g id="char-G_1">
			<path class="st1" d="M-793.6,554.7c-4.2,0-7.6,3.4-7.6,7.6s3.4,7.6,7.6,7.6h15.2c4.2,0,7.6-3.4,7.6-7.6s-3.4-7.6-7.6-7.6h-7.6
				v10.1"/>
		</g>
		<g id="char-e_1_1_">
			<path class="st1" d="M-773,534.1c1.5,1.5,2.2,3.4,2.2,5.4c0,4.2-3.4,7.6-7.6,7.6s-7.6-3.4-7.6-7.6c0-4.2,3.4-7.6,7.6-7.6v15.2"/>
		</g>
		<g id="char-n_1_1_">
			<g>
				<path class="st1" d="M-770.8,509.1h-7.6c-4.2,0-7.6,3.4-7.6,7.6c0,4.2,3.4,7.6,7.6,7.6h7.6H-786"/>
			</g>
		</g>
		<g id="char-e_1_2_">
			<path class="st1" d="M-773,488.5c1.5,1.5,2.2,3.4,2.2,5.4c0,4.2-3.4,7.6-7.6,7.6s-7.6-3.4-7.6-7.6s3.4-7.6,7.6-7.6v15.2"/>
		</g>
		<g id="char-r_1">
			<g>
				<path class="st1" d="M-778.4,463.5c-4.2,0-7.6,3.4-7.6,7.6c0,4.2,3.4,7.6,7.6,7.6h7.6H-786"/>
			</g>
		</g>
		<g id="char-a_1_1_">
			<g id="group-char-a_1_1_">
				<path class="st1" d="M-778.4,440.7h7.6"/>
				<path class="st1" d="M-778.4,455.9c-4.2,0-7.6-3.4-7.6-7.6c0-4.2,3.4-7.6,7.6-7.6s7.6,3.4,7.6,7.6
					C-770.8,452.5-774.2,455.9-778.4,455.9z"/>
			</g>
		</g>
		<g id="char-t_1_1_">
			<g>
				<path class="st1" d="M-801.2,428h25.3c2.8,0,5.1-2.3,5.1-5.1c0-2.8-2.3-5.1-5.1-5.1"/>
				<path class="st1" d="M-786,433.1v-15.2"/>
			</g>
		</g>
		<g id="char-o_1">
			<g>
				<path class="st1" d="M-778.4,410.3c-4.2,0-7.6-3.4-7.6-7.6c0-4.2,3.4-7.6,7.6-7.6s7.6,3.4,7.6,7.6
					C-770.8,406.9-774.2,410.3-778.4,410.3z"/>
			</g>
		</g>
		<g id="char-r_1_1_">
			<g>
				<path class="st1" d="M-778.4,372.3c-4.2,0-7.6,3.4-7.6,7.6c0,4.2,3.4,7.6,7.6,7.6h7.6H-786"/>
			</g>
		</g>
	</g>
</g>
<g>
	<g>
		<g id="char-G_1_1_">
			<path class="st1" d="M-692.2,714.2c-4.2,0-7.6,3.4-7.6,7.6c0,4.2,3.4,7.6,7.6,7.6h15.2c4.2,0,7.6-3.4,7.6-7.6
				c0-4.2-3.4-7.6-7.6-7.6h-7.6v10.1"/>
		</g>
		<g id="char-r_1_2_">
			<g>
				<path class="st1" d="M-677,691.4c-4.2,0-7.6,3.4-7.6,7.6c0,4.2,3.4,7.6,7.6,7.6h7.6h-15.2"/>
			</g>
		</g>
		<g id="char-o_1_1_">
			<g>
				<path class="st1" d="M-677,683.8c-4.2,0-7.6-3.4-7.6-7.6s3.4-7.6,7.6-7.6s7.6,3.4,7.6,7.6S-672.8,683.8-677,683.8z"/>
			</g>
		</g>
		<g id="char-c_1">
			<path class="st1" d="M-682.4,648.1c-3,3-3,7.8,0,10.7c3,3,7.8,3,10.7,0c3-3,3-7.8,0-10.7"/>
		</g>
		<g id="char-e_1_3_">
			<path class="st1" d="M-671.7,625.3c1.5,1.5,2.2,3.4,2.2,5.4c0,4.2-3.4,7.6-7.6,7.6c-4.2,0-7.6-3.4-7.6-7.6c0-4.2,3.4-7.6,7.6-7.6
				v15.2"/>
		</g>
		<g id="char-r_1_3_">
			<g>
				<path class="st1" d="M-677,600.2c-4.2,0-7.6,3.4-7.6,7.6c0,4.2,3.4,7.6,7.6,7.6h7.6h-15.2"/>
			</g>
		</g>
		<g id="char-y_1">
			<g>
				<path class="st1" d="M-684.6,592.6l15.2-6.1"/>
				<path class="st1" d="M-684.6,577.4l25.3,15.2"/>
			</g>
		</g>
		<g id="char-dash_1">
			<path class="st1" d="M-684.6,567.3v-10.1"/>
		</g>
		<g id="char-S_1">
			<path class="st1" d="M-677,547.1c4.2,0,7.6-3.4,7.6-7.6c0-4.2-3.4-7.6-7.6-7.6c-4.2,0-7.6,3.4-7.6,7.6c0,4.2-3.4,7.6-7.6,7.6
				c-4.2,0-7.6-3.4-7.6-7.6c0-4.2,3.4-7.6,7.6-7.6"/>
		</g>
		<g id="char-h_1">
			<path class="st1" d="M-669.4,509.1h-7.6c-4.2,0-7.6,3.4-7.6,7.6c0,4.2,3.4,7.6,7.6,7.6h7.6h-30.4"/>
		</g>
		<g id="char-o_1_2_">
			<g>
				<path class="st1" d="M-677,501.5c-4.2,0-7.6-3.4-7.6-7.6s3.4-7.6,7.6-7.6s7.6,3.4,7.6,7.6S-672.8,501.5-677,501.5z"/>
			</g>
		</g>
		<g id="char-p_1">
			<g>
				<g>
					<path class="st1" d="M-677,478.7c-4.2,0-7.6-3.4-7.6-7.6c0-4.2,3.4-7.6,7.6-7.6s7.6,3.4,7.6,7.6
						C-669.4,475.3-672.8,478.7-677,478.7z"/>
				</g>
				<path class="st1" d="M-684.6,478.7h25.3"/>
			</g>
		</g>
		<g id="char-p_1_1_">
			<g>
				<g>
					<path class="st1" d="M-677,455.9c-4.2,0-7.6-3.4-7.6-7.6c0-4.2,3.4-7.6,7.6-7.6s7.6,3.4,7.6,7.6
						C-669.4,452.5-672.8,455.9-677,455.9z"/>
				</g>
				<path class="st1" d="M-684.6,455.9h25.3"/>
			</g>
		</g>
		<g id="char-i_1">
			<g>
				<path class="st1" d="M-687.2,428h-5.1"/>
				<path class="st1" d="M-684.6,433.1V428h10.1c2.8,0,5.1-2.3,5.1-5.1c0-2.8-2.3-5.1-5.1-5.1"/>
			</g>
		</g>
		<g id="char-n_1_2_">
			<g>
				<path class="st1" d="M-669.4,395.1h-7.6c-4.2,0-7.6,3.4-7.6,7.6s3.4,7.6,7.6,7.6h7.6h-15.2"/>
			</g>
		</g>
		<g id="char-g_1">
			<g id="group-char-g_1">
				<path class="st1" d="M-677,372.3h10.1c4.2,0,7.6,3.4,7.6,7.6c0,4.2-3.4,7.6-7.6,7.6"/>
				<path class="st1" d="M-677,387.5c-4.2,0-7.6-3.4-7.6-7.6c0-4.2,3.4-7.6,7.6-7.6s7.6,3.4,7.6,7.6
					C-669.4,384.1-672.8,387.5-677,387.5z"/>
			</g>
		</g>
	</g>
	<g>
		<g id="char-B_1">
			<path class="st1" d="M-699.8,334.3c0-4.2,3.4-7.6,7.6-7.6c4.2,0,7.6,3.4,7.6,7.6c0-4.2,3.4-7.6,7.6-7.6c4.2,0,7.6,3.4,7.6,7.6
				v7.6h-30.4V334.3z"/>
		</g>
		<g id="char-o_1_3_">
			<g>
				<path class="st1" d="M-677,319.1c-4.2,0-7.6-3.4-7.6-7.6c0-4.2,3.4-7.6,7.6-7.6s7.6,3.4,7.6,7.6
					C-669.4,315.7-672.8,319.1-677,319.1z"/>
			</g>
		</g>
		<g id="char-t_1_2_">
			<g>
				<path class="st1" d="M-699.8,291.3h25.3c2.8,0,5.1-2.3,5.1-5.1c0-2.8-2.3-5.1-5.1-5.1"/>
				<path class="st1" d="M-684.6,296.3v-15.2"/>
			</g>
		</g>
	</g>
</g>
<g>
	<g>
		<g id="char-I_1">
			<path class="st1" d="M-558,729.4v-15.2"/>
			<path class="st1" d="M-588.4,714.2v15.2"/>
			<path class="st1" d="M-588.4,721.8h30.4"/>
		</g>
		<g id="char-n_1_3_">
			<g>
				<path class="st1" d="M-558,691.4h-7.6c-4.2,0-7.6,3.4-7.6,7.6c0,4.2,3.4,7.6,7.6,7.6h7.6h-15.2"/>
			</g>
		</g>
		<g id="char-t_1_3_">
			<g>
				<path class="st1" d="M-588.4,678.8h25.3c2.8,0,5.1-2.3,5.1-5.1c0-2.8-2.3-5.1-5.1-5.1"/>
				<path class="st1" d="M-573.2,683.8v-15.2"/>
			</g>
		</g>
		<g id="char-e_1_4_">
			<path class="st1" d="M-560.2,648.1c1.5,1.5,2.2,3.4,2.2,5.4c0,4.2-3.4,7.6-7.6,7.6c-4.2,0-7.6-3.4-7.6-7.6c0-4.2,3.4-7.6,7.6-7.6
				V661"/>
		</g>
		<g id="char-r_1_4_">
			<g>
				<path class="st1" d="M-565.6,623c-4.2,0-7.6,3.4-7.6,7.6c0,4.2,3.4,7.6,7.6,7.6h7.6h-15.2"/>
			</g>
		</g>
		<g id="char-n_1_4_">
			<g>
				<path class="st1" d="M-558,600.2h-7.6c-4.2,0-7.6,3.4-7.6,7.6c0,4.2,3.4,7.6,7.6,7.6h7.6h-15.2"/>
			</g>
		</g>
		<g id="char-e_1_5_">
			<path class="st1" d="M-560.2,579.7c1.5,1.5,2.2,3.4,2.2,5.4c0,4.2-3.4,7.6-7.6,7.6c-4.2,0-7.6-3.4-7.6-7.6c0-4.2,3.4-7.6,7.6-7.6
				v15.2"/>
		</g>
		<g id="char-t_1_4_">
			<g>
				<path class="st1" d="M-588.4,564.8h25.3c2.8,0,5.1-2.3,5.1-5.1c0-2.8-2.3-5.1-5.1-5.1"/>
				<path class="st1" d="M-573.2,569.8v-15.2"/>
			</g>
		</g>
	</g>
	<g>
		<g id="char-S_1_1_">
			<path class="st1" d="M-565.6,524.3c4.2,0,7.6-3.4,7.6-7.6c0-4.2-3.4-7.6-7.6-7.6c-4.2,0-7.6,3.4-7.6,7.6c0,4.2-3.4,7.6-7.6,7.6
				c-4.2,0-7.6-3.4-7.6-7.6c0-4.2,3.4-7.6,7.6-7.6"/>
		</g>
		<g id="char-u_1">
			<g>
				<path class="st1" d="M-573.2,486.3h7.6c4.2,0,7.6,3.4,7.6,7.6s-3.4,7.6-7.6,7.6h-7.6"/>
				<path class="st1" d="M-565.6,486.3h7.6"/>
			</g>
		</g>
		<g id="char-r_1_5_">
			<g>
				<path class="st1" d="M-565.6,463.5c-4.2,0-7.6,3.4-7.6,7.6c0,4.2,3.4,7.6,7.6,7.6h7.6h-15.2"/>
			</g>
		</g>
		<g id="char-v_1">
			<path class="st1" d="M-573.2,440.7l15.2,7.6l-15.2,7.6"/>
		</g>
		<g id="char-e_1_6_">
			<path class="st1" d="M-560.2,420.1c1.5,1.5,2.2,3.4,2.2,5.4c0,4.2-3.4,7.6-7.6,7.6c-4.2,0-7.6-3.4-7.6-7.6s3.4-7.6,7.6-7.6v15.2"
				/>
		</g>
		<g id="char-i_1_1_">
			<g>
				<path class="st1" d="M-575.7,405.2h-5.1"/>
				<path class="st1" d="M-573.2,410.3v-5.1h10.1c2.8,0,5.1-2.3,5.1-5.1c0-2.8-2.3-5.1-5.1-5.1"/>
			</g>
		</g>
		<g id="char-l_1_1_">
			<path class="st1" d="M-588.4,385v-2.5c0-1.4,1.1-2.5,2.5-2.5h25.3c1.4,0,2.5-1.1,2.5-2.5v-2.5"/>
		</g>
		<g id="char-l_1_2_">
			<path class="st1" d="M-588.4,362.2v-2.5c0-1.4,1.1-2.5,2.5-2.5h25.3c1.4,0,2.5-1.1,2.5-2.5V352"/>
		</g>
		<g id="char-a_1_2_">
			<g id="group-char-a_1_2_">
				<path class="st1" d="M-565.6,326.7h7.6"/>
				<path class="st1" d="M-565.6,341.9c-4.2,0-7.6-3.4-7.6-7.6s3.4-7.6,7.6-7.6c4.2,0,7.6,3.4,7.6,7.6S-561.4,341.9-565.6,341.9z"/>
			</g>
		</g>
		<g id="char-n_1_5_">
			<g>
				<path class="st1" d="M-558,303.9h-7.6c-4.2,0-7.6,3.4-7.6,7.6c0,4.2,3.4,7.6,7.6,7.6h7.6h-15.2"/>
			</g>
		</g>
		<g id="char-c_1_1_">
			<path class="st1" d="M-570.9,283.4c-3,3-3,7.8,0,10.7c3,3,7.8,3,10.7,0c3-3,3-7.8,0-10.7"/>
		</g>
		<g id="char-e_1_7_">
			<path class="st1" d="M-560.2,260.6c1.5,1.5,2.2,3.4,2.2,5.4c0,4.2-3.4,7.6-7.6,7.6c-4.2,0-7.6-3.4-7.6-7.6s3.4-7.6,7.6-7.6v15.2"
				/>
		</g>
	</g>
	<g>
		<g id="char-F_1">
			<g id="group-char-F_1">
				<path class="st1" d="M-573.2,227.9v-5.1"/>
				<path class="st1" d="M-558,227.9h-30.4v-15.2"/>
			</g>
		</g>
		<g id="char-r_1_6_">
			<g>
				<path class="st1" d="M-565.6,190c-4.2,0-7.6,3.4-7.6,7.6c0,4.2,3.4,7.6,7.6,7.6h7.6h-15.2"/>
			</g>
		</g>
		<g id="char-o_1_4_">
			<g>
				<path class="st1" d="M-565.6,182.4c-4.2,0-7.6-3.4-7.6-7.6c0-4.2,3.4-7.6,7.6-7.6c4.2,0,7.6,3.4,7.6,7.6
					C-558,179-561.4,182.4-565.6,182.4z"/>
			</g>
		</g>
		<g id="char-n_1_6_">
			<g>
				<path class="st1" d="M-558,144.4h-7.6c-4.2,0-7.6,3.4-7.6,7.6c0,4.2,3.4,7.6,7.6,7.6h7.6h-15.2"/>
			</g>
		</g>
		<g id="char-t_1_5_">
			<g>
				<path class="st1" d="M-588.4,131.7h25.3c2.8,0,5.1-2.3,5.1-5.1s-2.3-5.1-5.1-5.1"/>
				<path class="st1" d="M-573.2,136.8v-15.2"/>
			</g>
		</g>
		<g id="char-dash_1_1_">
			<path class="st1" d="M-573.2,111.4v-10.1"/>
		</g>
		<g id="char-E_1">
			<g id="group-char-E_1">
				<path class="st1" d="M-573.2,91.2v-5.1"/>
				<path class="st1" d="M-558,76v15.2h-30.4V76"/>
			</g>
		</g>
		<g id="char-n_1_7_">
			<g>
				<path class="st1" d="M-558,53.2h-7.6c-4.2,0-7.6,3.4-7.6,7.6s3.4,7.6,7.6,7.6h7.6h-15.2"/>
			</g>
		</g>
		<g id="char-d_1">
			<g id="group-char-d_1">
				<path class="st1" d="M-558,30.4h-30.4"/>
				<path class="st1" d="M-565.6,45.6c-4.2,0-7.6-3.4-7.6-7.6s3.4-7.6,7.6-7.6c4.2,0,7.6,3.4,7.6,7.6S-561.4,45.6-565.6,45.6z"/>
			</g>
		</g>
	</g>
</g>
<g>
	<g>
		<g id="char-G_1_2_">
			<path class="st1" d="M-474.4,714.2c-4.2,0-7.6,3.4-7.6,7.6c0,4.2,3.4,7.6,7.6,7.6h15.2c4.2,0,7.6-3.4,7.6-7.6
				c0-4.2-3.4-7.6-7.6-7.6h-7.6v10.1"/>
		</g>
		<g id="char-e_1_8_">
			<path class="st1" d="M-453.8,693.6c1.5,1.5,2.2,3.4,2.2,5.4c0,4.2-3.4,7.6-7.6,7.6s-7.6-3.4-7.6-7.6c0-4.2,3.4-7.6,7.6-7.6v15.2"
				/>
		</g>
		<g id="char-n_1_8_">
			<g>
				<path class="st1" d="M-451.6,668.6h-7.6c-4.2,0-7.6,3.4-7.6,7.6c0,4.2,3.4,7.6,7.6,7.6h7.6h-15.2"/>
			</g>
		</g>
		<g id="char-e_1_9_">
			<path class="st1" d="M-453.8,648.1c1.5,1.5,2.2,3.4,2.2,5.4c0,4.2-3.4,7.6-7.6,7.6s-7.6-3.4-7.6-7.6c0-4.2,3.4-7.6,7.6-7.6V661"
				/>
		</g>
		<g id="char-t_1_6_">
			<g>
				<path class="st1" d="M-482,633.2h25.3c2.8,0,5.1-2.3,5.1-5.1c0-2.8-2.3-5.1-5.1-5.1"/>
				<path class="st1" d="M-466.8,638.2V623"/>
			</g>
		</g>
		<g id="char-i_1_2_">
			<g>
				<path class="st1" d="M-469.3,610.4h-5.1"/>
				<path class="st1" d="M-466.8,615.4v-5.1h10.1c2.8,0,5.1-2.3,5.1-5.1c0-2.8-2.3-5.1-5.1-5.1"/>
			</g>
		</g>
		<g id="char-c_1_2_">
			<path class="st1" d="M-464.5,579.7c-3,3-3,7.8,0,10.7c3,3,7.8,3,10.7,0c3-3,3-7.8,0-10.7"/>
		</g>
	</g>
	<g>
		<g id="char-P_1_1_">
			<path class="st1" d="M-466.8,547.1v-7.6c0-4.2-3.4-7.6-7.6-7.6s-7.6,3.4-7.6,7.6v7.6h30.4"/>
		</g>
		<g id="char-e_1_10_">
			<path class="st1" d="M-453.8,511.3c1.5,1.5,2.2,3.4,2.2,5.4c0,4.2-3.4,7.6-7.6,7.6s-7.6-3.4-7.6-7.6c0-4.2,3.4-7.6,7.6-7.6v15.2"
				/>
		</g>
		<g id="char-t_1_7_">
			<g>
				<path class="st1" d="M-482,496.4h25.3c2.8,0,5.1-2.3,5.1-5.1c0-2.8-2.3-5.1-5.1-5.1"/>
				<path class="st1" d="M-466.8,501.5v-15.2"/>
			</g>
		</g>
	</g>
	<g>
		<g id="char-B_1_1_">
			<path class="st1" d="M-482,448.3c0-4.2,3.4-7.6,7.6-7.6s7.6,3.4,7.6,7.6c0-4.2,3.4-7.6,7.6-7.6s7.6,3.4,7.6,7.6v7.6H-482V448.3z"
				/>
		</g>
		<g id="char-u_1_1_">
			<g>
				<path class="st1" d="M-466.8,417.9h7.6c4.2,0,7.6,3.4,7.6,7.6s-3.4,7.6-7.6,7.6h-7.6"/>
				<path class="st1" d="M-459.2,417.9h7.6"/>
			</g>
		</g>
		<g id="char-i_1_3_">
			<g>
				<path class="st1" d="M-469.3,405.2h-5.1"/>
				<path class="st1" d="M-466.8,410.3v-5.1h10.1c2.8,0,5.1-2.3,5.1-5.1c0-2.8-2.3-5.1-5.1-5.1"/>
			</g>
		</g>
		<g id="char-l_1_3_">
			<path class="st1" d="M-482,385v-2.5c0-1.4,1.1-2.5,2.5-2.5h25.3c1.4,0,2.5-1.1,2.5-2.5v-2.5"/>
		</g>
		<g id="char-d_1_1_">
			<g id="group-char-d_1_1_">
				<path class="st1" d="M-451.6,349.5H-482"/>
				<path class="st1" d="M-459.2,364.7c-4.2,0-7.6-3.4-7.6-7.6c0-4.2,3.4-7.6,7.6-7.6s7.6,3.4,7.6,7.6
					C-451.6,361.3-455,364.7-459.2,364.7z"/>
			</g>
		</g>
		<g id="char-e_1_11_">
			<path class="st1" d="M-453.8,328.9c1.5,1.5,2.2,3.4,2.2,5.4c0,4.2-3.4,7.6-7.6,7.6s-7.6-3.4-7.6-7.6s3.4-7.6,7.6-7.6v15.2"/>
		</g>
		<g id="char-r_1_7_">
			<g>
				<path class="st1" d="M-459.2,303.9c-4.2,0-7.6,3.4-7.6,7.6c0,4.2,3.4,7.6,7.6,7.6h7.6h-15.2"/>
			</g>
		</g>
	</g>
</g>
<g>
	<g>
		<g id="char-L_1">
			<path class="st1" d="M-345.2,714.2v15.2h-30.4"/>
		</g>
		<g id="char-o_1_5_">
			<g>
				<path class="st1" d="M-352.8,706.6c-4.2,0-7.6-3.4-7.6-7.6s3.4-7.6,7.6-7.6s7.6,3.4,7.6,7.6S-348.6,706.6-352.8,706.6z"/>
			</g>
		</g>
		<g id="char-v_1_1_">
			<path class="st1" d="M-360.4,668.6l15.2,7.6l-15.2,7.6"/>
		</g>
		<g id="char-e_1_12_">
			<path class="st1" d="M-347.4,648.1c1.5,1.5,2.2,3.4,2.2,5.4c0,4.2-3.4,7.6-7.6,7.6s-7.6-3.4-7.6-7.6c0-4.2,3.4-7.6,7.6-7.6V661"
				/>
		</g>
	</g>
	<g>
		<g id="char-P_1_2_">
			<path class="st1" d="M-360.4,615.4v-7.6c0-4.2-3.4-7.6-7.6-7.6c-4.2,0-7.6,3.4-7.6,7.6v7.6h30.4"/>
		</g>
		<g id="char-o_1_6_">
			<g>
				<path class="st1" d="M-352.8,592.6c-4.2,0-7.6-3.4-7.6-7.6s3.4-7.6,7.6-7.6s7.6,3.4,7.6,7.6S-348.6,592.6-352.8,592.6z"/>
			</g>
		</g>
		<g id="char-t_1_8_">
			<g>
				<path class="st1" d="M-375.6,564.8h25.3c2.8,0,5.1-2.3,5.1-5.1c0-2.8-2.3-5.1-5.1-5.1"/>
				<path class="st1" d="M-360.4,569.8v-15.2"/>
			</g>
		</g>
		<g id="char-i_1_4_">
			<g>
				<path class="st1" d="M-362.9,542h-5.1"/>
				<path class="st1" d="M-360.4,547.1V542h10.1c2.8,0,5.1-2.3,5.1-5.1c0-2.8-2.3-5.1-5.1-5.1"/>
			</g>
		</g>
		<g id="char-o_1_7_">
			<g>
				<path class="st1" d="M-352.8,524.3c-4.2,0-7.6-3.4-7.6-7.6s3.4-7.6,7.6-7.6s7.6,3.4,7.6,7.6S-348.6,524.3-352.8,524.3z"/>
			</g>
		</g>
		<g id="char-n_1_9_">
			<g>
				<path class="st1" d="M-345.2,486.3h-7.6c-4.2,0-7.6,3.4-7.6,7.6s3.4,7.6,7.6,7.6h7.6h-15.2"/>
			</g>
		</g>
	</g>
	<g>
		<g id="char-M_1">
			<path class="st1" d="M-345.2,440.7h-30.4l25.3,7.6l-25.3,7.6h30.4"/>
		</g>
		<g id="char-i_1_5_">
			<g>
				<path class="st1" d="M-362.9,428h-5.1"/>
				<path class="st1" d="M-360.4,433.1V428h10.1c2.8,0,5.1-2.3,5.1-5.1c0-2.8-2.3-5.1-5.1-5.1"/>
			</g>
		</g>
		<g id="char-x_1">
			<g>
				<path class="st1" d="M-360.4,410.3l15.2-15.2"/>
				<path class="st1" d="M-360.4,395.1l15.2,15.2"/>
			</g>
		</g>
		<g id="char-e_1_13_">
			<path class="st1" d="M-347.4,374.5c1.5,1.5,2.2,3.4,2.2,5.4c0,4.2-3.4,7.6-7.6,7.6s-7.6-3.4-7.6-7.6c0-4.2,3.4-7.6,7.6-7.6v15.2"
				/>
		</g>
		<g id="char-r_1_8_">
			<g>
				<path class="st1" d="M-352.8,349.5c-4.2,0-7.6,3.4-7.6,7.6s3.4,7.6,7.6,7.6h7.6h-15.2"/>
			</g>
		</g>
	</g>
</g>
<g>
	<g>
		<g id="char-C_1">
			<path class="st1" d="M-266.6,714.2c-4.2,0-7.6,3.4-7.6,7.6c0,4.2,3.4,7.6,7.6,7.6h15.2c4.2,0,7.6-3.4,7.6-7.6
				c0-4.2-3.4-7.6-7.6-7.6"/>
		</g>
		<g id="char-o_1_8_">
			<g>
				<path class="st1" d="M-251.4,706.6c-4.2,0-7.6-3.4-7.6-7.6s3.4-7.6,7.6-7.6c4.2,0,7.6,3.4,7.6,7.6S-247.2,706.6-251.4,706.6z"/>
			</g>
		</g>
		<g id="char-v_1_2_">
			<path class="st1" d="M-259,668.6l15.2,7.6l-15.2,7.6"/>
		</g>
		<g id="char-e_1_14_">
			<path class="st1" d="M-246.1,648.1c1.5,1.5,2.2,3.4,2.2,5.4c0,4.2-3.4,7.6-7.6,7.6c-4.2,0-7.6-3.4-7.6-7.6c0-4.2,3.4-7.6,7.6-7.6
				V661"/>
		</g>
		<g id="char-r_1_9_">
			<g>
				<path class="st1" d="M-251.4,623c-4.2,0-7.6,3.4-7.6,7.6c0,4.2,3.4,7.6,7.6,7.6h7.6H-259"/>
			</g>
		</g>
	</g>
	<g>
		<g id="char-I_1_1_">
			<path class="st1" d="M-243.8,592.6v-15.2"/>
			<path class="st1" d="M-274.2,577.4v15.2"/>
			<path class="st1" d="M-274.2,585h30.4"/>
		</g>
		<g id="char-d_1_2_">
			<g id="group-char-d_1_2_">
				<path class="st1" d="M-243.8,554.7h-30.4"/>
				<path class="st1" d="M-251.4,569.8c-4.2,0-7.6-3.4-7.6-7.6s3.4-7.6,7.6-7.6c4.2,0,7.6,3.4,7.6,7.6S-247.2,569.8-251.4,569.8z"/>
			</g>
		</g>
		<g id="char-e_1_15_">
			<path class="st1" d="M-246.1,534.1c1.5,1.5,2.2,3.4,2.2,5.4c0,4.2-3.4,7.6-7.6,7.6c-4.2,0-7.6-3.4-7.6-7.6c0-4.2,3.4-7.6,7.6-7.6
				v15.2"/>
		</g>
		<g id="char-n_1_10_">
			<g>
				<path class="st1" d="M-243.8,509.1h-7.6c-4.2,0-7.6,3.4-7.6,7.6c0,4.2,3.4,7.6,7.6,7.6h7.6H-259"/>
			</g>
		</g>
		<g id="char-t_1_9_">
			<g>
				<path class="st1" d="M-274.2,496.4h25.3c2.8,0,5.1-2.3,5.1-5.1c0-2.8-2.3-5.1-5.1-5.1"/>
				<path class="st1" d="M-259,501.5v-15.2"/>
			</g>
		</g>
		<g id="char-i_1_6_">
			<g>
				<path class="st1" d="M-261.6,473.6h-5.1"/>
				<path class="st1" d="M-259,478.7v-5.1h10.1c2.8,0,5.1-2.3,5.1-5.1c0-2.8-2.3-5.1-5.1-5.1"/>
			</g>
		</g>
		<g id="char-t_1_10_">
			<g>
				<path class="st1" d="M-274.2,450.8h25.3c2.8,0,5.1-2.3,5.1-5.1s-2.3-5.1-5.1-5.1"/>
				<path class="st1" d="M-259,455.9v-15.2"/>
			</g>
		</g>
		<g id="char-y_1_1_">
			<g>
				<path class="st1" d="M-259,433.1l15.2-6.1"/>
				<path class="st1" d="M-259,417.9l25.3,15.2"/>
			</g>
		</g>
	</g>
	<g>
		<g id="char-G_1_3_">
			<path class="st1" d="M-266.6,372.3c-4.2,0-7.6,3.4-7.6,7.6c0,4.2,3.4,7.6,7.6,7.6h15.2c4.2,0,7.6-3.4,7.6-7.6
				c0-4.2-3.4-7.6-7.6-7.6h-7.6v10.1"/>
		</g>
		<g id="char-e_1_16_">
			<path class="st1" d="M-246.1,351.7c1.5,1.5,2.2,3.4,2.2,5.4c0,4.2-3.4,7.6-7.6,7.6c-4.2,0-7.6-3.4-7.6-7.6s3.4-7.6,7.6-7.6v15.2"
				/>
		</g>
		<g id="char-n_1_11_">
			<g>
				<path class="st1" d="M-243.8,326.7h-7.6c-4.2,0-7.6,3.4-7.6,7.6s3.4,7.6,7.6,7.6h7.6H-259"/>
			</g>
		</g>
		<g id="char-e_1_17_">
			<path class="st1" d="M-246.1,306.2c1.5,1.5,2.2,3.4,2.2,5.4c0,4.2-3.4,7.6-7.6,7.6c-4.2,0-7.6-3.4-7.6-7.6c0-4.2,3.4-7.6,7.6-7.6
				v15.2"/>
		</g>
		<g id="char-r_1_10_">
			<g>
				<path class="st1" d="M-251.4,281.1c-4.2,0-7.6,3.4-7.6,7.6c0,4.2,3.4,7.6,7.6,7.6h7.6H-259"/>
			</g>
		</g>
		<g id="char-a_1_3_">
			<g id="group-char-a_1_3_">
				<path class="st1" d="M-251.4,258.3h7.6"/>
				<path class="st1" d="M-251.4,273.5c-4.2,0-7.6-3.4-7.6-7.6s3.4-7.6,7.6-7.6c4.2,0,7.6,3.4,7.6,7.6S-247.2,273.5-251.4,273.5z"/>
			</g>
		</g>
		<g id="char-t_1_11_">
			<g>
				<path class="st1" d="M-274.2,245.7h25.3c2.8,0,5.1-2.3,5.1-5.1c0-2.8-2.3-5.1-5.1-5.1"/>
				<path class="st1" d="M-259,250.7v-15.2"/>
			</g>
		</g>
		<g id="char-o_1_9_">
			<g>
				<path class="st1" d="M-251.4,227.9c-4.2,0-7.6-3.4-7.6-7.6c0-4.2,3.4-7.6,7.6-7.6c4.2,0,7.6,3.4,7.6,7.6
					C-243.8,224.5-247.2,227.9-251.4,227.9z"/>
			</g>
		</g>
		<g id="char-r_1_11_">
			<g>
				<path class="st1" d="M-251.4,190c-4.2,0-7.6,3.4-7.6,7.6c0,4.2,3.4,7.6,7.6,7.6h7.6H-259"/>
			</g>
		</g>
	</g>
</g>
<g>
	<g>
		<g id="char-D_1">
			<path class="st1" d="M30.7,694.2c-4.2,0-7.6,3.4-7.6,7.6v7.6h30.4v-7.6c0-4.2-3.4-7.6-7.6-7.6H30.7z"/>
		</g>
		<g id="char-a_1_4_">
			<g id="group-char-a_1_4_">
				<path class="st1" d="M45.9,671.4h7.6"/>
				<path class="st1" d="M45.9,686.6c-4.2,0-7.6-3.4-7.6-7.6s3.4-7.6,7.6-7.6s7.6,3.4,7.6,7.6S50.1,686.6,45.9,686.6z"/>
			</g>
		</g>
		<g id="char-i_1_7_">
			<g>
				<path class="st1" d="M35.8,658.8h-5.1"/>
				<path class="st1" d="M38.3,663.8v-5.1h10.1c2.8,0,5.1-2.3,5.1-5.1c0-2.8-2.3-5.1-5.1-5.1"/>
			</g>
		</g>
		<g id="char-l_1_4_">
			<path class="st1" d="M23.1,638.5V636c0-1.4,1.1-2.5,2.5-2.5H51c1.4,0,2.5-1.1,2.5-2.5v-2.5"/>
		</g>
		<g id="char-y_1_2_">
			<g>
				<path class="st1" d="M38.3,618.2l15.2-6.1"/>
				<path class="st1" d="M38.3,603l25.3,15.2"/>
			</g>
		</g>
	</g>
	<g>
		<g id="char-U_1">
			<path class="st1" d="M23.1,572.6h22.8c4.2,0,7.6-3.4,7.6-7.6c0-4.2-3.4-7.6-7.6-7.6H23.1"/>
		</g>
		<g id="char-s_1">
			<g>
				<path class="st1" d="M42.1,534.7c-2.1,0-3.8,1.7-3.8,3.8v7.6c0,2.1,1.7,3.8,3.8,3.8c2.1,0,3.8-1.7,3.8-3.8v-7.6
					c0-2.1,1.7-3.8,3.8-3.8c2.1,0,3.8,1.7,3.8,3.8v7.6c0,2.1-1.7,3.8-3.8,3.8"/>
			</g>
		</g>
		<g id="char-e_1_18_">
			<path class="st1" d="M51.3,514.1c1.5,1.5,2.2,3.4,2.2,5.4c0,4.2-3.4,7.6-7.6,7.6s-7.6-3.4-7.6-7.6c0-4.2,3.4-7.6,7.6-7.6v15.2"/>
		</g>
		<g id="char-r_1_12_">
			<g>
				<path class="st1" d="M45.9,489.1c-4.2,0-7.6,3.4-7.6,7.6c0,4.2,3.4,7.6,7.6,7.6h7.6H38.3"/>
			</g>
		</g>
	</g>
</g>
<g>
	<g>
		<g id="char-O_1">
			<path class="st1" d="M153.7,694.2h-15.2c-4.2,0-7.6,3.4-7.6,7.6c0,4.2,3.4,7.6,7.6,7.6h15.2c4.2,0,7.6-3.4,7.6-7.6
				C161.3,697.6,157.9,694.2,153.7,694.2z"/>
		</g>
		<g id="char-n_1_12_">
			<g>
				<path class="st1" d="M161.3,671.4h-7.6c-4.2,0-7.6,3.4-7.6,7.6c0,4.2,3.4,7.6,7.6,7.6h7.6h-15.2"/>
			</g>
		</g>
		<g id="char-e_1_19_">
			<path class="st1" d="M159.1,650.8c1.5,1.5,2.2,3.4,2.2,5.4c0,4.2-3.4,7.6-7.6,7.6c-4.2,0-7.6-3.4-7.6-7.6c0-4.2,3.4-7.6,7.6-7.6
				v15.2"/>
		</g>
		<g id="char-dash_1_2_">
			<path class="st1" d="M146.1,638.5v-10.1"/>
		</g>
		<g id="char-T_1">
			<g id="group-char-T_1">
				<path class="st1" d="M130.9,610.6h30.4"/>
				<path class="st1" d="M130.9,603v15.2"/>
			</g>
		</g>
		<g id="char-i_1_8_">
			<g>
				<path class="st1" d="M143.6,590.4h-5.1"/>
				<path class="st1" d="M146.1,595.4v-5.1h10.1c2.8,0,5.1-2.3,5.1-5.1c0-2.8-2.3-5.1-5.1-5.1"/>
			</g>
		</g>
		<g id="char-m_1">
			<g>
				<g>
					<path class="st1" d="M161.3,557.4h-11.4c-2.1,0-3.8,1.7-3.8,3.8s1.7,3.8,3.8,3.8c-2.1,0-3.8,1.7-3.8,3.8c0,2.1,1.7,3.8,3.8,3.8
						h11.4"/>
					<path class="st1" d="M149.9,565h3.8"/>
				</g>
				<path class="st1" d="M151.2,572.6h-5.1"/>
			</g>
		</g>
		<g id="char-e_1_20_">
			<path class="st1" d="M159.1,536.9c1.5,1.5,2.2,3.4,2.2,5.4c0,4.2-3.4,7.6-7.6,7.6c-4.2,0-7.6-3.4-7.6-7.6s3.4-7.6,7.6-7.6v15.2"
				/>
		</g>
	</g>
	<g>
		<g id="char-U_1_1_">
			<path class="st1" d="M130.9,504.3h22.8c4.2,0,7.6-3.4,7.6-7.6c0-4.2-3.4-7.6-7.6-7.6h-22.8"/>
		</g>
		<g id="char-s_1_1_">
			<g>
				<path class="st1" d="M149.9,466.3c-2.1,0-3.8,1.7-3.8,3.8v7.6c0,2.1,1.7,3.8,3.8,3.8s3.8-1.7,3.8-3.8v-7.6
					c0-2.1,1.7-3.8,3.8-3.8s3.8,1.7,3.8,3.8v7.6c0,2.1-1.7,3.8-3.8,3.8"/>
			</g>
		</g>
		<g id="char-e_1_21_">
			<path class="st1" d="M159.1,445.7c1.5,1.5,2.2,3.4,2.2,5.4c0,4.2-3.4,7.6-7.6,7.6c-4.2,0-7.6-3.4-7.6-7.6c0-4.2,3.4-7.6,7.6-7.6
				v15.2"/>
		</g>
		<g id="char-r_1_13_">
			<g>
				<path class="st1" d="M153.7,420.7c-4.2,0-7.6,3.4-7.6,7.6c0,4.2,3.4,7.6,7.6,7.6h7.6h-15.2"/>
			</g>
		</g>
	</g>
</g>
<g>
	<g>
		<g id="char-A_1">
			<g id="group-char-A_1">
				<path class="st1" d="M248.8,698v7.6"/>
				<path class="st1" d="M264,694.2l-30.4,7.6l30.4,7.6"/>
			</g>
		</g>
	</g>
	<g>
		<g id="char-C_1_1_">
			<path class="st1" d="M241.2,648.6c-4.2,0-7.6,3.4-7.6,7.6c0,4.2,3.4,7.6,7.6,7.6h15.2c4.2,0,7.6-3.4,7.6-7.6
				c0-4.2-3.4-7.6-7.6-7.6"/>
		</g>
		<g id="char-h_1_1_">
			<path class="st1" d="M264,625.8h-7.6c-4.2,0-7.6,3.4-7.6,7.6c0,4.2,3.4,7.6,7.6,7.6h7.6h-30.4"/>
		</g>
		<g id="char-i_1_9_">
			<g>
				<path class="st1" d="M246.3,613.2h-5.1"/>
				<path class="st1" d="M248.8,618.2v-5.1H259c2.8,0,5.1-2.3,5.1-5.1c0-2.8-2.3-5.1-5.1-5.1"/>
			</g>
		</g>
		<g id="char-l_1_5_">
			<path class="st1" d="M233.6,592.9v-2.5c0-1.4,1.1-2.5,2.5-2.5h25.3c1.4,0,2.5-1.1,2.5-2.5v-2.5"/>
		</g>
		<g id="char-d_1_3_">
			<g id="group-char-d_1_3_">
				<path class="st1" d="M264,557.4h-30.4"/>
				<path class="st1" d="M256.4,572.6c-4.2,0-7.6-3.4-7.6-7.6s3.4-7.6,7.6-7.6c4.2,0,7.6,3.4,7.6,7.6S260.6,572.6,256.4,572.6z"/>
			</g>
		</g>
	</g>
</g>
<g>
	<g>
		<g id="char-A_1_1_">
			<g id="group-char-A_1_1_">
				<path class="st1" d="M346.5,698v7.6"/>
				<path class="st1" d="M361.7,694.2l-30.4,7.6l30.4,7.6"/>
			</g>
		</g>
		<g id="char-n_1_13_">
			<g>
				<path class="st1" d="M361.7,671.4h-7.6c-4.2,0-7.6,3.4-7.6,7.6c0,4.2,3.4,7.6,7.6,7.6h7.6h-15.2"/>
			</g>
		</g>
	</g>
	<g>
		<g id="char-bracketleft_1">
			<path class="st1" d="M331.3,630.9v5.1h30.4v-5.1"/>
		</g>
		<g id="char-m_1_1_">
			<g>
				<g>
					<path class="st1" d="M361.7,603h-11.4c-2.1,0-3.8,1.7-3.8,3.8c0,2.1,1.7,3.8,3.8,3.8c-2.1,0-3.8,1.7-3.8,3.8
						c0,2.1,1.7,3.8,3.8,3.8h11.4"/>
					<path class="st1" d="M350.3,610.6h3.8"/>
				</g>
				<path class="st1" d="M351.6,618.2h-5.1"/>
			</g>
		</g>
		<g id="char-a_1_5_">
			<g id="group-char-a_1_5_">
				<path class="st1" d="M354.1,580.2h7.6"/>
				<path class="st1" d="M354.1,595.4c-4.2,0-7.6-3.4-7.6-7.6s3.4-7.6,7.6-7.6c4.2,0,7.6,3.4,7.6,7.6S358.3,595.4,354.1,595.4z"/>
			</g>
		</g>
		<g id="char-c_1_3_">
			<path class="st1" d="M348.7,559.7c-3,3-3,7.8,0,10.7c3,3,7.8,3,10.7,0c3-3,3-7.8,0-10.7"/>
		</g>
		<g id="char-h_1_2_">
			<path class="st1" d="M361.7,534.7h-7.6c-4.2,0-7.6,3.4-7.6,7.6s3.4,7.6,7.6,7.6h7.6h-30.4"/>
		</g>
		<g id="char-i_1_10_">
			<g>
				<path class="st1" d="M344,522h-5.1"/>
				<path class="st1" d="M346.5,527.1V522h10.1c2.8,0,5.1-2.3,5.1-5.1c0-2.8-2.3-5.1-5.1-5.1"/>
			</g>
		</g>
		<g id="char-n_1_14_">
			<g>
				<path class="st1" d="M361.7,489.1h-7.6c-4.2,0-7.6,3.4-7.6,7.6c0,4.2,3.4,7.6,7.6,7.6h7.6h-15.2"/>
			</g>
		</g>
		<g id="char-e_1_22_">
			<path class="st1" d="M359.5,468.5c1.5,1.5,2.2,3.4,2.2,5.4c0,4.2-3.4,7.6-7.6,7.6s-7.6-3.4-7.6-7.6s3.4-7.6,7.6-7.6v15.2"/>
		</g>
	</g>
	<g>
		<g id="char-t_1_12_">
			<g>
				<path class="st1" d="M331.3,430.8h25.3c2.8,0,5.1-2.3,5.1-5.1s-2.3-5.1-5.1-5.1"/>
				<path class="st1" d="M346.5,435.9v-15.2"/>
			</g>
		</g>
		<g id="char-y_1_3_">
			<g>
				<path class="st1" d="M346.5,413.1l15.2-6.1"/>
				<path class="st1" d="M346.5,397.9l25.3,15.2"/>
			</g>
		</g>
		<g id="char-p_1_2_">
			<g>
				<g>
					<path class="st1" d="M354.1,390.3c-4.2,0-7.6-3.4-7.6-7.6c0-4.2,3.4-7.6,7.6-7.6c4.2,0,7.6,3.4,7.6,7.6
						C361.7,386.9,358.3,390.3,354.1,390.3z"/>
				</g>
				<path class="st1" d="M346.5,390.3h25.3"/>
			</g>
		</g>
		<g id="char-e_1_23_">
			<path class="st1" d="M359.5,354.5c1.5,1.5,2.2,3.4,2.2,5.4c0,4.2-3.4,7.6-7.6,7.6s-7.6-3.4-7.6-7.6c0-4.2,3.4-7.6,7.6-7.6v15.2"
				/>
		</g>
		<g id="char-bracketright_1">
			<path class="st1" d="M331.3,339.6v-5.1h30.4v5.1"/>
		</g>
	</g>
	<g>
		<g id="char-E_1_1_">
			<g id="group-char-E_1_1_">
				<path class="st1" d="M346.5,299.1v-5.1"/>
				<path class="st1" d="M361.7,283.9v15.2h-30.4v-15.2"/>
			</g>
		</g>
		<g id="char-n_1_15_">
			<g>
				<path class="st1" d="M361.7,261.1h-7.6c-4.2,0-7.6,3.4-7.6,7.6c0,4.2,3.4,7.6,7.6,7.6h7.6h-15.2"/>
			</g>
		</g>
		<g id="char-t_1_13_">
			<g>
				<path class="st1" d="M331.3,248.5h25.3c2.8,0,5.1-2.3,5.1-5.1s-2.3-5.1-5.1-5.1"/>
				<path class="st1" d="M346.5,253.5v-15.2"/>
			</g>
		</g>
		<g id="char-h_1_3_">
			<path class="st1" d="M361.7,215.5h-7.6c-4.2,0-7.6,3.4-7.6,7.6c0,4.2,3.4,7.6,7.6,7.6h7.6h-30.4"/>
		</g>
		<g id="char-u_1_2_">
			<g>
				<path class="st1" d="M346.5,192.8h7.6c4.2,0,7.6,3.4,7.6,7.6c0,4.2-3.4,7.6-7.6,7.6h-7.6"/>
				<path class="st1" d="M354.1,192.8h7.6"/>
			</g>
		</g>
		<g id="char-s_1_2_">
			<g>
				<path class="st1" d="M350.3,170c-2.1,0-3.8,1.7-3.8,3.8v7.6c0,2.1,1.7,3.8,3.8,3.8c2.1,0,3.8-1.7,3.8-3.8v-7.6
					c0-2.1,1.7-3.8,3.8-3.8s3.8,1.7,3.8,3.8v7.6c0,2.1-1.7,3.8-3.8,3.8"/>
			</g>
		</g>
		<g id="char-i_1_11_">
			<g>
				<path class="st1" d="M344,157.3h-5.1"/>
				<path class="st1" d="M346.5,162.4v-5.1h10.1c2.8,0,5.1-2.3,5.1-5.1c0-2.8-2.3-5.1-5.1-5.1"/>
			</g>
		</g>
		<g id="char-a_1_6_">
			<g id="group-char-a_1_6_">
				<path class="st1" d="M354.1,124.4h7.6"/>
				<path class="st1" d="M354.1,139.6c-4.2,0-7.6-3.4-7.6-7.6c0-4.2,3.4-7.6,7.6-7.6c4.2,0,7.6,3.4,7.6,7.6
					C361.7,136.2,358.3,139.6,354.1,139.6z"/>
			</g>
		</g>
		<g id="char-s_1_3_">
			<g>
				<path class="st1" d="M350.3,101.6c-2.1,0-3.8,1.7-3.8,3.8v7.6c0,2.1,1.7,3.8,3.8,3.8c2.1,0,3.8-1.7,3.8-3.8v-7.6
					c0-2.1,1.7-3.8,3.8-3.8s3.8,1.7,3.8,3.8v7.6c0,2.1-1.7,3.8-3.8,3.8"/>
			</g>
		</g>
		<g id="char-t_1_14_">
			<g>
				<path class="st1" d="M331.3,88.9h25.3c2.8,0,5.1-2.3,5.1-5.1c0-2.8-2.3-5.1-5.1-5.1"/>
				<path class="st1" d="M346.5,94V78.8"/>
			</g>
		</g>
	</g>
</g>
<g>
	<g>
		<g id="char-A_1_2_">
			<g id="group-char-A_1_2_">
				<path class="st1" d="M454.3,698v7.6"/>
				<path class="st1" d="M469.5,694.2l-30.4,7.6l30.4,7.6"/>
			</g>
		</g>
		<g id="char-n_1_16_">
			<g>
				<path class="st1" d="M469.5,671.4h-7.6c-4.2,0-7.6,3.4-7.6,7.6c0,4.2,3.4,7.6,7.6,7.6h7.6h-15.2"/>
			</g>
		</g>
		<g id="char-o_1_10_">
			<g>
				<path class="st1" d="M461.9,663.8c-4.2,0-7.6-3.4-7.6-7.6s3.4-7.6,7.6-7.6s7.6,3.4,7.6,7.6S466.1,663.8,461.9,663.8z"/>
			</g>
		</g>
		<g id="char-t_1_15_">
			<g>
				<path class="st1" d="M439.1,636h25.3c2.8,0,5.1-2.3,5.1-5.1s-2.3-5.1-5.1-5.1"/>
				<path class="st1" d="M454.3,641v-15.2"/>
			</g>
		</g>
		<g id="char-h_1_4_">
			<path class="st1" d="M469.5,603h-7.6c-4.2,0-7.6,3.4-7.6,7.6c0,4.2,3.4,7.6,7.6,7.6h7.6h-30.4"/>
		</g>
		<g id="char-e_1_24_">
			<path class="st1" d="M467.2,582.5c1.5,1.5,2.2,3.4,2.2,5.4c0,4.2-3.4,7.6-7.6,7.6s-7.6-3.4-7.6-7.6c0-4.2,3.4-7.6,7.6-7.6v15.2"
				/>
		</g>
		<g id="char-r_1_14_">
			<g>
				<path class="st1" d="M461.9,557.4c-4.2,0-7.6,3.4-7.6,7.6c0,4.2,3.4,7.6,7.6,7.6h7.6h-15.2"/>
			</g>
		</g>
	</g>
	<g>
		<g id="char-M_1_1_">
			<path class="st1" d="M469.5,511.9h-30.4l25.3,7.6l-25.3,7.6h30.4"/>
		</g>
		<g id="char-a_1_7_">
			<g id="group-char-a_1_7_">
				<path class="st1" d="M461.9,489.1h7.6"/>
				<path class="st1" d="M461.9,504.3c-4.2,0-7.6-3.4-7.6-7.6s3.4-7.6,7.6-7.6s7.6,3.4,7.6,7.6S466.1,504.3,461.9,504.3z"/>
			</g>
		</g>
		<g id="char-c_1_4_">
			<path class="st1" d="M456.5,468.5c-3,3-3,7.8,0,10.7c3,3,7.8,3,10.7,0c3-3,3-7.8,0-10.7"/>
		</g>
		<g id="char-h_1_5_">
			<path class="st1" d="M469.5,443.5h-7.6c-4.2,0-7.6,3.4-7.6,7.6c0,4.2,3.4,7.6,7.6,7.6h7.6h-30.4"/>
		</g>
		<g id="char-i_1_12_">
			<g>
				<path class="st1" d="M451.7,430.8h-5.1"/>
				<path class="st1" d="M454.3,435.9v-5.1h10.1c2.8,0,5.1-2.3,5.1-5.1s-2.3-5.1-5.1-5.1"/>
			</g>
		</g>
		<g id="char-n_1_17_">
			<g>
				<path class="st1" d="M469.5,397.9h-7.6c-4.2,0-7.6,3.4-7.6,7.6s3.4,7.6,7.6,7.6h7.6h-15.2"/>
			</g>
		</g>
		<g id="char-e_1_25_">
			<path class="st1" d="M467.2,377.3c1.5,1.5,2.2,3.4,2.2,5.4c0,4.2-3.4,7.6-7.6,7.6s-7.6-3.4-7.6-7.6s3.4-7.6,7.6-7.6v15.2"/>
		</g>
	</g>
</g>
<g>
	<g id="char-Y_1">
		<g id="group-char-Y_1">
			<path class="st1" d="M557,701.8h15.2"/>
			<path class="st1" d="M557,701.8l-15.2-7.6"/>
			<path class="st1" d="M541.8,709.4l15.2-7.6"/>
		</g>
	</g>
	<g id="char-o_1_11_">
		<g>
			<path class="st1" d="M564.6,686.6c-4.2,0-7.6-3.4-7.6-7.6s3.4-7.6,7.6-7.6s7.6,3.4,7.6,7.6S568.8,686.6,564.6,686.6z"/>
		</g>
	</g>
	<g id="char-u_1_3_">
		<g>
			<path class="st1" d="M557,648.6h7.6c4.2,0,7.6,3.4,7.6,7.6c0,4.2-3.4,7.6-7.6,7.6H557"/>
			<path class="st1" d="M564.6,648.6h7.6"/>
		</g>
	</g>
	<g id="char-r_1_15_">
		<g>
			<path class="st1" d="M564.6,625.8c-4.2,0-7.6,3.4-7.6,7.6c0,4.2,3.4,7.6,7.6,7.6h7.6H557"/>
		</g>
	</g>
	<g id="char-s_1_4_">
		<g>
			<path class="st1" d="M560.8,603c-2.1,0-3.8,1.7-3.8,3.8v7.6c0,2.1,1.7,3.8,3.8,3.8s3.8-1.7,3.8-3.8v-7.6c0-2.1,1.7-3.8,3.8-3.8
				s3.8,1.7,3.8,3.8v7.6c0,2.1-1.7,3.8-3.8,3.8"/>
		</g>
	</g>
	<g id="char-e_1_26_">
		<path class="st1" d="M570,582.5c1.5,1.5,2.2,3.4,2.2,5.4c0,4.2-3.4,7.6-7.6,7.6s-7.6-3.4-7.6-7.6c0-4.2,3.4-7.6,7.6-7.6v15.2"/>
	</g>
	<g id="char-l_1_6_">
		<path class="st1" d="M541.8,570.1v-2.5c0-1.4,1.1-2.5,2.5-2.5h25.3c1.4,0,2.5-1.1,2.5-2.5V560"/>
	</g>
	<g id="char-v_1_3_">
		<path class="st1" d="M557,534.7l15.2,7.6l-15.2,7.6"/>
	</g>
	<g id="char-e_1_27_">
		<path class="st1" d="M570,514.1c1.5,1.5,2.2,3.4,2.2,5.4c0,4.2-3.4,7.6-7.6,7.6s-7.6-3.4-7.6-7.6c0-4.2,3.4-7.6,7.6-7.6v15.2"/>
	</g>
	<g id="char-s_1_5_">
		<g>
			<path class="st1" d="M560.8,489.1c-2.1,0-3.8,1.7-3.8,3.8v7.6c0,2.1,1.7,3.8,3.8,3.8s3.8-1.7,3.8-3.8v-7.6c0-2.1,1.7-3.8,3.8-3.8
				s3.8,1.7,3.8,3.8v7.6c0,2.1-1.7,3.8-3.8,3.8"/>
		</g>
	</g>
</g>
</svg>
