<?xml version="1.0" encoding="utf-8"?>
<!-- Generator: Adobe Illustrator 19.0.0, SVG Export Plug-In . SVG Version: 6.00 Build 0)  -->
<svg version="1.1" id="Layer_1" xmlns="http://www.w3.org/2000/svg" xmlns:xlink="http://www.w3.org/1999/xlink" x="0px" y="0px"
	 viewBox="0 0 612 792" style="enable-background:new 0 0 612 792;" xml:space="preserve">
<style type="text/css">
	.st0{fill:none;stroke:#000000;stroke-width:0.25;stroke-linecap:round;stroke-miterlimit:10;}
	.st1{fill:none;stroke:#010101;stroke-linecap:round;stroke-linejoin:round;stroke-miterlimit:10;}
	.st2{fill:none;stroke:#010101;stroke-width:0.25;stroke-linecap:round;stroke-linejoin:round;stroke-miterlimit:10;}
	.st3{fill:none;stroke:#000000;stroke-linecap:round;stroke-linejoin:round;stroke-miterlimit:10;}
</style>
<polygon id="XMLID_27_" class="st0" points="39.8,774 41.4,771.3 42.9,774 "/>
<polygon id="XMLID_35_" class="st0" points="36,774 37.6,771.3 39.1,774 "/>
<polygon id="XMLID_36_" class="st0" points="37.9,770.7 39.5,768 41,770.7 "/>
<polyline id="XMLID_119_" class="st0" points="28.5,774 24,774 24,768 28.5,768 "/>
<polyline id="XMLID_34_" class="st0" points="30,774 30,768 34.5,768 "/>
<line id="XMLID_122_" class="st0" x1="34.5" y1="771" x2="30" y2="771"/>
<g>
	<g id="char-L_1">
		<path class="st1" d="M30,36h-6V24"/>
	</g>
	<g id="char-i_1">
		<g>
			<path class="st1" d="M35,29v-2"/>
			<path class="st1" d="M33,30h2v4c0,1.1,0.9,2,2,2s2-0.9,2-2"/>
		</g>
	</g>
	<g id="char-n_1">
		<g>
			<path class="st1" d="M48,36v-3c0-1.7-1.3-3-3-3s-3,1.3-3,3v3v-6"/>
		</g>
	</g>
	<g id="char-e_1">
		<path class="st1" d="M56.1,35.1C55.5,35.7,54.8,36,54,36c-1.7,0-3-1.3-3-3s1.3-3,3-3s3,1.3,3,3h-6"/>
	</g>
	<g id="char-a_1">
		<g id="group-char-a_1">
			<path class="st1" d="M66,33v3"/>
			<path class="st1" d="M60,33c0-1.7,1.3-3,3-3c1.7,0,3,1.3,3,3s-1.3,3-3,3C61.3,36,60,34.7,60,33z"/>
		</g>
	</g>
	<g id="char-r_1">
		<g>
			<path class="st1" d="M75,33c0-1.7-1.3-3-3-3s-3,1.3-3,3v3v-6"/>
		</g>
	</g>
</g>
<g>
	<g id="char-C_1">
		<path class="st1" d="M93,27c0-1.7-1.3-3-3-3s-3,1.3-3,3v6c0,1.7,1.3,3,3,3s3-1.3,3-3"/>
	</g>
	<g id="char-o_1">
		<g>
			<path class="st1" d="M96,33c0-1.7,1.3-3,3-3s3,1.3,3,3s-1.3,3-3,3S96,34.7,96,33z"/>
		</g>
	</g>
	<g id="char-n_1_1_">
		<g>
			<path class="st1" d="M111,36v-3c0-1.7-1.3-3-3-3s-3,1.3-3,3v3v-6"/>
		</g>
	</g>
	<g id="char-g_1">
		<g id="group-char-g_1">
			<path class="st1" d="M120,33v4c0,1.7-1.3,3-3,3s-3-1.3-3-3"/>
			<path class="st1" d="M114,33c0-1.7,1.3-3,3-3s3,1.3,3,3s-1.3,3-3,3S114,34.7,114,33z"/>
		</g>
	</g>
	<g id="char-r_1_1_">
		<g>
			<path class="st1" d="M129,33c0-1.7-1.3-3-3-3s-3,1.3-3,3v3v-6"/>
		</g>
	</g>
	<g id="char-u_1">
		<g>
			<path class="st1" d="M138,30v3c0,1.7-1.3,3-3,3s-3-1.3-3-3v-3"/>
			<path class="st1" d="M138,33v3"/>
		</g>
	</g>
	<g id="char-e_1_1_">
		<path class="st1" d="M146.1,35.1c-0.6,0.6-1.4,0.9-2.1,0.9c-1.7,0-3-1.3-3-3s1.3-3,3-3s3,1.3,3,3h-6"/>
	</g>
	<g id="char-n_1_2_">
		<g>
			<path class="st1" d="M156,36v-3c0-1.7-1.3-3-3-3s-3,1.3-3,3v3v-6"/>
		</g>
	</g>
	<g id="char-t_1">
		<g>
			<path class="st1" d="M161,24v10c0,1.1,0.9,2,2,2s2-0.9,2-2"/>
			<path class="st1" d="M159,30h6"/>
		</g>
	</g>
	<g id="char-i_1_1_">
		<g>
			<path class="st1" d="M170,29v-2"/>
			<path class="st1" d="M168,30h2v4c0,1.1,0.9,2,2,2s2-0.9,2-2"/>
		</g>
	</g>
	<g id="char-a_1_1_">
		<g id="group-char-a_1_1_">
			<path class="st1" d="M183,33v3"/>
			<path class="st1" d="M177,33c0-1.7,1.3-3,3-3s3,1.3,3,3s-1.3,3-3,3S177,34.7,177,33z"/>
		</g>
	</g>
	<g id="char-l_1">
		<path class="st1" d="M187,24h1c0.6,0,1,0.4,1,1v10c0,0.6,0.4,1,1,1h1"/>
	</g>
</g>
<g>
	<g id="char-G_1">
		<path class="st1" d="M210,27c0-1.7-1.3-3-3-3s-3,1.3-3,3v6c0,1.7,1.3,3,3,3s3-1.3,3-3v-3h-4"/>
	</g>
	<g id="char-e_1_2_">
		<path class="st1" d="M218.1,35.1c-0.6,0.6-1.4,0.9-2.1,0.9c-1.7,0-3-1.3-3-3s1.3-3,3-3s3,1.3,3,3h-6"/>
	</g>
	<g id="char-n_1_3_">
		<g>
			<path class="st1" d="M228,36v-3c0-1.7-1.3-3-3-3s-3,1.3-3,3v3v-6"/>
		</g>
	</g>
	<g id="char-e_1_3_">
		<path class="st1" d="M236.1,35.1c-0.6,0.6-1.4,0.9-2.1,0.9c-1.7,0-3-1.3-3-3s1.3-3,3-3s3,1.3,3,3h-6"/>
	</g>
	<g id="char-r_1_2_">
		<g>
			<path class="st1" d="M246,33c0-1.7-1.3-3-3-3s-3,1.3-3,3v3v-6"/>
		</g>
	</g>
	<g id="char-a_1_2_">
		<g id="group-char-a_1_2_">
			<path class="st1" d="M255,33v3"/>
			<path class="st1" d="M249,33c0-1.7,1.3-3,3-3s3,1.3,3,3s-1.3,3-3,3S249,34.7,249,33z"/>
		</g>
	</g>
	<g id="char-t_1_1_">
		<g>
			<path class="st1" d="M260,24v10c0,1.1,0.9,2,2,2s2-0.9,2-2"/>
			<path class="st1" d="M258,30h6"/>
		</g>
	</g>
	<g id="char-o_1_1_">
		<g>
			<path class="st1" d="M267,33c0-1.7,1.3-3,3-3s3,1.3,3,3s-1.3,3-3,3S267,34.7,267,33z"/>
		</g>
	</g>
	<g id="char-r_1_3_">
		<g>
			<path class="st1" d="M282,33c0-1.7-1.3-3-3-3s-3,1.3-3,3v3v-6"/>
		</g>
	</g>
</g>
<g>
	<g>
		<g id="char-x_1">
			<g>
				<path class="st1" d="M51.6,96l12,12"/>
				<path class="st1" d="M63.6,96l-12,12"/>
			</g>
		</g>
	</g>
	<g>
		<g id="char-5_1">
			<path class="st1" d="M75.6,103.1c0,2.4,2,4.4,4.4,4.4s4.4-2,4.4-4.4s-2-4.4-4.4-4.4h-4.4V90h8.8"/>
		</g>
	</g>
	<g>
		<g id="char-1_1">
			<path class="st1" d="M176,90.5l-4.4,2.9L176,90.5V108h-4.4h8.8"/>
		</g>
	</g>
	<g>
		<g id="char-1_1_1_">
			<path class="st1" d="M272,90.5l-4.4,2.9L272,90.5V108h-4.4h8.8"/>
		</g>
		<g id="char-6_1">
			<g id="group-char-6_1">
				<path class="st1" d="M280.7,103.6v-8.8c0-2.4,2-4.4,4.4-4.4s4.4,2,4.4,4.4"/>
				<path class="st1" d="M280.7,103.6c0-2.4,2-4.4,4.4-4.4s4.4,2,4.4,4.4s-2,4.4-4.4,4.4S280.7,106,280.7,103.6z"/>
			</g>
		</g>
	</g>
	<g>
		<polyline class="st1" points="93.6,102 105.6,102 99.6,96 		"/>
		<line class="st1" x1="99.6" y1="108" x2="105.6" y2="102"/>
	</g>
	<g>
		<polyline class="st1" points="189.6,102 201.6,102 195.6,96 		"/>
		<line class="st1" x1="195.6" y1="108" x2="201.6" y2="102"/>
	</g>
	<g>
		<polyline class="st1" points="303.6,102 315.6,102 309.6,96 		"/>
		<line class="st1" x1="309.6" y1="108" x2="315.6" y2="102"/>
	</g>
	<g>
		<line class="st1" x1="153.6" y1="96" x2="153.6" y2="108"/>
		<line class="st1" x1="147.6" y1="102" x2="159.6" y2="102"/>
	</g>
	<g>
		<line class="st1" x1="243.6" y1="108" x2="255.6" y2="96"/>
		<circle class="st1" cx="246.6" cy="99" r="3"/>
		<circle class="st1" cx="252.6" cy="105" r="3"/>
	</g>
	<rect x="21.6" y="90" class="st2" width="18" height="18"/>
	<rect x="117.6" y="90" class="st2" width="18" height="18"/>
	<rect x="213.6" y="90" class="st2" width="18" height="18"/>
	<rect x="327.6" y="90" class="st2" width="18" height="18"/>
</g>
<g>
	<g>
		<g id="char-x_1_1_">
			<g>
				<path class="st1" d="M51.6,136.8l12,12"/>
				<path class="st1" d="M63.6,136.8l-12,12"/>
			</g>
		</g>
	</g>
	<g>
		<g id="char-5_1_1_">
			<path class="st1" d="M75.6,143.9c0,2.4,2,4.4,4.4,4.4s4.4-2,4.4-4.4c0-2.4-2-4.4-4.4-4.4h-4.4v-8.7h8.8"/>
		</g>
	</g>
	<g>
		<g id="char-1_1_4_">
			<path class="st1" d="M176,131.3l-4.4,2.9L176,131.3v17.5h-4.4h8.8"/>
		</g>
	</g>
	<g>
		<g id="char-1_1_3_">
			<path class="st1" d="M272,131.3l-4.4,2.9L272,131.3v17.5h-4.4h8.8"/>
		</g>
		<g id="char-6_1_2_">
			<g id="group-char-6_1_2_">
				<path class="st1" d="M280.7,144.4v-8.8c0-2.4,2-4.4,4.4-4.4s4.4,2,4.4,4.4"/>
				<path class="st1" d="M280.7,144.4c0-2.4,2-4.4,4.4-4.4s4.4,2,4.4,4.4c0,2.4-2,4.4-4.4,4.4S280.7,146.8,280.7,144.4z"/>
			</g>
		</g>
	</g>
	<g>
		<polyline class="st1" points="93.6,142.8 105.6,142.8 99.6,136.8 		"/>
		<line class="st1" x1="99.6" y1="148.8" x2="105.6" y2="142.8"/>
	</g>
	<g>
		<polyline class="st1" points="189.6,142.8 201.6,142.8 195.6,136.8 		"/>
		<line class="st1" x1="195.6" y1="148.8" x2="201.6" y2="142.8"/>
	</g>
	<g>
		<polyline class="st1" points="303.6,142.8 315.6,142.8 309.6,136.8 		"/>
		<line class="st1" x1="309.6" y1="148.8" x2="315.6" y2="142.8"/>
	</g>
	<g>
		<line class="st1" x1="153.6" y1="136.8" x2="153.6" y2="148.8"/>
		<line class="st1" x1="147.6" y1="142.8" x2="159.6" y2="142.8"/>
	</g>
	<g>
		<line class="st1" x1="243.6" y1="148.8" x2="255.6" y2="136.8"/>
		<circle class="st1" cx="246.6" cy="139.8" r="3"/>
		<circle class="st1" cx="252.6" cy="145.8" r="3"/>
	</g>
	<rect x="21.6" y="130.8" class="st2" width="18" height="18"/>
	<rect x="117.6" y="130.8" class="st2" width="18" height="18"/>
	<rect x="213.6" y="130.8" class="st2" width="18" height="18"/>
	<rect x="327.6" y="130.8" class="st2" width="18" height="18"/>
</g>
<g>
	<g>
		<g id="char-x_1_2_">
			<g>
				<path class="st1" d="M51.6,177.6l12,12"/>
				<path class="st1" d="M63.6,177.6l-12,12"/>
			</g>
		</g>
	</g>
	<g>
		<g id="char-5_1_2_">
			<path class="st1" d="M75.6,184.7c0,2.4,2,4.4,4.4,4.4s4.4-2,4.4-4.4c0-2.4-2-4.4-4.4-4.4h-4.4v-8.7h8.8"/>
		</g>
	</g>
	<g>
		<g id="char-1_1_7_">
			<path class="st1" d="M176,172.1l-4.4,2.9L176,172.1v17.5h-4.4h8.8"/>
		</g>
	</g>
	<g>
		<g id="char-1_1_6_">
			<path class="st1" d="M272,172.1l-4.4,2.9L272,172.1v17.5h-4.4h8.8"/>
		</g>
		<g id="char-6_1_4_">
			<g id="group-char-6_1_4_">
				<path class="st1" d="M280.7,185.2v-8.8c0-2.4,2-4.4,4.4-4.4s4.4,2,4.4,4.4"/>
				<path class="st1" d="M280.7,185.2c0-2.4,2-4.4,4.4-4.4s4.4,2,4.4,4.4c0,2.4-2,4.4-4.4,4.4S280.7,187.6,280.7,185.2z"/>
			</g>
		</g>
	</g>
	<g>
		<polyline class="st1" points="93.6,183.6 105.6,183.6 99.6,177.6 		"/>
		<line class="st1" x1="99.6" y1="189.6" x2="105.6" y2="183.6"/>
	</g>
	<g>
		<polyline class="st1" points="189.6,183.6 201.6,183.6 195.6,177.6 		"/>
		<line class="st1" x1="195.6" y1="189.6" x2="201.6" y2="183.6"/>
	</g>
	<g>
		<polyline class="st1" points="303.6,183.6 315.6,183.6 309.6,177.6 		"/>
		<line class="st1" x1="309.6" y1="189.6" x2="315.6" y2="183.6"/>
	</g>
	<g>
		<line class="st1" x1="153.6" y1="177.6" x2="153.6" y2="189.6"/>
		<line class="st1" x1="147.6" y1="183.6" x2="159.6" y2="183.6"/>
	</g>
	<g>
		<line class="st1" x1="243.6" y1="189.6" x2="255.6" y2="177.6"/>
		<circle class="st1" cx="246.6" cy="180.6" r="3"/>
		<circle class="st1" cx="252.6" cy="186.6" r="3"/>
	</g>
	<rect x="21.6" y="171.6" class="st2" width="18" height="18"/>
	<rect x="117.6" y="171.6" class="st2" width="18" height="18"/>
	<rect x="213.6" y="171.6" class="st2" width="18" height="18"/>
	<rect x="327.6" y="171.6" class="st2" width="18" height="18"/>
</g>
<g>
	<g>
		<g id="char-x_1_3_">
			<g>
				<path class="st1" d="M51.6,218.4l12,12"/>
				<path class="st1" d="M63.6,218.4l-12,12"/>
			</g>
		</g>
	</g>
	<g>
		<g id="char-5_1_3_">
			<path class="st1" d="M75.6,225.5c0,2.4,2,4.4,4.4,4.4s4.4-2,4.4-4.4c0-2.4-2-4.4-4.4-4.4h-4.4v-8.7h8.8"/>
		</g>
	</g>
	<g>
		<g id="char-1_1_10_">
			<path class="st1" d="M176,212.9l-4.4,2.9L176,212.9v17.5h-4.4h8.8"/>
		</g>
	</g>
	<g>
		<g id="char-1_1_9_">
			<path class="st1" d="M272,212.9l-4.4,2.9L272,212.9v17.5h-4.4h8.8"/>
		</g>
		<g id="char-6_1_6_">
			<g id="group-char-6_1_6_">
				<path class="st1" d="M280.7,226v-8.8c0-2.4,2-4.4,4.4-4.4s4.4,2,4.4,4.4"/>
				<path class="st1" d="M280.7,226c0-2.4,2-4.4,4.4-4.4s4.4,2,4.4,4.4c0,2.4-2,4.4-4.4,4.4S280.7,228.4,280.7,226z"/>
			</g>
		</g>
	</g>
	<g>
		<polyline class="st1" points="93.6,224.4 105.6,224.4 99.6,218.4 		"/>
		<line class="st1" x1="99.6" y1="230.4" x2="105.6" y2="224.4"/>
	</g>
	<g>
		<polyline class="st1" points="189.6,224.4 201.6,224.4 195.6,218.4 		"/>
		<line class="st1" x1="195.6" y1="230.4" x2="201.6" y2="224.4"/>
	</g>
	<g>
		<polyline class="st1" points="303.6,224.4 315.6,224.4 309.6,218.4 		"/>
		<line class="st1" x1="309.6" y1="230.4" x2="315.6" y2="224.4"/>
	</g>
	<g>
		<line class="st1" x1="153.6" y1="218.4" x2="153.6" y2="230.4"/>
		<line class="st1" x1="147.6" y1="224.4" x2="159.6" y2="224.4"/>
	</g>
	<g>
		<line class="st1" x1="243.6" y1="230.4" x2="255.6" y2="218.4"/>
		<circle class="st1" cx="246.6" cy="221.4" r="3"/>
		<circle class="st1" cx="252.6" cy="227.4" r="3"/>
	</g>
	<rect x="21.6" y="212.4" class="st2" width="18" height="18"/>
	<rect x="117.6" y="212.4" class="st2" width="18" height="18"/>
	<rect x="213.6" y="212.4" class="st2" width="18" height="18"/>
	<rect x="327.6" y="212.4" class="st2" width="18" height="18"/>
</g>
<g>
	<g>
		<g id="char-x_1_4_">
			<g>
				<path class="st1" d="M51.6,259.2l12,12"/>
				<path class="st1" d="M63.6,259.2l-12,12"/>
			</g>
		</g>
	</g>
	<g>
		<g id="char-5_1_4_">
			<path class="st1" d="M75.6,266.3c0,2.4,2,4.4,4.4,4.4s4.4-2,4.4-4.4c0-2.4-2-4.4-4.4-4.4h-4.4v-8.7h8.8"/>
		</g>
	</g>
	<g>
		<g id="char-1_1_13_">
			<path class="st1" d="M176,253.7l-4.4,2.9L176,253.7v17.5h-4.4h8.8"/>
		</g>
	</g>
	<g>
		<g id="char-1_1_12_">
			<path class="st1" d="M272,253.7l-4.4,2.9L272,253.7v17.5h-4.4h8.8"/>
		</g>
		<g id="char-6_1_8_">
			<g id="group-char-6_1_8_">
				<path class="st1" d="M280.7,266.8V258c0-2.4,2-4.4,4.4-4.4s4.4,2,4.4,4.4"/>
				<path class="st1" d="M280.7,266.8c0-2.4,2-4.4,4.4-4.4s4.4,2,4.4,4.4c0,2.4-2,4.4-4.4,4.4S280.7,269.2,280.7,266.8z"/>
			</g>
		</g>
	</g>
	<g>
		<polyline class="st1" points="93.6,265.2 105.6,265.2 99.6,259.2 		"/>
		<line class="st1" x1="99.6" y1="271.2" x2="105.6" y2="265.2"/>
	</g>
	<g>
		<polyline class="st1" points="189.6,265.2 201.6,265.2 195.6,259.2 		"/>
		<line class="st1" x1="195.6" y1="271.2" x2="201.6" y2="265.2"/>
	</g>
	<g>
		<polyline class="st1" points="303.6,265.2 315.6,265.2 309.6,259.2 		"/>
		<line class="st1" x1="309.6" y1="271.2" x2="315.6" y2="265.2"/>
	</g>
	<g>
		<line class="st1" x1="153.6" y1="259.2" x2="153.6" y2="271.2"/>
		<line class="st1" x1="147.6" y1="265.2" x2="159.6" y2="265.2"/>
	</g>
	<g>
		<line class="st1" x1="243.6" y1="271.2" x2="255.6" y2="259.2"/>
		<circle class="st1" cx="246.6" cy="262.2" r="3"/>
		<circle class="st1" cx="252.6" cy="268.2" r="3"/>
	</g>
	<rect x="21.6" y="253.2" class="st2" width="18" height="18"/>
	<rect x="117.6" y="253.2" class="st2" width="18" height="18"/>
	<rect x="213.6" y="253.2" class="st2" width="18" height="18"/>
	<rect x="327.6" y="253.2" class="st2" width="18" height="18"/>
</g>
<g>
	<g>
		<g id="char-x_1_5_">
			<g>
				<path class="st1" d="M51.6,300l12,12"/>
				<path class="st1" d="M63.6,300l-12,12"/>
			</g>
		</g>
	</g>
	<g>
		<g id="char-5_1_5_">
			<path class="st1" d="M75.6,307.1c0,2.4,2,4.4,4.4,4.4s4.4-2,4.4-4.4c0-2.4-2-4.4-4.4-4.4h-4.4V294h8.8"/>
		</g>
	</g>
	<g>
		<g id="char-1_1_16_">
			<path class="st1" d="M176,294.5l-4.4,2.9L176,294.5V312h-4.4h8.8"/>
		</g>
	</g>
	<g>
		<g id="char-1_1_15_">
			<path class="st1" d="M272,294.5l-4.4,2.9L272,294.5V312h-4.4h8.8"/>
		</g>
		<g id="char-6_1_10_">
			<g id="group-char-6_1_10_">
				<path class="st1" d="M280.7,307.6v-8.8c0-2.4,2-4.4,4.4-4.4s4.4,2,4.4,4.4"/>
				<path class="st1" d="M280.7,307.6c0-2.4,2-4.4,4.4-4.4s4.4,2,4.4,4.4c0,2.4-2,4.4-4.4,4.4S280.7,310,280.7,307.6z"/>
			</g>
		</g>
	</g>
	<g>
		<polyline class="st1" points="93.6,306 105.6,306 99.6,300 		"/>
		<line class="st1" x1="99.6" y1="312" x2="105.6" y2="306"/>
	</g>
	<g>
		<polyline class="st1" points="189.6,306 201.6,306 195.6,300 		"/>
		<line class="st1" x1="195.6" y1="312" x2="201.6" y2="306"/>
	</g>
	<g>
		<polyline class="st1" points="303.6,306 315.6,306 309.6,300 		"/>
		<line class="st1" x1="309.6" y1="312" x2="315.6" y2="306"/>
	</g>
	<g>
		<line class="st1" x1="153.6" y1="300" x2="153.6" y2="312"/>
		<line class="st1" x1="147.6" y1="306" x2="159.6" y2="306"/>
	</g>
	<g>
		<line class="st1" x1="243.6" y1="312" x2="255.6" y2="300"/>
		<circle class="st1" cx="246.6" cy="303" r="3"/>
		<circle class="st1" cx="252.6" cy="309" r="3"/>
	</g>
	<rect x="21.6" y="294" class="st2" width="18" height="18"/>
	<rect x="117.6" y="294" class="st2" width="18" height="18"/>
	<rect x="213.6" y="294" class="st2" width="18" height="18"/>
	<rect x="327.6" y="294" class="st2" width="18" height="18"/>
</g>
<g>
	<g>
		<g id="char-x_1_6_">
			<g>
				<path class="st1" d="M51.6,340.8l12,12"/>
				<path class="st1" d="M63.6,340.8l-12,12"/>
			</g>
		</g>
	</g>
	<g>
		<g id="char-5_1_6_">
			<path class="st1" d="M75.6,347.9c0,2.4,2,4.4,4.4,4.4s4.4-2,4.4-4.4s-2-4.4-4.4-4.4h-4.4v-8.7h8.8"/>
		</g>
	</g>
	<g>
		<g id="char-1_1_19_">
			<path class="st1" d="M176,335.3l-4.4,2.9L176,335.3v17.5h-4.4h8.8"/>
		</g>
	</g>
	<g>
		<g id="char-1_1_18_">
			<path class="st1" d="M272,335.3l-4.4,2.9L272,335.3v17.5h-4.4h8.8"/>
		</g>
		<g id="char-6_1_13_">
			<g id="group-char-6_1_13_">
				<path class="st1" d="M280.7,348.4v-8.8c0-2.4,2-4.4,4.4-4.4s4.4,2,4.4,4.4"/>
				<path class="st1" d="M280.7,348.4c0-2.4,2-4.4,4.4-4.4s4.4,2,4.4,4.4s-2,4.4-4.4,4.4S280.7,350.8,280.7,348.4z"/>
			</g>
		</g>
	</g>
	<g>
		<polyline class="st1" points="93.6,346.8 105.6,346.8 99.6,340.8 		"/>
		<line class="st1" x1="99.6" y1="352.8" x2="105.6" y2="346.8"/>
	</g>
	<g>
		<polyline class="st1" points="189.6,346.8 201.6,346.8 195.6,340.8 		"/>
		<line class="st1" x1="195.6" y1="352.8" x2="201.6" y2="346.8"/>
	</g>
	<g>
		<polyline class="st1" points="303.6,346.8 315.6,346.8 309.6,340.8 		"/>
		<line class="st1" x1="309.6" y1="352.8" x2="315.6" y2="346.8"/>
	</g>
	<g>
		<line class="st1" x1="153.6" y1="340.8" x2="153.6" y2="352.8"/>
		<line class="st1" x1="147.6" y1="346.8" x2="159.6" y2="346.8"/>
	</g>
	<g>
		<line class="st1" x1="243.6" y1="352.8" x2="255.6" y2="340.8"/>
		<circle class="st1" cx="246.6" cy="343.8" r="3"/>
		<circle class="st1" cx="252.6" cy="349.8" r="3"/>
	</g>
	<rect x="21.6" y="334.8" class="st2" width="18" height="18"/>
	<rect x="117.6" y="334.8" class="st2" width="18" height="18"/>
	<rect x="213.6" y="334.8" class="st2" width="18" height="18"/>
	<rect x="327.6" y="334.8" class="st2" width="18" height="18"/>
</g>
<g>
	<g>
		<g id="char-x_1_7_">
			<g>
				<path class="st1" d="M51.6,381.6l12,12"/>
				<path class="st1" d="M63.6,381.6l-12,12"/>
			</g>
		</g>
	</g>
	<g>
		<g id="char-5_1_7_">
			<path class="st1" d="M75.6,388.7c0,2.4,2,4.4,4.4,4.4s4.4-2,4.4-4.4c0-2.4-2-4.4-4.4-4.4h-4.4v-8.7h8.8"/>
		</g>
	</g>
	<g>
		<g id="char-1_1_23_">
			<path class="st1" d="M176,376.1l-4.4,2.9L176,376.1v17.5h-4.4h8.8"/>
		</g>
	</g>
	<g>
		<g id="char-1_1_21_">
			<path class="st1" d="M272,376.1l-4.4,2.9L272,376.1v17.5h-4.4h8.8"/>
		</g>
		<g id="char-6_1_15_">
			<g id="group-char-6_1_15_">
				<path class="st1" d="M280.7,389.2v-8.8c0-2.4,2-4.4,4.4-4.4s4.4,2,4.4,4.4"/>
				<path class="st1" d="M280.7,389.2c0-2.4,2-4.4,4.4-4.4s4.4,2,4.4,4.4c0,2.4-2,4.4-4.4,4.4S280.7,391.6,280.7,389.2z"/>
			</g>
		</g>
	</g>
	<g>
		<polyline class="st1" points="93.6,387.6 105.6,387.6 99.6,381.6 		"/>
		<line class="st1" x1="99.6" y1="393.6" x2="105.6" y2="387.6"/>
	</g>
	<g>
		<polyline class="st1" points="189.6,387.6 201.6,387.6 195.6,381.6 		"/>
		<line class="st1" x1="195.6" y1="393.6" x2="201.6" y2="387.6"/>
	</g>
	<g>
		<polyline class="st1" points="303.6,387.6 315.6,387.6 309.6,381.6 		"/>
		<line class="st1" x1="309.6" y1="393.6" x2="315.6" y2="387.6"/>
	</g>
	<g>
		<line class="st1" x1="153.6" y1="381.6" x2="153.6" y2="393.6"/>
		<line class="st1" x1="147.6" y1="387.6" x2="159.6" y2="387.6"/>
	</g>
	<g>
		<line class="st1" x1="243.6" y1="393.6" x2="255.6" y2="381.6"/>
		<circle class="st1" cx="246.6" cy="384.6" r="3"/>
		<circle class="st1" cx="252.6" cy="390.6" r="3"/>
	</g>
	<rect x="21.6" y="375.6" class="st2" width="18" height="18"/>
	<rect x="117.6" y="375.6" class="st2" width="18" height="18"/>
	<rect x="213.6" y="375.6" class="st2" width="18" height="18"/>
	<rect x="327.6" y="375.6" class="st2" width="18" height="18"/>
</g>
<g>
	<g>
		<g id="char-x_1_8_">
			<g>
				<path class="st1" d="M51.6,422.4l12,12"/>
				<path class="st1" d="M63.6,422.4l-12,12"/>
			</g>
		</g>
	</g>
	<g>
		<g id="char-5_1_8_">
			<path class="st1" d="M75.6,429.5c0,2.4,2,4.4,4.4,4.4s4.4-2,4.4-4.4s-2-4.4-4.4-4.4h-4.4v-8.7h8.8"/>
		</g>
	</g>
	<g>
		<g id="char-1_1_26_">
			<path class="st1" d="M176,416.9l-4.4,2.9L176,416.9v17.5h-4.4h8.8"/>
		</g>
	</g>
	<g>
		<g id="char-1_1_25_">
			<path class="st1" d="M272,416.9l-4.4,2.9L272,416.9v17.5h-4.4h8.8"/>
		</g>
		<g id="char-6_1_17_">
			<g id="group-char-6_1_17_">
				<path class="st1" d="M280.7,430v-8.8c0-2.4,2-4.4,4.4-4.4s4.4,2,4.4,4.4"/>
				<path class="st1" d="M280.7,430c0-2.4,2-4.4,4.4-4.4s4.4,2,4.4,4.4s-2,4.4-4.4,4.4S280.7,432.4,280.7,430z"/>
			</g>
		</g>
	</g>
	<g>
		<polyline class="st1" points="93.6,428.4 105.6,428.4 99.6,422.4 		"/>
		<line class="st1" x1="99.6" y1="434.4" x2="105.6" y2="428.4"/>
	</g>
	<g>
		<polyline class="st1" points="189.6,428.4 201.6,428.4 195.6,422.4 		"/>
		<line class="st1" x1="195.6" y1="434.4" x2="201.6" y2="428.4"/>
	</g>
	<g>
		<polyline class="st1" points="303.6,428.4 315.6,428.4 309.6,422.4 		"/>
		<line class="st1" x1="309.6" y1="434.4" x2="315.6" y2="428.4"/>
	</g>
	<g>
		<line class="st1" x1="153.6" y1="422.4" x2="153.6" y2="434.4"/>
		<line class="st1" x1="147.6" y1="428.4" x2="159.6" y2="428.4"/>
	</g>
	<g>
		<line class="st1" x1="243.6" y1="434.4" x2="255.6" y2="422.4"/>
		<circle class="st1" cx="246.6" cy="425.4" r="3"/>
		<circle class="st1" cx="252.6" cy="431.4" r="3"/>
	</g>
	<rect x="21.6" y="416.4" class="st2" width="18" height="18"/>
	<rect x="117.6" y="416.4" class="st2" width="18" height="18"/>
	<rect x="213.6" y="416.4" class="st2" width="18" height="18"/>
	<rect x="327.6" y="416.4" class="st2" width="18" height="18"/>
</g>
<g>
	<g>
		<g id="char-x_1_9_">
			<g>
				<path class="st1" d="M51.6,463.2l12,12"/>
				<path class="st1" d="M63.6,463.2l-12,12"/>
			</g>
		</g>
	</g>
	<g>
		<g id="char-5_1_9_">
			<path class="st1" d="M75.6,470.3c0,2.4,2,4.4,4.4,4.4s4.4-2,4.4-4.4c0-2.4-2-4.4-4.4-4.4h-4.4v-8.7h8.8"/>
		</g>
	</g>
	<g>
		<g id="char-1_1_29_">
			<path class="st1" d="M176,457.7l-4.4,2.9L176,457.7v17.5h-4.4h8.8"/>
		</g>
	</g>
	<g>
		<g id="char-1_1_28_">
			<path class="st1" d="M272,457.7l-4.4,2.9L272,457.7v17.5h-4.4h8.8"/>
		</g>
		<g id="char-6_1_19_">
			<g id="group-char-6_1_19_">
				<path class="st1" d="M280.7,470.8V462c0-2.4,2-4.4,4.4-4.4s4.4,2,4.4,4.4"/>
				<path class="st1" d="M280.7,470.8c0-2.4,2-4.4,4.4-4.4s4.4,2,4.4,4.4c0,2.4-2,4.4-4.4,4.4S280.7,473.2,280.7,470.8z"/>
			</g>
		</g>
	</g>
	<g>
		<polyline class="st1" points="93.6,469.2 105.6,469.2 99.6,463.2 		"/>
		<line class="st1" x1="99.6" y1="475.2" x2="105.6" y2="469.2"/>
	</g>
	<g>
		<polyline class="st1" points="189.6,469.2 201.6,469.2 195.6,463.2 		"/>
		<line class="st1" x1="195.6" y1="475.2" x2="201.6" y2="469.2"/>
	</g>
	<g>
		<polyline class="st1" points="303.6,469.2 315.6,469.2 309.6,463.2 		"/>
		<line class="st1" x1="309.6" y1="475.2" x2="315.6" y2="469.2"/>
	</g>
	<g>
		<line class="st1" x1="153.6" y1="463.2" x2="153.6" y2="475.2"/>
		<line class="st1" x1="147.6" y1="469.2" x2="159.6" y2="469.2"/>
	</g>
	<g>
		<line class="st1" x1="243.6" y1="475.2" x2="255.6" y2="463.2"/>
		<circle class="st1" cx="246.6" cy="466.2" r="3"/>
		<circle class="st1" cx="252.6" cy="472.2" r="3"/>
	</g>
	<rect x="21.6" y="457.2" class="st2" width="18" height="18"/>
	<rect x="117.6" y="457.2" class="st2" width="18" height="18"/>
	<rect x="213.6" y="457.2" class="st2" width="18" height="18"/>
	<rect x="327.6" y="457.2" class="st2" width="18" height="18"/>
</g>
<g>
	<g>
		<g id="char-x_1_10_">
			<g>
				<path class="st1" d="M51.6,504l12,12"/>
				<path class="st1" d="M63.6,504l-12,12"/>
			</g>
		</g>
	</g>
	<g>
		<g id="char-5_1_10_">
			<path class="st1" d="M75.6,511.1c0,2.4,2,4.4,4.4,4.4s4.4-2,4.4-4.4c0-2.4-2-4.4-4.4-4.4h-4.4V498h8.8"/>
		</g>
	</g>
	<g>
		<g id="char-1_1_32_">
			<path class="st1" d="M176,498.5l-4.4,2.9L176,498.5V516h-4.4h8.8"/>
		</g>
	</g>
	<g>
		<g id="char-1_1_31_">
			<path class="st1" d="M272,498.5l-4.4,2.9L272,498.5V516h-4.4h8.8"/>
		</g>
		<g id="char-6_1_21_">
			<g id="group-char-6_1_21_">
				<path class="st1" d="M280.7,511.6v-8.8c0-2.4,2-4.4,4.4-4.4s4.4,2,4.4,4.4"/>
				<path class="st1" d="M280.7,511.6c0-2.4,2-4.4,4.4-4.4s4.4,2,4.4,4.4c0,2.4-2,4.4-4.4,4.4S280.7,514,280.7,511.6z"/>
			</g>
		</g>
	</g>
	<g>
		<polyline class="st1" points="93.6,510 105.6,510 99.6,504 		"/>
		<line class="st1" x1="99.6" y1="516" x2="105.6" y2="510"/>
	</g>
	<g>
		<polyline class="st1" points="189.6,510 201.6,510 195.6,504 		"/>
		<line class="st1" x1="195.6" y1="516" x2="201.6" y2="510"/>
	</g>
	<g>
		<polyline class="st1" points="303.6,510 315.6,510 309.6,504 		"/>
		<line class="st1" x1="309.6" y1="516" x2="315.6" y2="510"/>
	</g>
	<g>
		<line class="st1" x1="153.6" y1="504" x2="153.6" y2="516"/>
		<line class="st1" x1="147.6" y1="510" x2="159.6" y2="510"/>
	</g>
	<g>
		<line class="st1" x1="243.6" y1="516" x2="255.6" y2="504"/>
		<circle class="st1" cx="246.6" cy="507" r="3"/>
		<circle class="st1" cx="252.6" cy="513" r="3"/>
	</g>
	<rect x="21.6" y="498" class="st2" width="18" height="18"/>
	<rect x="117.6" y="498" class="st2" width="18" height="18"/>
	<rect x="213.6" y="498" class="st2" width="18" height="18"/>
	<rect x="327.6" y="498" class="st2" width="18" height="18"/>
</g>
<g>
	<g>
		<g id="char-x_1_11_">
			<g>
				<path class="st1" d="M51.6,544.8l12,12"/>
				<path class="st1" d="M63.6,544.8l-12,12"/>
			</g>
		</g>
	</g>
	<g>
		<g id="char-5_1_11_">
			<path class="st1" d="M75.6,551.9c0,2.4,2,4.4,4.4,4.4s4.4-2,4.4-4.4c0-2.4-2-4.4-4.4-4.4h-4.4v-8.7h8.8"/>
		</g>
	</g>
	<g>
		<g id="char-1_1_35_">
			<path class="st1" d="M176,539.3l-4.4,2.9L176,539.3v17.5h-4.4h8.8"/>
		</g>
	</g>
	<g>
		<g id="char-1_1_34_">
			<path class="st1" d="M272,539.3l-4.4,2.9L272,539.3v17.5h-4.4h8.8"/>
		</g>
		<g id="char-6_1_23_">
			<g id="group-char-6_1_23_">
				<path class="st1" d="M280.7,552.4v-8.8c0-2.4,2-4.4,4.4-4.4s4.4,2,4.4,4.4"/>
				<path class="st1" d="M280.7,552.4c0-2.4,2-4.4,4.4-4.4s4.4,2,4.4,4.4c0,2.4-2,4.4-4.4,4.4S280.7,554.8,280.7,552.4z"/>
			</g>
		</g>
	</g>
	<g>
		<polyline class="st1" points="93.6,550.8 105.6,550.8 99.6,544.8 		"/>
		<line class="st1" x1="99.6" y1="556.8" x2="105.6" y2="550.8"/>
	</g>
	<g>
		<polyline class="st1" points="189.6,550.8 201.6,550.8 195.6,544.8 		"/>
		<line class="st1" x1="195.6" y1="556.8" x2="201.6" y2="550.8"/>
	</g>
	<g>
		<polyline class="st1" points="303.6,550.8 315.6,550.8 309.6,544.8 		"/>
		<line class="st1" x1="309.6" y1="556.8" x2="315.6" y2="550.8"/>
	</g>
	<g>
		<line class="st1" x1="153.6" y1="544.8" x2="153.6" y2="556.8"/>
		<line class="st1" x1="147.6" y1="550.8" x2="159.6" y2="550.8"/>
	</g>
	<g>
		<line class="st1" x1="243.6" y1="556.8" x2="255.6" y2="544.8"/>
		<circle class="st1" cx="246.6" cy="547.8" r="3"/>
		<circle class="st1" cx="252.6" cy="553.8" r="3"/>
	</g>
	<rect x="21.6" y="538.8" class="st2" width="18" height="18"/>
	<rect x="117.6" y="538.8" class="st2" width="18" height="18"/>
	<rect x="213.6" y="538.8" class="st2" width="18" height="18"/>
	<rect x="327.6" y="538.8" class="st2" width="18" height="18"/>
</g>
<g>
	<g>
		<g id="char-x_1_12_">
			<g>
				<path class="st1" d="M51.6,585.6l12,12"/>
				<path class="st1" d="M63.6,585.6l-12,12"/>
			</g>
		</g>
	</g>
	<g>
		<g id="char-5_1_12_">
			<path class="st1" d="M75.6,592.7c0,2.4,2,4.4,4.4,4.4s4.4-2,4.4-4.4c0-2.4-2-4.4-4.4-4.4h-4.4v-8.7h8.8"/>
		</g>
	</g>
	<g>
		<g id="char-1_1_38_">
			<path class="st1" d="M176,580.1l-4.4,2.9L176,580.1v17.5h-4.4h8.8"/>
		</g>
	</g>
	<g>
		<g id="char-1_1_37_">
			<path class="st1" d="M272,580.1l-4.4,2.9L272,580.1v17.5h-4.4h8.8"/>
		</g>
		<g id="char-6_1_25_">
			<g id="group-char-6_1_25_">
				<path class="st1" d="M280.7,593.2v-8.8c0-2.4,2-4.4,4.4-4.4s4.4,2,4.4,4.4"/>
				<path class="st1" d="M280.7,593.2c0-2.4,2-4.4,4.4-4.4s4.4,2,4.4,4.4c0,2.4-2,4.4-4.4,4.4S280.7,595.6,280.7,593.2z"/>
			</g>
		</g>
	</g>
	<g>
		<polyline class="st1" points="93.6,591.6 105.6,591.6 99.6,585.6 		"/>
		<line class="st1" x1="99.6" y1="597.6" x2="105.6" y2="591.6"/>
	</g>
	<g>
		<polyline class="st1" points="189.6,591.6 201.6,591.6 195.6,585.6 		"/>
		<line class="st1" x1="195.6" y1="597.6" x2="201.6" y2="591.6"/>
	</g>
	<g>
		<polyline class="st1" points="303.6,591.6 315.6,591.6 309.6,585.6 		"/>
		<line class="st1" x1="309.6" y1="597.6" x2="315.6" y2="591.6"/>
	</g>
	<g>
		<line class="st1" x1="153.6" y1="585.6" x2="153.6" y2="597.6"/>
		<line class="st1" x1="147.6" y1="591.6" x2="159.6" y2="591.6"/>
	</g>
	<g>
		<line class="st1" x1="243.6" y1="597.6" x2="255.6" y2="585.6"/>
		<circle class="st1" cx="246.6" cy="588.6" r="3"/>
		<circle class="st1" cx="252.6" cy="594.6" r="3"/>
	</g>
	<rect x="21.6" y="579.6" class="st2" width="18" height="18"/>
	<rect x="117.6" y="579.6" class="st2" width="18" height="18"/>
	<rect x="213.6" y="579.6" class="st2" width="18" height="18"/>
	<rect x="327.6" y="579.6" class="st2" width="18" height="18"/>
</g>
<g>
	<g>
		<g id="char-x_1_13_">
			<g>
				<path class="st1" d="M51.6,626.4l12,12"/>
				<path class="st1" d="M63.6,626.4l-12,12"/>
			</g>
		</g>
	</g>
	<g>
		<g id="char-5_1_13_">
			<path class="st1" d="M75.6,633.5c0,2.4,2,4.4,4.4,4.4s4.4-2,4.4-4.4s-2-4.4-4.4-4.4h-4.4v-8.7h8.8"/>
		</g>
	</g>
	<g>
		<g id="char-1_1_41_">
			<path class="st1" d="M176,620.9l-4.4,2.9L176,620.9v17.5h-4.4h8.8"/>
		</g>
	</g>
	<g>
		<g id="char-1_1_40_">
			<path class="st1" d="M272,620.9l-4.4,2.9L272,620.9v17.5h-4.4h8.8"/>
		</g>
		<g id="char-6_1_27_">
			<g id="group-char-6_1_27_">
				<path class="st1" d="M280.7,634v-8.8c0-2.4,2-4.4,4.4-4.4s4.4,2,4.4,4.4"/>
				<path class="st1" d="M280.7,634c0-2.4,2-4.4,4.4-4.4s4.4,2,4.4,4.4s-2,4.4-4.4,4.4S280.7,636.4,280.7,634z"/>
			</g>
		</g>
	</g>
	<g>
		<polyline class="st1" points="93.6,632.4 105.6,632.4 99.6,626.4 		"/>
		<line class="st1" x1="99.6" y1="638.4" x2="105.6" y2="632.4"/>
	</g>
	<g>
		<polyline class="st1" points="189.6,632.4 201.6,632.4 195.6,626.4 		"/>
		<line class="st1" x1="195.6" y1="638.4" x2="201.6" y2="632.4"/>
	</g>
	<g>
		<polyline class="st1" points="303.6,632.4 315.6,632.4 309.6,626.4 		"/>
		<line class="st1" x1="309.6" y1="638.4" x2="315.6" y2="632.4"/>
	</g>
	<g>
		<line class="st1" x1="153.6" y1="626.4" x2="153.6" y2="638.4"/>
		<line class="st1" x1="147.6" y1="632.4" x2="159.6" y2="632.4"/>
	</g>
	<g>
		<line class="st1" x1="243.6" y1="638.4" x2="255.6" y2="626.4"/>
		<circle class="st1" cx="246.6" cy="629.4" r="3"/>
		<circle class="st1" cx="252.6" cy="635.4" r="3"/>
	</g>
	<rect x="21.6" y="620.4" class="st2" width="18" height="18"/>
	<rect x="117.6" y="620.4" class="st2" width="18" height="18"/>
	<rect x="213.6" y="620.4" class="st2" width="18" height="18"/>
	<rect x="327.6" y="620.4" class="st2" width="18" height="18"/>
</g>
<g>
	<g>
		<g id="char-x_1_14_">
			<g>
				<path class="st1" d="M51.6,667.2l12,12"/>
				<path class="st1" d="M63.6,667.2l-12,12"/>
			</g>
		</g>
	</g>
	<g>
		<g id="char-5_1_14_">
			<path class="st1" d="M75.6,674.3c0,2.4,2,4.4,4.4,4.4s4.4-2,4.4-4.4c0-2.4-2-4.4-4.4-4.4h-4.4v-8.7h8.8"/>
		</g>
	</g>
	<g>
		<g id="char-1_1_44_">
			<path class="st1" d="M176,661.7l-4.4,2.9L176,661.7v17.5h-4.4h8.8"/>
		</g>
	</g>
	<g>
		<g id="char-1_1_43_">
			<path class="st1" d="M272,661.7l-4.4,2.9L272,661.7v17.5h-4.4h8.8"/>
		</g>
		<g id="char-6_1_29_">
			<g id="group-char-6_1_29_">
				<path class="st1" d="M280.7,674.8V666c0-2.4,2-4.4,4.4-4.4s4.4,2,4.4,4.4"/>
				<path class="st1" d="M280.7,674.8c0-2.4,2-4.4,4.4-4.4s4.4,2,4.4,4.4c0,2.4-2,4.4-4.4,4.4S280.7,677.2,280.7,674.8z"/>
			</g>
		</g>
	</g>
	<g>
		<polyline class="st1" points="93.6,673.2 105.6,673.2 99.6,667.2 		"/>
		<line class="st1" x1="99.6" y1="679.2" x2="105.6" y2="673.2"/>
	</g>
	<g>
		<polyline class="st1" points="189.6,673.2 201.6,673.2 195.6,667.2 		"/>
		<line class="st1" x1="195.6" y1="679.2" x2="201.6" y2="673.2"/>
	</g>
	<g>
		<polyline class="st1" points="303.6,673.2 315.6,673.2 309.6,667.2 		"/>
		<line class="st1" x1="309.6" y1="679.2" x2="315.6" y2="673.2"/>
	</g>
	<g>
		<line class="st1" x1="153.6" y1="667.2" x2="153.6" y2="679.2"/>
		<line class="st1" x1="147.6" y1="673.2" x2="159.6" y2="673.2"/>
	</g>
	<g>
		<line class="st1" x1="243.6" y1="679.2" x2="255.6" y2="667.2"/>
		<circle class="st1" cx="246.6" cy="670.2" r="3"/>
		<circle class="st1" cx="252.6" cy="676.2" r="3"/>
	</g>
	<rect x="21.6" y="661.2" class="st2" width="18" height="18"/>
	<rect x="117.6" y="661.2" class="st2" width="18" height="18"/>
	<rect x="213.6" y="661.2" class="st2" width="18" height="18"/>
	<rect x="327.6" y="661.2" class="st2" width="18" height="18"/>
</g>
<g>
	<g>
		<g id="char-x_1_15_">
			<g>
				<path class="st1" d="M51.6,708l12,12"/>
				<path class="st1" d="M63.6,708l-12,12"/>
			</g>
		</g>
	</g>
	<g>
		<g id="char-5_1_15_">
			<path class="st1" d="M75.6,715.1c0,2.4,2,4.4,4.4,4.4s4.4-2,4.4-4.4c0-2.4-2-4.4-4.4-4.4h-4.4V702h8.8"/>
		</g>
	</g>
	<g>
		<g id="char-1_1_47_">
			<path class="st1" d="M176,702.5l-4.4,2.9L176,702.5V720h-4.4h8.8"/>
		</g>
	</g>
	<g>
		<g id="char-1_1_46_">
			<path class="st1" d="M272,702.5l-4.4,2.9L272,702.5V720h-4.4h8.8"/>
		</g>
		<g id="char-6_1_31_">
			<g id="group-char-6_1_31_">
				<path class="st1" d="M280.7,715.6v-8.8c0-2.4,2-4.4,4.4-4.4s4.4,2,4.4,4.4"/>
				<path class="st1" d="M280.7,715.6c0-2.4,2-4.4,4.4-4.4s4.4,2,4.4,4.4c0,2.4-2,4.4-4.4,4.4S280.7,718,280.7,715.6z"/>
			</g>
		</g>
	</g>
	<g>
		<polyline class="st1" points="93.6,714 105.6,714 99.6,708 		"/>
		<line class="st1" x1="99.6" y1="720" x2="105.6" y2="714"/>
	</g>
	<g>
		<polyline class="st1" points="189.6,714 201.6,714 195.6,708 		"/>
		<line class="st1" x1="195.6" y1="720" x2="201.6" y2="714"/>
	</g>
	<g>
		<polyline class="st1" points="303.6,714 315.6,714 309.6,708 		"/>
		<line class="st1" x1="309.6" y1="720" x2="315.6" y2="714"/>
	</g>
	<g>
		<line class="st1" x1="153.6" y1="708" x2="153.6" y2="720"/>
		<line class="st1" x1="147.6" y1="714" x2="159.6" y2="714"/>
	</g>
	<g>
		<line class="st1" x1="243.6" y1="720" x2="255.6" y2="708"/>
		<circle class="st1" cx="246.6" cy="711" r="3"/>
		<circle class="st1" cx="252.6" cy="717" r="3"/>
	</g>
	<rect x="21.6" y="702" class="st2" width="18" height="18"/>
	<rect x="117.6" y="702" class="st2" width="18" height="18"/>
	<rect x="213.6" y="702" class="st2" width="18" height="18"/>
	<rect x="327.6" y="702" class="st2" width="18" height="18"/>
</g>
<g>
	<g id="char-1_1_2_">
		<path class="st1" d="M30.4,134.5l-2.6,1.7L30.4,134.5V145h-2.6H33"/>
	</g>
</g>
<g id="char-0_1_2_">
	<g id="group-char-0_1_2_">
		<path class="st1" d="M28.7,94.5l3.5,8.7"/>
		<path class="st1" d="M33,101.4v-5.2c0-1.4-1.2-2.6-2.6-2.6s-2.6,1.2-2.6,2.6v5.2c0,1.4,1.2,2.6,2.6,2.6S33,102.9,33,101.4z"/>
	</g>
</g>
<g>
	<g>
		<g id="char-parenthleft_1">
			<path class="st3" d="M304.7,36c-3.9,0-7.1-3.2-7.1-7.1s3.2-7.1,7.1-7.1"/>
		</g>
		<g id="char-N_1">
			<path class="st3" d="M308.2,36V21.9l7.1,14.1V21.9"/>
		</g>
		<g id="char-o_1_2_">
			<g>
				<path class="st3" d="M318.8,32.5c0-2,1.6-3.5,3.5-3.5c2,0,3.5,1.6,3.5,3.5s-1.6,3.5-3.5,3.5C320.4,36,318.8,34.4,318.8,32.5z"/>
			</g>
		</g>
		<g id="char-i_1_2_">
			<g>
				<path class="st3" d="M331.8,27.8v-2.4"/>
				<path class="st3" d="M329.4,28.9h2.4v4.7c0,1.3,1.1,2.4,2.4,2.4s2.4-1.1,2.4-2.4"/>
			</g>
		</g>
		<g id="char-s_1">
			<g>
				<path class="st3" d="M347.1,30.7c0-1-0.8-1.8-1.8-1.8h-3.5c-1,0-1.8,0.8-1.8,1.8c0,1,0.8,1.8,1.8,1.8h3.5c1,0,1.8,0.8,1.8,1.8
					s-0.8,1.8-1.8,1.8h-3.5c-1,0-1.8-0.8-1.8-1.8"/>
			</g>
		</g>
		<g id="char-e_1_4_">
			<path class="st3" d="M356.6,35c-0.7,0.7-1.6,1-2.5,1c-2,0-3.5-1.6-3.5-3.5c0-2,1.6-3.5,3.5-3.5s3.5,1.6,3.5,3.5h-7.1"/>
		</g>
		<g id="char-parenthright_1">
			<path class="st3" d="M361.2,36c3.9,0,7.1-3.2,7.1-7.1s-3.2-7.1-7.1-7.1"/>
		</g>
	</g>
</g>
</svg>
