<?xml version="1.0" encoding="utf-8"?>
<!-- Generator: Adobe Illustrator 19.0.0, SVG Export Plug-In . SVG Version: 6.00 Build 0)  -->
<svg version="1.1" id="Layer_1" xmlns="http://www.w3.org/2000/svg" xmlns:xlink="http://www.w3.org/1999/xlink" x="0px" y="0px"
	 viewBox="0 0 792 612" style="enable-background:new 0 0 792 612;" xml:space="preserve">
<style type="text/css">
	.st0{fill:none;stroke:#010101;stroke-linecap:round;stroke-linejoin:round;stroke-miterlimit:10;}
	.st1{fill:none;stroke:#010101;stroke-width:0.25;stroke-linecap:round;stroke-miterlimit:10;}
	.st2{fill:none;stroke:#020202;stroke-width:0.25;stroke-linecap:round;stroke-linejoin:round;stroke-miterlimit:10;}
	.st3{fill:none;stroke:#010101;stroke-width:0.25;stroke-linecap:round;stroke-linejoin:round;stroke-miterlimit:10;}
</style>
<g>
	<g>
		<g id="char-O_1">
			<path class="st0" d="M42,45v-6c0-1.7-1.3-3-3-3s-3,1.3-3,3v6c0,1.7,1.3,3,3,3S42,46.7,42,45z"/>
		</g>
		<g id="char-n_1">
			<g>
				<path class="st0" d="M51,48v-3c0-1.7-1.3-3-3-3s-3,1.3-3,3v3v-6"/>
			</g>
		</g>
		<g id="char-e_1">
			<path class="st0" d="M59.1,47.1C58.5,47.7,57.8,48,57,48c-1.7,0-3-1.3-3-3s1.3-3,3-3s3,1.3,3,3h-6"/>
		</g>
		<g id="char-dash_1">
			<path class="st0" d="M64,42h4"/>
		</g>
		<g id="char-d_1">
			<g id="group-char-d_1">
				<path class="st0" d="M78,48V36"/>
				<path class="st0" d="M72,45c0-1.7,1.3-3,3-3s3,1.3,3,3s-1.3,3-3,3S72,46.7,72,45z"/>
			</g>
		</g>
		<g id="char-i_1">
			<g>
				<path class="st0" d="M83,41v-2"/>
				<path class="st0" d="M81,42h2v4c0,1.1,0.9,2,2,2s2-0.9,2-2"/>
			</g>
		</g>
		<g id="char-m_1">
			<g>
				<g>
					<path class="st0" d="M96,48v-4.5c0-0.8-0.7-1.5-1.5-1.5S93,42.7,93,43.5c0-0.8-0.7-1.5-1.5-1.5S90,42.7,90,43.5V48"/>
					<path class="st0" d="M93,43.5V45"/>
				</g>
				<path class="st0" d="M90,44v-2"/>
			</g>
		</g>
		<g id="char-e_1_1_">
			<path class="st0" d="M104.1,47.1c-0.6,0.6-1.4,0.9-2.1,0.9c-1.7,0-3-1.3-3-3s1.3-3,3-3s3,1.3,3,3h-6"/>
		</g>
		<g id="char-n_1_1_">
			<g>
				<path class="st0" d="M114,48v-3c0-1.7-1.3-3-3-3s-3,1.3-3,3v3v-6"/>
			</g>
		</g>
		<g id="char-s_1">
			<g>
				<path class="st0" d="M123,43.5c0-0.8-0.7-1.5-1.5-1.5h-3c-0.8,0-1.5,0.7-1.5,1.5s0.7,1.5,1.5,1.5h3c0.8,0,1.5,0.7,1.5,1.5
					s-0.7,1.5-1.5,1.5h-3c-0.8,0-1.5-0.7-1.5-1.5"/>
			</g>
		</g>
		<g id="char-i_1_1_">
			<g>
				<path class="st0" d="M128,41v-2"/>
				<path class="st0" d="M126,42h2v4c0,1.1,0.9,2,2,2s2-0.9,2-2"/>
			</g>
		</g>
		<g id="char-o_1">
			<g>
				<path class="st0" d="M135,45c0-1.7,1.3-3,3-3s3,1.3,3,3s-1.3,3-3,3S135,46.7,135,45z"/>
			</g>
		</g>
		<g id="char-n_1_2_">
			<g>
				<path class="st0" d="M150,48v-3c0-1.7-1.3-3-3-3s-3,1.3-3,3v3v-6"/>
			</g>
		</g>
		<g id="char-a_1">
			<g id="group-char-a_1">
				<path class="st0" d="M159,45v3"/>
				<path class="st0" d="M153,45c0-1.7,1.3-3,3-3s3,1.3,3,3s-1.3,3-3,3S153,46.7,153,45z"/>
			</g>
		</g>
		<g id="char-l_1">
			<path class="st0" d="M163,36h1c0.6,0,1,0.4,1,1v10c0,0.6,0.4,1,1,1h1"/>
		</g>
	</g>
	<g>
		<g id="char-N_1">
			<path class="st0" d="M180,48V36l6,12V36"/>
		</g>
		<g id="char-o_1_1_">
			<g>
				<path class="st0" d="M189,45c0-1.7,1.3-3,3-3s3,1.3,3,3s-1.3,3-3,3S189,46.7,189,45z"/>
			</g>
		</g>
		<g id="char-i_1_2_">
			<g>
				<path class="st0" d="M200,41v-2"/>
				<path class="st0" d="M198,42h2v4c0,1.1,0.9,2,2,2s2-0.9,2-2"/>
			</g>
		</g>
		<g id="char-s_1_1_">
			<g>
				<path class="st0" d="M213,43.5c0-0.8-0.7-1.5-1.5-1.5h-3c-0.8,0-1.5,0.7-1.5,1.5s0.7,1.5,1.5,1.5h3c0.8,0,1.5,0.7,1.5,1.5
					s-0.7,1.5-1.5,1.5h-3c-0.8,0-1.5-0.7-1.5-1.5"/>
			</g>
		</g>
		<g id="char-e_1_2_">
			<path class="st0" d="M221.1,47.1c-0.6,0.6-1.4,0.9-2.1,0.9c-1.7,0-3-1.3-3-3s1.3-3,3-3s3,1.3,3,3h-6"/>
		</g>
	</g>
</g>
<polygon id="XMLID_27_" class="st1" points="51.8,432 53.4,429.3 54.9,432 "/>
<polygon id="XMLID_35_" class="st1" points="48,432 49.6,429.3 51.1,432 "/>
<polygon id="XMLID_36_" class="st1" points="49.9,428.7 51.5,426 53,428.7 "/>
<polyline id="XMLID_119_" class="st1" points="40.5,432 36,432 36,426 40.5,426 "/>
<polyline id="XMLID_34_" class="st1" points="42,432 42,426 46.5,426 "/>
<line id="XMLID_122_" class="st1" x1="46.5" y1="429" x2="42" y2="429"/>
<rect x="45" y="314.7" class="st2" width="18" height="18"/>
<rect x="90" y="314.7" class="st2" width="18" height="18"/>
<rect x="135" y="314.7" class="st2" width="18" height="18"/>
<rect x="180" y="314.7" class="st2" width="18" height="18"/>
<rect x="225" y="314.7" class="st2" width="18" height="18"/>
<rect x="270" y="314.7" class="st2" width="18" height="18"/>
<rect x="315" y="314.7" class="st2" width="18" height="18"/>
<rect x="360" y="314.7" class="st2" width="18" height="18"/>
<rect x="405" y="314.7" class="st2" width="18" height="18"/>
<rect x="450" y="314.7" class="st2" width="18" height="18"/>
<rect x="495" y="314.7" class="st2" width="18" height="18"/>
<rect x="540" y="314.7" class="st2" width="18" height="18"/>
<rect x="585" y="314.7" class="st2" width="18" height="18"/>
<rect x="630" y="314.7" class="st2" width="18" height="18"/>
<rect x="675" y="314.7" class="st2" width="18" height="18"/>
<rect x="720" y="314.7" class="st2" width="18" height="18"/>
<g>
	<g id="char-1_1">
		<path class="st0" d="M99,288l-4.4,2.9L99,288v17.7h-4.4h8.8"/>
	</g>
</g>
<g>
	<g id="char-2_1">
		<path class="st0" d="M148.4,305.7h-8.8l8.1-10.8c0.5-0.7,0.7-1.6,0.7-2.5c0-2.4-2-4.4-4.4-4.4c-2.4,0-4.4,2-4.4,4.4"/>
	</g>
</g>
<g>
	<g id="char-3_1">
		<path class="st0" d="M184.6,301.2c0,2.4,2,4.4,4.4,4.4c2.4,0,4.4-2,4.4-4.4s-2-4.4-4.4-4.4c2.4,0,4.4-2,4.4-4.4
			c0-2.4-2-4.4-4.4-4.4c-2.4,0-4.4,2-4.4,4.4"/>
	</g>
</g>
<g>
	<g id="char-4_1">
		<path class="st0" d="M236.9,305.7V288l-7.4,8.8h8.8"/>
	</g>
</g>
<g>
	<g id="char-5_1">
		<path class="st0" d="M274.6,301.2c0,2.4,2,4.4,4.4,4.4s4.4-2,4.4-4.4s-2-4.4-4.4-4.4h-4.4V288h8.8"/>
	</g>
</g>
<g>
	<g id="char-6_1">
		<g id="group-char-6_1">
			<path class="st0" d="M319.6,301.2v-8.8c0-2.4,2-4.4,4.4-4.4s4.4,2,4.4,4.4"/>
			<path class="st0" d="M319.6,301.2c0-2.4,2-4.4,4.4-4.4c2.4,0,4.4,2,4.4,4.4s-2,4.4-4.4,4.4C321.6,305.7,319.6,303.7,319.6,301.2z
				"/>
		</g>
	</g>
</g>
<g>
	<g id="char-7_1">
		<g id="group-char-7_1">
			<path class="st0" d="M366.1,296.8h5.9"/>
			<path class="st0" d="M373.4,288l-8.8,17.7"/>
			<path class="st0" d="M364.6,288h8.8"/>
		</g>
	</g>
</g>
<g>
	<g id="char-8_1">
		<g id="group-char-8_1">
			<path class="st0" d="M409.6,301.2c0-2.4,2-4.4,4.4-4.4s4.4,2,4.4,4.4s-2,4.4-4.4,4.4S409.6,303.7,409.6,301.2z"/>
			<path class="st0" d="M409.6,292.4c0-2.4,2-4.4,4.4-4.4s4.4,2,4.4,4.4c0,2.4-2,4.4-4.4,4.4S409.6,294.9,409.6,292.4z"/>
		</g>
	</g>
</g>
<g>
	<g id="char-9_1">
		<g id="group-char-9_1">
			<path class="st0" d="M463.4,292.4v13.2"/>
			<path class="st0" d="M454.6,292.4c0-2.4,2-4.4,4.4-4.4s4.4,2,4.4,4.4c0,2.4-2,4.4-4.4,4.4S454.6,294.9,454.6,292.4z"/>
		</g>
	</g>
</g>
<g>
	<g id="char-1_1_1_">
		<path class="st0" d="M497.4,288l-4.4,2.9L497.4,288v17.7H493h8.8"/>
	</g>
	<g id="char-0_1">
		<g id="group-char-0_1">
			<path class="st0" d="M507.7,289.5l5.9,14.7"/>
			<path class="st0" d="M515,301.2v-8.8c0-2.4-2-4.4-4.4-4.4c-2.4,0-4.4,2-4.4,4.4v8.8c0,2.4,2,4.4,4.4,4.4
				C513.1,305.7,515,303.7,515,301.2z"/>
		</g>
	</g>
</g>
<g>
	<g id="char-1_1_2_">
		<path class="st0" d="M542.4,288l-4.4,2.9L542.4,288v17.7H538h8.8"/>
	</g>
	<g id="char-1_1_3_">
		<path class="st0" d="M555.6,288l-4.4,2.9L555.6,288v17.7h-4.4h8.8"/>
	</g>
</g>
<g>
	<g id="char-1_1_4_">
		<path class="st0" d="M587.4,288l-4.4,2.9L587.4,288v17.7H583h8.8"/>
	</g>
	<g id="char-2_1_1_">
		<path class="st0" d="M605,305.7h-8.8l8.1-10.8c0.5-0.7,0.7-1.6,0.7-2.5c0-2.4-2-4.4-4.4-4.4s-4.4,2-4.4,4.4"/>
	</g>
</g>
<g>
	<g id="char-1_1_5_">
		<path class="st0" d="M632.4,288l-4.4,2.9L632.4,288v17.7H628h8.8"/>
	</g>
	<g id="char-3_1_1_">
		<path class="st0" d="M641.2,301.2c0,2.4,2,4.4,4.4,4.4s4.4-2,4.4-4.4s-2-4.4-4.4-4.4c2.4,0,4.4-2,4.4-4.4c0-2.4-2-4.4-4.4-4.4
			s-4.4,2-4.4,4.4"/>
	</g>
</g>
<g>
	<g id="char-1_1_6_">
		<path class="st0" d="M677.4,288l-4.4,2.9L677.4,288v17.7H673h8.8"/>
	</g>
	<g id="char-4_1_1_">
		<path class="st0" d="M693.6,305.7V288l-7.4,8.8h8.8"/>
	</g>
</g>
<g>
	<g id="char-1_1_7_">
		<path class="st0" d="M722.4,288l-4.4,2.9L722.4,288v17.7H718h8.8"/>
	</g>
	<g id="char-5_1_1_">
		<path class="st0" d="M731.2,301.2c0,2.4,2,4.4,4.4,4.4s4.4-2,4.4-4.4s-2-4.4-4.4-4.4h-4.4V288h8.8"/>
	</g>
</g>
<g>
	<g id="char-1_1_10_">
		<path class="st0" d="M42.8,251.8l-2.2,1.5L42.8,251.8v8.8h-2.2H45"/>
	</g>
</g>
<g>
	<g id="char-2_1_2_">
		<path class="st0" d="M45,242.7h-4.4l4-5.4c0.2-0.4,0.4-0.8,0.4-1.2c0-1.2-1-2.2-2.2-2.2c-1.2,0-2.2,1-2.2,2.2"/>
	</g>
</g>
<g>
	<g id="char-3_1_2_">
		<path class="st0" d="M40.6,222.5c0,1.2,1,2.2,2.2,2.2c1.2,0,2.2-1,2.2-2.2c0-1.2-1-2.2-2.2-2.2c1.2,0,2.2-1,2.2-2.2
			s-1-2.2-2.2-2.2c-1.2,0-2.2,1-2.2,2.2"/>
	</g>
</g>
<g>
	<g id="char-4_1_2_">
		<path class="st0" d="M44.3,206.7v-8.8l-3.7,4.4H45"/>
	</g>
</g>
<g>
	<g id="char-5_1_2_">
		<path class="st0" d="M40.6,186.5c0,1.2,1,2.2,2.2,2.2s2.2-1,2.2-2.2s-1-2.2-2.2-2.2h-2.2v-4.4H45"/>
	</g>
</g>
<g>
	<g id="char-6_1_2_">
		<g id="group-char-6_1_2_">
			<path class="st0" d="M40.6,168.6v-4.4c0-1.2,1-2.2,2.2-2.2s2.2,1,2.2,2.2"/>
			<path class="st0" d="M40.6,168.6c0-1.2,1-2.2,2.2-2.2c1.2,0,2.2,1,2.2,2.2c0,1.2-1,2.2-2.2,2.2C41.6,170.8,40.6,169.8,40.6,168.6
				z"/>
		</g>
	</g>
</g>
<g>
	<g id="char-7_1_1_">
		<g id="group-char-7_1_1_">
			<path class="st0" d="M41.3,148.4h2.9"/>
			<path class="st0" d="M45,143.9l-4.4,8.8"/>
			<path class="st0" d="M40.6,143.9H45"/>
		</g>
	</g>
</g>
<g>
	<g id="char-8_1_1_">
		<g id="group-char-8_1_1_">
			<path class="st0" d="M40.6,132.6c0-1.2,1-2.2,2.2-2.2c1.2,0,2.2,1,2.2,2.2c0,1.2-1,2.2-2.2,2.2C41.6,134.8,40.6,133.8,40.6,132.6
				z"/>
			<path class="st0" d="M40.6,128.2c0-1.2,1-2.2,2.2-2.2c1.2,0,2.2,1,2.2,2.2c0,1.2-1,2.2-2.2,2.2C41.6,130.4,40.6,129.4,40.6,128.2
				z"/>
		</g>
	</g>
</g>
<g>
	<g id="char-9_1_1_">
		<g id="group-char-9_1_1_">
			<path class="st0" d="M45,110.2v6.6"/>
			<path class="st0" d="M40.6,110.2c0-1.2,1-2.2,2.2-2.2c1.2,0,2.2,1,2.2,2.2c0,1.2-1,2.2-2.2,2.2C41.6,112.4,40.6,111.4,40.6,110.2
				z"/>
		</g>
	</g>
</g>
<g>
	<g id="char-1_1_9_">
		<path class="st0" d="M36.2,90L34,91.5L36.2,90v8.8H34h4.4"/>
	</g>
	<g id="char-0_1_1_">
		<g id="group-char-0_1_1_">
			<path class="st0" d="M41.3,90.7l2.9,7.4"/>
			<path class="st0" d="M45,96.6v-4.4c0-1.2-1-2.2-2.2-2.2s-2.2,1-2.2,2.2v4.4c0,1.2,1,2.2,2.2,2.2S45,97.8,45,96.6z"/>
		</g>
	</g>
</g>
<line class="st3" x1="54" y1="90" x2="54" y2="270"/>
<line class="st3" x1="54" y1="270" x2="729" y2="270"/>
<g id="char-0_1_2_">
	<g id="group-char-0_1_2_">
		<path class="st0" d="M51.1,289.5l5.9,14.7"/>
		<path class="st0" d="M58.4,301.2v-8.8c0-2.4-2-4.4-4.4-4.4s-4.4,2-4.4,4.4v8.8c0,2.4,2,4.4,4.4,4.4S58.4,303.7,58.4,301.2z"/>
	</g>
</g>
</svg>
