<?xml version="1.0" encoding="utf-8"?>
<!-- Generator: Adobe Illustrator 19.0.0, SVG Export Plug-In . SVG Version: 6.00 Build 0)  -->
<svg version="1.1" id="Layer_1" xmlns="http://www.w3.org/2000/svg" xmlns:xlink="http://www.w3.org/1999/xlink" x="0px" y="0px"
	 viewBox="90 91 792 612" style="enable-background:new 90 91 792 612;" xml:space="preserve">
<style type="text/css">
	.st0{fill:none;stroke:#010101;stroke-width:2;stroke-linecap:round;stroke-linejoin:round;stroke-miterlimit:10;}
</style>
<g>
	<g>
		<g id="char-pound_1">
			<g>
				<path class="st0" d="M-1072.6,122.8h15.1"/>
				<path class="st0" d="M-1072.6,127.8h15.1"/>
				<path class="st0" d="M-1062.5,117.7v15.1"/>
				<path class="st0" d="M-1067.6,117.7v15.1"/>
			</g>
		</g>
		<g id="char-pound_1_1_">
			<g>
				<path class="st0" d="M-1049.9,122.8h15.1"/>
				<path class="st0" d="M-1049.9,127.8h15.1"/>
				<path class="st0" d="M-1039.8,117.7v15.1"/>
				<path class="st0" d="M-1044.9,117.7v15.1"/>
			</g>
		</g>
	</g>
	<g>
		<g id="char-R_1">
			<g id="group_1">
				<path class="st0" d="M-1004.5,125.3l15.1,15.1"/>
				<path class="st0" d="M-1004.5,125.3h7.6c4.2,0,7.6-3.4,7.6-7.6c0-4.2-3.4-7.6-7.6-7.6h-7.6v30.3"/>
			</g>
		</g>
		<g id="char-a_1">
			<g id="group-char-a_1">
				<path class="st0" d="M-966.6,132.9v7.6"/>
				<path class="st0" d="M-981.8,132.9c0-4.2,3.4-7.6,7.6-7.6s7.6,3.4,7.6,7.6c0,4.2-3.4,7.6-7.6,7.6
					C-978.4,140.4-981.8,137-981.8,132.9z"/>
			</g>
		</g>
		<g id="char-n_1">
			<g>
				<path class="st0" d="M-943.9,140.4v-7.6c0-4.2-3.4-7.6-7.6-7.6s-7.6,3.4-7.6,7.6v7.6v-15.1"/>
			</g>
		</g>
		<g id="char-d_1">
			<g id="group-char-d_1">
				<path class="st0" d="M-921.2,140.4v-30.3"/>
				<path class="st0" d="M-936.4,132.9c0-4.2,3.4-7.6,7.6-7.6s7.6,3.4,7.6,7.6c0,4.2-3.4,7.6-7.6,7.6
					C-933,140.4-936.4,137-936.4,132.9z"/>
			</g>
		</g>
		<g id="char-o_1">
			<g>
				<path class="st0" d="M-913.6,132.9c0-4.2,3.4-7.6,7.6-7.6s7.6,3.4,7.6,7.6c0,4.2-3.4,7.6-7.6,7.6S-913.6,137-913.6,132.9z"/>
			</g>
		</g>
		<g id="char-m_1">
			<g>
				<g>
					<path class="st0" d="M-875.8,140.4v-11.3c0-2.1-1.7-3.8-3.8-3.8c-2.1,0-3.8,1.7-3.8,3.8c0-2.1-1.7-3.8-3.8-3.8
						s-3.8,1.7-3.8,3.8v11.4"/>
					<path class="st0" d="M-883.4,129.1v3.8"/>
				</g>
				<path class="st0" d="M-890.9,130.3v-5"/>
			</g>
		</g>
	</g>
	<g>
		<g id="char-P_1">
			<path class="st0" d="M-845.5,125.3h7.6c4.2,0,7.6-3.4,7.6-7.6c0-4.2-3.4-7.6-7.6-7.6h-7.6v30.3"/>
		</g>
		<g id="char-l_1">
			<path class="st0" d="M-820.3,110.1h2.5c1.4,0,2.5,1.1,2.5,2.5v25.2c0,1.4,1.1,2.5,2.5,2.5h2.5"/>
		</g>
		<g id="char-a_1_1_">
			<g id="group-char-a_1_1_">
				<path class="st0" d="M-784.9,132.9v7.6"/>
				<path class="st0" d="M-800.1,132.9c0-4.2,3.4-7.6,7.6-7.6s7.6,3.4,7.6,7.6c0,4.2-3.4,7.6-7.6,7.6S-800.1,137-800.1,132.9z"/>
			</g>
		</g>
		<g id="char-c_1">
			<path class="st0" d="M-764.4,127.5c-3-3-7.8-3-10.7,0c-3,3-3,7.8,0,10.7c3,3,7.8,3,10.7,0"/>
		</g>
		<g id="char-e_1">
			<path class="st0" d="M-741.7,138.2c-1.5,1.5-3.4,2.2-5.4,2.2c-4.2,0-7.6-3.4-7.6-7.6s3.4-7.6,7.6-7.6c4.2,0,7.6,3.4,7.6,7.6
				h-15.1"/>
		</g>
		<g id="char-m_1_1_">
			<g>
				<g>
					<path class="st0" d="M-716.8,140.4v-11.3c0-2.1-1.7-3.8-3.8-3.8s-3.8,1.7-3.8,3.8c0-2.1-1.7-3.8-3.8-3.8s-3.8,1.7-3.8,3.8v11.4
						"/>
					<path class="st0" d="M-724.4,129.1v3.8"/>
				</g>
				<path class="st0" d="M-731.9,130.3v-5"/>
			</g>
		</g>
		<g id="char-e_1_1_">
			<path class="st0" d="M-696.3,138.2c-1.5,1.5-3.4,2.2-5.4,2.2c-4.2,0-7.6-3.4-7.6-7.6s3.4-7.6,7.6-7.6c4.2,0,7.6,3.4,7.6,7.6
				h-15.1"/>
		</g>
		<g id="char-n_1_1_">
			<g>
				<path class="st0" d="M-671.4,140.4v-7.6c0-4.2-3.4-7.6-7.6-7.6s-7.6,3.4-7.6,7.6v7.6v-15.1"/>
			</g>
		</g>
		<g id="char-t_1">
			<g>
				<path class="st0" d="M-658.7,110.1v25.2c0,2.8,2.3,5,5,5c2.8,0,5-2.3,5-5"/>
				<path class="st0" d="M-663.8,125.3h15.1"/>
			</g>
		</g>
	</g>
</g>
<g>
	<g>
		<g id="char-pound_1_37_">
			<g>
				<path class="st0" d="M113.4,122.8h15.1"/>
				<path class="st0" d="M113.4,127.8h15.1"/>
				<path class="st0" d="M123.5,117.7v15.1"/>
				<path class="st0" d="M118.4,117.7v15.1"/>
			</g>
		</g>
		<g id="char-pound_1_36_">
			<g>
				<path class="st0" d="M136.1,122.8h15.1"/>
				<path class="st0" d="M136.1,127.8h15.1"/>
				<path class="st0" d="M146.2,117.7v15.1"/>
				<path class="st0" d="M141.1,117.7v15.1"/>
			</g>
		</g>
	</g>
	<g>
		<g id="char-R_1_5_">
			<g id="group_1_5_">
				<path class="st0" d="M181.5,125.3l15.1,15.1"/>
				<path class="st0" d="M181.5,125.3h7.6c4.2,0,7.6-3.4,7.6-7.6c0-4.2-3.4-7.6-7.6-7.6h-7.6v30.3"/>
			</g>
		</g>
		<g id="char-a_1_24_">
			<g id="group-char-a_1_24_">
				<path class="st0" d="M219.4,132.9v7.6"/>
				<path class="st0" d="M204.2,132.9c0-4.2,3.4-7.6,7.6-7.6c4.2,0,7.6,3.4,7.6,7.6c0,4.2-3.4,7.6-7.6,7.6
					C207.6,140.4,204.2,137,204.2,132.9z"/>
			</g>
		</g>
		<g id="char-n_1_24_">
			<g>
				<path class="st0" d="M242.1,140.4v-7.6c0-4.2-3.4-7.6-7.6-7.6c-4.2,0-7.6,3.4-7.6,7.6v7.6v-15.1"/>
			</g>
		</g>
		<g id="char-d_1_9_">
			<g id="group-char-d_1_9_">
				<path class="st0" d="M264.8,140.4v-30.3"/>
				<path class="st0" d="M249.6,132.9c0-4.2,3.4-7.6,7.6-7.6s7.6,3.4,7.6,7.6c0,4.2-3.4,7.6-7.6,7.6
					C253,140.4,249.6,137,249.6,132.9z"/>
			</g>
		</g>
		<g id="char-o_1_9_">
			<g>
				<path class="st0" d="M272.4,132.9c0-4.2,3.4-7.6,7.6-7.6s7.6,3.4,7.6,7.6c0,4.2-3.4,7.6-7.6,7.6S272.4,137,272.4,132.9z"/>
			</g>
		</g>
		<g id="char-m_1_22_">
			<g>
				<g>
					<path class="st0" d="M310.2,140.4v-11.3c0-2.1-1.7-3.8-3.8-3.8s-3.8,1.7-3.8,3.8c0-2.1-1.7-3.8-3.8-3.8s-3.8,1.7-3.8,3.8v11.4"
						/>
					<path class="st0" d="M302.6,129.1v3.8"/>
				</g>
				<path class="st0" d="M295.1,130.3v-5"/>
			</g>
		</g>
	</g>
	<g>
		<g id="char-P_1_14_">
			<path class="st0" d="M340.5,125.3h7.6c4.2,0,7.6-3.4,7.6-7.6c0-4.2-3.4-7.6-7.6-7.6h-7.6v30.3"/>
		</g>
		<g id="char-l_1_27_">
			<path class="st0" d="M365.7,110.1h2.5c1.4,0,2.5,1.1,2.5,2.5v25.2c0,1.4,1.1,2.5,2.5,2.5h2.5"/>
		</g>
		<g id="char-a_1_23_">
			<g id="group-char-a_1_23_">
				<path class="st0" d="M401.1,132.9v7.6"/>
				<path class="st0" d="M385.9,132.9c0-4.2,3.4-7.6,7.6-7.6s7.6,3.4,7.6,7.6c0,4.2-3.4,7.6-7.6,7.6S385.9,137,385.9,132.9z"/>
			</g>
		</g>
		<g id="char-c_1_17_">
			<path class="st0" d="M421.6,127.5c-3-3-7.8-3-10.7,0c-3,3-3,7.8,0,10.7c3,3,7.8,3,10.7,0"/>
		</g>
		<g id="char-e_1_41_">
			<path class="st0" d="M444.3,138.2c-1.5,1.5-3.4,2.2-5.4,2.2c-4.2,0-7.6-3.4-7.6-7.6s3.4-7.6,7.6-7.6s7.6,3.4,7.6,7.6h-15.1"/>
		</g>
		<g id="char-m_1_21_">
			<g>
				<g>
					<path class="st0" d="M469.2,140.4v-11.3c0-2.1-1.7-3.8-3.8-3.8c-2.1,0-3.8,1.7-3.8,3.8c0-2.1-1.7-3.8-3.8-3.8s-3.8,1.7-3.8,3.8
						v11.4"/>
					<path class="st0" d="M461.6,129.1v3.8"/>
				</g>
				<path class="st0" d="M454.1,130.3v-5"/>
			</g>
		</g>
		<g id="char-e_1_40_">
			<path class="st0" d="M489.7,138.2c-1.5,1.5-3.4,2.2-5.4,2.2c-4.2,0-7.6-3.4-7.6-7.6s3.4-7.6,7.6-7.6s7.6,3.4,7.6,7.6h-15.1"/>
		</g>
		<g id="char-n_1_23_">
			<g>
				<path class="st0" d="M514.6,140.4v-7.6c0-4.2-3.4-7.6-7.6-7.6s-7.6,3.4-7.6,7.6v7.6v-15.1"/>
			</g>
		</g>
		<g id="char-t_1_18_">
			<g>
				<path class="st0" d="M527.3,110.1v25.2c0,2.8,2.3,5,5,5c2.8,0,5-2.3,5-5"/>
				<path class="st0" d="M522.2,125.3h15.1"/>
			</g>
		</g>
	</g>
</g>
<g>
	<g>
		<g id="char-pound_1_39_">
			<g>
				<path class="st0" d="M113.4,191h15.1"/>
				<path class="st0" d="M113.4,196h15.1"/>
				<path class="st0" d="M123.5,185.9V201"/>
				<path class="st0" d="M118.4,185.9V201"/>
			</g>
		</g>
		<g id="char-pound_1_38_">
			<g>
				<path class="st0" d="M136.1,191h15.1"/>
				<path class="st0" d="M136.1,196h15.1"/>
				<path class="st0" d="M146.2,185.9V201"/>
				<path class="st0" d="M141.1,185.9V201"/>
			</g>
		</g>
	</g>
	<g>
		<g id="char-R_1_6_">
			<g id="group_1_6_">
				<path class="st0" d="M181.5,193.5l15.1,15.1"/>
				<path class="st0" d="M181.5,193.5h7.6c4.2,0,7.6-3.4,7.6-7.6c0-4.2-3.4-7.6-7.6-7.6h-7.6v30.3"/>
			</g>
		</g>
		<g id="char-a_1_26_">
			<g id="group-char-a_1_26_">
				<path class="st0" d="M219.4,201.1v7.6"/>
				<path class="st0" d="M204.2,201.1c0-4.2,3.4-7.6,7.6-7.6c4.2,0,7.6,3.4,7.6,7.6s-3.4,7.6-7.6,7.6
					C207.6,208.6,204.2,205.2,204.2,201.1z"/>
			</g>
		</g>
		<g id="char-n_1_26_">
			<g>
				<path class="st0" d="M242.1,208.6V201c0-4.2-3.4-7.6-7.6-7.6c-4.2,0-7.6,3.4-7.6,7.6v7.6v-15.1"/>
			</g>
		</g>
		<g id="char-d_1_10_">
			<g id="group-char-d_1_10_">
				<path class="st0" d="M264.8,208.6v-30.3"/>
				<path class="st0" d="M249.6,201.1c0-4.2,3.4-7.6,7.6-7.6s7.6,3.4,7.6,7.6s-3.4,7.6-7.6,7.6C253,208.6,249.6,205.2,249.6,201.1z"
					/>
			</g>
		</g>
		<g id="char-o_1_10_">
			<g>
				<path class="st0" d="M272.4,201.1c0-4.2,3.4-7.6,7.6-7.6s7.6,3.4,7.6,7.6s-3.4,7.6-7.6,7.6S272.4,205.2,272.4,201.1z"/>
			</g>
		</g>
		<g id="char-m_1_24_">
			<g>
				<g>
					<path class="st0" d="M310.2,208.6v-11.3c0-2.1-1.7-3.8-3.8-3.8s-3.8,1.7-3.8,3.8c0-2.1-1.7-3.8-3.8-3.8s-3.8,1.7-3.8,3.8v11.4"
						/>
					<path class="st0" d="M302.6,197.3v3.8"/>
				</g>
				<path class="st0" d="M295.1,198.5v-5"/>
			</g>
		</g>
	</g>
	<g>
		<g id="char-P_1_15_">
			<path class="st0" d="M340.5,193.5h7.6c4.2,0,7.6-3.4,7.6-7.6c0-4.2-3.4-7.6-7.6-7.6h-7.6v30.3"/>
		</g>
		<g id="char-l_1_28_">
			<path class="st0" d="M365.7,178.3h2.5c1.4,0,2.5,1.1,2.5,2.5V206c0,1.4,1.1,2.5,2.5,2.5h2.5"/>
		</g>
		<g id="char-a_1_25_">
			<g id="group-char-a_1_25_">
				<path class="st0" d="M401.1,201.1v7.6"/>
				<path class="st0" d="M385.9,201.1c0-4.2,3.4-7.6,7.6-7.6s7.6,3.4,7.6,7.6s-3.4,7.6-7.6,7.6S385.9,205.2,385.9,201.1z"/>
			</g>
		</g>
		<g id="char-c_1_18_">
			<path class="st0" d="M421.6,195.7c-3-3-7.8-3-10.7,0c-3,3-3,7.8,0,10.7c3,3,7.8,3,10.7,0"/>
		</g>
		<g id="char-e_1_43_">
			<path class="st0" d="M444.3,206.4c-1.5,1.5-3.4,2.2-5.4,2.2c-4.2,0-7.6-3.4-7.6-7.6c0-4.2,3.4-7.6,7.6-7.6s7.6,3.4,7.6,7.6h-15.1
				"/>
		</g>
		<g id="char-m_1_23_">
			<g>
				<g>
					<path class="st0" d="M469.2,208.6v-11.3c0-2.1-1.7-3.8-3.8-3.8c-2.1,0-3.8,1.7-3.8,3.8c0-2.1-1.7-3.8-3.8-3.8s-3.8,1.7-3.8,3.8
						v11.4"/>
					<path class="st0" d="M461.6,197.3v3.8"/>
				</g>
				<path class="st0" d="M454.1,198.5v-5"/>
			</g>
		</g>
		<g id="char-e_1_42_">
			<path class="st0" d="M489.7,206.4c-1.5,1.5-3.4,2.2-5.4,2.2c-4.2,0-7.6-3.4-7.6-7.6c0-4.2,3.4-7.6,7.6-7.6s7.6,3.4,7.6,7.6h-15.1
				"/>
		</g>
		<g id="char-n_1_25_">
			<g>
				<path class="st0" d="M514.6,208.6V201c0-4.2-3.4-7.6-7.6-7.6s-7.6,3.4-7.6,7.6v7.6v-15.1"/>
			</g>
		</g>
		<g id="char-t_1_19_">
			<g>
				<path class="st0" d="M527.3,178.3v25.2c0,2.8,2.3,5,5,5c2.8,0,5-2.3,5-5"/>
				<path class="st0" d="M522.2,193.5h15.1"/>
			</g>
		</g>
	</g>
</g>
<g>
	<g>
		<g id="char-pound_1_41_">
			<g>
				<path class="st0" d="M113.4,327.4h15.1"/>
				<path class="st0" d="M113.4,332.4h15.1"/>
				<path class="st0" d="M123.5,322.3v15.1"/>
				<path class="st0" d="M118.4,322.3v15.1"/>
			</g>
		</g>
		<g id="char-pound_1_40_">
			<g>
				<path class="st0" d="M136.1,327.4h15.1"/>
				<path class="st0" d="M136.1,332.4h15.1"/>
				<path class="st0" d="M146.2,322.3v15.1"/>
				<path class="st0" d="M141.1,322.3v15.1"/>
			</g>
		</g>
	</g>
	<g>
		<g id="char-R_1_7_">
			<g id="group_1_7_">
				<path class="st0" d="M181.5,329.9l15.1,15.1"/>
				<path class="st0" d="M181.5,329.9h7.6c4.2,0,7.6-3.4,7.6-7.6c0-4.2-3.4-7.6-7.6-7.6h-7.6V345"/>
			</g>
		</g>
		<g id="char-a_1_28_">
			<g id="group-char-a_1_28_">
				<path class="st0" d="M219.4,337.5v7.6"/>
				<path class="st0" d="M204.2,337.5c0-4.2,3.4-7.6,7.6-7.6c4.2,0,7.6,3.4,7.6,7.6c0,4.2-3.4,7.6-7.6,7.6
					C207.6,345,204.2,341.6,204.2,337.5z"/>
			</g>
		</g>
		<g id="char-n_1_28_">
			<g>
				<path class="st0" d="M242.1,345v-7.6c0-4.2-3.4-7.6-7.6-7.6c-4.2,0-7.6,3.4-7.6,7.6v7.6v-15.1"/>
			</g>
		</g>
		<g id="char-d_1_11_">
			<g id="group-char-d_1_11_">
				<path class="st0" d="M264.8,345v-30.3"/>
				<path class="st0" d="M249.6,337.5c0-4.2,3.4-7.6,7.6-7.6s7.6,3.4,7.6,7.6c0,4.2-3.4,7.6-7.6,7.6
					C253,345,249.6,341.6,249.6,337.5z"/>
			</g>
		</g>
		<g id="char-o_1_11_">
			<g>
				<path class="st0" d="M272.4,337.5c0-4.2,3.4-7.6,7.6-7.6s7.6,3.4,7.6,7.6c0,4.2-3.4,7.6-7.6,7.6S272.4,341.6,272.4,337.5z"/>
			</g>
		</g>
		<g id="char-m_1_26_">
			<g>
				<g>
					<path class="st0" d="M310.2,345v-11.3c0-2.1-1.7-3.8-3.8-3.8s-3.8,1.7-3.8,3.8c0-2.1-1.7-3.8-3.8-3.8s-3.8,1.7-3.8,3.8v11.4"/>
					<path class="st0" d="M302.6,333.7v3.8"/>
				</g>
				<path class="st0" d="M295.1,334.9v-5"/>
			</g>
		</g>
	</g>
	<g>
		<g id="char-P_1_16_">
			<path class="st0" d="M340.5,329.9h7.6c4.2,0,7.6-3.4,7.6-7.6c0-4.2-3.4-7.6-7.6-7.6h-7.6V345"/>
		</g>
		<g id="char-l_1_29_">
			<path class="st0" d="M365.7,314.7h2.5c1.4,0,2.5,1.1,2.5,2.5v25.2c0,1.4,1.1,2.5,2.5,2.5h2.5"/>
		</g>
		<g id="char-a_1_27_">
			<g id="group-char-a_1_27_">
				<path class="st0" d="M401.1,337.5v7.6"/>
				<path class="st0" d="M385.9,337.5c0-4.2,3.4-7.6,7.6-7.6s7.6,3.4,7.6,7.6c0,4.2-3.4,7.6-7.6,7.6S385.9,341.6,385.9,337.5z"/>
			</g>
		</g>
		<g id="char-c_1_19_">
			<path class="st0" d="M421.6,332.1c-3-3-7.8-3-10.7,0c-3,3-3,7.8,0,10.7c3,3,7.8,3,10.7,0"/>
		</g>
		<g id="char-e_1_45_">
			<path class="st0" d="M444.3,342.8c-1.5,1.5-3.4,2.2-5.4,2.2c-4.2,0-7.6-3.4-7.6-7.6c0-4.2,3.4-7.6,7.6-7.6s7.6,3.4,7.6,7.6h-15.1
				"/>
		</g>
		<g id="char-m_1_25_">
			<g>
				<g>
					<path class="st0" d="M469.2,345v-11.3c0-2.1-1.7-3.8-3.8-3.8c-2.1,0-3.8,1.7-3.8,3.8c0-2.1-1.7-3.8-3.8-3.8s-3.8,1.7-3.8,3.8
						v11.4"/>
					<path class="st0" d="M461.6,333.7v3.8"/>
				</g>
				<path class="st0" d="M454.1,334.9v-5"/>
			</g>
		</g>
		<g id="char-e_1_44_">
			<path class="st0" d="M489.7,342.8c-1.5,1.5-3.4,2.2-5.4,2.2c-4.2,0-7.6-3.4-7.6-7.6c0-4.2,3.4-7.6,7.6-7.6s7.6,3.4,7.6,7.6h-15.1
				"/>
		</g>
		<g id="char-n_1_27_">
			<g>
				<path class="st0" d="M514.6,345v-7.6c0-4.2-3.4-7.6-7.6-7.6s-7.6,3.4-7.6,7.6v7.6v-15.1"/>
			</g>
		</g>
		<g id="char-t_1_20_">
			<g>
				<path class="st0" d="M527.3,314.7v25.2c0,2.8,2.3,5,5,5c2.8,0,5-2.3,5-5"/>
				<path class="st0" d="M522.2,329.9h15.1"/>
			</g>
		</g>
	</g>
</g>
<g>
	<g>
		<g id="char-pound_1_2_">
			<g>
				<path class="st0" d="M-1072.6,191h15.1"/>
				<path class="st0" d="M-1072.6,196h15.1"/>
				<path class="st0" d="M-1062.5,185.9V201"/>
				<path class="st0" d="M-1067.6,185.9V201"/>
			</g>
		</g>
		<g id="char-pound_1_3_">
			<g>
				<path class="st0" d="M-1049.9,191h15.1"/>
				<path class="st0" d="M-1049.9,196h15.1"/>
				<path class="st0" d="M-1039.8,185.9V201"/>
				<path class="st0" d="M-1044.9,185.9V201"/>
			</g>
		</g>
	</g>
	<g>
		<g id="char-N_1">
			<path class="st0" d="M-1004.5,208.6v-30.3l15.1,30.3v-30.3"/>
		</g>
		<g id="char-o_1_1_">
			<g>
				<path class="st0" d="M-981.8,201c0-4.2,3.4-7.6,7.6-7.6s7.6,3.4,7.6,7.6s-3.4,7.6-7.6,7.6S-981.8,205.2-981.8,201z"/>
			</g>
		</g>
		<g id="char-i_1">
			<g>
				<path class="st0" d="M-954,191v-5"/>
				<path class="st0" d="M-959.1,193.5h5v10.1c0,2.8,2.3,5,5,5c2.8,0,5-2.3,5-5"/>
			</g>
		</g>
		<g id="char-s_1">
			<g>
				<path class="st0" d="M-921.2,197.3c0-2.1-1.7-3.8-3.8-3.8h-7.6c-2.1,0-3.8,1.7-3.8,3.8s1.7,3.8,3.8,3.8h7.6
					c2.1,0,3.8,1.7,3.8,3.8s-1.7,3.8-3.8,3.8h-7.6c-2.1,0-3.8-1.7-3.8-3.8"/>
			</g>
		</g>
		<g id="char-e_1_2_">
			<path class="st0" d="M-900.7,206.4c-1.5,1.5-3.4,2.2-5.4,2.2c-4.2,0-7.6-3.4-7.6-7.6s3.4-7.6,7.6-7.6s7.6,3.4,7.6,7.6h-15.1"/>
		</g>
	</g>
	<g>
		<g id="char-P_1_1_">
			<path class="st0" d="M-868.2,193.5h7.6c4.2,0,7.6-3.4,7.6-7.6c0-4.2-3.4-7.6-7.6-7.6h-7.6v30.3"/>
		</g>
		<g id="char-l_1_1_">
			<path class="st0" d="M-843,178.3h2.5c1.4,0,2.5,1.1,2.5,2.5V206c0,1.4,1.1,2.5,2.5,2.5h2.5"/>
		</g>
		<g id="char-a_1_2_">
			<g id="group-char-a_1_2_">
				<path class="st0" d="M-807.6,201v7.6"/>
				<path class="st0" d="M-822.8,201c0-4.2,3.4-7.6,7.6-7.6c4.2,0,7.6,3.4,7.6,7.6s-3.4,7.6-7.6,7.6
					C-819.4,208.6-822.8,205.2-822.8,201z"/>
			</g>
		</g>
		<g id="char-c_1_1_">
			<path class="st0" d="M-787.1,195.7c-3-3-7.8-3-10.7,0c-3,3-3,7.8,0,10.7c3,3,7.8,3,10.7,0"/>
		</g>
		<g id="char-e_1_3_">
			<path class="st0" d="M-764.4,206.4c-1.5,1.5-3.4,2.2-5.4,2.2c-4.2,0-7.6-3.4-7.6-7.6s3.4-7.6,7.6-7.6s7.6,3.4,7.6,7.6h-15.1"/>
		</g>
		<g id="char-m_1_2_">
			<g>
				<g>
					<path class="st0" d="M-739.5,208.6v-11.4c0-2.1-1.7-3.8-3.8-3.8c-2.1,0-3.8,1.7-3.8,3.8c0-2.1-1.7-3.8-3.8-3.8
						s-3.8,1.7-3.8,3.8v11.4"/>
					<path class="st0" d="M-747.1,197.3v3.8"/>
				</g>
				<path class="st0" d="M-754.6,198.5v-5"/>
			</g>
		</g>
		<g id="char-e_1_4_">
			<path class="st0" d="M-719,206.4c-1.5,1.5-3.4,2.2-5.4,2.2c-4.2,0-7.6-3.4-7.6-7.6s3.4-7.6,7.6-7.6c4.2,0,7.6,3.4,7.6,7.6h-15.1"
				/>
		</g>
		<g id="char-n_1_2_">
			<g>
				<path class="st0" d="M-694.1,208.6V201c0-4.2-3.4-7.6-7.6-7.6s-7.6,3.4-7.6,7.6v7.6v-15.1"/>
			</g>
		</g>
		<g id="char-t_1_1_">
			<g>
				<path class="st0" d="M-681.5,178.3v25.2c0,2.8,2.3,5,5,5s5-2.3,5-5"/>
				<path class="st0" d="M-686.5,193.5h15.1"/>
			</g>
		</g>
	</g>
</g>
<g>
	<g>
		<g id="char-pound_1_4_">
			<g>
				<path class="st0" d="M-1072.6,259.1h15.1"/>
				<path class="st0" d="M-1072.6,264.2h15.1"/>
				<path class="st0" d="M-1062.5,254.1v15.1"/>
				<path class="st0" d="M-1067.6,254.1v15.1"/>
			</g>
		</g>
		<g id="char-pound_1_5_">
			<g>
				<path class="st0" d="M-1049.9,259.1h15.1"/>
				<path class="st0" d="M-1049.9,264.2h15.1"/>
				<path class="st0" d="M-1039.8,254.1v15.1"/>
				<path class="st0" d="M-1044.9,254.1v15.1"/>
			</g>
		</g>
	</g>
	<g>
		<g id="char-G_1">
			<path class="st0" d="M-989.4,254.1c0-4.2-3.4-7.6-7.6-7.6s-7.6,3.4-7.6,7.6v15.1c0,4.2,3.4,7.6,7.6,7.6s7.6-3.4,7.6-7.6v-7.6
				h-10.1"/>
		</g>
		<g id="char-r_1">
			<g>
				<path class="st0" d="M-966.6,269.2c0-4.2-3.4-7.6-7.6-7.6s-7.6,3.4-7.6,7.6v7.6v-15.1"/>
			</g>
		</g>
		<g id="char-i_1_1_">
			<g>
				<path class="st0" d="M-954,259.1v-5"/>
				<path class="st0" d="M-959.1,261.7h5v10.1c0,2.8,2.3,5,5,5c2.8,0,5-2.3,5-5"/>
			</g>
		</g>
		<g id="char-d_1_1_">
			<g id="group-char-d_1_1_">
				<path class="st0" d="M-921.2,276.8v-30.3"/>
				<path class="st0" d="M-936.4,269.2c0-4.2,3.4-7.6,7.6-7.6s7.6,3.4,7.6,7.6s-3.4,7.6-7.6,7.6S-936.4,273.4-936.4,269.2z"/>
			</g>
		</g>
	</g>
	<g>
		<g id="char-P_1_2_">
			<path class="st0" d="M-890.9,261.7h7.6c4.2,0,7.6-3.4,7.6-7.6s-3.4-7.6-7.6-7.6h-7.6v30.3"/>
		</g>
		<g id="char-l_1_2_">
			<path class="st0" d="M-865.7,246.5h2.5c1.4,0,2.5,1.1,2.5,2.5v25.2c0,1.4,1.1,2.5,2.5,2.5h2.5"/>
		</g>
		<g id="char-a_1_3_">
			<g id="group-char-a_1_3_">
				<path class="st0" d="M-830.4,269.2v7.6"/>
				<path class="st0" d="M-845.5,269.2c0-4.2,3.4-7.6,7.6-7.6c4.2,0,7.6,3.4,7.6,7.6s-3.4,7.6-7.6,7.6
					C-842.1,276.8-845.5,273.4-845.5,269.2z"/>
			</g>
		</g>
		<g id="char-c_1_2_">
			<path class="st0" d="M-809.9,263.9c-3-3-7.8-3-10.7,0c-3,3-3,7.8,0,10.7c3,3,7.8,3,10.7,0"/>
		</g>
		<g id="char-e_1_5_">
			<path class="st0" d="M-787.1,274.6c-1.5,1.5-3.4,2.2-5.4,2.2c-4.2,0-7.6-3.4-7.6-7.6s3.4-7.6,7.6-7.6s7.6,3.4,7.6,7.6H-800"/>
		</g>
		<g id="char-m_1_3_">
			<g>
				<g>
					<path class="st0" d="M-762.2,276.8v-11.4c0-2.1-1.7-3.8-3.8-3.8s-3.8,1.7-3.8,3.8c0-2.1-1.7-3.8-3.8-3.8s-3.8,1.7-3.8,3.8v11.4
						"/>
					<path class="st0" d="M-769.8,265.4v3.8"/>
				</g>
				<path class="st0" d="M-777.4,266.7v-5"/>
			</g>
		</g>
		<g id="char-e_1_6_">
			<path class="st0" d="M-741.7,274.6c-1.5,1.5-3.4,2.2-5.4,2.2c-4.2,0-7.6-3.4-7.6-7.6s3.4-7.6,7.6-7.6c4.2,0,7.6,3.4,7.6,7.6
				h-15.1"/>
		</g>
		<g id="char-n_1_3_">
			<g>
				<path class="st0" d="M-716.8,276.8v-7.6c0-4.2-3.4-7.6-7.6-7.6c-4.2,0-7.6,3.4-7.6,7.6v7.6v-15.1"/>
			</g>
		</g>
		<g id="char-t_1_2_">
			<g>
				<path class="st0" d="M-704.2,246.5v25.2c0,2.8,2.3,5,5,5s5-2.3,5-5"/>
				<path class="st0" d="M-709.2,261.7h15.1"/>
			</g>
		</g>
	</g>
</g>
<g>
	<g>
		<g id="char-pound_1_25_">
			<g>
				<path class="st0" d="M113.4,259.1h15.1"/>
				<path class="st0" d="M113.4,264.2h15.1"/>
				<path class="st0" d="M123.5,254.1v15.1"/>
				<path class="st0" d="M118.4,254.1v15.1"/>
			</g>
		</g>
		<g id="char-pound_1_24_">
			<g>
				<path class="st0" d="M136.1,259.1h15.1"/>
				<path class="st0" d="M136.1,264.2h15.1"/>
				<path class="st0" d="M146.2,254.1v15.1"/>
				<path class="st0" d="M141.1,254.1v15.1"/>
			</g>
		</g>
	</g>
	<g>
		<g id="char-G_1_2_">
			<path class="st0" d="M196.6,254.1c0-4.2-3.4-7.6-7.6-7.6s-7.6,3.4-7.6,7.6v15.1c0,4.2,3.4,7.6,7.6,7.6s7.6-3.4,7.6-7.6v-7.6
				h-10.1"/>
		</g>
		<g id="char-r_1_2_">
			<g>
				<path class="st0" d="M219.4,269.2c0-4.2-3.4-7.6-7.6-7.6c-4.2,0-7.6,3.4-7.6,7.6v7.6v-15.1"/>
			</g>
		</g>
		<g id="char-i_1_11_">
			<g>
				<path class="st0" d="M232,259.1v-5"/>
				<path class="st0" d="M226.9,261.7h5v10.1c0,2.8,2.3,5,5,5c2.8,0,5-2.3,5-5"/>
			</g>
		</g>
		<g id="char-d_1_4_">
			<g id="group-char-d_1_4_">
				<path class="st0" d="M264.8,276.8v-30.3"/>
				<path class="st0" d="M249.6,269.2c0-4.2,3.4-7.6,7.6-7.6s7.6,3.4,7.6,7.6s-3.4,7.6-7.6,7.6S249.6,273.4,249.6,269.2z"/>
			</g>
		</g>
	</g>
	<g>
		<g id="char-P_1_8_">
			<path class="st0" d="M295.1,261.7h7.6c4.2,0,7.6-3.4,7.6-7.6c0-4.2-3.4-7.6-7.6-7.6h-7.6v30.3"/>
		</g>
		<g id="char-l_1_21_">
			<path class="st0" d="M320.3,246.5h2.5c1.4,0,2.5,1.1,2.5,2.5v25.2c0,1.4,1.1,2.5,2.5,2.5h2.5"/>
		</g>
		<g id="char-a_1_15_">
			<g id="group-char-a_1_15_">
				<path class="st0" d="M355.6,269.2v7.6"/>
				<path class="st0" d="M340.5,269.2c0-4.2,3.4-7.6,7.6-7.6s7.6,3.4,7.6,7.6s-3.4,7.6-7.6,7.6S340.5,273.4,340.5,269.2z"/>
			</g>
		</g>
		<g id="char-c_1_11_">
			<path class="st0" d="M376.1,263.9c-3-3-7.8-3-10.7,0c-3,3-3,7.8,0,10.7c3,3,7.8,3,10.7,0"/>
		</g>
		<g id="char-e_1_28_">
			<path class="st0" d="M398.9,274.6c-1.5,1.5-3.4,2.2-5.4,2.2c-4.2,0-7.6-3.4-7.6-7.6s3.4-7.6,7.6-7.6s7.6,3.4,7.6,7.6H386"/>
		</g>
		<g id="char-m_1_13_">
			<g>
				<g>
					<path class="st0" d="M423.8,276.8v-11.4c0-2.1-1.7-3.8-3.8-3.8s-3.8,1.7-3.8,3.8c0-2.1-1.7-3.8-3.8-3.8c-2.1,0-3.8,1.7-3.8,3.8
						v11.4"/>
					<path class="st0" d="M416.2,265.4v3.8"/>
				</g>
				<path class="st0" d="M408.6,266.7v-5"/>
			</g>
		</g>
		<g id="char-e_1_27_">
			<path class="st0" d="M444.3,274.6c-1.5,1.5-3.4,2.2-5.4,2.2c-4.2,0-7.6-3.4-7.6-7.6s3.4-7.6,7.6-7.6s7.6,3.4,7.6,7.6h-15.1"/>
		</g>
		<g id="char-n_1_15_">
			<g>
				<path class="st0" d="M469.2,276.8v-7.6c0-4.2-3.4-7.6-7.6-7.6s-7.6,3.4-7.6,7.6v7.6v-15.1"/>
			</g>
		</g>
		<g id="char-t_1_12_">
			<g>
				<path class="st0" d="M481.8,246.5v25.2c0,2.8,2.3,5,5,5s5-2.3,5-5"/>
				<path class="st0" d="M476.8,261.7h15.1"/>
			</g>
		</g>
	</g>
</g>
<g>
	<g>
		<g id="char-pound_1_27_">
			<g>
				<path class="st0" d="M113.4,395.5h15.1"/>
				<path class="st0" d="M113.4,400.6h15.1"/>
				<path class="st0" d="M123.5,390.5v15.1"/>
				<path class="st0" d="M118.4,390.5v15.1"/>
			</g>
		</g>
		<g id="char-pound_1_26_">
			<g>
				<path class="st0" d="M136.1,395.5h15.1"/>
				<path class="st0" d="M136.1,400.6h15.1"/>
				<path class="st0" d="M146.2,390.5v15.1"/>
				<path class="st0" d="M141.1,390.5v15.1"/>
			</g>
		</g>
	</g>
	<g>
		<g id="char-G_1_3_">
			<path class="st0" d="M196.6,390.5c0-4.2-3.4-7.6-7.6-7.6s-7.6,3.4-7.6,7.6v15.1c0,4.2,3.4,7.6,7.6,7.6s7.6-3.4,7.6-7.6V398h-10.1
				"/>
		</g>
		<g id="char-r_1_3_">
			<g>
				<path class="st0" d="M219.4,405.6c0-4.2-3.4-7.6-7.6-7.6c-4.2,0-7.6,3.4-7.6,7.6v7.6v-15.1"/>
			</g>
		</g>
		<g id="char-i_1_12_">
			<g>
				<path class="st0" d="M232,395.5v-5"/>
				<path class="st0" d="M226.9,398.1h5v10.1c0,2.8,2.3,5,5,5c2.8,0,5-2.3,5-5"/>
			</g>
		</g>
		<g id="char-d_1_5_">
			<g id="group-char-d_1_5_">
				<path class="st0" d="M264.8,413.2v-30.3"/>
				<path class="st0" d="M249.6,405.6c0-4.2,3.4-7.6,7.6-7.6s7.6,3.4,7.6,7.6s-3.4,7.6-7.6,7.6S249.6,409.8,249.6,405.6z"/>
			</g>
		</g>
	</g>
	<g>
		<g id="char-P_1_9_">
			<path class="st0" d="M295.1,398.1h7.6c4.2,0,7.6-3.4,7.6-7.6c0-4.2-3.4-7.6-7.6-7.6h-7.6v30.3"/>
		</g>
		<g id="char-l_1_22_">
			<path class="st0" d="M320.3,382.9h2.5c1.4,0,2.5,1.1,2.5,2.5v25.2c0,1.4,1.1,2.5,2.5,2.5h2.5"/>
		</g>
		<g id="char-a_1_16_">
			<g id="group-char-a_1_16_">
				<path class="st0" d="M355.6,405.6v7.6"/>
				<path class="st0" d="M340.5,405.6c0-4.2,3.4-7.6,7.6-7.6s7.6,3.4,7.6,7.6s-3.4,7.6-7.6,7.6S340.5,409.8,340.5,405.6z"/>
			</g>
		</g>
		<g id="char-c_1_12_">
			<path class="st0" d="M376.1,400.3c-3-3-7.8-3-10.7,0c-3,3-3,7.8,0,10.7c3,3,7.8,3,10.7,0"/>
		</g>
		<g id="char-e_1_30_">
			<path class="st0" d="M398.9,411c-1.5,1.5-3.4,2.2-5.4,2.2c-4.2,0-7.6-3.4-7.6-7.6s3.4-7.6,7.6-7.6s7.6,3.4,7.6,7.6H386"/>
		</g>
		<g id="char-m_1_14_">
			<g>
				<g>
					<path class="st0" d="M423.8,413.2v-11.4c0-2.1-1.7-3.8-3.8-3.8s-3.8,1.7-3.8,3.8c0-2.1-1.7-3.8-3.8-3.8c-2.1,0-3.8,1.7-3.8,3.8
						v11.4"/>
					<path class="st0" d="M416.2,401.8v3.8"/>
				</g>
				<path class="st0" d="M408.6,403.1v-5"/>
			</g>
		</g>
		<g id="char-e_1_29_">
			<path class="st0" d="M444.3,411c-1.5,1.5-3.4,2.2-5.4,2.2c-4.2,0-7.6-3.4-7.6-7.6s3.4-7.6,7.6-7.6s7.6,3.4,7.6,7.6h-15.1"/>
		</g>
		<g id="char-n_1_16_">
			<g>
				<path class="st0" d="M469.2,413.2v-7.6c0-4.2-3.4-7.6-7.6-7.6s-7.6,3.4-7.6,7.6v7.6v-15.1"/>
			</g>
		</g>
		<g id="char-t_1_13_">
			<g>
				<path class="st0" d="M481.8,382.9v25.2c0,2.8,2.3,5,5,5s5-2.3,5-5"/>
				<path class="st0" d="M476.8,398.1h15.1"/>
			</g>
		</g>
	</g>
</g>
<g>
	<g>
		<g id="char-pound_1_29_">
			<g>
				<path class="st0" d="M113.4,463.7h15.1"/>
				<path class="st0" d="M113.4,468.8h15.1"/>
				<path class="st0" d="M123.5,458.7v15.1"/>
				<path class="st0" d="M118.4,458.7v15.1"/>
			</g>
		</g>
		<g id="char-pound_1_28_">
			<g>
				<path class="st0" d="M136.1,463.7h15.1"/>
				<path class="st0" d="M136.1,468.8h15.1"/>
				<path class="st0" d="M146.2,458.7v15.1"/>
				<path class="st0" d="M141.1,458.7v15.1"/>
			</g>
		</g>
	</g>
	<g>
		<g id="char-G_1_4_">
			<path class="st0" d="M196.6,458.7c0-4.2-3.4-7.6-7.6-7.6s-7.6,3.4-7.6,7.6v15.1c0,4.2,3.4,7.6,7.6,7.6s7.6-3.4,7.6-7.6v-7.6
				h-10.1"/>
		</g>
		<g id="char-r_1_4_">
			<g>
				<path class="st0" d="M219.4,473.8c0-4.2-3.4-7.6-7.6-7.6c-4.2,0-7.6,3.4-7.6,7.6v7.6v-15.1"/>
			</g>
		</g>
		<g id="char-i_1_13_">
			<g>
				<path class="st0" d="M232,463.7v-5"/>
				<path class="st0" d="M226.9,466.3h5v10.1c0,2.8,2.3,5,5,5c2.8,0,5-2.3,5-5"/>
			</g>
		</g>
		<g id="char-d_1_6_">
			<g id="group-char-d_1_6_">
				<path class="st0" d="M264.8,481.4v-30.3"/>
				<path class="st0" d="M249.6,473.8c0-4.2,3.4-7.6,7.6-7.6s7.6,3.4,7.6,7.6s-3.4,7.6-7.6,7.6S249.6,478,249.6,473.8z"/>
			</g>
		</g>
	</g>
	<g>
		<g id="char-P_1_10_">
			<path class="st0" d="M295.1,466.3h7.6c4.2,0,7.6-3.4,7.6-7.6s-3.4-7.6-7.6-7.6h-7.6v30.3"/>
		</g>
		<g id="char-l_1_23_">
			<path class="st0" d="M320.3,451.1h2.5c1.4,0,2.5,1.1,2.5,2.5v25.2c0,1.4,1.1,2.5,2.5,2.5h2.5"/>
		</g>
		<g id="char-a_1_17_">
			<g id="group-char-a_1_17_">
				<path class="st0" d="M355.6,473.8v7.6"/>
				<path class="st0" d="M340.5,473.8c0-4.2,3.4-7.6,7.6-7.6s7.6,3.4,7.6,7.6s-3.4,7.6-7.6,7.6S340.5,478,340.5,473.8z"/>
			</g>
		</g>
		<g id="char-c_1_13_">
			<path class="st0" d="M376.1,468.5c-3-3-7.8-3-10.7,0c-3,3-3,7.8,0,10.7c3,3,7.8,3,10.7,0"/>
		</g>
		<g id="char-e_1_32_">
			<path class="st0" d="M398.9,479.2c-1.5,1.5-3.4,2.2-5.4,2.2c-4.2,0-7.6-3.4-7.6-7.6s3.4-7.6,7.6-7.6s7.6,3.4,7.6,7.6H386"/>
		</g>
		<g id="char-m_1_15_">
			<g>
				<g>
					<path class="st0" d="M423.8,481.4V470c0-2.1-1.7-3.8-3.8-3.8s-3.8,1.7-3.8,3.8c0-2.1-1.7-3.8-3.8-3.8c-2.1,0-3.8,1.7-3.8,3.8
						v11.4"/>
					<path class="st0" d="M416.2,470v3.8"/>
				</g>
				<path class="st0" d="M408.6,471.3v-5"/>
			</g>
		</g>
		<g id="char-e_1_31_">
			<path class="st0" d="M444.3,479.2c-1.5,1.5-3.4,2.2-5.4,2.2c-4.2,0-7.6-3.4-7.6-7.6s3.4-7.6,7.6-7.6s7.6,3.4,7.6,7.6h-15.1"/>
		</g>
		<g id="char-n_1_17_">
			<g>
				<path class="st0" d="M469.2,481.4v-7.6c0-4.2-3.4-7.6-7.6-7.6s-7.6,3.4-7.6,7.6v7.6v-15.1"/>
			</g>
		</g>
		<g id="char-t_1_14_">
			<g>
				<path class="st0" d="M481.8,451.1v25.2c0,2.8,2.3,5,5,5s5-2.3,5-5"/>
				<path class="st0" d="M476.8,466.3h15.1"/>
			</g>
		</g>
	</g>
</g>
<g>
	<g>
		<g id="char-pound_1_6_">
			<g>
				<path class="st0" d="M-1072.6,327.3h15.1"/>
				<path class="st0" d="M-1072.6,332.4h15.1"/>
				<path class="st0" d="M-1062.5,322.3v15.1"/>
				<path class="st0" d="M-1067.6,322.3v15.1"/>
			</g>
		</g>
		<g id="char-pound_1_7_">
			<g>
				<path class="st0" d="M-1049.9,327.3h15.1"/>
				<path class="st0" d="M-1049.9,332.4h15.1"/>
				<path class="st0" d="M-1039.8,322.3v15.1"/>
				<path class="st0" d="M-1044.9,322.3v15.1"/>
			</g>
		</g>
	</g>
	<g>
		<g id="char-C_1">
			<path class="st0" d="M-989.4,322.3c0-4.2-3.4-7.6-7.6-7.6s-7.6,3.4-7.6,7.6v15.1c0,4.2,3.4,7.6,7.6,7.6s7.6-3.4,7.6-7.6"/>
		</g>
		<g id="char-u_1">
			<g>
				<path class="st0" d="M-966.6,329.9v7.6c0,4.2-3.4,7.6-7.6,7.6s-7.6-3.4-7.6-7.6v-7.6"/>
				<path class="st0" d="M-966.6,337.4v7.6"/>
			</g>
		</g>
		<g id="char-l_1_3_">
			<path class="st0" d="M-956.5,314.7h2.5c1.4,0,2.5,1.1,2.5,2.5v25.2c0,1.4,1.1,2.5,2.5,2.5h2.5"/>
		</g>
		<g id="char-l_1_4_">
			<path class="st0" d="M-933.8,314.7h2.5c1.4,0,2.5,1.1,2.5,2.5v25.2c0,1.4,1.1,2.5,2.5,2.5h2.5"/>
		</g>
	</g>
	<g>
		<g id="char-P_1_3_">
			<path class="st0" d="M-890.9,329.9h7.6c4.2,0,7.6-3.4,7.6-7.6s-3.4-7.6-7.6-7.6h-7.6V345"/>
		</g>
		<g id="char-l_1_5_">
			<path class="st0" d="M-865.7,314.7h2.5c1.4,0,2.5,1.1,2.5,2.5v25.2c0,1.4,1.1,2.5,2.5,2.5h2.5"/>
		</g>
		<g id="char-a_1_4_">
			<g id="group-char-a_1_4_">
				<path class="st0" d="M-830.4,337.4v7.6"/>
				<path class="st0" d="M-845.5,337.4c0-4.2,3.4-7.6,7.6-7.6c4.2,0,7.6,3.4,7.6,7.6s-3.4,7.6-7.6,7.6
					C-842.1,345-845.5,341.6-845.5,337.4z"/>
			</g>
		</g>
		<g id="char-c_1_3_">
			<path class="st0" d="M-809.9,332.1c-3-3-7.8-3-10.7,0c-3,3-3,7.8,0,10.7c3,3,7.8,3,10.7,0"/>
		</g>
		<g id="char-e_1_7_">
			<path class="st0" d="M-787.1,342.8c-1.5,1.5-3.4,2.2-5.4,2.2c-4.2,0-7.6-3.4-7.6-7.6s3.4-7.6,7.6-7.6s7.6,3.4,7.6,7.6H-800"/>
		</g>
		<g id="char-m_1_4_">
			<g>
				<g>
					<path class="st0" d="M-762.2,345v-11.4c0-2.1-1.7-3.8-3.8-3.8s-3.8,1.7-3.8,3.8c0-2.1-1.7-3.8-3.8-3.8s-3.8,1.7-3.8,3.8V345"/>
					<path class="st0" d="M-769.8,333.6v3.8"/>
				</g>
				<path class="st0" d="M-777.4,334.9v-5"/>
			</g>
		</g>
		<g id="char-e_1_8_">
			<path class="st0" d="M-741.7,342.8c-1.5,1.5-3.4,2.2-5.4,2.2c-4.2,0-7.6-3.4-7.6-7.6s3.4-7.6,7.6-7.6c4.2,0,7.6,3.4,7.6,7.6
				h-15.1"/>
		</g>
		<g id="char-n_1_4_">
			<g>
				<path class="st0" d="M-716.8,345v-7.6c0-4.2-3.4-7.6-7.6-7.6c-4.2,0-7.6,3.4-7.6,7.6v7.6v-15.1"/>
			</g>
		</g>
		<g id="char-t_1_3_">
			<g>
				<path class="st0" d="M-704.2,314.7v25.2c0,2.8,2.3,5,5,5s5-2.3,5-5"/>
				<path class="st0" d="M-709.2,329.9h15.1"/>
			</g>
		</g>
	</g>
</g>
<g>
	<g>
		<g id="char-pound_1_21_">
			<g>
				<path class="st0" d="M113.4,531.8h15.1"/>
				<path class="st0" d="M113.4,536.9h15.1"/>
				<path class="st0" d="M123.5,526.8v15.1"/>
				<path class="st0" d="M118.4,526.8v15.1"/>
			</g>
		</g>
		<g id="char-pound_1_20_">
			<g>
				<path class="st0" d="M136.1,531.8h15.1"/>
				<path class="st0" d="M136.1,536.9h15.1"/>
				<path class="st0" d="M146.2,526.8v15.1"/>
				<path class="st0" d="M141.1,526.8v15.1"/>
			</g>
		</g>
	</g>
	<g>
		<g id="char-C_1_3_">
			<path class="st0" d="M196.6,526.8c0-4.2-3.4-7.6-7.6-7.6s-7.6,3.4-7.6,7.6v15.1c0,4.2,3.4,7.6,7.6,7.6s7.6-3.4,7.6-7.6"/>
		</g>
		<g id="char-u_1_3_">
			<g>
				<path class="st0" d="M219.4,534.4v7.6c0,4.2-3.4,7.6-7.6,7.6c-4.2,0-7.6-3.4-7.6-7.6v-7.6"/>
				<path class="st0" d="M219.4,541.9v7.6"/>
			</g>
		</g>
		<g id="char-l_1_19_">
			<path class="st0" d="M229.5,519.2h2.5c1.4,0,2.5,1.1,2.5,2.5v25.2c0,1.4,1.1,2.5,2.5,2.5h2.5"/>
		</g>
		<g id="char-l_1_18_">
			<path class="st0" d="M252.2,519.2h2.5c1.4,0,2.5,1.1,2.5,2.5v25.2c0,1.4,1.1,2.5,2.5,2.5h2.5"/>
		</g>
	</g>
	<g>
		<g id="char-P_1_6_">
			<path class="st0" d="M295.1,534.4h7.6c4.2,0,7.6-3.4,7.6-7.6s-3.4-7.6-7.6-7.6h-7.6v30.3"/>
		</g>
		<g id="char-l_1_17_">
			<path class="st0" d="M320.3,519.2h2.5c1.4,0,2.5,1.1,2.5,2.5v25.2c0,1.4,1.1,2.5,2.5,2.5h2.5"/>
		</g>
		<g id="char-a_1_13_">
			<g id="group-char-a_1_13_">
				<path class="st0" d="M355.6,541.9v7.6"/>
				<path class="st0" d="M340.5,541.9c0-4.2,3.4-7.6,7.6-7.6s7.6,3.4,7.6,7.6s-3.4,7.6-7.6,7.6S340.5,546.1,340.5,541.9z"/>
			</g>
		</g>
		<g id="char-c_1_9_">
			<path class="st0" d="M376.1,536.6c-3-3-7.8-3-10.7,0c-3,3-3,7.8,0,10.7c3,3,7.8,3,10.7,0"/>
		</g>
		<g id="char-e_1_24_">
			<path class="st0" d="M398.9,547.3c-1.5,1.5-3.4,2.2-5.4,2.2c-4.2,0-7.6-3.4-7.6-7.6s3.4-7.6,7.6-7.6s7.6,3.4,7.6,7.6H386"/>
		</g>
		<g id="char-m_1_11_">
			<g>
				<g>
					<path class="st0" d="M423.8,549.5v-11.4c0-2.1-1.7-3.8-3.8-3.8s-3.8,1.7-3.8,3.8c0-2.1-1.7-3.8-3.8-3.8c-2.1,0-3.8,1.7-3.8,3.8
						v11.4"/>
					<path class="st0" d="M416.2,538.1v3.8"/>
				</g>
				<path class="st0" d="M408.6,539.4v-5"/>
			</g>
		</g>
		<g id="char-e_1_23_">
			<path class="st0" d="M444.3,547.3c-1.5,1.5-3.4,2.2-5.4,2.2c-4.2,0-7.6-3.4-7.6-7.6s3.4-7.6,7.6-7.6s7.6,3.4,7.6,7.6h-15.1"/>
		</g>
		<g id="char-n_1_13_">
			<g>
				<path class="st0" d="M469.2,549.5v-7.6c0-4.2-3.4-7.6-7.6-7.6s-7.6,3.4-7.6,7.6v7.6v-15.1"/>
			</g>
		</g>
		<g id="char-t_1_10_">
			<g>
				<path class="st0" d="M481.8,519.2v25.2c0,2.8,2.3,5,5,5s5-2.3,5-5"/>
				<path class="st0" d="M476.8,534.4h15.1"/>
			</g>
		</g>
	</g>
</g>
<g>
	<g>
		<g id="char-pound_1_8_">
			<g>
				<path class="st0" d="M-1072.6,395.5h15.1"/>
				<path class="st0" d="M-1072.6,400.6h15.1"/>
				<path class="st0" d="M-1062.5,390.5v15.1"/>
				<path class="st0" d="M-1067.6,390.5v15.1"/>
			</g>
		</g>
		<g id="char-pound_1_9_">
			<g>
				<path class="st0" d="M-1049.9,395.5h15.1"/>
				<path class="st0" d="M-1049.9,400.6h15.1"/>
				<path class="st0" d="M-1039.8,390.5v15.1"/>
				<path class="st0" d="M-1044.9,390.5v15.1"/>
			</g>
		</g>
	</g>
	<g>
		<g id="char-T_1">
			<g id="group-char-T_1">
				<path class="st0" d="M-996.9,382.9v30.3"/>
				<path class="st0" d="M-989.4,382.9h-15.1"/>
			</g>
		</g>
		<g id="char-i_1_2_">
			<g>
				<path class="st0" d="M-976.7,395.5v-5"/>
				<path class="st0" d="M-981.8,398h5v10.1c0,2.8,2.3,5,5,5c2.8,0,5-2.3,5-5"/>
			</g>
		</g>
		<g id="char-l_1_6_">
			<path class="st0" d="M-956.5,382.9h2.5c1.4,0,2.5,1.1,2.5,2.5v25.2c0,1.4,1.1,2.5,2.5,2.5h2.5"/>
		</g>
		<g id="char-e_1_9_">
			<path class="st0" d="M-923.4,411c-1.5,1.5-3.4,2.2-5.4,2.2c-4.2,0-7.6-3.4-7.6-7.6s3.4-7.6,7.6-7.6s7.6,3.4,7.6,7.6h-15.1"/>
		</g>
	</g>
	<g>
		<g id="char-P_1_4_">
			<path class="st0" d="M-890.9,398h7.6c4.2,0,7.6-3.4,7.6-7.6s-3.4-7.6-7.6-7.6h-7.6v30.3"/>
		</g>
		<g id="char-l_1_7_">
			<path class="st0" d="M-865.7,382.9h2.5c1.4,0,2.5,1.1,2.5,2.5v25.2c0,1.4,1.1,2.5,2.5,2.5h2.5"/>
		</g>
		<g id="char-a_1_5_">
			<g id="group-char-a_1_5_">
				<path class="st0" d="M-830.4,405.6v7.6"/>
				<path class="st0" d="M-845.5,405.6c0-4.2,3.4-7.6,7.6-7.6c4.2,0,7.6,3.4,7.6,7.6s-3.4,7.6-7.6,7.6
					C-842.1,413.2-845.5,409.8-845.5,405.6z"/>
			</g>
		</g>
		<g id="char-c_1_4_">
			<path class="st0" d="M-809.9,400.3c-3-3-7.8-3-10.7,0c-3,3-3,7.8,0,10.7c3,3,7.8,3,10.7,0"/>
		</g>
		<g id="char-e_1_10_">
			<path class="st0" d="M-787.1,411c-1.5,1.5-3.4,2.2-5.4,2.2c-4.2,0-7.6-3.4-7.6-7.6s3.4-7.6,7.6-7.6s7.6,3.4,7.6,7.6H-800"/>
		</g>
		<g id="char-m_1_5_">
			<g>
				<g>
					<path class="st0" d="M-762.2,413.2v-11.4c0-2.1-1.7-3.8-3.8-3.8s-3.8,1.7-3.8,3.8c0-2.1-1.7-3.8-3.8-3.8s-3.8,1.7-3.8,3.8v11.4
						"/>
					<path class="st0" d="M-769.8,401.8v3.8"/>
				</g>
				<path class="st0" d="M-777.4,403.1v-5"/>
			</g>
		</g>
		<g id="char-e_1_11_">
			<path class="st0" d="M-741.7,411c-1.5,1.5-3.4,2.2-5.4,2.2c-4.2,0-7.6-3.4-7.6-7.6s3.4-7.6,7.6-7.6c4.2,0,7.6,3.4,7.6,7.6h-15.1"
				/>
		</g>
		<g id="char-n_1_5_">
			<g>
				<path class="st0" d="M-716.8,413.2v-7.6c0-4.2-3.4-7.6-7.6-7.6c-4.2,0-7.6,3.4-7.6,7.6v7.6V398"/>
			</g>
		</g>
		<g id="char-t_1_4_">
			<g>
				<path class="st0" d="M-704.2,382.9v25.2c0,2.8,2.3,5,5,5s5-2.3,5-5"/>
				<path class="st0" d="M-709.2,398h15.1"/>
			</g>
		</g>
	</g>
</g>
<g>
	<g>
		<g id="char-pound_1_10_">
			<g>
				<path class="st0" d="M-1072.6,453.6h15.1"/>
				<path class="st0" d="M-1072.6,458.7h15.1"/>
				<path class="st0" d="M-1062.5,448.6v15.1"/>
				<path class="st0" d="M-1067.6,448.6v15.1"/>
			</g>
		</g>
		<g id="char-pound_1_11_">
			<g>
				<path class="st0" d="M-1049.9,453.6h15.1"/>
				<path class="st0" d="M-1049.9,458.7h15.1"/>
				<path class="st0" d="M-1039.8,448.6v15.1"/>
				<path class="st0" d="M-1044.9,448.6v15.1"/>
			</g>
		</g>
	</g>
	<g>
		<g id="char-R_1_1_">
			<g id="group_1_1_">
				<path class="st0" d="M-1004.5,456.1l15.1,15.1"/>
				<path class="st0" d="M-1004.5,456.1h7.6c4.2,0,7.6-3.4,7.6-7.6s-3.4-7.6-7.6-7.6h-7.6v30.3"/>
			</g>
		</g>
		<g id="char-a_1_6_">
			<g id="group-char-a_1_6_">
				<path class="st0" d="M-966.6,463.7v7.6"/>
				<path class="st0" d="M-981.8,463.7c0-4.2,3.4-7.6,7.6-7.6s7.6,3.4,7.6,7.6s-3.4,7.6-7.6,7.6
					C-978.4,471.3-981.8,467.9-981.8,463.7z"/>
			</g>
		</g>
		<g id="char-n_1_6_">
			<g>
				<path class="st0" d="M-943.9,471.3v-7.6c0-4.2-3.4-7.6-7.6-7.6s-7.6,3.4-7.6,7.6v7.6v-15.1"/>
			</g>
		</g>
		<g id="char-d_1_2_">
			<g id="group-char-d_1_2_">
				<path class="st0" d="M-921.2,471.3V441"/>
				<path class="st0" d="M-936.4,463.7c0-4.2,3.4-7.6,7.6-7.6s7.6,3.4,7.6,7.6s-3.4,7.6-7.6,7.6C-933,471.3-936.4,467.9-936.4,463.7
					z"/>
			</g>
		</g>
		<g id="char-o_1_2_">
			<g>
				<path class="st0" d="M-913.6,463.7c0-4.2,3.4-7.6,7.6-7.6s7.6,3.4,7.6,7.6s-3.4,7.6-7.6,7.6S-913.6,467.9-913.6,463.7z"/>
			</g>
		</g>
		<g id="char-m_1_6_">
			<g>
				<g>
					<path class="st0" d="M-875.8,471.3v-11.4c0-2.1-1.7-3.8-3.8-3.8c-2.1,0-3.8,1.7-3.8,3.8c0-2.1-1.7-3.8-3.8-3.8
						s-3.8,1.7-3.8,3.8v11.4"/>
					<path class="st0" d="M-883.4,459.9v3.8"/>
				</g>
				<path class="st0" d="M-890.9,461.2v-5"/>
			</g>
		</g>
	</g>
	<g>
		<g id="char-D_1">
			<path class="st0" d="M-830.4,448.6c0-4.2-3.4-7.6-7.6-7.6h-7.6v30.3h7.6c4.2,0,7.6-3.4,7.6-7.6V448.6z"/>
		</g>
		<g id="char-i_1_3_">
			<g>
				<path class="st0" d="M-817.7,453.6v-5"/>
				<path class="st0" d="M-822.8,456.1h5v10.1c0,2.8,2.3,5,5,5c2.8,0,5-2.3,5-5"/>
			</g>
		</g>
		<g id="char-s_1_1_">
			<g>
				<path class="st0" d="M-784.9,459.9c0-2.1-1.7-3.8-3.8-3.8h-7.6c-2.1,0-3.8,1.7-3.8,3.8c0,2.1,1.7,3.8,3.8,3.8h7.6
					c2.1,0,3.8,1.7,3.8,3.8s-1.7,3.8-3.8,3.8h-7.6c-2.1,0-3.8-1.7-3.8-3.8"/>
			</g>
		</g>
		<g id="char-p_1">
			<g>
				<g>
					<path class="st0" d="M-777.4,463.7c0-4.2,3.4-7.6,7.6-7.6s7.6,3.4,7.6,7.6s-3.4,7.6-7.6,7.6
						C-774,471.3-777.4,467.9-777.4,463.7z"/>
				</g>
				<path class="st0" d="M-777.4,456.1v25.2"/>
			</g>
		</g>
		<g id="char-l_1_8_">
			<path class="st0" d="M-752.1,441h2.5c1.4,0,2.5,1.1,2.5,2.5v25.2c0,1.4,1.1,2.5,2.5,2.5h2.5"/>
		</g>
		<g id="char-a_1_7_">
			<g id="group-char-a_1_7_">
				<path class="st0" d="M-716.8,463.7v7.6"/>
				<path class="st0" d="M-731.9,463.7c0-4.2,3.4-7.6,7.6-7.6s7.6,3.4,7.6,7.6s-3.4,7.6-7.6,7.6
					C-728.5,471.3-731.9,467.9-731.9,463.7z"/>
			</g>
		</g>
		<g id="char-c_1_5_">
			<path class="st0" d="M-696.3,458.4c-3-3-7.8-3-10.7,0c-3,3-3,7.8,0,10.7c3,3,7.8,3,10.7,0"/>
		</g>
		<g id="char-e_1_12_">
			<path class="st0" d="M-673.6,469.1c-1.5,1.5-3.4,2.2-5.4,2.2c-4.2,0-7.6-3.4-7.6-7.6s3.4-7.6,7.6-7.6s7.6,3.4,7.6,7.6h-15.1"/>
		</g>
		<g id="char-m_1_7_">
			<g>
				<g>
					<path class="st0" d="M-648.6,471.3v-11.4c0-2.1-1.7-3.8-3.8-3.8s-3.8,1.7-3.8,3.8c0-2.1-1.7-3.8-3.8-3.8s-3.8,1.7-3.8,3.8v11.4
						"/>
					<path class="st0" d="M-656.2,459.9v3.8"/>
				</g>
				<path class="st0" d="M-663.8,461.2v-5"/>
			</g>
		</g>
		<g id="char-e_1_13_">
			<path class="st0" d="M-628.1,469.1c-1.5,1.5-3.4,2.2-5.4,2.2c-4.2,0-7.6-3.4-7.6-7.6s3.4-7.6,7.6-7.6s7.6,3.4,7.6,7.6H-641"/>
		</g>
		<g id="char-n_1_7_">
			<g>
				<path class="st0" d="M-603.2,471.3v-7.6c0-4.2-3.4-7.6-7.6-7.6c-4.2,0-7.6,3.4-7.6,7.6v7.6v-15.1"/>
			</g>
		</g>
		<g id="char-t_1_5_">
			<g>
				<path class="st0" d="M-590.6,441v25.2c0,2.8,2.3,5,5,5c2.8,0,5-2.3,5-5"/>
				<path class="st0" d="M-595.6,456.1h15.1"/>
			</g>
		</g>
	</g>
</g>
<g>
	<g>
		<g id="char-pound_1_12_">
			<g>
				<path class="st0" d="M-1072.6,521.8h15.1"/>
				<path class="st0" d="M-1072.6,526.9h15.1"/>
				<path class="st0" d="M-1062.5,516.8v15.1"/>
				<path class="st0" d="M-1067.6,516.8v15.1"/>
			</g>
		</g>
		<g id="char-pound_1_13_">
			<g>
				<path class="st0" d="M-1049.9,521.8h15.1"/>
				<path class="st0" d="M-1049.9,526.9h15.1"/>
				<path class="st0" d="M-1039.8,516.8v15.1"/>
				<path class="st0" d="M-1044.9,516.8v15.1"/>
			</g>
		</g>
	</g>
	<g>
		<g id="char-N_1_1_">
			<path class="st0" d="M-1004.5,539.5v-30.3l15.1,30.3v-30.3"/>
		</g>
		<g id="char-o_1_3_">
			<g>
				<path class="st0" d="M-981.8,531.9c0-4.2,3.4-7.6,7.6-7.6s7.6,3.4,7.6,7.6c0,4.2-3.4,7.6-7.6,7.6S-981.8,536.1-981.8,531.9z"/>
			</g>
		</g>
		<g id="char-i_1_4_">
			<g>
				<path class="st0" d="M-954,521.8v-5"/>
				<path class="st0" d="M-959.1,524.3h5v10.1c0,2.8,2.3,5,5,5c2.8,0,5-2.3,5-5"/>
			</g>
		</g>
		<g id="char-s_1_2_">
			<g>
				<path class="st0" d="M-921.2,528.1c0-2.1-1.7-3.8-3.8-3.8h-7.6c-2.1,0-3.8,1.7-3.8,3.8c0,2.1,1.7,3.8,3.8,3.8h7.6
					c2.1,0,3.8,1.7,3.8,3.8s-1.7,3.8-3.8,3.8h-7.6c-2.1,0-3.8-1.7-3.8-3.8"/>
			</g>
		</g>
		<g id="char-e_1_14_">
			<path class="st0" d="M-900.7,537.3c-1.5,1.5-3.4,2.2-5.4,2.2c-4.2,0-7.6-3.4-7.6-7.6c0-4.2,3.4-7.6,7.6-7.6s7.6,3.4,7.6,7.6
				h-15.1"/>
		</g>
	</g>
	<g>
		<g id="char-D_1_1_">
			<path class="st0" d="M-853.1,516.8c0-4.2-3.4-7.6-7.6-7.6h-7.6v30.3h7.6c4.2,0,7.6-3.4,7.6-7.6V516.8z"/>
		</g>
		<g id="char-i_1_5_">
			<g>
				<path class="st0" d="M-840.5,521.8v-5"/>
				<path class="st0" d="M-845.5,524.3h5v10.1c0,2.8,2.3,5,5,5s5-2.3,5-5"/>
			</g>
		</g>
		<g id="char-s_1_3_">
			<g>
				<path class="st0" d="M-807.6,528.1c0-2.1-1.7-3.8-3.8-3.8h-7.6c-2.1,0-3.8,1.7-3.8,3.8c0,2.1,1.7,3.8,3.8,3.8h7.6
					c2.1,0,3.8,1.7,3.8,3.8s-1.7,3.8-3.8,3.8h-7.6c-2.1,0-3.8-1.7-3.8-3.8"/>
			</g>
		</g>
		<g id="char-p_1_1_">
			<g>
				<g>
					<path class="st0" d="M-800.1,531.9c0-4.2,3.4-7.6,7.6-7.6s7.6,3.4,7.6,7.6c0,4.2-3.4,7.6-7.6,7.6S-800.1,536.1-800.1,531.9z"/>
				</g>
				<path class="st0" d="M-800.1,524.3v25.2"/>
			</g>
		</g>
		<g id="char-l_1_9_">
			<path class="st0" d="M-774.8,509.2h2.5c1.4,0,2.5,1.1,2.5,2.5V537c0,1.4,1.1,2.5,2.5,2.5h2.5"/>
		</g>
		<g id="char-a_1_8_">
			<g id="group-char-a_1_8_">
				<path class="st0" d="M-739.5,531.9v7.6"/>
				<path class="st0" d="M-754.6,531.9c0-4.2,3.4-7.6,7.6-7.6s7.6,3.4,7.6,7.6c0,4.2-3.4,7.6-7.6,7.6
					C-751.3,539.5-754.6,536.1-754.6,531.9z"/>
			</g>
		</g>
		<g id="char-c_1_6_">
			<path class="st0" d="M-719,526.6c-3-3-7.8-3-10.7,0c-3,3-3,7.8,0,10.7c3,3,7.8,3,10.7,0"/>
		</g>
		<g id="char-e_1_15_">
			<path class="st0" d="M-696.3,537.3c-1.5,1.5-3.4,2.2-5.4,2.2c-4.2,0-7.6-3.4-7.6-7.6c0-4.2,3.4-7.6,7.6-7.6
				c4.2,0,7.6,3.4,7.6,7.6h-15.1"/>
		</g>
		<g id="char-m_1_8_">
			<g>
				<g>
					<path class="st0" d="M-671.4,539.5v-11.4c0-2.1-1.7-3.8-3.8-3.8s-3.8,1.7-3.8,3.8c0-2.1-1.7-3.8-3.8-3.8
						c-2.1,0-3.8,1.7-3.8,3.8v11.4"/>
					<path class="st0" d="M-678.9,528.1v3.8"/>
				</g>
				<path class="st0" d="M-686.5,529.4v-5"/>
			</g>
		</g>
		<g id="char-e_1_16_">
			<path class="st0" d="M-650.9,537.3c-1.5,1.5-3.4,2.2-5.4,2.2c-4.2,0-7.6-3.4-7.6-7.6c0-4.2,3.4-7.6,7.6-7.6s7.6,3.4,7.6,7.6
				h-15.1"/>
		</g>
		<g id="char-n_1_8_">
			<g>
				<path class="st0" d="M-625.9,539.5v-7.6c0-4.2-3.4-7.6-7.6-7.6s-7.6,3.4-7.6,7.6v7.6v-15.1"/>
			</g>
		</g>
		<g id="char-t_1_6_">
			<g>
				<path class="st0" d="M-613.3,509.2v25.2c0,2.8,2.3,5,5,5s5-2.3,5-5"/>
				<path class="st0" d="M-618.4,524.3h15.1"/>
			</g>
		</g>
	</g>
</g>
<g>
	<g>
		<g id="char-pound_1_14_">
			<g>
				<path class="st0" d="M-1072.6,590h15.1"/>
				<path class="st0" d="M-1072.6,595h15.1"/>
				<path class="st0" d="M-1062.5,585v15.1"/>
				<path class="st0" d="M-1067.6,585v15.1"/>
			</g>
		</g>
		<g id="char-pound_1_15_">
			<g>
				<path class="st0" d="M-1049.9,590h15.1"/>
				<path class="st0" d="M-1049.9,595h15.1"/>
				<path class="st0" d="M-1039.8,585v15.1"/>
				<path class="st0" d="M-1044.9,585v15.1"/>
			</g>
		</g>
	</g>
	<g>
		<g id="char-R_1_2_">
			<g id="group_1_2_">
				<path class="st0" d="M-1004.5,592.5l15.1,15.1"/>
				<path class="st0" d="M-1004.5,592.5h7.6c4.2,0,7.6-3.4,7.6-7.6c0-4.2-3.4-7.6-7.6-7.6h-7.6v30.3"/>
			</g>
		</g>
		<g id="char-e_1_17_">
			<path class="st0" d="M-968.9,605.4c-1.5,1.5-3.4,2.2-5.4,2.2c-4.2,0-7.6-3.4-7.6-7.6c0-4.2,3.4-7.6,7.6-7.6s7.6,3.4,7.6,7.6
				h-15.1"/>
		</g>
		<g id="char-l_1_10_">
			<path class="st0" d="M-956.5,577.4h2.5c1.4,0,2.5,1.1,2.5,2.5v25.2c0,1.4,1.1,2.5,2.5,2.5h2.5"/>
		</g>
		<g id="char-a_1_9_">
			<g id="group-char-a_1_9_">
				<path class="st0" d="M-921.2,600.1v7.6"/>
				<path class="st0" d="M-936.4,600.1c0-4.2,3.4-7.6,7.6-7.6s7.6,3.4,7.6,7.6c0,4.2-3.4,7.6-7.6,7.6S-936.4,604.3-936.4,600.1z"/>
			</g>
		</g>
		<g id="char-x_1">
			<g>
				<path class="st0" d="M-913.6,592.5l15.1,15.1"/>
				<path class="st0" d="M-898.5,592.5l-15.1,15.1"/>
			</g>
		</g>
		<g id="char-a_1_10_">
			<g id="group-char-a_1_10_">
				<path class="st0" d="M-875.8,600.1v7.6"/>
				<path class="st0" d="M-890.9,600.1c0-4.2,3.4-7.6,7.6-7.6s7.6,3.4,7.6,7.6c0,4.2-3.4,7.6-7.6,7.6S-890.9,604.3-890.9,600.1z"/>
			</g>
		</g>
		<g id="char-t_1_7_">
			<g>
				<path class="st0" d="M-863.2,577.4v25.2c0,2.8,2.3,5,5,5c2.8,0,5-2.3,5-5"/>
				<path class="st0" d="M-868.2,592.5h15.1"/>
			</g>
		</g>
		<g id="char-i_1_6_">
			<g>
				<path class="st0" d="M-840.5,590v-5"/>
				<path class="st0" d="M-845.5,592.5h5v10.1c0,2.8,2.3,5,5,5s5-2.3,5-5"/>
			</g>
		</g>
		<g id="char-o_1_4_">
			<g>
				<path class="st0" d="M-822.8,600.1c0-4.2,3.4-7.6,7.6-7.6c4.2,0,7.6,3.4,7.6,7.6c0,4.2-3.4,7.6-7.6,7.6
					C-819.4,607.7-822.8,604.3-822.8,600.1z"/>
			</g>
		</g>
		<g id="char-n_1_9_">
			<g>
				<path class="st0" d="M-784.9,607.7v-7.6c0-4.2-3.4-7.6-7.6-7.6s-7.6,3.4-7.6,7.6v7.6v-15.1"/>
			</g>
		</g>
	</g>
	<g>
		<g id="char-D_1_2_">
			<path class="st0" d="M-739.5,585c0-4.2-3.4-7.6-7.6-7.6h-7.6v30.3h7.6c4.2,0,7.6-3.4,7.6-7.6V585z"/>
		</g>
		<g id="char-i_1_7_">
			<g>
				<path class="st0" d="M-726.9,590v-5"/>
				<path class="st0" d="M-731.9,592.5h5v10.1c0,2.8,2.3,5,5,5c2.8,0,5-2.3,5-5"/>
			</g>
		</g>
		<g id="char-s_1_4_">
			<g>
				<path class="st0" d="M-694.1,596.3c0-2.1-1.7-3.8-3.8-3.8h-7.6c-2.1,0-3.8,1.7-3.8,3.8c0,2.1,1.7,3.8,3.8,3.8h7.6
					c2.1,0,3.8,1.7,3.8,3.8s-1.7,3.8-3.8,3.8h-7.6c-2.1,0-3.8-1.7-3.8-3.8"/>
			</g>
		</g>
		<g id="char-p_1_2_">
			<g>
				<g>
					<path class="st0" d="M-686.5,600.1c0-4.2,3.4-7.6,7.6-7.6c4.2,0,7.6,3.4,7.6,7.6c0,4.2-3.4,7.6-7.6,7.6
						C-683.1,607.7-686.5,604.3-686.5,600.1z"/>
				</g>
				<path class="st0" d="M-686.5,592.5v25.2"/>
			</g>
		</g>
		<g id="char-l_1_11_">
			<path class="st0" d="M-661.3,577.4h2.5c1.4,0,2.5,1.1,2.5,2.5v25.2c0,1.4,1.1,2.5,2.5,2.5h2.5"/>
		</g>
		<g id="char-a_1_11_">
			<g id="group-char-a_1_11_">
				<path class="st0" d="M-625.9,600.1v7.6"/>
				<path class="st0" d="M-641.1,600.1c0-4.2,3.4-7.6,7.6-7.6s7.6,3.4,7.6,7.6c0,4.2-3.4,7.6-7.6,7.6S-641.1,604.3-641.1,600.1z"/>
			</g>
		</g>
		<g id="char-c_1_7_">
			<path class="st0" d="M-605.4,594.7c-3-3-7.8-3-10.7,0c-3,3-3,7.8,0,10.7c3,3,7.8,3,10.7,0"/>
		</g>
		<g id="char-e_1_18_">
			<path class="st0" d="M-582.7,605.4c-1.5,1.5-3.4,2.2-5.4,2.2c-4.2,0-7.6-3.4-7.6-7.6c0-4.2,3.4-7.6,7.6-7.6
				c4.2,0,7.6,3.4,7.6,7.6h-15.1"/>
		</g>
		<g id="char-m_1_9_">
			<g>
				<g>
					<path class="st0" d="M-557.8,607.7v-11.4c0-2.1-1.7-3.8-3.8-3.8s-3.8,1.7-3.8,3.8c0-2.1-1.7-3.8-3.8-3.8s-3.8,1.7-3.8,3.8v11.4
						"/>
					<path class="st0" d="M-565.4,596.3v3.8"/>
				</g>
				<path class="st0" d="M-572.9,597.6v-5"/>
			</g>
		</g>
		<g id="char-e_1_19_">
			<path class="st0" d="M-537.3,605.4c-1.5,1.5-3.4,2.2-5.4,2.2c-4.2,0-7.6-3.4-7.6-7.6c0-4.2,3.4-7.6,7.6-7.6
				c4.2,0,7.6,3.4,7.6,7.6h-15.1"/>
		</g>
		<g id="char-n_1_10_">
			<g>
				<path class="st0" d="M-512.4,607.7v-7.6c0-4.2-3.4-7.6-7.6-7.6c-4.2,0-7.6,3.4-7.6,7.6v7.6v-15.1"/>
			</g>
		</g>
		<g id="char-t_1_8_">
			<g>
				<path class="st0" d="M-499.7,577.4v25.2c0,2.8,2.3,5,5,5s5-2.3,5-5"/>
				<path class="st0" d="M-504.8,592.5h15.1"/>
			</g>
		</g>
	</g>
</g>
<g>
	<g>
		<g id="char-pound_1_49_">
			<g>
				<path class="st0" d="M113.4,590.1h15.1"/>
				<path class="st0" d="M113.4,595.1h15.1"/>
				<path class="st0" d="M123.5,585.1v15.1"/>
				<path class="st0" d="M118.4,585.1v15.1"/>
			</g>
		</g>
		<g id="char-pound_1_48_">
			<g>
				<path class="st0" d="M136.1,590.1h15.1"/>
				<path class="st0" d="M136.1,595.1h15.1"/>
				<path class="st0" d="M146.2,585.1v15.1"/>
				<path class="st0" d="M141.1,585.1v15.1"/>
			</g>
		</g>
	</g>
	<g>
		<g id="char-R_1_10_">
			<g id="group_1_10_">
				<path class="st0" d="M181.5,592.6l15.1,15.1"/>
				<path class="st0" d="M181.5,592.6h7.6c4.2,0,7.6-3.4,7.6-7.6s-3.4-7.6-7.6-7.6h-7.6v30.3"/>
			</g>
		</g>
		<g id="char-e_1_56_">
			<path class="st0" d="M217.1,605.5c-1.5,1.5-3.4,2.2-5.4,2.2c-4.2,0-7.6-3.4-7.6-7.6c0-4.2,3.4-7.6,7.6-7.6c4.2,0,7.6,3.4,7.6,7.6
				h-15.1"/>
		</g>
		<g id="char-l_1_36_">
			<path class="st0" d="M229.5,577.5h2.5c1.4,0,2.5,1.1,2.5,2.5v25.2c0,1.4,1.1,2.5,2.5,2.5h2.5"/>
		</g>
		<g id="char-a_1_37_">
			<g id="group-char-a_1_37_">
				<path class="st0" d="M264.8,600.2v7.6"/>
				<path class="st0" d="M249.6,600.2c0-4.2,3.4-7.6,7.6-7.6s7.6,3.4,7.6,7.6c0,4.2-3.4,7.6-7.6,7.6S249.6,604.4,249.6,600.2z"/>
			</g>
		</g>
		<g id="char-x_1_2_">
			<g>
				<path class="st0" d="M272.4,592.6l15.1,15.1"/>
				<path class="st0" d="M287.5,592.6l-15.1,15.1"/>
			</g>
		</g>
		<g id="char-a_1_36_">
			<g id="group-char-a_1_36_">
				<path class="st0" d="M310.2,600.2v7.6"/>
				<path class="st0" d="M295.1,600.2c0-4.2,3.4-7.6,7.6-7.6s7.6,3.4,7.6,7.6c0,4.2-3.4,7.6-7.6,7.6S295.1,604.4,295.1,600.2z"/>
			</g>
		</g>
		<g id="char-t_1_26_">
			<g>
				<path class="st0" d="M322.8,577.5v25.2c0,2.8,2.3,5,5,5c2.8,0,5-2.3,5-5"/>
				<path class="st0" d="M317.8,592.6h15.1"/>
			</g>
		</g>
		<g id="char-i_1_20_">
			<g>
				<path class="st0" d="M345.5,590.1v-5"/>
				<path class="st0" d="M340.5,592.6h5v10.1c0,2.8,2.3,5,5,5s5-2.3,5-5"/>
			</g>
		</g>
		<g id="char-o_1_14_">
			<g>
				<path class="st0" d="M363.2,600.2c0-4.2,3.4-7.6,7.6-7.6s7.6,3.4,7.6,7.6c0,4.2-3.4,7.6-7.6,7.6S363.2,604.4,363.2,600.2z"/>
			</g>
		</g>
		<g id="char-n_1_35_">
			<g>
				<path class="st0" d="M401.1,607.8v-7.6c0-4.2-3.4-7.6-7.6-7.6s-7.6,3.4-7.6,7.6v7.6v-15.1"/>
			</g>
		</g>
	</g>
	<g>
		<g id="char-D_1_5_">
			<path class="st0" d="M446.5,585.1c0-4.2-3.4-7.6-7.6-7.6h-7.6v30.3h7.6c4.2,0,7.6-3.4,7.6-7.6V585.1z"/>
		</g>
		<g id="char-i_1_19_">
			<g>
				<path class="st0" d="M459.1,590.1v-5"/>
				<path class="st0" d="M454.1,592.6h5v10.1c0,2.8,2.3,5,5,5c2.8,0,5-2.3,5-5"/>
			</g>
		</g>
		<g id="char-s_1_9_">
			<g>
				<path class="st0" d="M491.9,596.4c0-2.1-1.7-3.8-3.8-3.8h-7.6c-2.1,0-3.8,1.7-3.8,3.8c0,2.1,1.7,3.8,3.8,3.8h7.6
					c2.1,0,3.8,1.7,3.8,3.8s-1.7,3.8-3.8,3.8h-7.6c-2.1,0-3.8-1.7-3.8-3.8"/>
			</g>
		</g>
		<g id="char-p_1_5_">
			<g>
				<g>
					<path class="st0" d="M499.5,600.2c0-4.2,3.4-7.6,7.6-7.6s7.6,3.4,7.6,7.6c0,4.2-3.4,7.6-7.6,7.6S499.5,604.4,499.5,600.2z"/>
				</g>
				<path class="st0" d="M499.5,592.6v25.2"/>
			</g>
		</g>
		<g id="char-l_1_35_">
			<path class="st0" d="M524.7,577.5h2.5c1.4,0,2.5,1.1,2.5,2.5v25.2c0,1.4,1.1,2.5,2.5,2.5h2.5"/>
		</g>
		<g id="char-a_1_35_">
			<g id="group-char-a_1_35_">
				<path class="st0" d="M560.1,600.2v7.6"/>
				<path class="st0" d="M544.9,600.2c0-4.2,3.4-7.6,7.6-7.6s7.6,3.4,7.6,7.6c0,4.2-3.4,7.6-7.6,7.6S544.9,604.4,544.9,600.2z"/>
			</g>
		</g>
		<g id="char-c_1_23_">
			<path class="st0" d="M580.6,594.8c-3-3-7.8-3-10.7,0c-3,3-3,7.8,0,10.7c3,3,7.8,3,10.7,0"/>
		</g>
		<g id="char-e_1_55_">
			<path class="st0" d="M603.3,605.5c-1.5,1.5-3.4,2.2-5.4,2.2c-4.2,0-7.6-3.4-7.6-7.6c0-4.2,3.4-7.6,7.6-7.6c4.2,0,7.6,3.4,7.6,7.6
				h-15.1"/>
		</g>
		<g id="char-m_1_31_">
			<g>
				<g>
					<path class="st0" d="M628.2,607.8v-11.4c0-2.1-1.7-3.8-3.8-3.8s-3.8,1.7-3.8,3.8c0-2.1-1.7-3.8-3.8-3.8s-3.8,1.7-3.8,3.8v11.4"
						/>
					<path class="st0" d="M620.6,596.4v3.8"/>
				</g>
				<path class="st0" d="M613.1,597.7v-5"/>
			</g>
		</g>
		<g id="char-e_1_54_">
			<path class="st0" d="M648.7,605.5c-1.5,1.5-3.4,2.2-5.4,2.2c-4.2,0-7.6-3.4-7.6-7.6c0-4.2,3.4-7.6,7.6-7.6c4.2,0,7.6,3.4,7.6,7.6
				h-15.1"/>
		</g>
		<g id="char-n_1_34_">
			<g>
				<path class="st0" d="M673.6,607.8v-7.6c0-4.2-3.4-7.6-7.6-7.6c-4.2,0-7.6,3.4-7.6,7.6v7.6v-15.1"/>
			</g>
		</g>
		<g id="char-t_1_25_">
			<g>
				<path class="st0" d="M686.3,577.5v25.2c0,2.8,2.3,5,5,5s5-2.3,5-5"/>
				<path class="st0" d="M681.2,592.6h15.1"/>
			</g>
		</g>
	</g>
</g>
<g>
	<g>
		<g id="char-pound_1_16_">
			<g>
				<path class="st0" d="M-1072.6,658.2h15.1"/>
				<path class="st0" d="M-1072.6,663.2h15.1"/>
				<path class="st0" d="M-1062.5,653.1v15.1"/>
				<path class="st0" d="M-1067.6,653.1v15.1"/>
			</g>
		</g>
		<g id="char-pound_1_17_">
			<g>
				<path class="st0" d="M-1049.9,658.2h15.1"/>
				<path class="st0" d="M-1049.9,663.2h15.1"/>
				<path class="st0" d="M-1039.8,653.1v15.1"/>
				<path class="st0" d="M-1044.9,653.1v15.1"/>
			</g>
		</g>
	</g>
	<g>
		<g id="char-N_1_2_">
			<path class="st0" d="M-1004.5,675.9v-30.3l15.1,30.3v-30.3"/>
		</g>
		<g id="char-o_1_5_">
			<g>
				<path class="st0" d="M-981.8,668.3c0-4.2,3.4-7.6,7.6-7.6s7.6,3.4,7.6,7.6s-3.4,7.6-7.6,7.6
					C-978.4,675.9-981.8,672.5-981.8,668.3z"/>
			</g>
		</g>
		<g id="char-i_1_8_">
			<g>
				<path class="st0" d="M-954,658.2v-5"/>
				<path class="st0" d="M-959.1,660.7h5v10.1c0,2.8,2.3,5,5,5c2.8,0,5-2.3,5-5"/>
			</g>
		</g>
		<g id="char-s_1_5_">
			<g>
				<path class="st0" d="M-921.2,664.5c0-2.1-1.7-3.8-3.8-3.8h-7.6c-2.1,0-3.8,1.7-3.8,3.8s1.7,3.8,3.8,3.8h7.6
					c2.1,0,3.8,1.7,3.8,3.8s-1.7,3.8-3.8,3.8h-7.6c-2.1,0-3.8-1.7-3.8-3.8"/>
			</g>
		</g>
		<g id="char-e_1_20_">
			<path class="st0" d="M-900.7,673.6c-1.5,1.5-3.4,2.2-5.4,2.2c-4.2,0-7.6-3.4-7.6-7.6s3.4-7.6,7.6-7.6s7.6,3.4,7.6,7.6h-15.1"/>
		</g>
	</g>
	<g>
		<g id="char-C_1_1_">
			<path class="st0" d="M-853.1,653.1c0-4.2-3.4-7.6-7.6-7.6s-7.6,3.4-7.6,7.6v15.1c0,4.2,3.4,7.6,7.6,7.6s7.6-3.4,7.6-7.6"/>
		</g>
		<g id="char-u_1_1_">
			<g>
				<path class="st0" d="M-830.4,660.7v7.6c0,4.2-3.4,7.6-7.6,7.6s-7.6-3.4-7.6-7.6v-7.6"/>
				<path class="st0" d="M-830.4,668.3v7.6"/>
			</g>
		</g>
		<g id="char-l_1_12_">
			<path class="st0" d="M-820.3,645.6h2.5c1.4,0,2.5,1.1,2.5,2.5v25.2c0,1.4,1.1,2.5,2.5,2.5h2.5"/>
		</g>
		<g id="char-l_1_13_">
			<path class="st0" d="M-797.5,645.6h2.5c1.4,0,2.5,1.1,2.5,2.5v25.2c0,1.4,1.1,2.5,2.5,2.5h2.5"/>
		</g>
		<g id="char-i_1_9_">
			<g>
				<path class="st0" d="M-772.3,658.2v-5"/>
				<path class="st0" d="M-777.4,660.7h5v10.1c0,2.8,2.3,5,5,5c2.7,0,5-2.3,5-5"/>
			</g>
		</g>
		<g id="char-n_1_11_">
			<g>
				<path class="st0" d="M-739.5,675.9v-7.6c0-4.2-3.4-7.6-7.6-7.6c-4.2,0-7.6,3.4-7.6,7.6v7.6v-15.1"/>
			</g>
		</g>
		<g id="char-g_1">
			<g id="group-char-g_1">
				<path class="st0" d="M-716.8,668.3v10.1c0,4.2-3.4,7.6-7.6,7.6c-4.2,0-7.6-3.4-7.6-7.6"/>
				<path class="st0" d="M-731.9,668.3c0-4.2,3.4-7.6,7.6-7.6s7.6,3.4,7.6,7.6s-3.4,7.6-7.6,7.6
					C-728.5,675.9-731.9,672.5-731.9,668.3z"/>
			</g>
		</g>
	</g>
</g>
<g>
	<g>
		<g id="char-pound_1_53_">
			<g>
				<path class="st0" d="M113.4,658.2h15.1"/>
				<path class="st0" d="M113.4,663.2h15.1"/>
				<path class="st0" d="M123.5,653.1v15.1"/>
				<path class="st0" d="M118.4,653.1v15.1"/>
			</g>
		</g>
		<g id="char-pound_1_52_">
			<g>
				<path class="st0" d="M136.1,658.2h15.1"/>
				<path class="st0" d="M136.1,663.2h15.1"/>
				<path class="st0" d="M146.2,653.1v15.1"/>
				<path class="st0" d="M141.1,653.1v15.1"/>
			</g>
		</g>
	</g>
	<g>
		<g id="char-N_1_5_">
			<path class="st0" d="M181.5,675.9v-30.3l15.1,30.3v-30.3"/>
		</g>
		<g id="char-o_1_16_">
			<g>
				<path class="st0" d="M204.2,668.3c0-4.2,3.4-7.6,7.6-7.6c4.2,0,7.6,3.4,7.6,7.6s-3.4,7.6-7.6,7.6
					C207.6,675.9,204.2,672.5,204.2,668.3z"/>
			</g>
		</g>
		<g id="char-i_1_24_">
			<g>
				<path class="st0" d="M232,658.2v-5"/>
				<path class="st0" d="M226.9,660.7h5v10.1c0,2.8,2.3,5,5,5c2.8,0,5-2.3,5-5"/>
			</g>
		</g>
		<g id="char-s_1_11_">
			<g>
				<path class="st0" d="M264.8,664.5c0-2.1-1.7-3.8-3.8-3.8h-7.6c-2.1,0-3.8,1.7-3.8,3.8s1.7,3.8,3.8,3.8h7.6
					c2.1,0,3.8,1.7,3.8,3.8s-1.7,3.8-3.8,3.8h-7.6c-2.1,0-3.8-1.7-3.8-3.8"/>
			</g>
		</g>
		<g id="char-e_1_58_">
			<path class="st0" d="M285.3,673.6c-1.5,1.5-3.4,2.2-5.4,2.2c-4.2,0-7.6-3.4-7.6-7.6s3.4-7.6,7.6-7.6s7.6,3.4,7.6,7.6h-15.1"/>
		</g>
	</g>
	<g>
		<g id="char-C_1_5_">
			<path class="st0" d="M332.9,653.1c0-4.2-3.4-7.6-7.6-7.6s-7.6,3.4-7.6,7.6v15.1c0,4.2,3.4,7.6,7.6,7.6s7.6-3.4,7.6-7.6"/>
		</g>
		<g id="char-u_1_5_">
			<g>
				<path class="st0" d="M355.6,660.7v7.6c0,4.2-3.4,7.6-7.6,7.6s-7.6-3.4-7.6-7.6v-7.6"/>
				<path class="st0" d="M355.6,668.3v7.6"/>
			</g>
		</g>
		<g id="char-l_1_40_">
			<path class="st0" d="M365.7,645.6h2.5c1.4,0,2.5,1.1,2.5,2.5v25.2c0,1.4,1.1,2.5,2.5,2.5h2.5"/>
		</g>
		<g id="char-l_1_39_">
			<path class="st0" d="M388.5,645.6h2.5c1.4,0,2.5,1.1,2.5,2.5v25.2c0,1.4,1.1,2.5,2.5,2.5h2.5"/>
		</g>
		<g id="char-i_1_23_">
			<g>
				<path class="st0" d="M413.7,658.2v-5"/>
				<path class="st0" d="M408.6,660.7h5v10.1c0,2.8,2.3,5,5,5s5-2.3,5-5"/>
			</g>
		</g>
		<g id="char-n_1_37_">
			<g>
				<path class="st0" d="M446.5,675.9v-7.6c0-4.2-3.4-7.6-7.6-7.6s-7.6,3.4-7.6,7.6v7.6v-15.1"/>
			</g>
		</g>
		<g id="char-g_1_2_">
			<g id="group-char-g_1_2_">
				<path class="st0" d="M469.2,668.3v10.1c0,4.2-3.4,7.6-7.6,7.6s-7.6-3.4-7.6-7.6"/>
				<path class="st0" d="M454.1,668.3c0-4.2,3.4-7.6,7.6-7.6s7.6,3.4,7.6,7.6s-3.4,7.6-7.6,7.6C457.5,675.9,454.1,672.5,454.1,668.3
					z"/>
			</g>
		</g>
	</g>
</g>
</svg>
