<?xml version="1.0" encoding="utf-8"?>
<!-- Generator: Adobe Illustrator 19.0.0, SVG Export Plug-In . SVG Version: 6.00 Build 0)  -->
<svg version="1.1" id="Layer_1" xmlns="http://www.w3.org/2000/svg" xmlns:xlink="http://www.w3.org/1999/xlink" x="0px" y="0px"
	 viewBox="0 0 612 792" style="enable-background:new 0 0 612 792;" xml:space="preserve">
<style type="text/css">
	.st0{fill:none;stroke:#000000;stroke-width:0.25;stroke-linecap:round;stroke-miterlimit:10;}
	.st1{fill:none;stroke:#010101;stroke-linecap:round;stroke-linejoin:round;stroke-miterlimit:10;}
	.st2{fill:none;stroke:#010101;stroke-width:0.25;stroke-linecap:round;stroke-linejoin:round;stroke-miterlimit:10;}
	.st3{fill:none;stroke:#000000;stroke-linecap:round;stroke-linejoin:round;stroke-miterlimit:10;}
</style>
<polygon id="XMLID_27_" class="st0" points="39.8,774 41.4,771.3 42.9,774 "/>
<polygon id="XMLID_35_" class="st0" points="36,774 37.6,771.3 39.1,774 "/>
<polygon id="XMLID_36_" class="st0" points="37.9,770.7 39.5,768 41,770.7 "/>
<polyline id="XMLID_119_" class="st0" points="28.5,774 24,774 24,768 28.5,768 "/>
<polyline id="XMLID_34_" class="st0" points="30,774 30,768 34.5,768 "/>
<line id="XMLID_122_" class="st0" x1="34.5" y1="771" x2="30" y2="771"/>
<g>
	<g id="char-L_1">
		<path class="st1" d="M30,36h-6V24"/>
	</g>
	<g id="char-i_1">
		<g>
			<path class="st1" d="M35,29v-2"/>
			<path class="st1" d="M33,30h2v4c0,1.1,0.9,2,2,2s2-0.9,2-2"/>
		</g>
	</g>
	<g id="char-n_1">
		<g>
			<path class="st1" d="M48,36v-3c0-1.7-1.3-3-3-3s-3,1.3-3,3v3v-6"/>
		</g>
	</g>
	<g id="char-e_1">
		<path class="st1" d="M56.1,35.1C55.5,35.7,54.8,36,54,36c-1.7,0-3-1.3-3-3s1.3-3,3-3s3,1.3,3,3h-6"/>
	</g>
	<g id="char-a_1">
		<g id="group-char-a_1">
			<path class="st1" d="M66,33v3"/>
			<path class="st1" d="M60,33c0-1.7,1.3-3,3-3c1.7,0,3,1.3,3,3s-1.3,3-3,3C61.3,36,60,34.7,60,33z"/>
		</g>
	</g>
	<g id="char-r_1">
		<g>
			<path class="st1" d="M75,33c0-1.7-1.3-3-3-3s-3,1.3-3,3v3v-6"/>
		</g>
	</g>
</g>
<g>
	<g id="char-C_1">
		<path class="st1" d="M93,27c0-1.7-1.3-3-3-3s-3,1.3-3,3v6c0,1.7,1.3,3,3,3s3-1.3,3-3"/>
	</g>
	<g id="char-o_1">
		<g>
			<path class="st1" d="M96,33c0-1.7,1.3-3,3-3s3,1.3,3,3s-1.3,3-3,3S96,34.7,96,33z"/>
		</g>
	</g>
	<g id="char-n_1_1_">
		<g>
			<path class="st1" d="M111,36v-3c0-1.7-1.3-3-3-3s-3,1.3-3,3v3v-6"/>
		</g>
	</g>
	<g id="char-g_1">
		<g id="group-char-g_1">
			<path class="st1" d="M120,33v4c0,1.7-1.3,3-3,3s-3-1.3-3-3"/>
			<path class="st1" d="M114,33c0-1.7,1.3-3,3-3s3,1.3,3,3s-1.3,3-3,3S114,34.7,114,33z"/>
		</g>
	</g>
	<g id="char-r_1_1_">
		<g>
			<path class="st1" d="M129,33c0-1.7-1.3-3-3-3s-3,1.3-3,3v3v-6"/>
		</g>
	</g>
	<g id="char-u_1">
		<g>
			<path class="st1" d="M138,30v3c0,1.7-1.3,3-3,3s-3-1.3-3-3v-3"/>
			<path class="st1" d="M138,33v3"/>
		</g>
	</g>
	<g id="char-e_1_1_">
		<path class="st1" d="M146.1,35.1c-0.6,0.6-1.4,0.9-2.1,0.9c-1.7,0-3-1.3-3-3s1.3-3,3-3s3,1.3,3,3h-6"/>
	</g>
	<g id="char-n_1_2_">
		<g>
			<path class="st1" d="M156,36v-3c0-1.7-1.3-3-3-3s-3,1.3-3,3v3v-6"/>
		</g>
	</g>
	<g id="char-t_1">
		<g>
			<path class="st1" d="M161,24v10c0,1.1,0.9,2,2,2s2-0.9,2-2"/>
			<path class="st1" d="M159,30h6"/>
		</g>
	</g>
	<g id="char-i_1_1_">
		<g>
			<path class="st1" d="M170,29v-2"/>
			<path class="st1" d="M168,30h2v4c0,1.1,0.9,2,2,2s2-0.9,2-2"/>
		</g>
	</g>
	<g id="char-a_1_1_">
		<g id="group-char-a_1_1_">
			<path class="st1" d="M183,33v3"/>
			<path class="st1" d="M177,33c0-1.7,1.3-3,3-3s3,1.3,3,3s-1.3,3-3,3S177,34.7,177,33z"/>
		</g>
	</g>
	<g id="char-l_1">
		<path class="st1" d="M187,24h1c0.6,0,1,0.4,1,1v10c0,0.6,0.4,1,1,1h1"/>
	</g>
</g>
<g>
	<g id="char-G_1">
		<path class="st1" d="M210,27c0-1.7-1.3-3-3-3s-3,1.3-3,3v6c0,1.7,1.3,3,3,3s3-1.3,3-3v-3h-4"/>
	</g>
	<g id="char-e_1_2_">
		<path class="st1" d="M218.1,35.1c-0.6,0.6-1.4,0.9-2.1,0.9c-1.7,0-3-1.3-3-3s1.3-3,3-3s3,1.3,3,3h-6"/>
	</g>
	<g id="char-n_1_3_">
		<g>
			<path class="st1" d="M228,36v-3c0-1.7-1.3-3-3-3s-3,1.3-3,3v3v-6"/>
		</g>
	</g>
	<g id="char-e_1_3_">
		<path class="st1" d="M236.1,35.1c-0.6,0.6-1.4,0.9-2.1,0.9c-1.7,0-3-1.3-3-3s1.3-3,3-3s3,1.3,3,3h-6"/>
	</g>
	<g id="char-r_1_2_">
		<g>
			<path class="st1" d="M246,33c0-1.7-1.3-3-3-3s-3,1.3-3,3v3v-6"/>
		</g>
	</g>
	<g id="char-a_1_2_">
		<g id="group-char-a_1_2_">
			<path class="st1" d="M255,33v3"/>
			<path class="st1" d="M249,33c0-1.7,1.3-3,3-3s3,1.3,3,3s-1.3,3-3,3S249,34.7,249,33z"/>
		</g>
	</g>
	<g id="char-t_1_1_">
		<g>
			<path class="st1" d="M260,24v10c0,1.1,0.9,2,2,2s2-0.9,2-2"/>
			<path class="st1" d="M258,30h6"/>
		</g>
	</g>
	<g id="char-o_1_1_">
		<g>
			<path class="st1" d="M267,33c0-1.7,1.3-3,3-3s3,1.3,3,3s-1.3,3-3,3S267,34.7,267,33z"/>
		</g>
	</g>
	<g id="char-r_1_3_">
		<g>
			<path class="st1" d="M282,33c0-1.7-1.3-3-3-3s-3,1.3-3,3v3v-6"/>
		</g>
	</g>
</g>
<g>
	<g id="char-x_1">
		<g>
			<path class="st1" d="M54,108l12,12"/>
			<path class="st1" d="M66,108l-12,12"/>
		</g>
	</g>
</g>
<g>
	<g id="char-5_1">
		<path class="st1" d="M78,115.1c0,2.4,2,4.4,4.4,4.4s4.4-2,4.4-4.4s-2-4.4-4.4-4.4H78V102h8.8"/>
	</g>
</g>
<g>
	<g id="char-1_1">
		<path class="st1" d="M178.4,102.5l-4.4,2.9L178.4,102.5V120H174h8.8"/>
	</g>
</g>
<g>
	<g id="char-1_1_1_">
		<path class="st1" d="M274.4,102.5l-4.4,2.9L274.4,102.5V120H270h8.8"/>
	</g>
	<g id="char-6_1">
		<g id="group-char-6_1">
			<path class="st1" d="M283.1,115.6v-8.8c0-2.4,2-4.4,4.4-4.4s4.4,2,4.4,4.4"/>
			<path class="st1" d="M283.1,115.6c0-2.4,2-4.4,4.4-4.4s4.4,2,4.4,4.4s-2,4.4-4.4,4.4S283.1,118,283.1,115.6z"/>
		</g>
	</g>
</g>
<g>
	<polyline class="st1" points="96,114 108,114 102,108 	"/>
	<line class="st1" x1="102" y1="120" x2="108" y2="114"/>
</g>
<g>
	<polyline class="st1" points="192,114 204,114 198,108 	"/>
	<line class="st1" x1="198" y1="120" x2="204" y2="114"/>
</g>
<g>
	<polyline class="st1" points="306,114 318,114 312,108 	"/>
	<line class="st1" x1="312" y1="120" x2="318" y2="114"/>
</g>
<g>
	<line class="st1" x1="156" y1="108" x2="156" y2="120"/>
	<line class="st1" x1="150" y1="114" x2="162" y2="114"/>
</g>
<g>
	<line class="st1" x1="246" y1="120" x2="258" y2="108"/>
	<circle class="st1" cx="249" cy="111" r="3"/>
	<circle class="st1" cx="255" cy="117" r="3"/>
</g>
<g>
	<g id="char-1_1_22_">
		<path class="st1" d="M389.4,102.5l-4.4,2.9L389.4,102.5V120H385h8.8"/>
	</g>
	<g id="char-6_1_11_">
		<g id="group-char-6_1_11_">
			<path class="st1" d="M398.1,115.6v-8.8c0-2.4,2-4.4,4.4-4.4s4.4,2,4.4,4.4"/>
			<path class="st1" d="M398.1,115.6c0-2.4,2-4.4,4.4-4.4s4.4,2,4.4,4.4s-2,4.4-4.4,4.4S398.1,118,398.1,115.6z"/>
		</g>
	</g>
</g>
<g>
	<polyline class="st1" points="421,114 433,114 427,108 	"/>
	<line class="st1" x1="427" y1="120" x2="433" y2="114"/>
</g>
<g>
	<line class="st1" x1="361" y1="120" x2="373" y2="108"/>
</g>
<rect x="24" y="102" class="st2" width="18" height="18"/>
<rect x="24" y="54" class="st2" width="18" height="18"/>
<rect x="120" y="102" class="st2" width="18" height="18"/>
<rect x="216" y="102" class="st2" width="18" height="18"/>
<rect x="330" y="102" class="st2" width="18" height="18"/>
<rect x="441" y="102" class="st2" width="18" height="18"/>
<g>
	<g id="char-1_1_23_">
		<path class="st1" d="M389.4,162.5l-4.4,2.9L389.4,162.5V180H385h8.8"/>
	</g>
	<g id="char-6_1_12_">
		<g id="group-char-6_1_12_">
			<path class="st1" d="M398.1,175.6v-8.8c0-2.4,2-4.4,4.4-4.4s4.4,2,4.4,4.4"/>
			<path class="st1" d="M398.1,175.6c0-2.4,2-4.4,4.4-4.4s4.4,2,4.4,4.4c0,2.4-2,4.4-4.4,4.4S398.1,178,398.1,175.6z"/>
		</g>
	</g>
</g>
<g>
	<polyline class="st1" points="421,174 433,174 427,168 	"/>
	<line class="st1" x1="427" y1="180" x2="433" y2="174"/>
</g>
<g>
	<line class="st1" x1="361" y1="180" x2="373" y2="168"/>
</g>
<rect x="441" y="162" class="st2" width="18" height="18"/>
<g>
	<g id="char-1_1_24_">
		<path class="st1" d="M389.4,222.5l-4.4,2.9L389.4,222.5V240H385h8.8"/>
	</g>
	<g id="char-6_1_13_">
		<g id="group-char-6_1_13_">
			<path class="st1" d="M398.1,235.6v-8.8c0-2.4,2-4.4,4.4-4.4s4.4,2,4.4,4.4"/>
			<path class="st1" d="M398.1,235.6c0-2.4,2-4.4,4.4-4.4s4.4,2,4.4,4.4c0,2.4-2,4.4-4.4,4.4S398.1,238,398.1,235.6z"/>
		</g>
	</g>
</g>
<g>
	<polyline class="st1" points="421,234 433,234 427,228 	"/>
	<line class="st1" x1="427" y1="240" x2="433" y2="234"/>
</g>
<g>
	<line class="st1" x1="361" y1="240" x2="373" y2="228"/>
</g>
<rect x="441" y="222" class="st2" width="18" height="18"/>
<g>
	<g id="char-1_1_25_">
		<path class="st1" d="M389.4,282.5l-4.4,2.9L389.4,282.5V300H385h8.8"/>
	</g>
	<g id="char-6_1_14_">
		<g id="group-char-6_1_14_">
			<path class="st1" d="M398.1,295.6v-8.8c0-2.4,2-4.4,4.4-4.4s4.4,2,4.4,4.4"/>
			<path class="st1" d="M398.1,295.6c0-2.4,2-4.4,4.4-4.4s4.4,2,4.4,4.4s-2,4.4-4.4,4.4S398.1,298,398.1,295.6z"/>
		</g>
	</g>
</g>
<g>
	<polyline class="st1" points="421,294 433,294 427,288 	"/>
	<line class="st1" x1="427" y1="300" x2="433" y2="294"/>
</g>
<g>
	<line class="st1" x1="361" y1="300" x2="373" y2="288"/>
</g>
<rect x="441" y="282" class="st2" width="18" height="18"/>
<g>
	<g id="char-1_1_26_">
		<path class="st1" d="M389.4,342.5l-4.4,2.9L389.4,342.5V360H385h8.8"/>
	</g>
	<g id="char-6_1_15_">
		<g id="group-char-6_1_15_">
			<path class="st1" d="M398.1,355.6v-8.8c0-2.4,2-4.4,4.4-4.4s4.4,2,4.4,4.4"/>
			<path class="st1" d="M398.1,355.6c0-2.4,2-4.4,4.4-4.4s4.4,2,4.4,4.4s-2,4.4-4.4,4.4S398.1,358,398.1,355.6z"/>
		</g>
	</g>
</g>
<g>
	<polyline class="st1" points="421,354 433,354 427,348 	"/>
	<line class="st1" x1="427" y1="360" x2="433" y2="354"/>
</g>
<g>
	<line class="st1" x1="361" y1="360" x2="373" y2="348"/>
</g>
<rect x="441" y="342" class="st2" width="18" height="18"/>
<g>
	<g id="char-1_1_27_">
		<path class="st1" d="M389.4,402.5l-4.4,2.9L389.4,402.5V420H385h8.8"/>
	</g>
	<g id="char-6_1_16_">
		<g id="group-char-6_1_16_">
			<path class="st1" d="M398.1,415.6v-8.8c0-2.4,2-4.4,4.4-4.4s4.4,2,4.4,4.4"/>
			<path class="st1" d="M398.1,415.6c0-2.4,2-4.4,4.4-4.4s4.4,2,4.4,4.4s-2,4.4-4.4,4.4S398.1,418,398.1,415.6z"/>
		</g>
	</g>
</g>
<g>
	<polyline class="st1" points="421,414 433,414 427,408 	"/>
	<line class="st1" x1="427" y1="420" x2="433" y2="414"/>
</g>
<g>
	<line class="st1" x1="361" y1="420" x2="373" y2="408"/>
</g>
<rect x="441" y="402" class="st2" width="18" height="18"/>
<g>
	<g id="char-1_1_28_">
		<path class="st1" d="M389.4,462.5l-4.4,2.9L389.4,462.5V480H385h8.8"/>
	</g>
	<g id="char-6_1_17_">
		<g id="group-char-6_1_17_">
			<path class="st1" d="M398.1,475.6v-8.8c0-2.4,2-4.4,4.4-4.4s4.4,2,4.4,4.4"/>
			<path class="st1" d="M398.1,475.6c0-2.4,2-4.4,4.4-4.4s4.4,2,4.4,4.4s-2,4.4-4.4,4.4S398.1,478,398.1,475.6z"/>
		</g>
	</g>
</g>
<g>
	<polyline class="st1" points="421,474 433,474 427,468 	"/>
	<line class="st1" x1="427" y1="480" x2="433" y2="474"/>
</g>
<g>
	<line class="st1" x1="361" y1="480" x2="373" y2="468"/>
</g>
<rect x="441" y="462" class="st2" width="18" height="18"/>
<g>
	<g id="char-1_1_29_">
		<path class="st1" d="M389.4,522.5l-4.4,2.9L389.4,522.5V540H385h8.8"/>
	</g>
	<g id="char-6_1_18_">
		<g id="group-char-6_1_18_">
			<path class="st1" d="M398.1,535.6v-8.8c0-2.4,2-4.4,4.4-4.4s4.4,2,4.4,4.4"/>
			<path class="st1" d="M398.1,535.6c0-2.4,2-4.4,4.4-4.4s4.4,2,4.4,4.4c0,2.4-2,4.4-4.4,4.4S398.1,538,398.1,535.6z"/>
		</g>
	</g>
</g>
<g>
	<polyline class="st1" points="421,534 433,534 427,528 	"/>
	<line class="st1" x1="427" y1="540" x2="433" y2="534"/>
</g>
<g>
	<line class="st1" x1="361" y1="540" x2="373" y2="528"/>
</g>
<rect x="441" y="522" class="st2" width="18" height="18"/>
<g>
	<g id="char-1_1_30_">
		<path class="st1" d="M389.4,582.5l-4.4,2.9L389.4,582.5V600H385h8.8"/>
	</g>
	<g id="char-6_1_19_">
		<g id="group-char-6_1_19_">
			<path class="st1" d="M398.1,595.6v-8.8c0-2.4,2-4.4,4.4-4.4s4.4,2,4.4,4.4"/>
			<path class="st1" d="M398.1,595.6c0-2.4,2-4.4,4.4-4.4s4.4,2,4.4,4.4c0,2.4-2,4.4-4.4,4.4S398.1,598,398.1,595.6z"/>
		</g>
	</g>
</g>
<g>
	<polyline class="st1" points="421,594 433,594 427,588 	"/>
	<line class="st1" x1="427" y1="600" x2="433" y2="594"/>
</g>
<g>
	<line class="st1" x1="361" y1="600" x2="373" y2="588"/>
</g>
<rect x="441" y="582" class="st2" width="18" height="18"/>
<g>
	<g id="char-1_1_31_">
		<path class="st1" d="M389.4,642.5l-4.4,2.9L389.4,642.5V660H385h8.8"/>
	</g>
	<g id="char-6_1_20_">
		<g id="group-char-6_1_20_">
			<path class="st1" d="M398.1,655.6v-8.8c0-2.4,2-4.4,4.4-4.4s4.4,2,4.4,4.4"/>
			<path class="st1" d="M398.1,655.6c0-2.4,2-4.4,4.4-4.4s4.4,2,4.4,4.4c0,2.4-2,4.4-4.4,4.4S398.1,658,398.1,655.6z"/>
		</g>
	</g>
</g>
<g>
	<polyline class="st1" points="421,654 433,654 427,648 	"/>
	<line class="st1" x1="427" y1="660" x2="433" y2="654"/>
</g>
<g>
	<line class="st1" x1="361" y1="660" x2="373" y2="648"/>
</g>
<rect x="441" y="642" class="st2" width="18" height="18"/>
<g>
	<g id="char-1_1_32_">
		<path class="st1" d="M389.4,702.5l-4.4,2.9L389.4,702.5V720H385h8.8"/>
	</g>
	<g id="char-6_1_21_">
		<g id="group-char-6_1_21_">
			<path class="st1" d="M398.1,715.6v-8.8c0-2.4,2-4.4,4.4-4.4s4.4,2,4.4,4.4"/>
			<path class="st1" d="M398.1,715.6c0-2.4,2-4.4,4.4-4.4s4.4,2,4.4,4.4c0,2.4-2,4.4-4.4,4.4S398.1,718,398.1,715.6z"/>
		</g>
	</g>
</g>
<g>
	<polyline class="st1" points="421,714 433,714 427,708 	"/>
	<line class="st1" x1="427" y1="720" x2="433" y2="714"/>
</g>
<g>
	<line class="st1" x1="361" y1="720" x2="373" y2="708"/>
</g>
<rect x="441" y="702" class="st2" width="18" height="18"/>
<g>
	<polyline class="st2" points="339,126 339,138 33,138 33,150 39,144 	"/>
	<line class="st2" x1="27" y1="144" x2="33" y2="150"/>
</g>
<g>
	<g>
		<g id="char-x_1_1_">
			<g>
				<path class="st1" d="M54,168l12,12"/>
				<path class="st1" d="M66,168l-12,12"/>
			</g>
		</g>
	</g>
	<g>
		<g id="char-5_1_1_">
			<path class="st1" d="M78,175.1c0,2.4,2,4.4,4.4,4.4s4.4-2,4.4-4.4s-2-4.4-4.4-4.4H78V162h8.8"/>
		</g>
	</g>
	<g>
		<g id="char-1_1_3_">
			<path class="st1" d="M178.4,162.5l-4.4,2.9L178.4,162.5V180H174h8.8"/>
		</g>
	</g>
	<g>
		<g id="char-1_1_2_">
			<path class="st1" d="M274.4,162.5l-4.4,2.9L274.4,162.5V180H270h8.8"/>
		</g>
		<g id="char-6_1_1_">
			<g id="group-char-6_1_1_">
				<path class="st1" d="M283.1,175.6v-8.8c0-2.4,2-4.4,4.4-4.4s4.4,2,4.4,4.4"/>
				<path class="st1" d="M283.1,175.6c0-2.4,2-4.4,4.4-4.4s4.4,2,4.4,4.4s-2,4.4-4.4,4.4S283.1,178,283.1,175.6z"/>
			</g>
		</g>
	</g>
	<g>
		<polyline class="st1" points="96,174 108,174 102,168 		"/>
		<line class="st1" x1="102" y1="180" x2="108" y2="174"/>
	</g>
	<g>
		<polyline class="st1" points="192,174 204,174 198,168 		"/>
		<line class="st1" x1="198" y1="180" x2="204" y2="174"/>
	</g>
	<g>
		<polyline class="st1" points="306,174 318,174 312,168 		"/>
		<line class="st1" x1="312" y1="180" x2="318" y2="174"/>
	</g>
	<g>
		<line class="st1" x1="156" y1="168" x2="156" y2="180"/>
		<line class="st1" x1="150" y1="174" x2="162" y2="174"/>
	</g>
	<g>
		<line class="st1" x1="246" y1="180" x2="258" y2="168"/>
		<circle class="st1" cx="249" cy="171" r="3"/>
		<circle class="st1" cx="255" cy="177" r="3"/>
	</g>
	<rect x="24" y="162" class="st2" width="18" height="18"/>
	<rect x="120" y="162" class="st2" width="18" height="18"/>
	<rect x="216" y="162" class="st2" width="18" height="18"/>
	<rect x="330" y="162" class="st2" width="18" height="18"/>
	<g>
		<polyline class="st2" points="339,186 339,198 33,198 33,210 39,204 		"/>
		<line class="st2" x1="27" y1="204" x2="33" y2="210"/>
	</g>
</g>
<g>
	<g>
		<g id="char-x_1_2_">
			<g>
				<path class="st1" d="M54,228l12,12"/>
				<path class="st1" d="M66,228l-12,12"/>
			</g>
		</g>
	</g>
	<g>
		<g id="char-5_1_2_">
			<path class="st1" d="M78,235.1c0,2.4,2,4.4,4.4,4.4s4.4-2,4.4-4.4s-2-4.4-4.4-4.4H78V222h8.8"/>
		</g>
	</g>
	<g>
		<g id="char-1_1_5_">
			<path class="st1" d="M178.4,222.5l-4.4,2.9L178.4,222.5V240H174h8.8"/>
		</g>
	</g>
	<g>
		<g id="char-1_1_4_">
			<path class="st1" d="M274.4,222.5l-4.4,2.9L274.4,222.5V240H270h8.8"/>
		</g>
		<g id="char-6_1_2_">
			<g id="group-char-6_1_2_">
				<path class="st1" d="M283.1,235.6v-8.8c0-2.4,2-4.4,4.4-4.4s4.4,2,4.4,4.4"/>
				<path class="st1" d="M283.1,235.6c0-2.4,2-4.4,4.4-4.4s4.4,2,4.4,4.4s-2,4.4-4.4,4.4S283.1,238,283.1,235.6z"/>
			</g>
		</g>
	</g>
	<g>
		<polyline class="st1" points="96,234 108,234 102,228 		"/>
		<line class="st1" x1="102" y1="240" x2="108" y2="234"/>
	</g>
	<g>
		<polyline class="st1" points="192,234 204,234 198,228 		"/>
		<line class="st1" x1="198" y1="240" x2="204" y2="234"/>
	</g>
	<g>
		<polyline class="st1" points="306,234 318,234 312,228 		"/>
		<line class="st1" x1="312" y1="240" x2="318" y2="234"/>
	</g>
	<g>
		<line class="st1" x1="156" y1="228" x2="156" y2="240"/>
		<line class="st1" x1="150" y1="234" x2="162" y2="234"/>
	</g>
	<g>
		<line class="st1" x1="246" y1="240" x2="258" y2="228"/>
		<circle class="st1" cx="249" cy="231" r="3"/>
		<circle class="st1" cx="255" cy="237" r="3"/>
	</g>
	<rect x="24" y="222" class="st2" width="18" height="18"/>
	<rect x="120" y="222" class="st2" width="18" height="18"/>
	<rect x="216" y="222" class="st2" width="18" height="18"/>
	<rect x="330" y="222" class="st2" width="18" height="18"/>
	<g>
		<polyline class="st2" points="339,246 339,258 33,258 33,270 39,264 		"/>
		<line class="st2" x1="27" y1="264" x2="33" y2="270"/>
	</g>
</g>
<g>
	<g>
		<g id="char-x_1_3_">
			<g>
				<path class="st1" d="M54,288l12,12"/>
				<path class="st1" d="M66,288l-12,12"/>
			</g>
		</g>
	</g>
	<g>
		<g id="char-5_1_3_">
			<path class="st1" d="M78,295.1c0,2.4,2,4.4,4.4,4.4s4.4-2,4.4-4.4s-2-4.4-4.4-4.4H78V282h8.8"/>
		</g>
	</g>
	<g>
		<g id="char-1_1_7_">
			<path class="st1" d="M178.4,282.5l-4.4,2.9L178.4,282.5V300H174h8.8"/>
		</g>
	</g>
	<g>
		<g id="char-1_1_6_">
			<path class="st1" d="M274.4,282.5l-4.4,2.9L274.4,282.5V300H270h8.8"/>
		</g>
		<g id="char-6_1_3_">
			<g id="group-char-6_1_3_">
				<path class="st1" d="M283.1,295.6v-8.8c0-2.4,2-4.4,4.4-4.4s4.4,2,4.4,4.4"/>
				<path class="st1" d="M283.1,295.6c0-2.4,2-4.4,4.4-4.4s4.4,2,4.4,4.4s-2,4.4-4.4,4.4S283.1,298,283.1,295.6z"/>
			</g>
		</g>
	</g>
	<g>
		<polyline class="st1" points="96,294 108,294 102,288 		"/>
		<line class="st1" x1="102" y1="300" x2="108" y2="294"/>
	</g>
	<g>
		<polyline class="st1" points="192,294 204,294 198,288 		"/>
		<line class="st1" x1="198" y1="300" x2="204" y2="294"/>
	</g>
	<g>
		<polyline class="st1" points="306,294 318,294 312,288 		"/>
		<line class="st1" x1="312" y1="300" x2="318" y2="294"/>
	</g>
	<g>
		<line class="st1" x1="156" y1="288" x2="156" y2="300"/>
		<line class="st1" x1="150" y1="294" x2="162" y2="294"/>
	</g>
	<g>
		<line class="st1" x1="246" y1="300" x2="258" y2="288"/>
		<circle class="st1" cx="249" cy="291" r="3"/>
		<circle class="st1" cx="255" cy="297" r="3"/>
	</g>
	<rect x="24" y="282" class="st2" width="18" height="18"/>
	<rect x="120" y="282" class="st2" width="18" height="18"/>
	<rect x="216" y="282" class="st2" width="18" height="18"/>
	<rect x="330" y="282" class="st2" width="18" height="18"/>
	<g>
		<polyline class="st2" points="339,306 339,318 33,318 33,330 39,324 		"/>
		<line class="st2" x1="27" y1="324" x2="33" y2="330"/>
	</g>
</g>
<g>
	<g>
		<g id="char-x_1_4_">
			<g>
				<path class="st1" d="M54,348l12,12"/>
				<path class="st1" d="M66,348l-12,12"/>
			</g>
		</g>
	</g>
	<g>
		<g id="char-5_1_4_">
			<path class="st1" d="M78,355.1c0,2.4,2,4.4,4.4,4.4s4.4-2,4.4-4.4s-2-4.4-4.4-4.4H78V342h8.8"/>
		</g>
	</g>
	<g>
		<g id="char-1_1_9_">
			<path class="st1" d="M178.4,342.5l-4.4,2.9L178.4,342.5V360H174h8.8"/>
		</g>
	</g>
	<g>
		<g id="char-1_1_8_">
			<path class="st1" d="M274.4,342.5l-4.4,2.9L274.4,342.5V360H270h8.8"/>
		</g>
		<g id="char-6_1_4_">
			<g id="group-char-6_1_4_">
				<path class="st1" d="M283.1,355.6v-8.8c0-2.4,2-4.4,4.4-4.4s4.4,2,4.4,4.4"/>
				<path class="st1" d="M283.1,355.6c0-2.4,2-4.4,4.4-4.4s4.4,2,4.4,4.4s-2,4.4-4.4,4.4S283.1,358,283.1,355.6z"/>
			</g>
		</g>
	</g>
	<g>
		<polyline class="st1" points="96,354 108,354 102,348 		"/>
		<line class="st1" x1="102" y1="360" x2="108" y2="354"/>
	</g>
	<g>
		<polyline class="st1" points="192,354 204,354 198,348 		"/>
		<line class="st1" x1="198" y1="360" x2="204" y2="354"/>
	</g>
	<g>
		<polyline class="st1" points="306,354 318,354 312,348 		"/>
		<line class="st1" x1="312" y1="360" x2="318" y2="354"/>
	</g>
	<g>
		<line class="st1" x1="156" y1="348" x2="156" y2="360"/>
		<line class="st1" x1="150" y1="354" x2="162" y2="354"/>
	</g>
	<g>
		<line class="st1" x1="246" y1="360" x2="258" y2="348"/>
		<circle class="st1" cx="249" cy="351" r="3"/>
		<circle class="st1" cx="255" cy="357" r="3"/>
	</g>
	<rect x="24" y="342" class="st2" width="18" height="18"/>
	<rect x="120" y="342" class="st2" width="18" height="18"/>
	<rect x="216" y="342" class="st2" width="18" height="18"/>
	<rect x="330" y="342" class="st2" width="18" height="18"/>
	<g>
		<polyline class="st2" points="339,366 339,378 33,378 33,390 39,384 		"/>
		<line class="st2" x1="27" y1="384" x2="33" y2="390"/>
	</g>
</g>
<g>
	<g>
		<g id="char-x_1_5_">
			<g>
				<path class="st1" d="M54,408l12,12"/>
				<path class="st1" d="M66,408l-12,12"/>
			</g>
		</g>
	</g>
	<g>
		<g id="char-5_1_5_">
			<path class="st1" d="M78,415.1c0,2.4,2,4.4,4.4,4.4s4.4-2,4.4-4.4s-2-4.4-4.4-4.4H78V402h8.8"/>
		</g>
	</g>
	<g>
		<g id="char-1_1_11_">
			<path class="st1" d="M178.4,402.5l-4.4,2.9L178.4,402.5V420H174h8.8"/>
		</g>
	</g>
	<g>
		<g id="char-1_1_10_">
			<path class="st1" d="M274.4,402.5l-4.4,2.9L274.4,402.5V420H270h8.8"/>
		</g>
		<g id="char-6_1_5_">
			<g id="group-char-6_1_5_">
				<path class="st1" d="M283.1,415.6v-8.8c0-2.4,2-4.4,4.4-4.4s4.4,2,4.4,4.4"/>
				<path class="st1" d="M283.1,415.6c0-2.4,2-4.4,4.4-4.4s4.4,2,4.4,4.4s-2,4.4-4.4,4.4S283.1,418,283.1,415.6z"/>
			</g>
		</g>
	</g>
	<g>
		<polyline class="st1" points="96,414 108,414 102,408 		"/>
		<line class="st1" x1="102" y1="420" x2="108" y2="414"/>
	</g>
	<g>
		<polyline class="st1" points="192,414 204,414 198,408 		"/>
		<line class="st1" x1="198" y1="420" x2="204" y2="414"/>
	</g>
	<g>
		<polyline class="st1" points="306,414 318,414 312,408 		"/>
		<line class="st1" x1="312" y1="420" x2="318" y2="414"/>
	</g>
	<g>
		<line class="st1" x1="156" y1="408" x2="156" y2="420"/>
		<line class="st1" x1="150" y1="414" x2="162" y2="414"/>
	</g>
	<g>
		<line class="st1" x1="246" y1="420" x2="258" y2="408"/>
		<circle class="st1" cx="249" cy="411" r="3"/>
		<circle class="st1" cx="255" cy="417" r="3"/>
	</g>
	<rect x="24" y="402" class="st2" width="18" height="18"/>
	<rect x="120" y="402" class="st2" width="18" height="18"/>
	<rect x="216" y="402" class="st2" width="18" height="18"/>
	<rect x="330" y="402" class="st2" width="18" height="18"/>
	<g>
		<polyline class="st2" points="339,426 339,438 33,438 33,450 39,444 		"/>
		<line class="st2" x1="27" y1="444" x2="33" y2="450"/>
	</g>
</g>
<g>
	<g>
		<g id="char-x_1_6_">
			<g>
				<path class="st1" d="M54,468l12,12"/>
				<path class="st1" d="M66,468l-12,12"/>
			</g>
		</g>
	</g>
	<g>
		<g id="char-5_1_6_">
			<path class="st1" d="M78,475.1c0,2.4,2,4.4,4.4,4.4s4.4-2,4.4-4.4s-2-4.4-4.4-4.4H78V462h8.8"/>
		</g>
	</g>
	<g>
		<g id="char-1_1_13_">
			<path class="st1" d="M178.4,462.5l-4.4,2.9L178.4,462.5V480H174h8.8"/>
		</g>
	</g>
	<g>
		<g id="char-1_1_12_">
			<path class="st1" d="M274.4,462.5l-4.4,2.9L274.4,462.5V480H270h8.8"/>
		</g>
		<g id="char-6_1_6_">
			<g id="group-char-6_1_6_">
				<path class="st1" d="M283.1,475.6v-8.8c0-2.4,2-4.4,4.4-4.4s4.4,2,4.4,4.4"/>
				<path class="st1" d="M283.1,475.6c0-2.4,2-4.4,4.4-4.4s4.4,2,4.4,4.4s-2,4.4-4.4,4.4S283.1,478,283.1,475.6z"/>
			</g>
		</g>
	</g>
	<g>
		<polyline class="st1" points="96,474 108,474 102,468 		"/>
		<line class="st1" x1="102" y1="480" x2="108" y2="474"/>
	</g>
	<g>
		<polyline class="st1" points="192,474 204,474 198,468 		"/>
		<line class="st1" x1="198" y1="480" x2="204" y2="474"/>
	</g>
	<g>
		<polyline class="st1" points="306,474 318,474 312,468 		"/>
		<line class="st1" x1="312" y1="480" x2="318" y2="474"/>
	</g>
	<g>
		<line class="st1" x1="156" y1="468" x2="156" y2="480"/>
		<line class="st1" x1="150" y1="474" x2="162" y2="474"/>
	</g>
	<g>
		<line class="st1" x1="246" y1="480" x2="258" y2="468"/>
		<circle class="st1" cx="249" cy="471" r="3"/>
		<circle class="st1" cx="255" cy="477" r="3"/>
	</g>
	<rect x="24" y="462" class="st2" width="18" height="18"/>
	<rect x="120" y="462" class="st2" width="18" height="18"/>
	<rect x="216" y="462" class="st2" width="18" height="18"/>
	<rect x="330" y="462" class="st2" width="18" height="18"/>
	<g>
		<polyline class="st2" points="339,486 339,498 33,498 33,510 39,504 		"/>
		<line class="st2" x1="27" y1="504" x2="33" y2="510"/>
	</g>
</g>
<g>
	<g>
		<g id="char-x_1_7_">
			<g>
				<path class="st1" d="M54,528l12,12"/>
				<path class="st1" d="M66,528l-12,12"/>
			</g>
		</g>
	</g>
	<g>
		<g id="char-5_1_7_">
			<path class="st1" d="M78,535.1c0,2.4,2,4.4,4.4,4.4s4.4-2,4.4-4.4c0-2.4-2-4.4-4.4-4.4H78V522h8.8"/>
		</g>
	</g>
	<g>
		<g id="char-1_1_15_">
			<path class="st1" d="M178.4,522.5l-4.4,2.9L178.4,522.5V540H174h8.8"/>
		</g>
	</g>
	<g>
		<g id="char-1_1_14_">
			<path class="st1" d="M274.4,522.5l-4.4,2.9L274.4,522.5V540H270h8.8"/>
		</g>
		<g id="char-6_1_7_">
			<g id="group-char-6_1_7_">
				<path class="st1" d="M283.1,535.6v-8.8c0-2.4,2-4.4,4.4-4.4s4.4,2,4.4,4.4"/>
				<path class="st1" d="M283.1,535.6c0-2.4,2-4.4,4.4-4.4s4.4,2,4.4,4.4c0,2.4-2,4.4-4.4,4.4S283.1,538,283.1,535.6z"/>
			</g>
		</g>
	</g>
	<g>
		<polyline class="st1" points="96,534 108,534 102,528 		"/>
		<line class="st1" x1="102" y1="540" x2="108" y2="534"/>
	</g>
	<g>
		<polyline class="st1" points="192,534 204,534 198,528 		"/>
		<line class="st1" x1="198" y1="540" x2="204" y2="534"/>
	</g>
	<g>
		<polyline class="st1" points="306,534 318,534 312,528 		"/>
		<line class="st1" x1="312" y1="540" x2="318" y2="534"/>
	</g>
	<g>
		<line class="st1" x1="156" y1="528" x2="156" y2="540"/>
		<line class="st1" x1="150" y1="534" x2="162" y2="534"/>
	</g>
	<g>
		<line class="st1" x1="246" y1="540" x2="258" y2="528"/>
		<circle class="st1" cx="249" cy="531" r="3"/>
		<circle class="st1" cx="255" cy="537" r="3"/>
	</g>
	<rect x="24" y="522" class="st2" width="18" height="18"/>
	<rect x="120" y="522" class="st2" width="18" height="18"/>
	<rect x="216" y="522" class="st2" width="18" height="18"/>
	<rect x="330" y="522" class="st2" width="18" height="18"/>
	<g>
		<polyline class="st2" points="339,546 339,558 33,558 33,570 39,564 		"/>
		<line class="st2" x1="27" y1="564" x2="33" y2="570"/>
	</g>
</g>
<g>
	<g>
		<g id="char-x_1_8_">
			<g>
				<path class="st1" d="M54,588l12,12"/>
				<path class="st1" d="M66,588l-12,12"/>
			</g>
		</g>
	</g>
	<g>
		<g id="char-5_1_8_">
			<path class="st1" d="M78,595.1c0,2.4,2,4.4,4.4,4.4s4.4-2,4.4-4.4s-2-4.4-4.4-4.4H78V582h8.8"/>
		</g>
	</g>
	<g>
		<g id="char-1_1_17_">
			<path class="st1" d="M178.4,582.5l-4.4,2.9L178.4,582.5V600H174h8.8"/>
		</g>
	</g>
	<g>
		<g id="char-1_1_16_">
			<path class="st1" d="M274.4,582.5l-4.4,2.9L274.4,582.5V600H270h8.8"/>
		</g>
		<g id="char-6_1_8_">
			<g id="group-char-6_1_8_">
				<path class="st1" d="M283.1,595.6v-8.8c0-2.4,2-4.4,4.4-4.4s4.4,2,4.4,4.4"/>
				<path class="st1" d="M283.1,595.6c0-2.4,2-4.4,4.4-4.4s4.4,2,4.4,4.4s-2,4.4-4.4,4.4S283.1,598,283.1,595.6z"/>
			</g>
		</g>
	</g>
	<g>
		<polyline class="st1" points="96,594 108,594 102,588 		"/>
		<line class="st1" x1="102" y1="600" x2="108" y2="594"/>
	</g>
	<g>
		<polyline class="st1" points="192,594 204,594 198,588 		"/>
		<line class="st1" x1="198" y1="600" x2="204" y2="594"/>
	</g>
	<g>
		<polyline class="st1" points="306,594 318,594 312,588 		"/>
		<line class="st1" x1="312" y1="600" x2="318" y2="594"/>
	</g>
	<g>
		<line class="st1" x1="156" y1="588" x2="156" y2="600"/>
		<line class="st1" x1="150" y1="594" x2="162" y2="594"/>
	</g>
	<g>
		<line class="st1" x1="246" y1="600" x2="258" y2="588"/>
		<circle class="st1" cx="249" cy="591" r="3"/>
		<circle class="st1" cx="255" cy="597" r="3"/>
	</g>
	<rect x="24" y="582" class="st2" width="18" height="18"/>
	<rect x="120" y="582" class="st2" width="18" height="18"/>
	<rect x="216" y="582" class="st2" width="18" height="18"/>
	<rect x="330" y="582" class="st2" width="18" height="18"/>
	<g>
		<polyline class="st2" points="339,606 339,618 33,618 33,630 39,624 		"/>
		<line class="st2" x1="27" y1="624" x2="33" y2="630"/>
	</g>
</g>
<g>
	<g>
		<g id="char-x_1_9_">
			<g>
				<path class="st1" d="M54,648l12,12"/>
				<path class="st1" d="M66,648l-12,12"/>
			</g>
		</g>
	</g>
	<g>
		<g id="char-5_1_9_">
			<path class="st1" d="M78,655.1c0,2.4,2,4.4,4.4,4.4s4.4-2,4.4-4.4s-2-4.4-4.4-4.4H78V642h8.8"/>
		</g>
	</g>
	<g>
		<g id="char-1_1_19_">
			<path class="st1" d="M178.4,642.5l-4.4,2.9L178.4,642.5V660H174h8.8"/>
		</g>
	</g>
	<g>
		<g id="char-1_1_18_">
			<path class="st1" d="M274.4,642.5l-4.4,2.9L274.4,642.5V660H270h8.8"/>
		</g>
		<g id="char-6_1_9_">
			<g id="group-char-6_1_9_">
				<path class="st1" d="M283.1,655.6v-8.8c0-2.4,2-4.4,4.4-4.4s4.4,2,4.4,4.4"/>
				<path class="st1" d="M283.1,655.6c0-2.4,2-4.4,4.4-4.4s4.4,2,4.4,4.4s-2,4.4-4.4,4.4S283.1,658,283.1,655.6z"/>
			</g>
		</g>
	</g>
	<g>
		<polyline class="st1" points="96,654 108,654 102,648 		"/>
		<line class="st1" x1="102" y1="660" x2="108" y2="654"/>
	</g>
	<g>
		<polyline class="st1" points="192,654 204,654 198,648 		"/>
		<line class="st1" x1="198" y1="660" x2="204" y2="654"/>
	</g>
	<g>
		<polyline class="st1" points="306,654 318,654 312,648 		"/>
		<line class="st1" x1="312" y1="660" x2="318" y2="654"/>
	</g>
	<g>
		<line class="st1" x1="156" y1="648" x2="156" y2="660"/>
		<line class="st1" x1="150" y1="654" x2="162" y2="654"/>
	</g>
	<g>
		<line class="st1" x1="246" y1="660" x2="258" y2="648"/>
		<circle class="st1" cx="249" cy="651" r="3"/>
		<circle class="st1" cx="255" cy="657" r="3"/>
	</g>
	<rect x="24" y="642" class="st2" width="18" height="18"/>
	<rect x="120" y="642" class="st2" width="18" height="18"/>
	<rect x="216" y="642" class="st2" width="18" height="18"/>
	<rect x="330" y="642" class="st2" width="18" height="18"/>
	<g>
		<polyline class="st2" points="339,666 339,678 33,678 33,690 39,684 		"/>
		<line class="st2" x1="27" y1="684" x2="33" y2="690"/>
	</g>
</g>
<g>
	<g id="char-x_1_10_">
		<g>
			<path class="st1" d="M54,708l12,12"/>
			<path class="st1" d="M66,708l-12,12"/>
		</g>
	</g>
</g>
<g>
	<g id="char-5_1_10_">
		<path class="st1" d="M78,715.1c0,2.4,2,4.4,4.4,4.4s4.4-2,4.4-4.4s-2-4.4-4.4-4.4H78V702h8.8"/>
	</g>
</g>
<g>
	<g id="char-1_1_21_">
		<path class="st1" d="M178.4,702.5l-4.4,2.9L178.4,702.5V720H174h8.8"/>
	</g>
</g>
<g>
	<g id="char-1_1_20_">
		<path class="st1" d="M274.4,702.5l-4.4,2.9L274.4,702.5V720H270h8.8"/>
	</g>
	<g id="char-6_1_10_">
		<g id="group-char-6_1_10_">
			<path class="st1" d="M283.1,715.6v-8.8c0-2.4,2-4.4,4.4-4.4s4.4,2,4.4,4.4"/>
			<path class="st1" d="M283.1,715.6c0-2.4,2-4.4,4.4-4.4s4.4,2,4.4,4.4s-2,4.4-4.4,4.4S283.1,718,283.1,715.6z"/>
		</g>
	</g>
</g>
<g>
	<polyline class="st1" points="96,714 108,714 102,708 	"/>
	<line class="st1" x1="102" y1="720" x2="108" y2="714"/>
</g>
<g>
	<polyline class="st1" points="192,714 204,714 198,708 	"/>
	<line class="st1" x1="198" y1="720" x2="204" y2="714"/>
</g>
<g>
	<polyline class="st1" points="306,714 318,714 312,708 	"/>
	<line class="st1" x1="312" y1="720" x2="318" y2="714"/>
</g>
<g>
	<line class="st1" x1="156" y1="708" x2="156" y2="720"/>
	<line class="st1" x1="150" y1="714" x2="162" y2="714"/>
</g>
<g>
	<line class="st1" x1="246" y1="720" x2="258" y2="708"/>
	<circle class="st1" cx="249" cy="711" r="3"/>
	<circle class="st1" cx="255" cy="717" r="3"/>
</g>
<rect x="24" y="702" class="st2" width="18" height="18"/>
<rect x="120" y="702" class="st2" width="18" height="18"/>
<rect x="216" y="702" class="st2" width="18" height="18"/>
<rect x="330" y="702" class="st2" width="18" height="18"/>
<g>
	<g>
		<g id="char-S_1">
			<path class="st3" d="M54.2,65.8c0,1.2,1,2.2,2.2,2.2s2.2-1,2.2-2.2s-1-2.2-2.2-2.2s-2.2-1-2.2-2.2s1-2.2,2.2-2.2s2.2,1,2.2,2.2"
				/>
		</g>
		<g id="char-e_1_5_">
			<path class="st3" d="M64.8,67.3c-0.4,0.4-1,0.7-1.6,0.7C62,68,61,67,61,65.8s1-2.2,2.2-2.2c1.2,0,2.2,1,2.2,2.2H61"/>
		</g>
		<g id="char-e_1_4_">
			<path class="st3" d="M71.6,67.3c-0.4,0.4-1,0.7-1.6,0.7c-1.2,0-2.2-1-2.2-2.2s1-2.2,2.2-2.2s2.2,1,2.2,2.2h-4.5"/>
		</g>
		<g id="char-d_1">
			<g id="group-char-d_1">
				<path class="st3" d="M79,68v-9"/>
				<path class="st3" d="M74.5,65.8c0-1.2,1-2.2,2.2-2.2s2.2,1,2.2,2.2S78,68,76.8,68S74.5,67,74.5,65.8z"/>
			</g>
		</g>
	</g>
</g>
<polyline class="st2" points="33,82 33,94 39,88 "/>
<line class="st2" x1="27" y1="88" x2="33" y2="94"/>
</svg>
