<?xml version="1.0" encoding="utf-8"?>
<!-- Generator: Adobe Illustrator 19.0.0, SVG Export Plug-In . SVG Version: 6.00 Build 0)  -->
<svg version="1.1" id="Layer_1" xmlns="http://www.w3.org/2000/svg" xmlns:xlink="http://www.w3.org/1999/xlink" x="0px" y="0px"
	 viewBox="720 864 612 792" style="enable-background:new 720 864 612 792;" xml:space="preserve">
<metadata><?xpacket begin="﻿" id="W5M0MpCehiHzreSzNTczkc9d"?>
<x:xmpmeta xmlns:x="adobe:ns:meta/" x:xmptk="Adobe XMP Core 5.6-c067 79.157747, 2015/03/30-23:40:42        ">
   <rdf:RDF xmlns:rdf="http://www.w3.org/1999/02/22-rdf-syntax-ns#">
      <rdf:Description rdf:about=""
            xmlns:ExtensisFontSense="http://www.extensis.com/meta/FontSense/">
         <ExtensisFontSense:slug>
            <rdf:Bag>
               <rdf:li>
                  <rdf:Description>
                     <ExtensisFontSense:Family>Miriam Libre</ExtensisFontSense:Family>
                     <ExtensisFontSense:Version>1.001</ExtensisFontSense:Version>
                     <ExtensisFontSense:OutlineFileSize>0</ExtensisFontSense:OutlineFileSize>
                     <ExtensisFontSense:KerningChecksum>0</ExtensisFontSense:KerningChecksum>
                     <ExtensisFontSense:Foundry>--</ExtensisFontSense:Foundry>
                     <ExtensisFontSense:FontKind>OpenType - TT</ExtensisFontSense:FontKind>
                     <ExtensisFontSense:Checksum>1531820322</ExtensisFontSense:Checksum>
                     <ExtensisFontSense:PostScriptName>MiriamLibre-Regular</ExtensisFontSense:PostScriptName>
                     <ExtensisFontSense:FontSense_1.2_Checksum>1531820322</ExtensisFontSense:FontSense_1.2_Checksum>
                  </rdf:Description>
               </rdf:li>
               <rdf:li>
                  <rdf:Description>
                     <ExtensisFontSense:Family>Helvetica</ExtensisFontSense:Family>
                     <ExtensisFontSense:Version>10.0</ExtensisFontSense:Version>
                     <ExtensisFontSense:OutlineFileSize>0</ExtensisFontSense:OutlineFileSize>
                     <ExtensisFontSense:KerningChecksum>58433</ExtensisFontSense:KerningChecksum>
                     <ExtensisFontSense:Foundry>Apple Computer</ExtensisFontSense:Foundry>
                     <ExtensisFontSense:FontKind>TrueType</ExtensisFontSense:FontKind>
                     <ExtensisFontSense:Checksum>199521133</ExtensisFontSense:Checksum>
                     <ExtensisFontSense:PostScriptName>Helvetica</ExtensisFontSense:PostScriptName>
                     <ExtensisFontSense:FontSense_1.2_Checksum>199521133</ExtensisFontSense:FontSense_1.2_Checksum>
                  </rdf:Description>
               </rdf:li>
            </rdf:Bag>
         </ExtensisFontSense:slug>
      </rdf:Description>
   </rdf:RDF>
</x:xmpmeta>
                                                                                                    
                                                                                                    
                                                                                                    
                                                                                                    
                                                                                                    
                                                                                                    
                                                                                                    
                                                                                                    
                                                                                                    
                                                                                                    
                                                                                                    
                                                                                                    
                                                                                                    
                                                                                                    
                                                                                                    
                                                                                                    
                                                                                                    
                                                                                                    
                                                                                                    
                                                                                                    
                           
<?xpacket end="w"?></metadata>
<style type="text/css">
	.st0{enable-background:new    ;}
	.st1{fill:none;stroke:#000000;stroke-width:0.5;stroke-miterlimit:10;}
	.st2{font-family:'Helvetica';}
	.st3{font-size:12px;}
	.st4{fill:none;stroke:#000000;stroke-miterlimit:10;}
	.st5{fill:#231F20;}
	.st6{font-family:'MiriamLibre-Regular';}
</style>
<text transform="matrix(-1 0 0 -1 318.5361 506.668)" class="st2 st3">TOO EASY</text>
<text transform="matrix(1 0 0 1 256.4382 72.0001)" class="st2 st3">TOO HARD</text>
<g>
	<rect x="108" y="108" class="st1" width="360" height="360"/>
	<line class="st1" x1="180" y1="108" x2="180" y2="468"/>
	<line class="st1" x1="252" y1="108" x2="252" y2="468"/>
	<line class="st1" x1="324" y1="108" x2="324" y2="468"/>
	<line class="st1" x1="396" y1="108" x2="396" y2="468"/>
	<line class="st1" x1="108" y1="396" x2="468" y2="396"/>
	<line class="st1" x1="108" y1="324" x2="468" y2="324"/>
	<line class="st1" x1="108" y1="252" x2="468" y2="252"/>
	<line class="st1" x1="108" y1="180" x2="468" y2="180"/>
</g>
<text transform="matrix(4.489659e-11 1 -1 4.489659e-11 504 252.0002)" class="st2 st3">PRACTICAL</text>
<text transform="matrix(-1.346898e-10 -1 1 -1.346898e-10 72.0002 318.6709)" class="st2 st3">ESOTERIC</text>
<text transform="matrix(-1 0 0 -1 304.3389 1370.668)" class="st2 st3">LAME</text>
<text transform="matrix(1 0 0 1 275.6687 936.0001)" class="st2 st3">FUN</text>
<text transform="matrix(1 0 0 1 756.0001 936.0001)" class="st2 st3">Best Topic</text>
<g>
	<rect x="108" y="972" class="st1" width="360" height="360"/>
	<line class="st1" x1="180" y1="972" x2="180" y2="1332"/>
	<line class="st1" x1="252" y1="972" x2="252" y2="1332"/>
	<line class="st1" x1="324" y1="972" x2="324" y2="1332"/>
	<line class="st1" x1="396" y1="972" x2="396" y2="1332"/>
	<line class="st1" x1="108" y1="1260" x2="468" y2="1260"/>
	<line class="st1" x1="108" y1="1188" x2="468" y2="1188"/>
	<line class="st1" x1="108" y1="1116" x2="468" y2="1116"/>
	<line class="st1" x1="108" y1="1044" x2="468" y2="1044"/>
</g>
<text transform="matrix(4.489659e-11 1 -1 4.489659e-11 504 1131.9934)" class="st2 st3">CLEAR</text>
<text transform="matrix(-1.346898e-10 -1 1 -1.346898e-10 72.0002 1188)" class="st2 st3">CONFUSING</text>
<rect x="756" y="972" class="st1" width="72" height="72"/>
<line class="st4" x1="864" y1="1008" x2="1260" y2="1008"/>
<line class="st4" x1="864" y1="1044" x2="1260" y2="1044"/>
<text transform="matrix(1 0 0 1 756.0001 1116)" class="st2 st3">Worst Topic</text>
<rect x="756" y="1152" class="st1" width="72" height="72"/>
<line class="st4" x1="864" y1="1188" x2="1260" y2="1188"/>
<line class="st4" x1="864" y1="1224" x2="1260" y2="1224"/>
<text transform="matrix(1 0 0 1 756.0001 1296)" class="st2 st3">Best Sketches (Class)</text>
<rect x="756" y="1332" class="st1" width="72" height="72"/>
<line class="st4" x1="864" y1="1368" x2="1260" y2="1368"/>
<line class="st4" x1="864" y1="1404" x2="1260" y2="1404"/>
<text transform="matrix(1 0 0 1 756.0001 1476)" class="st2 st3">Best Sketches (Personal)</text>
<rect x="756" y="1512" class="st1" width="72" height="72"/>
<line class="st4" x1="864" y1="1548" x2="1260" y2="1548"/>
<line class="st4" x1="864" y1="1584" x2="1260" y2="1584"/>
<g>
	<text transform="matrix(1 0 0 1 54 756)" class="st5 st6 st3">COMP FORM</text>
	<polygon class="st5" points="38.6,751.5 36,756 41.2,756 	"/>
	<polygon class="st5" points="41.2,747 38.6,751.5 43.8,751.5 	"/>
	<g>
		<g>
			<polygon class="st5" points="42.5,753.8 41.2,756 43.8,756 			"/>
			<polygon class="st5" points="45.1,753.8 43.8,756 46.4,756 			"/>
		</g>
		<polygon class="st5" points="43.8,751.5 42.5,753.8 45.1,753.8 		"/>
	</g>
</g>
<g>
	<text transform="matrix(1 0 0 1 54 1620)" class="st5 st6 st3">COMP FORM</text>
	<polygon class="st5" points="38.6,1615.5 36,1620 41.2,1620 	"/>
	<polygon class="st5" points="41.2,1611 38.6,1615.5 43.8,1615.5 	"/>
	<g>
		<g>
			<polygon class="st5" points="42.5,1617.8 41.2,1620 43.8,1620 			"/>
			<polygon class="st5" points="45.1,1617.8 43.8,1620 46.4,1620 			"/>
		</g>
		<polygon class="st5" points="43.8,1615.5 42.5,1617.8 45.1,1617.8 		"/>
	</g>
</g>
<g>
	<text transform="matrix(1 0 0 1 774 1620)" class="st5 st6 st3">COMP FORM</text>
	<polygon class="st5" points="758.6,1615.5 756,1620 761.2,1620 	"/>
	<polygon class="st5" points="761.2,1611 758.6,1615.5 763.8,1615.5 	"/>
	<g>
		<g>
			<polygon class="st5" points="762.5,1617.8 761.2,1620 763.8,1620 			"/>
			<polygon class="st5" points="765.1,1617.8 763.8,1620 766.4,1620 			"/>
		</g>
		<polygon class="st5" points="763.8,1615.5 762.5,1617.8 765.1,1617.8 		"/>
	</g>
</g>
</svg>
