solid OpenSCAD_Model
  facet normal 0.994522 0.104529 0
    outer loop
      vertex 100 0 10
      vertex 97.8148 20.7912 0
      vertex 97.8148 20.7912 10
    endloop
  endfacet
  facet normal 0.994522 0.104529 0
    outer loop
      vertex 97.8148 20.7912 0
      vertex 100 0 10
      vertex 100 0 0
    endloop
  endfacet
  facet normal -0.994522 0.104529 0
    outer loop
      vertex -100 0 0
      vertex -97.8148 20.7912 10
      vertex -97.8148 20.7912 0
    endloop
  endfacet
  facet normal -0.994522 0.104529 0
    outer loop
      vertex -97.8148 20.7912 10
      vertex -100 0 0
      vertex -100 0 10
    endloop
  endfacet
  facet normal 0 1 -0
    outer loop
      vertex 10.4528 99.4522 0
      vertex -10.4528 99.4522 10
      vertex 10.4528 99.4522 10
    endloop
  endfacet
  facet normal 0 1 0
    outer loop
      vertex -10.4528 99.4522 10
      vertex 10.4528 99.4522 0
      vertex -10.4528 99.4522 0
    endloop
  endfacet
  facet normal 0 -1 0
    outer loop
      vertex -10.4528 -99.4522 0
      vertex 10.4528 -99.4522 10
      vertex -10.4528 -99.4522 10
    endloop
  endfacet
  facet normal 0 -1 -0
    outer loop
      vertex 10.4528 -99.4522 10
      vertex -10.4528 -99.4522 0
      vertex 10.4528 -99.4522 0
    endloop
  endfacet
  facet normal 0.587785 0.809017 -0
    outer loop
      vertex 66.9131 74.3145 0
      vertex 50 86.6025 10
      vertex 66.9131 74.3145 10
    endloop
  endfacet
  facet normal 0.587785 0.809017 0
    outer loop
      vertex 50 86.6025 10
      vertex 66.9131 74.3145 0
      vertex 50 86.6025 0
    endloop
  endfacet
  facet normal -0.587785 0.809017 0
    outer loop
      vertex -50 86.6025 0
      vertex -66.9131 74.3145 10
      vertex -50 86.6025 10
    endloop
  endfacet
  facet normal -0.587785 0.809017 0
    outer loop
      vertex -66.9131 74.3145 10
      vertex -50 86.6025 0
      vertex -66.9131 74.3145 0
    endloop
  endfacet
  facet normal -0.406737 0.913545 0
    outer loop
      vertex -30.9017 95.1057 0
      vertex -50 86.6025 10
      vertex -30.9017 95.1057 10
    endloop
  endfacet
  facet normal -0.406737 0.913545 0
    outer loop
      vertex -50 86.6025 10
      vertex -30.9017 95.1057 0
      vertex -50 86.6025 0
    endloop
  endfacet
  facet normal 0.866025 0.5 0
    outer loop
      vertex 91.3545 40.6737 10
      vertex 80.9017 58.7785 0
      vertex 80.9017 58.7785 10
    endloop
  endfacet
  facet normal 0.866025 0.5 0
    outer loop
      vertex 80.9017 58.7785 0
      vertex 91.3545 40.6737 10
      vertex 91.3545 40.6737 0
    endloop
  endfacet
  facet normal 0.951057 0.309017 0
    outer loop
      vertex 97.8148 20.7912 10
      vertex 91.3545 40.6737 0
      vertex 91.3545 40.6737 10
    endloop
  endfacet
  facet normal 0.951057 0.309017 0
    outer loop
      vertex 91.3545 40.6737 0
      vertex 97.8148 20.7912 10
      vertex 97.8148 20.7912 0
    endloop
  endfacet
  facet normal 0.743145 0.669131 0
    outer loop
      vertex 80.9017 58.7785 10
      vertex 66.9131 74.3145 0
      vertex 66.9131 74.3145 10
    endloop
  endfacet
  facet normal 0.743145 0.669131 0
    outer loop
      vertex 66.9131 74.3145 0
      vertex 80.9017 58.7785 10
      vertex 80.9017 58.7785 0
    endloop
  endfacet
  facet normal 0.207912 0.978148 -0
    outer loop
      vertex 30.9017 95.1057 0
      vertex 10.4528 99.4522 10
      vertex 30.9017 95.1057 10
    endloop
  endfacet
  facet normal 0.207912 0.978148 0
    outer loop
      vertex 10.4528 99.4522 10
      vertex 30.9017 95.1057 0
      vertex 10.4528 99.4522 0
    endloop
  endfacet
  facet normal 0.406737 0.913545 -0
    outer loop
      vertex 50 86.6025 0
      vertex 30.9017 95.1057 10
      vertex 50 86.6025 10
    endloop
  endfacet
  facet normal 0.406737 0.913545 0
    outer loop
      vertex 30.9017 95.1057 10
      vertex 50 86.6025 0
      vertex 30.9017 95.1057 0
    endloop
  endfacet
  facet normal -0.866025 0.5 0
    outer loop
      vertex -91.3545 40.6737 0
      vertex -80.9017 58.7785 10
      vertex -80.9017 58.7785 0
    endloop
  endfacet
  facet normal -0.866025 0.5 0
    outer loop
      vertex -80.9017 58.7785 10
      vertex -91.3545 40.6737 0
      vertex -91.3545 40.6737 10
    endloop
  endfacet
  facet normal -0.743145 0.669131 0
    outer loop
      vertex -80.9017 58.7785 0
      vertex -66.9131 74.3145 10
      vertex -66.9131 74.3145 0
    endloop
  endfacet
  facet normal -0.743145 0.669131 0
    outer loop
      vertex -66.9131 74.3145 10
      vertex -80.9017 58.7785 0
      vertex -80.9017 58.7785 10
    endloop
  endfacet
  facet normal -0.951057 0.309017 0
    outer loop
      vertex -97.8148 20.7912 0
      vertex -91.3545 40.6737 10
      vertex -91.3545 40.6737 0
    endloop
  endfacet
  facet normal -0.951057 0.309017 0
    outer loop
      vertex -91.3545 40.6737 10
      vertex -97.8148 20.7912 0
      vertex -97.8148 20.7912 10
    endloop
  endfacet
  facet normal 0 0 1
    outer loop
      vertex 60 0 10
      vertex 100 0 10
      vertex 97.8148 20.7912 10
    endloop
  endfacet
  facet normal 0 0 1
    outer loop
      vertex 58.6889 12.4747 10
      vertex 97.8148 20.7912 10
      vertex 91.3545 40.6737 10
    endloop
  endfacet
  facet normal 0 0 1
    outer loop
      vertex 100 0 10
      vertex 60 0 10
      vertex 97.8148 -20.7912 10
    endloop
  endfacet
  facet normal 0 0 1
    outer loop
      vertex 54.8127 24.4042 10
      vertex 91.3545 40.6737 10
      vertex 80.9017 58.7785 10
    endloop
  endfacet
  facet normal -0 0 1
    outer loop
      vertex 58.6889 -12.4747 10
      vertex 97.8148 -20.7912 10
      vertex 60 0 10
    endloop
  endfacet
  facet normal 0 0 1
    outer loop
      vertex 48.541 35.2671 10
      vertex 80.9017 58.7785 10
      vertex 66.9131 74.3145 10
    endloop
  endfacet
  facet normal 0 0 1
    outer loop
      vertex 97.8148 -20.7912 10
      vertex 58.6889 -12.4747 10
      vertex 91.3545 -40.6737 10
    endloop
  endfacet
  facet normal -0 0 1
    outer loop
      vertex 54.8127 -24.4042 10
      vertex 91.3545 -40.6737 10
      vertex 58.6889 -12.4747 10
    endloop
  endfacet
  facet normal 0 0 1
    outer loop
      vertex 97.8148 20.7912 10
      vertex 58.6889 12.4747 10
      vertex 60 0 10
    endloop
  endfacet
  facet normal 0 0 1
    outer loop
      vertex 91.3545 40.6737 10
      vertex 54.8127 24.4042 10
      vertex 58.6889 12.4747 10
    endloop
  endfacet
  facet normal 0 0 1
    outer loop
      vertex 40.1478 44.5887 10
      vertex 66.9131 74.3145 10
      vertex 50 86.6025 10
    endloop
  endfacet
  facet normal 0 0 1
    outer loop
      vertex 80.9017 58.7785 10
      vertex 48.541 35.2671 10
      vertex 54.8127 24.4042 10
    endloop
  endfacet
  facet normal 0 0 1
    outer loop
      vertex 66.9131 74.3145 10
      vertex 40.1478 44.5887 10
      vertex 48.541 35.2671 10
    endloop
  endfacet
  facet normal 0 0 1
    outer loop
      vertex 30 51.9615 10
      vertex 50 86.6025 10
      vertex 30.9017 95.1057 10
    endloop
  endfacet
  facet normal 0 0 1
    outer loop
      vertex 50 86.6025 10
      vertex 30 51.9615 10
      vertex 40.1478 44.5887 10
    endloop
  endfacet
  facet normal 0 0 1
    outer loop
      vertex 30.9017 95.1057 10
      vertex 18.541 57.0634 10
      vertex 30 51.9615 10
    endloop
  endfacet
  facet normal 0 0 1
    outer loop
      vertex 10.4528 99.4522 10
      vertex 18.541 57.0634 10
      vertex 30.9017 95.1057 10
    endloop
  endfacet
  facet normal 0 0 1
    outer loop
      vertex 10.4528 99.4522 10
      vertex 6.27171 59.6713 10
      vertex 18.541 57.0634 10
    endloop
  endfacet
  facet normal 0 0 1
    outer loop
      vertex 10.4528 99.4522 10
      vertex -6.27171 59.6713 10
      vertex 6.27171 59.6713 10
    endloop
  endfacet
  facet normal -0 0 1
    outer loop
      vertex -10.4528 99.4522 10
      vertex -6.27171 59.6713 10
      vertex 10.4528 99.4522 10
    endloop
  endfacet
  facet normal 0 0 1
    outer loop
      vertex -10.4528 99.4522 10
      vertex -18.541 57.0634 10
      vertex -6.27171 59.6713 10
    endloop
  endfacet
  facet normal -0 0 1
    outer loop
      vertex -30.9017 95.1057 10
      vertex -18.541 57.0634 10
      vertex -10.4528 99.4522 10
    endloop
  endfacet
  facet normal 0 0 1
    outer loop
      vertex -18.541 57.0634 10
      vertex -30.9017 95.1057 10
      vertex -30 51.9615 10
    endloop
  endfacet
  facet normal -0 0 1
    outer loop
      vertex -50 86.6025 10
      vertex -30 51.9615 10
      vertex -30.9017 95.1057 10
    endloop
  endfacet
  facet normal 0 0 1
    outer loop
      vertex -30 51.9615 10
      vertex -50 86.6025 10
      vertex -40.1478 44.5887 10
    endloop
  endfacet
  facet normal -0 0 1
    outer loop
      vertex -66.9131 74.3145 10
      vertex -40.1478 44.5887 10
      vertex -50 86.6025 10
    endloop
  endfacet
  facet normal 0 0 1
    outer loop
      vertex -40.1478 44.5887 10
      vertex -66.9131 74.3145 10
      vertex -48.541 35.2671 10
    endloop
  endfacet
  facet normal -0 0 1
    outer loop
      vertex -80.9017 58.7785 10
      vertex -48.541 35.2671 10
      vertex -66.9131 74.3145 10
    endloop
  endfacet
  facet normal -0 0 1
    outer loop
      vertex -91.3545 40.6737 10
      vertex -54.8127 24.4042 10
      vertex -80.9017 58.7785 10
    endloop
  endfacet
  facet normal 0 0 1
    outer loop
      vertex -48.541 35.2671 10
      vertex -80.9017 58.7785 10
      vertex -54.8127 24.4042 10
    endloop
  endfacet
  facet normal 0 0 1
    outer loop
      vertex 91.3545 -40.6737 10
      vertex 54.8127 -24.4042 10
      vertex 80.9017 -58.7785 10
    endloop
  endfacet
  facet normal -0 0 1
    outer loop
      vertex 48.541 -35.2671 10
      vertex 80.9017 -58.7785 10
      vertex 54.8127 -24.4042 10
    endloop
  endfacet
  facet normal 0 0 1
    outer loop
      vertex 80.9017 -58.7785 10
      vertex 48.541 -35.2671 10
      vertex 66.9131 -74.3145 10
    endloop
  endfacet
  facet normal -0 0 1
    outer loop
      vertex 40.1478 -44.5887 10
      vertex 66.9131 -74.3145 10
      vertex 48.541 -35.2671 10
    endloop
  endfacet
  facet normal 0 0 1
    outer loop
      vertex 66.9131 -74.3145 10
      vertex 40.1478 -44.5887 10
      vertex 50 -86.6025 10
    endloop
  endfacet
  facet normal -0 0 1
    outer loop
      vertex 30 -51.9615 10
      vertex 50 -86.6025 10
      vertex 40.1478 -44.5887 10
    endloop
  endfacet
  facet normal 0 0 1
    outer loop
      vertex 50 -86.6025 10
      vertex 30 -51.9615 10
      vertex 30.9017 -95.1057 10
    endloop
  endfacet
  facet normal -0 0 1
    outer loop
      vertex 18.541 -57.0634 10
      vertex 30.9017 -95.1057 10
      vertex 30 -51.9615 10
    endloop
  endfacet
  facet normal 0 0 1
    outer loop
      vertex 18.541 -57.0634 10
      vertex 10.4528 -99.4522 10
      vertex 30.9017 -95.1057 10
    endloop
  endfacet
  facet normal -0 0 1
    outer loop
      vertex 6.27171 -59.6713 10
      vertex 10.4528 -99.4522 10
      vertex 18.541 -57.0634 10
    endloop
  endfacet
  facet normal -0 0 1
    outer loop
      vertex -6.27171 -59.6713 10
      vertex 10.4528 -99.4522 10
      vertex 6.27171 -59.6713 10
    endloop
  endfacet
  facet normal 0 0 1
    outer loop
      vertex -6.27171 -59.6713 10
      vertex -10.4528 -99.4522 10
      vertex 10.4528 -99.4522 10
    endloop
  endfacet
  facet normal 0 0 1
    outer loop
      vertex -18.541 -57.0634 10
      vertex -10.4528 -99.4522 10
      vertex -6.27171 -59.6713 10
    endloop
  endfacet
  facet normal 0 0 1
    outer loop
      vertex -30.9017 -95.1057 10
      vertex -18.541 -57.0634 10
      vertex -30 -51.9615 10
    endloop
  endfacet
  facet normal 0 0 1
    outer loop
      vertex -18.541 -57.0634 10
      vertex -30.9017 -95.1057 10
      vertex -10.4528 -99.4522 10
    endloop
  endfacet
  facet normal 0 0 1
    outer loop
      vertex -50 -86.6025 10
      vertex -30 -51.9615 10
      vertex -40.1478 -44.5887 10
    endloop
  endfacet
  facet normal 0 0 1
    outer loop
      vertex -66.9131 -74.3145 10
      vertex -40.1478 -44.5887 10
      vertex -48.541 -35.2671 10
    endloop
  endfacet
  facet normal 0 0 1
    outer loop
      vertex -30 -51.9615 10
      vertex -50 -86.6025 10
      vertex -30.9017 -95.1057 10
    endloop
  endfacet
  facet normal 0 0 1
    outer loop
      vertex -80.9017 -58.7785 10
      vertex -48.541 -35.2671 10
      vertex -54.8127 -24.4042 10
    endloop
  endfacet
  facet normal 0 0 1
    outer loop
      vertex -91.3545 -40.6737 10
      vertex -54.8127 -24.4042 10
      vertex -58.6889 -12.4747 10
    endloop
  endfacet
  facet normal 0 0 1
    outer loop
      vertex -40.1478 -44.5887 10
      vertex -66.9131 -74.3145 10
      vertex -50 -86.6025 10
    endloop
  endfacet
  facet normal 0 0 1
    outer loop
      vertex -97.8148 -20.7912 10
      vertex -58.6889 -12.4747 10
      vertex -60 0 10
    endloop
  endfacet
  facet normal 0 0 1
    outer loop
      vertex -54.8127 24.4042 10
      vertex -91.3545 40.6737 10
      vertex -58.6889 12.4747 10
    endloop
  endfacet
  facet normal -0 0 1
    outer loop
      vertex -97.8148 20.7912 10
      vertex -58.6889 12.4747 10
      vertex -91.3545 40.6737 10
    endloop
  endfacet
  facet normal 0 0 1
    outer loop
      vertex -48.541 -35.2671 10
      vertex -80.9017 -58.7785 10
      vertex -66.9131 -74.3145 10
    endloop
  endfacet
  facet normal 0 0 1
    outer loop
      vertex -58.6889 12.4747 10
      vertex -97.8148 20.7912 10
      vertex -60 0 10
    endloop
  endfacet
  facet normal 0 0 1
    outer loop
      vertex -54.8127 -24.4042 10
      vertex -91.3545 -40.6737 10
      vertex -80.9017 -58.7785 10
    endloop
  endfacet
  facet normal 0 0 1
    outer loop
      vertex -100 0 10
      vertex -60 0 10
      vertex -97.8148 20.7912 10
    endloop
  endfacet
  facet normal 0 0 1
    outer loop
      vertex -58.6889 -12.4747 10
      vertex -97.8148 -20.7912 10
      vertex -91.3545 -40.6737 10
    endloop
  endfacet
  facet normal 0 0 1
    outer loop
      vertex -60 0 10
      vertex -100 0 10
      vertex -97.8148 -20.7912 10
    endloop
  endfacet
  facet normal -0.207912 0.978148 0
    outer loop
      vertex -10.4528 99.4522 0
      vertex -30.9017 95.1057 10
      vertex -10.4528 99.4522 10
    endloop
  endfacet
  facet normal -0.207912 0.978148 0
    outer loop
      vertex -30.9017 95.1057 10
      vertex -10.4528 99.4522 0
      vertex -30.9017 95.1057 0
    endloop
  endfacet
  facet normal 0.994522 -0.104529 0
    outer loop
      vertex 97.8148 -20.7912 10
      vertex 100 0 0
      vertex 100 0 10
    endloop
  endfacet
  facet normal 0.994522 -0.104529 0
    outer loop
      vertex 100 0 0
      vertex 97.8148 -20.7912 10
      vertex 97.8148 -20.7912 0
    endloop
  endfacet
  facet normal 0 0 -1
    outer loop
      vertex 60 0 0
      vertex 100 0 0
      vertex 97.8148 -20.7912 0
    endloop
  endfacet
  facet normal 0 0 -1
    outer loop
      vertex 58.6889 -12.4747 0
      vertex 97.8148 -20.7912 0
      vertex 91.3545 -40.6737 0
    endloop
  endfacet
  facet normal 0 0 -1
    outer loop
      vertex 100 0 0
      vertex 60 0 0
      vertex 97.8148 20.7912 0
    endloop
  endfacet
  facet normal 0 0 -1
    outer loop
      vertex 54.8127 -24.4042 0
      vertex 91.3545 -40.6737 0
      vertex 80.9017 -58.7785 0
    endloop
  endfacet
  facet normal 0 0 -1
    outer loop
      vertex 58.6889 12.4747 0
      vertex 97.8148 20.7912 0
      vertex 60 0 0
    endloop
  endfacet
  facet normal 0 0 -1
    outer loop
      vertex 48.541 -35.2671 0
      vertex 80.9017 -58.7785 0
      vertex 66.9131 -74.3145 0
    endloop
  endfacet
  facet normal -0 0 -1
    outer loop
      vertex 97.8148 20.7912 0
      vertex 58.6889 12.4747 0
      vertex 91.3545 40.6737 0
    endloop
  endfacet
  facet normal 0 0 -1
    outer loop
      vertex 54.8127 24.4042 0
      vertex 91.3545 40.6737 0
      vertex 58.6889 12.4747 0
    endloop
  endfacet
  facet normal 0 0 -1
    outer loop
      vertex 97.8148 -20.7912 0
      vertex 58.6889 -12.4747 0
      vertex 60 0 0
    endloop
  endfacet
  facet normal 0 0 -1
    outer loop
      vertex 91.3545 -40.6737 0
      vertex 54.8127 -24.4042 0
      vertex 58.6889 -12.4747 0
    endloop
  endfacet
  facet normal 0 0 -1
    outer loop
      vertex 40.1478 -44.5887 0
      vertex 66.9131 -74.3145 0
      vertex 50 -86.6025 0
    endloop
  endfacet
  facet normal 0 0 -1
    outer loop
      vertex 80.9017 -58.7785 0
      vertex 48.541 -35.2671 0
      vertex 54.8127 -24.4042 0
    endloop
  endfacet
  facet normal 0 0 -1
    outer loop
      vertex 66.9131 -74.3145 0
      vertex 40.1478 -44.5887 0
      vertex 48.541 -35.2671 0
    endloop
  endfacet
  facet normal 0 0 -1
    outer loop
      vertex 30 -51.9615 0
      vertex 50 -86.6025 0
      vertex 30.9017 -95.1057 0
    endloop
  endfacet
  facet normal 0 0 -1
    outer loop
      vertex 50 -86.6025 0
      vertex 30 -51.9615 0
      vertex 40.1478 -44.5887 0
    endloop
  endfacet
  facet normal 0 0 -1
    outer loop
      vertex 30.9017 -95.1057 0
      vertex 18.541 -57.0634 0
      vertex 30 -51.9615 0
    endloop
  endfacet
  facet normal 0 0 -1
    outer loop
      vertex 10.4528 -99.4522 0
      vertex 18.541 -57.0634 0
      vertex 30.9017 -95.1057 0
    endloop
  endfacet
  facet normal 0 0 -1
    outer loop
      vertex 10.4528 -99.4522 0
      vertex 6.27171 -59.6713 0
      vertex 18.541 -57.0634 0
    endloop
  endfacet
  facet normal 0 0 -1
    outer loop
      vertex 10.4528 -99.4522 0
      vertex -6.27171 -59.6713 0
      vertex 6.27171 -59.6713 0
    endloop
  endfacet
  facet normal 0 0 -1
    outer loop
      vertex -10.4528 -99.4522 0
      vertex -6.27171 -59.6713 0
      vertex 10.4528 -99.4522 0
    endloop
  endfacet
  facet normal 0 0 -1
    outer loop
      vertex -10.4528 -99.4522 0
      vertex -18.541 -57.0634 0
      vertex -6.27171 -59.6713 0
    endloop
  endfacet
  facet normal 0 0 -1
    outer loop
      vertex -30.9017 -95.1057 0
      vertex -18.541 -57.0634 0
      vertex -10.4528 -99.4522 0
    endloop
  endfacet
  facet normal -0 0 -1
    outer loop
      vertex -18.541 -57.0634 0
      vertex -30.9017 -95.1057 0
      vertex -30 -51.9615 0
    endloop
  endfacet
  facet normal 0 0 -1
    outer loop
      vertex -50 -86.6025 0
      vertex -30 -51.9615 0
      vertex -30.9017 -95.1057 0
    endloop
  endfacet
  facet normal -0 0 -1
    outer loop
      vertex -30 -51.9615 0
      vertex -50 -86.6025 0
      vertex -40.1478 -44.5887 0
    endloop
  endfacet
  facet normal 0 0 -1
    outer loop
      vertex -66.9131 -74.3145 0
      vertex -40.1478 -44.5887 0
      vertex -50 -86.6025 0
    endloop
  endfacet
  facet normal -0 0 -1
    outer loop
      vertex -40.1478 -44.5887 0
      vertex -66.9131 -74.3145 0
      vertex -48.541 -35.2671 0
    endloop
  endfacet
  facet normal 0 0 -1
    outer loop
      vertex -80.9017 -58.7785 0
      vertex -48.541 -35.2671 0
      vertex -66.9131 -74.3145 0
    endloop
  endfacet
  facet normal 0 0 -1
    outer loop
      vertex -91.3545 -40.6737 0
      vertex -54.8127 -24.4042 0
      vertex -80.9017 -58.7785 0
    endloop
  endfacet
  facet normal -0 0 -1
    outer loop
      vertex -48.541 -35.2671 0
      vertex -80.9017 -58.7785 0
      vertex -54.8127 -24.4042 0
    endloop
  endfacet
  facet normal -0 0 -1
    outer loop
      vertex 91.3545 40.6737 0
      vertex 54.8127 24.4042 0
      vertex 80.9017 58.7785 0
    endloop
  endfacet
  facet normal 0 0 -1
    outer loop
      vertex 48.541 35.2671 0
      vertex 80.9017 58.7785 0
      vertex 54.8127 24.4042 0
    endloop
  endfacet
  facet normal -0 0 -1
    outer loop
      vertex 80.9017 58.7785 0
      vertex 48.541 35.2671 0
      vertex 66.9131 74.3145 0
    endloop
  endfacet
  facet normal 0 0 -1
    outer loop
      vertex 40.1478 44.5887 0
      vertex 66.9131 74.3145 0
      vertex 48.541 35.2671 0
    endloop
  endfacet
  facet normal -0 0 -1
    outer loop
      vertex 66.9131 74.3145 0
      vertex 40.1478 44.5887 0
      vertex 50 86.6025 0
    endloop
  endfacet
  facet normal 0 0 -1
    outer loop
      vertex 30 51.9615 0
      vertex 50 86.6025 0
      vertex 40.1478 44.5887 0
    endloop
  endfacet
  facet normal -0 0 -1
    outer loop
      vertex 50 86.6025 0
      vertex 30 51.9615 0
      vertex 30.9017 95.1057 0
    endloop
  endfacet
  facet normal 0 0 -1
    outer loop
      vertex 18.541 57.0634 0
      vertex 30.9017 95.1057 0
      vertex 30 51.9615 0
    endloop
  endfacet
  facet normal 0 0 -1
    outer loop
      vertex 18.541 57.0634 0
      vertex 10.4528 99.4522 0
      vertex 30.9017 95.1057 0
    endloop
  endfacet
  facet normal 0 0 -1
    outer loop
      vertex 6.27171 59.6713 0
      vertex 10.4528 99.4522 0
      vertex 18.541 57.0634 0
    endloop
  endfacet
  facet normal 0 0 -1
    outer loop
      vertex -6.27171 59.6713 0
      vertex 10.4528 99.4522 0
      vertex 6.27171 59.6713 0
    endloop
  endfacet
  facet normal 0 0 -1
    outer loop
      vertex -6.27171 59.6713 0
      vertex -10.4528 99.4522 0
      vertex 10.4528 99.4522 0
    endloop
  endfacet
  facet normal 0 0 -1
    outer loop
      vertex -18.541 57.0634 0
      vertex -10.4528 99.4522 0
      vertex -6.27171 59.6713 0
    endloop
  endfacet
  facet normal 0 0 -1
    outer loop
      vertex -30.9017 95.1057 0
      vertex -18.541 57.0634 0
      vertex -30 51.9615 0
    endloop
  endfacet
  facet normal 0 0 -1
    outer loop
      vertex -18.541 57.0634 0
      vertex -30.9017 95.1057 0
      vertex -10.4528 99.4522 0
    endloop
  endfacet
  facet normal 0 0 -1
    outer loop
      vertex -50 86.6025 0
      vertex -30 51.9615 0
      vertex -40.1478 44.5887 0
    endloop
  endfacet
  facet normal 0 0 -1
    outer loop
      vertex -66.9131 74.3145 0
      vertex -40.1478 44.5887 0
      vertex -48.541 35.2671 0
    endloop
  endfacet
  facet normal 0 0 -1
    outer loop
      vertex -30 51.9615 0
      vertex -50 86.6025 0
      vertex -30.9017 95.1057 0
    endloop
  endfacet
  facet normal 0 0 -1
    outer loop
      vertex -80.9017 58.7785 0
      vertex -48.541 35.2671 0
      vertex -54.8127 24.4042 0
    endloop
  endfacet
  facet normal 0 0 -1
    outer loop
      vertex -91.3545 40.6737 0
      vertex -54.8127 24.4042 0
      vertex -58.6889 12.4747 0
    endloop
  endfacet
  facet normal 0 0 -1
    outer loop
      vertex -40.1478 44.5887 0
      vertex -66.9131 74.3145 0
      vertex -50 86.6025 0
    endloop
  endfacet
  facet normal 0 0 -1
    outer loop
      vertex -97.8148 20.7912 0
      vertex -58.6889 12.4747 0
      vertex -60 0 0
    endloop
  endfacet
  facet normal -0 0 -1
    outer loop
      vertex -54.8127 -24.4042 0
      vertex -91.3545 -40.6737 0
      vertex -58.6889 -12.4747 0
    endloop
  endfacet
  facet normal 0 0 -1
    outer loop
      vertex -97.8148 -20.7912 0
      vertex -58.6889 -12.4747 0
      vertex -91.3545 -40.6737 0
    endloop
  endfacet
  facet normal 0 0 -1
    outer loop
      vertex -48.541 35.2671 0
      vertex -80.9017 58.7785 0
      vertex -66.9131 74.3145 0
    endloop
  endfacet
  facet normal -0 0 -1
    outer loop
      vertex -58.6889 -12.4747 0
      vertex -97.8148 -20.7912 0
      vertex -60 0 0
    endloop
  endfacet
  facet normal 0 0 -1
    outer loop
      vertex -54.8127 24.4042 0
      vertex -91.3545 40.6737 0
      vertex -80.9017 58.7785 0
    endloop
  endfacet
  facet normal 0 0 -1
    outer loop
      vertex -100 0 0
      vertex -60 0 0
      vertex -97.8148 -20.7912 0
    endloop
  endfacet
  facet normal 0 0 -1
    outer loop
      vertex -58.6889 12.4747 0
      vertex -97.8148 20.7912 0
      vertex -91.3545 40.6737 0
    endloop
  endfacet
  facet normal 0 0 -1
    outer loop
      vertex -60 0 0
      vertex -100 0 0
      vertex -97.8148 20.7912 0
    endloop
  endfacet
  facet normal 0.743145 -0.669131 0
    outer loop
      vertex 66.9131 -74.3145 10
      vertex 80.9017 -58.7785 0
      vertex 80.9017 -58.7785 10
    endloop
  endfacet
  facet normal 0.743145 -0.669131 0
    outer loop
      vertex 80.9017 -58.7785 0
      vertex 66.9131 -74.3145 10
      vertex 66.9131 -74.3145 0
    endloop
  endfacet
  facet normal 0.951057 -0.309017 0
    outer loop
      vertex 91.3545 -40.6737 10
      vertex 97.8148 -20.7912 0
      vertex 97.8148 -20.7912 10
    endloop
  endfacet
  facet normal 0.951057 -0.309017 0
    outer loop
      vertex 97.8148 -20.7912 0
      vertex 91.3545 -40.6737 10
      vertex 91.3545 -40.6737 0
    endloop
  endfacet
  facet normal 0.866025 -0.5 0
    outer loop
      vertex 80.9017 -58.7785 10
      vertex 91.3545 -40.6737 0
      vertex 91.3545 -40.6737 10
    endloop
  endfacet
  facet normal 0.866025 -0.5 0
    outer loop
      vertex 91.3545 -40.6737 0
      vertex 80.9017 -58.7785 10
      vertex 80.9017 -58.7785 0
    endloop
  endfacet
  facet normal -0.587785 -0.809017 0
    outer loop
      vertex -66.9131 -74.3145 0
      vertex -50 -86.6025 10
      vertex -66.9131 -74.3145 10
    endloop
  endfacet
  facet normal -0.587785 -0.809017 -0
    outer loop
      vertex -50 -86.6025 10
      vertex -66.9131 -74.3145 0
      vertex -50 -86.6025 0
    endloop
  endfacet
  facet normal -0.866025 -0.5 0
    outer loop
      vertex -80.9017 -58.7785 0
      vertex -91.3545 -40.6737 10
      vertex -91.3545 -40.6737 0
    endloop
  endfacet
  facet normal -0.866025 -0.5 0
    outer loop
      vertex -91.3545 -40.6737 10
      vertex -80.9017 -58.7785 0
      vertex -80.9017 -58.7785 10
    endloop
  endfacet
  facet normal -0.994522 -0.104529 0
    outer loop
      vertex -97.8148 -20.7912 0
      vertex -100 0 10
      vertex -100 0 0
    endloop
  endfacet
  facet normal -0.994522 -0.104529 0
    outer loop
      vertex -100 0 10
      vertex -97.8148 -20.7912 0
      vertex -97.8148 -20.7912 10
    endloop
  endfacet
  facet normal 0.587785 -0.809017 0
    outer loop
      vertex 50 -86.6025 0
      vertex 66.9131 -74.3145 10
      vertex 50 -86.6025 10
    endloop
  endfacet
  facet normal 0.587785 -0.809017 0
    outer loop
      vertex 66.9131 -74.3145 10
      vertex 50 -86.6025 0
      vertex 66.9131 -74.3145 0
    endloop
  endfacet
  facet normal -0.406737 -0.913545 0
    outer loop
      vertex -50 -86.6025 0
      vertex -30.9017 -95.1057 10
      vertex -50 -86.6025 10
    endloop
  endfacet
  facet normal -0.406737 -0.913545 -0
    outer loop
      vertex -30.9017 -95.1057 10
      vertex -50 -86.6025 0
      vertex -30.9017 -95.1057 0
    endloop
  endfacet
  facet normal -0.743145 -0.669131 0
    outer loop
      vertex -66.9131 -74.3145 0
      vertex -80.9017 -58.7785 10
      vertex -80.9017 -58.7785 0
    endloop
  endfacet
  facet normal -0.743145 -0.669131 0
    outer loop
      vertex -80.9017 -58.7785 10
      vertex -66.9131 -74.3145 0
      vertex -66.9131 -74.3145 10
    endloop
  endfacet
  facet normal -0.951057 -0.309017 0
    outer loop
      vertex -91.3545 -40.6737 0
      vertex -97.8148 -20.7912 10
      vertex -97.8148 -20.7912 0
    endloop
  endfacet
  facet normal -0.951057 -0.309017 0
    outer loop
      vertex -97.8148 -20.7912 10
      vertex -91.3545 -40.6737 0
      vertex -91.3545 -40.6737 10
    endloop
  endfacet
  facet normal 0.406737 -0.913545 0
    outer loop
      vertex 30.9017 -95.1057 0
      vertex 50 -86.6025 10
      vertex 30.9017 -95.1057 10
    endloop
  endfacet
  facet normal 0.406737 -0.913545 0
    outer loop
      vertex 50 -86.6025 10
      vertex 30.9017 -95.1057 0
      vertex 50 -86.6025 0
    endloop
  endfacet
  facet normal 0.207912 -0.978148 0
    outer loop
      vertex 10.4528 -99.4522 0
      vertex 30.9017 -95.1057 10
      vertex 10.4528 -99.4522 10
    endloop
  endfacet
  facet normal 0.207912 -0.978148 0
    outer loop
      vertex 30.9017 -95.1057 10
      vertex 10.4528 -99.4522 0
      vertex 30.9017 -95.1057 0
    endloop
  endfacet
  facet normal -0.207912 -0.978148 0
    outer loop
      vertex -30.9017 -95.1057 0
      vertex -10.4528 -99.4522 10
      vertex -30.9017 -95.1057 10
    endloop
  endfacet
  facet normal -0.207912 -0.978148 -0
    outer loop
      vertex -10.4528 -99.4522 10
      vertex -30.9017 -95.1057 0
      vertex -10.4528 -99.4522 0
    endloop
  endfacet
  facet normal -0.994522 -0.104529 0
    outer loop
      vertex 60 0 0
      vertex 58.6889 12.4747 10
      vertex 58.6889 12.4747 0
    endloop
  endfacet
  facet normal -0.994522 -0.104529 0
    outer loop
      vertex 58.6889 12.4747 10
      vertex 60 0 0
      vertex 60 0 10
    endloop
  endfacet
  facet normal 0.994522 -0.104529 0
    outer loop
      vertex -60 0 10
      vertex -58.6889 12.4747 0
      vertex -58.6889 12.4747 10
    endloop
  endfacet
  facet normal 0.994522 -0.104529 0
    outer loop
      vertex -58.6889 12.4747 0
      vertex -60 0 10
      vertex -60 0 0
    endloop
  endfacet
  facet normal 0 -1 0
    outer loop
      vertex -6.27171 59.6713 0
      vertex 6.27171 59.6713 10
      vertex -6.27171 59.6713 10
    endloop
  endfacet
  facet normal 0 -1 -0
    outer loop
      vertex 6.27171 59.6713 10
      vertex -6.27171 59.6713 0
      vertex 6.27171 59.6713 0
    endloop
  endfacet
  facet normal -0.587785 -0.809017 0
    outer loop
      vertex 30 51.9615 0
      vertex 40.1478 44.5887 10
      vertex 30 51.9615 10
    endloop
  endfacet
  facet normal -0.587785 -0.809017 -0
    outer loop
      vertex 40.1478 44.5887 10
      vertex 30 51.9615 0
      vertex 40.1478 44.5887 0
    endloop
  endfacet
  facet normal -0.406737 -0.913545 0
    outer loop
      vertex 18.541 57.0634 0
      vertex 30 51.9615 10
      vertex 18.541 57.0634 10
    endloop
  endfacet
  facet normal -0.406737 -0.913545 -0
    outer loop
      vertex 30 51.9615 10
      vertex 18.541 57.0634 0
      vertex 30 51.9615 0
    endloop
  endfacet
  facet normal 0.743145 -0.669131 0
    outer loop
      vertex -48.541 35.2671 10
      vertex -40.1478 44.5887 0
      vertex -40.1478 44.5887 10
    endloop
  endfacet
  facet normal 0.743145 -0.669131 0
    outer loop
      vertex -40.1478 44.5887 0
      vertex -48.541 35.2671 10
      vertex -48.541 35.2671 0
    endloop
  endfacet
  facet normal 0.866025 -0.5 0
    outer loop
      vertex -54.8127 24.4042 10
      vertex -48.541 35.2671 0
      vertex -48.541 35.2671 10
    endloop
  endfacet
  facet normal 0.866025 -0.5 0
    outer loop
      vertex -48.541 35.2671 0
      vertex -54.8127 24.4042 10
      vertex -54.8127 24.4042 0
    endloop
  endfacet
  facet normal 0.406737 -0.913545 0
    outer loop
      vertex -30 51.9615 0
      vertex -18.541 57.0634 10
      vertex -30 51.9615 10
    endloop
  endfacet
  facet normal 0.406737 -0.913545 0
    outer loop
      vertex -18.541 57.0634 10
      vertex -30 51.9615 0
      vertex -18.541 57.0634 0
    endloop
  endfacet
  facet normal -0.866025 -0.5 0
    outer loop
      vertex 54.8127 24.4042 0
      vertex 48.541 35.2671 10
      vertex 48.541 35.2671 0
    endloop
  endfacet
  facet normal -0.866025 -0.5 0
    outer loop
      vertex 48.541 35.2671 10
      vertex 54.8127 24.4042 0
      vertex 54.8127 24.4042 10
    endloop
  endfacet
  facet normal -0.951057 -0.309017 0
    outer loop
      vertex 58.6889 12.4747 0
      vertex 54.8127 24.4042 10
      vertex 54.8127 24.4042 0
    endloop
  endfacet
  facet normal -0.951057 -0.309017 0
    outer loop
      vertex 54.8127 24.4042 10
      vertex 58.6889 12.4747 0
      vertex 58.6889 12.4747 10
    endloop
  endfacet
  facet normal -0.743145 -0.669131 0
    outer loop
      vertex 48.541 35.2671 0
      vertex 40.1478 44.5887 10
      vertex 40.1478 44.5887 0
    endloop
  endfacet
  facet normal -0.743145 -0.669131 0
    outer loop
      vertex 40.1478 44.5887 10
      vertex 48.541 35.2671 0
      vertex 48.541 35.2671 10
    endloop
  endfacet
  facet normal -0.207912 -0.978148 0
    outer loop
      vertex 6.27171 59.6713 0
      vertex 18.541 57.0634 10
      vertex 6.27171 59.6713 10
    endloop
  endfacet
  facet normal -0.207912 -0.978148 -0
    outer loop
      vertex 18.541 57.0634 10
      vertex 6.27171 59.6713 0
      vertex 18.541 57.0634 0
    endloop
  endfacet
  facet normal 0.951057 -0.309017 0
    outer loop
      vertex -58.6889 12.4747 10
      vertex -54.8127 24.4042 0
      vertex -54.8127 24.4042 10
    endloop
  endfacet
  facet normal 0.951057 -0.309017 0
    outer loop
      vertex -54.8127 24.4042 0
      vertex -58.6889 12.4747 10
      vertex -58.6889 12.4747 0
    endloop
  endfacet
  facet normal 0.587785 -0.809017 0
    outer loop
      vertex -40.1478 44.5887 0
      vertex -30 51.9615 10
      vertex -40.1478 44.5887 10
    endloop
  endfacet
  facet normal 0.587785 -0.809017 0
    outer loop
      vertex -30 51.9615 10
      vertex -40.1478 44.5887 0
      vertex -30 51.9615 0
    endloop
  endfacet
  facet normal 0.207912 -0.978148 0
    outer loop
      vertex -18.541 57.0634 0
      vertex -6.27171 59.6713 10
      vertex -18.541 57.0634 10
    endloop
  endfacet
  facet normal 0.207912 -0.978148 0
    outer loop
      vertex -6.27171 59.6713 10
      vertex -18.541 57.0634 0
      vertex -6.27171 59.6713 0
    endloop
  endfacet
  facet normal -0.994522 0.104529 0
    outer loop
      vertex 58.6889 -12.4747 0
      vertex 60 0 10
      vertex 60 0 0
    endloop
  endfacet
  facet normal -0.994522 0.104529 0
    outer loop
      vertex 60 0 10
      vertex 58.6889 -12.4747 0
      vertex 58.6889 -12.4747 10
    endloop
  endfacet
  facet normal 0.207912 0.978148 -0
    outer loop
      vertex -6.27171 -59.6713 0
      vertex -18.541 -57.0634 10
      vertex -6.27171 -59.6713 10
    endloop
  endfacet
  facet normal 0.207912 0.978148 0
    outer loop
      vertex -18.541 -57.0634 10
      vertex -6.27171 -59.6713 0
      vertex -18.541 -57.0634 0
    endloop
  endfacet
  facet normal -0.207912 0.978148 0
    outer loop
      vertex 18.541 -57.0634 0
      vertex 6.27171 -59.6713 10
      vertex 18.541 -57.0634 10
    endloop
  endfacet
  facet normal -0.207912 0.978148 0
    outer loop
      vertex 6.27171 -59.6713 10
      vertex 18.541 -57.0634 0
      vertex 6.27171 -59.6713 0
    endloop
  endfacet
  facet normal -0.743145 0.669131 0
    outer loop
      vertex 40.1478 -44.5887 0
      vertex 48.541 -35.2671 10
      vertex 48.541 -35.2671 0
    endloop
  endfacet
  facet normal -0.743145 0.669131 0
    outer loop
      vertex 48.541 -35.2671 10
      vertex 40.1478 -44.5887 0
      vertex 40.1478 -44.5887 10
    endloop
  endfacet
  facet normal -0.951057 0.309017 0
    outer loop
      vertex 54.8127 -24.4042 0
      vertex 58.6889 -12.4747 10
      vertex 58.6889 -12.4747 0
    endloop
  endfacet
  facet normal -0.951057 0.309017 0
    outer loop
      vertex 58.6889 -12.4747 10
      vertex 54.8127 -24.4042 0
      vertex 54.8127 -24.4042 10
    endloop
  endfacet
  facet normal -0.866025 0.5 0
    outer loop
      vertex 48.541 -35.2671 0
      vertex 54.8127 -24.4042 10
      vertex 54.8127 -24.4042 0
    endloop
  endfacet
  facet normal -0.866025 0.5 0
    outer loop
      vertex 54.8127 -24.4042 10
      vertex 48.541 -35.2671 0
      vertex 48.541 -35.2671 10
    endloop
  endfacet
  facet normal 0.866025 0.5 0
    outer loop
      vertex -48.541 -35.2671 10
      vertex -54.8127 -24.4042 0
      vertex -54.8127 -24.4042 10
    endloop
  endfacet
  facet normal 0.866025 0.5 0
    outer loop
      vertex -54.8127 -24.4042 0
      vertex -48.541 -35.2671 10
      vertex -48.541 -35.2671 0
    endloop
  endfacet
  facet normal 0.994522 0.104529 0
    outer loop
      vertex -58.6889 -12.4747 10
      vertex -60 0 0
      vertex -60 0 10
    endloop
  endfacet
  facet normal 0.994522 0.104529 0
    outer loop
      vertex -60 0 0
      vertex -58.6889 -12.4747 10
      vertex -58.6889 -12.4747 0
    endloop
  endfacet
  facet normal 0.951057 0.309017 0
    outer loop
      vertex -54.8127 -24.4042 10
      vertex -58.6889 -12.4747 0
      vertex -58.6889 -12.4747 10
    endloop
  endfacet
  facet normal 0.951057 0.309017 0
    outer loop
      vertex -58.6889 -12.4747 0
      vertex -54.8127 -24.4042 10
      vertex -54.8127 -24.4042 0
    endloop
  endfacet
  facet normal -0.587785 0.809017 0
    outer loop
      vertex 40.1478 -44.5887 0
      vertex 30 -51.9615 10
      vertex 40.1478 -44.5887 10
    endloop
  endfacet
  facet normal -0.587785 0.809017 0
    outer loop
      vertex 30 -51.9615 10
      vertex 40.1478 -44.5887 0
      vertex 30 -51.9615 0
    endloop
  endfacet
  facet normal -0.406737 0.913545 0
    outer loop
      vertex 30 -51.9615 0
      vertex 18.541 -57.0634 10
      vertex 30 -51.9615 10
    endloop
  endfacet
  facet normal -0.406737 0.913545 0
    outer loop
      vertex 18.541 -57.0634 10
      vertex 30 -51.9615 0
      vertex 18.541 -57.0634 0
    endloop
  endfacet
  facet normal 0 1 -0
    outer loop
      vertex 6.27171 -59.6713 0
      vertex -6.27171 -59.6713 10
      vertex 6.27171 -59.6713 10
    endloop
  endfacet
  facet normal 0 1 0
    outer loop
      vertex -6.27171 -59.6713 10
      vertex 6.27171 -59.6713 0
      vertex -6.27171 -59.6713 0
    endloop
  endfacet
  facet normal 0.406737 0.913545 -0
    outer loop
      vertex -18.541 -57.0634 0
      vertex -30 -51.9615 10
      vertex -18.541 -57.0634 10
    endloop
  endfacet
  facet normal 0.406737 0.913545 0
    outer loop
      vertex -30 -51.9615 10
      vertex -18.541 -57.0634 0
      vertex -30 -51.9615 0
    endloop
  endfacet
  facet normal 0.743145 0.669131 0
    outer loop
      vertex -40.1478 -44.5887 10
      vertex -48.541 -35.2671 0
      vertex -48.541 -35.2671 10
    endloop
  endfacet
  facet normal 0.743145 0.669131 0
    outer loop
      vertex -48.541 -35.2671 0
      vertex -40.1478 -44.5887 10
      vertex -40.1478 -44.5887 0
    endloop
  endfacet
  facet normal 0.587785 0.809017 -0
    outer loop
      vertex -30 -51.9615 0
      vertex -40.1478 -44.5887 10
      vertex -30 -51.9615 10
    endloop
  endfacet
  facet normal 0.587785 0.809017 0
    outer loop
      vertex -40.1478 -44.5887 10
      vertex -30 -51.9615 0
      vertex -40.1478 -44.5887 0
    endloop
  endfacet
endsolid OpenSCAD_Model
