<svg xmlns="http://www.w3.org/2000/svg" viewBox="0 0 400 400"><defs><style>.cls-1{fill:#f4f3f1;}.cls-2{fill:none;stroke:#009345;stroke-miterlimit:10;}.cls-3{fill:#4a4a4a;}</style></defs><title>tile_3</title><g id="Background"><rect id="Rectangle-5-Copy-16" class="cls-1" width="400" height="400"/></g><g id="Lines"><rect class="cls-2" x="-122.35" y="-77.65" width="125" height="125" transform="translate(-14.65 26.9) rotate(28.73)"/><circle class="cls-3" cx="226.79" cy="132.54" r="12.5"/><circle class="cls-3" cx="310.34" cy="139.66" r="12.5"/><circle class="cls-3" cx="275.49" cy="153.52" r="12.5"/><circle class="cls-3" cx="240.65" cy="167.38" r="12.5"/><circle class="cls-3" cx="212.93" cy="97.69" r="12.5"/><circle class="cls-3" cx="247.77" cy="83.83" r="12.5"/><circle class="cls-3" cx="282.62" cy="69.97" r="12.5"/><circle class="cls-3" cx="296.48" cy="104.81" r="12.5"/><circle class="cls-3" cx="24.54" cy="49.88" r="12.5"/><circle class="cls-3" cx="91.98" cy="99.71" r="12.5"/><circle class="cls-3" cx="55.04" cy="93.27" r="12.5"/><circle class="cls-3" cx="18.1" cy="86.83" r="12.5"/><circle class="cls-3" cx="30.98" cy="12.94" r="12.5"/><circle class="cls-3" cx="67.92" cy="19.38" r="12.5"/><circle class="cls-3" cx="104.87" cy="25.83" r="12.5"/><circle class="cls-3" cx="98.42" cy="62.77" r="12.5"/><circle class="cls-3" cx="252.43" cy="335.54" r="12.5"/><circle class="cls-3" cx="321.37" cy="287.79" r="12.5"/><circle class="cls-3" cx="303.34" cy="320.68" r="12.5"/><circle class="cls-3" cx="285.32" cy="353.56" r="12.5"/><circle class="cls-3" cx="219.55" cy="317.51" r="12.5"/><circle class="cls-3" cx="237.57" cy="284.63" r="12.5"/><circle class="cls-3" cx="255.6" cy="251.74" r="12.5"/><circle class="cls-3" cx="288.48" cy="269.77" r="12.5"/><circle class="cls-3" cx="372.13" cy="17.73" r="12.5"/><circle class="cls-3" cx="405.01" cy="35.76" r="12.5"/><circle class="cls-3" cx="339.24" cy="-0.29" r="12.5"/><circle class="cls-3" cx="339.8" cy="405.96" r="12.5"/><circle class="cls-3" cx="89.97" cy="237.54" r="12.5"/><circle class="cls-3" cx="171.31" cy="217.19" r="12.5"/><circle class="cls-3" cx="142.84" cy="241.6" r="12.5"/><circle class="cls-3" cx="114.38" cy="266.01" r="12.5"/><circle class="cls-3" cx="65.56" cy="209.07" r="12.5"/><circle class="cls-3" cx="94.03" cy="184.66" r="12.5"/><circle class="cls-3" cx="122.49" cy="160.25" r="12.5"/><circle class="cls-3" cx="146.9" cy="188.72" r="12.5"/><circle class="cls-3" cx="7.13" cy="387.72" r="12.5"/><circle class="cls-3" cx="90.57" cy="396.06" r="12.5"/><circle class="cls-3" cx="55.53" cy="409.41" r="12.5"/><circle class="cls-3" cx="-6.22" cy="352.68" r="12.5"/><circle class="cls-3" cx="28.83" cy="339.33" r="12.5"/><circle class="cls-3" cx="63.87" cy="325.98" r="12.5"/><circle class="cls-3" cx="77.22" cy="361.02" r="12.5"/></g></svg>