<svg id="Layer_1" data-name="Layer 1" xmlns="http://www.w3.org/2000/svg" viewBox="0 0 237 70"><defs><style>.cls-1{fill:none;stroke:#ff1d25;stroke-linecap:round;stroke-linejoin:round;stroke-width:5px;}.cls-2{fill:#00223f;}</style></defs><title>smudge_blue</title><polyline class="cls-1" points="76.5 8.98 69.41 4.28 62.31 6.42 55.21 9.67 48.11 8.92 41.02 8.77 33.92 4.74 26.82 10.44 19.72 9.96 12.61 9.43 5.5 4.05"/><path class="cls-2" d="M5.33,23.27Q8.45,20.69,14,20.69a14.57,14.57,0,0,1,7.71,1.83,13.1,13.1,0,0,1,3.09,2.6,2.55,2.55,0,0,1-.61,3.81l-.19.12a2.53,2.53,0,0,1-3.24-.52,9.3,9.3,0,0,0-1.69-1.48,9,9,0,0,0-5.2-1.32,8.79,8.79,0,0,0-4.44,1,3.25,3.25,0,0,0-1.79,2.93,2.91,2.91,0,0,0,.57,1.86,4.84,4.84,0,0,0,1.57,1.26,10.47,10.47,0,0,0,2.36.88c.9.23,1.9.47,3,.72,1.3.3,2.63.61,4,1a12.77,12.77,0,0,1,3.65,1.51,8.17,8.17,0,0,1,2.68,2.68,8.19,8.19,0,0,1,1,4.37,9.82,9.82,0,0,1-.91,4.38A8.3,8.3,0,0,1,23,51.35a10.92,10.92,0,0,1-3.84,1.76,19,19,0,0,1-4.78.57,22.27,22.27,0,0,1-4.28-.41A15.15,15.15,0,0,1,6.18,52a14.05,14.05,0,0,1-3.3-2.3,9.14,9.14,0,0,1-.86-.9A2.55,2.55,0,0,1,2.6,45l.19-.12a2.6,2.6,0,0,1,3.38.61A7.45,7.45,0,0,0,9,47.54a14,14,0,0,0,5.51,1.1,9.11,9.11,0,0,0,4.82-1.07A3.58,3.58,0,0,0,21,44.3a3.48,3.48,0,0,0-.5-1.95,3.88,3.88,0,0,0-1.42-1.26,9.62,9.62,0,0,0-2.2-.85c-.86-.23-1.82-.45-2.87-.66-1.3-.25-2.64-.58-4-1A15.88,15.88,0,0,1,6.21,37a9,9,0,0,1-2.86-2.7A7.39,7.39,0,0,1,2.22,30,8.32,8.32,0,0,1,5.33,23.27Z"/><path class="cls-2" d="M62.53,22.42a13.16,13.16,0,0,1,7.17-1.73,14.13,14.13,0,0,1,5.61,1,9.7,9.7,0,0,1,3.81,2.86A11.77,11.77,0,0,1,81.26,29a23.39,23.39,0,0,1,.66,5.79v15.4a2.74,2.74,0,0,1-2.74,2.73h0a2.74,2.74,0,0,1-2.74-2.73V34.1q0-4.09-1.83-6.23a6.77,6.77,0,0,0-5.47-2.14,9.31,9.31,0,0,0-4.5,1,7.63,7.63,0,0,0-2.87,2.65,11.13,11.13,0,0,0-1.51,4,26.58,26.58,0,0,0-.44,4.95v12a2.7,2.7,0,0,1-2.71,2.7h0a2.7,2.7,0,0,1-2.7-2.7V34.1q0-4.09-1.86-6.23A7,7,0,0,0,47,25.73a9.13,9.13,0,0,0-4.47,1,7.46,7.46,0,0,0-2.81,2.68,11.36,11.36,0,0,0-1.44,4,27.07,27.07,0,0,0-.41,4.88v12a2.7,2.7,0,0,1-2.71,2.7h0a2.71,2.71,0,0,1-2.71-2.7V24.06a2.61,2.61,0,0,1,2.62-2.61h0a2.61,2.61,0,0,1,2.61,2.61v1.79a10.5,10.5,0,0,1,4-3.78,12.43,12.43,0,0,1,6.05-1.38,11.54,11.54,0,0,1,6.55,1.7A10.44,10.44,0,0,1,58,26.92,15.33,15.33,0,0,1,62.53,22.42Z"/><path class="cls-2" d="M115.19,52.92h0a2.61,2.61,0,0,1-2.62-2.61V48.39a12.76,12.76,0,0,1-4.15,4,11.92,11.92,0,0,1-5.92,1.32,13.22,13.22,0,0,1-5.57-1,9.58,9.58,0,0,1-3.62-2.83,11.19,11.19,0,0,1-2-4.28,23.84,23.84,0,0,1-.59-5.45v-16a2.61,2.61,0,0,1,2.61-2.61h.31a2.61,2.61,0,0,1,2.62,2.61v16a17.66,17.66,0,0,0,.31,3.46,6.91,6.91,0,0,0,1.13,2.71A5.38,5.38,0,0,0,99.92,48a8.53,8.53,0,0,0,3.52.63,8.44,8.44,0,0,0,4.44-1,7.58,7.58,0,0,0,2.74-2.77,11.85,11.85,0,0,0,1.39-4,29,29,0,0,0,.37-4.73v-12A2.61,2.61,0,0,1,115,21.45h.19a2.61,2.61,0,0,1,2.61,2.61V50.31A2.61,2.61,0,0,1,115.19,52.92Z"/><path class="cls-2" d="M153.05,52.92h0a2.71,2.71,0,0,1-2.71-2.7V48.39a13.26,13.26,0,0,1-11.08,5.29,15.44,15.44,0,0,1-6-1.17,13.72,13.72,0,0,1-4.82-3.3A15.75,15.75,0,0,1,125.25,44a19.24,19.24,0,0,1-1.16-6.84,19.23,19.23,0,0,1,1.16-6.83,15.75,15.75,0,0,1,3.18-5.19,13.88,13.88,0,0,1,4.82-3.31,15.62,15.62,0,0,1,6-1.16,13.15,13.15,0,0,1,6.46,1.48A15.9,15.9,0,0,1,150.34,26V11.56a2.72,2.72,0,0,1,2.71-2.71h0a2.71,2.71,0,0,1,2.71,2.71V50.22A2.7,2.7,0,0,1,153.05,52.92ZM135.8,26.58a9.4,9.4,0,0,0-3.31,2.36,10.3,10.3,0,0,0-2.07,3.62,15,15,0,0,0,0,9.25,10.39,10.39,0,0,0,2.07,3.62,9.4,9.4,0,0,0,3.31,2.36,10.88,10.88,0,0,0,4.41.85,9.89,9.89,0,0,0,7.68-3.11,11.93,11.93,0,0,0,2.83-8.35,11.92,11.92,0,0,0-2.83-8.34,9.86,9.86,0,0,0-7.68-3.11A10.88,10.88,0,0,0,135.8,26.58Z"/><path class="cls-2" d="M179.44,63.46a2.26,2.26,0,0,1,2-2,9.34,9.34,0,0,0,3-.78,7.36,7.36,0,0,0,2.9-2.36A8.81,8.81,0,0,0,188.74,55a18.21,18.21,0,0,0,.38-3.75V48.64a11.09,11.09,0,0,1-4.37,3.62,14.76,14.76,0,0,1-6.65,1.42,16.44,16.44,0,0,1-6.35-1.17,13.57,13.57,0,0,1-4.85-3.3A14.84,14.84,0,0,1,163.78,44a20.19,20.19,0,0,1-1.1-6.84,19.23,19.23,0,0,1,1.16-6.83,15.11,15.11,0,0,1,3.25-5.19A14.41,14.41,0,0,1,172,21.85,15.74,15.74,0,0,1,178,20.69a14.1,14.1,0,0,1,6.74,1.48,11.17,11.17,0,0,1,4.15,3.56V24.15a2.7,2.7,0,0,1,2.71-2.7h0a2.71,2.71,0,0,1,2.71,2.7V51.22a24.32,24.32,0,0,1-.63,5.54,11.9,11.9,0,0,1-2.33,4.82A12.29,12.29,0,0,1,186.73,65a15.93,15.93,0,0,1-4.89,1.2,2.22,2.22,0,0,1-2.43-2.41Zm7.13-34.62A9.54,9.54,0,0,0,179,25.73a11.09,11.09,0,0,0-4.44.85,9.46,9.46,0,0,0-3.37,2.36A10.44,10.44,0,0,0,169,32.56a14.45,14.45,0,0,0,0,9.25,10.53,10.53,0,0,0,2.14,3.62,9.46,9.46,0,0,0,3.37,2.36,11.09,11.09,0,0,0,4.44.85,9.57,9.57,0,0,0,7.58-3.11,12.18,12.18,0,0,0,2.74-8.35A12.17,12.17,0,0,0,186.57,28.84Z"/><path class="cls-2" d="M201.74,30.92a15.94,15.94,0,0,1,3.12-5.32A14.63,14.63,0,0,1,209.74,22a15.24,15.24,0,0,1,6.45-1.32A16,16,0,0,1,222.74,22a13,13,0,0,1,4.72,3.49,15.38,15.38,0,0,1,2.86,5.26,21,21,0,0,1,1,6.48v1.64H206.12v.06a11,11,0,0,0,1,4.22,9.7,9.7,0,0,0,2.27,3.06A9.47,9.47,0,0,0,212.6,48a11.71,11.71,0,0,0,3.84.63,11.42,11.42,0,0,0,5.92-1.45,16.92,16.92,0,0,0,2.08-1.43,2.51,2.51,0,0,1,3.68.52h0a2.52,2.52,0,0,1-.45,3.32c-.19.17-.39.33-.59.49a17.66,17.66,0,0,1-2.83,1.83,16.51,16.51,0,0,1-3.46,1.29,17.15,17.15,0,0,1-4.1.47,18,18,0,0,1-6.51-1.13,14.76,14.76,0,0,1-5.07-3.25,14.24,14.24,0,0,1-3.31-5.13,18.71,18.71,0,0,1-1.16-6.73A19.19,19.19,0,0,1,201.74,30.92Zm21-2.8c-1.49-1.6-3.66-2.39-6.52-2.39s-5.28.79-6.89,2.39a10.74,10.74,0,0,0-3,6.36h19A10.43,10.43,0,0,0,222.77,28.12Z"/></svg>