<?xml version="1.0" encoding="utf-8"?>
<!-- Generator: Adobe Illustrator 22.0.1, SVG Export Plug-In . SVG Version: 6.00 Build 0)  -->
<svg version="1.1" id="Layer_1" xmlns="http://www.w3.org/2000/svg" xmlns:xlink="http://www.w3.org/1999/xlink" x="0px" y="0px"
	 viewBox="0 0 1920 1080" style="enable-background:new 0 0 1920 1080;" xml:space="preserve">
<style type="text/css">
	.st0{fill:#1B75BC;}
</style>
<rect x="60" y="60" class="st0" width="120" height="120"/>
<rect x="300" y="60" class="st0" width="120" height="120"/>
<rect x="540" y="60" class="st0" width="120" height="120"/>
<rect x="780" y="60" class="st0" width="120" height="120"/>
<rect x="1020" y="60" class="st0" width="120" height="120"/>
<rect x="1260" y="60" class="st0" width="120" height="120"/>
<rect x="1500" y="60" class="st0" width="120" height="120"/>
<rect x="1740" y="60" class="st0" width="120" height="120"/>
<rect x="60" y="330" class="st0" width="120" height="120"/>
<rect x="300" y="330" class="st0" width="120" height="120"/>
<rect x="540" y="330" class="st0" width="120" height="120"/>
<rect x="780" y="330" class="st0" width="120" height="120"/>
<rect x="1020" y="330" class="st0" width="120" height="120"/>
<rect x="1260" y="330" class="st0" width="120" height="120"/>
<rect x="1500" y="330" class="st0" width="120" height="120"/>
<rect x="1740" y="330" class="st0" width="120" height="120"/>
<rect x="60" y="600" class="st0" width="120" height="120"/>
<rect x="300" y="600" class="st0" width="120" height="120"/>
<rect x="540" y="600" class="st0" width="120" height="120"/>
<rect x="780" y="600" class="st0" width="120" height="120"/>
<rect x="1020" y="600" class="st0" width="120" height="120"/>
<rect x="1260" y="600" class="st0" width="120" height="120"/>
<rect x="1500" y="600" class="st0" width="120" height="120"/>
<rect x="1740" y="600" class="st0" width="120" height="120"/>
<rect x="60" y="870" class="st0" width="120" height="120"/>
<rect x="300" y="870" class="st0" width="120" height="120"/>
<rect x="540" y="870" class="st0" width="120" height="120"/>
<rect x="780" y="870" class="st0" width="120" height="120"/>
<rect x="1020" y="870" class="st0" width="120" height="120"/>
<rect x="1260" y="870" class="st0" width="120" height="120"/>
<rect x="1500" y="870" class="st0" width="120" height="120"/>
<rect x="1740" y="870" class="st0" width="120" height="120"/>
</svg>
