<svg id="Layer_1" data-name="Layer 1" xmlns="http://www.w3.org/2000/svg" viewBox="0 0 1920 1080"><defs><style>.cls-1{fill:#27aae1;}</style></defs><title>grid_Artboard 1</title><rect class="cls-1" x="60" y="60" width="120" height="120"/><rect class="cls-1" x="300" y="60" width="120" height="120"/><rect class="cls-1" x="540" y="60" width="120" height="120"/><rect class="cls-1" x="780" y="60" width="120" height="120"/><rect class="cls-1" x="1020" y="60" width="120" height="120"/><rect class="cls-1" x="1260" y="60" width="120" height="120"/><rect class="cls-1" x="1500" y="60" width="120" height="120"/><rect class="cls-1" x="1740" y="60" width="120" height="120"/><rect class="cls-1" x="60" y="330" width="120" height="120"/><rect class="cls-1" x="300" y="330" width="120" height="120"/><rect class="cls-1" x="540" y="330" width="120" height="120"/><rect class="cls-1" x="780" y="330" width="120" height="120"/><rect class="cls-1" x="1020" y="330" width="120" height="120"/><rect class="cls-1" x="1260" y="330" width="120" height="120"/><rect class="cls-1" x="1500" y="330" width="120" height="120"/><rect class="cls-1" x="1740" y="330" width="120" height="120"/><rect class="cls-1" x="60" y="600" width="120" height="120"/><rect class="cls-1" x="300" y="600" width="120" height="120"/><rect class="cls-1" x="540" y="600" width="120" height="120"/><rect class="cls-1" x="780" y="600" width="120" height="120"/><rect class="cls-1" x="1020" y="600" width="120" height="120"/><rect class="cls-1" x="1260" y="600" width="120" height="120"/><rect class="cls-1" x="1500" y="600" width="120" height="120"/><rect class="cls-1" x="1740" y="600" width="120" height="120"/><rect class="cls-1" x="60" y="870" width="120" height="120"/><rect class="cls-1" x="300" y="870" width="120" height="120"/><rect class="cls-1" x="540" y="870" width="120" height="120"/><rect class="cls-1" x="780" y="870" width="120" height="120"/><rect class="cls-1" x="1020" y="870" width="120" height="120"/><rect class="cls-1" x="1260" y="870" width="120" height="120"/><rect class="cls-1" x="1500" y="870" width="120" height="120"/><rect class="cls-1" x="1740" y="870" width="120" height="120"/></svg>