<svg xmlns="http://www.w3.org/2000/svg" viewBox="0 0 400 400"><defs><style>.cls-1{fill:#f4f3f1;}.cls-2{fill:#be1e2d;}.cls-2,.cls-3{opacity:0.5;}.cls-3{fill:#37b34a;}.cls-4{fill:#4a4a4a;}</style></defs><title>cull_placement_2</title><g id="No_Yes" data-name="No Yes"><rect id="Rectangle-5-Copy-16" class="cls-1" width="400" height="400"/><path class="cls-2" d="M137.5,200A62.52,62.52,0,0,0,136,186.51a62.52,62.52,0,1,0-72-48A62.5,62.5,0,1,0,137.5,200Z"/><circle class="cls-2" cx="175.59" cy="325" r="62.5"/><path class="cls-3" d="M175.59,225c-1.26,0-2.51,0-3.76.08A102.2,102.2,0,0,0,174.28,212,100,100,0,1,0,25.72,113,100,100,0,0,0,75,300c1.26,0,2.52,0,3.77-.08A100,100,0,1,0,175.59,225ZM75,262.5a62.49,62.49,0,0,1-11-124,62.5,62.5,0,1,1,72,48,62.47,62.47,0,0,1-61,76Zm100.59,125a62.5,62.5,0,1,1,62.5-62.5A62.5,62.5,0,0,1,175.59,387.5Z"/><circle class="cls-4" cx="75" cy="200" r="12.5"/><circle class="cls-4" cx="125" cy="125" r="12.5"/><circle class="cls-4" cx="175.59" cy="325" r="12.5"/><path class="cls-4" d="M150,112.5v-21h3l6.73,10.62a60.34,60.34,0,0,1,3.77,6.83l.06,0c-.25-2.81-.31-5.36-.31-8.63V91.5h2.56v21H163l-6.66-10.66a64.64,64.64,0,0,1-3.93-7l-.09,0c.15,2.65.21,5.18.21,8.67v9Z"/><path class="cls-4" d="M278.27,175V154h3L288,164.62a62,62,0,0,1,3.77,6.83l.06,0c-.25-2.81-.31-5.36-.31-8.63V154H294v21h-2.74l-6.67-10.66a64.51,64.51,0,0,1-3.92-7l-.1,0c.16,2.65.22,5.18.22,8.67v9Z"/><path class="cls-4" d="M197.81,175v-8.91L191.17,154h3.08l3,5.79c.81,1.59,1.43,2.87,2.08,4.34h.07c.59-1.38,1.3-2.75,2.11-4.34l3-5.79h3.08l-7,12.06V175Z"/></g></svg>