<?xml version="1.0" encoding="utf-8"?>
<!-- Generator: Adobe Illustrator 23.1.1, SVG Export Plug-In . SVG Version: 6.00 Build 0)  -->
<svg version="1.1" id="Layer_1" xmlns="http://www.w3.org/2000/svg" xmlns:xlink="http://www.w3.org/1999/xlink" x="0px" y="0px"
	 viewBox="0 0 612 792" style="enable-background:new 0 0 612 792;" xml:space="preserve">
<style type="text/css">
	.st0{font-family:'ArialMT';}
	.st1{font-size:12px;}
	.st2{font-family:'MiriamLibre-Regular';}
	.st3{font-size:24px;}
	.st4{fill:none;stroke:#020202;stroke-width:0.25;stroke-miterlimit:10;}
	.st5{fill:none;stroke:#000000;stroke-width:0.25;stroke-miterlimit:10;}
</style>
<g>
	<text transform="matrix(1 0 0 1 54 765)" class="st0 st1">COMPFORM</text>
	<g>
		<g>
			<polygon points="38.6,760.5 36,765 41.2,765 			"/>
			<polygon points="43.8,760.5 41.2,765 46.4,765 			"/>
		</g>
		<polygon points="41.2,756 38.6,760.5 43.8,760.5 		"/>
	</g>
</g>
<g>
	<text transform="matrix(1 0 0 1 36 54)" class="st2 st3">One-dimensional Noise</text>
	<text transform="matrix(0 1 -1 0 288 96.7563)" class="st2 st1">12</text>
	<text transform="matrix(0 1 -1 0 270 97.6563)" class="st2 st1">11</text>
	<text transform="matrix(0 1 -1 0 252 95.6563)" class="st2 st1">10</text>
	<text transform="matrix(0 1 -1 0 234 101.1563)" class="st2 st1">9</text>
	<text transform="matrix(0 1 -1 0 216 100.9563)" class="st2 st1">8</text>
	<text transform="matrix(0 1 -1 0 198 102.5563)" class="st2 st1">7</text>
	<text transform="matrix(0 1 -1 0 180 101.1563)" class="st2 st1">6</text>
	<text transform="matrix(0 1 -1 0 162 101.5563)" class="st2 st1">5</text>
	<text transform="matrix(0 1 -1 0 144 101.2563)" class="st2 st1">4</text>
	<text transform="matrix(0 1 -1 0 126 101.6563)" class="st2 st1">3</text>
	<text transform="matrix(0 1 -1 0 108 101.9563)" class="st2 st1">2</text>
	<text transform="matrix(0 1 -1 0 90 102.8563)" class="st2 st1">1</text>
	<line class="st4" x1="306" y1="126" x2="81" y2="126"/>
	<line class="st4" x1="81" y1="126" x2="81" y2="684"/>
	<text transform="matrix(0 1 -1 0 63 130.8604)" class="st2 st1">0</text>
	<text transform="matrix(0 1 -1 0 63 167.9756)" class="st2 st1">1</text>
	<text transform="matrix(0 1 -1 0 63 203.6393)" class="st2 st1">2</text>
	<text transform="matrix(0 1 -1 0 63 239.6335)" class="st2 st1">3</text>
	<text transform="matrix(0 1 -1 0 63 275.5669)" class="st2 st1">4</text>
	<text transform="matrix(0 1 -1 0 63 311.8186)" class="st2 st1">5</text>
	<text transform="matrix(0 1 -1 0 63 347.7401)" class="st2 st1">6</text>
	<text transform="matrix(0 1 -1 0 63 384.5861)" class="st2 st1">7</text>
	<text transform="matrix(0 1 -1 0 63 419.9013)" class="st2 st1">8</text>
	<text transform="matrix(0 1 -1 0 63 456.1172)" class="st2 st1">9</text>
	<text transform="matrix(0 1 -1 0 63 489.5372)" class="st2 st1">10</text>
	<text transform="matrix(0 1 -1 0 63 526.7125)" class="st2 st1">11</text>
	<text transform="matrix(0 1 -1 0 63 562.4059)" class="st2 st1">12</text>
	<text transform="matrix(0 1 -1 0 63 598.3098)" class="st2 st1">13</text>
	<text transform="matrix(0 1 -1 0 63 634.094)" class="st2 st1">14</text>
	<text transform="matrix(0 1 -1 0 63 670.4954)" class="st2 st1">15</text>
	<rect x="36" y="126" class="st5" width="18" height="18"/>
	<rect x="36" y="162" class="st5" width="18" height="18"/>
	<rect x="36" y="198" class="st5" width="18" height="18"/>
	<rect x="36" y="234" class="st5" width="18" height="18"/>
	<rect x="36" y="270" class="st5" width="18" height="18"/>
	<rect x="36" y="306" class="st5" width="18" height="18"/>
	<rect x="36" y="342" class="st5" width="18" height="18"/>
	<rect x="36" y="378" class="st5" width="18" height="18"/>
	<rect x="36" y="414" class="st5" width="18" height="18"/>
	<rect x="36" y="450" class="st5" width="18" height="18"/>
	<rect x="36" y="486" class="st5" width="18" height="18"/>
	<rect x="36" y="522" class="st5" width="18" height="18"/>
	<rect x="36" y="558" class="st5" width="18" height="18"/>
	<rect x="36" y="594" class="st5" width="18" height="18"/>
	<rect x="36" y="630" class="st5" width="18" height="18"/>
	<rect x="36" y="666" class="st5" width="18" height="18"/>
</g>
</svg>
